<?xml version="1.0" encoding="utf-8" standalone="no"?>
<!DOCTYPE svg PUBLIC "-//W3C//DTD SVG 1.1//EN"
  "http://www.w3.org/Graphics/SVG/1.1/DTD/svg11.dtd">
<svg xmlns:xlink="http://www.w3.org/1999/xlink" width="1152pt" height="648pt" viewBox="0 0 1152 648" xmlns="http://www.w3.org/2000/svg" version="1.1">
 <metadata>
  <rdf:RDF xmlns:dc="http://purl.org/dc/elements/1.1/" xmlns:cc="http://creativecommons.org/ns#" xmlns:rdf="http://www.w3.org/1999/02/22-rdf-syntax-ns#">
   <cc:Work>
    <dc:type rdf:resource="http://purl.org/dc/dcmitype/StillImage"/>
    <dc:date>2022-05-05T15:15:11.114255</dc:date>
    <dc:format>image/svg+xml</dc:format>
    <dc:creator>
     <cc:Agent>
      <dc:title>Matplotlib v3.5.1, https://matplotlib.org/</dc:title>
     </cc:Agent>
    </dc:creator>
   </cc:Work>
  </rdf:RDF>
 </metadata>
 <defs>
  <style type="text/css">*{stroke-linejoin: round; stroke-linecap: butt}</style>
 </defs>
 <g id="figure_1">
  <g id="patch_1">
   <path d="M 0 648 
L 1152 648 
L 1152 0 
L 0 0 
L 0 648 
z
" style="fill: none"/>
  </g>
  <g id="axes_1"/>
  <g id="axes_2">
   <g id="patch_2">
    <path d="M 144 567 
L 1036.8 567 
L 1036.8 77.76 
L 144 77.76 
z
" style="fill: #ffffff"/>
   </g>
   <g id="patch_3">
    <path d="M 657.36 473.74663 
L 689.245714 473.74663 
L 689.245714 469.744339 
L 657.36 469.744339 
L 657.36 473.74663 
z
" clip-path="url(#p7823a0b1b2)" style="fill: none; stroke: #000000; stroke-linejoin: miter"/>
   </g>
   <g id="patch_4">
    <path d="M 714.116571 343.752232 
L 746.002286 343.752232 
L 746.002286 339.749941 
L 714.116571 339.749941 
L 714.116571 343.752232 
z
" clip-path="url(#p7823a0b1b2)" style="fill: none; stroke: #000000; stroke-linejoin: miter"/>
   </g>
   <g id="patch_5">
    <path d="M 832.731429 158.686315 
L 864.617143 158.686315 
L 864.617143 154.684025 
L 832.731429 154.684025 
L 832.731429 158.686315 
z
" clip-path="url(#p7823a0b1b2)" style="fill: none; stroke: #000000; stroke-linejoin: miter"/>
   </g>
   <g id="patch_6">
    <path d="M 726.552 548.589463 
L 758.437714 548.589463 
L 758.437714 544.587173 
L 726.552 544.587173 
L 726.552 548.589463 
z
" clip-path="url(#p7823a0b1b2)" style="fill: none; stroke: #000000; stroke-linejoin: miter"/>
   </g>
   <g id="patch_7">
    <path d="M 769.916571 404.74714 
L 801.802286 404.74714 
L 801.802286 400.744849 
L 769.916571 400.744849 
L 769.916571 404.74714 
z
" clip-path="url(#p7823a0b1b2)" style="fill: none; stroke: #000000; stroke-linejoin: miter"/>
   </g>
   <g id="patch_8">
    <path d="M 497.931429 480.950753 
L 529.817143 480.950753 
L 529.817143 476.948462 
L 497.931429 476.948462 
L 497.931429 480.950753 
z
" clip-path="url(#p7823a0b1b2)" style="fill: none; stroke: #000000; stroke-linejoin: miter"/>
   </g>
   <g id="patch_9">
    <path d="M 969.202286 345.673331 
L 1001.088 345.673331 
L 1001.088 341.671041 
L 969.202286 341.671041 
L 969.202286 345.673331 
z
" clip-path="url(#p7823a0b1b2)" style="fill: none; stroke: #000000; stroke-linejoin: miter"/>
   </g>
   <g id="patch_10">
    <path d="M 628.344 497.680327 
L 660.229714 497.680327 
L 660.229714 493.678037 
L 628.344 493.678037 
L 628.344 497.680327 
z
" clip-path="url(#p7823a0b1b2)" style="fill: none; stroke: #000000; stroke-linejoin: miter"/>
   </g>
   <g id="patch_11">
    <path d="M 470.509714 495.599136 
L 502.395429 495.599136 
L 502.395429 491.596846 
L 470.509714 491.596846 
L 470.509714 495.599136 
z
" clip-path="url(#p7823a0b1b2)" style="fill: none; stroke: #000000; stroke-linejoin: miter"/>
   </g>
   <g id="patch_12">
    <path d="M 646.2 518.572284 
L 678.085714 518.572284 
L 678.085714 514.569993 
L 646.2 514.569993 
L 646.2 518.572284 
z
" clip-path="url(#p7823a0b1b2)" style="fill: none; stroke: #000000; stroke-linejoin: miter"/>
   </g>
   <g id="patch_13">
    <path d="M 914.04 293.883691 
L 945.925714 293.883691 
L 945.925714 289.881401 
L 914.04 289.881401 
L 914.04 293.883691 
z
" clip-path="url(#p7823a0b1b2)" style="fill: none; stroke: #000000; stroke-linejoin: miter"/>
   </g>
   <g id="patch_14">
    <path d="M 694.028571 502.963351 
L 725.914286 502.963351 
L 725.914286 498.96106 
L 694.028571 498.96106 
L 694.028571 502.963351 
z
" clip-path="url(#p7823a0b1b2)" style="fill: none; stroke: #000000; stroke-linejoin: miter"/>
   </g>
   <g id="patch_15">
    <path d="M 548.310857 460.699162 
L 580.196571 460.699162 
L 580.196571 456.696872 
L 548.310857 456.696872 
L 548.310857 460.699162 
z
" clip-path="url(#p7823a0b1b2)" style="fill: none; stroke: #000000; stroke-linejoin: miter"/>
   </g>
   <g id="patch_16">
    <path d="M 459.668571 330.944902 
L 491.554286 330.944902 
L 491.554286 326.942611 
L 459.668571 326.942611 
L 459.668571 330.944902 
z
" clip-path="url(#p7823a0b1b2)" style="fill: none; stroke: #000000; stroke-linejoin: miter"/>
   </g>
   <g id="patch_17">
    <path d="M 548.629714 340.15017 
L 580.515429 340.15017 
L 580.515429 336.14788 
L 548.629714 336.14788 
L 548.629714 340.15017 
z
" clip-path="url(#p7823a0b1b2)" style="fill: none; stroke: #000000; stroke-linejoin: miter"/>
   </g>
   <g id="patch_18">
    <path d="M 624.517714 473.186309 
L 656.403429 473.186309 
L 656.403429 469.184018 
L 624.517714 469.184018 
L 624.517714 473.186309 
z
" clip-path="url(#p7823a0b1b2)" style="fill: none; stroke: #000000; stroke-linejoin: miter"/>
   </g>
   <g id="patch_19">
    <path d="M 198.843429 482.551669 
L 230.729143 482.551669 
L 230.729143 478.549378 
L 198.843429 478.549378 
L 198.843429 482.551669 
z
" clip-path="url(#p7823a0b1b2)" style="fill: none; stroke: #000000; stroke-linejoin: miter"/>
   </g>
   <g id="patch_20">
    <path d="M 858.877714 156.204895 
L 890.763429 156.204895 
L 890.763429 152.202605 
L 858.877714 152.202605 
L 858.877714 156.204895 
z
" clip-path="url(#p7823a0b1b2)" style="fill: none; stroke: #000000; stroke-linejoin: miter"/>
   </g>
   <g id="patch_21">
    <path d="M 667.563429 143.637703 
L 699.449143 143.637703 
L 699.449143 139.635412 
L 667.563429 139.635412 
L 667.563429 143.637703 
z
" clip-path="url(#p7823a0b1b2)" style="fill: none; stroke: #000000; stroke-linejoin: miter"/>
   </g>
   <g id="patch_22">
    <path d="M 342.329143 460.138842 
L 374.214857 460.138842 
L 374.214857 456.136551 
L 342.329143 456.136551 
L 342.329143 460.138842 
z
" clip-path="url(#p7823a0b1b2)" style="fill: none; stroke: #000000; stroke-linejoin: miter"/>
   </g>
   <g id="patch_23">
    <path d="M 780.438857 401.785445 
L 812.324571 401.785445 
L 812.324571 397.783154 
L 780.438857 397.783154 
L 780.438857 401.785445 
z
" clip-path="url(#p7823a0b1b2)" style="fill: none; stroke: #000000; stroke-linejoin: miter"/>
   </g>
   <g id="patch_24">
    <path d="M 729.421714 416.273737 
L 761.307429 416.273737 
L 761.307429 412.271446 
L 729.421714 412.271446 
L 729.421714 416.273737 
z
" clip-path="url(#p7823a0b1b2)" style="fill: none; stroke: #000000; stroke-linejoin: miter"/>
   </g>
   <g id="patch_25">
    <path d="M 778.525714 345.993514 
L 810.411429 345.993514 
L 810.411429 341.991224 
L 778.525714 341.991224 
L 778.525714 345.993514 
z
" clip-path="url(#p7823a0b1b2)" style="fill: none; stroke: #000000; stroke-linejoin: miter"/>
   </g>
   <g id="patch_26">
    <path d="M 749.190857 511.608298 
L 781.076571 511.608298 
L 781.076571 507.606008 
L 749.190857 507.606008 
L 749.190857 511.608298 
z
" clip-path="url(#p7823a0b1b2)" style="fill: none; stroke: #000000; stroke-linejoin: miter"/>
   </g>
   <g id="patch_27">
    <path d="M 702 384.175366 
L 733.885714 384.175366 
L 733.885714 380.173076 
L 702 380.173076 
L 702 384.175366 
z
" clip-path="url(#p7823a0b1b2)" style="fill: none; stroke: #000000; stroke-linejoin: miter"/>
   </g>
   <g id="patch_28">
    <path d="M 671.708571 534.581446 
L 703.594286 534.581446 
L 703.594286 530.579156 
L 671.708571 530.579156 
L 671.708571 534.581446 
z
" clip-path="url(#p7823a0b1b2)" style="fill: none; stroke: #000000; stroke-linejoin: miter"/>
   </g>
   <g id="patch_29">
    <path d="M 586.892571 506.725504 
L 618.778286 506.725504 
L 618.778286 502.723213 
L 586.892571 502.723213 
L 586.892571 506.725504 
z
" clip-path="url(#p7823a0b1b2)" style="fill: none; stroke: #000000; stroke-linejoin: miter"/>
   </g>
   <g id="patch_30">
    <path d="M 713.16 489.835838 
L 745.045714 489.835838 
L 745.045714 485.833547 
L 713.16 485.833547 
L 713.16 489.835838 
z
" clip-path="url(#p7823a0b1b2)" style="fill: none; stroke: #000000; stroke-linejoin: miter"/>
   </g>
   <g id="patch_31">
    <path d="M 815.832 176.136302 
L 847.717714 176.136302 
L 847.717714 172.134012 
L 815.832 172.134012 
L 815.832 176.136302 
z
" clip-path="url(#p7823a0b1b2)" style="fill: none; stroke: #000000; stroke-linejoin: miter"/>
   </g>
   <g id="patch_32">
    <path d="M 384.737143 341.751086 
L 416.622857 341.751086 
L 416.622857 337.748796 
L 384.737143 337.748796 
L 384.737143 341.751086 
z
" clip-path="url(#p7823a0b1b2)" style="fill: none; stroke: #000000; stroke-linejoin: miter"/>
   </g>
   <g id="patch_33">
    <path d="M 580.196571 418.675111 
L 612.082286 418.675111 
L 612.082286 414.672821 
L 580.196571 414.672821 
L 580.196571 418.675111 
z
" clip-path="url(#p7823a0b1b2)" style="fill: none; stroke: #000000; stroke-linejoin: miter"/>
   </g>
   <g id="patch_34">
    <path d="M 265.484571 342.791682 
L 297.370286 342.791682 
L 297.370286 338.789391 
L 265.484571 338.789391 
L 265.484571 342.791682 
z
" clip-path="url(#p7823a0b1b2)" style="fill: none; stroke: #000000; stroke-linejoin: miter"/>
   </g>
   <g id="patch_35">
    <path d="M 378.36 391.859764 
L 410.245714 391.859764 
L 410.245714 387.857474 
L 378.36 387.857474 
L 378.36 391.859764 
z
" clip-path="url(#p7823a0b1b2)" style="fill: none; stroke: #000000; stroke-linejoin: miter"/>
   </g>
   <g id="patch_36">
    <path d="M 917.866286 137.794359 
L 949.752 137.794359 
L 949.752 133.792068 
L 917.866286 133.792068 
L 917.866286 137.794359 
z
" clip-path="url(#p7823a0b1b2)" style="fill: none; stroke: #000000; stroke-linejoin: miter"/>
   </g>
   <g id="patch_37">
    <path d="M 842.934857 334.787101 
L 874.820571 334.787101 
L 874.820571 330.78481 
L 842.934857 330.78481 
L 842.934857 334.787101 
z
" clip-path="url(#p7823a0b1b2)" style="fill: none; stroke: #000000; stroke-linejoin: miter"/>
   </g>
   <g id="patch_38">
    <path d="M 361.779429 456.696872 
L 393.665143 456.696872 
L 393.665143 452.694581 
L 361.779429 452.694581 
L 361.779429 456.696872 
z
" clip-path="url(#p7823a0b1b2)" style="fill: none; stroke: #000000; stroke-linejoin: miter"/>
   </g>
   <g id="patch_39">
    <path d="M 753.336 521.13375 
L 785.221714 521.13375 
L 785.221714 517.131459 
L 753.336 517.131459 
L 753.336 521.13375 
z
" clip-path="url(#p7823a0b1b2)" style="fill: none; stroke: #000000; stroke-linejoin: miter"/>
   </g>
   <g id="patch_40">
    <path d="M 650.982857 481.110844 
L 682.868571 481.110844 
L 682.868571 477.108554 
L 650.982857 477.108554 
L 650.982857 481.110844 
z
" clip-path="url(#p7823a0b1b2)" style="fill: none; stroke: #000000; stroke-linejoin: miter"/>
   </g>
   <g id="patch_41">
    <path d="M 378.36 360.481806 
L 410.245714 360.481806 
L 410.245714 356.479516 
L 378.36 356.479516 
L 378.36 360.481806 
z
" clip-path="url(#p7823a0b1b2)" style="fill: none; stroke: #000000; stroke-linejoin: miter"/>
   </g>
   <g id="patch_42">
    <path d="M 735.798857 207.033986 
L 767.684571 207.033986 
L 767.684571 203.031695 
L 735.798857 203.031695 
L 735.798857 207.033986 
z
" clip-path="url(#p7823a0b1b2)" style="fill: none; stroke: #000000; stroke-linejoin: miter"/>
   </g>
   <g id="patch_43">
    <path d="M 405.781714 422.357219 
L 437.667429 422.357219 
L 437.667429 418.354928 
L 405.781714 418.354928 
L 405.781714 422.357219 
z
" clip-path="url(#p7823a0b1b2)" style="fill: none; stroke: #000000; stroke-linejoin: miter"/>
   </g>
   <g id="patch_44">
    <path d="M 471.147429 409.229705 
L 503.033143 409.229705 
L 503.033143 405.227415 
L 471.147429 405.227415 
L 471.147429 409.229705 
z
" clip-path="url(#p7823a0b1b2)" style="fill: none; stroke: #000000; stroke-linejoin: miter"/>
   </g>
   <g id="patch_45">
    <path d="M 499.844571 355.599012 
L 531.730286 355.599012 
L 531.730286 351.596721 
L 499.844571 351.596721 
L 499.844571 355.599012 
z
" clip-path="url(#p7823a0b1b2)" style="fill: none; stroke: #000000; stroke-linejoin: miter"/>
   </g>
   <g id="patch_46">
    <path d="M 406.100571 231.047729 
L 437.986286 231.047729 
L 437.986286 227.045438 
L 406.100571 227.045438 
L 406.100571 231.047729 
z
" clip-path="url(#p7823a0b1b2)" style="fill: none; stroke: #000000; stroke-linejoin: miter"/>
   </g>
   <g id="patch_47">
    <path d="M 532.049143 282.757323 
L 563.934857 282.757323 
L 563.934857 278.755033 
L 532.049143 278.755033 
L 532.049143 282.757323 
z
" clip-path="url(#p7823a0b1b2)" style="fill: none; stroke: #000000; stroke-linejoin: miter"/>
   </g>
   <g id="patch_48">
    <path d="M 629.619429 524.815857 
L 661.505143 524.815857 
L 661.505143 520.813567 
L 629.619429 520.813567 
L 629.619429 524.815857 
z
" clip-path="url(#p7823a0b1b2)" style="fill: none; stroke: #000000; stroke-linejoin: miter"/>
   </g>
   <g id="patch_49">
    <path d="M 774.061714 433.883815 
L 805.947429 433.883815 
L 805.947429 429.881525 
L 774.061714 429.881525 
L 774.061714 433.883815 
z
" clip-path="url(#p7823a0b1b2)" style="fill: none; stroke: #000000; stroke-linejoin: miter"/>
   </g>
   <g id="patch_50">
    <path d="M 770.554286 483.912448 
L 802.44 483.912448 
L 802.44 479.910157 
L 770.554286 479.910157 
L 770.554286 483.912448 
z
" clip-path="url(#p7823a0b1b2)" style="fill: none; stroke: #000000; stroke-linejoin: miter"/>
   </g>
   <g id="patch_51">
    <path d="M 591.994286 357.520111 
L 623.88 357.520111 
L 623.88 353.517821 
L 591.994286 353.517821 
L 591.994286 357.520111 
z
" clip-path="url(#p7823a0b1b2)" style="fill: none; stroke: #000000; stroke-linejoin: miter"/>
   </g>
   <g id="patch_52">
    <path d="M 674.897143 454.615681 
L 706.782857 454.615681 
L 706.782857 450.61339 
L 674.897143 450.61339 
L 674.897143 454.615681 
z
" clip-path="url(#p7823a0b1b2)" style="fill: none; stroke: #000000; stroke-linejoin: miter"/>
   </g>
   <g id="patch_53">
    <path d="M 444.682286 366.485242 
L 476.568 366.485242 
L 476.568 362.482952 
L 444.682286 362.482952 
L 444.682286 366.485242 
z
" clip-path="url(#p7823a0b1b2)" style="fill: none; stroke: #000000; stroke-linejoin: miter"/>
   </g>
   <g id="patch_54">
    <path d="M 605.386286 423.637952 
L 637.272 423.637952 
L 637.272 419.635661 
L 605.386286 419.635661 
L 605.386286 423.637952 
z
" clip-path="url(#p7823a0b1b2)" style="fill: none; stroke: #000000; stroke-linejoin: miter"/>
   </g>
   <g id="patch_55">
    <path d="M 238.062857 463.340674 
L 269.948571 463.340674 
L 269.948571 459.338384 
L 238.062857 459.338384 
L 238.062857 463.340674 
z
" clip-path="url(#p7823a0b1b2)" style="fill: none; stroke: #000000; stroke-linejoin: miter"/>
   </g>
   <g id="patch_56">
    <path d="M 317.777143 444.69 
L 349.662857 444.69 
L 349.662857 440.687709 
L 317.777143 440.687709 
L 317.777143 444.69 
z
" clip-path="url(#p7823a0b1b2)" style="fill: none; stroke: #000000; stroke-linejoin: miter"/>
   </g>
   <g id="patch_57">
    <path d="M 885.024 139.315229 
L 916.909714 139.315229 
L 916.909714 135.312938 
L 885.024 135.312938 
L 885.024 139.315229 
z
" clip-path="url(#p7823a0b1b2)" style="fill: none; stroke: #000000; stroke-linejoin: miter"/>
   </g>
   <g id="patch_58">
    <path d="M 751.422857 513.769535 
L 783.308571 513.769535 
L 783.308571 509.767245 
L 751.422857 509.767245 
L 751.422857 513.769535 
z
" clip-path="url(#p7823a0b1b2)" style="fill: none; stroke: #000000; stroke-linejoin: miter"/>
   </g>
   <g id="patch_59">
    <path d="M 386.331429 460.218887 
L 418.217143 460.218887 
L 418.217143 456.216597 
L 386.331429 456.216597 
L 386.331429 460.218887 
z
" clip-path="url(#p7823a0b1b2)" style="fill: none; stroke: #000000; stroke-linejoin: miter"/>
   </g>
   <g id="patch_60">
    <path d="M 460.306286 480.150295 
L 492.192 480.150295 
L 492.192 476.148004 
L 460.306286 476.148004 
L 460.306286 480.150295 
z
" clip-path="url(#p7823a0b1b2)" style="fill: none; stroke: #000000; stroke-linejoin: miter"/>
   </g>
   <g id="patch_61">
    <path d="M 653.852571 517.451643 
L 685.738286 517.451643 
L 685.738286 513.449352 
L 653.852571 513.449352 
L 653.852571 517.451643 
z
" clip-path="url(#p7823a0b1b2)" style="fill: none; stroke: #000000; stroke-linejoin: miter"/>
   </g>
   <g id="patch_62">
    <path d="M 557.238857 148.440452 
L 589.124571 148.440452 
L 589.124571 144.438161 
L 557.238857 144.438161 
L 557.238857 148.440452 
z
" clip-path="url(#p7823a0b1b2)" style="fill: none; stroke: #000000; stroke-linejoin: miter"/>
   </g>
   <g id="patch_63">
    <path d="M 798.294857 402.345766 
L 830.180571 402.345766 
L 830.180571 398.343475 
L 798.294857 398.343475 
L 798.294857 402.345766 
z
" clip-path="url(#p7823a0b1b2)" style="fill: none; stroke: #000000; stroke-linejoin: miter"/>
   </g>
   <g id="patch_64">
    <path d="M 665.650286 477.989058 
L 697.536 477.989058 
L 697.536 473.986767 
L 665.650286 473.986767 
L 665.650286 477.989058 
z
" clip-path="url(#p7823a0b1b2)" style="fill: none; stroke: #000000; stroke-linejoin: miter"/>
   </g>
   <g id="patch_65">
    <path d="M 673.940571 297.085524 
L 705.826286 297.085524 
L 705.826286 293.083233 
L 673.940571 293.083233 
L 673.940571 297.085524 
z
" clip-path="url(#p7823a0b1b2)" style="fill: none; stroke: #000000; stroke-linejoin: miter"/>
   </g>
   <g id="patch_66">
    <path d="M 563.297143 490.396158 
L 595.182857 490.396158 
L 595.182857 486.393868 
L 563.297143 486.393868 
L 563.297143 490.396158 
z
" clip-path="url(#p7823a0b1b2)" style="fill: none; stroke: #000000; stroke-linejoin: miter"/>
   </g>
   <g id="patch_67">
    <path d="M 651.620571 448.452153 
L 683.506286 448.452153 
L 683.506286 444.449863 
L 651.620571 444.449863 
L 651.620571 448.452153 
z
" clip-path="url(#p7823a0b1b2)" style="fill: none; stroke: #000000; stroke-linejoin: miter"/>
   </g>
   <g id="patch_68">
    <path d="M 565.529143 372.568724 
L 597.414857 372.568724 
L 597.414857 368.566433 
L 565.529143 368.566433 
L 565.529143 372.568724 
z
" clip-path="url(#p7823a0b1b2)" style="fill: none; stroke: #000000; stroke-linejoin: miter"/>
   </g>
   <g id="patch_69">
    <path d="M 689.245714 538.263554 
L 721.131429 538.263554 
L 721.131429 534.261263 
L 689.245714 534.261263 
L 689.245714 538.263554 
z
" clip-path="url(#p7823a0b1b2)" style="fill: none; stroke: #000000; stroke-linejoin: miter"/>
   </g>
   <g id="patch_70">
    <path d="M 647.794286 401.705399 
L 679.68 401.705399 
L 679.68 397.703109 
L 647.794286 397.703109 
L 647.794286 401.705399 
z
" clip-path="url(#p7823a0b1b2)" style="fill: none; stroke: #000000; stroke-linejoin: miter"/>
   </g>
   <g id="patch_71">
    <path d="M 866.849143 179.498226 
L 898.734857 179.498226 
L 898.734857 175.495936 
L 866.849143 175.495936 
L 866.849143 179.498226 
z
" clip-path="url(#p7823a0b1b2)" style="fill: none; stroke: #000000; stroke-linejoin: miter"/>
   </g>
   <g id="patch_72">
    <path d="M 707.739429 428.920975 
L 739.625143 428.920975 
L 739.625143 424.918685 
L 707.739429 424.918685 
L 707.739429 428.920975 
z
" clip-path="url(#p7823a0b1b2)" style="fill: none; stroke: #000000; stroke-linejoin: miter"/>
   </g>
   <g id="patch_73">
    <path d="M 735.161143 349.035255 
L 767.046857 349.035255 
L 767.046857 345.032965 
L 735.161143 345.032965 
L 735.161143 349.035255 
z
" clip-path="url(#p7823a0b1b2)" style="fill: none; stroke: #000000; stroke-linejoin: miter"/>
   </g>
   <g id="patch_74">
    <path d="M 701.681143 351.756813 
L 733.566857 351.756813 
L 733.566857 347.754522 
L 701.681143 347.754522 
L 701.681143 351.756813 
z
" clip-path="url(#p7823a0b1b2)" style="fill: none; stroke: #000000; stroke-linejoin: miter"/>
   </g>
   <g id="patch_75">
    <path d="M 415.347429 368.886616 
L 447.233143 368.886616 
L 447.233143 364.884326 
L 415.347429 364.884326 
L 415.347429 368.886616 
z
" clip-path="url(#p7823a0b1b2)" style="fill: none; stroke: #000000; stroke-linejoin: miter"/>
   </g>
   <g id="patch_76">
    <path d="M 451.378286 349.995805 
L 483.264 349.995805 
L 483.264 345.993514 
L 451.378286 345.993514 
L 451.378286 349.995805 
z
" clip-path="url(#p7823a0b1b2)" style="fill: none; stroke: #000000; stroke-linejoin: miter"/>
   </g>
   <g id="patch_77">
    <path d="M 807.222857 263.146099 
L 839.108571 263.146099 
L 839.108571 259.143809 
L 807.222857 259.143809 
L 807.222857 263.146099 
z
" clip-path="url(#p7823a0b1b2)" style="fill: none; stroke: #000000; stroke-linejoin: miter"/>
   </g>
   <g id="patch_78">
    <path d="M 502.076571 349.435484 
L 533.962286 349.435484 
L 533.962286 345.433194 
L 502.076571 345.433194 
L 502.076571 349.435484 
z
" clip-path="url(#p7823a0b1b2)" style="fill: none; stroke: #000000; stroke-linejoin: miter"/>
   </g>
   <g id="patch_79">
    <path d="M 380.592 422.757448 
L 412.477714 422.757448 
L 412.477714 418.755157 
L 380.592 418.755157 
L 380.592 422.757448 
z
" clip-path="url(#p7823a0b1b2)" style="fill: none; stroke: #000000; stroke-linejoin: miter"/>
   </g>
   <g id="patch_80">
    <path d="M 613.038857 373.048999 
L 644.924571 373.048999 
L 644.924571 369.046708 
L 613.038857 369.046708 
L 613.038857 373.048999 
z
" clip-path="url(#p7823a0b1b2)" style="fill: none; stroke: #000000; stroke-linejoin: miter"/>
   </g>
   <g id="patch_81">
    <path d="M 864.617143 144.117978 
L 896.502857 144.117978 
L 896.502857 140.115687 
L 864.617143 140.115687 
L 864.617143 144.117978 
z
" clip-path="url(#p7823a0b1b2)" style="fill: none; stroke: #000000; stroke-linejoin: miter"/>
   </g>
   <g id="patch_82">
    <path d="M 667.244571 517.611734 
L 699.130286 517.611734 
L 699.130286 513.609444 
L 667.244571 513.609444 
L 667.244571 517.611734 
z
" clip-path="url(#p7823a0b1b2)" style="fill: none; stroke: #000000; stroke-linejoin: miter"/>
   </g>
   <g id="patch_83">
    <path d="M 681.912 289.561217 
L 713.797714 289.561217 
L 713.797714 285.558927 
L 681.912 285.558927 
L 681.912 289.561217 
z
" clip-path="url(#p7823a0b1b2)" style="fill: none; stroke: #000000; stroke-linejoin: miter"/>
   </g>
   <g id="patch_84">
    <path d="M 712.203429 531.379614 
L 744.089143 531.379614 
L 744.089143 527.377323 
L 712.203429 527.377323 
L 712.203429 531.379614 
z
" clip-path="url(#p7823a0b1b2)" style="fill: none; stroke: #000000; stroke-linejoin: miter"/>
   </g>
   <g id="patch_85">
    <path d="M 369.750857 474.226904 
L 401.636571 474.226904 
L 401.636571 470.224614 
L 369.750857 470.224614 
L 369.750857 474.226904 
z
" clip-path="url(#p7823a0b1b2)" style="fill: none; stroke: #000000; stroke-linejoin: miter"/>
   </g>
   <g id="patch_86">
    <path d="M 829.224 448.13197 
L 861.109714 448.13197 
L 861.109714 444.129679 
L 829.224 444.129679 
L 829.224 448.13197 
z
" clip-path="url(#p7823a0b1b2)" style="fill: none; stroke: #000000; stroke-linejoin: miter"/>
   </g>
   <g id="patch_87">
    <path d="M 250.498286 458.698017 
L 282.384 458.698017 
L 282.384 454.695726 
L 250.498286 454.695726 
L 250.498286 458.698017 
z
" clip-path="url(#p7823a0b1b2)" style="fill: none; stroke: #000000; stroke-linejoin: miter"/>
   </g>
   <g id="patch_88">
    <path d="M 604.429714 140.996191 
L 636.315429 140.996191 
L 636.315429 136.993901 
L 604.429714 136.993901 
L 604.429714 140.996191 
z
" clip-path="url(#p7823a0b1b2)" style="fill: none; stroke: #000000; stroke-linejoin: miter"/>
   </g>
   <g id="patch_89">
    <path d="M 484.539429 271.230726 
L 516.425143 271.230726 
L 516.425143 267.228436 
L 484.539429 267.228436 
L 484.539429 271.230726 
z
" clip-path="url(#p7823a0b1b2)" style="fill: none; stroke: #000000; stroke-linejoin: miter"/>
   </g>
   <g id="patch_90">
    <path d="M 444.363429 165.170026 
L 476.249143 165.170026 
L 476.249143 161.167736 
L 444.363429 161.167736 
L 444.363429 165.170026 
z
" clip-path="url(#p7823a0b1b2)" style="fill: none; stroke: #000000; stroke-linejoin: miter"/>
   </g>
   <g id="patch_91">
    <path d="M 455.204571 179.81841 
L 487.090286 179.81841 
L 487.090286 175.816119 
L 455.204571 175.816119 
L 455.204571 179.81841 
z
" clip-path="url(#p7823a0b1b2)" style="fill: none; stroke: #000000; stroke-linejoin: miter"/>
   </g>
   <g id="patch_92">
    <path d="M 537.469714 143.717749 
L 569.355429 143.717749 
L 569.355429 139.715458 
L 537.469714 139.715458 
L 537.469714 143.717749 
z
" clip-path="url(#p7823a0b1b2)" style="fill: none; stroke: #000000; stroke-linejoin: miter"/>
   </g>
   <g id="patch_93">
    <path d="M 583.385143 139.395275 
L 615.270857 139.395275 
L 615.270857 135.392984 
L 583.385143 135.392984 
L 583.385143 139.395275 
z
" clip-path="url(#p7823a0b1b2)" style="fill: none; stroke: #000000; stroke-linejoin: miter"/>
   </g>
   <g id="patch_94">
    <path d="M 668.52 461.259483 
L 700.405714 461.259483 
L 700.405714 457.257192 
L 668.52 457.257192 
L 668.52 461.259483 
z
" clip-path="url(#p7823a0b1b2)" style="fill: none; stroke: #000000; stroke-linejoin: miter"/>
   </g>
   <g id="patch_95">
    <path d="M 421.724571 181.579418 
L 453.610286 181.579418 
L 453.610286 177.577127 
L 421.724571 177.577127 
L 421.724571 181.579418 
z
" clip-path="url(#p7823a0b1b2)" style="fill: none; stroke: #000000; stroke-linejoin: miter"/>
   </g>
   <g id="patch_96">
    <path d="M 434.478857 184.300975 
L 466.364571 184.300975 
L 466.364571 180.298685 
L 434.478857 180.298685 
L 434.478857 184.300975 
z
" clip-path="url(#p7823a0b1b2)" style="fill: none; stroke: #000000; stroke-linejoin: miter"/>
   </g>
   <g id="patch_97">
    <path d="M 284.934857 330.864856 
L 316.820571 330.864856 
L 316.820571 326.862565 
L 284.934857 326.862565 
L 284.934857 330.864856 
z
" clip-path="url(#p7823a0b1b2)" style="fill: none; stroke: #000000; stroke-linejoin: miter"/>
   </g>
   <g id="patch_98">
    <path d="M 349.981714 315.335969 
L 381.867429 315.335969 
L 381.867429 311.333678 
L 349.981714 311.333678 
L 349.981714 315.335969 
z
" clip-path="url(#p7823a0b1b2)" style="fill: none; stroke: #000000; stroke-linejoin: miter"/>
   </g>
   <g id="patch_99">
    <path d="M 646.518857 223.76356 
L 678.404571 223.76356 
L 678.404571 219.76127 
L 646.518857 219.76127 
L 646.518857 223.76356 
z
" clip-path="url(#p7823a0b1b2)" style="fill: none; stroke: #000000; stroke-linejoin: miter"/>
   </g>
   <g id="patch_100">
    <path d="M 602.197714 514.169764 
L 634.083429 514.169764 
L 634.083429 510.167474 
L 602.197714 510.167474 
L 602.197714 514.169764 
z
" clip-path="url(#p7823a0b1b2)" style="fill: none; stroke: #000000; stroke-linejoin: miter"/>
   </g>
   <g id="patch_101">
    <path d="M 516.106286 145.558802 
L 547.992 145.558802 
L 547.992 141.556512 
L 516.106286 141.556512 
L 516.106286 145.558802 
z
" clip-path="url(#p7823a0b1b2)" style="fill: none; stroke: #000000; stroke-linejoin: miter"/>
   </g>
   <g id="patch_102">
    <path d="M 617.184 337.988933 
L 649.069714 337.988933 
L 649.069714 333.986643 
L 617.184 333.986643 
L 617.184 337.988933 
z
" clip-path="url(#p7823a0b1b2)" style="fill: none; stroke: #000000; stroke-linejoin: miter"/>
   </g>
   <g id="patch_103">
    <path d="M 607.299429 270.830497 
L 639.185143 270.830497 
L 639.185143 266.828207 
L 607.299429 266.828207 
L 607.299429 270.830497 
z
" clip-path="url(#p7823a0b1b2)" style="fill: none; stroke: #000000; stroke-linejoin: miter"/>
   </g>
   <g id="patch_104">
    <path d="M 779.801143 134.51248 
L 811.686857 134.51248 
L 811.686857 130.51019 
L 779.801143 130.51019 
L 779.801143 134.51248 
z
" clip-path="url(#p7823a0b1b2)" style="fill: none; stroke: #000000; stroke-linejoin: miter"/>
   </g>
   <g id="patch_105">
    <path d="M 812.005714 374.089594 
L 843.891429 374.089594 
L 843.891429 370.087304 
L 812.005714 370.087304 
L 812.005714 374.089594 
z
" clip-path="url(#p7823a0b1b2)" style="fill: none; stroke: #000000; stroke-linejoin: miter"/>
   </g>
   <g id="patch_106">
    <path d="M 610.169143 397.382925 
L 642.054857 397.382925 
L 642.054857 393.380635 
L 610.169143 393.380635 
L 610.169143 397.382925 
z
" clip-path="url(#p7823a0b1b2)" style="fill: none; stroke: #000000; stroke-linejoin: miter"/>
   </g>
   <g id="patch_107">
    <path d="M 614.952 364.163914 
L 646.837714 364.163914 
L 646.837714 360.161623 
L 614.952 360.161623 
L 614.952 364.163914 
z
" clip-path="url(#p7823a0b1b2)" style="fill: none; stroke: #000000; stroke-linejoin: miter"/>
   </g>
   <g id="patch_108">
    <path d="M 721.131429 431.082212 
L 753.017143 431.082212 
L 753.017143 427.079921 
L 721.131429 427.079921 
L 721.131429 431.082212 
z
" clip-path="url(#p7823a0b1b2)" style="fill: none; stroke: #000000; stroke-linejoin: miter"/>
   </g>
   <g id="patch_109">
    <path d="M 795.106286 542.826165 
L 826.992 542.826165 
L 826.992 538.823874 
L 795.106286 538.823874 
L 795.106286 542.826165 
z
" clip-path="url(#p7823a0b1b2)" style="fill: none; stroke: #000000; stroke-linejoin: miter"/>
   </g>
   <g id="patch_110">
    <path d="M 799.889143 365.524692 
L 831.774857 365.524692 
L 831.774857 361.522402 
L 799.889143 361.522402 
L 799.889143 365.524692 
z
" clip-path="url(#p7823a0b1b2)" style="fill: none; stroke: #000000; stroke-linejoin: miter"/>
   </g>
   <g id="patch_111">
    <path d="M 299.921143 468.38356 
L 331.806857 468.38356 
L 331.806857 464.38127 
L 299.921143 464.38127 
L 299.921143 468.38356 
z
" clip-path="url(#p7823a0b1b2)" style="fill: none; stroke: #000000; stroke-linejoin: miter"/>
   </g>
   <g id="patch_112">
    <path d="M 731.653714 451.413848 
L 763.539429 451.413848 
L 763.539429 447.411558 
L 731.653714 447.411558 
L 731.653714 451.413848 
z
" clip-path="url(#p7823a0b1b2)" style="fill: none; stroke: #000000; stroke-linejoin: miter"/>
   </g>
   <g id="patch_113">
    <path d="M 609.212571 146.839535 
L 641.098286 146.839535 
L 641.098286 142.837245 
L 609.212571 142.837245 
L 609.212571 146.839535 
z
" clip-path="url(#p7823a0b1b2)" style="fill: none; stroke: #000000; stroke-linejoin: miter"/>
   </g>
   <g id="patch_114">
    <path d="M 737.393143 539.224103 
L 769.278857 539.224103 
L 769.278857 535.221813 
L 737.393143 535.221813 
L 737.393143 539.224103 
z
" clip-path="url(#p7823a0b1b2)" style="fill: none; stroke: #000000; stroke-linejoin: miter"/>
   </g>
   <g id="patch_115">
    <path d="M 411.84 282.597232 
L 443.725714 282.597232 
L 443.725714 278.594941 
L 411.84 278.594941 
L 411.84 282.597232 
z
" clip-path="url(#p7823a0b1b2)" style="fill: none; stroke: #000000; stroke-linejoin: miter"/>
   </g>
   <g id="patch_116">
    <path d="M 524.715429 496.559686 
L 556.601143 496.559686 
L 556.601143 492.557395 
L 524.715429 492.557395 
L 524.715429 496.559686 
z
" clip-path="url(#p7823a0b1b2)" style="fill: none; stroke: #000000; stroke-linejoin: miter"/>
   </g>
   <g id="patch_117">
    <path d="M 704.869714 248.977991 
L 736.755429 248.977991 
L 736.755429 244.9757 
L 704.869714 244.9757 
L 704.869714 248.977991 
z
" clip-path="url(#p7823a0b1b2)" style="fill: none; stroke: #000000; stroke-linejoin: miter"/>
   </g>
   <g id="patch_118">
    <path d="M 726.552 406.107919 
L 758.437714 406.107919 
L 758.437714 402.105628 
L 726.552 402.105628 
L 726.552 406.107919 
z
" clip-path="url(#p7823a0b1b2)" style="fill: none; stroke: #000000; stroke-linejoin: miter"/>
   </g>
   <g id="patch_119">
    <path d="M 754.930286 502.082847 
L 786.816 502.082847 
L 786.816 498.080556 
L 754.930286 498.080556 
L 754.930286 502.082847 
z
" clip-path="url(#p7823a0b1b2)" style="fill: none; stroke: #000000; stroke-linejoin: miter"/>
   </g>
   <g id="patch_120">
    <path d="M 782.352 379.212526 
L 814.237714 379.212526 
L 814.237714 375.210236 
L 782.352 375.210236 
L 782.352 379.212526 
z
" clip-path="url(#p7823a0b1b2)" style="fill: none; stroke: #000000; stroke-linejoin: miter"/>
   </g>
   <g id="patch_121">
    <path d="M 567.123429 479.429882 
L 599.009143 479.429882 
L 599.009143 475.427592 
L 567.123429 475.427592 
L 567.123429 479.429882 
z
" clip-path="url(#p7823a0b1b2)" style="fill: none; stroke: #000000; stroke-linejoin: miter"/>
   </g>
   <g id="patch_122">
    <path d="M 575.732571 499.361289 
L 607.618286 499.361289 
L 607.618286 495.358999 
L 575.732571 495.358999 
L 575.732571 499.361289 
z
" clip-path="url(#p7823a0b1b2)" style="fill: none; stroke: #000000; stroke-linejoin: miter"/>
   </g>
   <g id="patch_123">
    <path d="M 648.750857 443.809496 
L 680.636571 443.809496 
L 680.636571 439.807205 
L 648.750857 439.807205 
L 648.750857 443.809496 
z
" clip-path="url(#p7823a0b1b2)" style="fill: none; stroke: #000000; stroke-linejoin: miter"/>
   </g>
   <g id="patch_124">
    <path d="M 614.952 226.084889 
L 646.837714 226.084889 
L 646.837714 222.082598 
L 614.952 222.082598 
L 614.952 226.084889 
z
" clip-path="url(#p7823a0b1b2)" style="fill: none; stroke: #000000; stroke-linejoin: miter"/>
   </g>
   <g id="patch_125">
    <path d="M 802.121143 407.548743 
L 834.006857 407.548743 
L 834.006857 403.546453 
L 802.121143 403.546453 
L 802.121143 407.548743 
z
" clip-path="url(#p7823a0b1b2)" style="fill: none; stroke: #000000; stroke-linejoin: miter"/>
   </g>
   <g id="patch_126">
    <path d="M 606.980571 160.287232 
L 638.866286 160.287232 
L 638.866286 156.284941 
L 606.980571 156.284941 
L 606.980571 160.287232 
z
" clip-path="url(#p7823a0b1b2)" style="fill: none; stroke: #000000; stroke-linejoin: miter"/>
   </g>
   <g id="patch_127">
    <path d="M 986.420571 281.636682 
L 1018.306286 281.636682 
L 1018.306286 277.634391 
L 986.420571 277.634391 
L 986.420571 281.636682 
z
" clip-path="url(#p7823a0b1b2)" style="fill: none; stroke: #000000; stroke-linejoin: miter"/>
   </g>
   <g id="patch_128">
    <path d="M 659.910857 140.836099 
L 691.796571 140.836099 
L 691.796571 136.833809 
L 659.910857 136.833809 
L 659.910857 140.836099 
z
" clip-path="url(#p7823a0b1b2)" style="fill: none; stroke: #000000; stroke-linejoin: miter"/>
   </g>
   <g id="patch_129">
    <path d="M 664.693714 511.528253 
L 696.579429 511.528253 
L 696.579429 507.525962 
L 664.693714 507.525962 
L 664.693714 511.528253 
z
" clip-path="url(#p7823a0b1b2)" style="fill: none; stroke: #000000; stroke-linejoin: miter"/>
   </g>
   <g id="patch_130">
    <path d="M 691.158857 473.026217 
L 723.044571 473.026217 
L 723.044571 469.023927 
L 691.158857 469.023927 
L 691.158857 473.026217 
z
" clip-path="url(#p7823a0b1b2)" style="fill: none; stroke: #000000; stroke-linejoin: miter"/>
   </g>
   <g id="matplotlib.axis_1">
    <g id="xtick_1">
     <g id="line2d_1">
      <defs>
       <path id="maf953e70e9" d="M 0 0 
L 0 3.5 
" style="stroke: #000000; stroke-width: 0.8"/>
      </defs>
      <g>
       <use xlink:href="#maf953e70e9" x="175.885714" y="567" style="stroke: #000000; stroke-width: 0.8"/>
      </g>
     </g>
     <g id="text_1">
      <!-- 2500 -->
      <g transform="translate(163.160714 581.598438)scale(0.1 -0.1)">
       <defs>
        <path id="DejaVuSans-32" d="M 1228 531 
L 3431 531 
L 3431 0 
L 469 0 
L 469 531 
Q 828 903 1448 1529 
Q 2069 2156 2228 2338 
Q 2531 2678 2651 2914 
Q 2772 3150 2772 3378 
Q 2772 3750 2511 3984 
Q 2250 4219 1831 4219 
Q 1534 4219 1204 4116 
Q 875 4013 500 3803 
L 500 4441 
Q 881 4594 1212 4672 
Q 1544 4750 1819 4750 
Q 2544 4750 2975 4387 
Q 3406 4025 3406 3419 
Q 3406 3131 3298 2873 
Q 3191 2616 2906 2266 
Q 2828 2175 2409 1742 
Q 1991 1309 1228 531 
z
" transform="scale(0.015625)"/>
        <path id="DejaVuSans-35" d="M 691 4666 
L 3169 4666 
L 3169 4134 
L 1269 4134 
L 1269 2991 
Q 1406 3038 1543 3061 
Q 1681 3084 1819 3084 
Q 2600 3084 3056 2656 
Q 3513 2228 3513 1497 
Q 3513 744 3044 326 
Q 2575 -91 1722 -91 
Q 1428 -91 1123 -41 
Q 819 9 494 109 
L 494 744 
Q 775 591 1075 516 
Q 1375 441 1709 441 
Q 2250 441 2565 725 
Q 2881 1009 2881 1497 
Q 2881 1984 2565 2268 
Q 2250 2553 1709 2553 
Q 1456 2553 1204 2497 
Q 953 2441 691 2322 
L 691 4666 
z
" transform="scale(0.015625)"/>
        <path id="DejaVuSans-30" d="M 2034 4250 
Q 1547 4250 1301 3770 
Q 1056 3291 1056 2328 
Q 1056 1369 1301 889 
Q 1547 409 2034 409 
Q 2525 409 2770 889 
Q 3016 1369 3016 2328 
Q 3016 3291 2770 3770 
Q 2525 4250 2034 4250 
z
M 2034 4750 
Q 2819 4750 3233 4129 
Q 3647 3509 3647 2328 
Q 3647 1150 3233 529 
Q 2819 -91 2034 -91 
Q 1250 -91 836 529 
Q 422 1150 422 2328 
Q 422 3509 836 4129 
Q 1250 4750 2034 4750 
z
" transform="scale(0.015625)"/>
       </defs>
       <use xlink:href="#DejaVuSans-32"/>
       <use xlink:href="#DejaVuSans-35" x="63.623047"/>
       <use xlink:href="#DejaVuSans-30" x="127.246094"/>
       <use xlink:href="#DejaVuSans-30" x="190.869141"/>
      </g>
     </g>
    </g>
    <g id="xtick_2">
     <g id="line2d_2">
      <g>
       <use xlink:href="#maf953e70e9" x="335.314286" y="567" style="stroke: #000000; stroke-width: 0.8"/>
      </g>
     </g>
     <g id="text_2">
      <!-- 3000 -->
      <g transform="translate(322.589286 581.598438)scale(0.1 -0.1)">
       <defs>
        <path id="DejaVuSans-33" d="M 2597 2516 
Q 3050 2419 3304 2112 
Q 3559 1806 3559 1356 
Q 3559 666 3084 287 
Q 2609 -91 1734 -91 
Q 1441 -91 1130 -33 
Q 819 25 488 141 
L 488 750 
Q 750 597 1062 519 
Q 1375 441 1716 441 
Q 2309 441 2620 675 
Q 2931 909 2931 1356 
Q 2931 1769 2642 2001 
Q 2353 2234 1838 2234 
L 1294 2234 
L 1294 2753 
L 1863 2753 
Q 2328 2753 2575 2939 
Q 2822 3125 2822 3475 
Q 2822 3834 2567 4026 
Q 2313 4219 1838 4219 
Q 1578 4219 1281 4162 
Q 984 4106 628 3988 
L 628 4550 
Q 988 4650 1302 4700 
Q 1616 4750 1894 4750 
Q 2613 4750 3031 4423 
Q 3450 4097 3450 3541 
Q 3450 3153 3228 2886 
Q 3006 2619 2597 2516 
z
" transform="scale(0.015625)"/>
       </defs>
       <use xlink:href="#DejaVuSans-33"/>
       <use xlink:href="#DejaVuSans-30" x="63.623047"/>
       <use xlink:href="#DejaVuSans-30" x="127.246094"/>
       <use xlink:href="#DejaVuSans-30" x="190.869141"/>
      </g>
     </g>
    </g>
    <g id="xtick_3">
     <g id="line2d_3">
      <g>
       <use xlink:href="#maf953e70e9" x="494.742857" y="567" style="stroke: #000000; stroke-width: 0.8"/>
      </g>
     </g>
     <g id="text_3">
      <!-- 3500 -->
      <g transform="translate(482.017857 581.598438)scale(0.1 -0.1)">
       <use xlink:href="#DejaVuSans-33"/>
       <use xlink:href="#DejaVuSans-35" x="63.623047"/>
       <use xlink:href="#DejaVuSans-30" x="127.246094"/>
       <use xlink:href="#DejaVuSans-30" x="190.869141"/>
      </g>
     </g>
    </g>
    <g id="xtick_4">
     <g id="line2d_4">
      <g>
       <use xlink:href="#maf953e70e9" x="654.171429" y="567" style="stroke: #000000; stroke-width: 0.8"/>
      </g>
     </g>
     <g id="text_4">
      <!-- 4000 -->
      <g transform="translate(641.446429 581.598438)scale(0.1 -0.1)">
       <defs>
        <path id="DejaVuSans-34" d="M 2419 4116 
L 825 1625 
L 2419 1625 
L 2419 4116 
z
M 2253 4666 
L 3047 4666 
L 3047 1625 
L 3713 1625 
L 3713 1100 
L 3047 1100 
L 3047 0 
L 2419 0 
L 2419 1100 
L 313 1100 
L 313 1709 
L 2253 4666 
z
" transform="scale(0.015625)"/>
       </defs>
       <use xlink:href="#DejaVuSans-34"/>
       <use xlink:href="#DejaVuSans-30" x="63.623047"/>
       <use xlink:href="#DejaVuSans-30" x="127.246094"/>
       <use xlink:href="#DejaVuSans-30" x="190.869141"/>
      </g>
     </g>
    </g>
    <g id="xtick_5">
     <g id="line2d_5">
      <g>
       <use xlink:href="#maf953e70e9" x="813.6" y="567" style="stroke: #000000; stroke-width: 0.8"/>
      </g>
     </g>
     <g id="text_5">
      <!-- 4500 -->
      <g transform="translate(800.875 581.598438)scale(0.1 -0.1)">
       <use xlink:href="#DejaVuSans-34"/>
       <use xlink:href="#DejaVuSans-35" x="63.623047"/>
       <use xlink:href="#DejaVuSans-30" x="127.246094"/>
       <use xlink:href="#DejaVuSans-30" x="190.869141"/>
      </g>
     </g>
    </g>
    <g id="xtick_6">
     <g id="line2d_6">
      <g>
       <use xlink:href="#maf953e70e9" x="973.028571" y="567" style="stroke: #000000; stroke-width: 0.8"/>
      </g>
     </g>
     <g id="text_6">
      <!-- 5000 -->
      <g transform="translate(960.303571 581.598438)scale(0.1 -0.1)">
       <use xlink:href="#DejaVuSans-35"/>
       <use xlink:href="#DejaVuSans-30" x="63.623047"/>
       <use xlink:href="#DejaVuSans-30" x="127.246094"/>
       <use xlink:href="#DejaVuSans-30" x="190.869141"/>
      </g>
     </g>
    </g>
   </g>
   <g id="matplotlib.axis_2">
    <g id="ytick_1">
     <g id="line2d_7">
      <defs>
       <path id="m92063732bb" d="M 0 0 
L -3.5 0 
" style="stroke: #000000; stroke-width: 0.8"/>
      </defs>
      <g>
       <use xlink:href="#m92063732bb" x="144" y="558.995419" style="stroke: #000000; stroke-width: 0.8"/>
      </g>
     </g>
     <g id="text_7">
      <!-- 7000 -->
      <g transform="translate(111.55 562.794638)scale(0.1 -0.1)">
       <defs>
        <path id="DejaVuSans-37" d="M 525 4666 
L 3525 4666 
L 3525 4397 
L 1831 0 
L 1172 0 
L 2766 4134 
L 525 4134 
L 525 4666 
z
" transform="scale(0.015625)"/>
       </defs>
       <use xlink:href="#DejaVuSans-37"/>
       <use xlink:href="#DejaVuSans-30" x="63.623047"/>
       <use xlink:href="#DejaVuSans-30" x="127.246094"/>
       <use xlink:href="#DejaVuSans-30" x="190.869141"/>
      </g>
     </g>
    </g>
    <g id="ytick_2">
     <g id="line2d_8">
      <g>
       <use xlink:href="#m92063732bb" x="144" y="478.949607" style="stroke: #000000; stroke-width: 0.8"/>
      </g>
     </g>
     <g id="text_8">
      <!-- 8000 -->
      <g transform="translate(111.55 482.748826)scale(0.1 -0.1)">
       <defs>
        <path id="DejaVuSans-38" d="M 2034 2216 
Q 1584 2216 1326 1975 
Q 1069 1734 1069 1313 
Q 1069 891 1326 650 
Q 1584 409 2034 409 
Q 2484 409 2743 651 
Q 3003 894 3003 1313 
Q 3003 1734 2745 1975 
Q 2488 2216 2034 2216 
z
M 1403 2484 
Q 997 2584 770 2862 
Q 544 3141 544 3541 
Q 544 4100 942 4425 
Q 1341 4750 2034 4750 
Q 2731 4750 3128 4425 
Q 3525 4100 3525 3541 
Q 3525 3141 3298 2862 
Q 3072 2584 2669 2484 
Q 3125 2378 3379 2068 
Q 3634 1759 3634 1313 
Q 3634 634 3220 271 
Q 2806 -91 2034 -91 
Q 1263 -91 848 271 
Q 434 634 434 1313 
Q 434 1759 690 2068 
Q 947 2378 1403 2484 
z
M 1172 3481 
Q 1172 3119 1398 2916 
Q 1625 2713 2034 2713 
Q 2441 2713 2670 2916 
Q 2900 3119 2900 3481 
Q 2900 3844 2670 4047 
Q 2441 4250 2034 4250 
Q 1625 4250 1398 4047 
Q 1172 3844 1172 3481 
z
" transform="scale(0.015625)"/>
       </defs>
       <use xlink:href="#DejaVuSans-38"/>
       <use xlink:href="#DejaVuSans-30" x="63.623047"/>
       <use xlink:href="#DejaVuSans-30" x="127.246094"/>
       <use xlink:href="#DejaVuSans-30" x="190.869141"/>
      </g>
     </g>
    </g>
    <g id="ytick_3">
     <g id="line2d_9">
      <g>
       <use xlink:href="#m92063732bb" x="144" y="398.903796" style="stroke: #000000; stroke-width: 0.8"/>
      </g>
     </g>
     <g id="text_9">
      <!-- 9000 -->
      <g transform="translate(111.55 402.703015)scale(0.1 -0.1)">
       <defs>
        <path id="DejaVuSans-39" d="M 703 97 
L 703 672 
Q 941 559 1184 500 
Q 1428 441 1663 441 
Q 2288 441 2617 861 
Q 2947 1281 2994 2138 
Q 2813 1869 2534 1725 
Q 2256 1581 1919 1581 
Q 1219 1581 811 2004 
Q 403 2428 403 3163 
Q 403 3881 828 4315 
Q 1253 4750 1959 4750 
Q 2769 4750 3195 4129 
Q 3622 3509 3622 2328 
Q 3622 1225 3098 567 
Q 2575 -91 1691 -91 
Q 1453 -91 1209 -44 
Q 966 3 703 97 
z
M 1959 2075 
Q 2384 2075 2632 2365 
Q 2881 2656 2881 3163 
Q 2881 3666 2632 3958 
Q 2384 4250 1959 4250 
Q 1534 4250 1286 3958 
Q 1038 3666 1038 3163 
Q 1038 2656 1286 2365 
Q 1534 2075 1959 2075 
z
" transform="scale(0.015625)"/>
       </defs>
       <use xlink:href="#DejaVuSans-39"/>
       <use xlink:href="#DejaVuSans-30" x="63.623047"/>
       <use xlink:href="#DejaVuSans-30" x="127.246094"/>
       <use xlink:href="#DejaVuSans-30" x="190.869141"/>
      </g>
     </g>
    </g>
    <g id="ytick_4">
     <g id="line2d_10">
      <g>
       <use xlink:href="#m92063732bb" x="144" y="318.857984" style="stroke: #000000; stroke-width: 0.8"/>
      </g>
     </g>
     <g id="text_10">
      <!-- 10000 -->
      <g transform="translate(105.1875 322.657203)scale(0.1 -0.1)">
       <defs>
        <path id="DejaVuSans-31" d="M 794 531 
L 1825 531 
L 1825 4091 
L 703 3866 
L 703 4441 
L 1819 4666 
L 2450 4666 
L 2450 531 
L 3481 531 
L 3481 0 
L 794 0 
L 794 531 
z
" transform="scale(0.015625)"/>
       </defs>
       <use xlink:href="#DejaVuSans-31"/>
       <use xlink:href="#DejaVuSans-30" x="63.623047"/>
       <use xlink:href="#DejaVuSans-30" x="127.246094"/>
       <use xlink:href="#DejaVuSans-30" x="190.869141"/>
       <use xlink:href="#DejaVuSans-30" x="254.492188"/>
      </g>
     </g>
    </g>
    <g id="ytick_5">
     <g id="line2d_11">
      <g>
       <use xlink:href="#m92063732bb" x="144" y="238.812173" style="stroke: #000000; stroke-width: 0.8"/>
      </g>
     </g>
     <g id="text_11">
      <!-- 11000 -->
      <g transform="translate(105.1875 242.611392)scale(0.1 -0.1)">
       <use xlink:href="#DejaVuSans-31"/>
       <use xlink:href="#DejaVuSans-31" x="63.623047"/>
       <use xlink:href="#DejaVuSans-30" x="127.246094"/>
       <use xlink:href="#DejaVuSans-30" x="190.869141"/>
       <use xlink:href="#DejaVuSans-30" x="254.492188"/>
      </g>
     </g>
    </g>
    <g id="ytick_6">
     <g id="line2d_12">
      <g>
       <use xlink:href="#m92063732bb" x="144" y="158.766361" style="stroke: #000000; stroke-width: 0.8"/>
      </g>
     </g>
     <g id="text_12">
      <!-- 12000 -->
      <g transform="translate(105.1875 162.56558)scale(0.1 -0.1)">
       <use xlink:href="#DejaVuSans-31"/>
       <use xlink:href="#DejaVuSans-32" x="63.623047"/>
       <use xlink:href="#DejaVuSans-30" x="127.246094"/>
       <use xlink:href="#DejaVuSans-30" x="190.869141"/>
       <use xlink:href="#DejaVuSans-30" x="254.492188"/>
      </g>
     </g>
    </g>
    <g id="ytick_7">
     <g id="line2d_13">
      <g>
       <use xlink:href="#m92063732bb" x="144" y="78.72055" style="stroke: #000000; stroke-width: 0.8"/>
      </g>
     </g>
     <g id="text_13">
      <!-- 13000 -->
      <g transform="translate(105.1875 82.519768)scale(0.1 -0.1)">
       <use xlink:href="#DejaVuSans-31"/>
       <use xlink:href="#DejaVuSans-33" x="63.623047"/>
       <use xlink:href="#DejaVuSans-30" x="127.246094"/>
       <use xlink:href="#DejaVuSans-30" x="190.869141"/>
       <use xlink:href="#DejaVuSans-30" x="254.492188"/>
      </g>
     </g>
    </g>
   </g>
   <g id="patch_131">
    <path d="M 144 567 
L 144 77.76 
" style="fill: none; stroke: #000000; stroke-width: 0.8; stroke-linejoin: miter; stroke-linecap: square"/>
   </g>
   <g id="patch_132">
    <path d="M 1036.8 567 
L 1036.8 77.76 
" style="fill: none; stroke: #000000; stroke-width: 0.8; stroke-linejoin: miter; stroke-linecap: square"/>
   </g>
   <g id="patch_133">
    <path d="M 144 567 
L 1036.8 567 
" style="fill: none; stroke: #000000; stroke-width: 0.8; stroke-linejoin: miter; stroke-linecap: square"/>
   </g>
   <g id="patch_134">
    <path d="M 144 77.76 
L 1036.8 77.76 
" style="fill: none; stroke: #000000; stroke-width: 0.8; stroke-linejoin: miter; stroke-linecap: square"/>
   </g>
  </g>
 </g>
 <defs>
  <clipPath id="p7823a0b1b2">
   <rect x="144" y="77.76" width="892.8" height="489.24"/>
  </clipPath>
 </defs>
</svg>
