<?xml version="1.0" encoding="utf-8" standalone="no"?>
<!DOCTYPE svg PUBLIC "-//W3C//DTD SVG 1.1//EN"
  "http://www.w3.org/Graphics/SVG/1.1/DTD/svg11.dtd">
<!-- Created with matplotlib (https://matplotlib.org/) -->
<svg height="288pt" version="1.1" viewBox="0 0 432 288" width="432pt" xmlns="http://www.w3.org/2000/svg" xmlns:xlink="http://www.w3.org/1999/xlink">
 <defs>
  <style type="text/css">
*{stroke-linecap:butt;stroke-linejoin:round;}
  </style>
 </defs>
 <g id="figure_1">
  <g id="patch_1">
   <path d="M 0 288 
L 432 288 
L 432 0 
L 0 0 
z
" style="fill:#ffffff;"/>
  </g>
  <g id="axes_1">
   <g id="patch_2">
    <path d="M 54 252 
L 388.8 252 
L 388.8 34.56 
L 54 34.56 
z
" style="fill:#ffffff;"/>
   </g>
   <g id="matplotlib.axis_1">
    <g id="xtick_1">
     <g id="line2d_1">
      <defs>
       <path d="M 0 0 
L 0 3.5 
" id="me675364c5b" style="stroke:#000000;stroke-width:0.8;"/>
      </defs>
      <g>
       <use style="stroke:#000000;stroke-width:0.8;" x="69.218182" xlink:href="#me675364c5b" y="252"/>
      </g>
     </g>
     <g id="text_1">
      <!-- 0 -->
      <defs>
       <path d="M 31.78125 66.40625 
Q 24.171875 66.40625 20.328125 58.90625 
Q 16.5 51.421875 16.5 36.375 
Q 16.5 21.390625 20.328125 13.890625 
Q 24.171875 6.390625 31.78125 6.390625 
Q 39.453125 6.390625 43.28125 13.890625 
Q 47.125 21.390625 47.125 36.375 
Q 47.125 51.421875 43.28125 58.90625 
Q 39.453125 66.40625 31.78125 66.40625 
z
M 31.78125 74.21875 
Q 44.046875 74.21875 50.515625 64.515625 
Q 56.984375 54.828125 56.984375 36.375 
Q 56.984375 17.96875 50.515625 8.265625 
Q 44.046875 -1.421875 31.78125 -1.421875 
Q 19.53125 -1.421875 13.0625 8.265625 
Q 6.59375 17.96875 6.59375 36.375 
Q 6.59375 54.828125 13.0625 64.515625 
Q 19.53125 74.21875 31.78125 74.21875 
z
" id="DejaVuSans-48"/>
      </defs>
      <g transform="translate(66.036932 266.598437)scale(0.1 -0.1)">
       <use xlink:href="#DejaVuSans-48"/>
      </g>
     </g>
    </g>
    <g id="xtick_2">
     <g id="line2d_2">
      <g>
       <use style="stroke:#000000;stroke-width:0.8;" x="130.212899" xlink:href="#me675364c5b" y="252"/>
      </g>
     </g>
     <g id="text_2">
      <!-- 100 -->
      <defs>
       <path d="M 12.40625 8.296875 
L 28.515625 8.296875 
L 28.515625 63.921875 
L 10.984375 60.40625 
L 10.984375 69.390625 
L 28.421875 72.90625 
L 38.28125 72.90625 
L 38.28125 8.296875 
L 54.390625 8.296875 
L 54.390625 0 
L 12.40625 0 
z
" id="DejaVuSans-49"/>
      </defs>
      <g transform="translate(120.669149 266.598437)scale(0.1 -0.1)">
       <use xlink:href="#DejaVuSans-49"/>
       <use x="63.623047" xlink:href="#DejaVuSans-48"/>
       <use x="127.246094" xlink:href="#DejaVuSans-48"/>
      </g>
     </g>
    </g>
    <g id="xtick_3">
     <g id="line2d_3">
      <g>
       <use style="stroke:#000000;stroke-width:0.8;" x="191.207615" xlink:href="#me675364c5b" y="252"/>
      </g>
     </g>
     <g id="text_3">
      <!-- 200 -->
      <defs>
       <path d="M 19.1875 8.296875 
L 53.609375 8.296875 
L 53.609375 0 
L 7.328125 0 
L 7.328125 8.296875 
Q 12.9375 14.109375 22.625 23.890625 
Q 32.328125 33.6875 34.8125 36.53125 
Q 39.546875 41.84375 41.421875 45.53125 
Q 43.3125 49.21875 43.3125 52.78125 
Q 43.3125 58.59375 39.234375 62.25 
Q 35.15625 65.921875 28.609375 65.921875 
Q 23.96875 65.921875 18.8125 64.3125 
Q 13.671875 62.703125 7.8125 59.421875 
L 7.8125 69.390625 
Q 13.765625 71.78125 18.9375 73 
Q 24.125 74.21875 28.421875 74.21875 
Q 39.75 74.21875 46.484375 68.546875 
Q 53.21875 62.890625 53.21875 53.421875 
Q 53.21875 48.921875 51.53125 44.890625 
Q 49.859375 40.875 45.40625 35.40625 
Q 44.1875 33.984375 37.640625 27.21875 
Q 31.109375 20.453125 19.1875 8.296875 
z
" id="DejaVuSans-50"/>
      </defs>
      <g transform="translate(181.663865 266.598437)scale(0.1 -0.1)">
       <use xlink:href="#DejaVuSans-50"/>
       <use x="63.623047" xlink:href="#DejaVuSans-48"/>
       <use x="127.246094" xlink:href="#DejaVuSans-48"/>
      </g>
     </g>
    </g>
    <g id="xtick_4">
     <g id="line2d_4">
      <g>
       <use style="stroke:#000000;stroke-width:0.8;" x="252.202332" xlink:href="#me675364c5b" y="252"/>
      </g>
     </g>
     <g id="text_4">
      <!-- 300 -->
      <defs>
       <path d="M 40.578125 39.3125 
Q 47.65625 37.796875 51.625 33 
Q 55.609375 28.21875 55.609375 21.1875 
Q 55.609375 10.40625 48.1875 4.484375 
Q 40.765625 -1.421875 27.09375 -1.421875 
Q 22.515625 -1.421875 17.65625 -0.515625 
Q 12.796875 0.390625 7.625 2.203125 
L 7.625 11.71875 
Q 11.71875 9.328125 16.59375 8.109375 
Q 21.484375 6.890625 26.8125 6.890625 
Q 36.078125 6.890625 40.9375 10.546875 
Q 45.796875 14.203125 45.796875 21.1875 
Q 45.796875 27.640625 41.28125 31.265625 
Q 36.765625 34.90625 28.71875 34.90625 
L 20.21875 34.90625 
L 20.21875 43.015625 
L 29.109375 43.015625 
Q 36.375 43.015625 40.234375 45.921875 
Q 44.09375 48.828125 44.09375 54.296875 
Q 44.09375 59.90625 40.109375 62.90625 
Q 36.140625 65.921875 28.71875 65.921875 
Q 24.65625 65.921875 20.015625 65.03125 
Q 15.375 64.15625 9.8125 62.3125 
L 9.8125 71.09375 
Q 15.4375 72.65625 20.34375 73.4375 
Q 25.25 74.21875 29.59375 74.21875 
Q 40.828125 74.21875 47.359375 69.109375 
Q 53.90625 64.015625 53.90625 55.328125 
Q 53.90625 49.265625 50.4375 45.09375 
Q 46.96875 40.921875 40.578125 39.3125 
z
" id="DejaVuSans-51"/>
      </defs>
      <g transform="translate(242.658582 266.598437)scale(0.1 -0.1)">
       <use xlink:href="#DejaVuSans-51"/>
       <use x="63.623047" xlink:href="#DejaVuSans-48"/>
       <use x="127.246094" xlink:href="#DejaVuSans-48"/>
      </g>
     </g>
    </g>
    <g id="xtick_5">
     <g id="line2d_5">
      <g>
       <use style="stroke:#000000;stroke-width:0.8;" x="313.197049" xlink:href="#me675364c5b" y="252"/>
      </g>
     </g>
     <g id="text_5">
      <!-- 400 -->
      <defs>
       <path d="M 37.796875 64.3125 
L 12.890625 25.390625 
L 37.796875 25.390625 
z
M 35.203125 72.90625 
L 47.609375 72.90625 
L 47.609375 25.390625 
L 58.015625 25.390625 
L 58.015625 17.1875 
L 47.609375 17.1875 
L 47.609375 0 
L 37.796875 0 
L 37.796875 17.1875 
L 4.890625 17.1875 
L 4.890625 26.703125 
z
" id="DejaVuSans-52"/>
      </defs>
      <g transform="translate(303.653299 266.598437)scale(0.1 -0.1)">
       <use xlink:href="#DejaVuSans-52"/>
       <use x="63.623047" xlink:href="#DejaVuSans-48"/>
       <use x="127.246094" xlink:href="#DejaVuSans-48"/>
      </g>
     </g>
    </g>
    <g id="xtick_6">
     <g id="line2d_6">
      <g>
       <use style="stroke:#000000;stroke-width:0.8;" x="374.191765" xlink:href="#me675364c5b" y="252"/>
      </g>
     </g>
     <g id="text_6">
      <!-- 500 -->
      <defs>
       <path d="M 10.796875 72.90625 
L 49.515625 72.90625 
L 49.515625 64.59375 
L 19.828125 64.59375 
L 19.828125 46.734375 
Q 21.96875 47.46875 24.109375 47.828125 
Q 26.265625 48.1875 28.421875 48.1875 
Q 40.625 48.1875 47.75 41.5 
Q 54.890625 34.8125 54.890625 23.390625 
Q 54.890625 11.625 47.5625 5.09375 
Q 40.234375 -1.421875 26.90625 -1.421875 
Q 22.3125 -1.421875 17.546875 -0.640625 
Q 12.796875 0.140625 7.71875 1.703125 
L 7.71875 11.625 
Q 12.109375 9.234375 16.796875 8.0625 
Q 21.484375 6.890625 26.703125 6.890625 
Q 35.15625 6.890625 40.078125 11.328125 
Q 45.015625 15.765625 45.015625 23.390625 
Q 45.015625 31 40.078125 35.4375 
Q 35.15625 39.890625 26.703125 39.890625 
Q 22.75 39.890625 18.8125 39.015625 
Q 14.890625 38.140625 10.796875 36.28125 
z
" id="DejaVuSans-53"/>
      </defs>
      <g transform="translate(364.648015 266.598437)scale(0.1 -0.1)">
       <use xlink:href="#DejaVuSans-53"/>
       <use x="63.623047" xlink:href="#DejaVuSans-48"/>
       <use x="127.246094" xlink:href="#DejaVuSans-48"/>
      </g>
     </g>
    </g>
   </g>
   <g id="matplotlib.axis_2">
    <g id="ytick_1">
     <g id="line2d_7">
      <defs>
       <path d="M 0 0 
L -3.5 0 
" id="mb0b7f573df" style="stroke:#000000;stroke-width:0.8;"/>
      </defs>
      <g>
       <use style="stroke:#000000;stroke-width:0.8;" x="54" xlink:href="#mb0b7f573df" y="229.431483"/>
      </g>
     </g>
     <g id="text_7">
      <!-- −50 -->
      <defs>
       <path d="M 10.59375 35.5 
L 73.1875 35.5 
L 73.1875 27.203125 
L 10.59375 27.203125 
z
" id="DejaVuSans-8722"/>
      </defs>
      <g transform="translate(25.895312 233.230701)scale(0.1 -0.1)">
       <use xlink:href="#DejaVuSans-8722"/>
       <use x="83.789062" xlink:href="#DejaVuSans-53"/>
       <use x="147.412109" xlink:href="#DejaVuSans-48"/>
      </g>
     </g>
    </g>
    <g id="ytick_2">
     <g id="line2d_8">
      <g>
       <use style="stroke:#000000;stroke-width:0.8;" x="54" xlink:href="#mb0b7f573df" y="191.678861"/>
      </g>
     </g>
     <g id="text_8">
      <!-- 0 -->
      <g transform="translate(40.6375 195.47808)scale(0.1 -0.1)">
       <use xlink:href="#DejaVuSans-48"/>
      </g>
     </g>
    </g>
    <g id="ytick_3">
     <g id="line2d_9">
      <g>
       <use style="stroke:#000000;stroke-width:0.8;" x="54" xlink:href="#mb0b7f573df" y="153.926239"/>
      </g>
     </g>
     <g id="text_9">
      <!-- 50 -->
      <g transform="translate(34.275 157.725458)scale(0.1 -0.1)">
       <use xlink:href="#DejaVuSans-53"/>
       <use x="63.623047" xlink:href="#DejaVuSans-48"/>
      </g>
     </g>
    </g>
    <g id="ytick_4">
     <g id="line2d_10">
      <g>
       <use style="stroke:#000000;stroke-width:0.8;" x="54" xlink:href="#mb0b7f573df" y="116.173618"/>
      </g>
     </g>
     <g id="text_10">
      <!-- 100 -->
      <g transform="translate(27.9125 119.972836)scale(0.1 -0.1)">
       <use xlink:href="#DejaVuSans-49"/>
       <use x="63.623047" xlink:href="#DejaVuSans-48"/>
       <use x="127.246094" xlink:href="#DejaVuSans-48"/>
      </g>
     </g>
    </g>
    <g id="ytick_5">
     <g id="line2d_11">
      <g>
       <use style="stroke:#000000;stroke-width:0.8;" x="54" xlink:href="#mb0b7f573df" y="78.420996"/>
      </g>
     </g>
     <g id="text_11">
      <!-- 150 -->
      <g transform="translate(27.9125 82.220215)scale(0.1 -0.1)">
       <use xlink:href="#DejaVuSans-49"/>
       <use x="63.623047" xlink:href="#DejaVuSans-53"/>
       <use x="127.246094" xlink:href="#DejaVuSans-48"/>
      </g>
     </g>
    </g>
    <g id="ytick_6">
     <g id="line2d_12">
      <g>
       <use style="stroke:#000000;stroke-width:0.8;" x="54" xlink:href="#mb0b7f573df" y="40.668374"/>
      </g>
     </g>
     <g id="text_12">
      <!-- 200 -->
      <g transform="translate(27.9125 44.467593)scale(0.1 -0.1)">
       <use xlink:href="#DejaVuSans-50"/>
       <use x="63.623047" xlink:href="#DejaVuSans-48"/>
       <use x="127.246094" xlink:href="#DejaVuSans-48"/>
      </g>
     </g>
    </g>
   </g>
   <g id="line2d_13">
    <path clip-path="url(#p559e39e24f)" d="M 69.218182 198.021301 
L 69.828129 217.652665 
L 70.438076 233.055734 
L 71.048023 214.934476 
L 71.65797 228.374409 
L 72.267918 205.873847 
L 72.877865 210.706182 
L 73.487812 236.226955 
L 74.097759 211.914266 
L 74.707706 226.713294 
L 75.317653 223.693084 
L 75.927601 231.54563 
L 76.537548 230.790577 
L 77.147495 229.582493 
L 77.757442 231.243609 
L 78.367389 235.320892 
L 78.977336 229.733504 
L 79.587284 235.169881 
L 80.197231 216.29357 
L 80.807178 227.015315 
L 81.417125 200.58848 
L 82.027072 230.337546 
L 82.637019 222.485 
L 83.246967 241.663332 
L 83.856914 231.092598 
L 84.466861 199.531406 
L 85.076808 229.733504 
L 85.686755 222.938032 
L 86.296702 211.914266 
L 86.90665 224.750158 
L 87.516597 228.374409 
L 88.126544 219.917822 
L 88.736491 228.072388 
L 89.346438 228.223399 
L 89.956385 231.998661 
L 90.566333 217.652665 
L 91.17628 231.847651 
L 91.786227 233.659776 
L 92.396174 237.284028 
L 93.006121 217.803675 
L 93.616069 220.068833 
L 94.226016 233.659776 
L 94.835963 213.424371 
L 95.44591 239.398175 
L 96.055857 238.341101 
L 96.665804 228.52542 
L 97.275752 233.357755 
L 97.885699 227.770367 
L 98.495646 205.571826 
L 99.105593 234.71685 
L 99.71554 212.216287 
L 100.325487 222.33399 
L 100.935435 222.485 
L 101.545382 204.514752 
L 102.155329 223.844095 
L 102.765276 210.404161 
L 103.375223 204.212731 
L 103.98517 221.578937 
L 104.595118 232.904724 
L 105.205065 219.16277 
L 105.815012 208.743046 
L 107.034906 237.133018 
L 107.644853 232.149672 
L 108.254801 216.14256 
L 108.864748 211.008203 
L 109.474695 225.052179 
L 110.084642 198.776354 
L 110.694589 222.182979 
L 111.304536 216.897612 
L 111.914484 232.451692 
L 112.524431 237.586049 
L 113.134378 225.3542 
L 113.744325 208.290015 
L 114.354272 233.206745 
L 114.964219 219.16277 
L 115.574167 234.263818 
L 116.184114 231.092598 
L 116.794061 222.938032 
L 117.404008 143.053484 
L 118.013955 225.203189 
L 118.623902 229.129462 
L 119.23385 223.089042 
L 119.843797 237.435039 
L 120.453744 230.639567 
L 121.063691 209.498098 
L 121.673638 226.713294 
L 122.283585 230.790577 
L 122.893533 242.116364 
L 123.50348 208.441025 
L 124.113427 229.431483 
L 124.723374 214.783466 
L 125.333321 235.018871 
L 125.943268 235.773923 
L 126.553216 229.280472 
L 127.163163 237.284028 
L 127.77311 228.072388 
L 128.383057 233.206745 
L 128.993004 221.729948 
L 129.602951 232.451692 
L 130.212899 128.556478 
L 130.822846 230.639567 
L 131.432793 223.693084 
L 132.04274 235.622913 
L 132.652687 218.105696 
L 133.262634 215.387507 
L 133.872582 224.599147 
L 134.482529 237.435039 
L 135.092476 227.619357 
L 135.702423 221.880958 
L 136.31237 235.320892 
L 136.922317 241.05929 
L 137.532265 124.932226 
L 138.142212 211.310224 
L 138.752159 197.266249 
L 139.362106 226.562283 
L 139.972053 241.05929 
L 140.582 215.538518 
L 141.191948 216.29357 
L 141.801895 211.008203 
L 142.411842 224.297126 
L 143.021789 226.864304 
L 143.631736 225.052179 
L 144.241683 121.761006 
L 144.851631 224.297126 
L 145.461578 224.901168 
L 146.071525 239.851206 
L 146.681472 224.297126 
L 147.291419 215.387507 
L 147.901366 234.565839 
L 148.511314 225.052179 
L 149.121261 219.615801 
L 149.731208 228.223399 
L 150.341155 197.41726 
L 150.951102 226.260263 
L 151.561049 230.488556 
L 152.170997 233.357755 
L 152.780944 229.582493 
L 153.390891 213.575382 
L 154.000838 226.713294 
L 154.610785 234.565839 
L 155.220732 209.800119 
L 155.83068 228.072388 
L 156.440627 216.897612 
L 157.050574 232.904724 
L 157.660521 230.035525 
L 158.270468 230.337546 
L 158.880415 215.538518 
L 159.490363 236.679986 
L 160.10031 230.337546 
L 160.710257 214.179424 
L 161.320204 194.54806 
L 161.930151 216.897612 
L 162.540098 227.619357 
L 163.150046 229.733504 
L 163.759993 226.713294 
L 164.36994 207.081931 
L 164.979887 227.619357 
L 165.589834 234.71685 
L 166.199781 197.115239 
L 166.809729 205.269805 
L 167.419676 204.363742 
L 168.029623 205.118794 
L 168.63957 216.595591 
L 169.249517 196.360186 
L 169.859464 215.538518 
L 170.469412 196.209176 
L 171.079359 223.693084 
L 171.689306 227.468346 
L 172.299253 197.115239 
L 172.9092 192.886945 
L 173.519147 217.652665 
L 174.129095 209.196078 
L 174.739042 205.420815 
L 175.958936 187.148546 
L 176.568883 236.528976 
L 177.17883 203.306669 
L 177.788778 195.605134 
L 178.398725 229.280472 
L 179.008672 224.297126 
L 179.618619 198.172312 
L 180.228566 221.427927 
L 180.838513 235.018871 
L 181.448461 209.347088 
L 182.058408 214.934476 
L 182.668355 119.042817 
L 183.278302 230.639567 
L 183.888249 218.860749 
L 184.498196 224.599147 
L 185.108144 231.998661 
L 185.718091 216.14256 
L 186.328038 222.938032 
L 186.937985 207.232941 
L 187.547932 208.139004 
L 188.157879 225.50521 
L 188.767827 218.256707 
L 189.377774 193.188966 
L 190.597668 204.967784 
L 191.207615 106.206925 
L 191.817562 182.769242 
L 192.42751 175.82276 
L 193.037457 191.37684 
L 193.647404 193.490987 
L 194.257351 112.398355 
L 194.867298 227.921378 
L 196.087193 196.209176 
L 196.69714 110.73724 
L 197.307087 205.571826 
L 197.917034 189.866735 
L 198.526981 180.504085 
L 199.136928 185.789452 
L 199.746876 173.859624 
L 200.356823 193.793008 
L 200.96677 187.752588 
L 201.576717 92.16295 
L 202.186664 159.211606 
L 202.796611 115.267555 
L 203.406559 155.587355 
L 204.016506 205.269805 
L 204.626453 104.3948 
L 205.2364 198.172312 
L 205.846347 105.753894 
L 206.456294 192.433913 
L 207.066242 101.223579 
L 207.676189 87.934657 
L 208.286136 217.350644 
L 208.896083 85.82051 
L 209.50603 176.728823 
L 210.115977 176.728823 
L 210.725925 182.920253 
L 211.335872 174.312655 
L 211.945819 92.766992 
L 212.555766 177.332865 
L 213.165713 64.075 
L 213.77566 171.292445 
L 214.385608 164.647984 
L 214.995555 165.554047 
L 215.605502 73.890681 
L 216.215449 176.275791 
L 216.825396 97.146296 
L 217.435343 145.167631 
L 218.045291 90.048803 
L 218.655238 175.520739 
L 219.265185 86.273541 
L 219.875132 86.122531 
L 220.485079 74.796744 
L 221.095026 96.089223 
L 221.704974 177.936907 
L 222.314921 79.78009 
L 222.924868 104.998842 
L 223.534815 173.708613 
L 224.144762 106.961978 
L 224.754709 101.072569 
L 225.364657 157.399481 
L 225.974604 92.766992 
L 226.584551 165.705057 
L 227.194498 75.098765 
L 227.804445 76.004828 
L 228.414392 88.236678 
L 229.02434 72.682597 
L 229.634287 90.199814 
L 230.244234 89.14274 
L 230.854181 168.574257 
L 231.464128 159.060596 
L 232.074075 76.910891 
L 232.684023 92.01194 
L 233.29397 66.038136 
L 233.903917 176.879833 
L 234.513864 93.522045 
L 235.123811 86.122531 
L 235.733758 74.192702 
L 236.343706 94.428108 
L 236.953653 89.293751 
L 237.5636 89.293751 
L 238.173547 68.605314 
L 239.393441 92.01194 
L 240.003389 87.783646 
L 240.613336 93.069013 
L 241.223283 85.216468 
L 241.83323 169.178298 
L 242.443177 85.216468 
L 243.053124 86.877583 
L 243.663072 87.028594 
L 244.273019 69.662388 
L 244.882966 46.104752 
L 245.492913 70.115419 
L 246.10286 85.367478 
L 246.712807 78.723017 
L 247.322755 70.115419 
L 247.932702 159.513627 
L 248.542649 86.726573 
L 249.152596 68.907335 
L 249.762543 69.511377 
L 250.37249 84.310405 
L 250.982438 59.544685 
L 251.592385 93.371034 
L 252.202332 102.733684 
L 252.812279 70.870472 
L 253.422226 78.420996 
L 254.032173 68.756325 
L 254.642121 71.021482 
L 255.252068 69.813398 
L 255.862015 89.746782 
L 256.471962 74.041692 
L 257.081909 82.64929 
L 257.691856 52.749213 
L 258.301804 77.212912 
L 258.911751 66.642178 
L 259.521698 93.824066 
L 260.131645 135.804981 
L 260.741592 73.43765 
L 261.351539 82.498279 
L 261.961487 84.008384 
L 262.571434 71.625524 
L 263.181381 73.286639 
L 263.791328 66.038136 
L 264.401275 70.115419 
L 265.011222 83.102321 
L 266.231117 71.927545 
L 266.841064 69.360367 
L 267.451011 68.605314 
L 268.060958 59.242664 
L 268.670905 74.947755 
L 269.280853 76.004828 
L 269.8908 69.662388 
L 270.500747 66.340157 
L 271.110694 143.204495 
L 271.720641 76.155839 
L 272.330588 56.675486 
L 272.940536 82.498279 
L 273.550483 69.360367 
L 274.16043 84.612426 
L 274.770377 149.697946 
L 275.380324 72.833608 
L 275.990271 73.890681 
L 276.600219 161.627774 
L 277.210166 77.514933 
L 277.820113 58.336601 
L 278.43006 66.491167 
L 279.040007 84.159394 
L 280.259902 44.443636 
L 280.869849 148.942893 
L 281.479796 60.601758 
L 282.089743 88.99173 
L 282.69969 72.078555 
L 283.309637 46.255762 
L 283.919585 58.336601 
L 284.529532 47.916878 
L 285.139479 77.212912 
L 285.749426 56.222454 
L 286.359373 71.776534 
L 286.96932 69.058346 
L 287.579268 67.39723 
L 288.189215 62.564895 
L 288.799162 49.577993 
L 289.409109 70.26643 
L 290.019056 57.88357 
L 290.629003 60.903779 
L 291.238951 86.877583 
L 291.848898 44.896668 
L 293.068792 88.99173 
L 293.678739 67.24622 
L 294.898634 78.269985 
L 295.508581 90.652845 
L 296.118528 56.977507 
L 296.728475 82.8003 
L 297.948369 59.393675 
L 298.558317 71.323503 
L 299.168264 69.360367 
L 299.778211 75.551797 
L 300.388158 79.478069 
L 300.998105 48.52092 
L 301.608052 100.468527 
L 302.218 63.168937 
L 302.827947 64.528031 
L 303.437894 61.960853 
L 304.047841 89.595772 
L 304.657788 48.067888 
L 305.267735 74.947755 
L 305.877683 66.944199 
L 306.48763 45.802731 
L 307.097577 80.686153 
L 307.707524 70.568451 
L 308.317471 70.115419 
L 308.927418 57.732559 
L 309.537366 62.564895 
L 310.147313 57.279528 
L 310.75726 58.789633 
L 311.367207 70.568451 
L 311.977154 58.03458 
L 312.587101 64.981063 
L 313.197049 133.841845 
L 313.806996 84.914447 
L 314.416943 76.45786 
L 315.02689 62.111863 
L 315.636837 73.286639 
L 316.246784 99.562464 
L 316.856732 69.662388 
L 317.466679 89.595772 
L 318.076626 98.35438 
L 318.686573 140.184285 
L 319.29652 74.947755 
L 319.906467 73.890681 
L 320.516415 78.420996 
L 321.126362 92.464971 
L 321.736309 81.139185 
L 322.346256 84.612426 
L 322.956203 76.155839 
L 323.56615 59.544685 
L 324.176098 57.128517 
L 324.786045 165.101015 
L 325.395992 85.216468 
L 326.005939 80.233122 
L 326.615886 93.522045 
L 327.225833 58.03458 
L 327.835781 77.967964 
L 328.445728 76.60887 
L 329.055675 59.242664 
L 329.665622 51.994161 
L 330.275569 62.564895 
L 330.885516 50.635066 
L 331.495464 123.422121 
L 332.105411 66.944199 
L 332.715358 65.283084 
L 333.325305 62.111863 
L 333.935252 73.286639 
L 334.545199 56.071444 
L 335.155147 59.846706 
L 335.765094 74.343713 
L 336.375041 82.8003 
L 336.984988 66.340157 
L 337.594935 78.269985 
L 338.204882 84.914447 
L 338.81483 158.758575 
L 339.424777 64.075 
L 340.034724 54.86336 
L 340.644671 75.249776 
L 341.254618 79.025038 
L 341.864565 72.531587 
L 342.474513 68.907335 
L 343.08446 86.273541 
L 343.694407 67.699251 
L 344.304354 70.568451 
L 344.914301 82.951311 
L 345.524248 73.58866 
L 346.134196 51.390119 
L 346.744143 89.595772 
L 347.35409 65.736115 
L 347.964037 83.253331 
L 348.573984 94.881139 
L 349.183931 63.470958 
L 349.793879 62.413884 
L 350.403826 74.192702 
L 351.013773 166.007078 
L 351.62372 65.736115 
L 352.233667 91.407898 
L 352.843615 162.986869 
L 353.453562 99.562464 
L 354.063509 87.481625 
L 354.673456 63.621968 
L 355.283403 80.988174 
L 355.89335 59.544685 
L 356.503298 77.665943 
L 357.113245 88.538699 
L 357.723192 74.041692 
L 358.333139 100.166506 
L 358.943086 76.910891 
L 359.553033 77.514933 
L 360.162981 62.866916 
L 360.772928 88.085667 
L 361.382875 90.803856 
L 361.992822 77.061902 
L 362.602769 82.196258 
L 363.212716 73.135629 
L 363.822664 68.907335 
L 364.432611 56.373465 
L 365.042558 91.860929 
L 365.652505 93.975076 
L 366.262452 85.669499 
L 366.872399 73.43765 
L 367.482347 83.253331 
L 368.092294 81.894237 
L 368.702241 79.62908 
L 369.312188 84.310405 
L 369.922135 75.551797 
L 370.532082 89.14274 
L 371.14203 207.232941 
L 371.751977 64.377021 
L 372.361924 77.212912 
L 372.971871 66.944199 
L 373.581818 69.511377 
L 373.581818 69.511377 
" style="fill:none;stroke:#1f77b4;stroke-linecap:square;stroke-width:1.5;"/>
   </g>
   <g id="patch_3">
    <path d="M 54 252 
L 54 34.56 
" style="fill:none;stroke:#000000;stroke-linecap:square;stroke-linejoin:miter;stroke-width:0.8;"/>
   </g>
   <g id="patch_4">
    <path d="M 388.8 252 
L 388.8 34.56 
" style="fill:none;stroke:#000000;stroke-linecap:square;stroke-linejoin:miter;stroke-width:0.8;"/>
   </g>
   <g id="patch_5">
    <path d="M 54 252 
L 388.8 252 
" style="fill:none;stroke:#000000;stroke-linecap:square;stroke-linejoin:miter;stroke-width:0.8;"/>
   </g>
   <g id="patch_6">
    <path d="M 54 34.56 
L 388.8 34.56 
" style="fill:none;stroke:#000000;stroke-linecap:square;stroke-linejoin:miter;stroke-width:0.8;"/>
   </g>
   <g id="text_13">
    <!-- Total Rewards -->
    <defs>
     <path d="M -0.296875 72.90625 
L 61.375 72.90625 
L 61.375 64.59375 
L 35.5 64.59375 
L 35.5 0 
L 25.59375 0 
L 25.59375 64.59375 
L -0.296875 64.59375 
z
" id="DejaVuSans-84"/>
     <path d="M 30.609375 48.390625 
Q 23.390625 48.390625 19.1875 42.75 
Q 14.984375 37.109375 14.984375 27.296875 
Q 14.984375 17.484375 19.15625 11.84375 
Q 23.34375 6.203125 30.609375 6.203125 
Q 37.796875 6.203125 41.984375 11.859375 
Q 46.1875 17.53125 46.1875 27.296875 
Q 46.1875 37.015625 41.984375 42.703125 
Q 37.796875 48.390625 30.609375 48.390625 
z
M 30.609375 56 
Q 42.328125 56 49.015625 48.375 
Q 55.71875 40.765625 55.71875 27.296875 
Q 55.71875 13.875 49.015625 6.21875 
Q 42.328125 -1.421875 30.609375 -1.421875 
Q 18.84375 -1.421875 12.171875 6.21875 
Q 5.515625 13.875 5.515625 27.296875 
Q 5.515625 40.765625 12.171875 48.375 
Q 18.84375 56 30.609375 56 
z
" id="DejaVuSans-111"/>
     <path d="M 18.3125 70.21875 
L 18.3125 54.6875 
L 36.8125 54.6875 
L 36.8125 47.703125 
L 18.3125 47.703125 
L 18.3125 18.015625 
Q 18.3125 11.328125 20.140625 9.421875 
Q 21.96875 7.515625 27.59375 7.515625 
L 36.8125 7.515625 
L 36.8125 0 
L 27.59375 0 
Q 17.1875 0 13.234375 3.875 
Q 9.28125 7.765625 9.28125 18.015625 
L 9.28125 47.703125 
L 2.6875 47.703125 
L 2.6875 54.6875 
L 9.28125 54.6875 
L 9.28125 70.21875 
z
" id="DejaVuSans-116"/>
     <path d="M 34.28125 27.484375 
Q 23.390625 27.484375 19.1875 25 
Q 14.984375 22.515625 14.984375 16.5 
Q 14.984375 11.71875 18.140625 8.90625 
Q 21.296875 6.109375 26.703125 6.109375 
Q 34.1875 6.109375 38.703125 11.40625 
Q 43.21875 16.703125 43.21875 25.484375 
L 43.21875 27.484375 
z
M 52.203125 31.203125 
L 52.203125 0 
L 43.21875 0 
L 43.21875 8.296875 
Q 40.140625 3.328125 35.546875 0.953125 
Q 30.953125 -1.421875 24.3125 -1.421875 
Q 15.921875 -1.421875 10.953125 3.296875 
Q 6 8.015625 6 15.921875 
Q 6 25.140625 12.171875 29.828125 
Q 18.359375 34.515625 30.609375 34.515625 
L 43.21875 34.515625 
L 43.21875 35.40625 
Q 43.21875 41.609375 39.140625 45 
Q 35.0625 48.390625 27.6875 48.390625 
Q 23 48.390625 18.546875 47.265625 
Q 14.109375 46.140625 10.015625 43.890625 
L 10.015625 52.203125 
Q 14.9375 54.109375 19.578125 55.046875 
Q 24.21875 56 28.609375 56 
Q 40.484375 56 46.34375 49.84375 
Q 52.203125 43.703125 52.203125 31.203125 
z
" id="DejaVuSans-97"/>
     <path d="M 9.421875 75.984375 
L 18.40625 75.984375 
L 18.40625 0 
L 9.421875 0 
z
" id="DejaVuSans-108"/>
     <path id="DejaVuSans-32"/>
     <path d="M 44.390625 34.1875 
Q 47.5625 33.109375 50.5625 29.59375 
Q 53.5625 26.078125 56.59375 19.921875 
L 66.609375 0 
L 56 0 
L 46.6875 18.703125 
Q 43.0625 26.03125 39.671875 28.421875 
Q 36.28125 30.8125 30.421875 30.8125 
L 19.671875 30.8125 
L 19.671875 0 
L 9.8125 0 
L 9.8125 72.90625 
L 32.078125 72.90625 
Q 44.578125 72.90625 50.734375 67.671875 
Q 56.890625 62.453125 56.890625 51.90625 
Q 56.890625 45.015625 53.6875 40.46875 
Q 50.484375 35.9375 44.390625 34.1875 
z
M 19.671875 64.796875 
L 19.671875 38.921875 
L 32.078125 38.921875 
Q 39.203125 38.921875 42.84375 42.21875 
Q 46.484375 45.515625 46.484375 51.90625 
Q 46.484375 58.296875 42.84375 61.546875 
Q 39.203125 64.796875 32.078125 64.796875 
z
" id="DejaVuSans-82"/>
     <path d="M 56.203125 29.59375 
L 56.203125 25.203125 
L 14.890625 25.203125 
Q 15.484375 15.921875 20.484375 11.0625 
Q 25.484375 6.203125 34.421875 6.203125 
Q 39.59375 6.203125 44.453125 7.46875 
Q 49.3125 8.734375 54.109375 11.28125 
L 54.109375 2.78125 
Q 49.265625 0.734375 44.1875 -0.34375 
Q 39.109375 -1.421875 33.890625 -1.421875 
Q 20.796875 -1.421875 13.15625 6.1875 
Q 5.515625 13.8125 5.515625 26.8125 
Q 5.515625 40.234375 12.765625 48.109375 
Q 20.015625 56 32.328125 56 
Q 43.359375 56 49.78125 48.890625 
Q 56.203125 41.796875 56.203125 29.59375 
z
M 47.21875 32.234375 
Q 47.125 39.59375 43.09375 43.984375 
Q 39.0625 48.390625 32.421875 48.390625 
Q 24.90625 48.390625 20.390625 44.140625 
Q 15.875 39.890625 15.1875 32.171875 
z
" id="DejaVuSans-101"/>
     <path d="M 4.203125 54.6875 
L 13.1875 54.6875 
L 24.421875 12.015625 
L 35.59375 54.6875 
L 46.1875 54.6875 
L 57.421875 12.015625 
L 68.609375 54.6875 
L 77.59375 54.6875 
L 63.28125 0 
L 52.6875 0 
L 40.921875 44.828125 
L 29.109375 0 
L 18.5 0 
z
" id="DejaVuSans-119"/>
     <path d="M 41.109375 46.296875 
Q 39.59375 47.171875 37.8125 47.578125 
Q 36.03125 48 33.890625 48 
Q 26.265625 48 22.1875 43.046875 
Q 18.109375 38.09375 18.109375 28.8125 
L 18.109375 0 
L 9.078125 0 
L 9.078125 54.6875 
L 18.109375 54.6875 
L 18.109375 46.1875 
Q 20.953125 51.171875 25.484375 53.578125 
Q 30.03125 56 36.53125 56 
Q 37.453125 56 38.578125 55.875 
Q 39.703125 55.765625 41.0625 55.515625 
z
" id="DejaVuSans-114"/>
     <path d="M 45.40625 46.390625 
L 45.40625 75.984375 
L 54.390625 75.984375 
L 54.390625 0 
L 45.40625 0 
L 45.40625 8.203125 
Q 42.578125 3.328125 38.25 0.953125 
Q 33.9375 -1.421875 27.875 -1.421875 
Q 17.96875 -1.421875 11.734375 6.484375 
Q 5.515625 14.40625 5.515625 27.296875 
Q 5.515625 40.1875 11.734375 48.09375 
Q 17.96875 56 27.875 56 
Q 33.9375 56 38.25 53.625 
Q 42.578125 51.265625 45.40625 46.390625 
z
M 14.796875 27.296875 
Q 14.796875 17.390625 18.875 11.75 
Q 22.953125 6.109375 30.078125 6.109375 
Q 37.203125 6.109375 41.296875 11.75 
Q 45.40625 17.390625 45.40625 27.296875 
Q 45.40625 37.203125 41.296875 42.84375 
Q 37.203125 48.484375 30.078125 48.484375 
Q 22.953125 48.484375 18.875 42.84375 
Q 14.796875 37.203125 14.796875 27.296875 
z
" id="DejaVuSans-100"/>
     <path d="M 44.28125 53.078125 
L 44.28125 44.578125 
Q 40.484375 46.53125 36.375 47.5 
Q 32.28125 48.484375 27.875 48.484375 
Q 21.1875 48.484375 17.84375 46.4375 
Q 14.5 44.390625 14.5 40.28125 
Q 14.5 37.15625 16.890625 35.375 
Q 19.28125 33.59375 26.515625 31.984375 
L 29.59375 31.296875 
Q 39.15625 29.25 43.1875 25.515625 
Q 47.21875 21.78125 47.21875 15.09375 
Q 47.21875 7.46875 41.1875 3.015625 
Q 35.15625 -1.421875 24.609375 -1.421875 
Q 20.21875 -1.421875 15.453125 -0.5625 
Q 10.6875 0.296875 5.421875 2 
L 5.421875 11.28125 
Q 10.40625 8.6875 15.234375 7.390625 
Q 20.0625 6.109375 24.8125 6.109375 
Q 31.15625 6.109375 34.5625 8.28125 
Q 37.984375 10.453125 37.984375 14.40625 
Q 37.984375 18.0625 35.515625 20.015625 
Q 33.0625 21.96875 24.703125 23.78125 
L 21.578125 24.515625 
Q 13.234375 26.265625 9.515625 29.90625 
Q 5.8125 33.546875 5.8125 39.890625 
Q 5.8125 47.609375 11.28125 51.796875 
Q 16.75 56 26.8125 56 
Q 31.78125 56 36.171875 55.265625 
Q 40.578125 54.546875 44.28125 53.078125 
z
" id="DejaVuSans-115"/>
    </defs>
    <g transform="translate(180.010312 28.56)scale(0.12 -0.12)">
     <use xlink:href="#DejaVuSans-84"/>
     <use x="44.083984" xlink:href="#DejaVuSans-111"/>
     <use x="105.265625" xlink:href="#DejaVuSans-116"/>
     <use x="144.474609" xlink:href="#DejaVuSans-97"/>
     <use x="205.753906" xlink:href="#DejaVuSans-108"/>
     <use x="233.537109" xlink:href="#DejaVuSans-32"/>
     <use x="265.324219" xlink:href="#DejaVuSans-82"/>
     <use x="330.306641" xlink:href="#DejaVuSans-101"/>
     <use x="391.830078" xlink:href="#DejaVuSans-119"/>
     <use x="473.617188" xlink:href="#DejaVuSans-97"/>
     <use x="534.896484" xlink:href="#DejaVuSans-114"/>
     <use x="574.259766" xlink:href="#DejaVuSans-100"/>
     <use x="637.736328" xlink:href="#DejaVuSans-115"/>
    </g>
   </g>
  </g>
 </g>
 <defs>
  <clipPath id="p559e39e24f">
   <rect height="217.44" width="334.8" x="54" y="34.56"/>
  </clipPath>
 </defs>
</svg>
