<?xml version="1.0" encoding="utf-8" standalone="no"?>
<!DOCTYPE svg PUBLIC "-//W3C//DTD SVG 1.1//EN"
  "http://www.w3.org/Graphics/SVG/1.1/DTD/svg11.dtd">
<!-- Created with matplotlib (https://matplotlib.org/) -->
<svg height="288pt" version="1.1" viewBox="0 0 432 288" width="432pt" xmlns="http://www.w3.org/2000/svg" xmlns:xlink="http://www.w3.org/1999/xlink">
 <defs>
  <style type="text/css">
*{stroke-linecap:butt;stroke-linejoin:round;}
  </style>
 </defs>
 <g id="figure_1">
  <g id="patch_1">
   <path d="M 0 288 
L 432 288 
L 432 0 
L 0 0 
z
" style="fill:#ffffff;"/>
  </g>
  <g id="axes_1">
   <g id="patch_2">
    <path d="M 54 252 
L 388.8 252 
L 388.8 34.56 
L 54 34.56 
z
" style="fill:#ffffff;"/>
   </g>
   <g id="matplotlib.axis_1">
    <g id="xtick_1">
     <g id="line2d_1">
      <defs>
       <path d="M 0 0 
L 0 3.5 
" id="m2f50bfbd03" style="stroke:#000000;stroke-width:0.8;"/>
      </defs>
      <g>
       <use style="stroke:#000000;stroke-width:0.8;" x="69.218182" xlink:href="#m2f50bfbd03" y="252"/>
      </g>
     </g>
     <g id="text_1">
      <!-- 0 -->
      <defs>
       <path d="M 31.78125 66.40625 
Q 24.171875 66.40625 20.328125 58.90625 
Q 16.5 51.421875 16.5 36.375 
Q 16.5 21.390625 20.328125 13.890625 
Q 24.171875 6.390625 31.78125 6.390625 
Q 39.453125 6.390625 43.28125 13.890625 
Q 47.125 21.390625 47.125 36.375 
Q 47.125 51.421875 43.28125 58.90625 
Q 39.453125 66.40625 31.78125 66.40625 
z
M 31.78125 74.21875 
Q 44.046875 74.21875 50.515625 64.515625 
Q 56.984375 54.828125 56.984375 36.375 
Q 56.984375 17.96875 50.515625 8.265625 
Q 44.046875 -1.421875 31.78125 -1.421875 
Q 19.53125 -1.421875 13.0625 8.265625 
Q 6.59375 17.96875 6.59375 36.375 
Q 6.59375 54.828125 13.0625 64.515625 
Q 19.53125 74.21875 31.78125 74.21875 
z
" id="DejaVuSans-48"/>
      </defs>
      <g transform="translate(66.036932 266.598437)scale(0.1 -0.1)">
       <use xlink:href="#DejaVuSans-48"/>
      </g>
     </g>
    </g>
    <g id="xtick_2">
     <g id="line2d_2">
      <g>
       <use style="stroke:#000000;stroke-width:0.8;" x="130.212899" xlink:href="#m2f50bfbd03" y="252"/>
      </g>
     </g>
     <g id="text_2">
      <!-- 100 -->
      <defs>
       <path d="M 12.40625 8.296875 
L 28.515625 8.296875 
L 28.515625 63.921875 
L 10.984375 60.40625 
L 10.984375 69.390625 
L 28.421875 72.90625 
L 38.28125 72.90625 
L 38.28125 8.296875 
L 54.390625 8.296875 
L 54.390625 0 
L 12.40625 0 
z
" id="DejaVuSans-49"/>
      </defs>
      <g transform="translate(120.669149 266.598437)scale(0.1 -0.1)">
       <use xlink:href="#DejaVuSans-49"/>
       <use x="63.623047" xlink:href="#DejaVuSans-48"/>
       <use x="127.246094" xlink:href="#DejaVuSans-48"/>
      </g>
     </g>
    </g>
    <g id="xtick_3">
     <g id="line2d_3">
      <g>
       <use style="stroke:#000000;stroke-width:0.8;" x="191.207615" xlink:href="#m2f50bfbd03" y="252"/>
      </g>
     </g>
     <g id="text_3">
      <!-- 200 -->
      <defs>
       <path d="M 19.1875 8.296875 
L 53.609375 8.296875 
L 53.609375 0 
L 7.328125 0 
L 7.328125 8.296875 
Q 12.9375 14.109375 22.625 23.890625 
Q 32.328125 33.6875 34.8125 36.53125 
Q 39.546875 41.84375 41.421875 45.53125 
Q 43.3125 49.21875 43.3125 52.78125 
Q 43.3125 58.59375 39.234375 62.25 
Q 35.15625 65.921875 28.609375 65.921875 
Q 23.96875 65.921875 18.8125 64.3125 
Q 13.671875 62.703125 7.8125 59.421875 
L 7.8125 69.390625 
Q 13.765625 71.78125 18.9375 73 
Q 24.125 74.21875 28.421875 74.21875 
Q 39.75 74.21875 46.484375 68.546875 
Q 53.21875 62.890625 53.21875 53.421875 
Q 53.21875 48.921875 51.53125 44.890625 
Q 49.859375 40.875 45.40625 35.40625 
Q 44.1875 33.984375 37.640625 27.21875 
Q 31.109375 20.453125 19.1875 8.296875 
z
" id="DejaVuSans-50"/>
      </defs>
      <g transform="translate(181.663865 266.598437)scale(0.1 -0.1)">
       <use xlink:href="#DejaVuSans-50"/>
       <use x="63.623047" xlink:href="#DejaVuSans-48"/>
       <use x="127.246094" xlink:href="#DejaVuSans-48"/>
      </g>
     </g>
    </g>
    <g id="xtick_4">
     <g id="line2d_4">
      <g>
       <use style="stroke:#000000;stroke-width:0.8;" x="252.202332" xlink:href="#m2f50bfbd03" y="252"/>
      </g>
     </g>
     <g id="text_4">
      <!-- 300 -->
      <defs>
       <path d="M 40.578125 39.3125 
Q 47.65625 37.796875 51.625 33 
Q 55.609375 28.21875 55.609375 21.1875 
Q 55.609375 10.40625 48.1875 4.484375 
Q 40.765625 -1.421875 27.09375 -1.421875 
Q 22.515625 -1.421875 17.65625 -0.515625 
Q 12.796875 0.390625 7.625 2.203125 
L 7.625 11.71875 
Q 11.71875 9.328125 16.59375 8.109375 
Q 21.484375 6.890625 26.8125 6.890625 
Q 36.078125 6.890625 40.9375 10.546875 
Q 45.796875 14.203125 45.796875 21.1875 
Q 45.796875 27.640625 41.28125 31.265625 
Q 36.765625 34.90625 28.71875 34.90625 
L 20.21875 34.90625 
L 20.21875 43.015625 
L 29.109375 43.015625 
Q 36.375 43.015625 40.234375 45.921875 
Q 44.09375 48.828125 44.09375 54.296875 
Q 44.09375 59.90625 40.109375 62.90625 
Q 36.140625 65.921875 28.71875 65.921875 
Q 24.65625 65.921875 20.015625 65.03125 
Q 15.375 64.15625 9.8125 62.3125 
L 9.8125 71.09375 
Q 15.4375 72.65625 20.34375 73.4375 
Q 25.25 74.21875 29.59375 74.21875 
Q 40.828125 74.21875 47.359375 69.109375 
Q 53.90625 64.015625 53.90625 55.328125 
Q 53.90625 49.265625 50.4375 45.09375 
Q 46.96875 40.921875 40.578125 39.3125 
z
" id="DejaVuSans-51"/>
      </defs>
      <g transform="translate(242.658582 266.598437)scale(0.1 -0.1)">
       <use xlink:href="#DejaVuSans-51"/>
       <use x="63.623047" xlink:href="#DejaVuSans-48"/>
       <use x="127.246094" xlink:href="#DejaVuSans-48"/>
      </g>
     </g>
    </g>
    <g id="xtick_5">
     <g id="line2d_5">
      <g>
       <use style="stroke:#000000;stroke-width:0.8;" x="313.197049" xlink:href="#m2f50bfbd03" y="252"/>
      </g>
     </g>
     <g id="text_5">
      <!-- 400 -->
      <defs>
       <path d="M 37.796875 64.3125 
L 12.890625 25.390625 
L 37.796875 25.390625 
z
M 35.203125 72.90625 
L 47.609375 72.90625 
L 47.609375 25.390625 
L 58.015625 25.390625 
L 58.015625 17.1875 
L 47.609375 17.1875 
L 47.609375 0 
L 37.796875 0 
L 37.796875 17.1875 
L 4.890625 17.1875 
L 4.890625 26.703125 
z
" id="DejaVuSans-52"/>
      </defs>
      <g transform="translate(303.653299 266.598437)scale(0.1 -0.1)">
       <use xlink:href="#DejaVuSans-52"/>
       <use x="63.623047" xlink:href="#DejaVuSans-48"/>
       <use x="127.246094" xlink:href="#DejaVuSans-48"/>
      </g>
     </g>
    </g>
    <g id="xtick_6">
     <g id="line2d_6">
      <g>
       <use style="stroke:#000000;stroke-width:0.8;" x="374.191765" xlink:href="#m2f50bfbd03" y="252"/>
      </g>
     </g>
     <g id="text_6">
      <!-- 500 -->
      <defs>
       <path d="M 10.796875 72.90625 
L 49.515625 72.90625 
L 49.515625 64.59375 
L 19.828125 64.59375 
L 19.828125 46.734375 
Q 21.96875 47.46875 24.109375 47.828125 
Q 26.265625 48.1875 28.421875 48.1875 
Q 40.625 48.1875 47.75 41.5 
Q 54.890625 34.8125 54.890625 23.390625 
Q 54.890625 11.625 47.5625 5.09375 
Q 40.234375 -1.421875 26.90625 -1.421875 
Q 22.3125 -1.421875 17.546875 -0.640625 
Q 12.796875 0.140625 7.71875 1.703125 
L 7.71875 11.625 
Q 12.109375 9.234375 16.796875 8.0625 
Q 21.484375 6.890625 26.703125 6.890625 
Q 35.15625 6.890625 40.078125 11.328125 
Q 45.015625 15.765625 45.015625 23.390625 
Q 45.015625 31 40.078125 35.4375 
Q 35.15625 39.890625 26.703125 39.890625 
Q 22.75 39.890625 18.8125 39.015625 
Q 14.890625 38.140625 10.796875 36.28125 
z
" id="DejaVuSans-53"/>
      </defs>
      <g transform="translate(364.648015 266.598437)scale(0.1 -0.1)">
       <use xlink:href="#DejaVuSans-53"/>
       <use x="63.623047" xlink:href="#DejaVuSans-48"/>
       <use x="127.246094" xlink:href="#DejaVuSans-48"/>
      </g>
     </g>
    </g>
   </g>
   <g id="matplotlib.axis_2">
    <g id="ytick_1">
     <g id="line2d_7">
      <defs>
       <path d="M 0 0 
L -3.5 0 
" id="m3dd9fd93f9" style="stroke:#000000;stroke-width:0.8;"/>
      </defs>
      <g>
       <use style="stroke:#000000;stroke-width:0.8;" x="54" xlink:href="#m3dd9fd93f9" y="224.293413"/>
      </g>
     </g>
     <g id="text_7">
      <!-- −50 -->
      <defs>
       <path d="M 10.59375 35.5 
L 73.1875 35.5 
L 73.1875 27.203125 
L 10.59375 27.203125 
z
" id="DejaVuSans-8722"/>
      </defs>
      <g transform="translate(25.895312 228.092632)scale(0.1 -0.1)">
       <use xlink:href="#DejaVuSans-8722"/>
       <use x="83.789062" xlink:href="#DejaVuSans-53"/>
       <use x="147.412109" xlink:href="#DejaVuSans-48"/>
      </g>
     </g>
    </g>
    <g id="ytick_2">
     <g id="line2d_8">
      <g>
       <use style="stroke:#000000;stroke-width:0.8;" x="54" xlink:href="#m3dd9fd93f9" y="187.469134"/>
      </g>
     </g>
     <g id="text_8">
      <!-- 0 -->
      <g transform="translate(40.6375 191.268353)scale(0.1 -0.1)">
       <use xlink:href="#DejaVuSans-48"/>
      </g>
     </g>
    </g>
    <g id="ytick_3">
     <g id="line2d_9">
      <g>
       <use style="stroke:#000000;stroke-width:0.8;" x="54" xlink:href="#m3dd9fd93f9" y="150.644856"/>
      </g>
     </g>
     <g id="text_9">
      <!-- 50 -->
      <g transform="translate(34.275 154.444074)scale(0.1 -0.1)">
       <use xlink:href="#DejaVuSans-53"/>
       <use x="63.623047" xlink:href="#DejaVuSans-48"/>
      </g>
     </g>
    </g>
    <g id="ytick_4">
     <g id="line2d_10">
      <g>
       <use style="stroke:#000000;stroke-width:0.8;" x="54" xlink:href="#m3dd9fd93f9" y="113.820577"/>
      </g>
     </g>
     <g id="text_10">
      <!-- 100 -->
      <g transform="translate(27.9125 117.619796)scale(0.1 -0.1)">
       <use xlink:href="#DejaVuSans-49"/>
       <use x="63.623047" xlink:href="#DejaVuSans-48"/>
       <use x="127.246094" xlink:href="#DejaVuSans-48"/>
      </g>
     </g>
    </g>
    <g id="ytick_5">
     <g id="line2d_11">
      <g>
       <use style="stroke:#000000;stroke-width:0.8;" x="54" xlink:href="#m3dd9fd93f9" y="76.996299"/>
      </g>
     </g>
     <g id="text_11">
      <!-- 150 -->
      <g transform="translate(27.9125 80.795517)scale(0.1 -0.1)">
       <use xlink:href="#DejaVuSans-49"/>
       <use x="63.623047" xlink:href="#DejaVuSans-53"/>
       <use x="127.246094" xlink:href="#DejaVuSans-48"/>
      </g>
     </g>
    </g>
    <g id="ytick_6">
     <g id="line2d_12">
      <g>
       <use style="stroke:#000000;stroke-width:0.8;" x="54" xlink:href="#m3dd9fd93f9" y="40.17202"/>
      </g>
     </g>
     <g id="text_12">
      <!-- 200 -->
      <g transform="translate(27.9125 43.971239)scale(0.1 -0.1)">
       <use xlink:href="#DejaVuSans-50"/>
       <use x="63.623047" xlink:href="#DejaVuSans-48"/>
       <use x="127.246094" xlink:href="#DejaVuSans-48"/>
      </g>
     </g>
    </g>
   </g>
   <g id="line2d_13">
    <path clip-path="url(#p5519c8ee94)" d="M 69.218182 219.138014 
L 69.828129 208.679919 
L 70.438076 212.067752 
L 72.267918 233.13124 
L 72.877865 219.432608 
L 73.487812 220.610985 
L 74.097759 230.332594 
L 74.707706 216.339369 
L 75.317653 215.75018 
L 75.927601 201.167766 
L 76.537548 221.494768 
L 77.757442 231.658269 
L 78.367389 198.221824 
L 78.977336 222.231253 
L 79.587284 201.756954 
L 80.197231 224.44071 
L 80.807178 226.797464 
L 82.027072 207.796136 
L 82.637019 226.060978 
L 83.246967 228.565029 
L 83.856914 226.355572 
L 84.466861 129.139477 
L 85.076808 215.013695 
L 85.686755 227.681246 
L 86.296702 216.339369 
L 86.90665 229.596109 
L 87.516597 122.069216 
L 88.126544 222.525847 
L 88.736491 224.44071 
L 89.346438 210.889375 
L 89.956385 230.038 
L 90.566333 216.339369 
L 91.17628 199.842092 
L 91.786227 227.975841 
L 92.396174 202.198846 
L 93.006121 214.277209 
L 93.616069 217.370448 
L 94.226016 224.44071 
L 94.835963 220.169094 
L 95.44591 198.221824 
L 96.055857 215.308289 
L 96.665804 221.347471 
L 97.275752 204.702897 
L 97.885699 221.200173 
L 98.495646 215.75018 
L 99.105593 232.836645 
L 99.71554 222.083956 
L 100.325487 220.169094 
L 100.935435 232.542051 
L 101.545382 207.796136 
L 102.155329 210.594781 
L 102.765276 206.912353 
L 103.375223 195.128584 
L 103.98517 214.7191 
L 104.595118 219.874499 
L 105.205065 210.447484 
L 105.815012 211.920455 
L 107.034906 231.510971 
L 107.644853 204.702897 
L 108.254801 204.5556 
L 108.864748 203.229925 
L 109.474695 231.216377 
L 110.084642 221.052876 
L 110.694589 225.177196 
L 111.304536 211.625861 
L 111.914484 213.835318 
L 112.524431 237.402856 
L 113.134378 223.998819 
L 113.744325 229.448812 
L 114.354272 214.277209 
L 114.964219 232.394754 
L 115.574167 202.346143 
L 116.184114 224.735304 
L 116.794061 216.78126 
L 117.404008 225.029898 
L 118.013955 200.873172 
L 118.623902 132.085419 
L 119.23385 218.84342 
L 119.843797 216.044774 
L 120.453744 220.610985 
L 121.063691 231.216377 
L 121.673638 193.361019 
L 122.283585 204.702897 
L 122.893533 198.811012 
L 123.50348 220.905579 
L 124.113427 219.138014 
L 124.723374 220.316391 
L 125.333321 231.216377 
L 125.943268 227.975841 
L 126.553216 206.912353 
L 127.163163 209.563701 
L 127.77311 234.015022 
L 128.383057 235.046102 
L 128.993004 220.463688 
L 129.602951 219.432608 
L 130.212899 125.162455 
L 130.822846 209.269107 
L 131.432793 217.959637 
L 132.04274 235.487993 
L 132.652687 195.717773 
L 133.262634 230.332594 
L 133.872582 214.424506 
L 134.482529 222.820442 
L 135.092476 215.160992 
L 135.702423 226.060978 
L 136.31237 215.160992 
L 136.922317 230.038 
L 137.532265 200.283983 
L 138.142212 231.216377 
L 138.752159 225.324493 
L 139.362106 221.200173 
L 139.972053 219.579905 
L 140.582 231.510971 
L 141.191948 205.881274 
L 141.801895 221.936659 
L 142.411842 223.851521 
L 143.021789 195.128584 
L 143.631736 126.93002 
L 144.241683 217.223151 
L 144.851631 215.160992 
L 145.461578 222.37855 
L 146.071525 192.77183 
L 146.681472 208.974513 
L 147.291419 221.789362 
L 147.901366 230.627189 
L 148.511314 191.298859 
L 149.121261 218.548825 
L 149.731208 215.308289 
L 150.341155 225.324493 
L 150.951102 199.105606 
L 151.561049 207.05965 
L 152.170997 231.952863 
L 152.780944 219.285311 
L 153.390891 222.231253 
L 154.000838 209.416404 
L 154.610785 231.06908 
L 155.220732 211.331267 
L 155.83068 225.619087 
L 156.440627 209.12181 
L 157.050574 228.565029 
L 157.660521 232.983943 
L 158.270468 220.021797 
L 158.880415 216.044774 
L 159.490363 221.642065 
L 160.10031 229.00692 
L 160.710257 217.370448 
L 161.320204 202.788034 
L 161.930151 199.842092 
L 162.540098 209.12181 
L 163.150046 214.571803 
L 163.759993 222.525847 
L 164.36994 222.083956 
L 164.979887 221.494768 
L 165.589834 229.301515 
L 166.809729 205.586679 
L 167.419676 228.712326 
L 168.029623 231.805566 
L 168.63957 214.129912 
L 169.249517 221.642065 
L 169.859464 211.18397 
L 170.469412 241.527175 
L 171.079359 216.78126 
L 171.689306 125.457049 
L 172.299253 224.293413 
L 172.9092 210.15289 
L 173.519147 222.967739 
L 174.129095 224.293413 
L 174.739042 225.177196 
L 175.348989 224.293413 
L 175.958936 224.293413 
L 176.568883 215.308289 
L 177.17883 199.842092 
L 177.788778 217.075854 
L 178.398725 214.7191 
L 179.008672 215.897477 
L 179.618619 223.998819 
L 180.228566 224.44071 
L 180.838513 223.262333 
L 181.448461 213.393426 
L 182.058408 221.052876 
L 182.668355 231.06908 
L 183.278302 186.879946 
L 183.888249 208.827216 
L 184.498196 200.578577 
L 185.108144 207.943433 
L 185.718091 216.928557 
L 186.328038 220.758282 
L 186.937985 204.850194 
L 187.547932 198.811012 
L 188.157879 197.043447 
L 188.767827 199.252903 
L 189.377774 227.239355 
L 189.987721 222.37855 
L 190.597668 225.913681 
L 191.207615 226.944761 
L 191.817562 223.262333 
L 193.037457 227.386652 
L 193.647404 233.720428 
L 194.257351 227.975841 
L 194.867298 207.206948 
L 195.477245 141.954326 
L 196.087193 231.06908 
L 196.69714 210.889375 
L 197.307087 212.951535 
L 197.917034 218.401528 
L 198.526981 228.270435 
L 199.136928 219.874499 
L 199.746876 230.185297 
L 200.356823 204.408302 
L 200.96677 218.254231 
L 201.576717 228.712326 
L 202.186664 225.47179 
L 202.796611 228.859623 
L 203.406559 227.386652 
L 204.016506 224.588007 
L 204.626453 220.169094 
L 205.2364 226.944761 
L 205.846347 212.656941 
L 206.456294 206.175868 
L 207.066242 231.952863 
L 207.676189 211.920455 
L 208.286136 224.735304 
L 208.896083 225.324493 
L 209.50603 182.755627 
L 210.115977 217.665043 
L 210.725925 222.231253 
L 211.335872 212.951535 
L 211.945819 217.075854 
L 212.555766 185.259678 
L 213.165713 230.185297 
L 213.77566 227.975841 
L 214.385608 212.509644 
L 214.995555 209.858296 
L 215.605502 199.252903 
L 216.215449 230.627189 
L 216.825396 227.828544 
L 217.435343 211.773158 
L 218.045291 221.052876 
L 218.655238 206.028571 
L 219.265185 235.635291 
L 219.875132 222.820442 
L 220.485079 207.206948 
L 221.095026 224.588007 
L 221.704974 217.370448 
L 222.314921 233.573131 
L 222.924868 198.958309 
L 223.534815 217.959637 
L 224.144762 220.463688 
L 224.754709 206.470462 
L 225.364657 202.49344 
L 225.974604 224.44071 
L 226.584551 225.029898 
L 227.194498 194.83399 
L 227.804445 220.463688 
L 228.414392 216.78126 
L 229.02434 129.139477 
L 229.634287 228.859623 
L 230.244234 212.362347 
L 230.854181 217.81234 
L 231.464128 221.494768 
L 232.074075 220.316391 
L 233.29397 210.15289 
L 233.903917 221.052876 
L 234.513864 227.239355 
L 235.123811 205.881274 
L 235.733758 220.463688 
L 236.343706 118.975976 
L 236.953653 227.533949 
L 237.5636 216.192072 
L 238.173547 213.246129 
L 238.783494 202.346143 
L 239.393441 214.424506 
L 240.003389 197.632635 
L 240.613336 223.556927 
L 241.223283 211.036673 
L 242.443177 189.678591 
L 243.053124 176.127256 
L 243.663072 202.49344 
L 244.273019 191.298859 
L 244.882966 106.308424 
L 245.492913 212.362347 
L 246.10286 184.375895 
L 246.712807 203.082628 
L 247.322755 104.393562 
L 247.932702 108.812475 
L 248.542649 202.051549 
L 249.152596 242.116364 
L 249.762543 212.362347 
L 250.37249 208.974513 
L 250.982438 197.190744 
L 251.592385 211.18397 
L 252.202332 184.670489 
L 252.812279 189.2367 
L 253.422226 223.115036 
L 254.032173 188.794808 
L 254.642121 121.038136 
L 255.252068 101.594917 
L 255.862015 188.942105 
L 256.471962 94.524655 
L 257.081909 174.94888 
L 257.691856 180.840764 
L 258.301804 183.344815 
L 258.911751 187.321837 
L 259.521698 174.506988 
L 260.131645 198.221824 
L 260.741592 170.677263 
L 261.351539 163.16511 
L 261.961487 172.592126 
L 262.571434 180.104279 
L 263.181381 183.786706 
L 263.791328 94.082764 
L 264.401275 171.85564 
L 265.011222 98.648974 
L 265.62117 108.517881 
L 266.231117 193.80291 
L 266.841064 73.313871 
L 267.451011 104.835453 
L 268.060958 97.176003 
L 268.670905 101.005728 
L 269.280853 107.192207 
L 269.8908 166.111053 
L 270.500747 104.835453 
L 271.110694 93.640873 
L 271.720641 93.346278 
L 272.330588 78.027378 
L 272.940536 97.912489 
L 273.550483 96.144923 
L 274.16043 74.492248 
L 274.770377 169.204292 
L 275.380324 75.817922 
L 275.990271 163.017813 
L 276.600219 88.190879 
L 277.210166 81.709806 
L 277.820113 170.235372 
L 278.43006 83.330075 
L 279.040007 83.330075 
L 279.649954 89.811148 
L 280.259902 59.615239 
L 281.479796 88.338176 
L 282.089743 175.096177 
L 282.69969 93.493575 
L 283.309637 92.75709 
L 283.919585 154.621878 
L 284.529532 160.808357 
L 285.139479 84.06656 
L 285.749426 92.020604 
L 286.359373 75.523327 
L 286.96932 148.582696 
L 287.579268 72.577385 
L 288.189215 164.048893 
L 288.799162 64.328747 
L 289.409109 68.158472 
L 290.629003 81.857103 
L 291.238951 66.538203 
L 291.848898 76.112516 
L 292.458845 72.577385 
L 293.068792 83.919263 
L 293.678739 90.105742 
L 294.288686 88.780068 
L 294.898634 61.971993 
L 295.508581 86.276017 
L 296.118528 79.353052 
L 296.728475 90.105742 
L 297.338422 182.019141 
L 297.948369 99.38546 
L 298.558317 77.585487 
L 299.168264 85.539531 
L 299.778211 66.538203 
L 300.388158 91.431416 
L 300.998105 87.159799 
L 301.608052 69.631443 
L 302.218 166.111053 
L 302.827947 82.446292 
L 303.437894 106.603019 
L 304.047841 82.298995 
L 304.657788 150.644856 
L 305.267735 162.281328 
L 305.877683 59.026051 
L 306.48763 80.826024 
L 307.097577 73.608465 
L 307.707524 68.74766 
L 308.317471 76.554407 
L 308.927418 90.253039 
L 309.537366 80.089538 
L 310.147313 82.151698 
L 310.75726 82.0044 
L 311.367207 73.019277 
L 311.977154 82.151698 
L 312.587101 78.321973 
L 313.197049 175.685365 
L 313.806996 101.742214 
L 314.416943 73.461168 
L 315.02689 97.470597 
L 315.636837 84.655749 
L 316.246784 96.881409 
L 316.856732 91.431416 
L 317.466679 82.740886 
L 318.076626 150.644856 
L 318.686573 157.273226 
L 319.29652 72.724682 
L 320.516415 97.617895 
L 321.126362 71.8409 
L 321.736309 85.392234 
L 322.346256 151.381341 
L 322.956203 87.601691 
L 323.56615 88.190879 
L 324.176098 58.731456 
L 324.786045 84.655749 
L 325.395992 83.330075 
L 326.005939 57.994971 
L 326.615886 78.174676 
L 327.225833 47.389579 
L 327.835781 91.136822 
L 328.445728 74.344951 
L 329.055675 75.37603 
L 329.665622 76.996299 
L 330.275569 69.042254 
L 330.885516 69.926037 
L 331.495464 81.709806 
L 332.105411 66.980095 
L 332.715358 106.01383 
L 333.325305 82.593589 
L 333.935252 69.631443 
L 334.545199 49.009847 
L 335.155147 54.607137 
L 335.765094 71.251711 
L 336.375041 78.46927 
L 336.984988 79.794944 
L 337.594935 88.632771 
L 338.81483 67.421986 
L 339.424777 84.06656 
L 340.034724 84.803046 
L 340.644671 68.453066 
L 341.254618 82.446292 
L 341.864565 57.700377 
L 342.474513 74.492248 
L 343.08446 57.700377 
L 343.694407 83.477372 
L 344.304354 59.467942 
L 344.914301 63.886855 
L 345.524248 56.522 
L 346.134196 66.832798 
L 346.744143 72.135494 
L 347.35409 69.926037 
L 347.964037 75.228733 
L 348.573984 71.693602 
L 349.183931 73.903059 
L 349.793879 44.590933 
L 350.403826 81.709806 
L 351.013773 71.988197 
L 351.62372 67.274689 
L 352.233667 57.994971 
L 352.843615 90.105742 
L 353.453562 62.11929 
L 354.063509 76.849001 
L 354.673456 74.786842 
L 355.283403 93.640873 
L 355.89335 79.205755 
L 356.503298 84.361154 
L 357.723192 47.83147 
L 358.333139 74.639545 
L 358.943086 78.027378 
L 359.553033 66.980095 
L 360.162981 67.274689 
L 360.772928 70.662523 
L 361.382875 85.834125 
L 361.992822 78.911161 
L 362.602769 64.476044 
L 363.212716 79.205755 
L 363.822664 70.367928 
L 364.432611 65.065232 
L 365.042558 63.444964 
L 366.262452 75.523327 
L 366.872399 87.159799 
L 367.482347 75.228733 
L 368.092294 44.443636 
L 368.702241 76.554407 
L 369.312188 62.266587 
L 369.922135 56.522 
L 370.532082 76.701704 
L 371.14203 68.158472 
L 371.751977 66.980095 
L 372.361924 69.042254 
L 372.971871 51.366601 
L 373.581818 81.267915 
L 373.581818 81.267915 
" style="fill:none;stroke:#1f77b4;stroke-linecap:square;stroke-width:1.5;"/>
   </g>
   <g id="patch_3">
    <path d="M 54 252 
L 54 34.56 
" style="fill:none;stroke:#000000;stroke-linecap:square;stroke-linejoin:miter;stroke-width:0.8;"/>
   </g>
   <g id="patch_4">
    <path d="M 388.8 252 
L 388.8 34.56 
" style="fill:none;stroke:#000000;stroke-linecap:square;stroke-linejoin:miter;stroke-width:0.8;"/>
   </g>
   <g id="patch_5">
    <path d="M 54 252 
L 388.8 252 
" style="fill:none;stroke:#000000;stroke-linecap:square;stroke-linejoin:miter;stroke-width:0.8;"/>
   </g>
   <g id="patch_6">
    <path d="M 54 34.56 
L 388.8 34.56 
" style="fill:none;stroke:#000000;stroke-linecap:square;stroke-linejoin:miter;stroke-width:0.8;"/>
   </g>
   <g id="text_13">
    <!-- Total Rewards -->
    <defs>
     <path d="M -0.296875 72.90625 
L 61.375 72.90625 
L 61.375 64.59375 
L 35.5 64.59375 
L 35.5 0 
L 25.59375 0 
L 25.59375 64.59375 
L -0.296875 64.59375 
z
" id="DejaVuSans-84"/>
     <path d="M 30.609375 48.390625 
Q 23.390625 48.390625 19.1875 42.75 
Q 14.984375 37.109375 14.984375 27.296875 
Q 14.984375 17.484375 19.15625 11.84375 
Q 23.34375 6.203125 30.609375 6.203125 
Q 37.796875 6.203125 41.984375 11.859375 
Q 46.1875 17.53125 46.1875 27.296875 
Q 46.1875 37.015625 41.984375 42.703125 
Q 37.796875 48.390625 30.609375 48.390625 
z
M 30.609375 56 
Q 42.328125 56 49.015625 48.375 
Q 55.71875 40.765625 55.71875 27.296875 
Q 55.71875 13.875 49.015625 6.21875 
Q 42.328125 -1.421875 30.609375 -1.421875 
Q 18.84375 -1.421875 12.171875 6.21875 
Q 5.515625 13.875 5.515625 27.296875 
Q 5.515625 40.765625 12.171875 48.375 
Q 18.84375 56 30.609375 56 
z
" id="DejaVuSans-111"/>
     <path d="M 18.3125 70.21875 
L 18.3125 54.6875 
L 36.8125 54.6875 
L 36.8125 47.703125 
L 18.3125 47.703125 
L 18.3125 18.015625 
Q 18.3125 11.328125 20.140625 9.421875 
Q 21.96875 7.515625 27.59375 7.515625 
L 36.8125 7.515625 
L 36.8125 0 
L 27.59375 0 
Q 17.1875 0 13.234375 3.875 
Q 9.28125 7.765625 9.28125 18.015625 
L 9.28125 47.703125 
L 2.6875 47.703125 
L 2.6875 54.6875 
L 9.28125 54.6875 
L 9.28125 70.21875 
z
" id="DejaVuSans-116"/>
     <path d="M 34.28125 27.484375 
Q 23.390625 27.484375 19.1875 25 
Q 14.984375 22.515625 14.984375 16.5 
Q 14.984375 11.71875 18.140625 8.90625 
Q 21.296875 6.109375 26.703125 6.109375 
Q 34.1875 6.109375 38.703125 11.40625 
Q 43.21875 16.703125 43.21875 25.484375 
L 43.21875 27.484375 
z
M 52.203125 31.203125 
L 52.203125 0 
L 43.21875 0 
L 43.21875 8.296875 
Q 40.140625 3.328125 35.546875 0.953125 
Q 30.953125 -1.421875 24.3125 -1.421875 
Q 15.921875 -1.421875 10.953125 3.296875 
Q 6 8.015625 6 15.921875 
Q 6 25.140625 12.171875 29.828125 
Q 18.359375 34.515625 30.609375 34.515625 
L 43.21875 34.515625 
L 43.21875 35.40625 
Q 43.21875 41.609375 39.140625 45 
Q 35.0625 48.390625 27.6875 48.390625 
Q 23 48.390625 18.546875 47.265625 
Q 14.109375 46.140625 10.015625 43.890625 
L 10.015625 52.203125 
Q 14.9375 54.109375 19.578125 55.046875 
Q 24.21875 56 28.609375 56 
Q 40.484375 56 46.34375 49.84375 
Q 52.203125 43.703125 52.203125 31.203125 
z
" id="DejaVuSans-97"/>
     <path d="M 9.421875 75.984375 
L 18.40625 75.984375 
L 18.40625 0 
L 9.421875 0 
z
" id="DejaVuSans-108"/>
     <path id="DejaVuSans-32"/>
     <path d="M 44.390625 34.1875 
Q 47.5625 33.109375 50.5625 29.59375 
Q 53.5625 26.078125 56.59375 19.921875 
L 66.609375 0 
L 56 0 
L 46.6875 18.703125 
Q 43.0625 26.03125 39.671875 28.421875 
Q 36.28125 30.8125 30.421875 30.8125 
L 19.671875 30.8125 
L 19.671875 0 
L 9.8125 0 
L 9.8125 72.90625 
L 32.078125 72.90625 
Q 44.578125 72.90625 50.734375 67.671875 
Q 56.890625 62.453125 56.890625 51.90625 
Q 56.890625 45.015625 53.6875 40.46875 
Q 50.484375 35.9375 44.390625 34.1875 
z
M 19.671875 64.796875 
L 19.671875 38.921875 
L 32.078125 38.921875 
Q 39.203125 38.921875 42.84375 42.21875 
Q 46.484375 45.515625 46.484375 51.90625 
Q 46.484375 58.296875 42.84375 61.546875 
Q 39.203125 64.796875 32.078125 64.796875 
z
" id="DejaVuSans-82"/>
     <path d="M 56.203125 29.59375 
L 56.203125 25.203125 
L 14.890625 25.203125 
Q 15.484375 15.921875 20.484375 11.0625 
Q 25.484375 6.203125 34.421875 6.203125 
Q 39.59375 6.203125 44.453125 7.46875 
Q 49.3125 8.734375 54.109375 11.28125 
L 54.109375 2.78125 
Q 49.265625 0.734375 44.1875 -0.34375 
Q 39.109375 -1.421875 33.890625 -1.421875 
Q 20.796875 -1.421875 13.15625 6.1875 
Q 5.515625 13.8125 5.515625 26.8125 
Q 5.515625 40.234375 12.765625 48.109375 
Q 20.015625 56 32.328125 56 
Q 43.359375 56 49.78125 48.890625 
Q 56.203125 41.796875 56.203125 29.59375 
z
M 47.21875 32.234375 
Q 47.125 39.59375 43.09375 43.984375 
Q 39.0625 48.390625 32.421875 48.390625 
Q 24.90625 48.390625 20.390625 44.140625 
Q 15.875 39.890625 15.1875 32.171875 
z
" id="DejaVuSans-101"/>
     <path d="M 4.203125 54.6875 
L 13.1875 54.6875 
L 24.421875 12.015625 
L 35.59375 54.6875 
L 46.1875 54.6875 
L 57.421875 12.015625 
L 68.609375 54.6875 
L 77.59375 54.6875 
L 63.28125 0 
L 52.6875 0 
L 40.921875 44.828125 
L 29.109375 0 
L 18.5 0 
z
" id="DejaVuSans-119"/>
     <path d="M 41.109375 46.296875 
Q 39.59375 47.171875 37.8125 47.578125 
Q 36.03125 48 33.890625 48 
Q 26.265625 48 22.1875 43.046875 
Q 18.109375 38.09375 18.109375 28.8125 
L 18.109375 0 
L 9.078125 0 
L 9.078125 54.6875 
L 18.109375 54.6875 
L 18.109375 46.1875 
Q 20.953125 51.171875 25.484375 53.578125 
Q 30.03125 56 36.53125 56 
Q 37.453125 56 38.578125 55.875 
Q 39.703125 55.765625 41.0625 55.515625 
z
" id="DejaVuSans-114"/>
     <path d="M 45.40625 46.390625 
L 45.40625 75.984375 
L 54.390625 75.984375 
L 54.390625 0 
L 45.40625 0 
L 45.40625 8.203125 
Q 42.578125 3.328125 38.25 0.953125 
Q 33.9375 -1.421875 27.875 -1.421875 
Q 17.96875 -1.421875 11.734375 6.484375 
Q 5.515625 14.40625 5.515625 27.296875 
Q 5.515625 40.1875 11.734375 48.09375 
Q 17.96875 56 27.875 56 
Q 33.9375 56 38.25 53.625 
Q 42.578125 51.265625 45.40625 46.390625 
z
M 14.796875 27.296875 
Q 14.796875 17.390625 18.875 11.75 
Q 22.953125 6.109375 30.078125 6.109375 
Q 37.203125 6.109375 41.296875 11.75 
Q 45.40625 17.390625 45.40625 27.296875 
Q 45.40625 37.203125 41.296875 42.84375 
Q 37.203125 48.484375 30.078125 48.484375 
Q 22.953125 48.484375 18.875 42.84375 
Q 14.796875 37.203125 14.796875 27.296875 
z
" id="DejaVuSans-100"/>
     <path d="M 44.28125 53.078125 
L 44.28125 44.578125 
Q 40.484375 46.53125 36.375 47.5 
Q 32.28125 48.484375 27.875 48.484375 
Q 21.1875 48.484375 17.84375 46.4375 
Q 14.5 44.390625 14.5 40.28125 
Q 14.5 37.15625 16.890625 35.375 
Q 19.28125 33.59375 26.515625 31.984375 
L 29.59375 31.296875 
Q 39.15625 29.25 43.1875 25.515625 
Q 47.21875 21.78125 47.21875 15.09375 
Q 47.21875 7.46875 41.1875 3.015625 
Q 35.15625 -1.421875 24.609375 -1.421875 
Q 20.21875 -1.421875 15.453125 -0.5625 
Q 10.6875 0.296875 5.421875 2 
L 5.421875 11.28125 
Q 10.40625 8.6875 15.234375 7.390625 
Q 20.0625 6.109375 24.8125 6.109375 
Q 31.15625 6.109375 34.5625 8.28125 
Q 37.984375 10.453125 37.984375 14.40625 
Q 37.984375 18.0625 35.515625 20.015625 
Q 33.0625 21.96875 24.703125 23.78125 
L 21.578125 24.515625 
Q 13.234375 26.265625 9.515625 29.90625 
Q 5.8125 33.546875 5.8125 39.890625 
Q 5.8125 47.609375 11.28125 51.796875 
Q 16.75 56 26.8125 56 
Q 31.78125 56 36.171875 55.265625 
Q 40.578125 54.546875 44.28125 53.078125 
z
" id="DejaVuSans-115"/>
    </defs>
    <g transform="translate(180.010312 28.56)scale(0.12 -0.12)">
     <use xlink:href="#DejaVuSans-84"/>
     <use x="44.083984" xlink:href="#DejaVuSans-111"/>
     <use x="105.265625" xlink:href="#DejaVuSans-116"/>
     <use x="144.474609" xlink:href="#DejaVuSans-97"/>
     <use x="205.753906" xlink:href="#DejaVuSans-108"/>
     <use x="233.537109" xlink:href="#DejaVuSans-32"/>
     <use x="265.324219" xlink:href="#DejaVuSans-82"/>
     <use x="330.306641" xlink:href="#DejaVuSans-101"/>
     <use x="391.830078" xlink:href="#DejaVuSans-119"/>
     <use x="473.617188" xlink:href="#DejaVuSans-97"/>
     <use x="534.896484" xlink:href="#DejaVuSans-114"/>
     <use x="574.259766" xlink:href="#DejaVuSans-100"/>
     <use x="637.736328" xlink:href="#DejaVuSans-115"/>
    </g>
   </g>
  </g>
 </g>
 <defs>
  <clipPath id="p5519c8ee94">
   <rect height="217.44" width="334.8" x="54" y="34.56"/>
  </clipPath>
 </defs>
</svg>
