<?xml version="1.0" encoding="utf-8" standalone="no"?>
<!DOCTYPE svg PUBLIC "-//W3C//DTD SVG 1.1//EN"
  "http://www.w3.org/Graphics/SVG/1.1/DTD/svg11.dtd">
<svg xmlns:xlink="http://www.w3.org/1999/xlink" width="576pt" height="1440pt" viewBox="0 0 576 1440" xmlns="http://www.w3.org/2000/svg" version="1.1">
 <metadata>
  <rdf:RDF xmlns:dc="http://purl.org/dc/elements/1.1/" xmlns:cc="http://creativecommons.org/ns#" xmlns:rdf="http://www.w3.org/1999/02/22-rdf-syntax-ns#">
   <cc:Work>
    <dc:type rdf:resource="http://purl.org/dc/dcmitype/StillImage"/>
    <dc:date>2022-03-26T14:22:34.558728</dc:date>
    <dc:format>image/svg+xml</dc:format>
    <dc:creator>
     <cc:Agent>
      <dc:title>Matplotlib v3.5.1, https://matplotlib.org/</dc:title>
     </cc:Agent>
    </dc:creator>
   </cc:Work>
  </rdf:RDF>
 </metadata>
 <defs>
  <style type="text/css">*{stroke-linejoin: round; stroke-linecap: butt}</style>
 </defs>
 <g id="figure_1">
  <g id="patch_1">
   <path d="M 0 1440 
L 576 1440 
L 576 0 
L 0 0 
L 0 1440 
z
" style="fill: none"/>
  </g>
  <g id="axes_1">
   <g id="patch_2">
    <path d="M 72 1260 
L 518.4 1260 
L 518.4 172.8 
L 72 172.8 
z
" style="fill: #ffffff"/>
   </g>
   <g id="patch_3">
    <path d="M 188.374539 724.856 
L 207.783235 724.856 
L 207.783235 720.829333 
L 188.374539 720.829333 
L 188.374539 724.856 
z
" clip-path="url(#p4938f78fa8)" style="fill: none; stroke: #000000; stroke-linejoin: miter"/>
   </g>
   <g id="patch_4">
    <path d="M 230.646678 828.14 
L 250.055374 828.14 
L 250.055374 824.113333 
L 230.646678 824.113333 
L 230.646678 828.14 
z
" clip-path="url(#p4938f78fa8)" style="fill: none; stroke: #000000; stroke-linejoin: miter"/>
   </g>
   <g id="patch_5">
    <path d="M 214.071652 876.46 
L 233.480348 876.46 
L 233.480348 872.433333 
L 214.071652 872.433333 
L 214.071652 876.46 
z
" clip-path="url(#p4938f78fa8)" style="fill: none; stroke: #000000; stroke-linejoin: miter"/>
   </g>
   <g id="patch_6">
    <path d="M 93.077843 763.713333 
L 112.486539 763.713333 
L 112.486539 759.686667 
L 93.077843 759.686667 
L 93.077843 763.713333 
z
" clip-path="url(#p4938f78fa8)" style="fill: none; stroke: #000000; stroke-linejoin: miter"/>
   </g>
   <g id="patch_7">
    <path d="M 149.82887 803.376 
L 169.237565 803.376 
L 169.237565 799.349333 
L 149.82887 799.349333 
L 149.82887 803.376 
z
" clip-path="url(#p4938f78fa8)" style="fill: none; stroke: #000000; stroke-linejoin: miter"/>
   </g>
   <g id="patch_8">
    <path d="M 214.459826 876.862667 
L 233.868522 876.862667 
L 233.868522 872.836 
L 214.459826 872.836 
L 214.459826 876.862667 
z
" clip-path="url(#p4938f78fa8)" style="fill: none; stroke: #000000; stroke-linejoin: miter"/>
   </g>
   <g id="patch_9">
    <path d="M 121.375722 887.533333 
L 140.784417 887.533333 
L 140.784417 883.506667 
L 121.375722 883.506667 
L 121.375722 887.533333 
z
" clip-path="url(#p4938f78fa8)" style="fill: none; stroke: #000000; stroke-linejoin: miter"/>
   </g>
   <g id="patch_10">
    <path d="M 125.373913 732.104 
L 144.782609 732.104 
L 144.782609 728.077333 
L 125.373913 728.077333 
L 125.373913 732.104 
z
" clip-path="url(#p4938f78fa8)" style="fill: none; stroke: #000000; stroke-linejoin: miter"/>
   </g>
   <g id="patch_11">
    <path d="M 143.889809 695.26 
L 163.298504 695.26 
L 163.298504 691.233333 
L 143.889809 691.233333 
L 143.889809 695.26 
z
" clip-path="url(#p4938f78fa8)" style="fill: none; stroke: #000000; stroke-linejoin: miter"/>
   </g>
   <g id="patch_12">
    <path d="M 234.528417 796.530667 
L 253.937113 796.530667 
L 253.937113 792.504 
L 234.528417 792.504 
L 234.528417 796.530667 
z
" clip-path="url(#p4938f78fa8)" style="fill: none; stroke: #000000; stroke-linejoin: miter"/>
   </g>
   <g id="patch_13">
    <path d="M 138.882365 792.705333 
L 158.291061 792.705333 
L 158.291061 788.678667 
L 138.882365 788.678667 
L 138.882365 792.705333 
z
" clip-path="url(#p4938f78fa8)" style="fill: none; stroke: #000000; stroke-linejoin: miter"/>
   </g>
   <g id="patch_14">
    <path d="M 89.739548 787.873333 
L 109.148243 787.873333 
L 109.148243 783.846667 
L 89.739548 783.846667 
L 89.739548 787.873333 
z
" clip-path="url(#p4938f78fa8)" style="fill: none; stroke: #000000; stroke-linejoin: miter"/>
   </g>
   <g id="patch_15">
    <path d="M 118.464417 910.284 
L 137.873113 910.284 
L 137.873113 906.257333 
L 118.464417 906.257333 
L 118.464417 910.284 
z
" clip-path="url(#p4938f78fa8)" style="fill: none; stroke: #000000; stroke-linejoin: miter"/>
   </g>
   <g id="patch_16">
    <path d="M 179.524174 972.093333 
L 198.93287 972.093333 
L 198.93287 968.066667 
L 179.524174 968.066667 
L 179.524174 972.093333 
z
" clip-path="url(#p4938f78fa8)" style="fill: none; stroke: #000000; stroke-linejoin: miter"/>
   </g>
   <g id="patch_17">
    <path d="M 262.399304 868.809333 
L 281.808 868.809333 
L 281.808 864.782667 
L 262.399304 864.782667 
L 262.399304 868.809333 
z
" clip-path="url(#p4938f78fa8)" style="fill: none; stroke: #000000; stroke-linejoin: miter"/>
   </g>
   <g id="patch_18">
    <path d="M 414.058852 1152.689333 
L 433.467548 1152.689333 
L 433.467548 1148.662667 
L 414.058852 1148.662667 
L 414.058852 1152.689333 
z
" clip-path="url(#p4938f78fa8)" style="fill: none; stroke: #000000; stroke-linejoin: miter"/>
   </g>
   <g id="patch_19">
    <path d="M 408.857322 150.653333 
L 428.266017 150.653333 
L 428.266017 146.626667 
L 408.857322 146.626667 
L 408.857322 150.653333 
z
" clip-path="url(#p4938f78fa8)" style="fill: none; stroke: #000000; stroke-linejoin: miter"/>
   </g>
   <g id="patch_20">
    <path d="M 131.118887 734.52 
L 150.527583 734.52 
L 150.527583 730.493333 
L 131.118887 730.493333 
L 131.118887 734.52 
z
" clip-path="url(#p4938f78fa8)" style="fill: none; stroke: #000000; stroke-linejoin: miter"/>
   </g>
   <g id="patch_21">
    <path d="M 133.020939 932.229333 
L 152.429635 932.229333 
L 152.429635 928.202667 
L 133.020939 928.202667 
L 133.020939 932.229333 
z
" clip-path="url(#p4938f78fa8)" style="fill: none; stroke: #000000; stroke-linejoin: miter"/>
   </g>
   <g id="patch_22">
    <path d="M 76.968626 731.097333 
L 96.377322 731.097333 
L 96.377322 727.070667 
L 76.968626 727.070667 
L 76.968626 731.097333 
z
" clip-path="url(#p4938f78fa8)" style="fill: none; stroke: #000000; stroke-linejoin: miter"/>
   </g>
   <g id="patch_23">
    <path d="M 179.446539 978.133333 
L 198.855235 978.133333 
L 198.855235 974.106667 
L 179.446539 974.106667 
L 179.446539 978.133333 
z
" clip-path="url(#p4938f78fa8)" style="fill: none; stroke: #000000; stroke-linejoin: miter"/>
   </g>
   <g id="patch_24">
    <path d="M 75.5712 724.856 
L 94.979896 724.856 
L 94.979896 720.829333 
L 75.5712 720.829333 
L 75.5712 724.856 
z
" clip-path="url(#p4938f78fa8)" style="fill: none; stroke: #000000; stroke-linejoin: miter"/>
   </g>
   <g id="patch_25">
    <path d="M 247.066435 729.084 
L 266.47513 729.084 
L 266.47513 725.057333 
L 247.066435 725.057333 
L 247.066435 729.084 
z
" clip-path="url(#p4938f78fa8)" style="fill: none; stroke: #000000; stroke-linejoin: miter"/>
   </g>
   <g id="patch_26">
    <path d="M 221.563409 660.026667 
L 240.972104 660.026667 
L 240.972104 656 
L 221.563409 656 
L 221.563409 660.026667 
z
" clip-path="url(#p4938f78fa8)" style="fill: none; stroke: #000000; stroke-linejoin: miter"/>
   </g>
   <g id="patch_27">
    <path d="M 191.363478 640.497333 
L 210.772174 640.497333 
L 210.772174 636.470667 
L 191.363478 636.470667 
L 191.363478 640.497333 
z
" clip-path="url(#p4938f78fa8)" style="fill: none; stroke: #000000; stroke-linejoin: miter"/>
   </g>
   <g id="patch_28">
    <path d="M 97.541843 753.244 
L 116.950539 753.244 
L 116.950539 749.217333 
L 97.541843 749.217333 
L 97.541843 753.244 
z
" clip-path="url(#p4938f78fa8)" style="fill: none; stroke: #000000; stroke-linejoin: miter"/>
   </g>
   <g id="patch_29">
    <path d="M 134.961809 831.16 
L 154.370504 831.16 
L 154.370504 827.133333 
L 134.961809 827.133333 
L 134.961809 831.16 
z
" clip-path="url(#p4938f78fa8)" style="fill: none; stroke: #000000; stroke-linejoin: miter"/>
   </g>
   <g id="patch_30">
    <path d="M 148.353809 987.193333 
L 167.762504 987.193333 
L 167.762504 983.166667 
L 148.353809 983.166667 
L 148.353809 987.193333 
z
" clip-path="url(#p4938f78fa8)" style="fill: none; stroke: #000000; stroke-linejoin: miter"/>
   </g>
   <g id="patch_31">
    <path d="M 167.490783 753.445333 
L 186.899478 753.445333 
L 186.899478 749.418667 
L 167.490783 749.418667 
L 167.490783 753.445333 
z
" clip-path="url(#p4938f78fa8)" style="fill: none; stroke: #000000; stroke-linejoin: miter"/>
   </g>
   <g id="patch_32">
    <path d="M 84.149843 757.270667 
L 103.558539 757.270667 
L 103.558539 753.244 
L 84.149843 753.244 
L 84.149843 757.270667 
z
" clip-path="url(#p4938f78fa8)" style="fill: none; stroke: #000000; stroke-linejoin: miter"/>
   </g>
   <g id="patch_33">
    <path d="M 187.093565 748.009333 
L 206.502261 748.009333 
L 206.502261 743.982667 
L 187.093565 743.982667 
L 187.093565 748.009333 
z
" clip-path="url(#p4938f78fa8)" style="fill: none; stroke: #000000; stroke-linejoin: miter"/>
   </g>
   <g id="patch_34">
    <path d="M 203.823861 946.121333 
L 223.232557 946.121333 
L 223.232557 942.094667 
L 203.823861 942.094667 
L 203.823861 946.121333 
z
" clip-path="url(#p4938f78fa8)" style="fill: none; stroke: #000000; stroke-linejoin: miter"/>
   </g>
   <g id="patch_35">
    <path d="M 105.887583 717.809333 
L 125.296278 717.809333 
L 125.296278 713.782667 
L 105.887583 713.782667 
L 105.887583 717.809333 
z
" clip-path="url(#p4938f78fa8)" style="fill: none; stroke: #000000; stroke-linejoin: miter"/>
   </g>
   <g id="patch_36">
    <path d="M 173.391026 761.096 
L 192.799722 761.096 
L 192.799722 757.069333 
L 173.391026 757.069333 
L 173.391026 761.096 
z
" clip-path="url(#p4938f78fa8)" style="fill: none; stroke: #000000; stroke-linejoin: miter"/>
   </g>
   <g id="patch_37">
    <path d="M 185.152696 744.989333 
L 204.561391 744.989333 
L 204.561391 740.962667 
L 185.152696 740.962667 
L 185.152696 744.989333 
z
" clip-path="url(#p4938f78fa8)" style="fill: none; stroke: #000000; stroke-linejoin: miter"/>
   </g>
   <g id="patch_38">
    <path d="M 158.950957 907.264 
L 178.359652 907.264 
L 178.359652 903.237333 
L 158.950957 903.237333 
L 158.950957 907.264 
z
" clip-path="url(#p4938f78fa8)" style="fill: none; stroke: #000000; stroke-linejoin: miter"/>
   </g>
   <g id="patch_39">
    <path d="M 201.339548 893.976 
L 220.748243 893.976 
L 220.748243 889.949333 
L 201.339548 889.949333 
L 201.339548 893.976 
z
" clip-path="url(#p4938f78fa8)" style="fill: none; stroke: #000000; stroke-linejoin: miter"/>
   </g>
   <g id="patch_40">
    <path d="M 132.361043 1008.937333 
L 151.769739 1008.937333 
L 151.769739 1004.910667 
L 132.361043 1004.910667 
L 132.361043 1008.937333 
z
" clip-path="url(#p4938f78fa8)" style="fill: none; stroke: #000000; stroke-linejoin: miter"/>
   </g>
   <g id="patch_41">
    <path d="M 390.613148 370.509333 
L 410.021843 370.509333 
L 410.021843 366.482667 
L 390.613148 366.482667 
L 390.613148 370.509333 
z
" clip-path="url(#p4938f78fa8)" style="fill: none; stroke: #000000; stroke-linejoin: miter"/>
   </g>
   <g id="patch_42">
    <path d="M 64.314157 638.484 
L 83.722852 638.484 
L 83.722852 634.457333 
L 64.314157 634.457333 
L 64.314157 638.484 
z
" clip-path="url(#p4938f78fa8)" style="fill: none; stroke: #000000; stroke-linejoin: miter"/>
   </g>
   <g id="patch_43">
    <path d="M 273.384626 662.442667 
L 292.793322 662.442667 
L 292.793322 658.416 
L 273.384626 658.416 
L 273.384626 662.442667 
z
" clip-path="url(#p4938f78fa8)" style="fill: none; stroke: #000000; stroke-linejoin: miter"/>
   </g>
   <g id="patch_44">
    <path d="M 258.711652 827.133333 
L 278.120348 827.133333 
L 278.120348 823.106667 
L 258.711652 823.106667 
L 258.711652 827.133333 
z
" clip-path="url(#p4938f78fa8)" style="fill: none; stroke: #000000; stroke-linejoin: miter"/>
   </g>
   <g id="patch_45">
    <path d="M 219.816626 719.822667 
L 239.225322 719.822667 
L 239.225322 715.796 
L 219.816626 715.796 
L 219.816626 719.822667 
z
" clip-path="url(#p4938f78fa8)" style="fill: none; stroke: #000000; stroke-linejoin: miter"/>
   </g>
   <g id="patch_46">
    <path d="M 376.638887 227.16 
L 396.047583 227.16 
L 396.047583 223.133333 
L 376.638887 223.133333 
L 376.638887 227.16 
z
" clip-path="url(#p4938f78fa8)" style="fill: none; stroke: #000000; stroke-linejoin: miter"/>
   </g>
   <g id="patch_47">
    <path d="M 114.427409 873.037333 
L 133.836104 873.037333 
L 133.836104 869.010667 
L 114.427409 869.010667 
L 114.427409 873.037333 
z
" clip-path="url(#p4938f78fa8)" style="fill: none; stroke: #000000; stroke-linejoin: miter"/>
   </g>
   <g id="patch_48">
    <path d="M 131.002435 876.862667 
L 150.41113 876.862667 
L 150.41113 872.836 
L 131.002435 872.836 
L 131.002435 876.862667 
z
" clip-path="url(#p4938f78fa8)" style="fill: none; stroke: #000000; stroke-linejoin: miter"/>
   </g>
   <g id="patch_49">
    <path d="M 140.512696 738.546667 
L 159.921391 738.546667 
L 159.921391 734.52 
L 140.512696 734.52 
L 140.512696 738.546667 
z
" clip-path="url(#p4938f78fa8)" style="fill: none; stroke: #000000; stroke-linejoin: miter"/>
   </g>
   <g id="patch_50">
    <path d="M 292.67687 781.229333 
L 312.085565 781.229333 
L 312.085565 777.202667 
L 292.67687 777.202667 
L 292.67687 781.229333 
z
" clip-path="url(#p4938f78fa8)" style="fill: none; stroke: #000000; stroke-linejoin: miter"/>
   </g>
   <g id="patch_51">
    <path d="M 147.577461 650.966667 
L 166.986157 650.966667 
L 166.986157 646.94 
L 147.577461 646.94 
L 147.577461 650.966667 
z
" clip-path="url(#p4938f78fa8)" style="fill: none; stroke: #000000; stroke-linejoin: miter"/>
   </g>
   <g id="patch_52">
    <path d="M 180.494609 957.597333 
L 199.903304 957.597333 
L 199.903304 953.570667 
L 180.494609 953.570667 
L 180.494609 957.597333 
z
" clip-path="url(#p4938f78fa8)" style="fill: none; stroke: #000000; stroke-linejoin: miter"/>
   </g>
   <g id="patch_53">
    <path d="M 135.971061 745.190667 
L 155.379757 745.190667 
L 155.379757 741.164 
L 135.971061 741.164 
L 135.971061 745.190667 
z
" clip-path="url(#p4938f78fa8)" style="fill: none; stroke: #000000; stroke-linejoin: miter"/>
   </g>
   <g id="patch_54">
    <path d="M 177.660939 822.1 
L 197.069635 822.1 
L 197.069635 818.073333 
L 177.660939 818.073333 
L 177.660939 822.1 
z
" clip-path="url(#p4938f78fa8)" style="fill: none; stroke: #000000; stroke-linejoin: miter"/>
   </g>
   <g id="patch_55">
    <path d="M 158.252243 804.584 
L 177.660939 804.584 
L 177.660939 800.557333 
L 158.252243 800.557333 
L 158.252243 804.584 
z
" clip-path="url(#p4938f78fa8)" style="fill: none; stroke: #000000; stroke-linejoin: miter"/>
   </g>
   <g id="patch_56">
    <path d="M 141.405496 776.8 
L 160.814191 776.8 
L 160.814191 772.773333 
L 141.405496 772.773333 
L 141.405496 776.8 
z
" clip-path="url(#p4938f78fa8)" style="fill: none; stroke: #000000; stroke-linejoin: miter"/>
   </g>
   <g id="patch_57">
    <path d="M 274.044522 817.469333 
L 293.453217 817.469333 
L 293.453217 813.442667 
L 274.044522 813.442667 
L 274.044522 817.469333 
z
" clip-path="url(#p4938f78fa8)" style="fill: none; stroke: #000000; stroke-linejoin: miter"/>
   </g>
   <g id="patch_58">
    <path d="M 141.289043 630.430667 
L 160.697739 630.430667 
L 160.697739 626.404 
L 141.289043 626.404 
L 141.289043 630.430667 
z
" clip-path="url(#p4938f78fa8)" style="fill: none; stroke: #000000; stroke-linejoin: miter"/>
   </g>
   <g id="patch_59">
    <path d="M 241.360278 831.16 
L 260.768974 831.16 
L 260.768974 827.133333 
L 241.360278 827.133333 
L 241.360278 831.16 
z
" clip-path="url(#p4938f78fa8)" style="fill: none; stroke: #000000; stroke-linejoin: miter"/>
   </g>
   <g id="patch_60">
    <path d="M 167.413148 836.596 
L 186.821843 836.596 
L 186.821843 832.569333 
L 167.413148 832.569333 
L 167.413148 836.596 
z
" clip-path="url(#p4938f78fa8)" style="fill: none; stroke: #000000; stroke-linejoin: miter"/>
   </g>
   <g id="patch_61">
    <path d="M 136.12633 962.429333 
L 155.535026 962.429333 
L 155.535026 958.402667 
L 136.12633 958.402667 
L 136.12633 962.429333 
z
" clip-path="url(#p4938f78fa8)" style="fill: none; stroke: #000000; stroke-linejoin: miter"/>
   </g>
   <g id="patch_62">
    <path d="M 202.426435 704.924 
L 221.83513 704.924 
L 221.83513 700.897333 
L 202.426435 700.897333 
L 202.426435 704.924 
z
" clip-path="url(#p4938f78fa8)" style="fill: none; stroke: #000000; stroke-linejoin: miter"/>
   </g>
   <g id="patch_63">
    <path d="M 198.350609 860.957333 
L 217.759304 860.957333 
L 217.759304 856.930667 
L 198.350609 856.930667 
L 198.350609 860.957333 
z
" clip-path="url(#p4938f78fa8)" style="fill: none; stroke: #000000; stroke-linejoin: miter"/>
   </g>
   <g id="patch_64">
    <path d="M 176.30233 928.202667 
L 195.711026 928.202667 
L 195.711026 924.176 
L 176.30233 924.176 
L 176.30233 928.202667 
z
" clip-path="url(#p4938f78fa8)" style="fill: none; stroke: #000000; stroke-linejoin: miter"/>
   </g>
   <g id="patch_65">
    <path d="M 159.727304 776.8 
L 179.136 776.8 
L 179.136 772.773333 
L 159.727304 772.773333 
L 159.727304 776.8 
z
" clip-path="url(#p4938f78fa8)" style="fill: none; stroke: #000000; stroke-linejoin: miter"/>
   </g>
   <g id="patch_66">
    <path d="M 146.529391 782.84 
L 165.938087 782.84 
L 165.938087 778.813333 
L 146.529391 778.813333 
L 146.529391 782.84 
z
" clip-path="url(#p4938f78fa8)" style="fill: none; stroke: #000000; stroke-linejoin: miter"/>
   </g>
   <g id="patch_67">
    <path d="M 145.248417 784.249333 
L 164.657113 784.249333 
L 164.657113 780.222667 
L 145.248417 780.222667 
L 145.248417 784.249333 
z
" clip-path="url(#p4938f78fa8)" style="fill: none; stroke: #000000; stroke-linejoin: miter"/>
   </g>
   <g id="patch_68">
    <path d="M 237.750261 932.833333 
L 257.158957 932.833333 
L 257.158957 928.806667 
L 237.750261 928.806667 
L 237.750261 932.833333 
z
" clip-path="url(#p4938f78fa8)" style="fill: none; stroke: #000000; stroke-linejoin: miter"/>
   </g>
   <g id="patch_69">
    <path d="M 191.868104 643.517333 
L 211.2768 643.517333 
L 211.2768 639.490667 
L 191.868104 639.490667 
L 191.868104 643.517333 
z
" clip-path="url(#p4938f78fa8)" style="fill: none; stroke: #000000; stroke-linejoin: miter"/>
   </g>
   <g id="patch_70">
    <path d="M 415.611548 397.286667 
L 435.020243 397.286667 
L 435.020243 393.26 
L 415.611548 393.26 
L 415.611548 397.286667 
z
" clip-path="url(#p4938f78fa8)" style="fill: none; stroke: #000000; stroke-linejoin: miter"/>
   </g>
   <g id="patch_71">
    <path d="M 151.381565 951.557333 
L 170.790261 951.557333 
L 170.790261 947.530667 
L 151.381565 947.530667 
L 151.381565 951.557333 
z
" clip-path="url(#p4938f78fa8)" style="fill: none; stroke: #000000; stroke-linejoin: miter"/>
   </g>
   <g id="patch_72">
    <path d="M 258.905739 642.510667 
L 278.314435 642.510667 
L 278.314435 638.484 
L 258.905739 638.484 
L 258.905739 642.510667 
z
" clip-path="url(#p4938f78fa8)" style="fill: none; stroke: #000000; stroke-linejoin: miter"/>
   </g>
   <g id="patch_73">
    <path d="M 358.938157 319.169333 
L 378.346852 319.169333 
L 378.346852 315.142667 
L 358.938157 315.142667 
L 358.938157 319.169333 
z
" clip-path="url(#p4938f78fa8)" style="fill: none; stroke: #000000; stroke-linejoin: miter"/>
   </g>
   <g id="patch_74">
    <path d="M 218.535652 834.18 
L 237.944348 834.18 
L 237.944348 830.153333 
L 218.535652 830.153333 
L 218.535652 834.18 
z
" clip-path="url(#p4938f78fa8)" style="fill: none; stroke: #000000; stroke-linejoin: miter"/>
   </g>
   <g id="patch_75">
    <path d="M 234.722504 783.846667 
L 254.1312 783.846667 
L 254.1312 779.82 
L 234.722504 779.82 
L 234.722504 783.846667 
z
" clip-path="url(#p4938f78fa8)" style="fill: none; stroke: #000000; stroke-linejoin: miter"/>
   </g>
   <g id="patch_76">
    <path d="M 257.85767 883.506667 
L 277.266365 883.506667 
L 277.266365 879.48 
L 257.85767 879.48 
L 257.85767 883.506667 
z
" clip-path="url(#p4938f78fa8)" style="fill: none; stroke: #000000; stroke-linejoin: miter"/>
   </g>
   <g id="patch_77">
    <path d="M 160.503652 913.304 
L 179.912348 913.304 
L 179.912348 909.277333 
L 160.503652 909.277333 
L 160.503652 913.304 
z
" clip-path="url(#p4938f78fa8)" style="fill: none; stroke: #000000; stroke-linejoin: miter"/>
   </g>
   <g id="patch_78">
    <path d="M 345.157983 381.784 
L 364.566678 381.784 
L 364.566678 377.757333 
L 345.157983 377.757333 
L 345.157983 381.784 
z
" clip-path="url(#p4938f78fa8)" style="fill: none; stroke: #000000; stroke-linejoin: miter"/>
   </g>
   <g id="patch_79">
    <path d="M 134.107826 742.170667 
L 153.516522 742.170667 
L 153.516522 738.144 
L 134.107826 738.144 
L 134.107826 742.170667 
z
" clip-path="url(#p4938f78fa8)" style="fill: none; stroke: #000000; stroke-linejoin: miter"/>
   </g>
   <g id="patch_80">
    <path d="M 189.11207 989.810667 
L 208.520765 989.810667 
L 208.520765 985.784 
L 189.11207 985.784 
L 189.11207 989.810667 
z
" clip-path="url(#p4938f78fa8)" style="fill: none; stroke: #000000; stroke-linejoin: miter"/>
   </g>
   <g id="patch_81">
    <path d="M 246.096 795.322667 
L 265.504696 795.322667 
L 265.504696 791.296 
L 246.096 791.296 
L 246.096 795.322667 
z
" clip-path="url(#p4938f78fa8)" style="fill: none; stroke: #000000; stroke-linejoin: miter"/>
   </g>
   <g id="patch_82">
    <path d="M 179.912348 849.682667 
L 199.321043 849.682667 
L 199.321043 845.656 
L 179.912348 845.656 
L 179.912348 849.682667 
z
" clip-path="url(#p4938f78fa8)" style="fill: none; stroke: #000000; stroke-linejoin: miter"/>
   </g>
   <g id="patch_83">
    <path d="M 187.481739 708.346667 
L 206.890435 708.346667 
L 206.890435 704.32 
L 187.481739 704.32 
L 187.481739 708.346667 
z
" clip-path="url(#p4938f78fa8)" style="fill: none; stroke: #000000; stroke-linejoin: miter"/>
   </g>
   <g id="patch_84">
    <path d="M 269.852243 790.893333 
L 289.260939 790.893333 
L 289.260939 786.866667 
L 269.852243 786.866667 
L 269.852243 790.893333 
z
" clip-path="url(#p4938f78fa8)" style="fill: none; stroke: #000000; stroke-linejoin: miter"/>
   </g>
   <g id="patch_85">
    <path d="M 374.271026 277.090667 
L 393.679722 277.090667 
L 393.679722 273.064 
L 374.271026 273.064 
L 374.271026 277.090667 
z
" clip-path="url(#p4938f78fa8)" style="fill: none; stroke: #000000; stroke-linejoin: miter"/>
   </g>
   <g id="patch_86">
    <path d="M 253.39367 908.270667 
L 272.802365 908.270667 
L 272.802365 904.244 
L 253.39367 904.244 
L 253.39367 908.270667 
z
" clip-path="url(#p4938f78fa8)" style="fill: none; stroke: #000000; stroke-linejoin: miter"/>
   </g>
   <g id="patch_87">
    <path d="M 176.030609 637.88 
L 195.439304 637.88 
L 195.439304 633.853333 
L 176.030609 633.853333 
L 176.030609 637.88 
z
" clip-path="url(#p4938f78fa8)" style="fill: none; stroke: #000000; stroke-linejoin: miter"/>
   </g>
   <g id="patch_88">
    <path d="M 125.878539 881.493333 
L 145.287235 881.493333 
L 145.287235 877.466667 
L 125.878539 877.466667 
L 125.878539 881.493333 
z
" clip-path="url(#p4938f78fa8)" style="fill: none; stroke: #000000; stroke-linejoin: miter"/>
   </g>
   <g id="patch_89">
    <path d="M 401.28793 258.769333 
L 420.696626 258.769333 
L 420.696626 254.742667 
L 401.28793 254.742667 
L 401.28793 258.769333 
z
" clip-path="url(#p4938f78fa8)" style="fill: none; stroke: #000000; stroke-linejoin: miter"/>
   </g>
   <g id="patch_90">
    <path d="M 99.870887 806.597333 
L 119.279583 806.597333 
L 119.279583 802.570667 
L 99.870887 802.570667 
L 99.870887 806.597333 
z
" clip-path="url(#p4938f78fa8)" style="fill: none; stroke: #000000; stroke-linejoin: miter"/>
   </g>
   <g id="patch_91">
    <path d="M 78.210783 725.057333 
L 97.619478 725.057333 
L 97.619478 721.030667 
L 78.210783 721.030667 
L 78.210783 725.057333 
z
" clip-path="url(#p4938f78fa8)" style="fill: none; stroke: #000000; stroke-linejoin: miter"/>
   </g>
   <g id="patch_92">
    <path d="M 248.03687 945.92 
L 267.445565 945.92 
L 267.445565 941.893333 
L 248.03687 941.893333 
L 248.03687 945.92 
z
" clip-path="url(#p4938f78fa8)" style="fill: none; stroke: #000000; stroke-linejoin: miter"/>
   </g>
   <g id="patch_93">
    <path d="M 117.68807 795.322667 
L 137.096765 795.322667 
L 137.096765 791.296 
L 117.68807 791.296 
L 117.68807 795.322667 
z
" clip-path="url(#p4938f78fa8)" style="fill: none; stroke: #000000; stroke-linejoin: miter"/>
   </g>
   <g id="patch_94">
    <path d="M 152.429635 956.389333 
L 171.83833 956.389333 
L 171.83833 952.362667 
L 152.429635 952.362667 
L 152.429635 956.389333 
z
" clip-path="url(#p4938f78fa8)" style="fill: none; stroke: #000000; stroke-linejoin: miter"/>
   </g>
   <g id="patch_95">
    <path d="M 364.178504 245.884 
L 383.5872 245.884 
L 383.5872 241.857333 
L 364.178504 241.857333 
L 364.178504 245.884 
z
" clip-path="url(#p4938f78fa8)" style="fill: none; stroke: #000000; stroke-linejoin: miter"/>
   </g>
   <g id="patch_96">
    <path d="M 284.408765 845.857333 
L 303.817461 845.857333 
L 303.817461 841.830667 
L 284.408765 841.830667 
L 284.408765 845.857333 
z
" clip-path="url(#p4938f78fa8)" style="fill: none; stroke: #000000; stroke-linejoin: miter"/>
   </g>
   <g id="patch_97">
    <path d="M 179.601809 959.006667 
L 199.010504 959.006667 
L 199.010504 954.98 
L 179.601809 954.98 
L 179.601809 959.006667 
z
" clip-path="url(#p4938f78fa8)" style="fill: none; stroke: #000000; stroke-linejoin: miter"/>
   </g>
   <g id="patch_98">
    <path d="M 157.902887 822.1 
L 177.311583 822.1 
L 177.311583 818.073333 
L 157.902887 818.073333 
L 157.902887 822.1 
z
" clip-path="url(#p4938f78fa8)" style="fill: none; stroke: #000000; stroke-linejoin: miter"/>
   </g>
   <g id="patch_99">
    <path d="M 136.320417 944.309333 
L 155.729113 944.309333 
L 155.729113 940.282667 
L 136.320417 940.282667 
L 136.320417 944.309333 
z
" clip-path="url(#p4938f78fa8)" style="fill: none; stroke: #000000; stroke-linejoin: miter"/>
   </g>
   <g id="patch_100">
    <path d="M 206.96807 851.293333 
L 226.376765 851.293333 
L 226.376765 847.266667 
L 206.96807 847.266667 
L 206.96807 851.293333 
z
" clip-path="url(#p4938f78fa8)" style="fill: none; stroke: #000000; stroke-linejoin: miter"/>
   </g>
   <g id="patch_101">
    <path d="M 222.533843 871.024 
L 241.942539 871.024 
L 241.942539 866.997333 
L 222.533843 866.997333 
L 222.533843 871.024 
z
" clip-path="url(#p4938f78fa8)" style="fill: none; stroke: #000000; stroke-linejoin: miter"/>
   </g>
   <g id="patch_102">
    <path d="M 139.619896 744.184 
L 159.028591 744.184 
L 159.028591 740.157333 
L 139.619896 740.157333 
L 139.619896 744.184 
z
" clip-path="url(#p4938f78fa8)" style="fill: none; stroke: #000000; stroke-linejoin: miter"/>
   </g>
   <g id="patch_103">
    <path d="M 214.149287 615.330667 
L 233.557983 615.330667 
L 233.557983 611.304 
L 214.149287 611.304 
L 214.149287 615.330667 
z
" clip-path="url(#p4938f78fa8)" style="fill: none; stroke: #000000; stroke-linejoin: miter"/>
   </g>
   <g id="patch_104">
    <path d="M 144.122713 908.673333 
L 163.531409 908.673333 
L 163.531409 904.646667 
L 144.122713 904.646667 
L 144.122713 908.673333 
z
" clip-path="url(#p4938f78fa8)" style="fill: none; stroke: #000000; stroke-linejoin: miter"/>
   </g>
   <g id="patch_105">
    <path d="M 255.024 862.366667 
L 274.432696 862.366667 
L 274.432696 858.34 
L 255.024 858.34 
L 255.024 862.366667 
z
" clip-path="url(#p4938f78fa8)" style="fill: none; stroke: #000000; stroke-linejoin: miter"/>
   </g>
   <g id="patch_106">
    <path d="M 221.563409 798.544 
L 240.972104 798.544 
L 240.972104 794.517333 
L 221.563409 794.517333 
L 221.563409 798.544 
z
" clip-path="url(#p4938f78fa8)" style="fill: none; stroke: #000000; stroke-linejoin: miter"/>
   </g>
   <g id="patch_107">
    <path d="M 219.117913 878.070667 
L 238.526609 878.070667 
L 238.526609 874.044 
L 219.117913 874.044 
L 219.117913 878.070667 
z
" clip-path="url(#p4938f78fa8)" style="fill: none; stroke: #000000; stroke-linejoin: miter"/>
   </g>
   <g id="patch_108">
    <path d="M 161.784626 686.602667 
L 181.193322 686.602667 
L 181.193322 682.576 
L 161.784626 682.576 
L 161.784626 686.602667 
z
" clip-path="url(#p4938f78fa8)" style="fill: none; stroke: #000000; stroke-linejoin: miter"/>
   </g>
   <g id="patch_109">
    <path d="M 172.847583 912.096 
L 192.256278 912.096 
L 192.256278 908.069333 
L 172.847583 908.069333 
L 172.847583 912.096 
z
" clip-path="url(#p4938f78fa8)" style="fill: none; stroke: #000000; stroke-linejoin: miter"/>
   </g>
   <g id="patch_110">
    <path d="M 112.370087 715.796 
L 131.778783 715.796 
L 131.778783 711.769333 
L 112.370087 711.769333 
L 112.370087 715.796 
z
" clip-path="url(#p4938f78fa8)" style="fill: none; stroke: #000000; stroke-linejoin: miter"/>
   </g>
   <g id="patch_111">
    <path d="M 165.433461 970.08 
L 184.842157 970.08 
L 184.842157 966.053333 
L 165.433461 966.053333 
L 165.433461 970.08 
z
" clip-path="url(#p4938f78fa8)" style="fill: none; stroke: #000000; stroke-linejoin: miter"/>
   </g>
   <g id="patch_112">
    <path d="M 121.375722 782.84 
L 140.784417 782.84 
L 140.784417 778.813333 
L 121.375722 778.813333 
L 121.375722 782.84 
z
" clip-path="url(#p4938f78fa8)" style="fill: none; stroke: #000000; stroke-linejoin: miter"/>
   </g>
   <g id="patch_113">
    <path d="M 249.473113 813.644 
L 268.881809 813.644 
L 268.881809 809.617333 
L 249.473113 809.617333 
L 249.473113 813.644 
z
" clip-path="url(#p4938f78fa8)" style="fill: none; stroke: #000000; stroke-linejoin: miter"/>
   </g>
   <g id="patch_114">
    <path d="M 100.802504 773.377333 
L 120.2112 773.377333 
L 120.2112 769.350667 
L 100.802504 769.350667 
L 100.802504 773.377333 
z
" clip-path="url(#p4938f78fa8)" style="fill: none; stroke: #000000; stroke-linejoin: miter"/>
   </g>
   <g id="patch_115">
    <path d="M 166.442713 952.564 
L 185.851409 952.564 
L 185.851409 948.537333 
L 166.442713 948.537333 
L 166.442713 952.564 
z
" clip-path="url(#p4938f78fa8)" style="fill: none; stroke: #000000; stroke-linejoin: miter"/>
   </g>
   <g id="patch_116">
    <path d="M 410.021843 334.269333 
L 429.430539 334.269333 
L 429.430539 330.242667 
L 410.021843 330.242667 
L 410.021843 334.269333 
z
" clip-path="url(#p4938f78fa8)" style="fill: none; stroke: #000000; stroke-linejoin: miter"/>
   </g>
   <g id="patch_117">
    <path d="M 235.033043 643.92 
L 254.441739 643.92 
L 254.441739 639.893333 
L 235.033043 639.893333 
L 235.033043 643.92 
z
" clip-path="url(#p4938f78fa8)" style="fill: none; stroke: #000000; stroke-linejoin: miter"/>
   </g>
   <g id="patch_118">
    <path d="M 186.12313 1015.782667 
L 205.531826 1015.782667 
L 205.531826 1011.756 
L 186.12313 1011.756 
L 186.12313 1015.782667 
z
" clip-path="url(#p4938f78fa8)" style="fill: none; stroke: #000000; stroke-linejoin: miter"/>
   </g>
   <g id="patch_119">
    <path d="M 421.628243 1185.104 
L 441.036939 1185.104 
L 441.036939 1181.077333 
L 421.628243 1181.077333 
L 421.628243 1185.104 
z
" clip-path="url(#p4938f78fa8)" style="fill: none; stroke: #000000; stroke-linejoin: miter"/>
   </g>
   <g id="patch_120">
    <path d="M 407.770435 381.582667 
L 427.17913 381.582667 
L 427.17913 377.556 
L 407.770435 377.556 
L 407.770435 381.582667 
z
" clip-path="url(#p4938f78fa8)" style="fill: none; stroke: #000000; stroke-linejoin: miter"/>
   </g>
   <g id="patch_121">
    <path d="M 345.468522 416.413333 
L 364.877217 416.413333 
L 364.877217 412.386667 
L 345.468522 412.386667 
L 345.468522 416.413333 
z
" clip-path="url(#p4938f78fa8)" style="fill: none; stroke: #000000; stroke-linejoin: miter"/>
   </g>
   <g id="patch_122">
    <path d="M 110.118678 822.1 
L 129.527374 822.1 
L 129.527374 818.073333 
L 110.118678 818.073333 
L 110.118678 822.1 
z
" clip-path="url(#p4938f78fa8)" style="fill: none; stroke: #000000; stroke-linejoin: miter"/>
   </g>
   <g id="patch_123">
    <path d="M 189.810783 978.737333 
L 209.219478 978.737333 
L 209.219478 974.710667 
L 189.810783 974.710667 
L 189.810783 978.737333 
z
" clip-path="url(#p4938f78fa8)" style="fill: none; stroke: #000000; stroke-linejoin: miter"/>
   </g>
   <g id="patch_124">
    <path d="M 156.505461 884.513333 
L 175.914157 884.513333 
L 175.914157 880.486667 
L 156.505461 880.486667 
L 156.505461 884.513333 
z
" clip-path="url(#p4938f78fa8)" style="fill: none; stroke: #000000; stroke-linejoin: miter"/>
   </g>
   <g id="patch_125">
    <path d="M 73.086887 747.204 
L 92.495583 747.204 
L 92.495583 743.177333 
L 73.086887 743.177333 
L 73.086887 747.204 
z
" clip-path="url(#p4938f78fa8)" style="fill: none; stroke: #000000; stroke-linejoin: miter"/>
   </g>
   <g id="patch_126">
    <path d="M 213.256487 774.182667 
L 232.665183 774.182667 
L 232.665183 770.156 
L 213.256487 770.156 
L 213.256487 774.182667 
z
" clip-path="url(#p4938f78fa8)" style="fill: none; stroke: #000000; stroke-linejoin: miter"/>
   </g>
   <g id="patch_127">
    <path d="M 157.86407 987.596 
L 177.272765 987.596 
L 177.272765 983.569333 
L 157.86407 983.569333 
L 157.86407 987.596 
z
" clip-path="url(#p4938f78fa8)" style="fill: none; stroke: #000000; stroke-linejoin: miter"/>
   </g>
   <g id="patch_128">
    <path d="M 84.033391 761.096 
L 103.442087 761.096 
L 103.442087 757.069333 
L 84.033391 757.069333 
L 84.033391 761.096 
z
" clip-path="url(#p4938f78fa8)" style="fill: none; stroke: #000000; stroke-linejoin: miter"/>
   </g>
   <g id="patch_129">
    <path d="M 149.945322 935.450667 
L 169.354017 935.450667 
L 169.354017 931.424 
L 149.945322 931.424 
L 149.945322 935.450667 
z
" clip-path="url(#p4938f78fa8)" style="fill: none; stroke: #000000; stroke-linejoin: miter"/>
   </g>
   <g id="patch_130">
    <path d="M 101.578852 885.117333 
L 120.987548 885.117333 
L 120.987548 881.090667 
L 101.578852 881.090667 
L 101.578852 885.117333 
z
" clip-path="url(#p4938f78fa8)" style="fill: none; stroke: #000000; stroke-linejoin: miter"/>
   </g>
   <g id="patch_131">
    <path d="M 145.869496 724.050667 
L 165.278191 724.050667 
L 165.278191 720.024 
L 145.869496 720.024 
L 145.869496 724.050667 
z
" clip-path="url(#p4938f78fa8)" style="fill: none; stroke: #000000; stroke-linejoin: miter"/>
   </g>
   <g id="patch_132">
    <path d="M 171.566609 864.782667 
L 190.975304 864.782667 
L 190.975304 860.756 
L 171.566609 860.756 
L 171.566609 864.782667 
z
" clip-path="url(#p4938f78fa8)" style="fill: none; stroke: #000000; stroke-linejoin: miter"/>
   </g>
   <g id="patch_133">
    <path d="M 322.682713 406.950667 
L 342.091409 406.950667 
L 342.091409 402.924 
L 322.682713 402.924 
L 322.682713 406.950667 
z
" clip-path="url(#p4938f78fa8)" style="fill: none; stroke: #000000; stroke-linejoin: miter"/>
   </g>
   <g id="patch_134">
    <path d="M 243.844591 613.72 
L 263.253287 613.72 
L 263.253287 609.693333 
L 243.844591 609.693333 
L 243.844591 613.72 
z
" clip-path="url(#p4938f78fa8)" style="fill: none; stroke: #000000; stroke-linejoin: miter"/>
   </g>
   <g id="patch_135">
    <path d="M 406.023652 1184.5 
L 425.432348 1184.5 
L 425.432348 1180.473333 
L 406.023652 1180.473333 
L 406.023652 1184.5 
z
" clip-path="url(#p4938f78fa8)" style="fill: none; stroke: #000000; stroke-linejoin: miter"/>
   </g>
   <g id="patch_136">
    <path d="M 202.3488 994.642667 
L 221.757496 994.642667 
L 221.757496 990.616 
L 202.3488 990.616 
L 202.3488 994.642667 
z
" clip-path="url(#p4938f78fa8)" style="fill: none; stroke: #000000; stroke-linejoin: miter"/>
   </g>
   <g id="patch_137">
    <path d="M 137.01913 1087.86 
L 156.427826 1087.86 
L 156.427826 1083.833333 
L 137.01913 1083.833333 
L 137.01913 1087.86 
z
" clip-path="url(#p4938f78fa8)" style="fill: none; stroke: #000000; stroke-linejoin: miter"/>
   </g>
   <g id="patch_138">
    <path d="M 408.352696 400.709333 
L 427.761391 400.709333 
L 427.761391 396.682667 
L 408.352696 396.682667 
L 408.352696 400.709333 
z
" clip-path="url(#p4938f78fa8)" style="fill: none; stroke: #000000; stroke-linejoin: miter"/>
   </g>
   <g id="patch_139">
    <path d="M 159.533217 778.813333 
L 178.941913 778.813333 
L 178.941913 774.786667 
L 159.533217 774.786667 
L 159.533217 778.813333 
z
" clip-path="url(#p4938f78fa8)" style="fill: none; stroke: #000000; stroke-linejoin: miter"/>
   </g>
   <g id="patch_140">
    <path d="M 450.974191 239.844 
L 470.382887 239.844 
L 470.382887 235.817333 
L 450.974191 235.817333 
L 450.974191 239.844 
z
" clip-path="url(#p4938f78fa8)" style="fill: none; stroke: #000000; stroke-linejoin: miter"/>
   </g>
   <g id="patch_141">
    <path d="M 202.115896 816.06 
L 221.524591 816.06 
L 221.524591 812.033333 
L 202.115896 812.033333 
L 202.115896 816.06 
z
" clip-path="url(#p4938f78fa8)" style="fill: none; stroke: #000000; stroke-linejoin: miter"/>
   </g>
   <g id="patch_142">
    <path d="M 181.542678 979.744 
L 200.951374 979.744 
L 200.951374 975.717333 
L 181.542678 975.717333 
L 181.542678 979.744 
z
" clip-path="url(#p4938f78fa8)" style="fill: none; stroke: #000000; stroke-linejoin: miter"/>
   </g>
   <g id="patch_143">
    <path d="M 118.386783 1021.822667 
L 137.795478 1021.822667 
L 137.795478 1017.796 
L 118.386783 1017.796 
L 118.386783 1021.822667 
z
" clip-path="url(#p4938f78fa8)" style="fill: none; stroke: #000000; stroke-linejoin: miter"/>
   </g>
   <g id="patch_144">
    <path d="M 259.177461 882.902667 
L 278.586157 882.902667 
L 278.586157 878.876 
L 259.177461 878.876 
L 259.177461 882.902667 
z
" clip-path="url(#p4938f78fa8)" style="fill: none; stroke: #000000; stroke-linejoin: miter"/>
   </g>
   <g id="patch_145">
    <path d="M 148.082087 725.057333 
L 167.490783 725.057333 
L 167.490783 721.030667 
L 148.082087 721.030667 
L 148.082087 725.057333 
z
" clip-path="url(#p4938f78fa8)" style="fill: none; stroke: #000000; stroke-linejoin: miter"/>
   </g>
   <g id="patch_146">
    <path d="M 208.44313 868.406667 
L 227.851826 868.406667 
L 227.851826 864.38 
L 208.44313 864.38 
L 208.44313 868.406667 
z
" clip-path="url(#p4938f78fa8)" style="fill: none; stroke: #000000; stroke-linejoin: miter"/>
   </g>
   <g id="patch_147">
    <path d="M 165.821635 944.510667 
L 185.23033 944.510667 
L 185.23033 940.484 
L 165.821635 940.484 
L 165.821635 944.510667 
z
" clip-path="url(#p4938f78fa8)" style="fill: none; stroke: #000000; stroke-linejoin: miter"/>
   </g>
   <g id="patch_148">
    <path d="M 232.315826 791.9 
L 251.724522 791.9 
L 251.724522 787.873333 
L 232.315826 787.873333 
L 232.315826 791.9 
z
" clip-path="url(#p4938f78fa8)" style="fill: none; stroke: #000000; stroke-linejoin: miter"/>
   </g>
   <g id="patch_149">
    <path d="M 131.778783 819.684 
L 151.187478 819.684 
L 151.187478 815.657333 
L 131.778783 815.657333 
L 131.778783 819.684 
z
" clip-path="url(#p4938f78fa8)" style="fill: none; stroke: #000000; stroke-linejoin: miter"/>
   </g>
   <g id="patch_150">
    <path d="M 192.217461 836.193333 
L 211.626157 836.193333 
L 211.626157 832.166667 
L 192.217461 832.166667 
L 192.217461 836.193333 
z
" clip-path="url(#p4938f78fa8)" style="fill: none; stroke: #000000; stroke-linejoin: miter"/>
   </g>
   <g id="patch_151">
    <path d="M 195.245217 759.686667 
L 214.653913 759.686667 
L 214.653913 755.66 
L 195.245217 755.66 
L 195.245217 759.686667 
z
" clip-path="url(#p4938f78fa8)" style="fill: none; stroke: #000000; stroke-linejoin: miter"/>
   </g>
   <g id="patch_152">
    <path d="M 248.347409 666.066667 
L 267.756104 666.066667 
L 267.756104 662.04 
L 248.347409 662.04 
L 248.347409 666.066667 
z
" clip-path="url(#p4938f78fa8)" style="fill: none; stroke: #000000; stroke-linejoin: miter"/>
   </g>
   <g id="patch_153">
    <path d="M 150.333496 716.4 
L 169.742191 716.4 
L 169.742191 712.373333 
L 150.333496 712.373333 
L 150.333496 716.4 
z
" clip-path="url(#p4938f78fa8)" style="fill: none; stroke: #000000; stroke-linejoin: miter"/>
   </g>
   <g id="patch_154">
    <path d="M 83.179409 636.873333 
L 102.588104 636.873333 
L 102.588104 632.846667 
L 83.179409 632.846667 
L 83.179409 636.873333 
z
" clip-path="url(#p4938f78fa8)" style="fill: none; stroke: #000000; stroke-linejoin: miter"/>
   </g>
   <g id="patch_155">
    <path d="M 132.826852 812.436 
L 152.235548 812.436 
L 152.235548 808.409333 
L 132.826852 808.409333 
L 132.826852 812.436 
z
" clip-path="url(#p4938f78fa8)" style="fill: none; stroke: #000000; stroke-linejoin: miter"/>
   </g>
   <g id="patch_156">
    <path d="M 255.9168 907.062667 
L 275.325496 907.062667 
L 275.325496 903.036 
L 255.9168 903.036 
L 255.9168 907.062667 
z
" clip-path="url(#p4938f78fa8)" style="fill: none; stroke: #000000; stroke-linejoin: miter"/>
   </g>
   <g id="patch_157">
    <path d="M 171.605426 770.357333 
L 191.014122 770.357333 
L 191.014122 766.330667 
L 171.605426 766.330667 
L 171.605426 770.357333 
z
" clip-path="url(#p4938f78fa8)" style="fill: none; stroke: #000000; stroke-linejoin: miter"/>
   </g>
   <g id="patch_158">
    <path d="M 231.850017 625.8 
L 251.258713 625.8 
L 251.258713 621.773333 
L 231.850017 621.773333 
L 231.850017 625.8 
z
" clip-path="url(#p4938f78fa8)" style="fill: none; stroke: #000000; stroke-linejoin: miter"/>
   </g>
   <g id="patch_159">
    <path d="M 194.934678 797.94 
L 214.343374 797.94 
L 214.343374 793.913333 
L 194.934678 793.913333 
L 194.934678 797.94 
z
" clip-path="url(#p4938f78fa8)" style="fill: none; stroke: #000000; stroke-linejoin: miter"/>
   </g>
   <g id="patch_160">
    <path d="M 385.062261 277.493333 
L 404.470957 277.493333 
L 404.470957 273.466667 
L 385.062261 273.466667 
L 385.062261 277.493333 
z
" clip-path="url(#p4938f78fa8)" style="fill: none; stroke: #000000; stroke-linejoin: miter"/>
   </g>
   <g id="patch_161">
    <path d="M 204.056765 974.710667 
L 223.465461 974.710667 
L 223.465461 970.684 
L 204.056765 970.684 
L 204.056765 974.710667 
z
" clip-path="url(#p4938f78fa8)" style="fill: none; stroke: #000000; stroke-linejoin: miter"/>
   </g>
   <g id="patch_162">
    <path d="M 144.510887 753.244 
L 163.919583 753.244 
L 163.919583 749.217333 
L 144.510887 749.217333 
L 144.510887 753.244 
z
" clip-path="url(#p4938f78fa8)" style="fill: none; stroke: #000000; stroke-linejoin: miter"/>
   </g>
   <g id="patch_163">
    <path d="M 291.589983 794.92 
L 310.998678 794.92 
L 310.998678 790.893333 
L 291.589983 790.893333 
L 291.589983 794.92 
z
" clip-path="url(#p4938f78fa8)" style="fill: none; stroke: #000000; stroke-linejoin: miter"/>
   </g>
   <g id="patch_164">
    <path d="M 142.958191 787.269333 
L 162.366887 787.269333 
L 162.366887 783.242667 
L 142.958191 783.242667 
L 142.958191 787.269333 
z
" clip-path="url(#p4938f78fa8)" style="fill: none; stroke: #000000; stroke-linejoin: miter"/>
   </g>
   <g id="patch_165">
    <path d="M 191.47993 879.882667 
L 210.888626 879.882667 
L 210.888626 875.856 
L 191.47993 875.856 
L 191.47993 879.882667 
z
" clip-path="url(#p4938f78fa8)" style="fill: none; stroke: #000000; stroke-linejoin: miter"/>
   </g>
   <g id="patch_166">
    <path d="M 275.71367 636.873333 
L 295.122365 636.873333 
L 295.122365 632.846667 
L 275.71367 632.846667 
L 275.71367 636.873333 
z
" clip-path="url(#p4938f78fa8)" style="fill: none; stroke: #000000; stroke-linejoin: miter"/>
   </g>
   <g id="patch_167">
    <path d="M 190.703583 772.370667 
L 210.112278 772.370667 
L 210.112278 768.344 
L 190.703583 768.344 
L 190.703583 772.370667 
z
" clip-path="url(#p4938f78fa8)" style="fill: none; stroke: #000000; stroke-linejoin: miter"/>
   </g>
   <g id="patch_168">
    <path d="M 279.28487 670.093333 
L 298.693565 670.093333 
L 298.693565 666.066667 
L 279.28487 666.066667 
L 279.28487 670.093333 
z
" clip-path="url(#p4938f78fa8)" style="fill: none; stroke: #000000; stroke-linejoin: miter"/>
   </g>
   <g id="patch_169">
    <path d="M 132.671583 1016.386667 
L 152.080278 1016.386667 
L 152.080278 1012.36 
L 132.671583 1012.36 
L 132.671583 1016.386667 
z
" clip-path="url(#p4938f78fa8)" style="fill: none; stroke: #000000; stroke-linejoin: miter"/>
   </g>
   <g id="patch_170">
    <path d="M 268.105461 835.589333 
L 287.514157 835.589333 
L 287.514157 831.562667 
L 268.105461 831.562667 
L 268.105461 835.589333 
z
" clip-path="url(#p4938f78fa8)" style="fill: none; stroke: #000000; stroke-linejoin: miter"/>
   </g>
   <g id="patch_171">
    <path d="M 111.904278 1060.277333 
L 131.312974 1060.277333 
L 131.312974 1056.250667 
L 111.904278 1056.250667 
L 111.904278 1060.277333 
z
" clip-path="url(#p4938f78fa8)" style="fill: none; stroke: #000000; stroke-linejoin: miter"/>
   </g>
   <g id="patch_172">
    <path d="M 98.279374 772.773333 
L 117.68807 772.773333 
L 117.68807 768.746667 
L 98.279374 768.746667 
L 98.279374 772.773333 
z
" clip-path="url(#p4938f78fa8)" style="fill: none; stroke: #000000; stroke-linejoin: miter"/>
   </g>
   <g id="patch_173">
    <path d="M 91.680417 793.510667 
L 111.089113 793.510667 
L 111.089113 789.484 
L 91.680417 789.484 
L 91.680417 793.510667 
z
" clip-path="url(#p4938f78fa8)" style="fill: none; stroke: #000000; stroke-linejoin: miter"/>
   </g>
   <g id="patch_174">
    <path d="M 162.133983 682.576 
L 181.542678 682.576 
L 181.542678 678.549333 
L 162.133983 678.549333 
L 162.133983 682.576 
z
" clip-path="url(#p4938f78fa8)" style="fill: none; stroke: #000000; stroke-linejoin: miter"/>
   </g>
   <g id="patch_175">
    <path d="M 165.355826 1002.696 
L 184.764522 1002.696 
L 184.764522 998.669333 
L 165.355826 998.669333 
L 165.355826 1002.696 
z
" clip-path="url(#p4938f78fa8)" style="fill: none; stroke: #000000; stroke-linejoin: miter"/>
   </g>
   <g id="patch_176">
    <path d="M 142.841739 968.469333 
L 162.250435 968.469333 
L 162.250435 964.442667 
L 142.841739 964.442667 
L 142.841739 968.469333 
z
" clip-path="url(#p4938f78fa8)" style="fill: none; stroke: #000000; stroke-linejoin: miter"/>
   </g>
   <g id="patch_177">
    <path d="M 274.044522 832.770667 
L 293.453217 832.770667 
L 293.453217 828.744 
L 274.044522 828.744 
L 274.044522 832.770667 
z
" clip-path="url(#p4938f78fa8)" style="fill: none; stroke: #000000; stroke-linejoin: miter"/>
   </g>
   <g id="patch_178">
    <path d="M 185.929043 830.556 
L 205.337739 830.556 
L 205.337739 826.529333 
L 185.929043 826.529333 
L 185.929043 830.556 
z
" clip-path="url(#p4938f78fa8)" style="fill: none; stroke: #000000; stroke-linejoin: miter"/>
   </g>
   <g id="patch_179">
    <path d="M 151.61447 874.446667 
L 171.023165 874.446667 
L 171.023165 870.42 
L 151.61447 870.42 
L 151.61447 874.446667 
z
" clip-path="url(#p4938f78fa8)" style="fill: none; stroke: #000000; stroke-linejoin: miter"/>
   </g>
   <g id="patch_180">
    <path d="M 81.97607 696.266667 
L 101.384765 696.266667 
L 101.384765 692.24 
L 81.97607 692.24 
L 81.97607 696.266667 
z
" clip-path="url(#p4938f78fa8)" style="fill: none; stroke: #000000; stroke-linejoin: miter"/>
   </g>
   <g id="patch_181">
    <path d="M 154.29287 988.2 
L 173.701565 988.2 
L 173.701565 984.173333 
L 154.29287 984.173333 
L 154.29287 988.2 
z
" clip-path="url(#p4938f78fa8)" style="fill: none; stroke: #000000; stroke-linejoin: miter"/>
   </g>
   <g id="patch_182">
    <path d="M 282.85607 635.866667 
L 302.264765 635.866667 
L 302.264765 631.84 
L 282.85607 631.84 
L 282.85607 635.866667 
z
" clip-path="url(#p4938f78fa8)" style="fill: none; stroke: #000000; stroke-linejoin: miter"/>
   </g>
   <g id="patch_183">
    <path d="M 278.003896 896.996 
L 297.412591 896.996 
L 297.412591 892.969333 
L 278.003896 892.969333 
L 278.003896 896.996 
z
" clip-path="url(#p4938f78fa8)" style="fill: none; stroke: #000000; stroke-linejoin: miter"/>
   </g>
   <g id="patch_184">
    <path d="M 249.783652 626.404 
L 269.192348 626.404 
L 269.192348 622.377333 
L 249.783652 622.377333 
L 249.783652 626.404 
z
" clip-path="url(#p4938f78fa8)" style="fill: none; stroke: #000000; stroke-linejoin: miter"/>
   </g>
   <g id="patch_185">
    <path d="M 135.078261 712.977333 
L 154.486957 712.977333 
L 154.486957 708.950667 
L 135.078261 708.950667 
L 135.078261 712.977333 
z
" clip-path="url(#p4938f78fa8)" style="fill: none; stroke: #000000; stroke-linejoin: miter"/>
   </g>
   <g id="patch_186">
    <path d="M 274.937322 812.637333 
L 294.346017 812.637333 
L 294.346017 808.610667 
L 274.937322 808.610667 
L 274.937322 812.637333 
z
" clip-path="url(#p4938f78fa8)" style="fill: none; stroke: #000000; stroke-linejoin: miter"/>
   </g>
   <g id="patch_187">
    <path d="M 156.156104 858.944 
L 175.5648 858.944 
L 175.5648 854.917333 
L 156.156104 854.917333 
L 156.156104 858.944 
z
" clip-path="url(#p4938f78fa8)" style="fill: none; stroke: #000000; stroke-linejoin: miter"/>
   </g>
   <g id="patch_188">
    <path d="M 266.203409 856.729333 
L 285.612104 856.729333 
L 285.612104 852.702667 
L 266.203409 852.702667 
L 266.203409 856.729333 
z
" clip-path="url(#p4938f78fa8)" style="fill: none; stroke: #000000; stroke-linejoin: miter"/>
   </g>
   <g id="patch_189">
    <path d="M 118.774957 875.856 
L 138.183652 875.856 
L 138.183652 871.829333 
L 118.774957 871.829333 
L 118.774957 875.856 
z
" clip-path="url(#p4938f78fa8)" style="fill: none; stroke: #000000; stroke-linejoin: miter"/>
   </g>
   <g id="patch_190">
    <path d="M 170.013913 978.536 
L 189.422609 978.536 
L 189.422609 974.509333 
L 170.013913 974.509333 
L 170.013913 978.536 
z
" clip-path="url(#p4938f78fa8)" style="fill: none; stroke: #000000; stroke-linejoin: miter"/>
   </g>
   <g id="patch_191">
    <path d="M 87.138783 761.297333 
L 106.547478 761.297333 
L 106.547478 757.270667 
L 87.138783 757.270667 
L 87.138783 761.297333 
z
" clip-path="url(#p4938f78fa8)" style="fill: none; stroke: #000000; stroke-linejoin: miter"/>
   </g>
   <g id="patch_192">
    <path d="M 100.453148 665.06 
L 119.861843 665.06 
L 119.861843 661.033333 
L 100.453148 661.033333 
L 100.453148 665.06 
z
" clip-path="url(#p4938f78fa8)" style="fill: none; stroke: #000000; stroke-linejoin: miter"/>
   </g>
   <g id="patch_193">
    <path d="M 461.843061 287.56 
L 481.251757 287.56 
L 481.251757 283.533333 
L 461.843061 283.533333 
L 461.843061 287.56 
z
" clip-path="url(#p4938f78fa8)" style="fill: none; stroke: #000000; stroke-linejoin: miter"/>
   </g>
   <g id="patch_194">
    <path d="M 198.04007 876.862667 
L 217.448765 876.862667 
L 217.448765 872.836 
L 198.04007 872.836 
L 198.04007 876.862667 
z
" clip-path="url(#p4938f78fa8)" style="fill: none; stroke: #000000; stroke-linejoin: miter"/>
   </g>
   <g id="patch_195">
    <path d="M 191.091757 758.076 
L 210.500452 758.076 
L 210.500452 754.049333 
L 191.091757 754.049333 
L 191.091757 758.076 
z
" clip-path="url(#p4938f78fa8)" style="fill: none; stroke: #000000; stroke-linejoin: miter"/>
   </g>
   <g id="patch_196">
    <path d="M 95.989148 736.936 
L 115.397843 736.936 
L 115.397843 732.909333 
L 95.989148 732.909333 
L 95.989148 736.936 
z
" clip-path="url(#p4938f78fa8)" style="fill: none; stroke: #000000; stroke-linejoin: miter"/>
   </g>
   <g id="patch_197">
    <path d="M 202.736974 727.070667 
L 222.14567 727.070667 
L 222.14567 723.044 
L 202.736974 723.044 
L 202.736974 727.070667 
z
" clip-path="url(#p4938f78fa8)" style="fill: none; stroke: #000000; stroke-linejoin: miter"/>
   </g>
   <g id="patch_198">
    <path d="M 95.406887 844.850667 
L 114.815583 844.850667 
L 114.815583 840.824 
L 95.406887 840.824 
L 95.406887 844.850667 
z
" clip-path="url(#p4938f78fa8)" style="fill: none; stroke: #000000; stroke-linejoin: miter"/>
   </g>
   <g id="patch_199">
    <path d="M 198.544696 869.413333 
L 217.953391 869.413333 
L 217.953391 865.386667 
L 198.544696 865.386667 
L 198.544696 869.413333 
z
" clip-path="url(#p4938f78fa8)" style="fill: none; stroke: #000000; stroke-linejoin: miter"/>
   </g>
   <g id="patch_200">
    <path d="M 191.945739 750.626667 
L 211.354435 750.626667 
L 211.354435 746.6 
L 191.945739 746.6 
L 191.945739 750.626667 
z
" clip-path="url(#p4938f78fa8)" style="fill: none; stroke: #000000; stroke-linejoin: miter"/>
   </g>
   <g id="patch_201">
    <path d="M 256.848417 896.593333 
L 276.257113 896.593333 
L 276.257113 892.566667 
L 256.848417 892.566667 
L 256.848417 896.593333 
z
" clip-path="url(#p4938f78fa8)" style="fill: none; stroke: #000000; stroke-linejoin: miter"/>
   </g>
   <g id="patch_202">
    <path d="M 93.4272 747.606667 
L 112.835896 747.606667 
L 112.835896 743.58 
L 93.4272 743.58 
L 93.4272 747.606667 
z
" clip-path="url(#p4938f78fa8)" style="fill: none; stroke: #000000; stroke-linejoin: miter"/>
   </g>
   <g id="patch_203">
    <path d="M 167.257878 889.748 
L 186.666574 889.748 
L 186.666574 885.721333 
L 167.257878 885.721333 
L 167.257878 889.748 
z
" clip-path="url(#p4938f78fa8)" style="fill: none; stroke: #000000; stroke-linejoin: miter"/>
   </g>
   <g id="patch_204">
    <path d="M 167.568417 883.909333 
L 186.977113 883.909333 
L 186.977113 879.882667 
L 167.568417 879.882667 
L 167.568417 883.909333 
z
" clip-path="url(#p4938f78fa8)" style="fill: none; stroke: #000000; stroke-linejoin: miter"/>
   </g>
   <g id="patch_205">
    <path d="M 378.96793 345.946667 
L 398.376626 345.946667 
L 398.376626 341.92 
L 378.96793 341.92 
L 378.96793 345.946667 
z
" clip-path="url(#p4938f78fa8)" style="fill: none; stroke: #000000; stroke-linejoin: miter"/>
   </g>
   <g id="patch_206">
    <path d="M 169.3152 641.906667 
L 188.723896 641.906667 
L 188.723896 637.88 
L 169.3152 637.88 
L 169.3152 641.906667 
z
" clip-path="url(#p4938f78fa8)" style="fill: none; stroke: #000000; stroke-linejoin: miter"/>
   </g>
   <g id="patch_207">
    <path d="M 132.55513 1017.796 
L 151.963826 1017.796 
L 151.963826 1013.769333 
L 132.55513 1013.769333 
L 132.55513 1017.796 
z
" clip-path="url(#p4938f78fa8)" style="fill: none; stroke: #000000; stroke-linejoin: miter"/>
   </g>
   <g id="patch_208">
    <path d="M 75.183026 718.816 
L 94.591722 718.816 
L 94.591722 714.789333 
L 75.183026 714.789333 
L 75.183026 718.816 
z
" clip-path="url(#p4938f78fa8)" style="fill: none; stroke: #000000; stroke-linejoin: miter"/>
   </g>
   <g id="patch_209">
    <path d="M 167.801322 763.310667 
L 187.210017 763.310667 
L 187.210017 759.284 
L 167.801322 759.284 
L 167.801322 763.310667 
z
" clip-path="url(#p4938f78fa8)" style="fill: none; stroke: #000000; stroke-linejoin: miter"/>
   </g>
   <g id="patch_210">
    <path d="M 214.071652 695.26 
L 233.480348 695.26 
L 233.480348 691.233333 
L 214.071652 691.233333 
L 214.071652 695.26 
z
" clip-path="url(#p4938f78fa8)" style="fill: none; stroke: #000000; stroke-linejoin: miter"/>
   </g>
   <g id="patch_211">
    <path d="M 189.539061 692.642667 
L 208.947757 692.642667 
L 208.947757 688.616 
L 189.539061 688.616 
L 189.539061 692.642667 
z
" clip-path="url(#p4938f78fa8)" style="fill: none; stroke: #000000; stroke-linejoin: miter"/>
   </g>
   <g id="patch_212">
    <path d="M 131.08007 766.733333 
L 150.488765 766.733333 
L 150.488765 762.706667 
L 131.08007 762.706667 
L 131.08007 766.733333 
z
" clip-path="url(#p4938f78fa8)" style="fill: none; stroke: #000000; stroke-linejoin: miter"/>
   </g>
   <g id="patch_213">
    <path d="M 237.362087 722.037333 
L 256.770783 722.037333 
L 256.770783 718.010667 
L 237.362087 718.010667 
L 237.362087 722.037333 
z
" clip-path="url(#p4938f78fa8)" style="fill: none; stroke: #000000; stroke-linejoin: miter"/>
   </g>
   <g id="patch_214">
    <path d="M 143.501635 723.044 
L 162.91033 723.044 
L 162.91033 719.017333 
L 143.501635 719.017333 
L 143.501635 723.044 
z
" clip-path="url(#p4938f78fa8)" style="fill: none; stroke: #000000; stroke-linejoin: miter"/>
   </g>
   <g id="patch_215">
    <path d="M 299.081739 613.317333 
L 318.490435 613.317333 
L 318.490435 609.290667 
L 299.081739 609.290667 
L 299.081739 613.317333 
z
" clip-path="url(#p4938f78fa8)" style="fill: none; stroke: #000000; stroke-linejoin: miter"/>
   </g>
   <g id="patch_216">
    <path d="M 92.650852 703.313333 
L 112.059548 703.313333 
L 112.059548 699.286667 
L 92.650852 699.286667 
L 92.650852 703.313333 
z
" clip-path="url(#p4938f78fa8)" style="fill: none; stroke: #000000; stroke-linejoin: miter"/>
   </g>
   <g id="patch_217">
    <path d="M 83.839304 646.336 
L 103.248 646.336 
L 103.248 642.309333 
L 83.839304 642.309333 
L 83.839304 646.336 
z
" clip-path="url(#p4938f78fa8)" style="fill: none; stroke: #000000; stroke-linejoin: miter"/>
   </g>
   <g id="patch_218">
    <path d="M 253.354852 776.397333 
L 272.763548 776.397333 
L 272.763548 772.370667 
L 253.354852 772.370667 
L 253.354852 776.397333 
z
" clip-path="url(#p4938f78fa8)" style="fill: none; stroke: #000000; stroke-linejoin: miter"/>
   </g>
   <g id="patch_219">
    <path d="M 289.8432 882.5 
L 309.251896 882.5 
L 309.251896 878.473333 
L 289.8432 878.473333 
L 289.8432 882.5 
z
" clip-path="url(#p4938f78fa8)" style="fill: none; stroke: #000000; stroke-linejoin: miter"/>
   </g>
   <g id="patch_220">
    <path d="M 414.563478 330.444 
L 433.972174 330.444 
L 433.972174 326.417333 
L 414.563478 326.417333 
L 414.563478 330.444 
z
" clip-path="url(#p4938f78fa8)" style="fill: none; stroke: #000000; stroke-linejoin: miter"/>
   </g>
   <g id="patch_221">
    <path d="M 76.852174 749.418667 
L 96.26087 749.418667 
L 96.26087 745.392 
L 76.852174 745.392 
L 76.852174 749.418667 
z
" clip-path="url(#p4938f78fa8)" style="fill: none; stroke: #000000; stroke-linejoin: miter"/>
   </g>
   <g id="patch_222">
    <path d="M 205.92 842.434667 
L 225.328696 842.434667 
L 225.328696 838.408 
L 205.92 838.408 
L 205.92 842.434667 
z
" clip-path="url(#p4938f78fa8)" style="fill: none; stroke: #000000; stroke-linejoin: miter"/>
   </g>
   <g id="patch_223">
    <path d="M 275.014957 770.76 
L 294.423652 770.76 
L 294.423652 766.733333 
L 275.014957 766.733333 
L 275.014957 770.76 
z
" clip-path="url(#p4938f78fa8)" style="fill: none; stroke: #000000; stroke-linejoin: miter"/>
   </g>
   <g id="patch_224">
    <path d="M 196.409739 909.68 
L 215.818435 909.68 
L 215.818435 905.653333 
L 196.409739 905.653333 
L 196.409739 909.68 
z
" clip-path="url(#p4938f78fa8)" style="fill: none; stroke: #000000; stroke-linejoin: miter"/>
   </g>
   <g id="patch_225">
    <path d="M 175.72007 670.496 
L 195.128765 670.496 
L 195.128765 666.469333 
L 175.72007 666.469333 
L 175.72007 670.496 
z
" clip-path="url(#p4938f78fa8)" style="fill: none; stroke: #000000; stroke-linejoin: miter"/>
   </g>
   <g id="patch_226">
    <path d="M 238.138435 786.262667 
L 257.54713 786.262667 
L 257.54713 782.236 
L 238.138435 782.236 
L 238.138435 786.262667 
z
" clip-path="url(#p4938f78fa8)" style="fill: none; stroke: #000000; stroke-linejoin: miter"/>
   </g>
   <g id="patch_227">
    <path d="M 124.791652 925.182667 
L 144.200348 925.182667 
L 144.200348 921.156 
L 124.791652 921.156 
L 124.791652 925.182667 
z
" clip-path="url(#p4938f78fa8)" style="fill: none; stroke: #000000; stroke-linejoin: miter"/>
   </g>
   <g id="patch_228">
    <path d="M 146.141217 736.533333 
L 165.549913 736.533333 
L 165.549913 732.506667 
L 146.141217 732.506667 
L 146.141217 736.533333 
z
" clip-path="url(#p4938f78fa8)" style="fill: none; stroke: #000000; stroke-linejoin: miter"/>
   </g>
   <g id="patch_229">
    <path d="M 150.294678 894.58 
L 169.703374 894.58 
L 169.703374 890.553333 
L 150.294678 890.553333 
L 150.294678 894.58 
z
" clip-path="url(#p4938f78fa8)" style="fill: none; stroke: #000000; stroke-linejoin: miter"/>
   </g>
   <g id="patch_230">
    <path d="M 206.036452 911.693333 
L 225.445148 911.693333 
L 225.445148 907.666667 
L 206.036452 907.666667 
L 206.036452 911.693333 
z
" clip-path="url(#p4938f78fa8)" style="fill: none; stroke: #000000; stroke-linejoin: miter"/>
   </g>
   <g id="patch_231">
    <path d="M 106.741565 709.756 
L 126.150261 709.756 
L 126.150261 705.729333 
L 106.741565 705.729333 
L 106.741565 709.756 
z
" clip-path="url(#p4938f78fa8)" style="fill: none; stroke: #000000; stroke-linejoin: miter"/>
   </g>
   <g id="patch_232">
    <path d="M 226.027409 921.357333 
L 245.436104 921.357333 
L 245.436104 917.330667 
L 226.027409 917.330667 
L 226.027409 921.357333 
z
" clip-path="url(#p4938f78fa8)" style="fill: none; stroke: #000000; stroke-linejoin: miter"/>
   </g>
   <g id="patch_233">
    <path d="M 121.220452 1024.037333 
L 140.629148 1024.037333 
L 140.629148 1020.010667 
L 121.220452 1020.010667 
L 121.220452 1024.037333 
z
" clip-path="url(#p4938f78fa8)" style="fill: none; stroke: #000000; stroke-linejoin: miter"/>
   </g>
   <g id="patch_234">
    <path d="M 179.330087 804.986667 
L 198.738783 804.986667 
L 198.738783 800.96 
L 179.330087 800.96 
L 179.330087 804.986667 
z
" clip-path="url(#p4938f78fa8)" style="fill: none; stroke: #000000; stroke-linejoin: miter"/>
   </g>
   <g id="patch_235">
    <path d="M 234.916591 765.122667 
L 254.325287 765.122667 
L 254.325287 761.096 
L 234.916591 761.096 
L 234.916591 765.122667 
z
" clip-path="url(#p4938f78fa8)" style="fill: none; stroke: #000000; stroke-linejoin: miter"/>
   </g>
   <g id="patch_236">
    <path d="M 276.257113 909.277333 
L 295.665809 909.277333 
L 295.665809 905.250667 
L 276.257113 905.250667 
L 276.257113 909.277333 
z
" clip-path="url(#p4938f78fa8)" style="fill: none; stroke: #000000; stroke-linejoin: miter"/>
   </g>
   <g id="patch_237">
    <path d="M 292.560417 830.556 
L 311.969113 830.556 
L 311.969113 826.529333 
L 292.560417 826.529333 
L 292.560417 830.556 
z
" clip-path="url(#p4938f78fa8)" style="fill: none; stroke: #000000; stroke-linejoin: miter"/>
   </g>
   <g id="patch_238">
    <path d="M 283.360696 916.726667 
L 302.769391 916.726667 
L 302.769391 912.7 
L 283.360696 912.7 
L 283.360696 916.726667 
z
" clip-path="url(#p4938f78fa8)" style="fill: none; stroke: #000000; stroke-linejoin: miter"/>
   </g>
   <g id="patch_239">
    <path d="M 115.669565 1006.722667 
L 135.078261 1006.722667 
L 135.078261 1002.696 
L 115.669565 1002.696 
L 115.669565 1006.722667 
z
" clip-path="url(#p4938f78fa8)" style="fill: none; stroke: #000000; stroke-linejoin: miter"/>
   </g>
   <g id="patch_240">
    <path d="M 267.833739 879.48 
L 287.242435 879.48 
L 287.242435 875.453333 
L 267.833739 875.453333 
L 267.833739 879.48 
z
" clip-path="url(#p4938f78fa8)" style="fill: none; stroke: #000000; stroke-linejoin: miter"/>
   </g>
   <g id="patch_241">
    <path d="M 120.715826 1034.506667 
L 140.124522 1034.506667 
L 140.124522 1030.48 
L 120.715826 1030.48 
L 120.715826 1034.506667 
z
" clip-path="url(#p4938f78fa8)" style="fill: none; stroke: #000000; stroke-linejoin: miter"/>
   </g>
   <g id="patch_242">
    <path d="M 87.255235 719.42 
L 106.66393 719.42 
L 106.66393 715.393333 
L 87.255235 715.393333 
L 87.255235 719.42 
z
" clip-path="url(#p4938f78fa8)" style="fill: none; stroke: #000000; stroke-linejoin: miter"/>
   </g>
   <g id="patch_243">
    <path d="M 294.423652 626.806667 
L 313.832348 626.806667 
L 313.832348 622.78 
L 294.423652 622.78 
L 294.423652 626.806667 
z
" clip-path="url(#p4938f78fa8)" style="fill: none; stroke: #000000; stroke-linejoin: miter"/>
   </g>
   <g id="patch_244">
    <path d="M 133.797287 661.637333 
L 153.205983 661.637333 
L 153.205983 657.610667 
L 133.797287 657.610667 
L 133.797287 661.637333 
z
" clip-path="url(#p4938f78fa8)" style="fill: none; stroke: #000000; stroke-linejoin: miter"/>
   </g>
   <g id="patch_245">
    <path d="M 112.641809 898.204 
L 132.050504 898.204 
L 132.050504 894.177333 
L 112.641809 894.177333 
L 112.641809 898.204 
z
" clip-path="url(#p4938f78fa8)" style="fill: none; stroke: #000000; stroke-linejoin: miter"/>
   </g>
   <g id="patch_246">
    <path d="M 215.507896 680.764 
L 234.916591 680.764 
L 234.916591 676.737333 
L 215.507896 676.737333 
L 215.507896 680.764 
z
" clip-path="url(#p4938f78fa8)" style="fill: none; stroke: #000000; stroke-linejoin: miter"/>
   </g>
   <g id="patch_247">
    <path d="M 183.6 927.397333 
L 203.008696 927.397333 
L 203.008696 923.370667 
L 183.6 923.370667 
L 183.6 927.397333 
z
" clip-path="url(#p4938f78fa8)" style="fill: none; stroke: #000000; stroke-linejoin: miter"/>
   </g>
   <g id="patch_248">
    <path d="M 174.400278 728.48 
L 193.808974 728.48 
L 193.808974 724.453333 
L 174.400278 724.453333 
L 174.400278 728.48 
z
" clip-path="url(#p4938f78fa8)" style="fill: none; stroke: #000000; stroke-linejoin: miter"/>
   </g>
   <g id="patch_249">
    <path d="M 345.080348 437.150667 
L 364.489043 437.150667 
L 364.489043 433.124 
L 345.080348 433.124 
L 345.080348 437.150667 
z
" clip-path="url(#p4938f78fa8)" style="fill: none; stroke: #000000; stroke-linejoin: miter"/>
   </g>
   <g id="patch_250">
    <path d="M 168.344765 975.113333 
L 187.753461 975.113333 
L 187.753461 971.086667 
L 168.344765 971.086667 
L 168.344765 975.113333 
z
" clip-path="url(#p4938f78fa8)" style="fill: none; stroke: #000000; stroke-linejoin: miter"/>
   </g>
   <g id="patch_251">
    <path d="M 233.402713 727.473333 
L 252.811409 727.473333 
L 252.811409 723.446667 
L 233.402713 723.446667 
L 233.402713 727.473333 
z
" clip-path="url(#p4938f78fa8)" style="fill: none; stroke: #000000; stroke-linejoin: miter"/>
   </g>
   <g id="patch_252">
    <path d="M 118.4256 879.077333 
L 137.834296 879.077333 
L 137.834296 875.050667 
L 118.4256 875.050667 
L 118.4256 879.077333 
z
" clip-path="url(#p4938f78fa8)" style="fill: none; stroke: #000000; stroke-linejoin: miter"/>
   </g>
   <g id="patch_253">
    <path d="M 185.075061 857.736 
L 204.483757 857.736 
L 204.483757 853.709333 
L 185.075061 853.709333 
L 185.075061 857.736 
z
" clip-path="url(#p4938f78fa8)" style="fill: none; stroke: #000000; stroke-linejoin: miter"/>
   </g>
   <g id="patch_254">
    <path d="M 165.433461 669.086667 
L 184.842157 669.086667 
L 184.842157 665.06 
L 165.433461 665.06 
L 165.433461 669.086667 
z
" clip-path="url(#p4938f78fa8)" style="fill: none; stroke: #000000; stroke-linejoin: miter"/>
   </g>
   <g id="patch_255">
    <path d="M 461.027896 431.513333 
L 480.436591 431.513333 
L 480.436591 427.486667 
L 461.027896 427.486667 
L 461.027896 431.513333 
z
" clip-path="url(#p4938f78fa8)" style="fill: none; stroke: #000000; stroke-linejoin: miter"/>
   </g>
   <g id="patch_256">
    <path d="M 234.33433 771.162667 
L 253.743026 771.162667 
L 253.743026 767.136 
L 234.33433 767.136 
L 234.33433 771.162667 
z
" clip-path="url(#p4938f78fa8)" style="fill: none; stroke: #000000; stroke-linejoin: miter"/>
   </g>
   <g id="patch_257">
    <path d="M 270.93913 823.106667 
L 290.347826 823.106667 
L 290.347826 819.08 
L 270.93913 819.08 
L 270.93913 823.106667 
z
" clip-path="url(#p4938f78fa8)" style="fill: none; stroke: #000000; stroke-linejoin: miter"/>
   </g>
   <g id="patch_258">
    <path d="M 95.756243 718.010667 
L 115.164939 718.010667 
L 115.164939 713.984 
L 95.756243 713.984 
L 95.756243 718.010667 
z
" clip-path="url(#p4938f78fa8)" style="fill: none; stroke: #000000; stroke-linejoin: miter"/>
   </g>
   <g id="patch_259">
    <path d="M 127.780591 970.482667 
L 147.189287 970.482667 
L 147.189287 966.456 
L 127.780591 966.456 
L 127.780591 970.482667 
z
" clip-path="url(#p4938f78fa8)" style="fill: none; stroke: #000000; stroke-linejoin: miter"/>
   </g>
   <g id="patch_260">
    <path d="M 147.034017 786.262667 
L 166.442713 786.262667 
L 166.442713 782.236 
L 147.034017 782.236 
L 147.034017 786.262667 
z
" clip-path="url(#p4938f78fa8)" style="fill: none; stroke: #000000; stroke-linejoin: miter"/>
   </g>
   <g id="patch_261">
    <path d="M 184.570435 912.7 
L 203.97913 912.7 
L 203.97913 908.673333 
L 184.570435 908.673333 
L 184.570435 912.7 
z
" clip-path="url(#p4938f78fa8)" style="fill: none; stroke: #000000; stroke-linejoin: miter"/>
   </g>
   <g id="patch_262">
    <path d="M 267.5232 623.786667 
L 286.931896 623.786667 
L 286.931896 619.76 
L 267.5232 619.76 
L 267.5232 623.786667 
z
" clip-path="url(#p4938f78fa8)" style="fill: none; stroke: #000000; stroke-linejoin: miter"/>
   </g>
   <g id="patch_263">
    <path d="M 125.568 744.586667 
L 144.976696 744.586667 
L 144.976696 740.56 
L 125.568 740.56 
L 125.568 744.586667 
z
" clip-path="url(#p4938f78fa8)" style="fill: none; stroke: #000000; stroke-linejoin: miter"/>
   </g>
   <g id="patch_264">
    <path d="M 190.858852 799.550667 
L 210.267548 799.550667 
L 210.267548 795.524 
L 190.858852 795.524 
L 190.858852 799.550667 
z
" clip-path="url(#p4938f78fa8)" style="fill: none; stroke: #000000; stroke-linejoin: miter"/>
   </g>
   <g id="patch_265">
    <path d="M 273.578713 815.657333 
L 292.987409 815.657333 
L 292.987409 811.630667 
L 273.578713 811.630667 
L 273.578713 815.657333 
z
" clip-path="url(#p4938f78fa8)" style="fill: none; stroke: #000000; stroke-linejoin: miter"/>
   </g>
   <g id="patch_266">
    <path d="M 153.594157 944.510667 
L 173.002852 944.510667 
L 173.002852 940.484 
L 153.594157 940.484 
L 153.594157 944.510667 
z
" clip-path="url(#p4938f78fa8)" style="fill: none; stroke: #000000; stroke-linejoin: miter"/>
   </g>
   <g id="patch_267">
    <path d="M 221.83513 873.842667 
L 241.243826 873.842667 
L 241.243826 869.816 
L 221.83513 869.816 
L 221.83513 873.842667 
z
" clip-path="url(#p4938f78fa8)" style="fill: none; stroke: #000000; stroke-linejoin: miter"/>
   </g>
   <g id="patch_268">
    <path d="M 277.072278 903.64 
L 296.480974 903.64 
L 296.480974 899.613333 
L 277.072278 899.613333 
L 277.072278 903.64 
z
" clip-path="url(#p4938f78fa8)" style="fill: none; stroke: #000000; stroke-linejoin: miter"/>
   </g>
   <g id="patch_269">
    <path d="M 151.886191 980.750667 
L 171.294887 980.750667 
L 171.294887 976.724 
L 151.886191 976.724 
L 151.886191 980.750667 
z
" clip-path="url(#p4938f78fa8)" style="fill: none; stroke: #000000; stroke-linejoin: miter"/>
   </g>
   <g id="patch_270">
    <path d="M 407.653983 1175.037333 
L 427.062678 1175.037333 
L 427.062678 1171.010667 
L 407.653983 1171.010667 
L 407.653983 1175.037333 
z
" clip-path="url(#p4938f78fa8)" style="fill: none; stroke: #000000; stroke-linejoin: miter"/>
   </g>
   <g id="patch_271">
    <path d="M 123.549496 962.429333 
L 142.958191 962.429333 
L 142.958191 958.402667 
L 123.549496 958.402667 
L 123.549496 962.429333 
z
" clip-path="url(#p4938f78fa8)" style="fill: none; stroke: #000000; stroke-linejoin: miter"/>
   </g>
   <g id="patch_272">
    <path d="M 146.412939 801.161333 
L 165.821635 801.161333 
L 165.821635 797.134667 
L 146.412939 797.134667 
L 146.412939 801.161333 
z
" clip-path="url(#p4938f78fa8)" style="fill: none; stroke: #000000; stroke-linejoin: miter"/>
   </g>
   <g id="patch_273">
    <path d="M 175.914157 814.449333 
L 195.322852 814.449333 
L 195.322852 810.422667 
L 175.914157 810.422667 
L 175.914157 814.449333 
z
" clip-path="url(#p4938f78fa8)" style="fill: none; stroke: #000000; stroke-linejoin: miter"/>
   </g>
   <g id="patch_274">
    <path d="M 150.682852 697.676 
L 170.091548 697.676 
L 170.091548 693.649333 
L 150.682852 693.649333 
L 150.682852 697.676 
z
" clip-path="url(#p4938f78fa8)" style="fill: none; stroke: #000000; stroke-linejoin: miter"/>
   </g>
   <g id="patch_275">
    <path d="M 177.660939 949.544 
L 197.069635 949.544 
L 197.069635 945.517333 
L 177.660939 945.517333 
L 177.660939 949.544 
z
" clip-path="url(#p4938f78fa8)" style="fill: none; stroke: #000000; stroke-linejoin: miter"/>
   </g>
   <g id="patch_276">
    <path d="M 259.410365 653.986667 
L 278.819061 653.986667 
L 278.819061 649.96 
L 259.410365 649.96 
L 259.410365 653.986667 
z
" clip-path="url(#p4938f78fa8)" style="fill: none; stroke: #000000; stroke-linejoin: miter"/>
   </g>
   <g id="patch_277">
    <path d="M 100.957774 797.94 
L 120.36647 797.94 
L 120.36647 793.913333 
L 100.957774 793.913333 
L 100.957774 797.94 
z
" clip-path="url(#p4938f78fa8)" style="fill: none; stroke: #000000; stroke-linejoin: miter"/>
   </g>
   <g id="patch_278">
    <path d="M 177.389217 677.744 
L 196.797913 677.744 
L 196.797913 673.717333 
L 177.389217 673.717333 
L 177.389217 677.744 
z
" clip-path="url(#p4938f78fa8)" style="fill: none; stroke: #000000; stroke-linejoin: miter"/>
   </g>
   <g id="patch_279">
    <path d="M 242.990609 752.237333 
L 262.399304 752.237333 
L 262.399304 748.210667 
L 242.990609 748.210667 
L 242.990609 752.237333 
z
" clip-path="url(#p4938f78fa8)" style="fill: none; stroke: #000000; stroke-linejoin: miter"/>
   </g>
   <g id="patch_280">
    <path d="M 101.229496 732.506667 
L 120.638191 732.506667 
L 120.638191 728.48 
L 101.229496 728.48 
L 101.229496 732.506667 
z
" clip-path="url(#p4938f78fa8)" style="fill: none; stroke: #000000; stroke-linejoin: miter"/>
   </g>
   <g id="patch_281">
    <path d="M 232.704 929.209333 
L 252.112696 929.209333 
L 252.112696 925.182667 
L 232.704 925.182667 
L 232.704 929.209333 
z
" clip-path="url(#p4938f78fa8)" style="fill: none; stroke: #000000; stroke-linejoin: miter"/>
   </g>
   <g id="patch_282">
    <path d="M 396.9792 358.429333 
L 416.387896 358.429333 
L 416.387896 354.402667 
L 396.9792 354.402667 
L 396.9792 358.429333 
z
" clip-path="url(#p4938f78fa8)" style="fill: none; stroke: #000000; stroke-linejoin: miter"/>
   </g>
   <g id="patch_283">
    <path d="M 113.651061 750.022667 
L 133.059757 750.022667 
L 133.059757 745.996 
L 113.651061 745.996 
L 113.651061 750.022667 
z
" clip-path="url(#p4938f78fa8)" style="fill: none; stroke: #000000; stroke-linejoin: miter"/>
   </g>
   <g id="patch_284">
    <path d="M 116.251826 748.009333 
L 135.660522 748.009333 
L 135.660522 743.982667 
L 116.251826 743.982667 
L 116.251826 748.009333 
z
" clip-path="url(#p4938f78fa8)" style="fill: none; stroke: #000000; stroke-linejoin: miter"/>
   </g>
   <g id="patch_285">
    <path d="M 102.743374 896.190667 
L 122.15207 896.190667 
L 122.15207 892.164 
L 102.743374 892.164 
L 102.743374 896.190667 
z
" clip-path="url(#p4938f78fa8)" style="fill: none; stroke: #000000; stroke-linejoin: miter"/>
   </g>
   <g id="patch_286">
    <path d="M 257.54713 758.68 
L 276.955826 758.68 
L 276.955826 754.653333 
L 257.54713 754.653333 
L 257.54713 758.68 
z
" clip-path="url(#p4938f78fa8)" style="fill: none; stroke: #000000; stroke-linejoin: miter"/>
   </g>
   <g id="patch_287">
    <path d="M 229.520974 613.72 
L 248.92967 613.72 
L 248.92967 609.693333 
L 229.520974 609.693333 
L 229.520974 613.72 
z
" clip-path="url(#p4938f78fa8)" style="fill: none; stroke: #000000; stroke-linejoin: miter"/>
   </g>
   <g id="patch_288">
    <path d="M 171.294887 707.34 
L 190.703583 707.34 
L 190.703583 703.313333 
L 171.294887 703.313333 
L 171.294887 707.34 
z
" clip-path="url(#p4938f78fa8)" style="fill: none; stroke: #000000; stroke-linejoin: miter"/>
   </g>
   <g id="patch_289">
    <path d="M 287.552974 644.524 
L 306.96167 644.524 
L 306.96167 640.497333 
L 287.552974 640.497333 
L 287.552974 644.524 
z
" clip-path="url(#p4938f78fa8)" style="fill: none; stroke: #000000; stroke-linejoin: miter"/>
   </g>
   <g id="patch_290">
    <path d="M 132.826852 751.230667 
L 152.235548 751.230667 
L 152.235548 747.204 
L 132.826852 747.204 
L 132.826852 751.230667 
z
" clip-path="url(#p4938f78fa8)" style="fill: none; stroke: #000000; stroke-linejoin: miter"/>
   </g>
   <g id="patch_291">
    <path d="M 245.2032 928.806667 
L 264.611896 928.806667 
L 264.611896 924.78 
L 245.2032 924.78 
L 245.2032 928.806667 
z
" clip-path="url(#p4938f78fa8)" style="fill: none; stroke: #000000; stroke-linejoin: miter"/>
   </g>
   <g id="matplotlib.axis_1">
    <g id="xtick_1">
     <g id="line2d_1">
      <defs>
       <path id="m1061fe26a3" d="M 0 0 
L 0 3.5 
" style="stroke: #000000; stroke-width: 0.8"/>
      </defs>
      <g>
       <use xlink:href="#m1061fe26a3" x="130.226087" y="1260" style="stroke: #000000; stroke-width: 0.8"/>
      </g>
     </g>
     <g id="text_1">
      <!-- 80 -->
      <g transform="translate(123.863587 1274.598438)scale(0.1 -0.1)">
       <defs>
        <path id="DejaVuSans-38" d="M 2034 2216 
Q 1584 2216 1326 1975 
Q 1069 1734 1069 1313 
Q 1069 891 1326 650 
Q 1584 409 2034 409 
Q 2484 409 2743 651 
Q 3003 894 3003 1313 
Q 3003 1734 2745 1975 
Q 2488 2216 2034 2216 
z
M 1403 2484 
Q 997 2584 770 2862 
Q 544 3141 544 3541 
Q 544 4100 942 4425 
Q 1341 4750 2034 4750 
Q 2731 4750 3128 4425 
Q 3525 4100 3525 3541 
Q 3525 3141 3298 2862 
Q 3072 2584 2669 2484 
Q 3125 2378 3379 2068 
Q 3634 1759 3634 1313 
Q 3634 634 3220 271 
Q 2806 -91 2034 -91 
Q 1263 -91 848 271 
Q 434 634 434 1313 
Q 434 1759 690 2068 
Q 947 2378 1403 2484 
z
M 1172 3481 
Q 1172 3119 1398 2916 
Q 1625 2713 2034 2713 
Q 2441 2713 2670 2916 
Q 2900 3119 2900 3481 
Q 2900 3844 2670 4047 
Q 2441 4250 2034 4250 
Q 1625 4250 1398 4047 
Q 1172 3844 1172 3481 
z
" transform="scale(0.015625)"/>
        <path id="DejaVuSans-30" d="M 2034 4250 
Q 1547 4250 1301 3770 
Q 1056 3291 1056 2328 
Q 1056 1369 1301 889 
Q 1547 409 2034 409 
Q 2525 409 2770 889 
Q 3016 1369 3016 2328 
Q 3016 3291 2770 3770 
Q 2525 4250 2034 4250 
z
M 2034 4750 
Q 2819 4750 3233 4129 
Q 3647 3509 3647 2328 
Q 3647 1150 3233 529 
Q 2819 -91 2034 -91 
Q 1250 -91 836 529 
Q 422 1150 422 2328 
Q 422 3509 836 4129 
Q 1250 4750 2034 4750 
z
" transform="scale(0.015625)"/>
       </defs>
       <use xlink:href="#DejaVuSans-38"/>
       <use xlink:href="#DejaVuSans-30" x="63.623047"/>
      </g>
     </g>
    </g>
    <g id="xtick_2">
     <g id="line2d_2">
      <g>
       <use xlink:href="#m1061fe26a3" x="207.86087" y="1260" style="stroke: #000000; stroke-width: 0.8"/>
      </g>
     </g>
     <g id="text_2">
      <!-- 100 -->
      <g transform="translate(198.31712 1274.598438)scale(0.1 -0.1)">
       <defs>
        <path id="DejaVuSans-31" d="M 794 531 
L 1825 531 
L 1825 4091 
L 703 3866 
L 703 4441 
L 1819 4666 
L 2450 4666 
L 2450 531 
L 3481 531 
L 3481 0 
L 794 0 
L 794 531 
z
" transform="scale(0.015625)"/>
       </defs>
       <use xlink:href="#DejaVuSans-31"/>
       <use xlink:href="#DejaVuSans-30" x="63.623047"/>
       <use xlink:href="#DejaVuSans-30" x="127.246094"/>
      </g>
     </g>
    </g>
    <g id="xtick_3">
     <g id="line2d_3">
      <g>
       <use xlink:href="#m1061fe26a3" x="285.495652" y="1260" style="stroke: #000000; stroke-width: 0.8"/>
      </g>
     </g>
     <g id="text_3">
      <!-- 120 -->
      <g transform="translate(275.951902 1274.598438)scale(0.1 -0.1)">
       <defs>
        <path id="DejaVuSans-32" d="M 1228 531 
L 3431 531 
L 3431 0 
L 469 0 
L 469 531 
Q 828 903 1448 1529 
Q 2069 2156 2228 2338 
Q 2531 2678 2651 2914 
Q 2772 3150 2772 3378 
Q 2772 3750 2511 3984 
Q 2250 4219 1831 4219 
Q 1534 4219 1204 4116 
Q 875 4013 500 3803 
L 500 4441 
Q 881 4594 1212 4672 
Q 1544 4750 1819 4750 
Q 2544 4750 2975 4387 
Q 3406 4025 3406 3419 
Q 3406 3131 3298 2873 
Q 3191 2616 2906 2266 
Q 2828 2175 2409 1742 
Q 1991 1309 1228 531 
z
" transform="scale(0.015625)"/>
       </defs>
       <use xlink:href="#DejaVuSans-31"/>
       <use xlink:href="#DejaVuSans-32" x="63.623047"/>
       <use xlink:href="#DejaVuSans-30" x="127.246094"/>
      </g>
     </g>
    </g>
    <g id="xtick_4">
     <g id="line2d_4">
      <g>
       <use xlink:href="#m1061fe26a3" x="363.130435" y="1260" style="stroke: #000000; stroke-width: 0.8"/>
      </g>
     </g>
     <g id="text_4">
      <!-- 140 -->
      <g transform="translate(353.586685 1274.598438)scale(0.1 -0.1)">
       <defs>
        <path id="DejaVuSans-34" d="M 2419 4116 
L 825 1625 
L 2419 1625 
L 2419 4116 
z
M 2253 4666 
L 3047 4666 
L 3047 1625 
L 3713 1625 
L 3713 1100 
L 3047 1100 
L 3047 0 
L 2419 0 
L 2419 1100 
L 313 1100 
L 313 1709 
L 2253 4666 
z
" transform="scale(0.015625)"/>
       </defs>
       <use xlink:href="#DejaVuSans-31"/>
       <use xlink:href="#DejaVuSans-34" x="63.623047"/>
       <use xlink:href="#DejaVuSans-30" x="127.246094"/>
      </g>
     </g>
    </g>
    <g id="xtick_5">
     <g id="line2d_5">
      <g>
       <use xlink:href="#m1061fe26a3" x="440.765217" y="1260" style="stroke: #000000; stroke-width: 0.8"/>
      </g>
     </g>
     <g id="text_5">
      <!-- 160 -->
      <g transform="translate(431.221467 1274.598438)scale(0.1 -0.1)">
       <defs>
        <path id="DejaVuSans-36" d="M 2113 2584 
Q 1688 2584 1439 2293 
Q 1191 2003 1191 1497 
Q 1191 994 1439 701 
Q 1688 409 2113 409 
Q 2538 409 2786 701 
Q 3034 994 3034 1497 
Q 3034 2003 2786 2293 
Q 2538 2584 2113 2584 
z
M 3366 4563 
L 3366 3988 
Q 3128 4100 2886 4159 
Q 2644 4219 2406 4219 
Q 1781 4219 1451 3797 
Q 1122 3375 1075 2522 
Q 1259 2794 1537 2939 
Q 1816 3084 2150 3084 
Q 2853 3084 3261 2657 
Q 3669 2231 3669 1497 
Q 3669 778 3244 343 
Q 2819 -91 2113 -91 
Q 1303 -91 875 529 
Q 447 1150 447 2328 
Q 447 3434 972 4092 
Q 1497 4750 2381 4750 
Q 2619 4750 2861 4703 
Q 3103 4656 3366 4563 
z
" transform="scale(0.015625)"/>
       </defs>
       <use xlink:href="#DejaVuSans-31"/>
       <use xlink:href="#DejaVuSans-36" x="63.623047"/>
       <use xlink:href="#DejaVuSans-30" x="127.246094"/>
      </g>
     </g>
    </g>
    <g id="xtick_6">
     <g id="line2d_6">
      <g>
       <use xlink:href="#m1061fe26a3" x="518.4" y="1260" style="stroke: #000000; stroke-width: 0.8"/>
      </g>
     </g>
     <g id="text_6">
      <!-- 180 -->
      <g transform="translate(508.85625 1274.598438)scale(0.1 -0.1)">
       <use xlink:href="#DejaVuSans-31"/>
       <use xlink:href="#DejaVuSans-38" x="63.623047"/>
       <use xlink:href="#DejaVuSans-30" x="127.246094"/>
      </g>
     </g>
    </g>
   </g>
   <g id="matplotlib.axis_2">
    <g id="ytick_1">
     <g id="line2d_7">
      <defs>
       <path id="m0023922123" d="M 0 0 
L -3.5 0 
" style="stroke: #000000; stroke-width: 0.8"/>
      </defs>
      <g>
       <use xlink:href="#m0023922123" x="72" y="1179.466667" style="stroke: #000000; stroke-width: 0.8"/>
      </g>
     </g>
     <g id="text_7">
      <!-- 20 -->
      <g transform="translate(52.275 1183.265885)scale(0.1 -0.1)">
       <use xlink:href="#DejaVuSans-32"/>
       <use xlink:href="#DejaVuSans-30" x="63.623047"/>
      </g>
     </g>
    </g>
    <g id="ytick_2">
     <g id="line2d_8">
      <g>
       <use xlink:href="#m0023922123" x="72" y="978.133333" style="stroke: #000000; stroke-width: 0.8"/>
      </g>
     </g>
     <g id="text_8">
      <!-- 30 -->
      <g transform="translate(52.275 981.932552)scale(0.1 -0.1)">
       <defs>
        <path id="DejaVuSans-33" d="M 2597 2516 
Q 3050 2419 3304 2112 
Q 3559 1806 3559 1356 
Q 3559 666 3084 287 
Q 2609 -91 1734 -91 
Q 1441 -91 1130 -33 
Q 819 25 488 141 
L 488 750 
Q 750 597 1062 519 
Q 1375 441 1716 441 
Q 2309 441 2620 675 
Q 2931 909 2931 1356 
Q 2931 1769 2642 2001 
Q 2353 2234 1838 2234 
L 1294 2234 
L 1294 2753 
L 1863 2753 
Q 2328 2753 2575 2939 
Q 2822 3125 2822 3475 
Q 2822 3834 2567 4026 
Q 2313 4219 1838 4219 
Q 1578 4219 1281 4162 
Q 984 4106 628 3988 
L 628 4550 
Q 988 4650 1302 4700 
Q 1616 4750 1894 4750 
Q 2613 4750 3031 4423 
Q 3450 4097 3450 3541 
Q 3450 3153 3228 2886 
Q 3006 2619 2597 2516 
z
" transform="scale(0.015625)"/>
       </defs>
       <use xlink:href="#DejaVuSans-33"/>
       <use xlink:href="#DejaVuSans-30" x="63.623047"/>
      </g>
     </g>
    </g>
    <g id="ytick_3">
     <g id="line2d_9">
      <g>
       <use xlink:href="#m0023922123" x="72" y="776.8" style="stroke: #000000; stroke-width: 0.8"/>
      </g>
     </g>
     <g id="text_9">
      <!-- 40 -->
      <g transform="translate(52.275 780.599219)scale(0.1 -0.1)">
       <use xlink:href="#DejaVuSans-34"/>
       <use xlink:href="#DejaVuSans-30" x="63.623047"/>
      </g>
     </g>
    </g>
    <g id="ytick_4">
     <g id="line2d_10">
      <g>
       <use xlink:href="#m0023922123" x="72" y="575.466667" style="stroke: #000000; stroke-width: 0.8"/>
      </g>
     </g>
     <g id="text_10">
      <!-- 50 -->
      <g transform="translate(52.275 579.265885)scale(0.1 -0.1)">
       <defs>
        <path id="DejaVuSans-35" d="M 691 4666 
L 3169 4666 
L 3169 4134 
L 1269 4134 
L 1269 2991 
Q 1406 3038 1543 3061 
Q 1681 3084 1819 3084 
Q 2600 3084 3056 2656 
Q 3513 2228 3513 1497 
Q 3513 744 3044 326 
Q 2575 -91 1722 -91 
Q 1428 -91 1123 -41 
Q 819 9 494 109 
L 494 744 
Q 775 591 1075 516 
Q 1375 441 1709 441 
Q 2250 441 2565 725 
Q 2881 1009 2881 1497 
Q 2881 1984 2565 2268 
Q 2250 2553 1709 2553 
Q 1456 2553 1204 2497 
Q 953 2441 691 2322 
L 691 4666 
z
" transform="scale(0.015625)"/>
       </defs>
       <use xlink:href="#DejaVuSans-35"/>
       <use xlink:href="#DejaVuSans-30" x="63.623047"/>
      </g>
     </g>
    </g>
    <g id="ytick_5">
     <g id="line2d_11">
      <g>
       <use xlink:href="#m0023922123" x="72" y="374.133333" style="stroke: #000000; stroke-width: 0.8"/>
      </g>
     </g>
     <g id="text_11">
      <!-- 60 -->
      <g transform="translate(52.275 377.932552)scale(0.1 -0.1)">
       <use xlink:href="#DejaVuSans-36"/>
       <use xlink:href="#DejaVuSans-30" x="63.623047"/>
      </g>
     </g>
    </g>
    <g id="ytick_6">
     <g id="line2d_12">
      <g>
       <use xlink:href="#m0023922123" x="72" y="172.8" style="stroke: #000000; stroke-width: 0.8"/>
      </g>
     </g>
     <g id="text_12">
      <!-- 70 -->
      <g transform="translate(52.275 176.599219)scale(0.1 -0.1)">
       <defs>
        <path id="DejaVuSans-37" d="M 525 4666 
L 3525 4666 
L 3525 4397 
L 1831 0 
L 1172 0 
L 2766 4134 
L 525 4134 
L 525 4666 
z
" transform="scale(0.015625)"/>
       </defs>
       <use xlink:href="#DejaVuSans-37"/>
       <use xlink:href="#DejaVuSans-30" x="63.623047"/>
      </g>
     </g>
    </g>
   </g>
   <g id="patch_292">
    <path d="M 72 1260 
L 72 172.8 
" style="fill: none; stroke: #000000; stroke-width: 0.8; stroke-linejoin: miter; stroke-linecap: square"/>
   </g>
   <g id="patch_293">
    <path d="M 518.4 1260 
L 518.4 172.8 
" style="fill: none; stroke: #000000; stroke-width: 0.8; stroke-linejoin: miter; stroke-linecap: square"/>
   </g>
   <g id="patch_294">
    <path d="M 72 1260 
L 518.4 1260 
" style="fill: none; stroke: #000000; stroke-width: 0.8; stroke-linejoin: miter; stroke-linecap: square"/>
   </g>
   <g id="patch_295">
    <path d="M 72 172.8 
L 518.4 172.8 
" style="fill: none; stroke: #000000; stroke-width: 0.8; stroke-linejoin: miter; stroke-linecap: square"/>
   </g>
  </g>
 </g>
 <defs>
  <clipPath id="p4938f78fa8">
   <rect x="72" y="172.8" width="446.4" height="1087.2"/>
  </clipPath>
 </defs>
</svg>
