<?xml version="1.0" encoding="utf-8" standalone="no"?>
<!DOCTYPE svg PUBLIC "-//W3C//DTD SVG 1.1//EN"
  "http://www.w3.org/Graphics/SVG/1.1/DTD/svg11.dtd">
<svg xmlns:xlink="http://www.w3.org/1999/xlink" width="1152pt" height="648pt" viewBox="0 0 1152 648" xmlns="http://www.w3.org/2000/svg" version="1.1">
 <metadata>
  <rdf:RDF xmlns:dc="http://purl.org/dc/elements/1.1/" xmlns:cc="http://creativecommons.org/ns#" xmlns:rdf="http://www.w3.org/1999/02/22-rdf-syntax-ns#">
   <cc:Work>
    <dc:type rdf:resource="http://purl.org/dc/dcmitype/StillImage"/>
    <dc:date>2022-05-05T14:05:11.471450</dc:date>
    <dc:format>image/svg+xml</dc:format>
    <dc:creator>
     <cc:Agent>
      <dc:title>Matplotlib v3.5.1, https://matplotlib.org/</dc:title>
     </cc:Agent>
    </dc:creator>
   </cc:Work>
  </rdf:RDF>
 </metadata>
 <defs>
  <style type="text/css">*{stroke-linejoin: round; stroke-linecap: butt}</style>
 </defs>
 <g id="figure_1">
  <g id="patch_1">
   <path d="M 0 648 
L 1152 648 
L 1152 0 
L 0 0 
L 0 648 
z
" style="fill: none"/>
  </g>
  <g id="axes_1">
   <g id="patch_2">
    <path d="M 144 567 
L 1036.8 567 
L 1036.8 77.76 
L 144 77.76 
z
" style="fill: #ffffff"/>
   </g>
   <g id="matplotlib.axis_1">
    <g id="xtick_1">
     <g id="line2d_1">
      <defs>
       <path id="m0c32c62efa" d="M 0 0 
L 0 3.5 
" style="stroke: #000000; stroke-width: 0.8"/>
      </defs>
      <g>
       <use xlink:href="#m0c32c62efa" x="265.745455" y="567" style="stroke: #000000; stroke-width: 0.8"/>
      </g>
     </g>
     <g id="text_1">
      <!-- 200 -->
      <g transform="translate(256.201705 581.598438)scale(0.1 -0.1)">
       <defs>
        <path id="DejaVuSans-32" d="M 1228 531 
L 3431 531 
L 3431 0 
L 469 0 
L 469 531 
Q 828 903 1448 1529 
Q 2069 2156 2228 2338 
Q 2531 2678 2651 2914 
Q 2772 3150 2772 3378 
Q 2772 3750 2511 3984 
Q 2250 4219 1831 4219 
Q 1534 4219 1204 4116 
Q 875 4013 500 3803 
L 500 4441 
Q 881 4594 1212 4672 
Q 1544 4750 1819 4750 
Q 2544 4750 2975 4387 
Q 3406 4025 3406 3419 
Q 3406 3131 3298 2873 
Q 3191 2616 2906 2266 
Q 2828 2175 2409 1742 
Q 1991 1309 1228 531 
z
" transform="scale(0.015625)"/>
        <path id="DejaVuSans-30" d="M 2034 4250 
Q 1547 4250 1301 3770 
Q 1056 3291 1056 2328 
Q 1056 1369 1301 889 
Q 1547 409 2034 409 
Q 2525 409 2770 889 
Q 3016 1369 3016 2328 
Q 3016 3291 2770 3770 
Q 2525 4250 2034 4250 
z
M 2034 4750 
Q 2819 4750 3233 4129 
Q 3647 3509 3647 2328 
Q 3647 1150 3233 529 
Q 2819 -91 2034 -91 
Q 1250 -91 836 529 
Q 422 1150 422 2328 
Q 422 3509 836 4129 
Q 1250 4750 2034 4750 
z
" transform="scale(0.015625)"/>
       </defs>
       <use xlink:href="#DejaVuSans-32"/>
       <use xlink:href="#DejaVuSans-30" x="63.623047"/>
       <use xlink:href="#DejaVuSans-30" x="127.246094"/>
      </g>
     </g>
    </g>
    <g id="xtick_2">
     <g id="line2d_2">
      <g>
       <use xlink:href="#m0c32c62efa" x="428.072727" y="567" style="stroke: #000000; stroke-width: 0.8"/>
      </g>
     </g>
     <g id="text_2">
      <!-- 400 -->
      <g transform="translate(418.528977 581.598438)scale(0.1 -0.1)">
       <defs>
        <path id="DejaVuSans-34" d="M 2419 4116 
L 825 1625 
L 2419 1625 
L 2419 4116 
z
M 2253 4666 
L 3047 4666 
L 3047 1625 
L 3713 1625 
L 3713 1100 
L 3047 1100 
L 3047 0 
L 2419 0 
L 2419 1100 
L 313 1100 
L 313 1709 
L 2253 4666 
z
" transform="scale(0.015625)"/>
       </defs>
       <use xlink:href="#DejaVuSans-34"/>
       <use xlink:href="#DejaVuSans-30" x="63.623047"/>
       <use xlink:href="#DejaVuSans-30" x="127.246094"/>
      </g>
     </g>
    </g>
    <g id="xtick_3">
     <g id="line2d_3">
      <g>
       <use xlink:href="#m0c32c62efa" x="590.4" y="567" style="stroke: #000000; stroke-width: 0.8"/>
      </g>
     </g>
     <g id="text_3">
      <!-- 600 -->
      <g transform="translate(580.85625 581.598438)scale(0.1 -0.1)">
       <defs>
        <path id="DejaVuSans-36" d="M 2113 2584 
Q 1688 2584 1439 2293 
Q 1191 2003 1191 1497 
Q 1191 994 1439 701 
Q 1688 409 2113 409 
Q 2538 409 2786 701 
Q 3034 994 3034 1497 
Q 3034 2003 2786 2293 
Q 2538 2584 2113 2584 
z
M 3366 4563 
L 3366 3988 
Q 3128 4100 2886 4159 
Q 2644 4219 2406 4219 
Q 1781 4219 1451 3797 
Q 1122 3375 1075 2522 
Q 1259 2794 1537 2939 
Q 1816 3084 2150 3084 
Q 2853 3084 3261 2657 
Q 3669 2231 3669 1497 
Q 3669 778 3244 343 
Q 2819 -91 2113 -91 
Q 1303 -91 875 529 
Q 447 1150 447 2328 
Q 447 3434 972 4092 
Q 1497 4750 2381 4750 
Q 2619 4750 2861 4703 
Q 3103 4656 3366 4563 
z
" transform="scale(0.015625)"/>
       </defs>
       <use xlink:href="#DejaVuSans-36"/>
       <use xlink:href="#DejaVuSans-30" x="63.623047"/>
       <use xlink:href="#DejaVuSans-30" x="127.246094"/>
      </g>
     </g>
    </g>
    <g id="xtick_4">
     <g id="line2d_4">
      <g>
       <use xlink:href="#m0c32c62efa" x="752.727273" y="567" style="stroke: #000000; stroke-width: 0.8"/>
      </g>
     </g>
     <g id="text_4">
      <!-- 800 -->
      <g transform="translate(743.183523 581.598438)scale(0.1 -0.1)">
       <defs>
        <path id="DejaVuSans-38" d="M 2034 2216 
Q 1584 2216 1326 1975 
Q 1069 1734 1069 1313 
Q 1069 891 1326 650 
Q 1584 409 2034 409 
Q 2484 409 2743 651 
Q 3003 894 3003 1313 
Q 3003 1734 2745 1975 
Q 2488 2216 2034 2216 
z
M 1403 2484 
Q 997 2584 770 2862 
Q 544 3141 544 3541 
Q 544 4100 942 4425 
Q 1341 4750 2034 4750 
Q 2731 4750 3128 4425 
Q 3525 4100 3525 3541 
Q 3525 3141 3298 2862 
Q 3072 2584 2669 2484 
Q 3125 2378 3379 2068 
Q 3634 1759 3634 1313 
Q 3634 634 3220 271 
Q 2806 -91 2034 -91 
Q 1263 -91 848 271 
Q 434 634 434 1313 
Q 434 1759 690 2068 
Q 947 2378 1403 2484 
z
M 1172 3481 
Q 1172 3119 1398 2916 
Q 1625 2713 2034 2713 
Q 2441 2713 2670 2916 
Q 2900 3119 2900 3481 
Q 2900 3844 2670 4047 
Q 2441 4250 2034 4250 
Q 1625 4250 1398 4047 
Q 1172 3844 1172 3481 
z
" transform="scale(0.015625)"/>
       </defs>
       <use xlink:href="#DejaVuSans-38"/>
       <use xlink:href="#DejaVuSans-30" x="63.623047"/>
       <use xlink:href="#DejaVuSans-30" x="127.246094"/>
      </g>
     </g>
    </g>
    <g id="xtick_5">
     <g id="line2d_5">
      <g>
       <use xlink:href="#m0c32c62efa" x="915.054545" y="567" style="stroke: #000000; stroke-width: 0.8"/>
      </g>
     </g>
     <g id="text_5">
      <!-- 1000 -->
      <g transform="translate(902.329545 581.598438)scale(0.1 -0.1)">
       <defs>
        <path id="DejaVuSans-31" d="M 794 531 
L 1825 531 
L 1825 4091 
L 703 3866 
L 703 4441 
L 1819 4666 
L 2450 4666 
L 2450 531 
L 3481 531 
L 3481 0 
L 794 0 
L 794 531 
z
" transform="scale(0.015625)"/>
       </defs>
       <use xlink:href="#DejaVuSans-31"/>
       <use xlink:href="#DejaVuSans-30" x="63.623047"/>
       <use xlink:href="#DejaVuSans-30" x="127.246094"/>
       <use xlink:href="#DejaVuSans-30" x="190.869141"/>
      </g>
     </g>
    </g>
   </g>
   <g id="matplotlib.axis_2">
    <g id="ytick_1">
     <g id="line2d_6">
      <defs>
       <path id="mbf5849fe14" d="M 0 0 
L -3.5 0 
" style="stroke: #000000; stroke-width: 0.8"/>
      </defs>
      <g>
       <use xlink:href="#mbf5849fe14" x="144" y="544.761818" style="stroke: #000000; stroke-width: 0.8"/>
      </g>
     </g>
     <g id="text_6">
      <!-- 0 -->
      <g transform="translate(130.6375 548.561037)scale(0.1 -0.1)">
       <use xlink:href="#DejaVuSans-30"/>
      </g>
     </g>
    </g>
    <g id="ytick_2">
     <g id="line2d_7">
      <g>
       <use xlink:href="#mbf5849fe14" x="144" y="485.805875" style="stroke: #000000; stroke-width: 0.8"/>
      </g>
     </g>
     <g id="text_7">
      <!-- 250 -->
      <g transform="translate(117.9125 489.605094)scale(0.1 -0.1)">
       <defs>
        <path id="DejaVuSans-35" d="M 691 4666 
L 3169 4666 
L 3169 4134 
L 1269 4134 
L 1269 2991 
Q 1406 3038 1543 3061 
Q 1681 3084 1819 3084 
Q 2600 3084 3056 2656 
Q 3513 2228 3513 1497 
Q 3513 744 3044 326 
Q 2575 -91 1722 -91 
Q 1428 -91 1123 -41 
Q 819 9 494 109 
L 494 744 
Q 775 591 1075 516 
Q 1375 441 1709 441 
Q 2250 441 2565 725 
Q 2881 1009 2881 1497 
Q 2881 1984 2565 2268 
Q 2250 2553 1709 2553 
Q 1456 2553 1204 2497 
Q 953 2441 691 2322 
L 691 4666 
z
" transform="scale(0.015625)"/>
       </defs>
       <use xlink:href="#DejaVuSans-32"/>
       <use xlink:href="#DejaVuSans-35" x="63.623047"/>
       <use xlink:href="#DejaVuSans-30" x="127.246094"/>
      </g>
     </g>
    </g>
    <g id="ytick_3">
     <g id="line2d_8">
      <g>
       <use xlink:href="#mbf5849fe14" x="144" y="426.849932" style="stroke: #000000; stroke-width: 0.8"/>
      </g>
     </g>
     <g id="text_8">
      <!-- 500 -->
      <g transform="translate(117.9125 430.64915)scale(0.1 -0.1)">
       <use xlink:href="#DejaVuSans-35"/>
       <use xlink:href="#DejaVuSans-30" x="63.623047"/>
       <use xlink:href="#DejaVuSans-30" x="127.246094"/>
      </g>
     </g>
    </g>
    <g id="ytick_4">
     <g id="line2d_9">
      <g>
       <use xlink:href="#mbf5849fe14" x="144" y="367.893988" style="stroke: #000000; stroke-width: 0.8"/>
      </g>
     </g>
     <g id="text_9">
      <!-- 750 -->
      <g transform="translate(117.9125 371.693207)scale(0.1 -0.1)">
       <defs>
        <path id="DejaVuSans-37" d="M 525 4666 
L 3525 4666 
L 3525 4397 
L 1831 0 
L 1172 0 
L 2766 4134 
L 525 4134 
L 525 4666 
z
" transform="scale(0.015625)"/>
       </defs>
       <use xlink:href="#DejaVuSans-37"/>
       <use xlink:href="#DejaVuSans-35" x="63.623047"/>
       <use xlink:href="#DejaVuSans-30" x="127.246094"/>
      </g>
     </g>
    </g>
    <g id="ytick_5">
     <g id="line2d_10">
      <g>
       <use xlink:href="#mbf5849fe14" x="144" y="308.938045" style="stroke: #000000; stroke-width: 0.8"/>
      </g>
     </g>
     <g id="text_10">
      <!-- 1000 -->
      <g transform="translate(111.55 312.737264)scale(0.1 -0.1)">
       <use xlink:href="#DejaVuSans-31"/>
       <use xlink:href="#DejaVuSans-30" x="63.623047"/>
       <use xlink:href="#DejaVuSans-30" x="127.246094"/>
       <use xlink:href="#DejaVuSans-30" x="190.869141"/>
      </g>
     </g>
    </g>
    <g id="ytick_6">
     <g id="line2d_11">
      <g>
       <use xlink:href="#mbf5849fe14" x="144" y="249.982102" style="stroke: #000000; stroke-width: 0.8"/>
      </g>
     </g>
     <g id="text_11">
      <!-- 1250 -->
      <g transform="translate(111.55 253.78132)scale(0.1 -0.1)">
       <use xlink:href="#DejaVuSans-31"/>
       <use xlink:href="#DejaVuSans-32" x="63.623047"/>
       <use xlink:href="#DejaVuSans-35" x="127.246094"/>
       <use xlink:href="#DejaVuSans-30" x="190.869141"/>
      </g>
     </g>
    </g>
    <g id="ytick_7">
     <g id="line2d_12">
      <g>
       <use xlink:href="#mbf5849fe14" x="144" y="191.026158" style="stroke: #000000; stroke-width: 0.8"/>
      </g>
     </g>
     <g id="text_12">
      <!-- 1500 -->
      <g transform="translate(111.55 194.825377)scale(0.1 -0.1)">
       <use xlink:href="#DejaVuSans-31"/>
       <use xlink:href="#DejaVuSans-35" x="63.623047"/>
       <use xlink:href="#DejaVuSans-30" x="127.246094"/>
       <use xlink:href="#DejaVuSans-30" x="190.869141"/>
      </g>
     </g>
    </g>
    <g id="ytick_8">
     <g id="line2d_13">
      <g>
       <use xlink:href="#mbf5849fe14" x="144" y="132.070215" style="stroke: #000000; stroke-width: 0.8"/>
      </g>
     </g>
     <g id="text_13">
      <!-- 1750 -->
      <g transform="translate(111.55 135.869434)scale(0.1 -0.1)">
       <use xlink:href="#DejaVuSans-31"/>
       <use xlink:href="#DejaVuSans-37" x="63.623047"/>
       <use xlink:href="#DejaVuSans-35" x="127.246094"/>
       <use xlink:href="#DejaVuSans-30" x="190.869141"/>
      </g>
     </g>
    </g>
   </g>
   <g id="line2d_14">
    <path d="M 184.581818 543.818523 
L 265.745455 537.687105 
L 346.909091 529.197449 
L 428.072727 517.40626 
L 509.236364 494.767178 
L 590.4 473.071391 
L 671.563636 426.378284 
L 752.727273 386.288243 
L 833.890909 335.821955 
L 915.054545 229.701257 
L 996.218182 144.333051 
" clip-path="url(#pc0ab683ef3)" style="fill: none; stroke: #1f77b4; stroke-width: 1.5; stroke-linecap: square"/>
    <defs>
     <path id="mee28efd21b" d="M 0 2.5 
C 0.663008 2.5 1.29895 2.236584 1.767767 1.767767 
C 2.236584 1.29895 2.5 0.663008 2.5 0 
C 2.5 -0.663008 2.236584 -1.29895 1.767767 -1.767767 
C 1.29895 -2.236584 0.663008 -2.5 0 -2.5 
C -0.663008 -2.5 -1.29895 -2.236584 -1.767767 -1.767767 
C -2.236584 -1.29895 -2.5 -0.663008 -2.5 0 
C -2.5 0.663008 -2.236584 1.29895 -1.767767 1.767767 
C -1.29895 2.236584 -0.663008 2.5 0 2.5 
z
" style="stroke: #1f77b4"/>
    </defs>
    <g clip-path="url(#pc0ab683ef3)">
     <use xlink:href="#mee28efd21b" x="184.581818" y="543.818523" style="fill: #1f77b4; stroke: #1f77b4"/>
     <use xlink:href="#mee28efd21b" x="265.745455" y="537.687105" style="fill: #1f77b4; stroke: #1f77b4"/>
     <use xlink:href="#mee28efd21b" x="346.909091" y="529.197449" style="fill: #1f77b4; stroke: #1f77b4"/>
     <use xlink:href="#mee28efd21b" x="428.072727" y="517.40626" style="fill: #1f77b4; stroke: #1f77b4"/>
     <use xlink:href="#mee28efd21b" x="509.236364" y="494.767178" style="fill: #1f77b4; stroke: #1f77b4"/>
     <use xlink:href="#mee28efd21b" x="590.4" y="473.071391" style="fill: #1f77b4; stroke: #1f77b4"/>
     <use xlink:href="#mee28efd21b" x="671.563636" y="426.378284" style="fill: #1f77b4; stroke: #1f77b4"/>
     <use xlink:href="#mee28efd21b" x="752.727273" y="386.288243" style="fill: #1f77b4; stroke: #1f77b4"/>
     <use xlink:href="#mee28efd21b" x="833.890909" y="335.821955" style="fill: #1f77b4; stroke: #1f77b4"/>
     <use xlink:href="#mee28efd21b" x="915.054545" y="229.701257" style="fill: #1f77b4; stroke: #1f77b4"/>
     <use xlink:href="#mee28efd21b" x="996.218182" y="144.333051" style="fill: #1f77b4; stroke: #1f77b4"/>
    </g>
   </g>
   <g id="line2d_15">
    <path d="M 184.581818 542.875228 
L 265.745455 537.215457 
L 346.909091 531.555687 
L 428.072727 522.122736 
L 509.236364 493.823883 
L 590.4 480.146104 
L 671.563636 424.491694 
L 752.727273 388.174833 
L 833.890909 317.899348 
L 915.054545 241.020798 
L 996.218182 176.405084 
" clip-path="url(#pc0ab683ef3)" style="fill: none; stroke: #ff7f0e; stroke-width: 1.5; stroke-linecap: square"/>
    <defs>
     <path id="m9f88a00ad1" d="M 0 2.5 
C 0.663008 2.5 1.29895 2.236584 1.767767 1.767767 
C 2.236584 1.29895 2.5 0.663008 2.5 0 
C 2.5 -0.663008 2.236584 -1.29895 1.767767 -1.767767 
C 1.29895 -2.236584 0.663008 -2.5 0 -2.5 
C -0.663008 -2.5 -1.29895 -2.236584 -1.767767 -1.767767 
C -2.236584 -1.29895 -2.5 -0.663008 -2.5 0 
C -2.5 0.663008 -2.236584 1.29895 -1.767767 1.767767 
C -1.29895 2.236584 -0.663008 2.5 0 2.5 
z
" style="stroke: #ff7f0e"/>
    </defs>
    <g clip-path="url(#pc0ab683ef3)">
     <use xlink:href="#m9f88a00ad1" x="184.581818" y="542.875228" style="fill: #ff7f0e; stroke: #ff7f0e"/>
     <use xlink:href="#m9f88a00ad1" x="265.745455" y="537.215457" style="fill: #ff7f0e; stroke: #ff7f0e"/>
     <use xlink:href="#m9f88a00ad1" x="346.909091" y="531.555687" style="fill: #ff7f0e; stroke: #ff7f0e"/>
     <use xlink:href="#m9f88a00ad1" x="428.072727" y="522.122736" style="fill: #ff7f0e; stroke: #ff7f0e"/>
     <use xlink:href="#m9f88a00ad1" x="509.236364" y="493.823883" style="fill: #ff7f0e; stroke: #ff7f0e"/>
     <use xlink:href="#m9f88a00ad1" x="590.4" y="480.146104" style="fill: #ff7f0e; stroke: #ff7f0e"/>
     <use xlink:href="#m9f88a00ad1" x="671.563636" y="424.491694" style="fill: #ff7f0e; stroke: #ff7f0e"/>
     <use xlink:href="#m9f88a00ad1" x="752.727273" y="388.174833" style="fill: #ff7f0e; stroke: #ff7f0e"/>
     <use xlink:href="#m9f88a00ad1" x="833.890909" y="317.899348" style="fill: #ff7f0e; stroke: #ff7f0e"/>
     <use xlink:href="#m9f88a00ad1" x="915.054545" y="241.020798" style="fill: #ff7f0e; stroke: #ff7f0e"/>
     <use xlink:href="#m9f88a00ad1" x="996.218182" y="176.405084" style="fill: #ff7f0e; stroke: #ff7f0e"/>
    </g>
   </g>
   <g id="line2d_16">
    <path d="M 184.581818 543.346876 
L 265.745455 537.687105 
L 346.909091 529.197449 
L 428.072727 515.51967 
L 509.236364 493.352236 
L 590.4 453.733842 
L 671.563636 410.342267 
L 752.727273 354.687857 
L 833.890909 281.11084 
L 915.054545 204.703937 
L 996.218182 99.998182 
" clip-path="url(#pc0ab683ef3)" style="fill: none; stroke: #2ca02c; stroke-width: 1.5; stroke-linecap: square"/>
    <defs>
     <path id="mdfa16d5ca9" d="M 0 2.5 
C 0.663008 2.5 1.29895 2.236584 1.767767 1.767767 
C 2.236584 1.29895 2.5 0.663008 2.5 0 
C 2.5 -0.663008 2.236584 -1.29895 1.767767 -1.767767 
C 1.29895 -2.236584 0.663008 -2.5 0 -2.5 
C -0.663008 -2.5 -1.29895 -2.236584 -1.767767 -1.767767 
C -2.236584 -1.29895 -2.5 -0.663008 -2.5 0 
C -2.5 0.663008 -2.236584 1.29895 -1.767767 1.767767 
C -1.29895 2.236584 -0.663008 2.5 0 2.5 
z
" style="stroke: #2ca02c"/>
    </defs>
    <g clip-path="url(#pc0ab683ef3)">
     <use xlink:href="#mdfa16d5ca9" x="184.581818" y="543.346876" style="fill: #2ca02c; stroke: #2ca02c"/>
     <use xlink:href="#mdfa16d5ca9" x="265.745455" y="537.687105" style="fill: #2ca02c; stroke: #2ca02c"/>
     <use xlink:href="#mdfa16d5ca9" x="346.909091" y="529.197449" style="fill: #2ca02c; stroke: #2ca02c"/>
     <use xlink:href="#mdfa16d5ca9" x="428.072727" y="515.51967" style="fill: #2ca02c; stroke: #2ca02c"/>
     <use xlink:href="#mdfa16d5ca9" x="509.236364" y="493.352236" style="fill: #2ca02c; stroke: #2ca02c"/>
     <use xlink:href="#mdfa16d5ca9" x="590.4" y="453.733842" style="fill: #2ca02c; stroke: #2ca02c"/>
     <use xlink:href="#mdfa16d5ca9" x="671.563636" y="410.342267" style="fill: #2ca02c; stroke: #2ca02c"/>
     <use xlink:href="#mdfa16d5ca9" x="752.727273" y="354.687857" style="fill: #2ca02c; stroke: #2ca02c"/>
     <use xlink:href="#mdfa16d5ca9" x="833.890909" y="281.11084" style="fill: #2ca02c; stroke: #2ca02c"/>
     <use xlink:href="#mdfa16d5ca9" x="915.054545" y="204.703937" style="fill: #2ca02c; stroke: #2ca02c"/>
     <use xlink:href="#mdfa16d5ca9" x="996.218182" y="99.998182" style="fill: #2ca02c; stroke: #2ca02c"/>
    </g>
   </g>
   <g id="line2d_17">
    <path d="M 184.581818 544.761818 
L 265.745455 541.931933 
L 346.909091 536.272162 
L 428.072727 520.707793 
L 509.236364 510.803195 
L 590.4 474.486334 
L 671.563636 434.396292 
L 752.727273 380.156824 
L 833.890909 300.920037 
L 915.054545 209.420413 
L 996.218182 132.070215 
" clip-path="url(#pc0ab683ef3)" style="fill: none; stroke: #d62728; stroke-width: 1.5; stroke-linecap: square"/>
    <defs>
     <path id="m29aafdc72e" d="M 0 2.5 
C 0.663008 2.5 1.29895 2.236584 1.767767 1.767767 
C 2.236584 1.29895 2.5 0.663008 2.5 0 
C 2.5 -0.663008 2.236584 -1.29895 1.767767 -1.767767 
C 1.29895 -2.236584 0.663008 -2.5 0 -2.5 
C -0.663008 -2.5 -1.29895 -2.236584 -1.767767 -1.767767 
C -2.236584 -1.29895 -2.5 -0.663008 -2.5 0 
C -2.5 0.663008 -2.236584 1.29895 -1.767767 1.767767 
C -1.29895 2.236584 -0.663008 2.5 0 2.5 
z
" style="stroke: #d62728"/>
    </defs>
    <g clip-path="url(#pc0ab683ef3)">
     <use xlink:href="#m29aafdc72e" x="184.581818" y="544.761818" style="fill: #d62728; stroke: #d62728"/>
     <use xlink:href="#m29aafdc72e" x="265.745455" y="541.931933" style="fill: #d62728; stroke: #d62728"/>
     <use xlink:href="#m29aafdc72e" x="346.909091" y="536.272162" style="fill: #d62728; stroke: #d62728"/>
     <use xlink:href="#m29aafdc72e" x="428.072727" y="520.707793" style="fill: #d62728; stroke: #d62728"/>
     <use xlink:href="#m29aafdc72e" x="509.236364" y="510.803195" style="fill: #d62728; stroke: #d62728"/>
     <use xlink:href="#m29aafdc72e" x="590.4" y="474.486334" style="fill: #d62728; stroke: #d62728"/>
     <use xlink:href="#m29aafdc72e" x="671.563636" y="434.396292" style="fill: #d62728; stroke: #d62728"/>
     <use xlink:href="#m29aafdc72e" x="752.727273" y="380.156824" style="fill: #d62728; stroke: #d62728"/>
     <use xlink:href="#m29aafdc72e" x="833.890909" y="300.920037" style="fill: #d62728; stroke: #d62728"/>
     <use xlink:href="#m29aafdc72e" x="915.054545" y="209.420413" style="fill: #d62728; stroke: #d62728"/>
     <use xlink:href="#m29aafdc72e" x="996.218182" y="132.070215" style="fill: #d62728; stroke: #d62728"/>
    </g>
   </g>
   <g id="line2d_18">
    <path d="M 184.581818 544.761818 
L 265.745455 543.346876 
L 346.909091 542.875228 
L 428.072727 520.236146 
L 509.236364 502.785187 
L 590.4 479.674457 
L 671.563636 436.282882 
L 752.727273 387.231538 
L 833.890909 315.069463 
L 915.054545 258.00011 
L 996.218182 175.933437 
" clip-path="url(#pc0ab683ef3)" style="fill: none; stroke: #9467bd; stroke-width: 1.5; stroke-linecap: square"/>
    <defs>
     <path id="mc4eab49cc3" d="M 0 2.5 
C 0.663008 2.5 1.29895 2.236584 1.767767 1.767767 
C 2.236584 1.29895 2.5 0.663008 2.5 0 
C 2.5 -0.663008 2.236584 -1.29895 1.767767 -1.767767 
C 1.29895 -2.236584 0.663008 -2.5 0 -2.5 
C -0.663008 -2.5 -1.29895 -2.236584 -1.767767 -1.767767 
C -2.236584 -1.29895 -2.5 -0.663008 -2.5 0 
C -2.5 0.663008 -2.236584 1.29895 -1.767767 1.767767 
C -1.29895 2.236584 -0.663008 2.5 0 2.5 
z
" style="stroke: #9467bd"/>
    </defs>
    <g clip-path="url(#pc0ab683ef3)">
     <use xlink:href="#mc4eab49cc3" x="184.581818" y="544.761818" style="fill: #9467bd; stroke: #9467bd"/>
     <use xlink:href="#mc4eab49cc3" x="265.745455" y="543.346876" style="fill: #9467bd; stroke: #9467bd"/>
     <use xlink:href="#mc4eab49cc3" x="346.909091" y="542.875228" style="fill: #9467bd; stroke: #9467bd"/>
     <use xlink:href="#mc4eab49cc3" x="428.072727" y="520.236146" style="fill: #9467bd; stroke: #9467bd"/>
     <use xlink:href="#mc4eab49cc3" x="509.236364" y="502.785187" style="fill: #9467bd; stroke: #9467bd"/>
     <use xlink:href="#mc4eab49cc3" x="590.4" y="479.674457" style="fill: #9467bd; stroke: #9467bd"/>
     <use xlink:href="#mc4eab49cc3" x="671.563636" y="436.282882" style="fill: #9467bd; stroke: #9467bd"/>
     <use xlink:href="#mc4eab49cc3" x="752.727273" y="387.231538" style="fill: #9467bd; stroke: #9467bd"/>
     <use xlink:href="#mc4eab49cc3" x="833.890909" y="315.069463" style="fill: #9467bd; stroke: #9467bd"/>
     <use xlink:href="#mc4eab49cc3" x="915.054545" y="258.00011" style="fill: #9467bd; stroke: #9467bd"/>
     <use xlink:href="#mc4eab49cc3" x="996.218182" y="175.933437" style="fill: #9467bd; stroke: #9467bd"/>
    </g>
   </g>
   <g id="line2d_19">
    <path d="M 184.581818 544.761818 
L 265.745455 540.988638 
L 346.909091 539.573695 
L 428.072727 532.498982 
L 509.236364 509.8599 
L 590.4 472.599744 
L 671.563636 447.130776 
L 752.727273 388.174833 
L 833.890909 336.76525 
L 915.054545 251.397044 
L 996.218182 175.461789 
" clip-path="url(#pc0ab683ef3)" style="fill: none; stroke: #8c564b; stroke-width: 1.5; stroke-linecap: square"/>
    <defs>
     <path id="mffb3e6d3a5" d="M 0 2.5 
C 0.663008 2.5 1.29895 2.236584 1.767767 1.767767 
C 2.236584 1.29895 2.5 0.663008 2.5 0 
C 2.5 -0.663008 2.236584 -1.29895 1.767767 -1.767767 
C 1.29895 -2.236584 0.663008 -2.5 0 -2.5 
C -0.663008 -2.5 -1.29895 -2.236584 -1.767767 -1.767767 
C -2.236584 -1.29895 -2.5 -0.663008 -2.5 0 
C -2.5 0.663008 -2.236584 1.29895 -1.767767 1.767767 
C -1.29895 2.236584 -0.663008 2.5 0 2.5 
z
" style="stroke: #8c564b"/>
    </defs>
    <g clip-path="url(#pc0ab683ef3)">
     <use xlink:href="#mffb3e6d3a5" x="184.581818" y="544.761818" style="fill: #8c564b; stroke: #8c564b"/>
     <use xlink:href="#mffb3e6d3a5" x="265.745455" y="540.988638" style="fill: #8c564b; stroke: #8c564b"/>
     <use xlink:href="#mffb3e6d3a5" x="346.909091" y="539.573695" style="fill: #8c564b; stroke: #8c564b"/>
     <use xlink:href="#mffb3e6d3a5" x="428.072727" y="532.498982" style="fill: #8c564b; stroke: #8c564b"/>
     <use xlink:href="#mffb3e6d3a5" x="509.236364" y="509.8599" style="fill: #8c564b; stroke: #8c564b"/>
     <use xlink:href="#mffb3e6d3a5" x="590.4" y="472.599744" style="fill: #8c564b; stroke: #8c564b"/>
     <use xlink:href="#mffb3e6d3a5" x="671.563636" y="447.130776" style="fill: #8c564b; stroke: #8c564b"/>
     <use xlink:href="#mffb3e6d3a5" x="752.727273" y="388.174833" style="fill: #8c564b; stroke: #8c564b"/>
     <use xlink:href="#mffb3e6d3a5" x="833.890909" y="336.76525" style="fill: #8c564b; stroke: #8c564b"/>
     <use xlink:href="#mffb3e6d3a5" x="915.054545" y="251.397044" style="fill: #8c564b; stroke: #8c564b"/>
     <use xlink:href="#mffb3e6d3a5" x="996.218182" y="175.461789" style="fill: #8c564b; stroke: #8c564b"/>
    </g>
   </g>
   <g id="line2d_20">
    <path d="M 184.581818 544.761818 
L 265.745455 543.346876 
L 346.909091 539.573695 
L 428.072727 528.254154 
L 509.236364 507.501662 
L 590.4 475.429629 
L 671.563636 424.491694 
L 752.727273 371.667169 
L 833.890909 308.938045 
L 915.054545 232.531142 
L 996.218182 132.070215 
" clip-path="url(#pc0ab683ef3)" style="fill: none; stroke: #e377c2; stroke-width: 1.5; stroke-linecap: square"/>
    <defs>
     <path id="m093a5fb5d3" d="M 0 2.5 
C 0.663008 2.5 1.29895 2.236584 1.767767 1.767767 
C 2.236584 1.29895 2.5 0.663008 2.5 0 
C 2.5 -0.663008 2.236584 -1.29895 1.767767 -1.767767 
C 1.29895 -2.236584 0.663008 -2.5 0 -2.5 
C -0.663008 -2.5 -1.29895 -2.236584 -1.767767 -1.767767 
C -2.236584 -1.29895 -2.5 -0.663008 -2.5 0 
C -2.5 0.663008 -2.236584 1.29895 -1.767767 1.767767 
C -1.29895 2.236584 -0.663008 2.5 0 2.5 
z
" style="stroke: #e377c2"/>
    </defs>
    <g clip-path="url(#pc0ab683ef3)">
     <use xlink:href="#m093a5fb5d3" x="184.581818" y="544.761818" style="fill: #e377c2; stroke: #e377c2"/>
     <use xlink:href="#m093a5fb5d3" x="265.745455" y="543.346876" style="fill: #e377c2; stroke: #e377c2"/>
     <use xlink:href="#m093a5fb5d3" x="346.909091" y="539.573695" style="fill: #e377c2; stroke: #e377c2"/>
     <use xlink:href="#m093a5fb5d3" x="428.072727" y="528.254154" style="fill: #e377c2; stroke: #e377c2"/>
     <use xlink:href="#m093a5fb5d3" x="509.236364" y="507.501662" style="fill: #e377c2; stroke: #e377c2"/>
     <use xlink:href="#m093a5fb5d3" x="590.4" y="475.429629" style="fill: #e377c2; stroke: #e377c2"/>
     <use xlink:href="#m093a5fb5d3" x="671.563636" y="424.491694" style="fill: #e377c2; stroke: #e377c2"/>
     <use xlink:href="#m093a5fb5d3" x="752.727273" y="371.667169" style="fill: #e377c2; stroke: #e377c2"/>
     <use xlink:href="#m093a5fb5d3" x="833.890909" y="308.938045" style="fill: #e377c2; stroke: #e377c2"/>
     <use xlink:href="#m093a5fb5d3" x="915.054545" y="232.531142" style="fill: #e377c2; stroke: #e377c2"/>
     <use xlink:href="#m093a5fb5d3" x="996.218182" y="132.070215" style="fill: #e377c2; stroke: #e377c2"/>
    </g>
   </g>
   <g id="patch_3">
    <path d="M 144 567 
L 144 77.76 
" style="fill: none; stroke: #000000; stroke-width: 0.8; stroke-linejoin: miter; stroke-linecap: square"/>
   </g>
   <g id="patch_4">
    <path d="M 1036.8 567 
L 1036.8 77.76 
" style="fill: none; stroke: #000000; stroke-width: 0.8; stroke-linejoin: miter; stroke-linecap: square"/>
   </g>
   <g id="patch_5">
    <path d="M 144 567 
L 1036.8 567 
" style="fill: none; stroke: #000000; stroke-width: 0.8; stroke-linejoin: miter; stroke-linecap: square"/>
   </g>
   <g id="patch_6">
    <path d="M 144 77.76 
L 1036.8 77.76 
" style="fill: none; stroke: #000000; stroke-width: 0.8; stroke-linejoin: miter; stroke-linecap: square"/>
   </g>
   <g id="text_14">
    <!-- conflict_final -->
    <g transform="translate(552.604687 71.76)scale(0.12 -0.12)">
     <defs>
      <path id="DejaVuSans-63" d="M 3122 3366 
L 3122 2828 
Q 2878 2963 2633 3030 
Q 2388 3097 2138 3097 
Q 1578 3097 1268 2742 
Q 959 2388 959 1747 
Q 959 1106 1268 751 
Q 1578 397 2138 397 
Q 2388 397 2633 464 
Q 2878 531 3122 666 
L 3122 134 
Q 2881 22 2623 -34 
Q 2366 -91 2075 -91 
Q 1284 -91 818 406 
Q 353 903 353 1747 
Q 353 2603 823 3093 
Q 1294 3584 2113 3584 
Q 2378 3584 2631 3529 
Q 2884 3475 3122 3366 
z
" transform="scale(0.015625)"/>
      <path id="DejaVuSans-6f" d="M 1959 3097 
Q 1497 3097 1228 2736 
Q 959 2375 959 1747 
Q 959 1119 1226 758 
Q 1494 397 1959 397 
Q 2419 397 2687 759 
Q 2956 1122 2956 1747 
Q 2956 2369 2687 2733 
Q 2419 3097 1959 3097 
z
M 1959 3584 
Q 2709 3584 3137 3096 
Q 3566 2609 3566 1747 
Q 3566 888 3137 398 
Q 2709 -91 1959 -91 
Q 1206 -91 779 398 
Q 353 888 353 1747 
Q 353 2609 779 3096 
Q 1206 3584 1959 3584 
z
" transform="scale(0.015625)"/>
      <path id="DejaVuSans-6e" d="M 3513 2113 
L 3513 0 
L 2938 0 
L 2938 2094 
Q 2938 2591 2744 2837 
Q 2550 3084 2163 3084 
Q 1697 3084 1428 2787 
Q 1159 2491 1159 1978 
L 1159 0 
L 581 0 
L 581 3500 
L 1159 3500 
L 1159 2956 
Q 1366 3272 1645 3428 
Q 1925 3584 2291 3584 
Q 2894 3584 3203 3211 
Q 3513 2838 3513 2113 
z
" transform="scale(0.015625)"/>
      <path id="DejaVuSans-66" d="M 2375 4863 
L 2375 4384 
L 1825 4384 
Q 1516 4384 1395 4259 
Q 1275 4134 1275 3809 
L 1275 3500 
L 2222 3500 
L 2222 3053 
L 1275 3053 
L 1275 0 
L 697 0 
L 697 3053 
L 147 3053 
L 147 3500 
L 697 3500 
L 697 3744 
Q 697 4328 969 4595 
Q 1241 4863 1831 4863 
L 2375 4863 
z
" transform="scale(0.015625)"/>
      <path id="DejaVuSans-6c" d="M 603 4863 
L 1178 4863 
L 1178 0 
L 603 0 
L 603 4863 
z
" transform="scale(0.015625)"/>
      <path id="DejaVuSans-69" d="M 603 3500 
L 1178 3500 
L 1178 0 
L 603 0 
L 603 3500 
z
M 603 4863 
L 1178 4863 
L 1178 4134 
L 603 4134 
L 603 4863 
z
" transform="scale(0.015625)"/>
      <path id="DejaVuSans-74" d="M 1172 4494 
L 1172 3500 
L 2356 3500 
L 2356 3053 
L 1172 3053 
L 1172 1153 
Q 1172 725 1289 603 
Q 1406 481 1766 481 
L 2356 481 
L 2356 0 
L 1766 0 
Q 1100 0 847 248 
Q 594 497 594 1153 
L 594 3053 
L 172 3053 
L 172 3500 
L 594 3500 
L 594 4494 
L 1172 4494 
z
" transform="scale(0.015625)"/>
      <path id="DejaVuSans-5f" d="M 3263 -1063 
L 3263 -1509 
L -63 -1509 
L -63 -1063 
L 3263 -1063 
z
" transform="scale(0.015625)"/>
      <path id="DejaVuSans-61" d="M 2194 1759 
Q 1497 1759 1228 1600 
Q 959 1441 959 1056 
Q 959 750 1161 570 
Q 1363 391 1709 391 
Q 2188 391 2477 730 
Q 2766 1069 2766 1631 
L 2766 1759 
L 2194 1759 
z
M 3341 1997 
L 3341 0 
L 2766 0 
L 2766 531 
Q 2569 213 2275 61 
Q 1981 -91 1556 -91 
Q 1019 -91 701 211 
Q 384 513 384 1019 
Q 384 1609 779 1909 
Q 1175 2209 1959 2209 
L 2766 2209 
L 2766 2266 
Q 2766 2663 2505 2880 
Q 2244 3097 1772 3097 
Q 1472 3097 1187 3025 
Q 903 2953 641 2809 
L 641 3341 
Q 956 3463 1253 3523 
Q 1550 3584 1831 3584 
Q 2591 3584 2966 3190 
Q 3341 2797 3341 1997 
z
" transform="scale(0.015625)"/>
     </defs>
     <use xlink:href="#DejaVuSans-63"/>
     <use xlink:href="#DejaVuSans-6f" x="54.980469"/>
     <use xlink:href="#DejaVuSans-6e" x="116.162109"/>
     <use xlink:href="#DejaVuSans-66" x="179.541016"/>
     <use xlink:href="#DejaVuSans-6c" x="214.746094"/>
     <use xlink:href="#DejaVuSans-69" x="242.529297"/>
     <use xlink:href="#DejaVuSans-63" x="270.3125"/>
     <use xlink:href="#DejaVuSans-74" x="325.292969"/>
     <use xlink:href="#DejaVuSans-5f" x="364.501953"/>
     <use xlink:href="#DejaVuSans-66" x="414.501953"/>
     <use xlink:href="#DejaVuSans-69" x="449.707031"/>
     <use xlink:href="#DejaVuSans-6e" x="477.490234"/>
     <use xlink:href="#DejaVuSans-61" x="540.869141"/>
     <use xlink:href="#DejaVuSans-6c" x="602.148438"/>
    </g>
   </g>
   <g id="legend_1">
    <g id="patch_7">
     <path d="M 149.831 170.012147 
L 241.572934 170.012147 
Q 243.238934 170.012147 243.238934 168.346147 
L 243.238934 83.591 
Q 243.238934 81.925 241.572934 81.925 
L 149.831 81.925 
Q 148.165 81.925 148.165 83.591 
L 148.165 168.346147 
Q 148.165 170.012147 149.831 170.012147 
z
" style="fill: #ffffff; opacity: 0.8; stroke: #cccccc; stroke-linejoin: miter"/>
    </g>
    <g id="line2d_21">
     <path d="M 151.497 88.670998 
L 159.827 88.670998 
L 168.157 88.670998 
" style="fill: none; stroke: #1f77b4; stroke-width: 1.5; stroke-linecap: square"/>
     <g>
      <use xlink:href="#mee28efd21b" x="159.827" y="88.670998" style="fill: #1f77b4; stroke: #1f77b4"/>
     </g>
    </g>
    <g id="text_15">
     <!-- tabu1000 -->
     <g transform="translate(174.821 91.586498)scale(0.0833 -0.0833)">
      <defs>
       <path id="DejaVuSans-62" d="M 3116 1747 
Q 3116 2381 2855 2742 
Q 2594 3103 2138 3103 
Q 1681 3103 1420 2742 
Q 1159 2381 1159 1747 
Q 1159 1113 1420 752 
Q 1681 391 2138 391 
Q 2594 391 2855 752 
Q 3116 1113 3116 1747 
z
M 1159 2969 
Q 1341 3281 1617 3432 
Q 1894 3584 2278 3584 
Q 2916 3584 3314 3078 
Q 3713 2572 3713 1747 
Q 3713 922 3314 415 
Q 2916 -91 2278 -91 
Q 1894 -91 1617 61 
Q 1341 213 1159 525 
L 1159 0 
L 581 0 
L 581 4863 
L 1159 4863 
L 1159 2969 
z
" transform="scale(0.015625)"/>
       <path id="DejaVuSans-75" d="M 544 1381 
L 544 3500 
L 1119 3500 
L 1119 1403 
Q 1119 906 1312 657 
Q 1506 409 1894 409 
Q 2359 409 2629 706 
Q 2900 1003 2900 1516 
L 2900 3500 
L 3475 3500 
L 3475 0 
L 2900 0 
L 2900 538 
Q 2691 219 2414 64 
Q 2138 -91 1772 -91 
Q 1169 -91 856 284 
Q 544 659 544 1381 
z
M 1991 3584 
L 1991 3584 
z
" transform="scale(0.015625)"/>
      </defs>
      <use xlink:href="#DejaVuSans-74"/>
      <use xlink:href="#DejaVuSans-61" x="39.208984"/>
      <use xlink:href="#DejaVuSans-62" x="100.488281"/>
      <use xlink:href="#DejaVuSans-75" x="163.964844"/>
      <use xlink:href="#DejaVuSans-31" x="227.34375"/>
      <use xlink:href="#DejaVuSans-30" x="290.966797"/>
      <use xlink:href="#DejaVuSans-30" x="354.589844"/>
      <use xlink:href="#DejaVuSans-30" x="418.212891"/>
     </g>
    </g>
    <g id="line2d_22">
     <path d="M 151.497 100.897877 
L 159.827 100.897877 
L 168.157 100.897877 
" style="fill: none; stroke: #ff7f0e; stroke-width: 1.5; stroke-linecap: square"/>
     <g>
      <use xlink:href="#m9f88a00ad1" x="159.827" y="100.897877" style="fill: #ff7f0e; stroke: #ff7f0e"/>
     </g>
    </g>
    <g id="text_16">
     <!-- tabu1500 -->
     <g transform="translate(174.821 103.813377)scale(0.0833 -0.0833)">
      <use xlink:href="#DejaVuSans-74"/>
      <use xlink:href="#DejaVuSans-61" x="39.208984"/>
      <use xlink:href="#DejaVuSans-62" x="100.488281"/>
      <use xlink:href="#DejaVuSans-75" x="163.964844"/>
      <use xlink:href="#DejaVuSans-31" x="227.34375"/>
      <use xlink:href="#DejaVuSans-35" x="290.966797"/>
      <use xlink:href="#DejaVuSans-30" x="354.589844"/>
      <use xlink:href="#DejaVuSans-30" x="418.212891"/>
     </g>
    </g>
    <g id="line2d_23">
     <path d="M 151.497 113.124755 
L 159.827 113.124755 
L 168.157 113.124755 
" style="fill: none; stroke: #2ca02c; stroke-width: 1.5; stroke-linecap: square"/>
     <g>
      <use xlink:href="#mdfa16d5ca9" x="159.827" y="113.124755" style="fill: #2ca02c; stroke: #2ca02c"/>
     </g>
    </g>
    <g id="text_17">
     <!-- tabu500 -->
     <g transform="translate(174.821 116.040255)scale(0.0833 -0.0833)">
      <use xlink:href="#DejaVuSans-74"/>
      <use xlink:href="#DejaVuSans-61" x="39.208984"/>
      <use xlink:href="#DejaVuSans-62" x="100.488281"/>
      <use xlink:href="#DejaVuSans-75" x="163.964844"/>
      <use xlink:href="#DejaVuSans-35" x="227.34375"/>
      <use xlink:href="#DejaVuSans-30" x="290.966797"/>
      <use xlink:href="#DejaVuSans-30" x="354.589844"/>
     </g>
    </g>
    <g id="line2d_24">
     <path d="M 151.497 125.351633 
L 159.827 125.351633 
L 168.157 125.351633 
" style="fill: none; stroke: #d62728; stroke-width: 1.5; stroke-linecap: square"/>
     <g>
      <use xlink:href="#m29aafdc72e" x="159.827" y="125.351633" style="fill: #d62728; stroke: #d62728"/>
     </g>
    </g>
    <g id="text_18">
     <!-- sa200 200 0.1 -->
     <g transform="translate(174.821 128.267133)scale(0.0833 -0.0833)">
      <defs>
       <path id="DejaVuSans-73" d="M 2834 3397 
L 2834 2853 
Q 2591 2978 2328 3040 
Q 2066 3103 1784 3103 
Q 1356 3103 1142 2972 
Q 928 2841 928 2578 
Q 928 2378 1081 2264 
Q 1234 2150 1697 2047 
L 1894 2003 
Q 2506 1872 2764 1633 
Q 3022 1394 3022 966 
Q 3022 478 2636 193 
Q 2250 -91 1575 -91 
Q 1294 -91 989 -36 
Q 684 19 347 128 
L 347 722 
Q 666 556 975 473 
Q 1284 391 1588 391 
Q 1994 391 2212 530 
Q 2431 669 2431 922 
Q 2431 1156 2273 1281 
Q 2116 1406 1581 1522 
L 1381 1569 
Q 847 1681 609 1914 
Q 372 2147 372 2553 
Q 372 3047 722 3315 
Q 1072 3584 1716 3584 
Q 2034 3584 2315 3537 
Q 2597 3491 2834 3397 
z
" transform="scale(0.015625)"/>
       <path id="DejaVuSans-20" transform="scale(0.015625)"/>
       <path id="DejaVuSans-2e" d="M 684 794 
L 1344 794 
L 1344 0 
L 684 0 
L 684 794 
z
" transform="scale(0.015625)"/>
      </defs>
      <use xlink:href="#DejaVuSans-73"/>
      <use xlink:href="#DejaVuSans-61" x="52.099609"/>
      <use xlink:href="#DejaVuSans-32" x="113.378906"/>
      <use xlink:href="#DejaVuSans-30" x="177.001953"/>
      <use xlink:href="#DejaVuSans-30" x="240.625"/>
      <use xlink:href="#DejaVuSans-20" x="304.248047"/>
      <use xlink:href="#DejaVuSans-32" x="336.035156"/>
      <use xlink:href="#DejaVuSans-30" x="399.658203"/>
      <use xlink:href="#DejaVuSans-30" x="463.28125"/>
      <use xlink:href="#DejaVuSans-20" x="526.904297"/>
      <use xlink:href="#DejaVuSans-30" x="558.691406"/>
      <use xlink:href="#DejaVuSans-2e" x="622.314453"/>
      <use xlink:href="#DejaVuSans-31" x="654.101562"/>
     </g>
    </g>
    <g id="line2d_25">
     <path d="M 151.497 137.578511 
L 159.827 137.578511 
L 168.157 137.578511 
" style="fill: none; stroke: #9467bd; stroke-width: 1.5; stroke-linecap: square"/>
     <g>
      <use xlink:href="#mc4eab49cc3" x="159.827" y="137.578511" style="fill: #9467bd; stroke: #9467bd"/>
     </g>
    </g>
    <g id="text_19">
     <!-- sa500 200 0.1 -->
     <g transform="translate(174.821 140.494011)scale(0.0833 -0.0833)">
      <use xlink:href="#DejaVuSans-73"/>
      <use xlink:href="#DejaVuSans-61" x="52.099609"/>
      <use xlink:href="#DejaVuSans-35" x="113.378906"/>
      <use xlink:href="#DejaVuSans-30" x="177.001953"/>
      <use xlink:href="#DejaVuSans-30" x="240.625"/>
      <use xlink:href="#DejaVuSans-20" x="304.248047"/>
      <use xlink:href="#DejaVuSans-32" x="336.035156"/>
      <use xlink:href="#DejaVuSans-30" x="399.658203"/>
      <use xlink:href="#DejaVuSans-30" x="463.28125"/>
      <use xlink:href="#DejaVuSans-20" x="526.904297"/>
      <use xlink:href="#DejaVuSans-30" x="558.691406"/>
      <use xlink:href="#DejaVuSans-2e" x="622.314453"/>
      <use xlink:href="#DejaVuSans-31" x="654.101562"/>
     </g>
    </g>
    <g id="line2d_26">
     <path d="M 151.497 149.805389 
L 159.827 149.805389 
L 168.157 149.805389 
" style="fill: none; stroke: #8c564b; stroke-width: 1.5; stroke-linecap: square"/>
     <g>
      <use xlink:href="#mffb3e6d3a5" x="159.827" y="149.805389" style="fill: #8c564b; stroke: #8c564b"/>
     </g>
    </g>
    <g id="text_20">
     <!-- sa500 200 0.01 -->
     <g transform="translate(174.821 152.720889)scale(0.0833 -0.0833)">
      <use xlink:href="#DejaVuSans-73"/>
      <use xlink:href="#DejaVuSans-61" x="52.099609"/>
      <use xlink:href="#DejaVuSans-35" x="113.378906"/>
      <use xlink:href="#DejaVuSans-30" x="177.001953"/>
      <use xlink:href="#DejaVuSans-30" x="240.625"/>
      <use xlink:href="#DejaVuSans-20" x="304.248047"/>
      <use xlink:href="#DejaVuSans-32" x="336.035156"/>
      <use xlink:href="#DejaVuSans-30" x="399.658203"/>
      <use xlink:href="#DejaVuSans-30" x="463.28125"/>
      <use xlink:href="#DejaVuSans-20" x="526.904297"/>
      <use xlink:href="#DejaVuSans-30" x="558.691406"/>
      <use xlink:href="#DejaVuSans-2e" x="622.314453"/>
      <use xlink:href="#DejaVuSans-30" x="654.101562"/>
      <use xlink:href="#DejaVuSans-31" x="717.724609"/>
     </g>
    </g>
    <g id="line2d_27">
     <path d="M 151.497 162.032267 
L 159.827 162.032267 
L 168.157 162.032267 
" style="fill: none; stroke: #e377c2; stroke-width: 1.5; stroke-linecap: square"/>
     <g>
      <use xlink:href="#m093a5fb5d3" x="159.827" y="162.032267" style="fill: #e377c2; stroke: #e377c2"/>
     </g>
    </g>
    <g id="text_21">
     <!-- sa200 200 0.01 -->
     <g transform="translate(174.821 164.947767)scale(0.0833 -0.0833)">
      <use xlink:href="#DejaVuSans-73"/>
      <use xlink:href="#DejaVuSans-61" x="52.099609"/>
      <use xlink:href="#DejaVuSans-32" x="113.378906"/>
      <use xlink:href="#DejaVuSans-30" x="177.001953"/>
      <use xlink:href="#DejaVuSans-30" x="240.625"/>
      <use xlink:href="#DejaVuSans-20" x="304.248047"/>
      <use xlink:href="#DejaVuSans-32" x="336.035156"/>
      <use xlink:href="#DejaVuSans-30" x="399.658203"/>
      <use xlink:href="#DejaVuSans-30" x="463.28125"/>
      <use xlink:href="#DejaVuSans-20" x="526.904297"/>
      <use xlink:href="#DejaVuSans-30" x="558.691406"/>
      <use xlink:href="#DejaVuSans-2e" x="622.314453"/>
      <use xlink:href="#DejaVuSans-30" x="654.101562"/>
      <use xlink:href="#DejaVuSans-31" x="717.724609"/>
     </g>
    </g>
   </g>
  </g>
 </g>
 <defs>
  <clipPath id="pc0ab683ef3">
   <rect x="144" y="77.76" width="892.8" height="489.24"/>
  </clipPath>
 </defs>
</svg>
