<?xml version="1.0" encoding="utf-8" standalone="no"?>
<!DOCTYPE svg PUBLIC "-//W3C//DTD SVG 1.1//EN"
  "http://www.w3.org/Graphics/SVG/1.1/DTD/svg11.dtd">
<svg xmlns:xlink="http://www.w3.org/1999/xlink" width="1152pt" height="648pt" viewBox="0 0 1152 648" xmlns="http://www.w3.org/2000/svg" version="1.1">
 <metadata>
  <rdf:RDF xmlns:dc="http://purl.org/dc/elements/1.1/" xmlns:cc="http://creativecommons.org/ns#" xmlns:rdf="http://www.w3.org/1999/02/22-rdf-syntax-ns#">
   <cc:Work>
    <dc:type rdf:resource="http://purl.org/dc/dcmitype/StillImage"/>
    <dc:date>2022-04-26T20:59:49.671416</dc:date>
    <dc:format>image/svg+xml</dc:format>
    <dc:creator>
     <cc:Agent>
      <dc:title>Matplotlib v3.5.1, https://matplotlib.org/</dc:title>
     </cc:Agent>
    </dc:creator>
   </cc:Work>
  </rdf:RDF>
 </metadata>
 <defs>
  <style type="text/css">*{stroke-linejoin: round; stroke-linecap: butt}</style>
 </defs>
 <g id="figure_1">
  <g id="patch_1">
   <path d="M 0 648 
L 1152 648 
L 1152 0 
L 0 0 
L 0 648 
z
" style="fill: none"/>
  </g>
  <g id="axes_1">
   <g id="patch_2">
    <path d="M 144 221.654118 
L 1036.8 221.654118 
L 1036.8 77.76 
L 144 77.76 
z
" style="fill: #ffffff"/>
   </g>
   <g id="matplotlib.axis_1">
    <g id="xtick_1">
     <g id="line2d_1">
      <defs>
       <path id="mc5d6e6ddb8" d="M 0 0 
L 0 3.5 
" style="stroke: #000000; stroke-width: 0.8"/>
      </defs>
      <g>
       <use xlink:href="#mc5d6e6ddb8" x="265.745455" y="221.654118" style="stroke: #000000; stroke-width: 0.8"/>
      </g>
     </g>
     <g id="text_1">
      <!-- 200 -->
      <g transform="translate(256.201705 236.252555)scale(0.1 -0.1)">
       <defs>
        <path id="DejaVuSans-32" d="M 1228 531 
L 3431 531 
L 3431 0 
L 469 0 
L 469 531 
Q 828 903 1448 1529 
Q 2069 2156 2228 2338 
Q 2531 2678 2651 2914 
Q 2772 3150 2772 3378 
Q 2772 3750 2511 3984 
Q 2250 4219 1831 4219 
Q 1534 4219 1204 4116 
Q 875 4013 500 3803 
L 500 4441 
Q 881 4594 1212 4672 
Q 1544 4750 1819 4750 
Q 2544 4750 2975 4387 
Q 3406 4025 3406 3419 
Q 3406 3131 3298 2873 
Q 3191 2616 2906 2266 
Q 2828 2175 2409 1742 
Q 1991 1309 1228 531 
z
" transform="scale(0.015625)"/>
        <path id="DejaVuSans-30" d="M 2034 4250 
Q 1547 4250 1301 3770 
Q 1056 3291 1056 2328 
Q 1056 1369 1301 889 
Q 1547 409 2034 409 
Q 2525 409 2770 889 
Q 3016 1369 3016 2328 
Q 3016 3291 2770 3770 
Q 2525 4250 2034 4250 
z
M 2034 4750 
Q 2819 4750 3233 4129 
Q 3647 3509 3647 2328 
Q 3647 1150 3233 529 
Q 2819 -91 2034 -91 
Q 1250 -91 836 529 
Q 422 1150 422 2328 
Q 422 3509 836 4129 
Q 1250 4750 2034 4750 
z
" transform="scale(0.015625)"/>
       </defs>
       <use xlink:href="#DejaVuSans-32"/>
       <use xlink:href="#DejaVuSans-30" x="63.623047"/>
       <use xlink:href="#DejaVuSans-30" x="127.246094"/>
      </g>
     </g>
    </g>
    <g id="xtick_2">
     <g id="line2d_2">
      <g>
       <use xlink:href="#mc5d6e6ddb8" x="428.072727" y="221.654118" style="stroke: #000000; stroke-width: 0.8"/>
      </g>
     </g>
     <g id="text_2">
      <!-- 400 -->
      <g transform="translate(418.528977 236.252555)scale(0.1 -0.1)">
       <defs>
        <path id="DejaVuSans-34" d="M 2419 4116 
L 825 1625 
L 2419 1625 
L 2419 4116 
z
M 2253 4666 
L 3047 4666 
L 3047 1625 
L 3713 1625 
L 3713 1100 
L 3047 1100 
L 3047 0 
L 2419 0 
L 2419 1100 
L 313 1100 
L 313 1709 
L 2253 4666 
z
" transform="scale(0.015625)"/>
       </defs>
       <use xlink:href="#DejaVuSans-34"/>
       <use xlink:href="#DejaVuSans-30" x="63.623047"/>
       <use xlink:href="#DejaVuSans-30" x="127.246094"/>
      </g>
     </g>
    </g>
    <g id="xtick_3">
     <g id="line2d_3">
      <g>
       <use xlink:href="#mc5d6e6ddb8" x="590.4" y="221.654118" style="stroke: #000000; stroke-width: 0.8"/>
      </g>
     </g>
     <g id="text_3">
      <!-- 600 -->
      <g transform="translate(580.85625 236.252555)scale(0.1 -0.1)">
       <defs>
        <path id="DejaVuSans-36" d="M 2113 2584 
Q 1688 2584 1439 2293 
Q 1191 2003 1191 1497 
Q 1191 994 1439 701 
Q 1688 409 2113 409 
Q 2538 409 2786 701 
Q 3034 994 3034 1497 
Q 3034 2003 2786 2293 
Q 2538 2584 2113 2584 
z
M 3366 4563 
L 3366 3988 
Q 3128 4100 2886 4159 
Q 2644 4219 2406 4219 
Q 1781 4219 1451 3797 
Q 1122 3375 1075 2522 
Q 1259 2794 1537 2939 
Q 1816 3084 2150 3084 
Q 2853 3084 3261 2657 
Q 3669 2231 3669 1497 
Q 3669 778 3244 343 
Q 2819 -91 2113 -91 
Q 1303 -91 875 529 
Q 447 1150 447 2328 
Q 447 3434 972 4092 
Q 1497 4750 2381 4750 
Q 2619 4750 2861 4703 
Q 3103 4656 3366 4563 
z
" transform="scale(0.015625)"/>
       </defs>
       <use xlink:href="#DejaVuSans-36"/>
       <use xlink:href="#DejaVuSans-30" x="63.623047"/>
       <use xlink:href="#DejaVuSans-30" x="127.246094"/>
      </g>
     </g>
    </g>
    <g id="xtick_4">
     <g id="line2d_4">
      <g>
       <use xlink:href="#mc5d6e6ddb8" x="752.727273" y="221.654118" style="stroke: #000000; stroke-width: 0.8"/>
      </g>
     </g>
     <g id="text_4">
      <!-- 800 -->
      <g transform="translate(743.183523 236.252555)scale(0.1 -0.1)">
       <defs>
        <path id="DejaVuSans-38" d="M 2034 2216 
Q 1584 2216 1326 1975 
Q 1069 1734 1069 1313 
Q 1069 891 1326 650 
Q 1584 409 2034 409 
Q 2484 409 2743 651 
Q 3003 894 3003 1313 
Q 3003 1734 2745 1975 
Q 2488 2216 2034 2216 
z
M 1403 2484 
Q 997 2584 770 2862 
Q 544 3141 544 3541 
Q 544 4100 942 4425 
Q 1341 4750 2034 4750 
Q 2731 4750 3128 4425 
Q 3525 4100 3525 3541 
Q 3525 3141 3298 2862 
Q 3072 2584 2669 2484 
Q 3125 2378 3379 2068 
Q 3634 1759 3634 1313 
Q 3634 634 3220 271 
Q 2806 -91 2034 -91 
Q 1263 -91 848 271 
Q 434 634 434 1313 
Q 434 1759 690 2068 
Q 947 2378 1403 2484 
z
M 1172 3481 
Q 1172 3119 1398 2916 
Q 1625 2713 2034 2713 
Q 2441 2713 2670 2916 
Q 2900 3119 2900 3481 
Q 2900 3844 2670 4047 
Q 2441 4250 2034 4250 
Q 1625 4250 1398 4047 
Q 1172 3844 1172 3481 
z
" transform="scale(0.015625)"/>
       </defs>
       <use xlink:href="#DejaVuSans-38"/>
       <use xlink:href="#DejaVuSans-30" x="63.623047"/>
       <use xlink:href="#DejaVuSans-30" x="127.246094"/>
      </g>
     </g>
    </g>
    <g id="xtick_5">
     <g id="line2d_5">
      <g>
       <use xlink:href="#mc5d6e6ddb8" x="915.054545" y="221.654118" style="stroke: #000000; stroke-width: 0.8"/>
      </g>
     </g>
     <g id="text_5">
      <!-- 1000 -->
      <g transform="translate(902.329545 236.252555)scale(0.1 -0.1)">
       <defs>
        <path id="DejaVuSans-31" d="M 794 531 
L 1825 531 
L 1825 4091 
L 703 3866 
L 703 4441 
L 1819 4666 
L 2450 4666 
L 2450 531 
L 3481 531 
L 3481 0 
L 794 0 
L 794 531 
z
" transform="scale(0.015625)"/>
       </defs>
       <use xlink:href="#DejaVuSans-31"/>
       <use xlink:href="#DejaVuSans-30" x="63.623047"/>
       <use xlink:href="#DejaVuSans-30" x="127.246094"/>
       <use xlink:href="#DejaVuSans-30" x="190.869141"/>
      </g>
     </g>
    </g>
   </g>
   <g id="matplotlib.axis_2">
    <g id="ytick_1">
     <g id="line2d_6">
      <defs>
       <path id="mcbebda572b" d="M 0 0 
L -3.5 0 
" style="stroke: #000000; stroke-width: 0.8"/>
      </defs>
      <g>
       <use xlink:href="#mcbebda572b" x="144" y="215.561677" style="stroke: #000000; stroke-width: 0.8"/>
      </g>
     </g>
     <g id="text_6">
      <!-- 0 -->
      <g transform="translate(130.6375 219.360896)scale(0.1 -0.1)">
       <use xlink:href="#DejaVuSans-30"/>
      </g>
     </g>
    </g>
    <g id="ytick_2">
     <g id="line2d_7">
      <g>
       <use xlink:href="#mcbebda572b" x="144" y="191.268924" style="stroke: #000000; stroke-width: 0.8"/>
      </g>
     </g>
     <g id="text_7">
      <!-- 2000 -->
      <g transform="translate(111.55 195.068142)scale(0.1 -0.1)">
       <use xlink:href="#DejaVuSans-32"/>
       <use xlink:href="#DejaVuSans-30" x="63.623047"/>
       <use xlink:href="#DejaVuSans-30" x="127.246094"/>
       <use xlink:href="#DejaVuSans-30" x="190.869141"/>
      </g>
     </g>
    </g>
    <g id="ytick_3">
     <g id="line2d_8">
      <g>
       <use xlink:href="#mcbebda572b" x="144" y="166.97617" style="stroke: #000000; stroke-width: 0.8"/>
      </g>
     </g>
     <g id="text_8">
      <!-- 4000 -->
      <g transform="translate(111.55 170.775389)scale(0.1 -0.1)">
       <use xlink:href="#DejaVuSans-34"/>
       <use xlink:href="#DejaVuSans-30" x="63.623047"/>
       <use xlink:href="#DejaVuSans-30" x="127.246094"/>
       <use xlink:href="#DejaVuSans-30" x="190.869141"/>
      </g>
     </g>
    </g>
    <g id="ytick_4">
     <g id="line2d_9">
      <g>
       <use xlink:href="#mcbebda572b" x="144" y="142.683416" style="stroke: #000000; stroke-width: 0.8"/>
      </g>
     </g>
     <g id="text_9">
      <!-- 6000 -->
      <g transform="translate(111.55 146.482635)scale(0.1 -0.1)">
       <use xlink:href="#DejaVuSans-36"/>
       <use xlink:href="#DejaVuSans-30" x="63.623047"/>
       <use xlink:href="#DejaVuSans-30" x="127.246094"/>
       <use xlink:href="#DejaVuSans-30" x="190.869141"/>
      </g>
     </g>
    </g>
    <g id="ytick_5">
     <g id="line2d_10">
      <g>
       <use xlink:href="#mcbebda572b" x="144" y="118.390663" style="stroke: #000000; stroke-width: 0.8"/>
      </g>
     </g>
     <g id="text_10">
      <!-- 8000 -->
      <g transform="translate(111.55 122.189882)scale(0.1 -0.1)">
       <use xlink:href="#DejaVuSans-38"/>
       <use xlink:href="#DejaVuSans-30" x="63.623047"/>
       <use xlink:href="#DejaVuSans-30" x="127.246094"/>
       <use xlink:href="#DejaVuSans-30" x="190.869141"/>
      </g>
     </g>
    </g>
    <g id="ytick_6">
     <g id="line2d_11">
      <g>
       <use xlink:href="#mcbebda572b" x="144" y="94.097909" style="stroke: #000000; stroke-width: 0.8"/>
      </g>
     </g>
     <g id="text_11">
      <!-- 10000 -->
      <g transform="translate(105.1875 97.897128)scale(0.1 -0.1)">
       <use xlink:href="#DejaVuSans-31"/>
       <use xlink:href="#DejaVuSans-30" x="63.623047"/>
       <use xlink:href="#DejaVuSans-30" x="127.246094"/>
       <use xlink:href="#DejaVuSans-30" x="190.869141"/>
       <use xlink:href="#DejaVuSans-30" x="254.492188"/>
      </g>
     </g>
    </g>
   </g>
   <g id="line2d_12">
    <path d="M 184.581818 215.092827 
L 265.745455 213.804097 
L 346.909091 212.321024 
L 428.072727 210.234276 
L 509.236364 206.411812 
L 590.4 202.489747 
L 671.563636 194.8849 
L 752.727273 188.407237 
L 833.890909 180.325038 
L 915.054545 164.184933 
L 996.218182 150.615 
" clip-path="url(#p8bb6cec06d)" style="fill: none; stroke: #1f77b4; stroke-width: 1.5; stroke-linecap: square"/>
    <defs>
     <path id="me6a03e91cc" d="M 0 2.5 
C 0.663008 2.5 1.29895 2.236584 1.767767 1.767767 
C 2.236584 1.29895 2.5 0.663008 2.5 0 
C 2.5 -0.663008 2.236584 -1.29895 1.767767 -1.767767 
C 1.29895 -2.236584 0.663008 -2.5 0 -2.5 
C -0.663008 -2.5 -1.29895 -2.236584 -1.767767 -1.767767 
C -2.236584 -1.29895 -2.5 -0.663008 -2.5 0 
C -2.5 0.663008 -2.236584 1.29895 -1.767767 1.767767 
C -1.29895 2.236584 -0.663008 2.5 0 2.5 
z
" style="stroke: #1f77b4"/>
    </defs>
    <g clip-path="url(#p8bb6cec06d)">
     <use xlink:href="#me6a03e91cc" x="184.581818" y="215.092827" style="fill: #1f77b4; stroke: #1f77b4"/>
     <use xlink:href="#me6a03e91cc" x="265.745455" y="213.804097" style="fill: #1f77b4; stroke: #1f77b4"/>
     <use xlink:href="#me6a03e91cc" x="346.909091" y="212.321024" style="fill: #1f77b4; stroke: #1f77b4"/>
     <use xlink:href="#me6a03e91cc" x="428.072727" y="210.234276" style="fill: #1f77b4; stroke: #1f77b4"/>
     <use xlink:href="#me6a03e91cc" x="509.236364" y="206.411812" style="fill: #1f77b4; stroke: #1f77b4"/>
     <use xlink:href="#me6a03e91cc" x="590.4" y="202.489747" style="fill: #1f77b4; stroke: #1f77b4"/>
     <use xlink:href="#me6a03e91cc" x="671.563636" y="194.8849" style="fill: #1f77b4; stroke: #1f77b4"/>
     <use xlink:href="#me6a03e91cc" x="752.727273" y="188.407237" style="fill: #1f77b4; stroke: #1f77b4"/>
     <use xlink:href="#me6a03e91cc" x="833.890909" y="180.325038" style="fill: #1f77b4; stroke: #1f77b4"/>
     <use xlink:href="#me6a03e91cc" x="915.054545" y="164.184933" style="fill: #1f77b4; stroke: #1f77b4"/>
     <use xlink:href="#me6a03e91cc" x="996.218182" y="150.615" style="fill: #1f77b4; stroke: #1f77b4"/>
    </g>
   </g>
   <g id="line2d_13">
    <path d="M 184.581818 214.993227 
L 265.745455 213.744579 
L 346.909091 212.650191 
L 428.072727 210.973991 
L 509.236364 206.312211 
L 590.4 203.854999 
L 671.563636 194.696631 
L 752.727273 188.713326 
L 833.890909 177.535015 
L 915.054545 165.844128 
L 996.218182 155.5938 
" clip-path="url(#p8bb6cec06d)" style="fill: none; stroke: #ff7f0e; stroke-width: 1.5; stroke-linecap: square"/>
    <defs>
     <path id="m58d944bf12" d="M 0 2.5 
C 0.663008 2.5 1.29895 2.236584 1.767767 1.767767 
C 2.236584 1.29895 2.5 0.663008 2.5 0 
C 2.5 -0.663008 2.236584 -1.29895 1.767767 -1.767767 
C 1.29895 -2.236584 0.663008 -2.5 0 -2.5 
C -0.663008 -2.5 -1.29895 -2.236584 -1.767767 -1.767767 
C -2.236584 -1.29895 -2.5 -0.663008 -2.5 0 
C -2.5 0.663008 -2.236584 1.29895 -1.767767 1.767767 
C -1.29895 2.236584 -0.663008 2.5 0 2.5 
z
" style="stroke: #ff7f0e"/>
    </defs>
    <g clip-path="url(#p8bb6cec06d)">
     <use xlink:href="#m58d944bf12" x="184.581818" y="214.993227" style="fill: #ff7f0e; stroke: #ff7f0e"/>
     <use xlink:href="#m58d944bf12" x="265.745455" y="213.744579" style="fill: #ff7f0e; stroke: #ff7f0e"/>
     <use xlink:href="#m58d944bf12" x="346.909091" y="212.650191" style="fill: #ff7f0e; stroke: #ff7f0e"/>
     <use xlink:href="#m58d944bf12" x="428.072727" y="210.973991" style="fill: #ff7f0e; stroke: #ff7f0e"/>
     <use xlink:href="#m58d944bf12" x="509.236364" y="206.312211" style="fill: #ff7f0e; stroke: #ff7f0e"/>
     <use xlink:href="#m58d944bf12" x="590.4" y="203.854999" style="fill: #ff7f0e; stroke: #ff7f0e"/>
     <use xlink:href="#m58d944bf12" x="671.563636" y="194.696631" style="fill: #ff7f0e; stroke: #ff7f0e"/>
     <use xlink:href="#m58d944bf12" x="752.727273" y="188.713326" style="fill: #ff7f0e; stroke: #ff7f0e"/>
     <use xlink:href="#m58d944bf12" x="833.890909" y="177.535015" style="fill: #ff7f0e; stroke: #ff7f0e"/>
     <use xlink:href="#m58d944bf12" x="915.054545" y="165.844128" style="fill: #ff7f0e; stroke: #ff7f0e"/>
     <use xlink:href="#m58d944bf12" x="996.218182" y="155.5938" style="fill: #ff7f0e; stroke: #ff7f0e"/>
    </g>
   </g>
   <g id="line2d_14">
    <path d="M 184.581818 215.006588 
L 265.745455 213.839321 
L 346.909091 212.312521 
L 428.072727 209.951266 
L 509.236364 206.218684 
L 590.4 199.473801 
L 671.563636 192.444693 
L 752.727273 183.606989 
L 833.890909 172.049712 
L 915.054545 160.177843 
L 996.218182 143.686707 
" clip-path="url(#p8bb6cec06d)" style="fill: none; stroke: #2ca02c; stroke-width: 1.5; stroke-linecap: square"/>
    <defs>
     <path id="m162dc1bad0" d="M 0 2.5 
C 0.663008 2.5 1.29895 2.236584 1.767767 1.767767 
C 2.236584 1.29895 2.5 0.663008 2.5 0 
C 2.5 -0.663008 2.236584 -1.29895 1.767767 -1.767767 
C 1.29895 -2.236584 0.663008 -2.5 0 -2.5 
C -0.663008 -2.5 -1.29895 -2.236584 -1.767767 -1.767767 
C -2.236584 -1.29895 -2.5 -0.663008 -2.5 0 
C -2.5 0.663008 -2.236584 1.29895 -1.767767 1.767767 
C -1.29895 2.236584 -0.663008 2.5 0 2.5 
z
" style="stroke: #2ca02c"/>
    </defs>
    <g clip-path="url(#p8bb6cec06d)">
     <use xlink:href="#m162dc1bad0" x="184.581818" y="215.006588" style="fill: #2ca02c; stroke: #2ca02c"/>
     <use xlink:href="#m162dc1bad0" x="265.745455" y="213.839321" style="fill: #2ca02c; stroke: #2ca02c"/>
     <use xlink:href="#m162dc1bad0" x="346.909091" y="212.312521" style="fill: #2ca02c; stroke: #2ca02c"/>
     <use xlink:href="#m162dc1bad0" x="428.072727" y="209.951266" style="fill: #2ca02c; stroke: #2ca02c"/>
     <use xlink:href="#m162dc1bad0" x="509.236364" y="206.218684" style="fill: #2ca02c; stroke: #2ca02c"/>
     <use xlink:href="#m162dc1bad0" x="590.4" y="199.473801" style="fill: #2ca02c; stroke: #2ca02c"/>
     <use xlink:href="#m162dc1bad0" x="671.563636" y="192.444693" style="fill: #2ca02c; stroke: #2ca02c"/>
     <use xlink:href="#m162dc1bad0" x="752.727273" y="183.606989" style="fill: #2ca02c; stroke: #2ca02c"/>
     <use xlink:href="#m162dc1bad0" x="833.890909" y="172.049712" style="fill: #2ca02c; stroke: #2ca02c"/>
     <use xlink:href="#m162dc1bad0" x="915.054545" y="160.177843" style="fill: #2ca02c; stroke: #2ca02c"/>
     <use xlink:href="#m162dc1bad0" x="996.218182" y="143.686707" style="fill: #2ca02c; stroke: #2ca02c"/>
    </g>
   </g>
   <g id="line2d_15">
    <path d="M 184.581818 215.106188 
L 265.745455 213.821101 
L 346.909091 211.731925 
L 428.072727 206.585505 
L 509.236364 203.174802 
L 590.4 191.667325 
L 671.563636 179.021732 
L 752.727273 161.891697 
L 833.890909 137.023205 
L 915.054545 108.447639 
L 996.218182 84.300642 
" clip-path="url(#p8bb6cec06d)" style="fill: none; stroke: #d62728; stroke-width: 1.5; stroke-linecap: square"/>
    <defs>
     <path id="m836e566467" d="M 0 2.5 
C 0.663008 2.5 1.29895 2.236584 1.767767 1.767767 
C 2.236584 1.29895 2.5 0.663008 2.5 0 
C 2.5 -0.663008 2.236584 -1.29895 1.767767 -1.767767 
C 1.29895 -2.236584 0.663008 -2.5 0 -2.5 
C -0.663008 -2.5 -1.29895 -2.236584 -1.767767 -1.767767 
C -2.236584 -1.29895 -2.5 -0.663008 -2.5 0 
C -2.5 0.663008 -2.236584 1.29895 -1.767767 1.767767 
C -1.29895 2.236584 -0.663008 2.5 0 2.5 
z
" style="stroke: #d62728"/>
    </defs>
    <g clip-path="url(#p8bb6cec06d)">
     <use xlink:href="#m836e566467" x="184.581818" y="215.106188" style="fill: #d62728; stroke: #d62728"/>
     <use xlink:href="#m836e566467" x="265.745455" y="213.821101" style="fill: #d62728; stroke: #d62728"/>
     <use xlink:href="#m836e566467" x="346.909091" y="211.731925" style="fill: #d62728; stroke: #d62728"/>
     <use xlink:href="#m836e566467" x="428.072727" y="206.585505" style="fill: #d62728; stroke: #d62728"/>
     <use xlink:href="#m836e566467" x="509.236364" y="203.174802" style="fill: #d62728; stroke: #d62728"/>
     <use xlink:href="#m836e566467" x="590.4" y="191.667325" style="fill: #d62728; stroke: #d62728"/>
     <use xlink:href="#m836e566467" x="671.563636" y="179.021732" style="fill: #d62728; stroke: #d62728"/>
     <use xlink:href="#m836e566467" x="752.727273" y="161.891697" style="fill: #d62728; stroke: #d62728"/>
     <use xlink:href="#m836e566467" x="833.890909" y="137.023205" style="fill: #d62728; stroke: #d62728"/>
     <use xlink:href="#m836e566467" x="915.054545" y="108.447639" style="fill: #d62728; stroke: #d62728"/>
     <use xlink:href="#m836e566467" x="996.218182" y="84.300642" style="fill: #d62728; stroke: #d62728"/>
    </g>
   </g>
   <g id="line2d_16">
    <path d="M 184.581818 215.096471 
L 265.745455 214.268088 
L 346.909091 213.747009 
L 428.072727 206.436104 
L 509.236364 200.750385 
L 590.4 193.267003 
L 671.563636 179.56589 
L 752.727273 164.019742 
L 833.890909 141.384969 
L 915.054545 123.523722 
L 996.218182 97.781905 
" clip-path="url(#p8bb6cec06d)" style="fill: none; stroke: #9467bd; stroke-width: 1.5; stroke-linecap: square"/>
    <defs>
     <path id="m6c20a7b357" d="M 0 2.5 
C 0.663008 2.5 1.29895 2.236584 1.767767 1.767767 
C 2.236584 1.29895 2.5 0.663008 2.5 0 
C 2.5 -0.663008 2.236584 -1.29895 1.767767 -1.767767 
C 1.29895 -2.236584 0.663008 -2.5 0 -2.5 
C -0.663008 -2.5 -1.29895 -2.236584 -1.767767 -1.767767 
C -2.236584 -1.29895 -2.5 -0.663008 -2.5 0 
C -2.5 0.663008 -2.236584 1.29895 -1.767767 1.767767 
C -1.29895 2.236584 -0.663008 2.5 0 2.5 
z
" style="stroke: #9467bd"/>
    </defs>
    <g clip-path="url(#p8bb6cec06d)">
     <use xlink:href="#m6c20a7b357" x="184.581818" y="215.096471" style="fill: #9467bd; stroke: #9467bd"/>
     <use xlink:href="#m6c20a7b357" x="265.745455" y="214.268088" style="fill: #9467bd; stroke: #9467bd"/>
     <use xlink:href="#m6c20a7b357" x="346.909091" y="213.747009" style="fill: #9467bd; stroke: #9467bd"/>
     <use xlink:href="#m6c20a7b357" x="428.072727" y="206.436104" style="fill: #9467bd; stroke: #9467bd"/>
     <use xlink:href="#m6c20a7b357" x="509.236364" y="200.750385" style="fill: #9467bd; stroke: #9467bd"/>
     <use xlink:href="#m6c20a7b357" x="590.4" y="193.267003" style="fill: #9467bd; stroke: #9467bd"/>
     <use xlink:href="#m6c20a7b357" x="671.563636" y="179.56589" style="fill: #9467bd; stroke: #9467bd"/>
     <use xlink:href="#m6c20a7b357" x="752.727273" y="164.019742" style="fill: #9467bd; stroke: #9467bd"/>
     <use xlink:href="#m6c20a7b357" x="833.890909" y="141.384969" style="fill: #9467bd; stroke: #9467bd"/>
     <use xlink:href="#m6c20a7b357" x="915.054545" y="123.523722" style="fill: #9467bd; stroke: #9467bd"/>
     <use xlink:href="#m6c20a7b357" x="996.218182" y="97.781905" style="fill: #9467bd; stroke: #9467bd"/>
    </g>
   </g>
   <g id="line2d_17">
    <path d="M 184.581818 215.103759 
L 265.745455 213.542949 
L 346.909091 212.753435 
L 428.072727 210.189335 
L 509.236364 202.91244 
L 590.4 191.061221 
L 671.563636 182.907358 
L 752.727273 164.335548 
L 833.890909 148.171149 
L 915.054545 121.404179 
L 996.218182 97.654368 
" clip-path="url(#p8bb6cec06d)" style="fill: none; stroke: #8c564b; stroke-width: 1.5; stroke-linecap: square"/>
    <defs>
     <path id="m00884b24b2" d="M 0 2.5 
C 0.663008 2.5 1.29895 2.236584 1.767767 1.767767 
C 2.236584 1.29895 2.5 0.663008 2.5 0 
C 2.5 -0.663008 2.236584 -1.29895 1.767767 -1.767767 
C 1.29895 -2.236584 0.663008 -2.5 0 -2.5 
C -0.663008 -2.5 -1.29895 -2.236584 -1.767767 -1.767767 
C -2.236584 -1.29895 -2.5 -0.663008 -2.5 0 
C -2.5 0.663008 -2.236584 1.29895 -1.767767 1.767767 
C -1.29895 2.236584 -0.663008 2.5 0 2.5 
z
" style="stroke: #8c564b"/>
    </defs>
    <g clip-path="url(#p8bb6cec06d)">
     <use xlink:href="#m00884b24b2" x="184.581818" y="215.103759" style="fill: #8c564b; stroke: #8c564b"/>
     <use xlink:href="#m00884b24b2" x="265.745455" y="213.542949" style="fill: #8c564b; stroke: #8c564b"/>
     <use xlink:href="#m00884b24b2" x="346.909091" y="212.753435" style="fill: #8c564b; stroke: #8c564b"/>
     <use xlink:href="#m00884b24b2" x="428.072727" y="210.189335" style="fill: #8c564b; stroke: #8c564b"/>
     <use xlink:href="#m00884b24b2" x="509.236364" y="202.91244" style="fill: #8c564b; stroke: #8c564b"/>
     <use xlink:href="#m00884b24b2" x="590.4" y="191.061221" style="fill: #8c564b; stroke: #8c564b"/>
     <use xlink:href="#m00884b24b2" x="671.563636" y="182.907358" style="fill: #8c564b; stroke: #8c564b"/>
     <use xlink:href="#m00884b24b2" x="752.727273" y="164.335548" style="fill: #8c564b; stroke: #8c564b"/>
     <use xlink:href="#m00884b24b2" x="833.890909" y="148.171149" style="fill: #8c564b; stroke: #8c564b"/>
     <use xlink:href="#m00884b24b2" x="915.054545" y="121.404179" style="fill: #8c564b; stroke: #8c564b"/>
     <use xlink:href="#m00884b24b2" x="996.218182" y="97.654368" style="fill: #8c564b; stroke: #8c564b"/>
    </g>
   </g>
   <g id="line2d_18">
    <path d="M 184.581818 215.113476 
L 265.745455 214.258371 
L 346.909091 212.763152 
L 428.072727 208.94919 
L 509.236364 202.207951 
L 590.4 191.946691 
L 671.563636 175.951128 
L 752.727273 159.262006 
L 833.890909 139.542363 
L 915.054545 115.604284 
L 996.218182 84.329793 
" clip-path="url(#p8bb6cec06d)" style="fill: none; stroke: #e377c2; stroke-width: 1.5; stroke-linecap: square"/>
    <defs>
     <path id="m678654480a" d="M 0 2.5 
C 0.663008 2.5 1.29895 2.236584 1.767767 1.767767 
C 2.236584 1.29895 2.5 0.663008 2.5 0 
C 2.5 -0.663008 2.236584 -1.29895 1.767767 -1.767767 
C 1.29895 -2.236584 0.663008 -2.5 0 -2.5 
C -0.663008 -2.5 -1.29895 -2.236584 -1.767767 -1.767767 
C -2.236584 -1.29895 -2.5 -0.663008 -2.5 0 
C -2.5 0.663008 -2.236584 1.29895 -1.767767 1.767767 
C -1.29895 2.236584 -0.663008 2.5 0 2.5 
z
" style="stroke: #e377c2"/>
    </defs>
    <g clip-path="url(#p8bb6cec06d)">
     <use xlink:href="#m678654480a" x="184.581818" y="215.113476" style="fill: #e377c2; stroke: #e377c2"/>
     <use xlink:href="#m678654480a" x="265.745455" y="214.258371" style="fill: #e377c2; stroke: #e377c2"/>
     <use xlink:href="#m678654480a" x="346.909091" y="212.763152" style="fill: #e377c2; stroke: #e377c2"/>
     <use xlink:href="#m678654480a" x="428.072727" y="208.94919" style="fill: #e377c2; stroke: #e377c2"/>
     <use xlink:href="#m678654480a" x="509.236364" y="202.207951" style="fill: #e377c2; stroke: #e377c2"/>
     <use xlink:href="#m678654480a" x="590.4" y="191.946691" style="fill: #e377c2; stroke: #e377c2"/>
     <use xlink:href="#m678654480a" x="671.563636" y="175.951128" style="fill: #e377c2; stroke: #e377c2"/>
     <use xlink:href="#m678654480a" x="752.727273" y="159.262006" style="fill: #e377c2; stroke: #e377c2"/>
     <use xlink:href="#m678654480a" x="833.890909" y="139.542363" style="fill: #e377c2; stroke: #e377c2"/>
     <use xlink:href="#m678654480a" x="915.054545" y="115.604284" style="fill: #e377c2; stroke: #e377c2"/>
     <use xlink:href="#m678654480a" x="996.218182" y="84.329793" style="fill: #e377c2; stroke: #e377c2"/>
    </g>
   </g>
   <g id="patch_3">
    <path d="M 144 221.654118 
L 144 77.76 
" style="fill: none; stroke: #000000; stroke-width: 0.8; stroke-linejoin: miter; stroke-linecap: square"/>
   </g>
   <g id="patch_4">
    <path d="M 1036.8 221.654118 
L 1036.8 77.76 
" style="fill: none; stroke: #000000; stroke-width: 0.8; stroke-linejoin: miter; stroke-linecap: square"/>
   </g>
   <g id="patch_5">
    <path d="M 144 221.654118 
L 1036.8 221.654118 
" style="fill: none; stroke: #000000; stroke-width: 0.8; stroke-linejoin: miter; stroke-linecap: square"/>
   </g>
   <g id="patch_6">
    <path d="M 144 77.76 
L 1036.8 77.76 
" style="fill: none; stroke: #000000; stroke-width: 0.8; stroke-linejoin: miter; stroke-linecap: square"/>
   </g>
   <g id="text_12">
    <!-- cost_final -->
    <g transform="translate(562.026562 71.76)scale(0.12 -0.12)">
     <defs>
      <path id="DejaVuSans-63" d="M 3122 3366 
L 3122 2828 
Q 2878 2963 2633 3030 
Q 2388 3097 2138 3097 
Q 1578 3097 1268 2742 
Q 959 2388 959 1747 
Q 959 1106 1268 751 
Q 1578 397 2138 397 
Q 2388 397 2633 464 
Q 2878 531 3122 666 
L 3122 134 
Q 2881 22 2623 -34 
Q 2366 -91 2075 -91 
Q 1284 -91 818 406 
Q 353 903 353 1747 
Q 353 2603 823 3093 
Q 1294 3584 2113 3584 
Q 2378 3584 2631 3529 
Q 2884 3475 3122 3366 
z
" transform="scale(0.015625)"/>
      <path id="DejaVuSans-6f" d="M 1959 3097 
Q 1497 3097 1228 2736 
Q 959 2375 959 1747 
Q 959 1119 1226 758 
Q 1494 397 1959 397 
Q 2419 397 2687 759 
Q 2956 1122 2956 1747 
Q 2956 2369 2687 2733 
Q 2419 3097 1959 3097 
z
M 1959 3584 
Q 2709 3584 3137 3096 
Q 3566 2609 3566 1747 
Q 3566 888 3137 398 
Q 2709 -91 1959 -91 
Q 1206 -91 779 398 
Q 353 888 353 1747 
Q 353 2609 779 3096 
Q 1206 3584 1959 3584 
z
" transform="scale(0.015625)"/>
      <path id="DejaVuSans-73" d="M 2834 3397 
L 2834 2853 
Q 2591 2978 2328 3040 
Q 2066 3103 1784 3103 
Q 1356 3103 1142 2972 
Q 928 2841 928 2578 
Q 928 2378 1081 2264 
Q 1234 2150 1697 2047 
L 1894 2003 
Q 2506 1872 2764 1633 
Q 3022 1394 3022 966 
Q 3022 478 2636 193 
Q 2250 -91 1575 -91 
Q 1294 -91 989 -36 
Q 684 19 347 128 
L 347 722 
Q 666 556 975 473 
Q 1284 391 1588 391 
Q 1994 391 2212 530 
Q 2431 669 2431 922 
Q 2431 1156 2273 1281 
Q 2116 1406 1581 1522 
L 1381 1569 
Q 847 1681 609 1914 
Q 372 2147 372 2553 
Q 372 3047 722 3315 
Q 1072 3584 1716 3584 
Q 2034 3584 2315 3537 
Q 2597 3491 2834 3397 
z
" transform="scale(0.015625)"/>
      <path id="DejaVuSans-74" d="M 1172 4494 
L 1172 3500 
L 2356 3500 
L 2356 3053 
L 1172 3053 
L 1172 1153 
Q 1172 725 1289 603 
Q 1406 481 1766 481 
L 2356 481 
L 2356 0 
L 1766 0 
Q 1100 0 847 248 
Q 594 497 594 1153 
L 594 3053 
L 172 3053 
L 172 3500 
L 594 3500 
L 594 4494 
L 1172 4494 
z
" transform="scale(0.015625)"/>
      <path id="DejaVuSans-5f" d="M 3263 -1063 
L 3263 -1509 
L -63 -1509 
L -63 -1063 
L 3263 -1063 
z
" transform="scale(0.015625)"/>
      <path id="DejaVuSans-66" d="M 2375 4863 
L 2375 4384 
L 1825 4384 
Q 1516 4384 1395 4259 
Q 1275 4134 1275 3809 
L 1275 3500 
L 2222 3500 
L 2222 3053 
L 1275 3053 
L 1275 0 
L 697 0 
L 697 3053 
L 147 3053 
L 147 3500 
L 697 3500 
L 697 3744 
Q 697 4328 969 4595 
Q 1241 4863 1831 4863 
L 2375 4863 
z
" transform="scale(0.015625)"/>
      <path id="DejaVuSans-69" d="M 603 3500 
L 1178 3500 
L 1178 0 
L 603 0 
L 603 3500 
z
M 603 4863 
L 1178 4863 
L 1178 4134 
L 603 4134 
L 603 4863 
z
" transform="scale(0.015625)"/>
      <path id="DejaVuSans-6e" d="M 3513 2113 
L 3513 0 
L 2938 0 
L 2938 2094 
Q 2938 2591 2744 2837 
Q 2550 3084 2163 3084 
Q 1697 3084 1428 2787 
Q 1159 2491 1159 1978 
L 1159 0 
L 581 0 
L 581 3500 
L 1159 3500 
L 1159 2956 
Q 1366 3272 1645 3428 
Q 1925 3584 2291 3584 
Q 2894 3584 3203 3211 
Q 3513 2838 3513 2113 
z
" transform="scale(0.015625)"/>
      <path id="DejaVuSans-61" d="M 2194 1759 
Q 1497 1759 1228 1600 
Q 959 1441 959 1056 
Q 959 750 1161 570 
Q 1363 391 1709 391 
Q 2188 391 2477 730 
Q 2766 1069 2766 1631 
L 2766 1759 
L 2194 1759 
z
M 3341 1997 
L 3341 0 
L 2766 0 
L 2766 531 
Q 2569 213 2275 61 
Q 1981 -91 1556 -91 
Q 1019 -91 701 211 
Q 384 513 384 1019 
Q 384 1609 779 1909 
Q 1175 2209 1959 2209 
L 2766 2209 
L 2766 2266 
Q 2766 2663 2505 2880 
Q 2244 3097 1772 3097 
Q 1472 3097 1187 3025 
Q 903 2953 641 2809 
L 641 3341 
Q 956 3463 1253 3523 
Q 1550 3584 1831 3584 
Q 2591 3584 2966 3190 
Q 3341 2797 3341 1997 
z
" transform="scale(0.015625)"/>
      <path id="DejaVuSans-6c" d="M 603 4863 
L 1178 4863 
L 1178 0 
L 603 0 
L 603 4863 
z
" transform="scale(0.015625)"/>
     </defs>
     <use xlink:href="#DejaVuSans-63"/>
     <use xlink:href="#DejaVuSans-6f" x="54.980469"/>
     <use xlink:href="#DejaVuSans-73" x="116.162109"/>
     <use xlink:href="#DejaVuSans-74" x="168.261719"/>
     <use xlink:href="#DejaVuSans-5f" x="207.470703"/>
     <use xlink:href="#DejaVuSans-66" x="257.470703"/>
     <use xlink:href="#DejaVuSans-69" x="292.675781"/>
     <use xlink:href="#DejaVuSans-6e" x="320.458984"/>
     <use xlink:href="#DejaVuSans-61" x="383.837891"/>
     <use xlink:href="#DejaVuSans-6c" x="445.117188"/>
    </g>
   </g>
   <g id="legend_1">
    <g id="patch_7">
     <path d="M 149.831 170.012147 
L 241.572934 170.012147 
Q 243.238934 170.012147 243.238934 168.346147 
L 243.238934 83.591 
Q 243.238934 81.925 241.572934 81.925 
L 149.831 81.925 
Q 148.165 81.925 148.165 83.591 
L 148.165 168.346147 
Q 148.165 170.012147 149.831 170.012147 
z
" style="fill: #ffffff; opacity: 0.8; stroke: #cccccc; stroke-linejoin: miter"/>
    </g>
    <g id="line2d_19">
     <path d="M 151.497 88.670998 
L 159.827 88.670998 
L 168.157 88.670998 
" style="fill: none; stroke: #1f77b4; stroke-width: 1.5; stroke-linecap: square"/>
     <g>
      <use xlink:href="#me6a03e91cc" x="159.827" y="88.670998" style="fill: #1f77b4; stroke: #1f77b4"/>
     </g>
    </g>
    <g id="text_13">
     <!-- tabu1000 -->
     <g transform="translate(174.821 91.586498)scale(0.0833 -0.0833)">
      <defs>
       <path id="DejaVuSans-62" d="M 3116 1747 
Q 3116 2381 2855 2742 
Q 2594 3103 2138 3103 
Q 1681 3103 1420 2742 
Q 1159 2381 1159 1747 
Q 1159 1113 1420 752 
Q 1681 391 2138 391 
Q 2594 391 2855 752 
Q 3116 1113 3116 1747 
z
M 1159 2969 
Q 1341 3281 1617 3432 
Q 1894 3584 2278 3584 
Q 2916 3584 3314 3078 
Q 3713 2572 3713 1747 
Q 3713 922 3314 415 
Q 2916 -91 2278 -91 
Q 1894 -91 1617 61 
Q 1341 213 1159 525 
L 1159 0 
L 581 0 
L 581 4863 
L 1159 4863 
L 1159 2969 
z
" transform="scale(0.015625)"/>
       <path id="DejaVuSans-75" d="M 544 1381 
L 544 3500 
L 1119 3500 
L 1119 1403 
Q 1119 906 1312 657 
Q 1506 409 1894 409 
Q 2359 409 2629 706 
Q 2900 1003 2900 1516 
L 2900 3500 
L 3475 3500 
L 3475 0 
L 2900 0 
L 2900 538 
Q 2691 219 2414 64 
Q 2138 -91 1772 -91 
Q 1169 -91 856 284 
Q 544 659 544 1381 
z
M 1991 3584 
L 1991 3584 
z
" transform="scale(0.015625)"/>
      </defs>
      <use xlink:href="#DejaVuSans-74"/>
      <use xlink:href="#DejaVuSans-61" x="39.208984"/>
      <use xlink:href="#DejaVuSans-62" x="100.488281"/>
      <use xlink:href="#DejaVuSans-75" x="163.964844"/>
      <use xlink:href="#DejaVuSans-31" x="227.34375"/>
      <use xlink:href="#DejaVuSans-30" x="290.966797"/>
      <use xlink:href="#DejaVuSans-30" x="354.589844"/>
      <use xlink:href="#DejaVuSans-30" x="418.212891"/>
     </g>
    </g>
    <g id="line2d_20">
     <path d="M 151.497 100.897877 
L 159.827 100.897877 
L 168.157 100.897877 
" style="fill: none; stroke: #ff7f0e; stroke-width: 1.5; stroke-linecap: square"/>
     <g>
      <use xlink:href="#m58d944bf12" x="159.827" y="100.897877" style="fill: #ff7f0e; stroke: #ff7f0e"/>
     </g>
    </g>
    <g id="text_14">
     <!-- tabu1500 -->
     <g transform="translate(174.821 103.813377)scale(0.0833 -0.0833)">
      <defs>
       <path id="DejaVuSans-35" d="M 691 4666 
L 3169 4666 
L 3169 4134 
L 1269 4134 
L 1269 2991 
Q 1406 3038 1543 3061 
Q 1681 3084 1819 3084 
Q 2600 3084 3056 2656 
Q 3513 2228 3513 1497 
Q 3513 744 3044 326 
Q 2575 -91 1722 -91 
Q 1428 -91 1123 -41 
Q 819 9 494 109 
L 494 744 
Q 775 591 1075 516 
Q 1375 441 1709 441 
Q 2250 441 2565 725 
Q 2881 1009 2881 1497 
Q 2881 1984 2565 2268 
Q 2250 2553 1709 2553 
Q 1456 2553 1204 2497 
Q 953 2441 691 2322 
L 691 4666 
z
" transform="scale(0.015625)"/>
      </defs>
      <use xlink:href="#DejaVuSans-74"/>
      <use xlink:href="#DejaVuSans-61" x="39.208984"/>
      <use xlink:href="#DejaVuSans-62" x="100.488281"/>
      <use xlink:href="#DejaVuSans-75" x="163.964844"/>
      <use xlink:href="#DejaVuSans-31" x="227.34375"/>
      <use xlink:href="#DejaVuSans-35" x="290.966797"/>
      <use xlink:href="#DejaVuSans-30" x="354.589844"/>
      <use xlink:href="#DejaVuSans-30" x="418.212891"/>
     </g>
    </g>
    <g id="line2d_21">
     <path d="M 151.497 113.124755 
L 159.827 113.124755 
L 168.157 113.124755 
" style="fill: none; stroke: #2ca02c; stroke-width: 1.5; stroke-linecap: square"/>
     <g>
      <use xlink:href="#m162dc1bad0" x="159.827" y="113.124755" style="fill: #2ca02c; stroke: #2ca02c"/>
     </g>
    </g>
    <g id="text_15">
     <!-- tabu500 -->
     <g transform="translate(174.821 116.040255)scale(0.0833 -0.0833)">
      <use xlink:href="#DejaVuSans-74"/>
      <use xlink:href="#DejaVuSans-61" x="39.208984"/>
      <use xlink:href="#DejaVuSans-62" x="100.488281"/>
      <use xlink:href="#DejaVuSans-75" x="163.964844"/>
      <use xlink:href="#DejaVuSans-35" x="227.34375"/>
      <use xlink:href="#DejaVuSans-30" x="290.966797"/>
      <use xlink:href="#DejaVuSans-30" x="354.589844"/>
     </g>
    </g>
    <g id="line2d_22">
     <path d="M 151.497 125.351633 
L 159.827 125.351633 
L 168.157 125.351633 
" style="fill: none; stroke: #d62728; stroke-width: 1.5; stroke-linecap: square"/>
     <g>
      <use xlink:href="#m836e566467" x="159.827" y="125.351633" style="fill: #d62728; stroke: #d62728"/>
     </g>
    </g>
    <g id="text_16">
     <!-- sa200 200 0.1 -->
     <g transform="translate(174.821 128.267133)scale(0.0833 -0.0833)">
      <defs>
       <path id="DejaVuSans-20" transform="scale(0.015625)"/>
       <path id="DejaVuSans-2e" d="M 684 794 
L 1344 794 
L 1344 0 
L 684 0 
L 684 794 
z
" transform="scale(0.015625)"/>
      </defs>
      <use xlink:href="#DejaVuSans-73"/>
      <use xlink:href="#DejaVuSans-61" x="52.099609"/>
      <use xlink:href="#DejaVuSans-32" x="113.378906"/>
      <use xlink:href="#DejaVuSans-30" x="177.001953"/>
      <use xlink:href="#DejaVuSans-30" x="240.625"/>
      <use xlink:href="#DejaVuSans-20" x="304.248047"/>
      <use xlink:href="#DejaVuSans-32" x="336.035156"/>
      <use xlink:href="#DejaVuSans-30" x="399.658203"/>
      <use xlink:href="#DejaVuSans-30" x="463.28125"/>
      <use xlink:href="#DejaVuSans-20" x="526.904297"/>
      <use xlink:href="#DejaVuSans-30" x="558.691406"/>
      <use xlink:href="#DejaVuSans-2e" x="622.314453"/>
      <use xlink:href="#DejaVuSans-31" x="654.101562"/>
     </g>
    </g>
    <g id="line2d_23">
     <path d="M 151.497 137.578511 
L 159.827 137.578511 
L 168.157 137.578511 
" style="fill: none; stroke: #9467bd; stroke-width: 1.5; stroke-linecap: square"/>
     <g>
      <use xlink:href="#m6c20a7b357" x="159.827" y="137.578511" style="fill: #9467bd; stroke: #9467bd"/>
     </g>
    </g>
    <g id="text_17">
     <!-- sa500 200 0.1 -->
     <g transform="translate(174.821 140.494011)scale(0.0833 -0.0833)">
      <use xlink:href="#DejaVuSans-73"/>
      <use xlink:href="#DejaVuSans-61" x="52.099609"/>
      <use xlink:href="#DejaVuSans-35" x="113.378906"/>
      <use xlink:href="#DejaVuSans-30" x="177.001953"/>
      <use xlink:href="#DejaVuSans-30" x="240.625"/>
      <use xlink:href="#DejaVuSans-20" x="304.248047"/>
      <use xlink:href="#DejaVuSans-32" x="336.035156"/>
      <use xlink:href="#DejaVuSans-30" x="399.658203"/>
      <use xlink:href="#DejaVuSans-30" x="463.28125"/>
      <use xlink:href="#DejaVuSans-20" x="526.904297"/>
      <use xlink:href="#DejaVuSans-30" x="558.691406"/>
      <use xlink:href="#DejaVuSans-2e" x="622.314453"/>
      <use xlink:href="#DejaVuSans-31" x="654.101562"/>
     </g>
    </g>
    <g id="line2d_24">
     <path d="M 151.497 149.805389 
L 159.827 149.805389 
L 168.157 149.805389 
" style="fill: none; stroke: #8c564b; stroke-width: 1.5; stroke-linecap: square"/>
     <g>
      <use xlink:href="#m00884b24b2" x="159.827" y="149.805389" style="fill: #8c564b; stroke: #8c564b"/>
     </g>
    </g>
    <g id="text_18">
     <!-- sa500 200 0.01 -->
     <g transform="translate(174.821 152.720889)scale(0.0833 -0.0833)">
      <use xlink:href="#DejaVuSans-73"/>
      <use xlink:href="#DejaVuSans-61" x="52.099609"/>
      <use xlink:href="#DejaVuSans-35" x="113.378906"/>
      <use xlink:href="#DejaVuSans-30" x="177.001953"/>
      <use xlink:href="#DejaVuSans-30" x="240.625"/>
      <use xlink:href="#DejaVuSans-20" x="304.248047"/>
      <use xlink:href="#DejaVuSans-32" x="336.035156"/>
      <use xlink:href="#DejaVuSans-30" x="399.658203"/>
      <use xlink:href="#DejaVuSans-30" x="463.28125"/>
      <use xlink:href="#DejaVuSans-20" x="526.904297"/>
      <use xlink:href="#DejaVuSans-30" x="558.691406"/>
      <use xlink:href="#DejaVuSans-2e" x="622.314453"/>
      <use xlink:href="#DejaVuSans-30" x="654.101562"/>
      <use xlink:href="#DejaVuSans-31" x="717.724609"/>
     </g>
    </g>
    <g id="line2d_25">
     <path d="M 151.497 162.032267 
L 159.827 162.032267 
L 168.157 162.032267 
" style="fill: none; stroke: #e377c2; stroke-width: 1.5; stroke-linecap: square"/>
     <g>
      <use xlink:href="#m678654480a" x="159.827" y="162.032267" style="fill: #e377c2; stroke: #e377c2"/>
     </g>
    </g>
    <g id="text_19">
     <!-- sa200 200 0.01 -->
     <g transform="translate(174.821 164.947767)scale(0.0833 -0.0833)">
      <use xlink:href="#DejaVuSans-73"/>
      <use xlink:href="#DejaVuSans-61" x="52.099609"/>
      <use xlink:href="#DejaVuSans-32" x="113.378906"/>
      <use xlink:href="#DejaVuSans-30" x="177.001953"/>
      <use xlink:href="#DejaVuSans-30" x="240.625"/>
      <use xlink:href="#DejaVuSans-20" x="304.248047"/>
      <use xlink:href="#DejaVuSans-32" x="336.035156"/>
      <use xlink:href="#DejaVuSans-30" x="399.658203"/>
      <use xlink:href="#DejaVuSans-30" x="463.28125"/>
      <use xlink:href="#DejaVuSans-20" x="526.904297"/>
      <use xlink:href="#DejaVuSans-30" x="558.691406"/>
      <use xlink:href="#DejaVuSans-2e" x="622.314453"/>
      <use xlink:href="#DejaVuSans-30" x="654.101562"/>
      <use xlink:href="#DejaVuSans-31" x="717.724609"/>
     </g>
    </g>
   </g>
  </g>
 </g>
 <defs>
  <clipPath id="p8bb6cec06d">
   <rect x="144" y="77.76" width="892.8" height="143.894118"/>
  </clipPath>
 </defs>
</svg>
