<?xml version="1.0" encoding="utf-8" standalone="no"?>
<!DOCTYPE svg PUBLIC "-//W3C//DTD SVG 1.1//EN"
  "http://www.w3.org/Graphics/SVG/1.1/DTD/svg11.dtd">
<svg xmlns:xlink="http://www.w3.org/1999/xlink" width="1152pt" height="648pt" viewBox="0 0 1152 648" xmlns="http://www.w3.org/2000/svg" version="1.1">
 <metadata>
  <rdf:RDF xmlns:dc="http://purl.org/dc/elements/1.1/" xmlns:cc="http://creativecommons.org/ns#" xmlns:rdf="http://www.w3.org/1999/02/22-rdf-syntax-ns#">
   <cc:Work>
    <dc:type rdf:resource="http://purl.org/dc/dcmitype/StillImage"/>
    <dc:date>2022-05-12T11:16:10.106231</dc:date>
    <dc:format>image/svg+xml</dc:format>
    <dc:creator>
     <cc:Agent>
      <dc:title>Matplotlib v3.5.1, https://matplotlib.org/</dc:title>
     </cc:Agent>
    </dc:creator>
   </cc:Work>
  </rdf:RDF>
 </metadata>
 <defs>
  <style type="text/css">*{stroke-linejoin: round; stroke-linecap: butt}</style>
 </defs>
 <g id="figure_1">
  <g id="patch_1">
   <path d="M 0 648 
L 1152 648 
L 1152 0 
L 0 0 
L 0 648 
z
" style="fill: none"/>
  </g>
  <g id="axes_1">
   <g id="patch_2">
    <path d="M 144 567 
L 1036.8 567 
L 1036.8 77.76 
L 144 77.76 
z
" style="fill: #ffffff"/>
   </g>
   <g id="matplotlib.axis_1">
    <g id="xtick_1">
     <g id="line2d_1">
      <defs>
       <path id="m996bc04000" d="M 0 0 
L 0 3.5 
" style="stroke: #000000; stroke-width: 0.8"/>
      </defs>
      <g>
       <use xlink:href="#m996bc04000" x="265.745455" y="567" style="stroke: #000000; stroke-width: 0.8"/>
      </g>
     </g>
     <g id="text_1">
      <!-- 200 -->
      <g transform="translate(256.201705 581.598438)scale(0.1 -0.1)">
       <defs>
        <path id="DejaVuSans-32" d="M 1228 531 
L 3431 531 
L 3431 0 
L 469 0 
L 469 531 
Q 828 903 1448 1529 
Q 2069 2156 2228 2338 
Q 2531 2678 2651 2914 
Q 2772 3150 2772 3378 
Q 2772 3750 2511 3984 
Q 2250 4219 1831 4219 
Q 1534 4219 1204 4116 
Q 875 4013 500 3803 
L 500 4441 
Q 881 4594 1212 4672 
Q 1544 4750 1819 4750 
Q 2544 4750 2975 4387 
Q 3406 4025 3406 3419 
Q 3406 3131 3298 2873 
Q 3191 2616 2906 2266 
Q 2828 2175 2409 1742 
Q 1991 1309 1228 531 
z
" transform="scale(0.015625)"/>
        <path id="DejaVuSans-30" d="M 2034 4250 
Q 1547 4250 1301 3770 
Q 1056 3291 1056 2328 
Q 1056 1369 1301 889 
Q 1547 409 2034 409 
Q 2525 409 2770 889 
Q 3016 1369 3016 2328 
Q 3016 3291 2770 3770 
Q 2525 4250 2034 4250 
z
M 2034 4750 
Q 2819 4750 3233 4129 
Q 3647 3509 3647 2328 
Q 3647 1150 3233 529 
Q 2819 -91 2034 -91 
Q 1250 -91 836 529 
Q 422 1150 422 2328 
Q 422 3509 836 4129 
Q 1250 4750 2034 4750 
z
" transform="scale(0.015625)"/>
       </defs>
       <use xlink:href="#DejaVuSans-32"/>
       <use xlink:href="#DejaVuSans-30" x="63.623047"/>
       <use xlink:href="#DejaVuSans-30" x="127.246094"/>
      </g>
     </g>
    </g>
    <g id="xtick_2">
     <g id="line2d_2">
      <g>
       <use xlink:href="#m996bc04000" x="428.072727" y="567" style="stroke: #000000; stroke-width: 0.8"/>
      </g>
     </g>
     <g id="text_2">
      <!-- 400 -->
      <g transform="translate(418.528977 581.598438)scale(0.1 -0.1)">
       <defs>
        <path id="DejaVuSans-34" d="M 2419 4116 
L 825 1625 
L 2419 1625 
L 2419 4116 
z
M 2253 4666 
L 3047 4666 
L 3047 1625 
L 3713 1625 
L 3713 1100 
L 3047 1100 
L 3047 0 
L 2419 0 
L 2419 1100 
L 313 1100 
L 313 1709 
L 2253 4666 
z
" transform="scale(0.015625)"/>
       </defs>
       <use xlink:href="#DejaVuSans-34"/>
       <use xlink:href="#DejaVuSans-30" x="63.623047"/>
       <use xlink:href="#DejaVuSans-30" x="127.246094"/>
      </g>
     </g>
    </g>
    <g id="xtick_3">
     <g id="line2d_3">
      <g>
       <use xlink:href="#m996bc04000" x="590.4" y="567" style="stroke: #000000; stroke-width: 0.8"/>
      </g>
     </g>
     <g id="text_3">
      <!-- 600 -->
      <g transform="translate(580.85625 581.598438)scale(0.1 -0.1)">
       <defs>
        <path id="DejaVuSans-36" d="M 2113 2584 
Q 1688 2584 1439 2293 
Q 1191 2003 1191 1497 
Q 1191 994 1439 701 
Q 1688 409 2113 409 
Q 2538 409 2786 701 
Q 3034 994 3034 1497 
Q 3034 2003 2786 2293 
Q 2538 2584 2113 2584 
z
M 3366 4563 
L 3366 3988 
Q 3128 4100 2886 4159 
Q 2644 4219 2406 4219 
Q 1781 4219 1451 3797 
Q 1122 3375 1075 2522 
Q 1259 2794 1537 2939 
Q 1816 3084 2150 3084 
Q 2853 3084 3261 2657 
Q 3669 2231 3669 1497 
Q 3669 778 3244 343 
Q 2819 -91 2113 -91 
Q 1303 -91 875 529 
Q 447 1150 447 2328 
Q 447 3434 972 4092 
Q 1497 4750 2381 4750 
Q 2619 4750 2861 4703 
Q 3103 4656 3366 4563 
z
" transform="scale(0.015625)"/>
       </defs>
       <use xlink:href="#DejaVuSans-36"/>
       <use xlink:href="#DejaVuSans-30" x="63.623047"/>
       <use xlink:href="#DejaVuSans-30" x="127.246094"/>
      </g>
     </g>
    </g>
    <g id="xtick_4">
     <g id="line2d_4">
      <g>
       <use xlink:href="#m996bc04000" x="752.727273" y="567" style="stroke: #000000; stroke-width: 0.8"/>
      </g>
     </g>
     <g id="text_4">
      <!-- 800 -->
      <g transform="translate(743.183523 581.598438)scale(0.1 -0.1)">
       <defs>
        <path id="DejaVuSans-38" d="M 2034 2216 
Q 1584 2216 1326 1975 
Q 1069 1734 1069 1313 
Q 1069 891 1326 650 
Q 1584 409 2034 409 
Q 2484 409 2743 651 
Q 3003 894 3003 1313 
Q 3003 1734 2745 1975 
Q 2488 2216 2034 2216 
z
M 1403 2484 
Q 997 2584 770 2862 
Q 544 3141 544 3541 
Q 544 4100 942 4425 
Q 1341 4750 2034 4750 
Q 2731 4750 3128 4425 
Q 3525 4100 3525 3541 
Q 3525 3141 3298 2862 
Q 3072 2584 2669 2484 
Q 3125 2378 3379 2068 
Q 3634 1759 3634 1313 
Q 3634 634 3220 271 
Q 2806 -91 2034 -91 
Q 1263 -91 848 271 
Q 434 634 434 1313 
Q 434 1759 690 2068 
Q 947 2378 1403 2484 
z
M 1172 3481 
Q 1172 3119 1398 2916 
Q 1625 2713 2034 2713 
Q 2441 2713 2670 2916 
Q 2900 3119 2900 3481 
Q 2900 3844 2670 4047 
Q 2441 4250 2034 4250 
Q 1625 4250 1398 4047 
Q 1172 3844 1172 3481 
z
" transform="scale(0.015625)"/>
       </defs>
       <use xlink:href="#DejaVuSans-38"/>
       <use xlink:href="#DejaVuSans-30" x="63.623047"/>
       <use xlink:href="#DejaVuSans-30" x="127.246094"/>
      </g>
     </g>
    </g>
    <g id="xtick_5">
     <g id="line2d_5">
      <g>
       <use xlink:href="#m996bc04000" x="915.054545" y="567" style="stroke: #000000; stroke-width: 0.8"/>
      </g>
     </g>
     <g id="text_5">
      <!-- 1000 -->
      <g transform="translate(902.329545 581.598438)scale(0.1 -0.1)">
       <defs>
        <path id="DejaVuSans-31" d="M 794 531 
L 1825 531 
L 1825 4091 
L 703 3866 
L 703 4441 
L 1819 4666 
L 2450 4666 
L 2450 531 
L 3481 531 
L 3481 0 
L 794 0 
L 794 531 
z
" transform="scale(0.015625)"/>
       </defs>
       <use xlink:href="#DejaVuSans-31"/>
       <use xlink:href="#DejaVuSans-30" x="63.623047"/>
       <use xlink:href="#DejaVuSans-30" x="127.246094"/>
       <use xlink:href="#DejaVuSans-30" x="190.869141"/>
      </g>
     </g>
    </g>
   </g>
   <g id="matplotlib.axis_2">
    <g id="ytick_1">
     <g id="line2d_6">
      <defs>
       <path id="m2f2eba07c1" d="M 0 0 
L -3.5 0 
" style="stroke: #000000; stroke-width: 0.8"/>
      </defs>
      <g>
       <use xlink:href="#m2f2eba07c1" x="144" y="545.422364" style="stroke: #000000; stroke-width: 0.8"/>
      </g>
     </g>
     <g id="text_6">
      <!-- 0 -->
      <g transform="translate(130.6375 549.221582)scale(0.1 -0.1)">
       <use xlink:href="#DejaVuSans-30"/>
      </g>
     </g>
    </g>
    <g id="ytick_2">
     <g id="line2d_7">
      <g>
       <use xlink:href="#m2f2eba07c1" x="144" y="455.917571" style="stroke: #000000; stroke-width: 0.8"/>
      </g>
     </g>
     <g id="text_7">
      <!-- 5000 -->
      <g transform="translate(111.55 459.716789)scale(0.1 -0.1)">
       <defs>
        <path id="DejaVuSans-35" d="M 691 4666 
L 3169 4666 
L 3169 4134 
L 1269 4134 
L 1269 2991 
Q 1406 3038 1543 3061 
Q 1681 3084 1819 3084 
Q 2600 3084 3056 2656 
Q 3513 2228 3513 1497 
Q 3513 744 3044 326 
Q 2575 -91 1722 -91 
Q 1428 -91 1123 -41 
Q 819 9 494 109 
L 494 744 
Q 775 591 1075 516 
Q 1375 441 1709 441 
Q 2250 441 2565 725 
Q 2881 1009 2881 1497 
Q 2881 1984 2565 2268 
Q 2250 2553 1709 2553 
Q 1456 2553 1204 2497 
Q 953 2441 691 2322 
L 691 4666 
z
" transform="scale(0.015625)"/>
       </defs>
       <use xlink:href="#DejaVuSans-35"/>
       <use xlink:href="#DejaVuSans-30" x="63.623047"/>
       <use xlink:href="#DejaVuSans-30" x="127.246094"/>
       <use xlink:href="#DejaVuSans-30" x="190.869141"/>
      </g>
     </g>
    </g>
    <g id="ytick_3">
     <g id="line2d_8">
      <g>
       <use xlink:href="#m2f2eba07c1" x="144" y="366.412778" style="stroke: #000000; stroke-width: 0.8"/>
      </g>
     </g>
     <g id="text_8">
      <!-- 10000 -->
      <g transform="translate(105.1875 370.211997)scale(0.1 -0.1)">
       <use xlink:href="#DejaVuSans-31"/>
       <use xlink:href="#DejaVuSans-30" x="63.623047"/>
       <use xlink:href="#DejaVuSans-30" x="127.246094"/>
       <use xlink:href="#DejaVuSans-30" x="190.869141"/>
       <use xlink:href="#DejaVuSans-30" x="254.492188"/>
      </g>
     </g>
    </g>
    <g id="ytick_4">
     <g id="line2d_9">
      <g>
       <use xlink:href="#m2f2eba07c1" x="144" y="276.907985" style="stroke: #000000; stroke-width: 0.8"/>
      </g>
     </g>
     <g id="text_9">
      <!-- 15000 -->
      <g transform="translate(105.1875 280.707204)scale(0.1 -0.1)">
       <use xlink:href="#DejaVuSans-31"/>
       <use xlink:href="#DejaVuSans-35" x="63.623047"/>
       <use xlink:href="#DejaVuSans-30" x="127.246094"/>
       <use xlink:href="#DejaVuSans-30" x="190.869141"/>
       <use xlink:href="#DejaVuSans-30" x="254.492188"/>
      </g>
     </g>
    </g>
    <g id="ytick_5">
     <g id="line2d_10">
      <g>
       <use xlink:href="#m2f2eba07c1" x="144" y="187.403192" style="stroke: #000000; stroke-width: 0.8"/>
      </g>
     </g>
     <g id="text_10">
      <!-- 20000 -->
      <g transform="translate(105.1875 191.202411)scale(0.1 -0.1)">
       <use xlink:href="#DejaVuSans-32"/>
       <use xlink:href="#DejaVuSans-30" x="63.623047"/>
       <use xlink:href="#DejaVuSans-30" x="127.246094"/>
       <use xlink:href="#DejaVuSans-30" x="190.869141"/>
       <use xlink:href="#DejaVuSans-30" x="254.492188"/>
      </g>
     </g>
    </g>
    <g id="ytick_6">
     <g id="line2d_11">
      <g>
       <use xlink:href="#m2f2eba07c1" x="144" y="97.898399" style="stroke: #000000; stroke-width: 0.8"/>
      </g>
     </g>
     <g id="text_11">
      <!-- 25000 -->
      <g transform="translate(105.1875 101.697618)scale(0.1 -0.1)">
       <use xlink:href="#DejaVuSans-32"/>
       <use xlink:href="#DejaVuSans-35" x="63.623047"/>
       <use xlink:href="#DejaVuSans-30" x="127.246094"/>
       <use xlink:href="#DejaVuSans-30" x="190.869141"/>
       <use xlink:href="#DejaVuSans-30" x="254.492188"/>
      </g>
     </g>
    </g>
   </g>
   <g id="line2d_12">
    <path d="M 184.581818 544.751078 
L 265.745455 542.857156 
L 346.909091 539.778191 
L 428.072727 532.193555 
L 509.236364 527.166966 
L 590.4 510.207598 
L 671.563636 491.57091 
L 752.727273 466.325188 
L 833.890909 429.674765 
L 915.054545 387.56097 
L 996.218182 351.973865 
" clip-path="url(#p712bcafb3e)" style="fill: none; stroke: #c72e29; stroke-width: 1.5; stroke-linecap: square"/>
    <defs>
     <path id="m2fa4a5b7f4" d="M 0 2.5 
C 0.663008 2.5 1.29895 2.236584 1.767767 1.767767 
C 2.236584 1.29895 2.5 0.663008 2.5 0 
C 2.5 -0.663008 2.236584 -1.29895 1.767767 -1.767767 
C 1.29895 -2.236584 0.663008 -2.5 0 -2.5 
C -0.663008 -2.5 -1.29895 -2.236584 -1.767767 -1.767767 
C -2.236584 -1.29895 -2.5 -0.663008 -2.5 0 
C -2.5 0.663008 -2.236584 1.29895 -1.767767 1.767767 
C -1.29895 2.236584 -0.663008 2.5 0 2.5 
z
" style="stroke: #c72e29"/>
    </defs>
    <g clip-path="url(#p712bcafb3e)">
     <use xlink:href="#m2fa4a5b7f4" x="184.581818" y="544.751078" style="fill: #c72e29; stroke: #c72e29"/>
     <use xlink:href="#m2fa4a5b7f4" x="265.745455" y="542.857156" style="fill: #c72e29; stroke: #c72e29"/>
     <use xlink:href="#m2fa4a5b7f4" x="346.909091" y="539.778191" style="fill: #c72e29; stroke: #c72e29"/>
     <use xlink:href="#m2fa4a5b7f4" x="428.072727" y="532.193555" style="fill: #c72e29; stroke: #c72e29"/>
     <use xlink:href="#m2fa4a5b7f4" x="509.236364" y="527.166966" style="fill: #c72e29; stroke: #c72e29"/>
     <use xlink:href="#m2fa4a5b7f4" x="590.4" y="510.207598" style="fill: #c72e29; stroke: #c72e29"/>
     <use xlink:href="#m2fa4a5b7f4" x="671.563636" y="491.57091" style="fill: #c72e29; stroke: #c72e29"/>
     <use xlink:href="#m2fa4a5b7f4" x="752.727273" y="466.325188" style="fill: #c72e29; stroke: #c72e29"/>
     <use xlink:href="#m2fa4a5b7f4" x="833.890909" y="429.674765" style="fill: #c72e29; stroke: #c72e29"/>
     <use xlink:href="#m2fa4a5b7f4" x="915.054545" y="387.56097" style="fill: #c72e29; stroke: #c72e29"/>
     <use xlink:href="#m2fa4a5b7f4" x="996.218182" y="351.973865" style="fill: #c72e29; stroke: #c72e29"/>
    </g>
   </g>
   <g id="line2d_13">
    <path d="M 184.581818 541.747297 
L 265.745455 527.165176 
L 346.909091 512.531142 
L 428.072727 483.483257 
L 509.236364 457.537607 
L 590.4 416.825457 
L 671.563636 368.938603 
L 752.727273 319.410231 
L 833.890909 246.954311 
L 915.054545 163.218997 
L 996.218182 108.533359 
" clip-path="url(#p712bcafb3e)" style="fill: none; stroke: #c72e29; stroke-width: 1.5; stroke-linecap: square"/>
    <g clip-path="url(#p712bcafb3e)">
     <use xlink:href="#m2fa4a5b7f4" x="184.581818" y="541.747297" style="fill: #c72e29; stroke: #c72e29"/>
     <use xlink:href="#m2fa4a5b7f4" x="265.745455" y="527.165176" style="fill: #c72e29; stroke: #c72e29"/>
     <use xlink:href="#m2fa4a5b7f4" x="346.909091" y="512.531142" style="fill: #c72e29; stroke: #c72e29"/>
     <use xlink:href="#m2fa4a5b7f4" x="428.072727" y="483.483257" style="fill: #c72e29; stroke: #c72e29"/>
     <use xlink:href="#m2fa4a5b7f4" x="509.236364" y="457.537607" style="fill: #c72e29; stroke: #c72e29"/>
     <use xlink:href="#m2fa4a5b7f4" x="590.4" y="416.825457" style="fill: #c72e29; stroke: #c72e29"/>
     <use xlink:href="#m2fa4a5b7f4" x="671.563636" y="368.938603" style="fill: #c72e29; stroke: #c72e29"/>
     <use xlink:href="#m2fa4a5b7f4" x="752.727273" y="319.410231" style="fill: #c72e29; stroke: #c72e29"/>
     <use xlink:href="#m2fa4a5b7f4" x="833.890909" y="246.954311" style="fill: #c72e29; stroke: #c72e29"/>
     <use xlink:href="#m2fa4a5b7f4" x="915.054545" y="163.218997" style="fill: #c72e29; stroke: #c72e29"/>
     <use xlink:href="#m2fa4a5b7f4" x="996.218182" y="108.533359" style="fill: #c72e29; stroke: #c72e29"/>
    </g>
   </g>
   <g id="line2d_14">
    <path d="M 184.581818 544.736757 
L 265.745455 543.515911 
L 346.909091 542.74796 
L 428.072727 531.973373 
L 509.236364 523.593935 
L 590.4 512.565154 
L 671.563636 492.372873 
L 752.727273 469.461436 
L 833.890909 436.103 
L 915.054545 409.77964 
L 996.218182 371.842139 
" clip-path="url(#p712bcafb3e)" style="fill: none; stroke: #098154; stroke-width: 1.5; stroke-linecap: square"/>
    <defs>
     <path id="me8dc480e1d" d="M 0 2.5 
C 0.663008 2.5 1.29895 2.236584 1.767767 1.767767 
C 2.236584 1.29895 2.5 0.663008 2.5 0 
C 2.5 -0.663008 2.236584 -1.29895 1.767767 -1.767767 
C 1.29895 -2.236584 0.663008 -2.5 0 -2.5 
C -0.663008 -2.5 -1.29895 -2.236584 -1.767767 -1.767767 
C -2.236584 -1.29895 -2.5 -0.663008 -2.5 0 
C -2.5 0.663008 -2.236584 1.29895 -1.767767 1.767767 
C -1.29895 2.236584 -0.663008 2.5 0 2.5 
z
" style="stroke: #098154"/>
    </defs>
    <g clip-path="url(#p712bcafb3e)">
     <use xlink:href="#me8dc480e1d" x="184.581818" y="544.736757" style="fill: #098154; stroke: #098154"/>
     <use xlink:href="#me8dc480e1d" x="265.745455" y="543.515911" style="fill: #098154; stroke: #098154"/>
     <use xlink:href="#me8dc480e1d" x="346.909091" y="542.74796" style="fill: #098154; stroke: #098154"/>
     <use xlink:href="#me8dc480e1d" x="428.072727" y="531.973373" style="fill: #098154; stroke: #098154"/>
     <use xlink:href="#me8dc480e1d" x="509.236364" y="523.593935" style="fill: #098154; stroke: #098154"/>
     <use xlink:href="#me8dc480e1d" x="590.4" y="512.565154" style="fill: #098154; stroke: #098154"/>
     <use xlink:href="#me8dc480e1d" x="671.563636" y="492.372873" style="fill: #098154; stroke: #098154"/>
     <use xlink:href="#me8dc480e1d" x="752.727273" y="469.461436" style="fill: #098154; stroke: #098154"/>
     <use xlink:href="#me8dc480e1d" x="833.890909" y="436.103" style="fill: #098154; stroke: #098154"/>
     <use xlink:href="#me8dc480e1d" x="915.054545" y="409.77964" style="fill: #098154; stroke: #098154"/>
     <use xlink:href="#me8dc480e1d" x="996.218182" y="371.842139" style="fill: #098154; stroke: #098154"/>
    </g>
   </g>
   <g id="line2d_15">
    <path d="M 184.581818 541.933467 
L 265.745455 529.939824 
L 346.909091 516.793361 
L 428.072727 481.329771 
L 509.236364 450.191054 
L 590.4 419.915163 
L 671.563636 374.072598 
L 752.727273 311.762941 
L 833.890909 260.233242 
L 915.054545 179.089987 
L 996.218182 106.157902 
" clip-path="url(#p712bcafb3e)" style="fill: none; stroke: #098154; stroke-width: 1.5; stroke-linecap: square"/>
    <g clip-path="url(#p712bcafb3e)">
     <use xlink:href="#me8dc480e1d" x="184.581818" y="541.933467" style="fill: #098154; stroke: #098154"/>
     <use xlink:href="#me8dc480e1d" x="265.745455" y="529.939824" style="fill: #098154; stroke: #098154"/>
     <use xlink:href="#me8dc480e1d" x="346.909091" y="516.793361" style="fill: #098154; stroke: #098154"/>
     <use xlink:href="#me8dc480e1d" x="428.072727" y="481.329771" style="fill: #098154; stroke: #098154"/>
     <use xlink:href="#me8dc480e1d" x="509.236364" y="450.191054" style="fill: #098154; stroke: #098154"/>
     <use xlink:href="#me8dc480e1d" x="590.4" y="419.915163" style="fill: #098154; stroke: #098154"/>
     <use xlink:href="#me8dc480e1d" x="671.563636" y="374.072598" style="fill: #098154; stroke: #098154"/>
     <use xlink:href="#me8dc480e1d" x="752.727273" y="311.762941" style="fill: #098154; stroke: #098154"/>
     <use xlink:href="#me8dc480e1d" x="833.890909" y="260.233242" style="fill: #098154; stroke: #098154"/>
     <use xlink:href="#me8dc480e1d" x="915.054545" y="179.089987" style="fill: #098154; stroke: #098154"/>
     <use xlink:href="#me8dc480e1d" x="996.218182" y="106.157902" style="fill: #098154; stroke: #098154"/>
    </g>
   </g>
   <g id="line2d_16">
    <path d="M 184.581818 544.747497 
L 265.745455 542.447224 
L 346.909091 541.283662 
L 428.072727 537.50477 
L 509.236364 526.780305 
L 590.4 509.31434 
L 671.563636 497.297427 
L 752.727273 469.926861 
L 833.890909 446.104265 
L 915.054545 406.655923 
L 996.218182 371.654179 
" clip-path="url(#p712bcafb3e)" style="fill: none; stroke: #fb832d; stroke-width: 1.5; stroke-linecap: square"/>
    <defs>
     <path id="md4dc615b43" d="M 0 2.5 
C 0.663008 2.5 1.29895 2.236584 1.767767 1.767767 
C 2.236584 1.29895 2.5 0.663008 2.5 0 
C 2.5 -0.663008 2.236584 -1.29895 1.767767 -1.767767 
C 1.29895 -2.236584 0.663008 -2.5 0 -2.5 
C -0.663008 -2.5 -1.29895 -2.236584 -1.767767 -1.767767 
C -2.236584 -1.29895 -2.5 -0.663008 -2.5 0 
C -2.5 0.663008 -2.236584 1.29895 -1.767767 1.767767 
C -1.29895 2.236584 -0.663008 2.5 0 2.5 
z
" style="stroke: #fb832d"/>
    </defs>
    <g clip-path="url(#p712bcafb3e)">
     <use xlink:href="#md4dc615b43" x="184.581818" y="544.747497" style="fill: #fb832d; stroke: #fb832d"/>
     <use xlink:href="#md4dc615b43" x="265.745455" y="542.447224" style="fill: #fb832d; stroke: #fb832d"/>
     <use xlink:href="#md4dc615b43" x="346.909091" y="541.283662" style="fill: #fb832d; stroke: #fb832d"/>
     <use xlink:href="#md4dc615b43" x="428.072727" y="537.50477" style="fill: #fb832d; stroke: #fb832d"/>
     <use xlink:href="#md4dc615b43" x="509.236364" y="526.780305" style="fill: #fb832d; stroke: #fb832d"/>
     <use xlink:href="#md4dc615b43" x="590.4" y="509.31434" style="fill: #fb832d; stroke: #fb832d"/>
     <use xlink:href="#md4dc615b43" x="671.563636" y="497.297427" style="fill: #fb832d; stroke: #fb832d"/>
     <use xlink:href="#md4dc615b43" x="752.727273" y="469.926861" style="fill: #fb832d; stroke: #fb832d"/>
     <use xlink:href="#md4dc615b43" x="833.890909" y="446.104265" style="fill: #fb832d; stroke: #fb832d"/>
     <use xlink:href="#md4dc615b43" x="915.054545" y="406.655923" style="fill: #fb832d; stroke: #fb832d"/>
     <use xlink:href="#md4dc615b43" x="996.218182" y="371.654179" style="fill: #fb832d; stroke: #fb832d"/>
    </g>
   </g>
   <g id="line2d_17">
    <path d="M 184.581818 541.740136 
L 265.745455 527.147275 
L 346.909091 512.942864 
L 428.072727 489.34045 
L 509.236364 448.178986 
L 590.4 416.660769 
L 671.563636 363.609488 
L 752.727273 313.78396 
L 833.890909 258.713451 
L 915.054545 173.667787 
L 996.218182 127.162886 
" clip-path="url(#p712bcafb3e)" style="fill: none; stroke: #fb832d; stroke-width: 1.5; stroke-linecap: square"/>
    <g clip-path="url(#p712bcafb3e)">
     <use xlink:href="#md4dc615b43" x="184.581818" y="541.740136" style="fill: #fb832d; stroke: #fb832d"/>
     <use xlink:href="#md4dc615b43" x="265.745455" y="527.147275" style="fill: #fb832d; stroke: #fb832d"/>
     <use xlink:href="#md4dc615b43" x="346.909091" y="512.942864" style="fill: #fb832d; stroke: #fb832d"/>
     <use xlink:href="#md4dc615b43" x="428.072727" y="489.34045" style="fill: #fb832d; stroke: #fb832d"/>
     <use xlink:href="#md4dc615b43" x="509.236364" y="448.178986" style="fill: #fb832d; stroke: #fb832d"/>
     <use xlink:href="#md4dc615b43" x="590.4" y="416.660769" style="fill: #fb832d; stroke: #fb832d"/>
     <use xlink:href="#md4dc615b43" x="671.563636" y="363.609488" style="fill: #fb832d; stroke: #fb832d"/>
     <use xlink:href="#md4dc615b43" x="752.727273" y="313.78396" style="fill: #fb832d; stroke: #fb832d"/>
     <use xlink:href="#md4dc615b43" x="833.890909" y="258.713451" style="fill: #fb832d; stroke: #fb832d"/>
     <use xlink:href="#md4dc615b43" x="915.054545" y="173.667787" style="fill: #fb832d; stroke: #fb832d"/>
     <use xlink:href="#md4dc615b43" x="996.218182" y="127.162886" style="fill: #fb832d; stroke: #fb832d"/>
    </g>
   </g>
   <g id="line2d_18">
    <path d="M 184.581818 544.761818 
L 265.745455 543.501591 
L 346.909091 541.297983 
L 428.072727 535.677082 
L 509.236364 525.74205 
L 590.4 510.61932 
L 671.563636 487.045548 
L 752.727273 462.44963 
L 833.890909 433.387424 
L 915.054545 398.108215 
L 996.218182 352.016827 
" clip-path="url(#p712bcafb3e)" style="fill: none; stroke: #23238e; stroke-width: 1.5; stroke-linecap: square"/>
    <defs>
     <path id="m2551ecf3c4" d="M 0 2.5 
C 0.663008 2.5 1.29895 2.236584 1.767767 1.767767 
C 2.236584 1.29895 2.5 0.663008 2.5 0 
C 2.5 -0.663008 2.236584 -1.29895 1.767767 -1.767767 
C 1.29895 -2.236584 0.663008 -2.5 0 -2.5 
C -0.663008 -2.5 -1.29895 -2.236584 -1.767767 -1.767767 
C -2.236584 -1.29895 -2.5 -0.663008 -2.5 0 
C -2.5 0.663008 -2.236584 1.29895 -1.767767 1.767767 
C -1.29895 2.236584 -0.663008 2.5 0 2.5 
z
" style="stroke: #23238e"/>
    </defs>
    <g clip-path="url(#p712bcafb3e)">
     <use xlink:href="#m2551ecf3c4" x="184.581818" y="544.761818" style="fill: #23238e; stroke: #23238e"/>
     <use xlink:href="#m2551ecf3c4" x="265.745455" y="543.501591" style="fill: #23238e; stroke: #23238e"/>
     <use xlink:href="#m2551ecf3c4" x="346.909091" y="541.297983" style="fill: #23238e; stroke: #23238e"/>
     <use xlink:href="#m2551ecf3c4" x="428.072727" y="535.677082" style="fill: #23238e; stroke: #23238e"/>
     <use xlink:href="#m2551ecf3c4" x="509.236364" y="525.74205" style="fill: #23238e; stroke: #23238e"/>
     <use xlink:href="#m2551ecf3c4" x="590.4" y="510.61932" style="fill: #23238e; stroke: #23238e"/>
     <use xlink:href="#m2551ecf3c4" x="671.563636" y="487.045548" style="fill: #23238e; stroke: #23238e"/>
     <use xlink:href="#m2551ecf3c4" x="752.727273" y="462.44963" style="fill: #23238e; stroke: #23238e"/>
     <use xlink:href="#m2551ecf3c4" x="833.890909" y="433.387424" style="fill: #23238e; stroke: #23238e"/>
     <use xlink:href="#m2551ecf3c4" x="915.054545" y="398.108215" style="fill: #23238e; stroke: #23238e"/>
     <use xlink:href="#m2551ecf3c4" x="996.218182" y="352.016827" style="fill: #23238e; stroke: #23238e"/>
    </g>
   </g>
   <g id="line2d_19">
    <path d="M 184.581818 541.142244 
L 265.745455 529.875381 
L 346.909091 509.520201 
L 428.072727 487.351654 
L 509.236364 461.968095 
L 590.4 417.274771 
L 671.563636 366.783328 
L 752.727273 320.987305 
L 833.890909 249.850686 
L 915.054545 171.381834 
L 996.218182 99.998182 
" clip-path="url(#p712bcafb3e)" style="fill: none; stroke: #23238e; stroke-width: 1.5; stroke-linecap: square"/>
    <g clip-path="url(#p712bcafb3e)">
     <use xlink:href="#m2551ecf3c4" x="184.581818" y="541.142244" style="fill: #23238e; stroke: #23238e"/>
     <use xlink:href="#m2551ecf3c4" x="265.745455" y="529.875381" style="fill: #23238e; stroke: #23238e"/>
     <use xlink:href="#m2551ecf3c4" x="346.909091" y="509.520201" style="fill: #23238e; stroke: #23238e"/>
     <use xlink:href="#m2551ecf3c4" x="428.072727" y="487.351654" style="fill: #23238e; stroke: #23238e"/>
     <use xlink:href="#m2551ecf3c4" x="509.236364" y="461.968095" style="fill: #23238e; stroke: #23238e"/>
     <use xlink:href="#m2551ecf3c4" x="590.4" y="417.274771" style="fill: #23238e; stroke: #23238e"/>
     <use xlink:href="#m2551ecf3c4" x="671.563636" y="366.783328" style="fill: #23238e; stroke: #23238e"/>
     <use xlink:href="#m2551ecf3c4" x="752.727273" y="320.987305" style="fill: #23238e; stroke: #23238e"/>
     <use xlink:href="#m2551ecf3c4" x="833.890909" y="249.850686" style="fill: #23238e; stroke: #23238e"/>
     <use xlink:href="#m2551ecf3c4" x="915.054545" y="171.381834" style="fill: #23238e; stroke: #23238e"/>
     <use xlink:href="#m2551ecf3c4" x="996.218182" y="99.998182" style="fill: #23238e; stroke: #23238e"/>
    </g>
   </g>
   <g id="patch_3">
    <path d="M 144 567 
L 144 77.76 
" style="fill: none; stroke: #000000; stroke-width: 0.8; stroke-linejoin: miter; stroke-linecap: square"/>
   </g>
   <g id="patch_4">
    <path d="M 1036.8 567 
L 1036.8 77.76 
" style="fill: none; stroke: #000000; stroke-width: 0.8; stroke-linejoin: miter; stroke-linecap: square"/>
   </g>
   <g id="patch_5">
    <path d="M 144 567 
L 1036.8 567 
" style="fill: none; stroke: #000000; stroke-width: 0.8; stroke-linejoin: miter; stroke-linecap: square"/>
   </g>
   <g id="patch_6">
    <path d="M 144 77.76 
L 1036.8 77.76 
" style="fill: none; stroke: #000000; stroke-width: 0.8; stroke-linejoin: miter; stroke-linecap: square"/>
   </g>
   <g id="text_12">
    <!-- cost_final -->
    <g transform="translate(562.026562 71.76)scale(0.12 -0.12)">
     <defs>
      <path id="DejaVuSans-63" d="M 3122 3366 
L 3122 2828 
Q 2878 2963 2633 3030 
Q 2388 3097 2138 3097 
Q 1578 3097 1268 2742 
Q 959 2388 959 1747 
Q 959 1106 1268 751 
Q 1578 397 2138 397 
Q 2388 397 2633 464 
Q 2878 531 3122 666 
L 3122 134 
Q 2881 22 2623 -34 
Q 2366 -91 2075 -91 
Q 1284 -91 818 406 
Q 353 903 353 1747 
Q 353 2603 823 3093 
Q 1294 3584 2113 3584 
Q 2378 3584 2631 3529 
Q 2884 3475 3122 3366 
z
" transform="scale(0.015625)"/>
      <path id="DejaVuSans-6f" d="M 1959 3097 
Q 1497 3097 1228 2736 
Q 959 2375 959 1747 
Q 959 1119 1226 758 
Q 1494 397 1959 397 
Q 2419 397 2687 759 
Q 2956 1122 2956 1747 
Q 2956 2369 2687 2733 
Q 2419 3097 1959 3097 
z
M 1959 3584 
Q 2709 3584 3137 3096 
Q 3566 2609 3566 1747 
Q 3566 888 3137 398 
Q 2709 -91 1959 -91 
Q 1206 -91 779 398 
Q 353 888 353 1747 
Q 353 2609 779 3096 
Q 1206 3584 1959 3584 
z
" transform="scale(0.015625)"/>
      <path id="DejaVuSans-73" d="M 2834 3397 
L 2834 2853 
Q 2591 2978 2328 3040 
Q 2066 3103 1784 3103 
Q 1356 3103 1142 2972 
Q 928 2841 928 2578 
Q 928 2378 1081 2264 
Q 1234 2150 1697 2047 
L 1894 2003 
Q 2506 1872 2764 1633 
Q 3022 1394 3022 966 
Q 3022 478 2636 193 
Q 2250 -91 1575 -91 
Q 1294 -91 989 -36 
Q 684 19 347 128 
L 347 722 
Q 666 556 975 473 
Q 1284 391 1588 391 
Q 1994 391 2212 530 
Q 2431 669 2431 922 
Q 2431 1156 2273 1281 
Q 2116 1406 1581 1522 
L 1381 1569 
Q 847 1681 609 1914 
Q 372 2147 372 2553 
Q 372 3047 722 3315 
Q 1072 3584 1716 3584 
Q 2034 3584 2315 3537 
Q 2597 3491 2834 3397 
z
" transform="scale(0.015625)"/>
      <path id="DejaVuSans-74" d="M 1172 4494 
L 1172 3500 
L 2356 3500 
L 2356 3053 
L 1172 3053 
L 1172 1153 
Q 1172 725 1289 603 
Q 1406 481 1766 481 
L 2356 481 
L 2356 0 
L 1766 0 
Q 1100 0 847 248 
Q 594 497 594 1153 
L 594 3053 
L 172 3053 
L 172 3500 
L 594 3500 
L 594 4494 
L 1172 4494 
z
" transform="scale(0.015625)"/>
      <path id="DejaVuSans-5f" d="M 3263 -1063 
L 3263 -1509 
L -63 -1509 
L -63 -1063 
L 3263 -1063 
z
" transform="scale(0.015625)"/>
      <path id="DejaVuSans-66" d="M 2375 4863 
L 2375 4384 
L 1825 4384 
Q 1516 4384 1395 4259 
Q 1275 4134 1275 3809 
L 1275 3500 
L 2222 3500 
L 2222 3053 
L 1275 3053 
L 1275 0 
L 697 0 
L 697 3053 
L 147 3053 
L 147 3500 
L 697 3500 
L 697 3744 
Q 697 4328 969 4595 
Q 1241 4863 1831 4863 
L 2375 4863 
z
" transform="scale(0.015625)"/>
      <path id="DejaVuSans-69" d="M 603 3500 
L 1178 3500 
L 1178 0 
L 603 0 
L 603 3500 
z
M 603 4863 
L 1178 4863 
L 1178 4134 
L 603 4134 
L 603 4863 
z
" transform="scale(0.015625)"/>
      <path id="DejaVuSans-6e" d="M 3513 2113 
L 3513 0 
L 2938 0 
L 2938 2094 
Q 2938 2591 2744 2837 
Q 2550 3084 2163 3084 
Q 1697 3084 1428 2787 
Q 1159 2491 1159 1978 
L 1159 0 
L 581 0 
L 581 3500 
L 1159 3500 
L 1159 2956 
Q 1366 3272 1645 3428 
Q 1925 3584 2291 3584 
Q 2894 3584 3203 3211 
Q 3513 2838 3513 2113 
z
" transform="scale(0.015625)"/>
      <path id="DejaVuSans-61" d="M 2194 1759 
Q 1497 1759 1228 1600 
Q 959 1441 959 1056 
Q 959 750 1161 570 
Q 1363 391 1709 391 
Q 2188 391 2477 730 
Q 2766 1069 2766 1631 
L 2766 1759 
L 2194 1759 
z
M 3341 1997 
L 3341 0 
L 2766 0 
L 2766 531 
Q 2569 213 2275 61 
Q 1981 -91 1556 -91 
Q 1019 -91 701 211 
Q 384 513 384 1019 
Q 384 1609 779 1909 
Q 1175 2209 1959 2209 
L 2766 2209 
L 2766 2266 
Q 2766 2663 2505 2880 
Q 2244 3097 1772 3097 
Q 1472 3097 1187 3025 
Q 903 2953 641 2809 
L 641 3341 
Q 956 3463 1253 3523 
Q 1550 3584 1831 3584 
Q 2591 3584 2966 3190 
Q 3341 2797 3341 1997 
z
" transform="scale(0.015625)"/>
      <path id="DejaVuSans-6c" d="M 603 4863 
L 1178 4863 
L 1178 0 
L 603 0 
L 603 4863 
z
" transform="scale(0.015625)"/>
     </defs>
     <use xlink:href="#DejaVuSans-63"/>
     <use xlink:href="#DejaVuSans-6f" x="54.980469"/>
     <use xlink:href="#DejaVuSans-73" x="116.162109"/>
     <use xlink:href="#DejaVuSans-74" x="168.261719"/>
     <use xlink:href="#DejaVuSans-5f" x="207.470703"/>
     <use xlink:href="#DejaVuSans-66" x="257.470703"/>
     <use xlink:href="#DejaVuSans-69" x="292.675781"/>
     <use xlink:href="#DejaVuSans-6e" x="320.458984"/>
     <use xlink:href="#DejaVuSans-61" x="383.837891"/>
     <use xlink:href="#DejaVuSans-6c" x="445.117188"/>
    </g>
   </g>
   <g id="legend_1">
    <g id="patch_7">
     <path d="M 152.4 228.27 
L 341.563125 228.27 
Q 343.963125 228.27 343.963125 225.87 
L 343.963125 86.16 
Q 343.963125 83.76 341.563125 83.76 
L 152.4 83.76 
Q 150 83.76 150 86.16 
L 150 225.87 
Q 150 228.27 152.4 228.27 
z
" style="fill: #ffffff; opacity: 0.8; stroke: #cccccc; stroke-linejoin: miter"/>
    </g>
    <g id="line2d_20">
     <path d="M 154.8 93.478125 
L 166.8 93.478125 
L 178.8 93.478125 
" style="fill: none; stroke: #c72e29; stroke-width: 1.5; stroke-linecap: square"/>
     <g>
      <use xlink:href="#m2fa4a5b7f4" x="166.8" y="93.478125" style="fill: #c72e29; stroke: #c72e29"/>
     </g>
    </g>
    <g id="text_13">
     <!-- sa200 200 0.1 -->
     <g transform="translate(188.4 97.678125)scale(0.12 -0.12)">
      <defs>
       <path id="DejaVuSans-20" transform="scale(0.015625)"/>
       <path id="DejaVuSans-2e" d="M 684 794 
L 1344 794 
L 1344 0 
L 684 0 
L 684 794 
z
" transform="scale(0.015625)"/>
      </defs>
      <use xlink:href="#DejaVuSans-73"/>
      <use xlink:href="#DejaVuSans-61" x="52.099609"/>
      <use xlink:href="#DejaVuSans-32" x="113.378906"/>
      <use xlink:href="#DejaVuSans-30" x="177.001953"/>
      <use xlink:href="#DejaVuSans-30" x="240.625"/>
      <use xlink:href="#DejaVuSans-20" x="304.248047"/>
      <use xlink:href="#DejaVuSans-32" x="336.035156"/>
      <use xlink:href="#DejaVuSans-30" x="399.658203"/>
      <use xlink:href="#DejaVuSans-30" x="463.28125"/>
      <use xlink:href="#DejaVuSans-20" x="526.904297"/>
      <use xlink:href="#DejaVuSans-30" x="558.691406"/>
      <use xlink:href="#DejaVuSans-2e" x="622.314453"/>
      <use xlink:href="#DejaVuSans-31" x="654.101562"/>
     </g>
    </g>
    <g id="line2d_21">
     <path d="M 154.8 111.091875 
L 166.8 111.091875 
L 178.8 111.091875 
" style="fill: none; stroke: #c72e29; stroke-width: 1.5; stroke-linecap: square"/>
     <g>
      <use xlink:href="#m2fa4a5b7f4" x="166.8" y="111.091875" style="fill: #c72e29; stroke: #c72e29"/>
     </g>
    </g>
    <g id="text_14">
     <!-- sa200 200 0.1 init state -->
     <g transform="translate(188.4 115.291875)scale(0.12 -0.12)">
      <defs>
       <path id="DejaVuSans-65" d="M 3597 1894 
L 3597 1613 
L 953 1613 
Q 991 1019 1311 708 
Q 1631 397 2203 397 
Q 2534 397 2845 478 
Q 3156 559 3463 722 
L 3463 178 
Q 3153 47 2828 -22 
Q 2503 -91 2169 -91 
Q 1331 -91 842 396 
Q 353 884 353 1716 
Q 353 2575 817 3079 
Q 1281 3584 2069 3584 
Q 2775 3584 3186 3129 
Q 3597 2675 3597 1894 
z
M 3022 2063 
Q 3016 2534 2758 2815 
Q 2500 3097 2075 3097 
Q 1594 3097 1305 2825 
Q 1016 2553 972 2059 
L 3022 2063 
z
" transform="scale(0.015625)"/>
      </defs>
      <use xlink:href="#DejaVuSans-73"/>
      <use xlink:href="#DejaVuSans-61" x="52.099609"/>
      <use xlink:href="#DejaVuSans-32" x="113.378906"/>
      <use xlink:href="#DejaVuSans-30" x="177.001953"/>
      <use xlink:href="#DejaVuSans-30" x="240.625"/>
      <use xlink:href="#DejaVuSans-20" x="304.248047"/>
      <use xlink:href="#DejaVuSans-32" x="336.035156"/>
      <use xlink:href="#DejaVuSans-30" x="399.658203"/>
      <use xlink:href="#DejaVuSans-30" x="463.28125"/>
      <use xlink:href="#DejaVuSans-20" x="526.904297"/>
      <use xlink:href="#DejaVuSans-30" x="558.691406"/>
      <use xlink:href="#DejaVuSans-2e" x="622.314453"/>
      <use xlink:href="#DejaVuSans-31" x="654.101562"/>
      <use xlink:href="#DejaVuSans-20" x="717.724609"/>
      <use xlink:href="#DejaVuSans-69" x="749.511719"/>
      <use xlink:href="#DejaVuSans-6e" x="777.294922"/>
      <use xlink:href="#DejaVuSans-69" x="840.673828"/>
      <use xlink:href="#DejaVuSans-74" x="868.457031"/>
      <use xlink:href="#DejaVuSans-20" x="907.666016"/>
      <use xlink:href="#DejaVuSans-73" x="939.453125"/>
      <use xlink:href="#DejaVuSans-74" x="991.552734"/>
      <use xlink:href="#DejaVuSans-61" x="1030.761719"/>
      <use xlink:href="#DejaVuSans-74" x="1092.041016"/>
      <use xlink:href="#DejaVuSans-65" x="1131.25"/>
     </g>
    </g>
    <g id="line2d_22">
     <path d="M 154.8 128.705625 
L 166.8 128.705625 
L 178.8 128.705625 
" style="fill: none; stroke: #098154; stroke-width: 1.5; stroke-linecap: square"/>
     <g>
      <use xlink:href="#me8dc480e1d" x="166.8" y="128.705625" style="fill: #098154; stroke: #098154"/>
     </g>
    </g>
    <g id="text_15">
     <!-- sa500 200 0.1 -->
     <g transform="translate(188.4 132.905625)scale(0.12 -0.12)">
      <use xlink:href="#DejaVuSans-73"/>
      <use xlink:href="#DejaVuSans-61" x="52.099609"/>
      <use xlink:href="#DejaVuSans-35" x="113.378906"/>
      <use xlink:href="#DejaVuSans-30" x="177.001953"/>
      <use xlink:href="#DejaVuSans-30" x="240.625"/>
      <use xlink:href="#DejaVuSans-20" x="304.248047"/>
      <use xlink:href="#DejaVuSans-32" x="336.035156"/>
      <use xlink:href="#DejaVuSans-30" x="399.658203"/>
      <use xlink:href="#DejaVuSans-30" x="463.28125"/>
      <use xlink:href="#DejaVuSans-20" x="526.904297"/>
      <use xlink:href="#DejaVuSans-30" x="558.691406"/>
      <use xlink:href="#DejaVuSans-2e" x="622.314453"/>
      <use xlink:href="#DejaVuSans-31" x="654.101562"/>
     </g>
    </g>
    <g id="line2d_23">
     <path d="M 154.8 146.319375 
L 166.8 146.319375 
L 178.8 146.319375 
" style="fill: none; stroke: #098154; stroke-width: 1.5; stroke-linecap: square"/>
     <g>
      <use xlink:href="#me8dc480e1d" x="166.8" y="146.319375" style="fill: #098154; stroke: #098154"/>
     </g>
    </g>
    <g id="text_16">
     <!-- sa500 200 0.1 init state -->
     <g transform="translate(188.4 150.519375)scale(0.12 -0.12)">
      <use xlink:href="#DejaVuSans-73"/>
      <use xlink:href="#DejaVuSans-61" x="52.099609"/>
      <use xlink:href="#DejaVuSans-35" x="113.378906"/>
      <use xlink:href="#DejaVuSans-30" x="177.001953"/>
      <use xlink:href="#DejaVuSans-30" x="240.625"/>
      <use xlink:href="#DejaVuSans-20" x="304.248047"/>
      <use xlink:href="#DejaVuSans-32" x="336.035156"/>
      <use xlink:href="#DejaVuSans-30" x="399.658203"/>
      <use xlink:href="#DejaVuSans-30" x="463.28125"/>
      <use xlink:href="#DejaVuSans-20" x="526.904297"/>
      <use xlink:href="#DejaVuSans-30" x="558.691406"/>
      <use xlink:href="#DejaVuSans-2e" x="622.314453"/>
      <use xlink:href="#DejaVuSans-31" x="654.101562"/>
      <use xlink:href="#DejaVuSans-20" x="717.724609"/>
      <use xlink:href="#DejaVuSans-69" x="749.511719"/>
      <use xlink:href="#DejaVuSans-6e" x="777.294922"/>
      <use xlink:href="#DejaVuSans-69" x="840.673828"/>
      <use xlink:href="#DejaVuSans-74" x="868.457031"/>
      <use xlink:href="#DejaVuSans-20" x="907.666016"/>
      <use xlink:href="#DejaVuSans-73" x="939.453125"/>
      <use xlink:href="#DejaVuSans-74" x="991.552734"/>
      <use xlink:href="#DejaVuSans-61" x="1030.761719"/>
      <use xlink:href="#DejaVuSans-74" x="1092.041016"/>
      <use xlink:href="#DejaVuSans-65" x="1131.25"/>
     </g>
    </g>
    <g id="line2d_24">
     <path d="M 154.8 163.933125 
L 166.8 163.933125 
L 178.8 163.933125 
" style="fill: none; stroke: #fb832d; stroke-width: 1.5; stroke-linecap: square"/>
     <g>
      <use xlink:href="#md4dc615b43" x="166.8" y="163.933125" style="fill: #fb832d; stroke: #fb832d"/>
     </g>
    </g>
    <g id="text_17">
     <!-- sa500 200 0.01 -->
     <g transform="translate(188.4 168.133125)scale(0.12 -0.12)">
      <use xlink:href="#DejaVuSans-73"/>
      <use xlink:href="#DejaVuSans-61" x="52.099609"/>
      <use xlink:href="#DejaVuSans-35" x="113.378906"/>
      <use xlink:href="#DejaVuSans-30" x="177.001953"/>
      <use xlink:href="#DejaVuSans-30" x="240.625"/>
      <use xlink:href="#DejaVuSans-20" x="304.248047"/>
      <use xlink:href="#DejaVuSans-32" x="336.035156"/>
      <use xlink:href="#DejaVuSans-30" x="399.658203"/>
      <use xlink:href="#DejaVuSans-30" x="463.28125"/>
      <use xlink:href="#DejaVuSans-20" x="526.904297"/>
      <use xlink:href="#DejaVuSans-30" x="558.691406"/>
      <use xlink:href="#DejaVuSans-2e" x="622.314453"/>
      <use xlink:href="#DejaVuSans-30" x="654.101562"/>
      <use xlink:href="#DejaVuSans-31" x="717.724609"/>
     </g>
    </g>
    <g id="line2d_25">
     <path d="M 154.8 181.546875 
L 166.8 181.546875 
L 178.8 181.546875 
" style="fill: none; stroke: #fb832d; stroke-width: 1.5; stroke-linecap: square"/>
     <g>
      <use xlink:href="#md4dc615b43" x="166.8" y="181.546875" style="fill: #fb832d; stroke: #fb832d"/>
     </g>
    </g>
    <g id="text_18">
     <!-- sa500 200 0.01 init state -->
     <g transform="translate(188.4 185.746875)scale(0.12 -0.12)">
      <use xlink:href="#DejaVuSans-73"/>
      <use xlink:href="#DejaVuSans-61" x="52.099609"/>
      <use xlink:href="#DejaVuSans-35" x="113.378906"/>
      <use xlink:href="#DejaVuSans-30" x="177.001953"/>
      <use xlink:href="#DejaVuSans-30" x="240.625"/>
      <use xlink:href="#DejaVuSans-20" x="304.248047"/>
      <use xlink:href="#DejaVuSans-32" x="336.035156"/>
      <use xlink:href="#DejaVuSans-30" x="399.658203"/>
      <use xlink:href="#DejaVuSans-30" x="463.28125"/>
      <use xlink:href="#DejaVuSans-20" x="526.904297"/>
      <use xlink:href="#DejaVuSans-30" x="558.691406"/>
      <use xlink:href="#DejaVuSans-2e" x="622.314453"/>
      <use xlink:href="#DejaVuSans-30" x="654.101562"/>
      <use xlink:href="#DejaVuSans-31" x="717.724609"/>
      <use xlink:href="#DejaVuSans-20" x="781.347656"/>
      <use xlink:href="#DejaVuSans-69" x="813.134766"/>
      <use xlink:href="#DejaVuSans-6e" x="840.917969"/>
      <use xlink:href="#DejaVuSans-69" x="904.296875"/>
      <use xlink:href="#DejaVuSans-74" x="932.080078"/>
      <use xlink:href="#DejaVuSans-20" x="971.289062"/>
      <use xlink:href="#DejaVuSans-73" x="1003.076172"/>
      <use xlink:href="#DejaVuSans-74" x="1055.175781"/>
      <use xlink:href="#DejaVuSans-61" x="1094.384766"/>
      <use xlink:href="#DejaVuSans-74" x="1155.664062"/>
      <use xlink:href="#DejaVuSans-65" x="1194.873047"/>
     </g>
    </g>
    <g id="line2d_26">
     <path d="M 154.8 199.160625 
L 166.8 199.160625 
L 178.8 199.160625 
" style="fill: none; stroke: #23238e; stroke-width: 1.5; stroke-linecap: square"/>
     <g>
      <use xlink:href="#m2551ecf3c4" x="166.8" y="199.160625" style="fill: #23238e; stroke: #23238e"/>
     </g>
    </g>
    <g id="text_19">
     <!-- sa200 200 0.01 -->
     <g transform="translate(188.4 203.360625)scale(0.12 -0.12)">
      <use xlink:href="#DejaVuSans-73"/>
      <use xlink:href="#DejaVuSans-61" x="52.099609"/>
      <use xlink:href="#DejaVuSans-32" x="113.378906"/>
      <use xlink:href="#DejaVuSans-30" x="177.001953"/>
      <use xlink:href="#DejaVuSans-30" x="240.625"/>
      <use xlink:href="#DejaVuSans-20" x="304.248047"/>
      <use xlink:href="#DejaVuSans-32" x="336.035156"/>
      <use xlink:href="#DejaVuSans-30" x="399.658203"/>
      <use xlink:href="#DejaVuSans-30" x="463.28125"/>
      <use xlink:href="#DejaVuSans-20" x="526.904297"/>
      <use xlink:href="#DejaVuSans-30" x="558.691406"/>
      <use xlink:href="#DejaVuSans-2e" x="622.314453"/>
      <use xlink:href="#DejaVuSans-30" x="654.101562"/>
      <use xlink:href="#DejaVuSans-31" x="717.724609"/>
     </g>
    </g>
    <g id="line2d_27">
     <path d="M 154.8 216.774375 
L 166.8 216.774375 
L 178.8 216.774375 
" style="fill: none; stroke: #23238e; stroke-width: 1.5; stroke-linecap: square"/>
     <g>
      <use xlink:href="#m2551ecf3c4" x="166.8" y="216.774375" style="fill: #23238e; stroke: #23238e"/>
     </g>
    </g>
    <g id="text_20">
     <!-- sa200 200 0.01 init state -->
     <g transform="translate(188.4 220.974375)scale(0.12 -0.12)">
      <use xlink:href="#DejaVuSans-73"/>
      <use xlink:href="#DejaVuSans-61" x="52.099609"/>
      <use xlink:href="#DejaVuSans-32" x="113.378906"/>
      <use xlink:href="#DejaVuSans-30" x="177.001953"/>
      <use xlink:href="#DejaVuSans-30" x="240.625"/>
      <use xlink:href="#DejaVuSans-20" x="304.248047"/>
      <use xlink:href="#DejaVuSans-32" x="336.035156"/>
      <use xlink:href="#DejaVuSans-30" x="399.658203"/>
      <use xlink:href="#DejaVuSans-30" x="463.28125"/>
      <use xlink:href="#DejaVuSans-20" x="526.904297"/>
      <use xlink:href="#DejaVuSans-30" x="558.691406"/>
      <use xlink:href="#DejaVuSans-2e" x="622.314453"/>
      <use xlink:href="#DejaVuSans-30" x="654.101562"/>
      <use xlink:href="#DejaVuSans-31" x="717.724609"/>
      <use xlink:href="#DejaVuSans-20" x="781.347656"/>
      <use xlink:href="#DejaVuSans-69" x="813.134766"/>
      <use xlink:href="#DejaVuSans-6e" x="840.917969"/>
      <use xlink:href="#DejaVuSans-69" x="904.296875"/>
      <use xlink:href="#DejaVuSans-74" x="932.080078"/>
      <use xlink:href="#DejaVuSans-20" x="971.289062"/>
      <use xlink:href="#DejaVuSans-73" x="1003.076172"/>
      <use xlink:href="#DejaVuSans-74" x="1055.175781"/>
      <use xlink:href="#DejaVuSans-61" x="1094.384766"/>
      <use xlink:href="#DejaVuSans-74" x="1155.664062"/>
      <use xlink:href="#DejaVuSans-65" x="1194.873047"/>
     </g>
    </g>
   </g>
  </g>
 </g>
 <defs>
  <clipPath id="p712bcafb3e">
   <rect x="144" y="77.76" width="892.8" height="489.24"/>
  </clipPath>
 </defs>
</svg>
