<?xml version="1.0" encoding="utf-8" standalone="no"?>
<!DOCTYPE svg PUBLIC "-//W3C//DTD SVG 1.1//EN"
  "http://www.w3.org/Graphics/SVG/1.1/DTD/svg11.dtd">
<svg xmlns:xlink="http://www.w3.org/1999/xlink" width="576pt" height="1440pt" viewBox="0 0 576 1440" xmlns="http://www.w3.org/2000/svg" version="1.1">
 <metadata>
  <rdf:RDF xmlns:dc="http://purl.org/dc/elements/1.1/" xmlns:cc="http://creativecommons.org/ns#" xmlns:rdf="http://www.w3.org/1999/02/22-rdf-syntax-ns#">
   <cc:Work>
    <dc:type rdf:resource="http://purl.org/dc/dcmitype/StillImage"/>
    <dc:date>2022-04-25T16:46:34.972380</dc:date>
    <dc:format>image/svg+xml</dc:format>
    <dc:creator>
     <cc:Agent>
      <dc:title>Matplotlib v3.5.1, https://matplotlib.org/</dc:title>
     </cc:Agent>
    </dc:creator>
   </cc:Work>
  </rdf:RDF>
 </metadata>
 <defs>
  <style type="text/css">*{stroke-linejoin: round; stroke-linecap: butt}</style>
 </defs>
 <g id="figure_1">
  <g id="patch_1">
   <path d="M 0 1440 
L 576 1440 
L 576 0 
L 0 0 
L 0 1440 
z
" style="fill: none"/>
  </g>
  <g id="axes_1"/>
  <g id="axes_2">
   <g id="patch_2">
    <path d="M 72 1260 
L 518.4 1260 
L 518.4 172.8 
L 72 172.8 
z
" style="fill: #ffffff"/>
   </g>
   <g id="patch_3">
    <path d="M 303.8304 890.01225 
L 322.4304 890.01225 
L 322.4304 886.61475 
L 303.8304 886.61475 
L 303.8304 890.01225 
z
" clip-path="url(#p6028785c0d)" style="fill: none; stroke: #000000; stroke-linejoin: miter"/>
   </g>
   <g id="patch_4">
    <path d="M 203.6136 755.980875 
L 222.2136 755.980875 
L 222.2136 752.583375 
L 203.6136 752.583375 
L 203.6136 755.980875 
z
" clip-path="url(#p6028785c0d)" style="fill: none; stroke: #000000; stroke-linejoin: miter"/>
   </g>
   <g id="patch_5">
    <path d="M 140.1504 847.20375 
L 158.7504 847.20375 
L 158.7504 843.80625 
L 140.1504 843.80625 
L 140.1504 847.20375 
z
" clip-path="url(#p6028785c0d)" style="fill: none; stroke: #000000; stroke-linejoin: miter"/>
   </g>
   <g id="patch_6">
    <path d="M 156.5184 945.73125 
L 175.1184 945.73125 
L 175.1184 942.33375 
L 156.5184 942.33375 
L 156.5184 945.73125 
z
" clip-path="url(#p6028785c0d)" style="fill: none; stroke: #000000; stroke-linejoin: miter"/>
   </g>
   <g id="patch_7">
    <path d="M 146.5116 1030.159125 
L 165.1116 1030.159125 
L 165.1116 1026.761625 
L 146.5116 1026.761625 
L 146.5116 1030.159125 
z
" clip-path="url(#p6028785c0d)" style="fill: none; stroke: #000000; stroke-linejoin: miter"/>
   </g>
   <g id="patch_8">
    <path d="M 309.6336 747.826875 
L 328.2336 747.826875 
L 328.2336 744.429375 
L 309.6336 744.429375 
L 309.6336 747.826875 
z
" clip-path="url(#p6028785c0d)" style="fill: none; stroke: #000000; stroke-linejoin: miter"/>
   </g>
   <g id="patch_9">
    <path d="M 493.476 626.36625 
L 512.076 626.36625 
L 512.076 622.96875 
L 493.476 622.96875 
L 493.476 626.36625 
z
" clip-path="url(#p6028785c0d)" style="fill: none; stroke: #000000; stroke-linejoin: miter"/>
   </g>
   <g id="patch_10">
    <path d="M 193.644 1020.47625 
L 212.244 1020.47625 
L 212.244 1017.07875 
L 193.644 1017.07875 
L 193.644 1020.47625 
z
" clip-path="url(#p6028785c0d)" style="fill: none; stroke: #000000; stroke-linejoin: miter"/>
   </g>
   <g id="patch_11">
    <path d="M 84.5364 776.705625 
L 103.1364 776.705625 
L 103.1364 773.308125 
L 84.5364 773.308125 
L 84.5364 776.705625 
z
" clip-path="url(#p6028785c0d)" style="fill: none; stroke: #000000; stroke-linejoin: miter"/>
   </g>
   <g id="patch_12">
    <path d="M 205.92 907.509375 
L 224.52 907.509375 
L 224.52 904.111875 
L 205.92 904.111875 
L 205.92 907.509375 
z
" clip-path="url(#p6028785c0d)" style="fill: none; stroke: #000000; stroke-linejoin: miter"/>
   </g>
   <g id="patch_13">
    <path d="M 283.854 955.414125 
L 302.454 955.414125 
L 302.454 952.016625 
L 283.854 952.016625 
L 283.854 955.414125 
z
" clip-path="url(#p6028785c0d)" style="fill: none; stroke: #000000; stroke-linejoin: miter"/>
   </g>
   <g id="patch_14">
    <path d="M 212.1696 1022.175 
L 230.7696 1022.175 
L 230.7696 1018.7775 
L 212.1696 1018.7775 
L 212.1696 1022.175 
z
" clip-path="url(#p6028785c0d)" style="fill: none; stroke: #000000; stroke-linejoin: miter"/>
   </g>
   <g id="patch_15">
    <path d="M 372.3156 447.9975 
L 390.9156 447.9975 
L 390.9156 444.6 
L 372.3156 444.6 
L 372.3156 447.9975 
z
" clip-path="url(#p6028785c0d)" style="fill: none; stroke: #000000; stroke-linejoin: miter"/>
   </g>
   <g id="patch_16">
    <path d="M 152.91 961.529625 
L 171.51 961.529625 
L 171.51 958.132125 
L 152.91 958.132125 
L 152.91 961.529625 
z
" clip-path="url(#p6028785c0d)" style="fill: none; stroke: #000000; stroke-linejoin: miter"/>
   </g>
   <g id="patch_17">
    <path d="M 179.6196 844.146 
L 198.2196 844.146 
L 198.2196 840.7485 
L 179.6196 840.7485 
L 179.6196 844.146 
z
" clip-path="url(#p6028785c0d)" style="fill: none; stroke: #000000; stroke-linejoin: miter"/>
   </g>
   <g id="patch_18">
    <path d="M 182.3724 1029.819375 
L 200.9724 1029.819375 
L 200.9724 1026.421875 
L 182.3724 1026.421875 
L 182.3724 1029.819375 
z
" clip-path="url(#p6028785c0d)" style="fill: none; stroke: #000000; stroke-linejoin: miter"/>
   </g>
   <g id="patch_19">
    <path d="M 305.5044 725.2335 
L 324.1044 725.2335 
L 324.1044 721.836 
L 305.5044 721.836 
L 305.5044 725.2335 
z
" clip-path="url(#p6028785c0d)" style="fill: none; stroke: #000000; stroke-linejoin: miter"/>
   </g>
   <g id="patch_20">
    <path d="M 190.296 782.65125 
L 208.896 782.65125 
L 208.896 779.25375 
L 190.296 779.25375 
L 190.296 782.65125 
z
" clip-path="url(#p6028785c0d)" style="fill: none; stroke: #000000; stroke-linejoin: miter"/>
   </g>
   <g id="patch_21">
    <path d="M 242.004 894.76875 
L 260.604 894.76875 
L 260.604 891.37125 
L 242.004 891.37125 
L 242.004 894.76875 
z
" clip-path="url(#p6028785c0d)" style="fill: none; stroke: #000000; stroke-linejoin: miter"/>
   </g>
   <g id="patch_22">
    <path d="M 217.638 825.45975 
L 236.238 825.45975 
L 236.238 822.06225 
L 217.638 822.06225 
L 217.638 825.45975 
z
" clip-path="url(#p6028785c0d)" style="fill: none; stroke: #000000; stroke-linejoin: miter"/>
   </g>
   <g id="patch_23">
    <path d="M 282.0684 977.66775 
L 300.6684 977.66775 
L 300.6684 974.27025 
L 282.0684 974.27025 
L 282.0684 977.66775 
z
" clip-path="url(#p6028785c0d)" style="fill: none; stroke: #000000; stroke-linejoin: miter"/>
   </g>
   <g id="patch_24">
    <path d="M 329.4984 583.8975 
L 348.0984 583.8975 
L 348.0984 580.5 
L 329.4984 580.5 
L 329.4984 583.8975 
z
" clip-path="url(#p6028785c0d)" style="fill: none; stroke: #000000; stroke-linejoin: miter"/>
   </g>
   <g id="patch_25">
    <path d="M 266.4816 969.004125 
L 285.0816 969.004125 
L 285.0816 965.606625 
L 266.4816 965.606625 
L 266.4816 969.004125 
z
" clip-path="url(#p6028785c0d)" style="fill: none; stroke: #000000; stroke-linejoin: miter"/>
   </g>
   <g id="patch_26">
    <path d="M 250.932 891.37125 
L 269.532 891.37125 
L 269.532 887.97375 
L 250.932 887.97375 
L 250.932 891.37125 
z
" clip-path="url(#p6028785c0d)" style="fill: none; stroke: #000000; stroke-linejoin: miter"/>
   </g>
   <g id="patch_27">
    <path d="M 158.6016 851.790375 
L 177.2016 851.790375 
L 177.2016 848.392875 
L 158.6016 848.392875 
L 158.6016 851.790375 
z
" clip-path="url(#p6028785c0d)" style="fill: none; stroke: #000000; stroke-linejoin: miter"/>
   </g>
   <g id="patch_28">
    <path d="M 193.5324 1053.262125 
L 212.1324 1053.262125 
L 212.1324 1049.864625 
L 193.5324 1049.864625 
L 193.5324 1053.262125 
z
" clip-path="url(#p6028785c0d)" style="fill: none; stroke: #000000; stroke-linejoin: miter"/>
   </g>
   <g id="patch_29">
    <path d="M 156.1464 820.533375 
L 174.7464 820.533375 
L 174.7464 817.135875 
L 156.1464 817.135875 
L 156.1464 820.533375 
z
" clip-path="url(#p6028785c0d)" style="fill: none; stroke: #000000; stroke-linejoin: miter"/>
   </g>
   <g id="patch_30">
    <path d="M 163.0284 746.128125 
L 181.6284 746.128125 
L 181.6284 742.730625 
L 163.0284 742.730625 
L 163.0284 746.128125 
z
" clip-path="url(#p6028785c0d)" style="fill: none; stroke: #000000; stroke-linejoin: miter"/>
   </g>
   <g id="patch_31">
    <path d="M 232.518 912.605625 
L 251.118 912.605625 
L 251.118 909.208125 
L 232.518 909.208125 
L 232.518 912.605625 
z
" clip-path="url(#p6028785c0d)" style="fill: none; stroke: #000000; stroke-linejoin: miter"/>
   </g>
   <g id="patch_32">
    <path d="M 207.2964 1015.71975 
L 225.8964 1015.71975 
L 225.8964 1012.32225 
L 207.2964 1012.32225 
L 207.2964 1015.71975 
z
" clip-path="url(#p6028785c0d)" style="fill: none; stroke: #000000; stroke-linejoin: miter"/>
   </g>
   <g id="patch_33">
    <path d="M 177.834 963.568125 
L 196.434 963.568125 
L 196.434 960.170625 
L 177.834 960.170625 
L 177.834 963.568125 
z
" clip-path="url(#p6028785c0d)" style="fill: none; stroke: #000000; stroke-linejoin: miter"/>
   </g>
   <g id="patch_34">
    <path d="M 157.002 728.800875 
L 175.602 728.800875 
L 175.602 725.403375 
L 157.002 725.403375 
L 157.002 728.800875 
z
" clip-path="url(#p6028785c0d)" style="fill: none; stroke: #000000; stroke-linejoin: miter"/>
   </g>
   <g id="patch_35">
    <path d="M 202.2 840.918375 
L 220.8 840.918375 
L 220.8 837.520875 
L 202.2 837.520875 
L 202.2 840.918375 
z
" clip-path="url(#p6028785c0d)" style="fill: none; stroke: #000000; stroke-linejoin: miter"/>
   </g>
   <g id="patch_36">
    <path d="M 165.2976 921.099375 
L 183.8976 921.099375 
L 183.8976 917.701875 
L 165.2976 917.701875 
L 165.2976 921.099375 
z
" clip-path="url(#p6028785c0d)" style="fill: none; stroke: #000000; stroke-linejoin: miter"/>
   </g>
   <g id="patch_37">
    <path d="M 209.0076 971.722125 
L 227.6076 971.722125 
L 227.6076 968.324625 
L 209.0076 968.324625 
L 209.0076 971.722125 
z
" clip-path="url(#p6028785c0d)" style="fill: none; stroke: #000000; stroke-linejoin: miter"/>
   </g>
   <g id="patch_38">
    <path d="M 156.072 852.3 
L 174.672 852.3 
L 174.672 848.9025 
L 156.072 848.9025 
L 156.072 852.3 
z
" clip-path="url(#p6028785c0d)" style="fill: none; stroke: #000000; stroke-linejoin: miter"/>
   </g>
   <g id="patch_39">
    <path d="M 401.1084 342.675 
L 419.7084 342.675 
L 419.7084 339.2775 
L 401.1084 339.2775 
L 401.1084 342.675 
z
" clip-path="url(#p6028785c0d)" style="fill: none; stroke: #000000; stroke-linejoin: miter"/>
   </g>
   <g id="patch_40">
    <path d="M 197.178 829.706625 
L 215.778 829.706625 
L 215.778 826.309125 
L 197.178 826.309125 
L 197.178 829.706625 
z
" clip-path="url(#p6028785c0d)" style="fill: none; stroke: #000000; stroke-linejoin: miter"/>
   </g>
   <g id="patch_41">
    <path d="M 248.886 766.513125 
L 267.486 766.513125 
L 267.486 763.115625 
L 248.886 763.115625 
L 248.886 766.513125 
z
" clip-path="url(#p6028785c0d)" style="fill: none; stroke: #000000; stroke-linejoin: miter"/>
   </g>
   <g id="patch_42">
    <path d="M 269.718 742.390875 
L 288.318 742.390875 
L 288.318 738.993375 
L 269.718 738.993375 
L 269.718 742.390875 
z
" clip-path="url(#p6028785c0d)" style="fill: none; stroke: #000000; stroke-linejoin: miter"/>
   </g>
   <g id="patch_43">
    <path d="M 191.7096 736.275375 
L 210.3096 736.275375 
L 210.3096 732.877875 
L 191.7096 732.877875 
L 191.7096 736.275375 
z
" clip-path="url(#p6028785c0d)" style="fill: none; stroke: #000000; stroke-linejoin: miter"/>
   </g>
   <g id="patch_44">
    <path d="M 269.4204 834.463125 
L 288.0204 834.463125 
L 288.0204 831.065625 
L 269.4204 831.065625 
L 269.4204 834.463125 
z
" clip-path="url(#p6028785c0d)" style="fill: none; stroke: #000000; stroke-linejoin: miter"/>
   </g>
   <g id="patch_45">
    <path d="M 287.8716 956.2635 
L 306.4716 956.2635 
L 306.4716 952.866 
L 287.8716 952.866 
L 287.8716 956.2635 
z
" clip-path="url(#p6028785c0d)" style="fill: none; stroke: #000000; stroke-linejoin: miter"/>
   </g>
   <g id="patch_46">
    <path d="M 168.72 826.479 
L 187.32 826.479 
L 187.32 823.0815 
L 168.72 823.0815 
L 168.72 826.479 
z
" clip-path="url(#p6028785c0d)" style="fill: none; stroke: #000000; stroke-linejoin: miter"/>
   </g>
   <g id="patch_47">
    <path d="M 171.7704 721.49625 
L 190.3704 721.49625 
L 190.3704 718.09875 
L 171.7704 718.09875 
L 171.7704 721.49625 
z
" clip-path="url(#p6028785c0d)" style="fill: none; stroke: #000000; stroke-linejoin: miter"/>
   </g>
   <g id="patch_48">
    <path d="M 128.4696 816.966 
L 147.0696 816.966 
L 147.0696 813.5685 
L 128.4696 813.5685 
L 128.4696 816.966 
z
" clip-path="url(#p6028785c0d)" style="fill: none; stroke: #000000; stroke-linejoin: miter"/>
   </g>
   <g id="patch_49">
    <path d="M 243.12 833.104125 
L 261.72 833.104125 
L 261.72 829.706625 
L 243.12 829.706625 
L 243.12 833.104125 
z
" clip-path="url(#p6028785c0d)" style="fill: none; stroke: #000000; stroke-linejoin: miter"/>
   </g>
   <g id="patch_50">
    <path d="M 245.8356 963.228375 
L 264.4356 963.228375 
L 264.4356 959.830875 
L 245.8356 959.830875 
L 245.8356 963.228375 
z
" clip-path="url(#p6028785c0d)" style="fill: none; stroke: #000000; stroke-linejoin: miter"/>
   </g>
   <g id="patch_51">
    <path d="M 199.1124 920.25 
L 217.7124 920.25 
L 217.7124 916.8525 
L 199.1124 916.8525 
L 199.1124 920.25 
z
" clip-path="url(#p6028785c0d)" style="fill: none; stroke: #000000; stroke-linejoin: miter"/>
   </g>
   <g id="patch_52">
    <path d="M 141.75 801.847125 
L 160.35 801.847125 
L 160.35 798.449625 
L 141.75 798.449625 
L 141.75 801.847125 
z
" clip-path="url(#p6028785c0d)" style="fill: none; stroke: #000000; stroke-linejoin: miter"/>
   </g>
   <g id="patch_53">
    <path d="M 199.1496 808.981875 
L 217.7496 808.981875 
L 217.7496 805.584375 
L 199.1496 805.584375 
L 199.1496 808.981875 
z
" clip-path="url(#p6028785c0d)" style="fill: none; stroke: #000000; stroke-linejoin: miter"/>
   </g>
   <g id="patch_54">
    <path d="M 115.7844 871.326 
L 134.3844 871.326 
L 134.3844 867.9285 
L 115.7844 867.9285 
L 115.7844 871.326 
z
" clip-path="url(#p6028785c0d)" style="fill: none; stroke: #000000; stroke-linejoin: miter"/>
   </g>
   <g id="patch_55">
    <path d="M 192.342 974.27025 
L 210.942 974.27025 
L 210.942 970.87275 
L 192.342 970.87275 
L 192.342 974.27025 
z
" clip-path="url(#p6028785c0d)" style="fill: none; stroke: #000000; stroke-linejoin: miter"/>
   </g>
   <g id="patch_56">
    <path d="M 220.8744 848.053125 
L 239.4744 848.053125 
L 239.4744 844.655625 
L 220.8744 844.655625 
L 220.8744 848.053125 
z
" clip-path="url(#p6028785c0d)" style="fill: none; stroke: #000000; stroke-linejoin: miter"/>
   </g>
   <g id="patch_57">
    <path d="M 153.3564 1079.083125 
L 171.9564 1079.083125 
L 171.9564 1075.685625 
L 153.3564 1075.685625 
L 153.3564 1079.083125 
z
" clip-path="url(#p6028785c0d)" style="fill: none; stroke: #000000; stroke-linejoin: miter"/>
   </g>
   <g id="patch_58">
    <path d="M 201.3444 918.55125 
L 219.9444 918.55125 
L 219.9444 915.15375 
L 201.3444 915.15375 
L 201.3444 918.55125 
z
" clip-path="url(#p6028785c0d)" style="fill: none; stroke: #000000; stroke-linejoin: miter"/>
   </g>
   <g id="patch_59">
    <path d="M 223.4784 887.464125 
L 242.0784 887.464125 
L 242.0784 884.066625 
L 223.4784 884.066625 
L 223.4784 887.464125 
z
" clip-path="url(#p6028785c0d)" style="fill: none; stroke: #000000; stroke-linejoin: miter"/>
   </g>
   <g id="patch_60">
    <path d="M 122.6664 798.789375 
L 141.2664 798.789375 
L 141.2664 795.391875 
L 122.6664 795.391875 
L 122.6664 798.789375 
z
" clip-path="url(#p6028785c0d)" style="fill: none; stroke: #000000; stroke-linejoin: miter"/>
   </g>
   <g id="patch_61">
    <path d="M 210.3096 717.249375 
L 228.9096 717.249375 
L 228.9096 713.851875 
L 210.3096 713.851875 
L 210.3096 717.249375 
z
" clip-path="url(#p6028785c0d)" style="fill: none; stroke: #000000; stroke-linejoin: miter"/>
   </g>
   <g id="patch_62">
    <path d="M 250.188 937.747125 
L 268.788 937.747125 
L 268.788 934.349625 
L 250.188 934.349625 
L 250.188 937.747125 
z
" clip-path="url(#p6028785c0d)" style="fill: none; stroke: #000000; stroke-linejoin: miter"/>
   </g>
   <g id="patch_63">
    <path d="M 89.2236 754.11225 
L 107.8236 754.11225 
L 107.8236 750.71475 
L 89.2236 750.71475 
L 89.2236 754.11225 
z
" clip-path="url(#p6028785c0d)" style="fill: none; stroke: #000000; stroke-linejoin: miter"/>
   </g>
   <g id="patch_64">
    <path d="M 116.826 833.104125 
L 135.426 833.104125 
L 135.426 829.706625 
L 116.826 829.706625 
L 116.826 833.104125 
z
" clip-path="url(#p6028785c0d)" style="fill: none; stroke: #000000; stroke-linejoin: miter"/>
   </g>
   <g id="patch_65">
    <path d="M 333.9996 529.027875 
L 352.5996 529.027875 
L 352.5996 525.630375 
L 333.9996 525.630375 
L 333.9996 529.027875 
z
" clip-path="url(#p6028785c0d)" style="fill: none; stroke: #000000; stroke-linejoin: miter"/>
   </g>
   <g id="patch_66">
    <path d="M 118.2024 846.014625 
L 136.8024 846.014625 
L 136.8024 842.617125 
L 118.2024 842.617125 
L 118.2024 846.014625 
z
" clip-path="url(#p6028785c0d)" style="fill: none; stroke: #000000; stroke-linejoin: miter"/>
   </g>
   <g id="patch_67">
    <path d="M 290.1036 880.329375 
L 308.7036 880.329375 
L 308.7036 876.931875 
L 290.1036 876.931875 
L 290.1036 880.329375 
z
" clip-path="url(#p6028785c0d)" style="fill: none; stroke: #000000; stroke-linejoin: miter"/>
   </g>
   <g id="patch_68">
    <path d="M 132.9336 927.894375 
L 151.5336 927.894375 
L 151.5336 924.496875 
L 132.9336 924.496875 
L 132.9336 927.894375 
z
" clip-path="url(#p6028785c0d)" style="fill: none; stroke: #000000; stroke-linejoin: miter"/>
   </g>
   <g id="patch_69">
    <path d="M 217.266 940.635 
L 235.866 940.635 
L 235.866 937.2375 
L 217.266 937.2375 
L 217.266 940.635 
z
" clip-path="url(#p6028785c0d)" style="fill: none; stroke: #000000; stroke-linejoin: miter"/>
   </g>
   <g id="patch_70">
    <path d="M 352.674 544.82625 
L 371.274 544.82625 
L 371.274 541.42875 
L 352.674 541.42875 
L 352.674 544.82625 
z
" clip-path="url(#p6028785c0d)" style="fill: none; stroke: #000000; stroke-linejoin: miter"/>
   </g>
   <g id="patch_71">
    <path d="M 167.418 1032.877125 
L 186.018 1032.877125 
L 186.018 1029.479625 
L 167.418 1029.479625 
L 167.418 1032.877125 
z
" clip-path="url(#p6028785c0d)" style="fill: none; stroke: #000000; stroke-linejoin: miter"/>
   </g>
   <g id="patch_72">
    <path d="M 214.1784 781.29225 
L 232.7784 781.29225 
L 232.7784 777.89475 
L 214.1784 777.89475 
L 214.1784 781.29225 
z
" clip-path="url(#p6028785c0d)" style="fill: none; stroke: #000000; stroke-linejoin: miter"/>
   </g>
   <g id="patch_73">
    <path d="M 284.4864 978.517125 
L 303.0864 978.517125 
L 303.0864 975.119625 
L 284.4864 975.119625 
L 284.4864 978.517125 
z
" clip-path="url(#p6028785c0d)" style="fill: none; stroke: #000000; stroke-linejoin: miter"/>
   </g>
   <g id="patch_74">
    <path d="M 120.732 839.04975 
L 139.332 839.04975 
L 139.332 835.65225 
L 120.732 835.65225 
L 120.732 839.04975 
z
" clip-path="url(#p6028785c0d)" style="fill: none; stroke: #000000; stroke-linejoin: miter"/>
   </g>
   <g id="patch_75">
    <path d="M 134.0496 1018.267875 
L 152.6496 1018.267875 
L 152.6496 1014.870375 
L 134.0496 1014.870375 
L 134.0496 1018.267875 
z
" clip-path="url(#p6028785c0d)" style="fill: none; stroke: #000000; stroke-linejoin: miter"/>
   </g>
   <g id="patch_76">
    <path d="M 201.7536 872.34525 
L 220.3536 872.34525 
L 220.3536 868.94775 
L 201.7536 868.94775 
L 201.7536 872.34525 
z
" clip-path="url(#p6028785c0d)" style="fill: none; stroke: #000000; stroke-linejoin: miter"/>
   </g>
   <g id="patch_77">
    <path d="M 412.1196 1180.15875 
L 430.7196 1180.15875 
L 430.7196 1176.76125 
L 412.1196 1176.76125 
L 412.1196 1180.15875 
z
" clip-path="url(#p6028785c0d)" style="fill: none; stroke: #000000; stroke-linejoin: miter"/>
   </g>
   <g id="patch_78">
    <path d="M 429.306 1199.694375 
L 447.906 1199.694375 
L 447.906 1196.296875 
L 429.306 1196.296875 
L 429.306 1199.694375 
z
" clip-path="url(#p6028785c0d)" style="fill: none; stroke: #000000; stroke-linejoin: miter"/>
   </g>
   <g id="patch_79">
    <path d="M 320.124 591.541875 
L 338.724 591.541875 
L 338.724 588.144375 
L 320.124 588.144375 
L 320.124 591.541875 
z
" clip-path="url(#p6028785c0d)" style="fill: none; stroke: #000000; stroke-linejoin: miter"/>
   </g>
   <g id="patch_80">
    <path d="M 212.6904 1068.04125 
L 231.2904 1068.04125 
L 231.2904 1064.64375 
L 212.6904 1064.64375 
L 212.6904 1068.04125 
z
" clip-path="url(#p6028785c0d)" style="fill: none; stroke: #000000; stroke-linejoin: miter"/>
   </g>
   <g id="patch_81">
    <path d="M 169.65 786.558375 
L 188.25 786.558375 
L 188.25 783.160875 
L 169.65 783.160875 
L 169.65 786.558375 
z
" clip-path="url(#p6028785c0d)" style="fill: none; stroke: #000000; stroke-linejoin: miter"/>
   </g>
   <g id="patch_82">
    <path d="M 176.9784 1023.534 
L 195.5784 1023.534 
L 195.5784 1020.1365 
L 176.9784 1020.1365 
L 176.9784 1023.534 
z
" clip-path="url(#p6028785c0d)" style="fill: none; stroke: #000000; stroke-linejoin: miter"/>
   </g>
   <g id="patch_83">
    <path d="M 432.654 1178.46 
L 451.254 1178.46 
L 451.254 1175.0625 
L 432.654 1175.0625 
L 432.654 1178.46 
z
" clip-path="url(#p6028785c0d)" style="fill: none; stroke: #000000; stroke-linejoin: miter"/>
   </g>
   <g id="patch_84">
    <path d="M 200.2284 1067.531625 
L 218.8284 1067.531625 
L 218.8284 1064.134125 
L 200.2284 1064.134125 
L 200.2284 1067.531625 
z
" clip-path="url(#p6028785c0d)" style="fill: none; stroke: #000000; stroke-linejoin: miter"/>
   </g>
   <g id="patch_85">
    <path d="M 113.3664 806.094 
L 131.9664 806.094 
L 131.9664 802.6965 
L 113.3664 802.6965 
L 113.3664 806.094 
z
" clip-path="url(#p6028785c0d)" style="fill: none; stroke: #000000; stroke-linejoin: miter"/>
   </g>
   <g id="patch_86">
    <path d="M 147.888 888.483375 
L 166.488 888.483375 
L 166.488 885.085875 
L 147.888 885.085875 
L 147.888 888.483375 
z
" clip-path="url(#p6028785c0d)" style="fill: none; stroke: #000000; stroke-linejoin: miter"/>
   </g>
   <g id="patch_87">
    <path d="M 215.964 866.22975 
L 234.564 866.22975 
L 234.564 862.83225 
L 215.964 862.83225 
L 215.964 866.22975 
z
" clip-path="url(#p6028785c0d)" style="fill: none; stroke: #000000; stroke-linejoin: miter"/>
   </g>
   <g id="patch_88">
    <path d="M 246.282 822.06225 
L 264.882 822.06225 
L 264.882 818.66475 
L 246.282 818.66475 
L 246.282 822.06225 
z
" clip-path="url(#p6028785c0d)" style="fill: none; stroke: #000000; stroke-linejoin: miter"/>
   </g>
   <g id="patch_89">
    <path d="M 287.946 961.35975 
L 306.546 961.35975 
L 306.546 957.96225 
L 287.946 957.96225 
L 287.946 961.35975 
z
" clip-path="url(#p6028785c0d)" style="fill: none; stroke: #000000; stroke-linejoin: miter"/>
   </g>
   <g id="patch_90">
    <path d="M 248.2536 965.606625 
L 266.8536 965.606625 
L 266.8536 962.209125 
L 248.2536 962.209125 
L 248.2536 965.606625 
z
" clip-path="url(#p6028785c0d)" style="fill: none; stroke: #000000; stroke-linejoin: miter"/>
   </g>
   <g id="patch_91">
    <path d="M 266.6304 815.437125 
L 285.2304 815.437125 
L 285.2304 812.039625 
L 266.6304 812.039625 
L 266.6304 815.437125 
z
" clip-path="url(#p6028785c0d)" style="fill: none; stroke: #000000; stroke-linejoin: miter"/>
   </g>
   <g id="patch_92">
    <path d="M 156.3324 785.539125 
L 174.9324 785.539125 
L 174.9324 782.141625 
L 156.3324 782.141625 
L 156.3324 785.539125 
z
" clip-path="url(#p6028785c0d)" style="fill: none; stroke: #000000; stroke-linejoin: miter"/>
   </g>
   <g id="patch_93">
    <path d="M 165.6696 1011.303 
L 184.2696 1011.303 
L 184.2696 1007.9055 
L 165.6696 1007.9055 
L 165.6696 1011.303 
z
" clip-path="url(#p6028785c0d)" style="fill: none; stroke: #000000; stroke-linejoin: miter"/>
   </g>
   <g id="patch_94">
    <path d="M 282.4404 867.58875 
L 301.0404 867.58875 
L 301.0404 864.19125 
L 282.4404 864.19125 
L 282.4404 867.58875 
z
" clip-path="url(#p6028785c0d)" style="fill: none; stroke: #000000; stroke-linejoin: miter"/>
   </g>
   <g id="patch_95">
    <path d="M 133.0824 1015.38 
L 151.6824 1015.38 
L 151.6824 1011.9825 
L 133.0824 1011.9825 
L 133.0824 1015.38 
z
" clip-path="url(#p6028785c0d)" style="fill: none; stroke: #000000; stroke-linejoin: miter"/>
   </g>
   <g id="patch_96">
    <path d="M 166.7484 1002.12975 
L 185.3484 1002.12975 
L 185.3484 998.73225 
L 166.7484 998.73225 
L 166.7484 1002.12975 
z
" clip-path="url(#p6028785c0d)" style="fill: none; stroke: #000000; stroke-linejoin: miter"/>
   </g>
   <g id="patch_97">
    <path d="M 305.8764 815.437125 
L 324.4764 815.437125 
L 324.4764 812.039625 
L 305.8764 812.039625 
L 305.8764 815.437125 
z
" clip-path="url(#p6028785c0d)" style="fill: none; stroke: #000000; stroke-linejoin: miter"/>
   </g>
   <g id="patch_98">
    <path d="M 297.1344 901.9035 
L 315.7344 901.9035 
L 315.7344 898.506 
L 297.1344 898.506 
L 297.1344 901.9035 
z
" clip-path="url(#p6028785c0d)" style="fill: none; stroke: #000000; stroke-linejoin: miter"/>
   </g>
   <g id="patch_99">
    <path d="M 374.5476 525.630375 
L 393.1476 525.630375 
L 393.1476 522.232875 
L 374.5476 522.232875 
L 374.5476 525.630375 
z
" clip-path="url(#p6028785c0d)" style="fill: none; stroke: #000000; stroke-linejoin: miter"/>
   </g>
   <g id="patch_100">
    <path d="M 396.6444 449.69625 
L 415.2444 449.69625 
L 415.2444 446.29875 
L 396.6444 446.29875 
L 396.6444 449.69625 
z
" clip-path="url(#p6028785c0d)" style="fill: none; stroke: #000000; stroke-linejoin: miter"/>
   </g>
   <g id="patch_101">
    <path d="M 273.1776 734.7465 
L 291.7776 734.7465 
L 291.7776 731.349 
L 273.1776 731.349 
L 273.1776 734.7465 
z
" clip-path="url(#p6028785c0d)" style="fill: none; stroke: #000000; stroke-linejoin: miter"/>
   </g>
   <g id="patch_102">
    <path d="M 284.226 899.52525 
L 302.826 899.52525 
L 302.826 896.12775 
L 284.226 896.12775 
L 284.226 899.52525 
z
" clip-path="url(#p6028785c0d)" style="fill: none; stroke: #000000; stroke-linejoin: miter"/>
   </g>
   <g id="patch_103">
    <path d="M 304.6116 826.309125 
L 323.2116 826.309125 
L 323.2116 822.911625 
L 304.6116 822.911625 
L 304.6116 826.309125 
z
" clip-path="url(#p6028785c0d)" style="fill: none; stroke: #000000; stroke-linejoin: miter"/>
   </g>
   <g id="patch_104">
    <path d="M 158.304 1009.094625 
L 176.904 1009.094625 
L 176.904 1005.697125 
L 158.304 1005.697125 
L 158.304 1009.094625 
z
" clip-path="url(#p6028785c0d)" style="fill: none; stroke: #000000; stroke-linejoin: miter"/>
   </g>
   <g id="patch_105">
    <path d="M 163.7724 774.49725 
L 182.3724 774.49725 
L 182.3724 771.09975 
L 163.7724 771.09975 
L 163.7724 774.49725 
z
" clip-path="url(#p6028785c0d)" style="fill: none; stroke: #000000; stroke-linejoin: miter"/>
   </g>
   <g id="patch_106">
    <path d="M 260.976 725.403375 
L 279.576 725.403375 
L 279.576 722.005875 
L 260.976 722.005875 
L 260.976 725.403375 
z
" clip-path="url(#p6028785c0d)" style="fill: none; stroke: #000000; stroke-linejoin: miter"/>
   </g>
   <g id="patch_107">
    <path d="M 109.4604 831.065625 
L 128.0604 831.065625 
L 128.0604 827.668125 
L 109.4604 827.668125 
L 109.4604 831.065625 
z
" clip-path="url(#p6028785c0d)" style="fill: none; stroke: #000000; stroke-linejoin: miter"/>
   </g>
   <g id="patch_108">
    <path d="M 275.1864 941.144625 
L 293.7864 941.144625 
L 293.7864 937.747125 
L 275.1864 937.747125 
L 275.1864 941.144625 
z
" clip-path="url(#p6028785c0d)" style="fill: none; stroke: #000000; stroke-linejoin: miter"/>
   </g>
   <g id="patch_109">
    <path d="M 119.1324 831.57525 
L 137.7324 831.57525 
L 137.7324 828.17775 
L 119.1324 828.17775 
L 119.1324 831.57525 
z
" clip-path="url(#p6028785c0d)" style="fill: none; stroke: #000000; stroke-linejoin: miter"/>
   </g>
   <g id="patch_110">
    <path d="M 123.708 839.219625 
L 142.308 839.219625 
L 142.308 835.822125 
L 123.708 835.822125 
L 123.708 839.219625 
z
" clip-path="url(#p6028785c0d)" style="fill: none; stroke: #000000; stroke-linejoin: miter"/>
   </g>
   <g id="patch_111">
    <path d="M 460.4424 621.60975 
L 479.0424 621.60975 
L 479.0424 618.21225 
L 460.4424 618.21225 
L 460.4424 621.60975 
z
" clip-path="url(#p6028785c0d)" style="fill: none; stroke: #000000; stroke-linejoin: miter"/>
   </g>
   <g id="patch_112">
    <path d="M 284.784 976.30875 
L 303.384 976.30875 
L 303.384 972.91125 
L 284.784 972.91125 
L 284.784 976.30875 
z
" clip-path="url(#p6028785c0d)" style="fill: none; stroke: #000000; stroke-linejoin: miter"/>
   </g>
   <g id="patch_113">
    <path d="M 114.4824 828.5175 
L 133.0824 828.5175 
L 133.0824 825.12 
L 114.4824 825.12 
L 114.4824 828.5175 
z
" clip-path="url(#p6028785c0d)" style="fill: none; stroke: #000000; stroke-linejoin: miter"/>
   </g>
   <g id="patch_114">
    <path d="M 113.0316 906.32025 
L 131.6316 906.32025 
L 131.6316 902.92275 
L 113.0316 902.92275 
L 113.0316 906.32025 
z
" clip-path="url(#p6028785c0d)" style="fill: none; stroke: #000000; stroke-linejoin: miter"/>
   </g>
   <g id="patch_115">
    <path d="M 305.988 733.897125 
L 324.588 733.897125 
L 324.588 730.499625 
L 305.988 730.499625 
L 305.988 733.897125 
z
" clip-path="url(#p6028785c0d)" style="fill: none; stroke: #000000; stroke-linejoin: miter"/>
   </g>
   <g id="patch_116">
    <path d="M 151.3476 1050.204375 
L 169.9476 1050.204375 
L 169.9476 1046.806875 
L 151.3476 1046.806875 
L 151.3476 1050.204375 
z
" clip-path="url(#p6028785c0d)" style="fill: none; stroke: #000000; stroke-linejoin: miter"/>
   </g>
   <g id="patch_117">
    <path d="M 273.624 950.8275 
L 292.224 950.8275 
L 292.224 947.43 
L 273.624 947.43 
L 273.624 950.8275 
z
" clip-path="url(#p6028785c0d)" style="fill: none; stroke: #000000; stroke-linejoin: miter"/>
   </g>
   <g id="patch_118">
    <path d="M 403.3776 488.7675 
L 421.9776 488.7675 
L 421.9776 485.37 
L 403.3776 485.37 
L 403.3776 488.7675 
z
" clip-path="url(#p6028785c0d)" style="fill: none; stroke: #000000; stroke-linejoin: miter"/>
   </g>
   <g id="patch_119">
    <path d="M 297.5436 925.855875 
L 316.1436 925.855875 
L 316.1436 922.458375 
L 297.5436 922.458375 
L 297.5436 925.855875 
z
" clip-path="url(#p6028785c0d)" style="fill: none; stroke: #000000; stroke-linejoin: miter"/>
   </g>
   <g id="patch_120">
    <path d="M 290.922 755.811 
L 309.522 755.811 
L 309.522 752.4135 
L 290.922 752.4135 
L 290.922 755.811 
z
" clip-path="url(#p6028785c0d)" style="fill: none; stroke: #000000; stroke-linejoin: miter"/>
   </g>
   <g id="patch_121">
    <path d="M 139.4436 827.328375 
L 158.0436 827.328375 
L 158.0436 823.930875 
L 139.4436 823.930875 
L 139.4436 827.328375 
z
" clip-path="url(#p6028785c0d)" style="fill: none; stroke: #000000; stroke-linejoin: miter"/>
   </g>
   <g id="patch_122">
    <path d="M 147.2184 843.80625 
L 165.8184 843.80625 
L 165.8184 840.40875 
L 147.2184 840.40875 
L 147.2184 843.80625 
z
" clip-path="url(#p6028785c0d)" style="fill: none; stroke: #000000; stroke-linejoin: miter"/>
   </g>
   <g id="patch_123">
    <path d="M 210.012 907.849125 
L 228.612 907.849125 
L 228.612 904.451625 
L 210.012 904.451625 
L 210.012 907.849125 
z
" clip-path="url(#p6028785c0d)" style="fill: none; stroke: #000000; stroke-linejoin: miter"/>
   </g>
   <g id="patch_124">
    <path d="M 450.9564 423.365625 
L 469.5564 423.365625 
L 469.5564 419.968125 
L 450.9564 419.968125 
L 450.9564 423.365625 
z
" clip-path="url(#p6028785c0d)" style="fill: none; stroke: #000000; stroke-linejoin: miter"/>
   </g>
   <g id="patch_125">
    <path d="M 260.79 858.75525 
L 279.39 858.75525 
L 279.39 855.35775 
L 260.79 855.35775 
L 260.79 858.75525 
z
" clip-path="url(#p6028785c0d)" style="fill: none; stroke: #000000; stroke-linejoin: miter"/>
   </g>
   <g id="patch_126">
    <path d="M 299.3664 938.086875 
L 317.9664 938.086875 
L 317.9664 934.689375 
L 299.3664 934.689375 
L 299.3664 938.086875 
z
" clip-path="url(#p6028785c0d)" style="fill: none; stroke: #000000; stroke-linejoin: miter"/>
   </g>
   <g id="patch_127">
    <path d="M 169.464 856.886625 
L 188.064 856.886625 
L 188.064 853.489125 
L 169.464 853.489125 
L 169.464 856.886625 
z
" clip-path="url(#p6028785c0d)" style="fill: none; stroke: #000000; stroke-linejoin: miter"/>
   </g>
   <g id="patch_128">
    <path d="M 112.8084 845.84475 
L 131.4084 845.84475 
L 131.4084 842.44725 
L 112.8084 842.44725 
L 112.8084 845.84475 
z
" clip-path="url(#p6028785c0d)" style="fill: none; stroke: #000000; stroke-linejoin: miter"/>
   </g>
   <g id="patch_129">
    <path d="M 275.7816 864.19125 
L 294.3816 864.19125 
L 294.3816 860.79375 
L 275.7816 860.79375 
L 275.7816 864.19125 
z
" clip-path="url(#p6028785c0d)" style="fill: none; stroke: #000000; stroke-linejoin: miter"/>
   </g>
   <g id="patch_130">
    <path d="M 231.216 863.681625 
L 249.816 863.681625 
L 249.816 860.284125 
L 231.216 860.284125 
L 231.216 863.681625 
z
" clip-path="url(#p6028785c0d)" style="fill: none; stroke: #000000; stroke-linejoin: miter"/>
   </g>
   <g id="patch_131">
    <path d="M 235.9404 828.5175 
L 254.5404 828.5175 
L 254.5404 825.12 
L 235.9404 825.12 
L 235.9404 828.5175 
z
" clip-path="url(#p6028785c0d)" style="fill: none; stroke: #000000; stroke-linejoin: miter"/>
   </g>
   <g id="patch_132">
    <path d="M 289.1364 797.430375 
L 307.7364 797.430375 
L 307.7364 794.032875 
L 289.1364 794.032875 
L 289.1364 797.430375 
z
" clip-path="url(#p6028785c0d)" style="fill: none; stroke: #000000; stroke-linejoin: miter"/>
   </g>
   <g id="patch_133">
    <path d="M 172.3656 1051.05375 
L 190.9656 1051.05375 
L 190.9656 1047.65625 
L 172.3656 1047.65625 
L 172.3656 1051.05375 
z
" clip-path="url(#p6028785c0d)" style="fill: none; stroke: #000000; stroke-linejoin: miter"/>
   </g>
   <g id="patch_134">
    <path d="M 137.7696 1060.9065 
L 156.3696 1060.9065 
L 156.3696 1057.509 
L 137.7696 1057.509 
L 137.7696 1060.9065 
z
" clip-path="url(#p6028785c0d)" style="fill: none; stroke: #000000; stroke-linejoin: miter"/>
   </g>
   <g id="patch_135">
    <path d="M 253.908 767.70225 
L 272.508 767.70225 
L 272.508 764.30475 
L 253.908 764.30475 
L 253.908 767.70225 
z
" clip-path="url(#p6028785c0d)" style="fill: none; stroke: #000000; stroke-linejoin: miter"/>
   </g>
   <g id="patch_136">
    <path d="M 285.4536 892.73025 
L 304.0536 892.73025 
L 304.0536 889.33275 
L 285.4536 889.33275 
L 285.4536 892.73025 
z
" clip-path="url(#p6028785c0d)" style="fill: none; stroke: #000000; stroke-linejoin: miter"/>
   </g>
   <g id="patch_137">
    <path d="M 427.26 595.279125 
L 445.86 595.279125 
L 445.86 591.881625 
L 427.26 591.881625 
L 427.26 595.279125 
z
" clip-path="url(#p6028785c0d)" style="fill: none; stroke: #000000; stroke-linejoin: miter"/>
   </g>
   <g id="patch_138">
    <path d="M 296.874 938.93625 
L 315.474 938.93625 
L 315.474 935.53875 
L 296.874 935.53875 
L 296.874 938.93625 
z
" clip-path="url(#p6028785c0d)" style="fill: none; stroke: #000000; stroke-linejoin: miter"/>
   </g>
   <g id="patch_139">
    <path d="M 155.328 747.826875 
L 173.928 747.826875 
L 173.928 744.429375 
L 155.328 744.429375 
L 155.328 747.826875 
z
" clip-path="url(#p6028785c0d)" style="fill: none; stroke: #000000; stroke-linejoin: miter"/>
   </g>
   <g id="patch_140">
    <path d="M 138.3276 807.79275 
L 156.9276 807.79275 
L 156.9276 804.39525 
L 138.3276 804.39525 
L 138.3276 807.79275 
z
" clip-path="url(#p6028785c0d)" style="fill: none; stroke: #000000; stroke-linejoin: miter"/>
   </g>
   <g id="patch_141">
    <path d="M 291.7404 851.790375 
L 310.3404 851.790375 
L 310.3404 848.392875 
L 291.7404 848.392875 
L 291.7404 851.790375 
z
" clip-path="url(#p6028785c0d)" style="fill: none; stroke: #000000; stroke-linejoin: miter"/>
   </g>
   <g id="patch_142">
    <path d="M 197.55 982.764 
L 216.15 982.764 
L 216.15 979.3665 
L 197.55 979.3665 
L 197.55 982.764 
z
" clip-path="url(#p6028785c0d)" style="fill: none; stroke: #000000; stroke-linejoin: miter"/>
   </g>
   <g id="patch_143">
    <path d="M 136.8396 860.284125 
L 155.4396 860.284125 
L 155.4396 856.886625 
L 136.8396 856.886625 
L 136.8396 860.284125 
z
" clip-path="url(#p6028785c0d)" style="fill: none; stroke: #000000; stroke-linejoin: miter"/>
   </g>
   <g id="patch_144">
    <path d="M 375.8124 478.065375 
L 394.4124 478.065375 
L 394.4124 474.667875 
L 375.8124 474.667875 
L 375.8124 478.065375 
z
" clip-path="url(#p6028785c0d)" style="fill: none; stroke: #000000; stroke-linejoin: miter"/>
   </g>
   <g id="patch_145">
    <path d="M 184.158 801.847125 
L 202.758 801.847125 
L 202.758 798.449625 
L 184.158 798.449625 
L 184.158 801.847125 
z
" clip-path="url(#p6028785c0d)" style="fill: none; stroke: #000000; stroke-linejoin: miter"/>
   </g>
   <g id="patch_146">
    <path d="M 180.1404 758.019375 
L 198.7404 758.019375 
L 198.7404 754.621875 
L 180.1404 754.621875 
L 180.1404 758.019375 
z
" clip-path="url(#p6028785c0d)" style="fill: none; stroke: #000000; stroke-linejoin: miter"/>
   </g>
   <g id="patch_147">
    <path d="M 142.122 881.688375 
L 160.722 881.688375 
L 160.722 878.290875 
L 142.122 878.290875 
L 142.122 881.688375 
z
" clip-path="url(#p6028785c0d)" style="fill: none; stroke: #000000; stroke-linejoin: miter"/>
   </g>
   <g id="patch_148">
    <path d="M 284.412 931.631625 
L 303.012 931.631625 
L 303.012 928.234125 
L 284.412 928.234125 
L 284.412 931.631625 
z
" clip-path="url(#p6028785c0d)" style="fill: none; stroke: #000000; stroke-linejoin: miter"/>
   </g>
   <g id="patch_149">
    <path d="M 155.8116 1060.057125 
L 174.4116 1060.057125 
L 174.4116 1056.659625 
L 155.8116 1056.659625 
L 155.8116 1060.057125 
z
" clip-path="url(#p6028785c0d)" style="fill: none; stroke: #000000; stroke-linejoin: miter"/>
   </g>
   <g id="patch_150">
    <path d="M 198.48 963.568125 
L 217.08 963.568125 
L 217.08 960.170625 
L 198.48 960.170625 
L 198.48 963.568125 
z
" clip-path="url(#p6028785c0d)" style="fill: none; stroke: #000000; stroke-linejoin: miter"/>
   </g>
   <g id="patch_151">
    <path d="M 168.0876 723.53475 
L 186.6876 723.53475 
L 186.6876 720.13725 
L 168.0876 720.13725 
L 168.0876 723.53475 
z
" clip-path="url(#p6028785c0d)" style="fill: none; stroke: #000000; stroke-linejoin: miter"/>
   </g>
   <g id="patch_152">
    <path d="M 288.9876 957.6225 
L 307.5876 957.6225 
L 307.5876 954.225 
L 288.9876 954.225 
L 288.9876 957.6225 
z
" clip-path="url(#p6028785c0d)" style="fill: none; stroke: #000000; stroke-linejoin: miter"/>
   </g>
   <g id="patch_153">
    <path d="M 295.6836 867.249 
L 314.2836 867.249 
L 314.2836 863.8515 
L 295.6836 863.8515 
L 295.6836 867.249 
z
" clip-path="url(#p6028785c0d)" style="fill: none; stroke: #000000; stroke-linejoin: miter"/>
   </g>
   <g id="patch_154">
    <path d="M 268.5276 959.32125 
L 287.1276 959.32125 
L 287.1276 955.92375 
L 268.5276 955.92375 
L 268.5276 959.32125 
z
" clip-path="url(#p6028785c0d)" style="fill: none; stroke: #000000; stroke-linejoin: miter"/>
   </g>
   <g id="patch_155">
    <path d="M 428.376 446.6385 
L 446.976 446.6385 
L 446.976 443.241 
L 428.376 443.241 
L 428.376 446.6385 
z
" clip-path="url(#p6028785c0d)" style="fill: none; stroke: #000000; stroke-linejoin: miter"/>
   </g>
   <g id="patch_156">
    <path d="M 270.9456 950.48775 
L 289.5456 950.48775 
L 289.5456 947.09025 
L 270.9456 947.09025 
L 270.9456 950.48775 
z
" clip-path="url(#p6028785c0d)" style="fill: none; stroke: #000000; stroke-linejoin: miter"/>
   </g>
   <g id="patch_157">
    <path d="M 209.3424 1045.108125 
L 227.9424 1045.108125 
L 227.9424 1041.710625 
L 209.3424 1041.710625 
L 209.3424 1045.108125 
z
" clip-path="url(#p6028785c0d)" style="fill: none; stroke: #000000; stroke-linejoin: miter"/>
   </g>
   <g id="patch_158">
    <path d="M 191.8584 998.05275 
L 210.4584 998.05275 
L 210.4584 994.65525 
L 191.8584 994.65525 
L 191.8584 998.05275 
z
" clip-path="url(#p6028785c0d)" style="fill: none; stroke: #000000; stroke-linejoin: miter"/>
   </g>
   <g id="patch_159">
    <path d="M 184.902 703.999125 
L 203.502 703.999125 
L 203.502 700.601625 
L 184.902 700.601625 
L 184.902 703.999125 
z
" clip-path="url(#p6028785c0d)" style="fill: none; stroke: #000000; stroke-linejoin: miter"/>
   </g>
   <g id="patch_160">
    <path d="M 155.328 1000.940625 
L 173.928 1000.940625 
L 173.928 997.543125 
L 155.328 997.543125 
L 155.328 1000.940625 
z
" clip-path="url(#p6028785c0d)" style="fill: none; stroke: #000000; stroke-linejoin: miter"/>
   </g>
   <g id="patch_161">
    <path d="M 130.218 852.63975 
L 148.818 852.63975 
L 148.818 849.24225 
L 130.218 849.24225 
L 130.218 852.63975 
z
" clip-path="url(#p6028785c0d)" style="fill: none; stroke: #000000; stroke-linejoin: miter"/>
   </g>
   <g id="patch_162">
    <path d="M 383.4384 502.69725 
L 402.0384 502.69725 
L 402.0384 499.29975 
L 383.4384 499.29975 
L 383.4384 502.69725 
z
" clip-path="url(#p6028785c0d)" style="fill: none; stroke: #000000; stroke-linejoin: miter"/>
   </g>
   <g id="patch_163">
    <path d="M 234.3036 713.34225 
L 252.9036 713.34225 
L 252.9036 709.94475 
L 234.3036 709.94475 
L 234.3036 713.34225 
z
" clip-path="url(#p6028785c0d)" style="fill: none; stroke: #000000; stroke-linejoin: miter"/>
   </g>
   <g id="patch_164">
    <path d="M 100.5696 822.911625 
L 119.1696 822.911625 
L 119.1696 819.514125 
L 100.5696 819.514125 
L 100.5696 822.911625 
z
" clip-path="url(#p6028785c0d)" style="fill: none; stroke: #000000; stroke-linejoin: miter"/>
   </g>
   <g id="patch_165">
    <path d="M 114.3336 787.7475 
L 132.9336 787.7475 
L 132.9336 784.35 
L 114.3336 784.35 
L 114.3336 787.7475 
z
" clip-path="url(#p6028785c0d)" style="fill: none; stroke: #000000; stroke-linejoin: miter"/>
   </g>
   <g id="patch_166">
    <path d="M 297.1716 740.692125 
L 315.7716 740.692125 
L 315.7716 737.294625 
L 297.1716 737.294625 
L 297.1716 740.692125 
z
" clip-path="url(#p6028785c0d)" style="fill: none; stroke: #000000; stroke-linejoin: miter"/>
   </g>
   <g id="patch_167">
    <path d="M 276.6 969.51375 
L 295.2 969.51375 
L 295.2 966.11625 
L 276.6 966.11625 
L 276.6 969.51375 
z
" clip-path="url(#p6028785c0d)" style="fill: none; stroke: #000000; stroke-linejoin: miter"/>
   </g>
   <g id="matplotlib.axis_1">
    <g id="xtick_1">
     <g id="line2d_1">
      <defs>
       <path id="m8a72d18191" d="M 0 0 
L 0 3.5 
" style="stroke: #000000; stroke-width: 0.8"/>
      </defs>
      <g>
       <use xlink:href="#m8a72d18191" x="72" y="1260" style="stroke: #000000; stroke-width: 0.8"/>
      </g>
     </g>
     <g id="text_1">
      <!-- 60 -->
      <g transform="translate(65.6375 1274.598438)scale(0.1 -0.1)">
       <defs>
        <path id="DejaVuSans-36" d="M 2113 2584 
Q 1688 2584 1439 2293 
Q 1191 2003 1191 1497 
Q 1191 994 1439 701 
Q 1688 409 2113 409 
Q 2538 409 2786 701 
Q 3034 994 3034 1497 
Q 3034 2003 2786 2293 
Q 2538 2584 2113 2584 
z
M 3366 4563 
L 3366 3988 
Q 3128 4100 2886 4159 
Q 2644 4219 2406 4219 
Q 1781 4219 1451 3797 
Q 1122 3375 1075 2522 
Q 1259 2794 1537 2939 
Q 1816 3084 2150 3084 
Q 2853 3084 3261 2657 
Q 3669 2231 3669 1497 
Q 3669 778 3244 343 
Q 2819 -91 2113 -91 
Q 1303 -91 875 529 
Q 447 1150 447 2328 
Q 447 3434 972 4092 
Q 1497 4750 2381 4750 
Q 2619 4750 2861 4703 
Q 3103 4656 3366 4563 
z
" transform="scale(0.015625)"/>
        <path id="DejaVuSans-30" d="M 2034 4250 
Q 1547 4250 1301 3770 
Q 1056 3291 1056 2328 
Q 1056 1369 1301 889 
Q 1547 409 2034 409 
Q 2525 409 2770 889 
Q 3016 1369 3016 2328 
Q 3016 3291 2770 3770 
Q 2525 4250 2034 4250 
z
M 2034 4750 
Q 2819 4750 3233 4129 
Q 3647 3509 3647 2328 
Q 3647 1150 3233 529 
Q 2819 -91 2034 -91 
Q 1250 -91 836 529 
Q 422 1150 422 2328 
Q 422 3509 836 4129 
Q 1250 4750 2034 4750 
z
" transform="scale(0.015625)"/>
       </defs>
       <use xlink:href="#DejaVuSans-36"/>
       <use xlink:href="#DejaVuSans-30" x="63.623047"/>
      </g>
     </g>
    </g>
    <g id="xtick_2">
     <g id="line2d_2">
      <g>
       <use xlink:href="#m8a72d18191" x="146.4" y="1260" style="stroke: #000000; stroke-width: 0.8"/>
      </g>
     </g>
     <g id="text_2">
      <!-- 80 -->
      <g transform="translate(140.0375 1274.598438)scale(0.1 -0.1)">
       <defs>
        <path id="DejaVuSans-38" d="M 2034 2216 
Q 1584 2216 1326 1975 
Q 1069 1734 1069 1313 
Q 1069 891 1326 650 
Q 1584 409 2034 409 
Q 2484 409 2743 651 
Q 3003 894 3003 1313 
Q 3003 1734 2745 1975 
Q 2488 2216 2034 2216 
z
M 1403 2484 
Q 997 2584 770 2862 
Q 544 3141 544 3541 
Q 544 4100 942 4425 
Q 1341 4750 2034 4750 
Q 2731 4750 3128 4425 
Q 3525 4100 3525 3541 
Q 3525 3141 3298 2862 
Q 3072 2584 2669 2484 
Q 3125 2378 3379 2068 
Q 3634 1759 3634 1313 
Q 3634 634 3220 271 
Q 2806 -91 2034 -91 
Q 1263 -91 848 271 
Q 434 634 434 1313 
Q 434 1759 690 2068 
Q 947 2378 1403 2484 
z
M 1172 3481 
Q 1172 3119 1398 2916 
Q 1625 2713 2034 2713 
Q 2441 2713 2670 2916 
Q 2900 3119 2900 3481 
Q 2900 3844 2670 4047 
Q 2441 4250 2034 4250 
Q 1625 4250 1398 4047 
Q 1172 3844 1172 3481 
z
" transform="scale(0.015625)"/>
       </defs>
       <use xlink:href="#DejaVuSans-38"/>
       <use xlink:href="#DejaVuSans-30" x="63.623047"/>
      </g>
     </g>
    </g>
    <g id="xtick_3">
     <g id="line2d_3">
      <g>
       <use xlink:href="#m8a72d18191" x="220.8" y="1260" style="stroke: #000000; stroke-width: 0.8"/>
      </g>
     </g>
     <g id="text_3">
      <!-- 100 -->
      <g transform="translate(211.25625 1274.598438)scale(0.1 -0.1)">
       <defs>
        <path id="DejaVuSans-31" d="M 794 531 
L 1825 531 
L 1825 4091 
L 703 3866 
L 703 4441 
L 1819 4666 
L 2450 4666 
L 2450 531 
L 3481 531 
L 3481 0 
L 794 0 
L 794 531 
z
" transform="scale(0.015625)"/>
       </defs>
       <use xlink:href="#DejaVuSans-31"/>
       <use xlink:href="#DejaVuSans-30" x="63.623047"/>
       <use xlink:href="#DejaVuSans-30" x="127.246094"/>
      </g>
     </g>
    </g>
    <g id="xtick_4">
     <g id="line2d_4">
      <g>
       <use xlink:href="#m8a72d18191" x="295.2" y="1260" style="stroke: #000000; stroke-width: 0.8"/>
      </g>
     </g>
     <g id="text_4">
      <!-- 120 -->
      <g transform="translate(285.65625 1274.598438)scale(0.1 -0.1)">
       <defs>
        <path id="DejaVuSans-32" d="M 1228 531 
L 3431 531 
L 3431 0 
L 469 0 
L 469 531 
Q 828 903 1448 1529 
Q 2069 2156 2228 2338 
Q 2531 2678 2651 2914 
Q 2772 3150 2772 3378 
Q 2772 3750 2511 3984 
Q 2250 4219 1831 4219 
Q 1534 4219 1204 4116 
Q 875 4013 500 3803 
L 500 4441 
Q 881 4594 1212 4672 
Q 1544 4750 1819 4750 
Q 2544 4750 2975 4387 
Q 3406 4025 3406 3419 
Q 3406 3131 3298 2873 
Q 3191 2616 2906 2266 
Q 2828 2175 2409 1742 
Q 1991 1309 1228 531 
z
" transform="scale(0.015625)"/>
       </defs>
       <use xlink:href="#DejaVuSans-31"/>
       <use xlink:href="#DejaVuSans-32" x="63.623047"/>
       <use xlink:href="#DejaVuSans-30" x="127.246094"/>
      </g>
     </g>
    </g>
    <g id="xtick_5">
     <g id="line2d_5">
      <g>
       <use xlink:href="#m8a72d18191" x="369.6" y="1260" style="stroke: #000000; stroke-width: 0.8"/>
      </g>
     </g>
     <g id="text_5">
      <!-- 140 -->
      <g transform="translate(360.05625 1274.598438)scale(0.1 -0.1)">
       <defs>
        <path id="DejaVuSans-34" d="M 2419 4116 
L 825 1625 
L 2419 1625 
L 2419 4116 
z
M 2253 4666 
L 3047 4666 
L 3047 1625 
L 3713 1625 
L 3713 1100 
L 3047 1100 
L 3047 0 
L 2419 0 
L 2419 1100 
L 313 1100 
L 313 1709 
L 2253 4666 
z
" transform="scale(0.015625)"/>
       </defs>
       <use xlink:href="#DejaVuSans-31"/>
       <use xlink:href="#DejaVuSans-34" x="63.623047"/>
       <use xlink:href="#DejaVuSans-30" x="127.246094"/>
      </g>
     </g>
    </g>
    <g id="xtick_6">
     <g id="line2d_6">
      <g>
       <use xlink:href="#m8a72d18191" x="444" y="1260" style="stroke: #000000; stroke-width: 0.8"/>
      </g>
     </g>
     <g id="text_6">
      <!-- 160 -->
      <g transform="translate(434.45625 1274.598438)scale(0.1 -0.1)">
       <use xlink:href="#DejaVuSans-31"/>
       <use xlink:href="#DejaVuSans-36" x="63.623047"/>
       <use xlink:href="#DejaVuSans-30" x="127.246094"/>
      </g>
     </g>
    </g>
    <g id="xtick_7">
     <g id="line2d_7">
      <g>
       <use xlink:href="#m8a72d18191" x="518.4" y="1260" style="stroke: #000000; stroke-width: 0.8"/>
      </g>
     </g>
     <g id="text_7">
      <!-- 180 -->
      <g transform="translate(508.85625 1274.598438)scale(0.1 -0.1)">
       <use xlink:href="#DejaVuSans-31"/>
       <use xlink:href="#DejaVuSans-38" x="63.623047"/>
       <use xlink:href="#DejaVuSans-30" x="127.246094"/>
      </g>
     </g>
    </g>
   </g>
   <g id="matplotlib.axis_2">
    <g id="ytick_1">
     <g id="line2d_8">
      <defs>
       <path id="me90b8f257d" d="M 0 0 
L -3.5 0 
" style="stroke: #000000; stroke-width: 0.8"/>
      </defs>
      <g>
       <use xlink:href="#me90b8f257d" x="72" y="1192.05" style="stroke: #000000; stroke-width: 0.8"/>
      </g>
     </g>
     <g id="text_8">
      <!-- 20 -->
      <g transform="translate(52.275 1195.849219)scale(0.1 -0.1)">
       <use xlink:href="#DejaVuSans-32"/>
       <use xlink:href="#DejaVuSans-30" x="63.623047"/>
      </g>
     </g>
    </g>
    <g id="ytick_2">
     <g id="line2d_9">
      <g>
       <use xlink:href="#me90b8f257d" x="72" y="1022.175" style="stroke: #000000; stroke-width: 0.8"/>
      </g>
     </g>
     <g id="text_9">
      <!-- 30 -->
      <g transform="translate(52.275 1025.974219)scale(0.1 -0.1)">
       <defs>
        <path id="DejaVuSans-33" d="M 2597 2516 
Q 3050 2419 3304 2112 
Q 3559 1806 3559 1356 
Q 3559 666 3084 287 
Q 2609 -91 1734 -91 
Q 1441 -91 1130 -33 
Q 819 25 488 141 
L 488 750 
Q 750 597 1062 519 
Q 1375 441 1716 441 
Q 2309 441 2620 675 
Q 2931 909 2931 1356 
Q 2931 1769 2642 2001 
Q 2353 2234 1838 2234 
L 1294 2234 
L 1294 2753 
L 1863 2753 
Q 2328 2753 2575 2939 
Q 2822 3125 2822 3475 
Q 2822 3834 2567 4026 
Q 2313 4219 1838 4219 
Q 1578 4219 1281 4162 
Q 984 4106 628 3988 
L 628 4550 
Q 988 4650 1302 4700 
Q 1616 4750 1894 4750 
Q 2613 4750 3031 4423 
Q 3450 4097 3450 3541 
Q 3450 3153 3228 2886 
Q 3006 2619 2597 2516 
z
" transform="scale(0.015625)"/>
       </defs>
       <use xlink:href="#DejaVuSans-33"/>
       <use xlink:href="#DejaVuSans-30" x="63.623047"/>
      </g>
     </g>
    </g>
    <g id="ytick_3">
     <g id="line2d_10">
      <g>
       <use xlink:href="#me90b8f257d" x="72" y="852.3" style="stroke: #000000; stroke-width: 0.8"/>
      </g>
     </g>
     <g id="text_10">
      <!-- 40 -->
      <g transform="translate(52.275 856.099219)scale(0.1 -0.1)">
       <use xlink:href="#DejaVuSans-34"/>
       <use xlink:href="#DejaVuSans-30" x="63.623047"/>
      </g>
     </g>
    </g>
    <g id="ytick_4">
     <g id="line2d_11">
      <g>
       <use xlink:href="#me90b8f257d" x="72" y="682.425" style="stroke: #000000; stroke-width: 0.8"/>
      </g>
     </g>
     <g id="text_11">
      <!-- 50 -->
      <g transform="translate(52.275 686.224219)scale(0.1 -0.1)">
       <defs>
        <path id="DejaVuSans-35" d="M 691 4666 
L 3169 4666 
L 3169 4134 
L 1269 4134 
L 1269 2991 
Q 1406 3038 1543 3061 
Q 1681 3084 1819 3084 
Q 2600 3084 3056 2656 
Q 3513 2228 3513 1497 
Q 3513 744 3044 326 
Q 2575 -91 1722 -91 
Q 1428 -91 1123 -41 
Q 819 9 494 109 
L 494 744 
Q 775 591 1075 516 
Q 1375 441 1709 441 
Q 2250 441 2565 725 
Q 2881 1009 2881 1497 
Q 2881 1984 2565 2268 
Q 2250 2553 1709 2553 
Q 1456 2553 1204 2497 
Q 953 2441 691 2322 
L 691 4666 
z
" transform="scale(0.015625)"/>
       </defs>
       <use xlink:href="#DejaVuSans-35"/>
       <use xlink:href="#DejaVuSans-30" x="63.623047"/>
      </g>
     </g>
    </g>
    <g id="ytick_5">
     <g id="line2d_12">
      <g>
       <use xlink:href="#me90b8f257d" x="72" y="512.55" style="stroke: #000000; stroke-width: 0.8"/>
      </g>
     </g>
     <g id="text_12">
      <!-- 60 -->
      <g transform="translate(52.275 516.349219)scale(0.1 -0.1)">
       <use xlink:href="#DejaVuSans-36"/>
       <use xlink:href="#DejaVuSans-30" x="63.623047"/>
      </g>
     </g>
    </g>
    <g id="ytick_6">
     <g id="line2d_13">
      <g>
       <use xlink:href="#me90b8f257d" x="72" y="342.675" style="stroke: #000000; stroke-width: 0.8"/>
      </g>
     </g>
     <g id="text_13">
      <!-- 70 -->
      <g transform="translate(52.275 346.474219)scale(0.1 -0.1)">
       <defs>
        <path id="DejaVuSans-37" d="M 525 4666 
L 3525 4666 
L 3525 4397 
L 1831 0 
L 1172 0 
L 2766 4134 
L 525 4134 
L 525 4666 
z
" transform="scale(0.015625)"/>
       </defs>
       <use xlink:href="#DejaVuSans-37"/>
       <use xlink:href="#DejaVuSans-30" x="63.623047"/>
      </g>
     </g>
    </g>
    <g id="ytick_7">
     <g id="line2d_14">
      <g>
       <use xlink:href="#me90b8f257d" x="72" y="172.8" style="stroke: #000000; stroke-width: 0.8"/>
      </g>
     </g>
     <g id="text_14">
      <!-- 80 -->
      <g transform="translate(52.275 176.599219)scale(0.1 -0.1)">
       <use xlink:href="#DejaVuSans-38"/>
       <use xlink:href="#DejaVuSans-30" x="63.623047"/>
      </g>
     </g>
    </g>
   </g>
   <g id="patch_168">
    <path d="M 72 1260 
L 72 172.8 
" style="fill: none; stroke: #000000; stroke-width: 0.8; stroke-linejoin: miter; stroke-linecap: square"/>
   </g>
   <g id="patch_169">
    <path d="M 518.4 1260 
L 518.4 172.8 
" style="fill: none; stroke: #000000; stroke-width: 0.8; stroke-linejoin: miter; stroke-linecap: square"/>
   </g>
   <g id="patch_170">
    <path d="M 72 1260 
L 518.4 1260 
" style="fill: none; stroke: #000000; stroke-width: 0.8; stroke-linejoin: miter; stroke-linecap: square"/>
   </g>
   <g id="patch_171">
    <path d="M 72 172.8 
L 518.4 172.8 
" style="fill: none; stroke: #000000; stroke-width: 0.8; stroke-linejoin: miter; stroke-linecap: square"/>
   </g>
  </g>
 </g>
 <defs>
  <clipPath id="p6028785c0d">
   <rect x="72" y="172.8" width="446.4" height="1087.2"/>
  </clipPath>
 </defs>
</svg>
