<?xml version="1.0" encoding="utf-8" standalone="no"?>
<!DOCTYPE svg PUBLIC "-//W3C//DTD SVG 1.1//EN"
  "http://www.w3.org/Graphics/SVG/1.1/DTD/svg11.dtd">
<svg xmlns:xlink="http://www.w3.org/1999/xlink" width="576pt" height="1440pt" viewBox="0 0 576 1440" xmlns="http://www.w3.org/2000/svg" version="1.1">
 <metadata>
  <rdf:RDF xmlns:dc="http://purl.org/dc/elements/1.1/" xmlns:cc="http://creativecommons.org/ns#" xmlns:rdf="http://www.w3.org/1999/02/22-rdf-syntax-ns#">
   <cc:Work>
    <dc:type rdf:resource="http://purl.org/dc/dcmitype/StillImage"/>
    <dc:date>2022-03-26T16:09:16.423880</dc:date>
    <dc:format>image/svg+xml</dc:format>
    <dc:creator>
     <cc:Agent>
      <dc:title>Matplotlib v3.5.1, https://matplotlib.org/</dc:title>
     </cc:Agent>
    </dc:creator>
   </cc:Work>
  </rdf:RDF>
 </metadata>
 <defs>
  <style type="text/css">*{stroke-linejoin: round; stroke-linecap: butt}</style>
 </defs>
 <g id="figure_1">
  <g id="patch_1">
   <path d="M 0 1440 
L 576 1440 
L 576 0 
L 0 0 
L 0 1440 
z
" style="fill: none"/>
  </g>
  <g id="axes_1"/>
  <g id="axes_2">
   <g id="patch_2">
    <path d="M 72 1260 
L 518.4 1260 
L 518.4 172.8 
L 72 172.8 
z
" style="fill: #ffffff"/>
   </g>
   <g id="patch_3">
    <path d="M 220.7256 811.86975 
L 239.3256 811.86975 
L 239.3256 808.47225 
L 220.7256 808.47225 
L 220.7256 811.86975 
z
" clip-path="url(#p74d4c954ac)" style="fill: none; stroke: #000000; stroke-linejoin: miter"/>
   </g>
   <g id="patch_4">
    <path d="M 242.6364 899.015625 
L 261.2364 899.015625 
L 261.2364 895.618125 
L 242.6364 895.618125 
L 242.6364 899.015625 
z
" clip-path="url(#p74d4c954ac)" style="fill: none; stroke: #000000; stroke-linejoin: miter"/>
   </g>
   <g id="patch_5">
    <path d="M 226.752 939.785625 
L 245.352 939.785625 
L 245.352 936.388125 
L 226.752 936.388125 
L 226.752 939.785625 
z
" clip-path="url(#p74d4c954ac)" style="fill: none; stroke: #000000; stroke-linejoin: miter"/>
   </g>
   <g id="patch_6">
    <path d="M 110.7996 844.655625 
L 129.3996 844.655625 
L 129.3996 841.258125 
L 110.7996 841.258125 
L 110.7996 844.655625 
z
" clip-path="url(#p74d4c954ac)" style="fill: none; stroke: #000000; stroke-linejoin: miter"/>
   </g>
   <g id="patch_7">
    <path d="M 165.186 874.7235 
L 183.786 874.7235 
L 183.786 871.326 
L 165.186 871.326 
L 165.186 874.7235 
z
" clip-path="url(#p74d4c954ac)" style="fill: none; stroke: #000000; stroke-linejoin: miter"/>
   </g>
   <g id="patch_8">
    <path d="M 208.524 936.727875 
L 227.124 936.727875 
L 227.124 933.330375 
L 208.524 933.330375 
L 208.524 936.727875 
z
" clip-path="url(#p74d4c954ac)" style="fill: none; stroke: #000000; stroke-linejoin: miter"/>
   </g>
   <g id="patch_9">
    <path d="M 156.5184 949.12875 
L 175.1184 949.12875 
L 175.1184 945.73125 
L 156.5184 945.73125 
L 156.5184 949.12875 
z
" clip-path="url(#p74d4c954ac)" style="fill: none; stroke: #000000; stroke-linejoin: miter"/>
   </g>
   <g id="patch_10">
    <path d="M 141.75 817.98525 
L 160.35 817.98525 
L 160.35 814.58775 
L 141.75 814.58775 
L 141.75 817.98525 
z
" clip-path="url(#p74d4c954ac)" style="fill: none; stroke: #000000; stroke-linejoin: miter"/>
   </g>
   <g id="patch_11">
    <path d="M 159.4944 783.500625 
L 178.0944 783.500625 
L 178.0944 780.103125 
L 159.4944 780.103125 
L 159.4944 783.500625 
z
" clip-path="url(#p74d4c954ac)" style="fill: none; stroke: #000000; stroke-linejoin: miter"/>
   </g>
   <g id="patch_12">
    <path d="M 227.7564 865.55025 
L 246.3564 865.55025 
L 246.3564 862.15275 
L 227.7564 862.15275 
L 227.7564 865.55025 
z
" clip-path="url(#p74d4c954ac)" style="fill: none; stroke: #000000; stroke-linejoin: miter"/>
   </g>
   <g id="patch_13">
    <path d="M 154.6956 869.117625 
L 173.2956 869.117625 
L 173.2956 865.720125 
L 154.6956 865.720125 
L 154.6956 869.117625 
z
" clip-path="url(#p74d4c954ac)" style="fill: none; stroke: #000000; stroke-linejoin: miter"/>
   </g>
   <g id="patch_14">
    <path d="M 107.6004 865.040625 
L 126.2004 865.040625 
L 126.2004 861.643125 
L 107.6004 861.643125 
L 107.6004 865.040625 
z
" clip-path="url(#p74d4c954ac)" style="fill: none; stroke: #000000; stroke-linejoin: miter"/>
   </g>
   <g id="patch_15">
    <path d="M 153.7284 964.927125 
L 172.3284 964.927125 
L 172.3284 961.529625 
L 153.7284 961.529625 
L 153.7284 964.927125 
z
" clip-path="url(#p74d4c954ac)" style="fill: none; stroke: #000000; stroke-linejoin: miter"/>
   </g>
   <g id="patch_16">
    <path d="M 193.644 1020.47625 
L 212.244 1020.47625 
L 212.244 1017.07875 
L 193.644 1017.07875 
L 193.644 1020.47625 
z
" clip-path="url(#p74d4c954ac)" style="fill: none; stroke: #000000; stroke-linejoin: miter"/>
   </g>
   <g id="patch_17">
    <path d="M 273.066 933.330375 
L 291.666 933.330375 
L 291.666 929.932875 
L 273.066 929.932875 
L 273.066 933.330375 
z
" clip-path="url(#p74d4c954ac)" style="fill: none; stroke: #000000; stroke-linejoin: miter"/>
   </g>
   <g id="patch_18">
    <path d="M 418.4064 1166.059125 
L 437.0064 1166.059125 
L 437.0064 1162.661625 
L 418.4064 1162.661625 
L 418.4064 1166.059125 
z
" clip-path="url(#p74d4c954ac)" style="fill: none; stroke: #000000; stroke-linejoin: miter"/>
   </g>
   <g id="patch_19">
    <path d="M 413.4216 323.98875 
L 432.0216 323.98875 
L 432.0216 320.59125 
L 413.4216 320.59125 
L 413.4216 323.98875 
z
" clip-path="url(#p74d4c954ac)" style="fill: none; stroke: #000000; stroke-linejoin: miter"/>
   </g>
   <g id="patch_20">
    <path d="M 147.2556 813.22875 
L 165.8556 813.22875 
L 165.8556 809.83125 
L 147.2556 809.83125 
L 147.2556 813.22875 
z
" clip-path="url(#p74d4c954ac)" style="fill: none; stroke: #000000; stroke-linejoin: miter"/>
   </g>
   <g id="patch_21">
    <path d="M 149.0784 983.4435 
L 167.6784 983.4435 
L 167.6784 980.046 
L 149.0784 980.046 
L 149.0784 983.4435 
z
" clip-path="url(#p74d4c954ac)" style="fill: none; stroke: #000000; stroke-linejoin: miter"/>
   </g>
   <g id="patch_22">
    <path d="M 113.9616 813.738375 
L 132.5616 813.738375 
L 132.5616 810.340875 
L 113.9616 810.340875 
L 113.9616 813.738375 
z
" clip-path="url(#p74d4c954ac)" style="fill: none; stroke: #000000; stroke-linejoin: miter"/>
   </g>
   <g id="patch_23">
    <path d="M 212.1696 1022.175 
L 230.7696 1022.175 
L 230.7696 1018.7775 
L 212.1696 1018.7775 
L 212.1696 1022.175 
z
" clip-path="url(#p74d4c954ac)" style="fill: none; stroke: #000000; stroke-linejoin: miter"/>
   </g>
   <g id="patch_24">
    <path d="M 94.0224 808.47225 
L 112.6224 808.47225 
L 112.6224 805.07475 
L 94.0224 805.07475 
L 94.0224 808.47225 
z
" clip-path="url(#p74d4c954ac)" style="fill: none; stroke: #000000; stroke-linejoin: miter"/>
   </g>
   <g id="patch_25">
    <path d="M 239.772 812.039625 
L 258.372 812.039625 
L 258.372 808.642125 
L 239.772 808.642125 
L 239.772 812.039625 
z
" clip-path="url(#p74d4c954ac)" style="fill: none; stroke: #000000; stroke-linejoin: miter"/>
   </g>
   <g id="patch_26">
    <path d="M 252.5316 757.17 
L 271.1316 757.17 
L 271.1316 753.7725 
L 252.5316 753.7725 
L 252.5316 757.17 
z
" clip-path="url(#p74d4c954ac)" style="fill: none; stroke: #000000; stroke-linejoin: miter"/>
   </g>
   <g id="patch_27">
    <path d="M 223.59 737.294625 
L 242.19 737.294625 
L 242.19 733.897125 
L 223.59 733.897125 
L 223.59 737.294625 
z
" clip-path="url(#p74d4c954ac)" style="fill: none; stroke: #000000; stroke-linejoin: miter"/>
   </g>
   <g id="patch_28">
    <path d="M 115.0776 835.822125 
L 133.6776 835.822125 
L 133.6776 832.424625 
L 115.0776 832.424625 
L 115.0776 835.822125 
z
" clip-path="url(#p74d4c954ac)" style="fill: none; stroke: #000000; stroke-linejoin: miter"/>
   </g>
   <g id="patch_29">
    <path d="M 150.9384 901.56375 
L 169.5384 901.56375 
L 169.5384 898.16625 
L 150.9384 898.16625 
L 150.9384 901.56375 
z
" clip-path="url(#p74d4c954ac)" style="fill: none; stroke: #000000; stroke-linejoin: miter"/>
   </g>
   <g id="patch_30">
    <path d="M 163.7724 1029.819375 
L 182.3724 1029.819375 
L 182.3724 1026.421875 
L 163.7724 1026.421875 
L 163.7724 1029.819375 
z
" clip-path="url(#p74d4c954ac)" style="fill: none; stroke: #000000; stroke-linejoin: miter"/>
   </g>
   <g id="patch_31">
    <path d="M 182.112 832.5945 
L 200.712 832.5945 
L 200.712 829.197 
L 182.112 829.197 
L 182.112 832.5945 
z
" clip-path="url(#p74d4c954ac)" style="fill: none; stroke: #000000; stroke-linejoin: miter"/>
   </g>
   <g id="patch_32">
    <path d="M 120.8436 835.822125 
L 139.4436 835.822125 
L 139.4436 832.424625 
L 120.8436 832.424625 
L 120.8436 835.822125 
z
" clip-path="url(#p74d4c954ac)" style="fill: none; stroke: #000000; stroke-linejoin: miter"/>
   </g>
   <g id="patch_33">
    <path d="M 200.898 831.405375 
L 219.498 831.405375 
L 219.498 828.007875 
L 200.898 828.007875 
L 200.898 831.405375 
z
" clip-path="url(#p74d4c954ac)" style="fill: none; stroke: #000000; stroke-linejoin: miter"/>
   </g>
   <g id="patch_34">
    <path d="M 216.9312 995.164875 
L 235.5312 995.164875 
L 235.5312 991.767375 
L 216.9312 991.767375 
L 216.9312 995.164875 
z
" clip-path="url(#p74d4c954ac)" style="fill: none; stroke: #000000; stroke-linejoin: miter"/>
   </g>
   <g id="patch_35">
    <path d="M 141.6756 802.526625 
L 160.2756 802.526625 
L 160.2756 799.129125 
L 141.6756 799.129125 
L 141.6756 802.526625 
z
" clip-path="url(#p74d4c954ac)" style="fill: none; stroke: #000000; stroke-linejoin: miter"/>
   </g>
   <g id="patch_36">
    <path d="M 187.7664 839.04975 
L 206.3664 839.04975 
L 206.3664 835.65225 
L 187.7664 835.65225 
L 187.7664 839.04975 
z
" clip-path="url(#p74d4c954ac)" style="fill: none; stroke: #000000; stroke-linejoin: miter"/>
   </g>
   <g id="patch_37">
    <path d="M 199.038 822.06225 
L 217.638 822.06225 
L 217.638 818.66475 
L 199.038 818.66475 
L 199.038 822.06225 
z
" clip-path="url(#p74d4c954ac)" style="fill: none; stroke: #000000; stroke-linejoin: miter"/>
   </g>
   <g id="patch_38">
    <path d="M 192.528 965.7765 
L 211.128 965.7765 
L 211.128 962.379 
L 192.528 962.379 
L 192.528 965.7765 
z
" clip-path="url(#p74d4c954ac)" style="fill: none; stroke: #000000; stroke-linejoin: miter"/>
   </g>
   <g id="patch_39">
    <path d="M 214.5504 947.76975 
L 233.1504 947.76975 
L 233.1504 944.37225 
L 214.5504 944.37225 
L 214.5504 947.76975 
z
" clip-path="url(#p74d4c954ac)" style="fill: none; stroke: #000000; stroke-linejoin: miter"/>
   </g>
   <g id="patch_40">
    <path d="M 129.846 1051.563375 
L 148.446 1051.563375 
L 148.446 1048.165875 
L 129.846 1048.165875 
L 129.846 1051.563375 
z
" clip-path="url(#p74d4c954ac)" style="fill: none; stroke: #000000; stroke-linejoin: miter"/>
   </g>
   <g id="patch_41">
    <path d="M 395.9376 509.49225 
L 414.5376 509.49225 
L 414.5376 506.09475 
L 395.9376 506.09475 
L 395.9376 509.49225 
z
" clip-path="url(#p74d4c954ac)" style="fill: none; stroke: #000000; stroke-linejoin: miter"/>
   </g>
   <g id="patch_42">
    <path d="M 101.8344 738.993375 
L 120.4344 738.993375 
L 120.4344 735.595875 
L 101.8344 735.595875 
L 101.8344 738.993375 
z
" clip-path="url(#p74d4c954ac)" style="fill: none; stroke: #000000; stroke-linejoin: miter"/>
   </g>
   <g id="patch_43">
    <path d="M 283.5936 755.811 
L 302.1936 755.811 
L 302.1936 752.4135 
L 283.5936 752.4135 
L 283.5936 755.811 
z
" clip-path="url(#p74d4c954ac)" style="fill: none; stroke: #000000; stroke-linejoin: miter"/>
   </g>
   <g id="patch_44">
    <path d="M 250.932 891.37125 
L 269.532 891.37125 
L 269.532 887.97375 
L 250.932 887.97375 
L 250.932 891.37125 
z
" clip-path="url(#p74d4c954ac)" style="fill: none; stroke: #000000; stroke-linejoin: miter"/>
   </g>
   <g id="patch_45">
    <path d="M 213.6576 807.622875 
L 232.2576 807.622875 
L 232.2576 804.225375 
L 213.6576 804.225375 
L 213.6576 807.622875 
z
" clip-path="url(#p74d4c954ac)" style="fill: none; stroke: #000000; stroke-linejoin: miter"/>
   </g>
   <g id="patch_46">
    <path d="M 382.5456 388.54125 
L 401.1456 388.54125 
L 401.1456 385.14375 
L 382.5456 385.14375 
L 382.5456 388.54125 
z
" clip-path="url(#p74d4c954ac)" style="fill: none; stroke: #000000; stroke-linejoin: miter"/>
   </g>
   <g id="patch_47">
    <path d="M 149.8596 933.50025 
L 168.4596 933.50025 
L 168.4596 930.10275 
L 149.8596 930.10275 
L 149.8596 933.50025 
z
" clip-path="url(#p74d4c954ac)" style="fill: none; stroke: #000000; stroke-linejoin: miter"/>
   </g>
   <g id="patch_48">
    <path d="M 147.144 936.727875 
L 165.744 936.727875 
L 165.744 933.330375 
L 147.144 933.330375 
L 147.144 936.727875 
z
" clip-path="url(#p74d4c954ac)" style="fill: none; stroke: #000000; stroke-linejoin: miter"/>
   </g>
   <g id="patch_49">
    <path d="M 156.258 820.02375 
L 174.858 820.02375 
L 174.858 816.62625 
L 156.258 816.62625 
L 156.258 820.02375 
z
" clip-path="url(#p74d4c954ac)" style="fill: none; stroke: #000000; stroke-linejoin: miter"/>
   </g>
   <g id="patch_50">
    <path d="M 302.082 856.03725 
L 320.682 856.03725 
L 320.682 852.63975 
L 302.082 852.63975 
L 302.082 856.03725 
z
" clip-path="url(#p74d4c954ac)" style="fill: none; stroke: #000000; stroke-linejoin: miter"/>
   </g>
   <g id="patch_51">
    <path d="M 163.0284 746.128125 
L 181.6284 746.128125 
L 181.6284 742.730625 
L 163.0284 742.730625 
L 163.0284 746.128125 
z
" clip-path="url(#p74d4c954ac)" style="fill: none; stroke: #000000; stroke-linejoin: miter"/>
   </g>
   <g id="patch_52">
    <path d="M 175.974 1001.45025 
L 194.574 1001.45025 
L 194.574 998.05275 
L 175.974 998.05275 
L 175.974 1001.45025 
z
" clip-path="url(#p74d4c954ac)" style="fill: none; stroke: #000000; stroke-linejoin: miter"/>
   </g>
   <g id="patch_53">
    <path d="M 133.3056 825.629625 
L 151.9056 825.629625 
L 151.9056 822.232125 
L 133.3056 822.232125 
L 133.3056 825.629625 
z
" clip-path="url(#p74d4c954ac)" style="fill: none; stroke: #000000; stroke-linejoin: miter"/>
   </g>
   <g id="patch_54">
    <path d="M 210.4584 890.521875 
L 229.0584 890.521875 
L 229.0584 887.124375 
L 210.4584 887.124375 
L 210.4584 890.521875 
z
" clip-path="url(#p74d4c954ac)" style="fill: none; stroke: #000000; stroke-linejoin: miter"/>
   </g>
   <g id="patch_55">
    <path d="M 191.8584 872.34525 
L 210.4584 872.34525 
L 210.4584 868.94775 
L 191.8584 868.94775 
L 191.8584 872.34525 
z
" clip-path="url(#p74d4c954ac)" style="fill: none; stroke: #000000; stroke-linejoin: miter"/>
   </g>
   <g id="patch_56">
    <path d="M 157.1136 855.6975 
L 175.7136 855.6975 
L 175.7136 852.3 
L 157.1136 852.3 
L 157.1136 855.6975 
z
" clip-path="url(#p74d4c954ac)" style="fill: none; stroke: #000000; stroke-linejoin: miter"/>
   </g>
   <g id="patch_57">
    <path d="M 284.226 890.01225 
L 302.826 890.01225 
L 302.826 886.61475 
L 284.226 886.61475 
L 284.226 890.01225 
z
" clip-path="url(#p74d4c954ac)" style="fill: none; stroke: #000000; stroke-linejoin: miter"/>
   </g>
   <g id="patch_58">
    <path d="M 175.602 725.403375 
L 194.202 725.403375 
L 194.202 722.005875 
L 175.602 722.005875 
L 175.602 725.403375 
z
" clip-path="url(#p74d4c954ac)" style="fill: none; stroke: #000000; stroke-linejoin: miter"/>
   </g>
   <g id="patch_59">
    <path d="M 234.3036 901.56375 
L 252.9036 901.56375 
L 252.9036 898.16625 
L 234.3036 898.16625 
L 234.3036 901.56375 
z
" clip-path="url(#p74d4c954ac)" style="fill: none; stroke: #000000; stroke-linejoin: miter"/>
   </g>
   <g id="patch_60">
    <path d="M 182.0376 899.355375 
L 200.6376 899.355375 
L 200.6376 895.957875 
L 182.0376 895.957875 
L 182.0376 899.355375 
z
" clip-path="url(#p74d4c954ac)" style="fill: none; stroke: #000000; stroke-linejoin: miter"/>
   </g>
   <g id="patch_61">
    <path d="M 170.6544 1012.32225 
L 189.2544 1012.32225 
L 189.2544 1008.92475 
L 170.6544 1008.92475 
L 170.6544 1012.32225 
z
" clip-path="url(#p74d4c954ac)" style="fill: none; stroke: #000000; stroke-linejoin: miter"/>
   </g>
   <g id="patch_62">
    <path d="M 215.592 791.654625 
L 234.192 791.654625 
L 234.192 788.257125 
L 215.592 788.257125 
L 215.592 791.654625 
z
" clip-path="url(#p74d4c954ac)" style="fill: none; stroke: #000000; stroke-linejoin: miter"/>
   </g>
   <g id="patch_63">
    <path d="M 230.286 919.91025 
L 248.886 919.91025 
L 248.886 916.51275 
L 230.286 916.51275 
L 230.286 919.91025 
z
" clip-path="url(#p74d4c954ac)" style="fill: none; stroke: #000000; stroke-linejoin: miter"/>
   </g>
   <g id="patch_64">
    <path d="M 190.5564 980.046 
L 209.1564 980.046 
L 209.1564 976.6485 
L 190.5564 976.6485 
L 190.5564 980.046 
z
" clip-path="url(#p74d4c954ac)" style="fill: none; stroke: #000000; stroke-linejoin: miter"/>
   </g>
   <g id="patch_65">
    <path d="M 156.072 852.3 
L 174.672 852.3 
L 174.672 848.9025 
L 156.072 848.9025 
L 156.072 852.3 
z
" clip-path="url(#p74d4c954ac)" style="fill: none; stroke: #000000; stroke-linejoin: miter"/>
   </g>
   <g id="patch_66">
    <path d="M 162.024 857.39625 
L 180.624 857.39625 
L 180.624 853.99875 
L 162.024 853.99875 
L 162.024 857.39625 
z
" clip-path="url(#p74d4c954ac)" style="fill: none; stroke: #000000; stroke-linejoin: miter"/>
   </g>
   <g id="patch_67">
    <path d="M 179.3964 858.585375 
L 197.9964 858.585375 
L 197.9964 855.187875 
L 179.3964 855.187875 
L 179.3964 858.585375 
z
" clip-path="url(#p74d4c954ac)" style="fill: none; stroke: #000000; stroke-linejoin: miter"/>
   </g>
   <g id="patch_68">
    <path d="M 249.444 983.953125 
L 268.044 983.953125 
L 268.044 980.555625 
L 249.444 980.555625 
L 249.444 983.953125 
z
" clip-path="url(#p74d4c954ac)" style="fill: none; stroke: #000000; stroke-linejoin: miter"/>
   </g>
   <g id="patch_69">
    <path d="M 186.8736 739.84275 
L 205.4736 739.84275 
L 205.4736 736.44525 
L 186.8736 736.44525 
L 186.8736 739.84275 
z
" clip-path="url(#p74d4c954ac)" style="fill: none; stroke: #000000; stroke-linejoin: miter"/>
   </g>
   <g id="patch_70">
    <path d="M 419.8944 532.085625 
L 438.4944 532.085625 
L 438.4944 528.688125 
L 419.8944 528.688125 
L 419.8944 532.085625 
z
" clip-path="url(#p74d4c954ac)" style="fill: none; stroke: #000000; stroke-linejoin: miter"/>
   </g>
   <g id="patch_71">
    <path d="M 166.674 1003.149 
L 185.274 1003.149 
L 185.274 999.7515 
L 166.674 999.7515 
L 166.674 1003.149 
z
" clip-path="url(#p74d4c954ac)" style="fill: none; stroke: #000000; stroke-linejoin: miter"/>
   </g>
   <g id="patch_72">
    <path d="M 269.718 742.390875 
L 288.318 742.390875 
L 288.318 738.993375 
L 269.718 738.993375 
L 269.718 742.390875 
z
" clip-path="url(#p74d4c954ac)" style="fill: none; stroke: #000000; stroke-linejoin: miter"/>
   </g>
   <g id="patch_73">
    <path d="M 365.5824 466.174125 
L 384.1824 466.174125 
L 384.1824 462.776625 
L 365.5824 462.776625 
L 365.5824 466.174125 
z
" clip-path="url(#p74d4c954ac)" style="fill: none; stroke: #000000; stroke-linejoin: miter"/>
   </g>
   <g id="patch_74">
    <path d="M 231.03 904.111875 
L 249.63 904.111875 
L 249.63 900.714375 
L 231.03 900.714375 
L 231.03 904.111875 
z
" clip-path="url(#p74d4c954ac)" style="fill: none; stroke: #000000; stroke-linejoin: miter"/>
   </g>
   <g id="patch_75">
    <path d="M 246.5424 861.643125 
L 265.1424 861.643125 
L 265.1424 858.245625 
L 246.5424 858.245625 
L 246.5424 861.643125 
z
" clip-path="url(#p74d4c954ac)" style="fill: none; stroke: #000000; stroke-linejoin: miter"/>
   </g>
   <g id="patch_76">
    <path d="M 268.7136 938.93625 
L 287.3136 938.93625 
L 287.3136 935.53875 
L 268.7136 935.53875 
L 268.7136 938.93625 
z
" clip-path="url(#p74d4c954ac)" style="fill: none; stroke: #000000; stroke-linejoin: miter"/>
   </g>
   <g id="patch_77">
    <path d="M 175.416 967.47525 
L 194.016 967.47525 
L 194.016 964.07775 
L 175.416 964.07775 
L 175.416 967.47525 
z
" clip-path="url(#p74d4c954ac)" style="fill: none; stroke: #000000; stroke-linejoin: miter"/>
   </g>
   <g id="patch_78">
    <path d="M 352.3764 519.00525 
L 370.9764 519.00525 
L 370.9764 515.60775 
L 352.3764 515.60775 
L 352.3764 519.00525 
z
" clip-path="url(#p74d4c954ac)" style="fill: none; stroke: #000000; stroke-linejoin: miter"/>
   </g>
   <g id="patch_79">
    <path d="M 168.72 826.479 
L 187.32 826.479 
L 187.32 823.0815 
L 168.72 823.0815 
L 168.72 826.479 
z
" clip-path="url(#p74d4c954ac)" style="fill: none; stroke: #000000; stroke-linejoin: miter"/>
   </g>
   <g id="patch_80">
    <path d="M 184.2324 1032.02775 
L 202.8324 1032.02775 
L 202.8324 1028.63025 
L 184.2324 1028.63025 
L 184.2324 1032.02775 
z
" clip-path="url(#p74d4c954ac)" style="fill: none; stroke: #000000; stroke-linejoin: miter"/>
   </g>
   <g id="patch_81">
    <path d="M 276.042 867.9285 
L 294.642 867.9285 
L 294.642 864.531 
L 276.042 864.531 
L 276.042 867.9285 
z
" clip-path="url(#p74d4c954ac)" style="fill: none; stroke: #000000; stroke-linejoin: miter"/>
   </g>
   <g id="patch_82">
    <path d="M 194.016 917.19225 
L 212.616 917.19225 
L 212.616 913.79475 
L 194.016 913.79475 
L 194.016 917.19225 
z
" clip-path="url(#p74d4c954ac)" style="fill: none; stroke: #000000; stroke-linejoin: miter"/>
   </g>
   <g id="patch_83">
    <path d="M 201.27 797.94 
L 219.87 797.94 
L 219.87 794.5425 
L 201.27 794.5425 
L 201.27 797.94 
z
" clip-path="url(#p74d4c954ac)" style="fill: none; stroke: #000000; stroke-linejoin: miter"/>
   </g>
   <g id="patch_84">
    <path d="M 280.2084 864.19125 
L 298.8084 864.19125 
L 298.8084 860.79375 
L 280.2084 860.79375 
L 280.2084 864.19125 
z
" clip-path="url(#p74d4c954ac)" style="fill: none; stroke: #000000; stroke-linejoin: miter"/>
   </g>
   <g id="patch_85">
    <path d="M 380.2764 434.06775 
L 398.8764 434.06775 
L 398.8764 430.67025 
L 380.2764 430.67025 
L 380.2764 434.06775 
z
" clip-path="url(#p74d4c954ac)" style="fill: none; stroke: #000000; stroke-linejoin: miter"/>
   </g>
   <g id="patch_86">
    <path d="M 264.4356 966.625875 
L 283.0356 966.625875 
L 283.0356 963.228375 
L 264.4356 963.228375 
L 264.4356 966.625875 
z
" clip-path="url(#p74d4c954ac)" style="fill: none; stroke: #000000; stroke-linejoin: miter"/>
   </g>
   <g id="patch_87">
    <path d="M 190.296 738.48375 
L 208.896 738.48375 
L 208.896 735.08625 
L 190.296 735.08625 
L 190.296 738.48375 
z
" clip-path="url(#p74d4c954ac)" style="fill: none; stroke: #000000; stroke-linejoin: miter"/>
   </g>
   <g id="patch_88">
    <path d="M 123.6336 940.635 
L 142.2336 940.635 
L 142.2336 937.2375 
L 123.6336 937.2375 
L 123.6336 940.635 
z
" clip-path="url(#p74d4c954ac)" style="fill: none; stroke: #000000; stroke-linejoin: miter"/>
   </g>
   <g id="patch_89">
    <path d="M 406.1676 411.814125 
L 424.7676 411.814125 
L 424.7676 408.416625 
L 406.1676 408.416625 
L 406.1676 411.814125 
z
" clip-path="url(#p74d4c954ac)" style="fill: none; stroke: #000000; stroke-linejoin: miter"/>
   </g>
   <g id="patch_90">
    <path d="M 135.9096 874.044 
L 154.5096 874.044 
L 154.5096 870.6465 
L 135.9096 870.6465 
L 135.9096 874.044 
z
" clip-path="url(#p74d4c954ac)" style="fill: none; stroke: #000000; stroke-linejoin: miter"/>
   </g>
   <g id="patch_91">
    <path d="M 115.152 808.642125 
L 133.752 808.642125 
L 133.752 805.244625 
L 115.152 805.244625 
L 115.152 808.642125 
z
" clip-path="url(#p74d4c954ac)" style="fill: none; stroke: #000000; stroke-linejoin: miter"/>
   </g>
   <g id="patch_92">
    <path d="M 259.302 994.995 
L 277.902 994.995 
L 277.902 991.5975 
L 259.302 991.5975 
L 259.302 994.995 
z
" clip-path="url(#p74d4c954ac)" style="fill: none; stroke: #000000; stroke-linejoin: miter"/>
   </g>
   <g id="patch_93">
    <path d="M 134.3844 871.326 
L 152.9844 871.326 
L 152.9844 867.9285 
L 134.3844 867.9285 
L 134.3844 871.326 
z
" clip-path="url(#p74d4c954ac)" style="fill: none; stroke: #000000; stroke-linejoin: miter"/>
   </g>
   <g id="patch_94">
    <path d="M 167.6784 1003.8285 
L 186.2784 1003.8285 
L 186.2784 1000.431 
L 167.6784 1000.431 
L 167.6784 1003.8285 
z
" clip-path="url(#p74d4c954ac)" style="fill: none; stroke: #000000; stroke-linejoin: miter"/>
   </g>
   <g id="patch_95">
    <path d="M 389.2044 400.942125 
L 407.8044 400.942125 
L 407.8044 397.544625 
L 389.2044 397.544625 
L 389.2044 400.942125 
z
" clip-path="url(#p74d4c954ac)" style="fill: none; stroke: #000000; stroke-linejoin: miter"/>
   </g>
   <g id="patch_96">
    <path d="M 294.1584 910.567125 
L 312.7584 910.567125 
L 312.7584 907.169625 
L 294.1584 907.169625 
L 294.1584 910.567125 
z
" clip-path="url(#p74d4c954ac)" style="fill: none; stroke: #000000; stroke-linejoin: miter"/>
   </g>
   <g id="patch_97">
    <path d="M 193.7184 1006.036875 
L 212.3184 1006.036875 
L 212.3184 1002.639375 
L 193.7184 1002.639375 
L 193.7184 1006.036875 
z
" clip-path="url(#p74d4c954ac)" style="fill: none; stroke: #000000; stroke-linejoin: miter"/>
   </g>
   <g id="patch_98">
    <path d="M 172.9236 893.919375 
L 191.5236 893.919375 
L 191.5236 890.521875 
L 172.9236 890.521875 
L 172.9236 893.919375 
z
" clip-path="url(#p74d4c954ac)" style="fill: none; stroke: #000000; stroke-linejoin: miter"/>
   </g>
   <g id="patch_99">
    <path d="M 133.6404 990.2385 
L 152.2404 990.2385 
L 152.2404 986.841 
L 133.6404 986.841 
L 133.6404 990.2385 
z
" clip-path="url(#p74d4c954ac)" style="fill: none; stroke: #000000; stroke-linejoin: miter"/>
   </g>
   <g id="patch_100">
    <path d="M 219.9444 915.15375 
L 238.5444 915.15375 
L 238.5444 911.75625 
L 219.9444 911.75625 
L 219.9444 915.15375 
z
" clip-path="url(#p74d4c954ac)" style="fill: none; stroke: #000000; stroke-linejoin: miter"/>
   </g>
   <g id="patch_101">
    <path d="M 234.8616 928.404 
L 253.4616 928.404 
L 253.4616 925.0065 
L 234.8616 925.0065 
L 234.8616 928.404 
z
" clip-path="url(#p74d4c954ac)" style="fill: none; stroke: #000000; stroke-linejoin: miter"/>
   </g>
   <g id="patch_102">
    <path d="M 155.4024 828.17775 
L 174.0024 828.17775 
L 174.0024 824.78025 
L 155.4024 824.78025 
L 155.4024 828.17775 
z
" clip-path="url(#p74d4c954ac)" style="fill: none; stroke: #000000; stroke-linejoin: miter"/>
   </g>
   <g id="patch_103">
    <path d="M 245.4264 716.06025 
L 264.0264 716.06025 
L 264.0264 712.66275 
L 245.4264 712.66275 
L 245.4264 716.06025 
z
" clip-path="url(#p74d4c954ac)" style="fill: none; stroke: #000000; stroke-linejoin: miter"/>
   </g>
   <g id="patch_104">
    <path d="M 159.7176 966.965625 
L 178.3176 966.965625 
L 178.3176 963.568125 
L 159.7176 963.568125 
L 159.7176 966.965625 
z
" clip-path="url(#p74d4c954ac)" style="fill: none; stroke: #000000; stroke-linejoin: miter"/>
   </g>
   <g id="patch_105">
    <path d="M 265.998 924.496875 
L 284.598 924.496875 
L 284.598 921.099375 
L 265.998 921.099375 
L 265.998 924.496875 
z
" clip-path="url(#p74d4c954ac)" style="fill: none; stroke: #000000; stroke-linejoin: miter"/>
   </g>
   <g id="patch_106">
    <path d="M 252.5316 867.249 
L 271.1316 867.249 
L 271.1316 863.8515 
L 252.5316 863.8515 
L 252.5316 867.249 
z
" clip-path="url(#p74d4c954ac)" style="fill: none; stroke: #000000; stroke-linejoin: miter"/>
   </g>
   <g id="patch_107">
    <path d="M 250.188 934.349625 
L 268.788 934.349625 
L 268.788 930.952125 
L 250.188 930.952125 
L 250.188 934.349625 
z
" clip-path="url(#p74d4c954ac)" style="fill: none; stroke: #000000; stroke-linejoin: miter"/>
   </g>
   <g id="patch_108">
    <path d="M 158.0436 779.5935 
L 176.6436 779.5935 
L 176.6436 776.196 
L 158.0436 776.196 
L 158.0436 779.5935 
z
" clip-path="url(#p74d4c954ac)" style="fill: none; stroke: #000000; stroke-linejoin: miter"/>
   </g>
   <g id="patch_109">
    <path d="M 168.6456 966.456 
L 187.2456 966.456 
L 187.2456 963.0585 
L 168.6456 963.0585 
L 168.6456 966.456 
z
" clip-path="url(#p74d4c954ac)" style="fill: none; stroke: #000000; stroke-linejoin: miter"/>
   </g>
   <g id="patch_110">
    <path d="M 110.688 797.430375 
L 129.288 797.430375 
L 129.288 794.032875 
L 110.688 794.032875 
L 110.688 797.430375 
z
" clip-path="url(#p74d4c954ac)" style="fill: none; stroke: #000000; stroke-linejoin: miter"/>
   </g>
   <g id="patch_111">
    <path d="M 180.1404 1018.7775 
L 198.7404 1018.7775 
L 198.7404 1015.38 
L 180.1404 1015.38 
L 180.1404 1018.7775 
z
" clip-path="url(#p74d4c954ac)" style="fill: none; stroke: #000000; stroke-linejoin: miter"/>
   </g>
   <g id="patch_112">
    <path d="M 137.9184 860.79375 
L 156.5184 860.79375 
L 156.5184 857.39625 
L 137.9184 857.39625 
L 137.9184 860.79375 
z
" clip-path="url(#p74d4c954ac)" style="fill: none; stroke: #000000; stroke-linejoin: miter"/>
   </g>
   <g id="patch_113">
    <path d="M 260.6784 879.989625 
L 279.2784 879.989625 
L 279.2784 876.592125 
L 260.6784 876.592125 
L 260.6784 879.989625 
z
" clip-path="url(#p74d4c954ac)" style="fill: none; stroke: #000000; stroke-linejoin: miter"/>
   </g>
   <g id="patch_114">
    <path d="M 136.8024 846.014625 
L 155.4024 846.014625 
L 155.4024 842.617125 
L 136.8024 842.617125 
L 136.8024 846.014625 
z
" clip-path="url(#p74d4c954ac)" style="fill: none; stroke: #000000; stroke-linejoin: miter"/>
   </g>
   <g id="patch_115">
    <path d="M 162.5076 997.203375 
L 181.1076 997.203375 
L 181.1076 993.805875 
L 162.5076 993.805875 
L 162.5076 997.203375 
z
" clip-path="url(#p74d4c954ac)" style="fill: none; stroke: #000000; stroke-linejoin: miter"/>
   </g>
   <g id="patch_116">
    <path d="M 414.5376 478.91475 
L 433.1376 478.91475 
L 433.1376 475.51725 
L 414.5376 475.51725 
L 414.5376 478.91475 
z
" clip-path="url(#p74d4c954ac)" style="fill: none; stroke: #000000; stroke-linejoin: miter"/>
   </g>
   <g id="patch_117">
    <path d="M 265.44 743.58 
L 284.04 743.58 
L 284.04 740.1825 
L 265.44 740.1825 
L 265.44 743.58 
z
" clip-path="url(#p74d4c954ac)" style="fill: none; stroke: #000000; stroke-linejoin: miter"/>
   </g>
   <g id="patch_118">
    <path d="M 199.968 1053.941625 
L 218.568 1053.941625 
L 218.568 1050.544125 
L 199.968 1050.544125 
L 199.968 1053.941625 
z
" clip-path="url(#p74d4c954ac)" style="fill: none; stroke: #000000; stroke-linejoin: miter"/>
   </g>
   <g id="patch_119">
    <path d="M 425.6604 1200.204 
L 444.2604 1200.204 
L 444.2604 1196.8065 
L 425.6604 1196.8065 
L 425.6604 1200.204 
z
" clip-path="url(#p74d4c954ac)" style="fill: none; stroke: #000000; stroke-linejoin: miter"/>
   </g>
   <g id="patch_120">
    <path d="M 393.78 518.835375 
L 412.38 518.835375 
L 412.38 515.437875 
L 393.78 515.437875 
L 393.78 518.835375 
z
" clip-path="url(#p74d4c954ac)" style="fill: none; stroke: #000000; stroke-linejoin: miter"/>
   </g>
   <g id="patch_121">
    <path d="M 334.074 548.22375 
L 352.674 548.22375 
L 352.674 544.82625 
L 334.074 544.82625 
L 334.074 548.22375 
z
" clip-path="url(#p74d4c954ac)" style="fill: none; stroke: #000000; stroke-linejoin: miter"/>
   </g>
   <g id="patch_122">
    <path d="M 127.1304 887.124375 
L 145.7304 887.124375 
L 145.7304 883.726875 
L 127.1304 883.726875 
L 127.1304 887.124375 
z
" clip-path="url(#p74d4c954ac)" style="fill: none; stroke: #000000; stroke-linejoin: miter"/>
   </g>
   <g id="patch_123">
    <path d="M 184.902 1022.684625 
L 203.502 1022.684625 
L 203.502 1019.287125 
L 184.902 1019.287125 
L 184.902 1022.684625 
z
" clip-path="url(#p74d4c954ac)" style="fill: none; stroke: #000000; stroke-linejoin: miter"/>
   </g>
   <g id="patch_124">
    <path d="M 152.9844 943.183125 
L 171.5844 943.183125 
L 171.5844 939.785625 
L 152.9844 939.785625 
L 152.9844 943.183125 
z
" clip-path="url(#p74d4c954ac)" style="fill: none; stroke: #000000; stroke-linejoin: miter"/>
   </g>
   <g id="patch_125">
    <path d="M 91.6416 823.930875 
L 110.2416 823.930875 
L 110.2416 820.533375 
L 91.6416 820.533375 
L 91.6416 823.930875 
z
" clip-path="url(#p74d4c954ac)" style="fill: none; stroke: #000000; stroke-linejoin: miter"/>
   </g>
   <g id="patch_126">
    <path d="M 225.9708 846.694125 
L 244.5708 846.694125 
L 244.5708 843.296625 
L 225.9708 843.296625 
L 225.9708 846.694125 
z
" clip-path="url(#p74d4c954ac)" style="fill: none; stroke: #000000; stroke-linejoin: miter"/>
   </g>
   <g id="patch_127">
    <path d="M 191.4864 1030.159125 
L 210.0864 1030.159125 
L 210.0864 1026.761625 
L 191.4864 1026.761625 
L 191.4864 1030.159125 
z
" clip-path="url(#p74d4c954ac)" style="fill: none; stroke: #000000; stroke-linejoin: miter"/>
   </g>
   <g id="patch_128">
    <path d="M 102.132 842.44725 
L 120.732 842.44725 
L 120.732 839.04975 
L 102.132 839.04975 
L 102.132 842.44725 
z
" clip-path="url(#p74d4c954ac)" style="fill: none; stroke: #000000; stroke-linejoin: miter"/>
   </g>
   <g id="patch_129">
    <path d="M 183.8976 986.1615 
L 202.4976 986.1615 
L 202.4976 982.764 
L 183.8976 982.764 
L 183.8976 986.1615 
z
" clip-path="url(#p74d4c954ac)" style="fill: none; stroke: #000000; stroke-linejoin: miter"/>
   </g>
   <g id="patch_130">
    <path d="M 137.5464 943.69275 
L 156.1464 943.69275 
L 156.1464 940.29525 
L 137.5464 940.29525 
L 137.5464 943.69275 
z
" clip-path="url(#p74d4c954ac)" style="fill: none; stroke: #000000; stroke-linejoin: miter"/>
   </g>
   <g id="patch_131">
    <path d="M 179.9916 811.19025 
L 198.5916 811.19025 
L 198.5916 807.79275 
L 179.9916 807.79275 
L 179.9916 811.19025 
z
" clip-path="url(#p74d4c954ac)" style="fill: none; stroke: #000000; stroke-linejoin: miter"/>
   </g>
   <g id="patch_132">
    <path d="M 186.018 926.535375 
L 204.618 926.535375 
L 204.618 923.137875 
L 186.018 923.137875 
L 186.018 926.535375 
z
" clip-path="url(#p74d4c954ac)" style="fill: none; stroke: #000000; stroke-linejoin: miter"/>
   </g>
   <g id="patch_133">
    <path d="M 330.8376 543.637125 
L 349.4376 543.637125 
L 349.4376 540.239625 
L 330.8376 540.239625 
L 330.8376 543.637125 
z
" clip-path="url(#p74d4c954ac)" style="fill: none; stroke: #000000; stroke-linejoin: miter"/>
   </g>
   <g id="patch_134">
    <path d="M 255.2844 714.70125 
L 273.8844 714.70125 
L 273.8844 711.30375 
L 255.2844 711.30375 
L 255.2844 714.70125 
z
" clip-path="url(#p74d4c954ac)" style="fill: none; stroke: #000000; stroke-linejoin: miter"/>
   </g>
   <g id="patch_135">
    <path d="M 429.306 1199.694375 
L 447.906 1199.694375 
L 447.906 1196.296875 
L 429.306 1196.296875 
L 429.306 1199.694375 
z
" clip-path="url(#p74d4c954ac)" style="fill: none; stroke: #000000; stroke-linejoin: miter"/>
   </g>
   <g id="patch_136">
    <path d="M 215.5176 1036.10475 
L 234.1176 1036.10475 
L 234.1176 1032.70725 
L 215.5176 1032.70725 
L 215.5176 1036.10475 
z
" clip-path="url(#p74d4c954ac)" style="fill: none; stroke: #000000; stroke-linejoin: miter"/>
   </g>
   <g id="patch_137">
    <path d="M 134.31 1118.154375 
L 152.91 1118.154375 
L 152.91 1114.756875 
L 134.31 1114.756875 
L 134.31 1118.154375 
z
" clip-path="url(#p74d4c954ac)" style="fill: none; stroke: #000000; stroke-linejoin: miter"/>
   </g>
   <g id="patch_138">
    <path d="M 412.938 534.9735 
L 431.538 534.9735 
L 431.538 531.576 
L 412.938 531.576 
L 412.938 534.9735 
z
" clip-path="url(#p74d4c954ac)" style="fill: none; stroke: #000000; stroke-linejoin: miter"/>
   </g>
   <g id="patch_139">
    <path d="M 174.486 853.99875 
L 193.086 853.99875 
L 193.086 850.60125 
L 174.486 850.60125 
L 174.486 853.99875 
z
" clip-path="url(#p74d4c954ac)" style="fill: none; stroke: #000000; stroke-linejoin: miter"/>
   </g>
   <g id="patch_140">
    <path d="M 435.1836 399.243375 
L 453.7836 399.243375 
L 453.7836 395.845875 
L 435.1836 395.845875 
L 435.1836 399.243375 
z
" clip-path="url(#p74d4c954ac)" style="fill: none; stroke: #000000; stroke-linejoin: miter"/>
   </g>
   <g id="patch_141">
    <path d="M 215.2944 888.823125 
L 233.8944 888.823125 
L 233.8944 885.425625 
L 215.2944 885.425625 
L 215.2944 888.823125 
z
" clip-path="url(#p74d4c954ac)" style="fill: none; stroke: #000000; stroke-linejoin: miter"/>
   </g>
   <g id="patch_142">
    <path d="M 176.9784 1020.1365 
L 195.5784 1020.1365 
L 195.5784 1016.739 
L 176.9784 1016.739 
L 176.9784 1020.1365 
z
" clip-path="url(#p74d4c954ac)" style="fill: none; stroke: #000000; stroke-linejoin: miter"/>
   </g>
   <g id="patch_143">
    <path d="M 153.654 1055.640375 
L 172.254 1055.640375 
L 172.254 1052.242875 
L 153.654 1052.242875 
L 153.654 1055.640375 
z
" clip-path="url(#p74d4c954ac)" style="fill: none; stroke: #000000; stroke-linejoin: miter"/>
   </g>
   <g id="patch_144">
    <path d="M 269.9784 945.221625 
L 288.5784 945.221625 
L 288.5784 941.824125 
L 269.9784 941.824125 
L 269.9784 945.221625 
z
" clip-path="url(#p74d4c954ac)" style="fill: none; stroke: #000000; stroke-linejoin: miter"/>
   </g>
   <g id="patch_145">
    <path d="M 163.512 805.244625 
L 182.112 805.244625 
L 182.112 801.847125 
L 163.512 801.847125 
L 163.512 805.244625 
z
" clip-path="url(#p74d4c954ac)" style="fill: none; stroke: #000000; stroke-linejoin: miter"/>
   </g>
   <g id="patch_146">
    <path d="M 239.958 926.195625 
L 258.558 926.195625 
L 258.558 922.798125 
L 239.958 922.798125 
L 239.958 926.195625 
z
" clip-path="url(#p74d4c954ac)" style="fill: none; stroke: #000000; stroke-linejoin: miter"/>
   </g>
   <g id="patch_147">
    <path d="M 161.9124 993.805875 
L 180.5124 993.805875 
L 180.5124 990.408375 
L 161.9124 990.408375 
L 161.9124 993.805875 
z
" clip-path="url(#p74d4c954ac)" style="fill: none; stroke: #000000; stroke-linejoin: miter"/>
   </g>
   <g id="patch_148">
    <path d="M 244.236 868.438125 
L 262.836 868.438125 
L 262.836 865.040625 
L 244.236 865.040625 
L 244.236 868.438125 
z
" clip-path="url(#p74d4c954ac)" style="fill: none; stroke: #000000; stroke-linejoin: miter"/>
   </g>
   <g id="patch_149">
    <path d="M 129.288 888.483375 
L 147.888 888.483375 
L 147.888 885.085875 
L 129.288 885.085875 
L 129.288 888.483375 
z
" clip-path="url(#p74d4c954ac)" style="fill: none; stroke: #000000; stroke-linejoin: miter"/>
   </g>
   <g id="patch_150">
    <path d="M 205.8084 902.413125 
L 224.4084 902.413125 
L 224.4084 899.015625 
L 205.8084 899.015625 
L 205.8084 902.413125 
z
" clip-path="url(#p74d4c954ac)" style="fill: none; stroke: #000000; stroke-linejoin: miter"/>
   </g>
   <g id="patch_151">
    <path d="M 208.71 837.860625 
L 227.31 837.860625 
L 227.31 834.463125 
L 208.71 834.463125 
L 208.71 837.860625 
z
" clip-path="url(#p74d4c954ac)" style="fill: none; stroke: #000000; stroke-linejoin: miter"/>
   </g>
   <g id="patch_152">
    <path d="M 240.9996 758.86875 
L 259.5996 758.86875 
L 259.5996 755.47125 
L 240.9996 755.47125 
L 240.9996 758.86875 
z
" clip-path="url(#p74d4c954ac)" style="fill: none; stroke: #000000; stroke-linejoin: miter"/>
   </g>
   <g id="patch_153">
    <path d="M 165.6696 797.94 
L 184.2696 797.94 
L 184.2696 794.5425 
L 165.6696 794.5425 
L 165.6696 797.94 
z
" clip-path="url(#p74d4c954ac)" style="fill: none; stroke: #000000; stroke-linejoin: miter"/>
   </g>
   <g id="patch_154">
    <path d="M 82.7136 734.236875 
L 101.3136 734.236875 
L 101.3136 730.839375 
L 82.7136 730.839375 
L 82.7136 734.236875 
z
" clip-path="url(#p74d4c954ac)" style="fill: none; stroke: #000000; stroke-linejoin: miter"/>
   </g>
   <g id="patch_155">
    <path d="M 167.4924 882.367875 
L 186.0924 882.367875 
L 186.0924 878.970375 
L 167.4924 878.970375 
L 167.4924 882.367875 
z
" clip-path="url(#p74d4c954ac)" style="fill: none; stroke: #000000; stroke-linejoin: miter"/>
   </g>
   <g id="patch_156">
    <path d="M 266.8536 965.606625 
L 285.4536 965.606625 
L 285.4536 962.209125 
L 266.8536 962.209125 
L 266.8536 965.606625 
z
" clip-path="url(#p74d4c954ac)" style="fill: none; stroke: #000000; stroke-linejoin: miter"/>
   </g>
   <g id="patch_157">
    <path d="M 167.4552 843.4665 
L 186.0552 843.4665 
L 186.0552 840.069 
L 167.4552 840.069 
L 167.4552 843.4665 
z
" clip-path="url(#p74d4c954ac)" style="fill: none; stroke: #000000; stroke-linejoin: miter"/>
   </g>
   <g id="patch_158">
    <path d="M 243.7896 724.89375 
L 262.3896 724.89375 
L 262.3896 721.49625 
L 243.7896 721.49625 
L 243.7896 724.89375 
z
" clip-path="url(#p74d4c954ac)" style="fill: none; stroke: #000000; stroke-linejoin: miter"/>
   </g>
   <g id="patch_159">
    <path d="M 208.4124 870.136875 
L 227.0124 870.136875 
L 227.0124 866.739375 
L 208.4124 866.739375 
L 208.4124 870.136875 
z
" clip-path="url(#p74d4c954ac)" style="fill: none; stroke: #000000; stroke-linejoin: miter"/>
   </g>
   <g id="patch_160">
    <path d="M 409.218 427.6125 
L 427.818 427.6125 
L 427.818 424.215 
L 409.218 424.215 
L 409.218 427.6125 
z
" clip-path="url(#p74d4c954ac)" style="fill: none; stroke: #000000; stroke-linejoin: miter"/>
   </g>
   <g id="patch_161">
    <path d="M 235.7544 1019.287125 
L 254.3544 1019.287125 
L 254.3544 1015.889625 
L 235.7544 1015.889625 
L 235.7544 1019.287125 
z
" clip-path="url(#p74d4c954ac)" style="fill: none; stroke: #000000; stroke-linejoin: miter"/>
   </g>
   <g id="patch_162">
    <path d="M 160.0896 829.027125 
L 178.6896 829.027125 
L 178.6896 825.629625 
L 160.0896 825.629625 
L 160.0896 829.027125 
z
" clip-path="url(#p74d4c954ac)" style="fill: none; stroke: #000000; stroke-linejoin: miter"/>
   </g>
   <g id="patch_163">
    <path d="M 282.4404 870.98625 
L 301.0404 870.98625 
L 301.0404 867.58875 
L 282.4404 867.58875 
L 282.4404 870.98625 
z
" clip-path="url(#p74d4c954ac)" style="fill: none; stroke: #000000; stroke-linejoin: miter"/>
   </g>
   <g id="patch_164">
    <path d="M 158.6016 864.531 
L 177.2016 864.531 
L 177.2016 861.1335 
L 158.6016 861.1335 
L 158.6016 864.531 
z
" clip-path="url(#p74d4c954ac)" style="fill: none; stroke: #000000; stroke-linejoin: miter"/>
   </g>
   <g id="patch_165">
    <path d="M 186.5016 939.276 
L 205.1016 939.276 
L 205.1016 935.8785 
L 186.5016 935.8785 
L 186.5016 939.276 
z
" clip-path="url(#p74d4c954ac)" style="fill: none; stroke: #000000; stroke-linejoin: miter"/>
   </g>
   <g id="patch_166">
    <path d="M 304.4256 734.236875 
L 323.0256 734.236875 
L 323.0256 730.839375 
L 304.4256 730.839375 
L 304.4256 734.236875 
z
" clip-path="url(#p74d4c954ac)" style="fill: none; stroke: #000000; stroke-linejoin: miter"/>
   </g>
   <g id="patch_167">
    <path d="M 204.3576 851.96025 
L 222.9576 851.96025 
L 222.9576 848.56275 
L 204.3576 848.56275 
L 204.3576 851.96025 
z
" clip-path="url(#p74d4c954ac)" style="fill: none; stroke: #000000; stroke-linejoin: miter"/>
   </g>
   <g id="patch_168">
    <path d="M 270.648 758.86875 
L 289.248 758.86875 
L 289.248 755.47125 
L 270.648 755.47125 
L 270.648 758.86875 
z
" clip-path="url(#p74d4c954ac)" style="fill: none; stroke: #000000; stroke-linejoin: miter"/>
   </g>
   <g id="patch_169">
    <path d="M 148.7436 1057.84875 
L 167.3436 1057.84875 
L 167.3436 1054.45125 
L 148.7436 1054.45125 
L 148.7436 1057.84875 
z
" clip-path="url(#p74d4c954ac)" style="fill: none; stroke: #000000; stroke-linejoin: miter"/>
   </g>
   <g id="patch_170">
    <path d="M 278.5344 898.506 
L 297.1344 898.506 
L 297.1344 895.1085 
L 278.5344 895.1085 
L 278.5344 898.506 
z
" clip-path="url(#p74d4c954ac)" style="fill: none; stroke: #000000; stroke-linejoin: miter"/>
   </g>
   <g id="patch_171">
    <path d="M 147.4416 1094.8815 
L 166.0416 1094.8815 
L 166.0416 1091.484 
L 147.4416 1091.484 
L 147.4416 1094.8815 
z
" clip-path="url(#p74d4c954ac)" style="fill: none; stroke: #000000; stroke-linejoin: miter"/>
   </g>
   <g id="patch_172">
    <path d="M 115.7844 848.9025 
L 134.3844 848.9025 
L 134.3844 845.505 
L 115.7844 845.505 
L 115.7844 848.9025 
z
" clip-path="url(#p74d4c954ac)" style="fill: none; stroke: #000000; stroke-linejoin: miter"/>
   </g>
   <g id="patch_173">
    <path d="M 109.4604 866.399625 
L 128.0604 866.399625 
L 128.0604 863.002125 
L 109.4604 863.002125 
L 109.4604 866.399625 
z
" clip-path="url(#p74d4c954ac)" style="fill: none; stroke: #000000; stroke-linejoin: miter"/>
   </g>
   <g id="patch_174">
    <path d="M 195.5784 772.7985 
L 214.1784 772.7985 
L 214.1784 769.401 
L 195.5784 769.401 
L 195.5784 772.7985 
z
" clip-path="url(#p74d4c954ac)" style="fill: none; stroke: #000000; stroke-linejoin: miter"/>
   </g>
   <g id="patch_175">
    <path d="M 180.066 1046.29725 
L 198.666 1046.29725 
L 198.666 1042.89975 
L 180.066 1042.89975 
L 180.066 1046.29725 
z
" clip-path="url(#p74d4c954ac)" style="fill: none; stroke: #000000; stroke-linejoin: miter"/>
   </g>
   <g id="patch_176">
    <path d="M 158.49 1010.6235 
L 177.09 1010.6235 
L 177.09 1007.226 
L 158.49 1007.226 
L 158.49 1010.6235 
z
" clip-path="url(#p74d4c954ac)" style="fill: none; stroke: #000000; stroke-linejoin: miter"/>
   </g>
   <g id="patch_177">
    <path d="M 284.226 896.12775 
L 302.826 896.12775 
L 302.826 892.73025 
L 284.226 892.73025 
L 284.226 896.12775 
z
" clip-path="url(#p74d4c954ac)" style="fill: none; stroke: #000000; stroke-linejoin: miter"/>
   </g>
   <g id="patch_178">
    <path d="M 181.182 897.656625 
L 199.782 897.656625 
L 199.782 894.259125 
L 181.182 894.259125 
L 181.182 897.656625 
z
" clip-path="url(#p74d4c954ac)" style="fill: none; stroke: #000000; stroke-linejoin: miter"/>
   </g>
   <g id="patch_179">
    <path d="M 166.8972 934.689375 
L 185.4972 934.689375 
L 185.4972 931.291875 
L 166.8972 931.291875 
L 166.8972 934.689375 
z
" clip-path="url(#p74d4c954ac)" style="fill: none; stroke: #000000; stroke-linejoin: miter"/>
   </g>
   <g id="patch_180">
    <path d="M 118.7604 784.35 
L 137.3604 784.35 
L 137.3604 780.9525 
L 118.7604 780.9525 
L 118.7604 784.35 
z
" clip-path="url(#p74d4c954ac)" style="fill: none; stroke: #000000; stroke-linejoin: miter"/>
   </g>
   <g id="patch_181">
    <path d="M 169.464 1027.27125 
L 188.064 1027.27125 
L 188.064 1023.87375 
L 169.464 1023.87375 
L 169.464 1027.27125 
z
" clip-path="url(#p74d4c954ac)" style="fill: none; stroke: #000000; stroke-linejoin: miter"/>
   </g>
   <g id="patch_182">
    <path d="M 274.0704 733.3875 
L 292.6704 733.3875 
L 292.6704 729.99 
L 274.0704 729.99 
L 274.0704 733.3875 
z
" clip-path="url(#p74d4c954ac)" style="fill: none; stroke: #000000; stroke-linejoin: miter"/>
   </g>
   <g id="patch_183">
    <path d="M 288.0204 953.715375 
L 306.6204 953.715375 
L 306.6204 950.317875 
L 288.0204 950.317875 
L 288.0204 953.715375 
z
" clip-path="url(#p74d4c954ac)" style="fill: none; stroke: #000000; stroke-linejoin: miter"/>
   </g>
   <g id="patch_184">
    <path d="M 279.576 728.800875 
L 298.176 728.800875 
L 298.176 725.403375 
L 279.576 725.403375 
L 279.576 728.800875 
z
" clip-path="url(#p74d4c954ac)" style="fill: none; stroke: #000000; stroke-linejoin: miter"/>
   </g>
   <g id="patch_185">
    <path d="M 151.05 801.847125 
L 169.65 801.847125 
L 169.65 798.449625 
L 151.05 798.449625 
L 151.05 801.847125 
z
" clip-path="url(#p74d4c954ac)" style="fill: none; stroke: #000000; stroke-linejoin: miter"/>
   </g>
   <g id="patch_186">
    <path d="M 303.6816 885.93525 
L 322.2816 885.93525 
L 322.2816 882.53775 
L 303.6816 882.53775 
L 303.6816 885.93525 
z
" clip-path="url(#p74d4c954ac)" style="fill: none; stroke: #000000; stroke-linejoin: miter"/>
   </g>
   <g id="patch_187">
    <path d="M 152.6496 921.609 
L 171.2496 921.609 
L 171.2496 918.2115 
L 152.6496 918.2115 
L 152.6496 921.609 
z
" clip-path="url(#p74d4c954ac)" style="fill: none; stroke: #000000; stroke-linejoin: miter"/>
   </g>
   <g id="patch_188">
    <path d="M 276.7116 916.342875 
L 295.3116 916.342875 
L 295.3116 912.945375 
L 276.7116 912.945375 
L 276.7116 916.342875 
z
" clip-path="url(#p74d4c954ac)" style="fill: none; stroke: #000000; stroke-linejoin: miter"/>
   </g>
   <g id="patch_189">
    <path d="M 116.826 935.8785 
L 135.426 935.8785 
L 135.426 932.481 
L 116.826 932.481 
L 116.826 935.8785 
z
" clip-path="url(#p74d4c954ac)" style="fill: none; stroke: #000000; stroke-linejoin: miter"/>
   </g>
   <g id="patch_190">
    <path d="M 165.93 1022.51475 
L 184.53 1022.51475 
L 184.53 1019.11725 
L 165.93 1019.11725 
L 165.93 1022.51475 
z
" clip-path="url(#p74d4c954ac)" style="fill: none; stroke: #000000; stroke-linejoin: miter"/>
   </g>
   <g id="patch_191">
    <path d="M 123.708 842.617125 
L 142.308 842.617125 
L 142.308 839.219625 
L 123.708 839.219625 
L 123.708 842.617125 
z
" clip-path="url(#p74d4c954ac)" style="fill: none; stroke: #000000; stroke-linejoin: miter"/>
   </g>
   <g id="patch_192">
    <path d="M 99.2676 761.416875 
L 117.8676 761.416875 
L 117.8676 758.019375 
L 99.2676 758.019375 
L 99.2676 761.416875 
z
" clip-path="url(#p74d4c954ac)" style="fill: none; stroke: #000000; stroke-linejoin: miter"/>
   </g>
   <g id="patch_193">
    <path d="M 445.5996 436.10625 
L 464.1996 436.10625 
L 464.1996 432.70875 
L 445.5996 432.70875 
L 445.5996 436.10625 
z
" clip-path="url(#p74d4c954ac)" style="fill: none; stroke: #000000; stroke-linejoin: miter"/>
   </g>
   <g id="patch_194">
    <path d="M 211.3884 933.330375 
L 229.9884 933.330375 
L 229.9884 929.932875 
L 211.3884 929.932875 
L 211.3884 933.330375 
z
" clip-path="url(#p74d4c954ac)" style="fill: none; stroke: #000000; stroke-linejoin: miter"/>
   </g>
   <g id="patch_195">
    <path d="M 204.7296 836.501625 
L 223.3296 836.501625 
L 223.3296 833.104125 
L 204.7296 833.104125 
L 204.7296 836.501625 
z
" clip-path="url(#p74d4c954ac)" style="fill: none; stroke: #000000; stroke-linejoin: miter"/>
   </g>
   <g id="patch_196">
    <path d="M 94.9896 815.26725 
L 113.5896 815.26725 
L 113.5896 811.86975 
L 94.9896 811.86975 
L 94.9896 815.26725 
z
" clip-path="url(#p74d4c954ac)" style="fill: none; stroke: #000000; stroke-linejoin: miter"/>
   </g>
   <g id="patch_197">
    <path d="M 197.2896 813.738375 
L 215.8896 813.738375 
L 215.8896 810.340875 
L 197.2896 810.340875 
L 197.2896 813.738375 
z
" clip-path="url(#p74d4c954ac)" style="fill: none; stroke: #000000; stroke-linejoin: miter"/>
   </g>
   <g id="patch_198">
    <path d="M 113.0316 909.71775 
L 131.6316 909.71775 
L 131.6316 906.32025 
L 113.0316 906.32025 
L 113.0316 909.71775 
z
" clip-path="url(#p74d4c954ac)" style="fill: none; stroke: #000000; stroke-linejoin: miter"/>
   </g>
   <g id="patch_199">
    <path d="M 193.272 933.84 
L 211.872 933.84 
L 211.872 930.4425 
L 193.272 930.4425 
L 193.272 933.84 
z
" clip-path="url(#p74d4c954ac)" style="fill: none; stroke: #000000; stroke-linejoin: miter"/>
   </g>
   <g id="patch_200">
    <path d="M 205.548 833.61375 
L 224.148 833.61375 
L 224.148 830.21625 
L 205.548 830.21625 
L 205.548 833.61375 
z
" clip-path="url(#p74d4c954ac)" style="fill: none; stroke: #000000; stroke-linejoin: miter"/>
   </g>
   <g id="patch_201">
    <path d="M 267.7464 953.375625 
L 286.3464 953.375625 
L 286.3464 949.978125 
L 267.7464 949.978125 
L 267.7464 953.375625 
z
" clip-path="url(#p74d4c954ac)" style="fill: none; stroke: #000000; stroke-linejoin: miter"/>
   </g>
   <g id="patch_202">
    <path d="M 92.5344 827.668125 
L 111.1344 827.668125 
L 111.1344 824.270625 
L 92.5344 824.270625 
L 92.5344 827.668125 
z
" clip-path="url(#p74d4c954ac)" style="fill: none; stroke: #000000; stroke-linejoin: miter"/>
   </g>
   <g id="patch_203">
    <path d="M 163.2888 947.599875 
L 181.8888 947.599875 
L 181.8888 944.202375 
L 163.2888 944.202375 
L 163.2888 947.599875 
z
" clip-path="url(#p74d4c954ac)" style="fill: none; stroke: #000000; stroke-linejoin: miter"/>
   </g>
   <g id="patch_204">
    <path d="M 182.1864 946.071 
L 200.7864 946.071 
L 200.7864 942.6735 
L 182.1864 942.6735 
L 182.1864 946.071 
z
" clip-path="url(#p74d4c954ac)" style="fill: none; stroke: #000000; stroke-linejoin: miter"/>
   </g>
   <g id="patch_205">
    <path d="M 403.3776 488.7675 
L 421.9776 488.7675 
L 421.9776 485.37 
L 403.3776 485.37 
L 403.3776 488.7675 
z
" clip-path="url(#p74d4c954ac)" style="fill: none; stroke: #000000; stroke-linejoin: miter"/>
   </g>
   <g id="patch_206">
    <path d="M 202.4604 738.48375 
L 221.0604 738.48375 
L 221.0604 735.08625 
L 202.4604 735.08625 
L 202.4604 738.48375 
z
" clip-path="url(#p74d4c954ac)" style="fill: none; stroke: #000000; stroke-linejoin: miter"/>
   </g>
   <g id="patch_207">
    <path d="M 148.632 1052.242875 
L 167.232 1052.242875 
L 167.232 1048.845375 
L 148.632 1048.845375 
L 148.632 1052.242875 
z
" clip-path="url(#p74d4c954ac)" style="fill: none; stroke: #000000; stroke-linejoin: miter"/>
   </g>
   <g id="patch_208">
    <path d="M 112.2504 803.376 
L 130.8504 803.376 
L 130.8504 799.9785 
L 112.2504 799.9785 
L 112.2504 803.376 
z
" clip-path="url(#p74d4c954ac)" style="fill: none; stroke: #000000; stroke-linejoin: miter"/>
   </g>
   <g id="patch_209">
    <path d="M 163.8096 840.918375 
L 182.4096 840.918375 
L 182.4096 837.520875 
L 163.8096 837.520875 
L 163.8096 840.918375 
z
" clip-path="url(#p74d4c954ac)" style="fill: none; stroke: #000000; stroke-linejoin: miter"/>
   </g>
   <g id="patch_210">
    <path d="M 208.152 786.898125 
L 226.752 786.898125 
L 226.752 783.500625 
L 208.152 783.500625 
L 208.152 786.898125 
z
" clip-path="url(#p74d4c954ac)" style="fill: none; stroke: #000000; stroke-linejoin: miter"/>
   </g>
   <g id="patch_211">
    <path d="M 221.8416 777.89475 
L 240.4416 777.89475 
L 240.4416 774.49725 
L 221.8416 774.49725 
L 221.8416 777.89475 
z
" clip-path="url(#p74d4c954ac)" style="fill: none; stroke: #000000; stroke-linejoin: miter"/>
   </g>
   <g id="patch_212">
    <path d="M 128.6184 847.20375 
L 147.2184 847.20375 
L 147.2184 843.80625 
L 128.6184 843.80625 
L 128.6184 847.20375 
z
" clip-path="url(#p74d4c954ac)" style="fill: none; stroke: #000000; stroke-linejoin: miter"/>
   </g>
   <g id="patch_213">
    <path d="M 249.072 802.6965 
L 267.672 802.6965 
L 267.672 799.299 
L 249.072 799.299 
L 249.072 802.6965 
z
" clip-path="url(#p74d4c954ac)" style="fill: none; stroke: #000000; stroke-linejoin: miter"/>
   </g>
   <g id="patch_214">
    <path d="M 159.1224 806.943375 
L 177.7224 806.943375 
L 177.7224 803.545875 
L 159.1224 803.545875 
L 159.1224 806.943375 
z
" clip-path="url(#p74d4c954ac)" style="fill: none; stroke: #000000; stroke-linejoin: miter"/>
   </g>
   <g id="patch_215">
    <path d="M 308.22 717.759 
L 326.82 717.759 
L 326.82 714.3615 
L 308.22 714.3615 
L 308.22 717.759 
z
" clip-path="url(#p74d4c954ac)" style="fill: none; stroke: #000000; stroke-linejoin: miter"/>
   </g>
   <g id="patch_216">
    <path d="M 91.7904 790.295625 
L 110.3904 790.295625 
L 110.3904 786.898125 
L 91.7904 786.898125 
L 91.7904 790.295625 
z
" clip-path="url(#p74d4c954ac)" style="fill: none; stroke: #000000; stroke-linejoin: miter"/>
   </g>
   <g id="patch_217">
    <path d="M 83.346 738.8235 
L 101.946 738.8235 
L 101.946 735.426 
L 83.346 735.426 
L 83.346 738.8235 
z
" clip-path="url(#p74d4c954ac)" style="fill: none; stroke: #000000; stroke-linejoin: miter"/>
   </g>
   <g id="patch_218">
    <path d="M 264.3984 851.96025 
L 282.9984 851.96025 
L 282.9984 848.56275 
L 264.3984 848.56275 
L 264.3984 851.96025 
z
" clip-path="url(#p74d4c954ac)" style="fill: none; stroke: #000000; stroke-linejoin: miter"/>
   </g>
   <g id="patch_219">
    <path d="M 280.7664 938.086875 
L 299.3664 938.086875 
L 299.3664 934.689375 
L 280.7664 934.689375 
L 280.7664 938.086875 
z
" clip-path="url(#p74d4c954ac)" style="fill: none; stroke: #000000; stroke-linejoin: miter"/>
   </g>
   <g id="patch_220">
    <path d="M 418.89 479.084625 
L 437.49 479.084625 
L 437.49 475.687125 
L 418.89 475.687125 
L 418.89 479.084625 
z
" clip-path="url(#p74d4c954ac)" style="fill: none; stroke: #000000; stroke-linejoin: miter"/>
   </g>
   <g id="patch_221">
    <path d="M 113.85 832.5945 
L 132.45 832.5945 
L 132.45 829.197 
L 113.85 829.197 
L 113.85 832.5945 
z
" clip-path="url(#p74d4c954ac)" style="fill: none; stroke: #000000; stroke-linejoin: miter"/>
   </g>
   <g id="patch_222">
    <path d="M 237.54 907.67925 
L 256.14 907.67925 
L 256.14 904.28175 
L 237.54 904.28175 
L 237.54 907.67925 
z
" clip-path="url(#p74d4c954ac)" style="fill: none; stroke: #000000; stroke-linejoin: miter"/>
   </g>
   <g id="patch_223">
    <path d="M 285.156 843.80625 
L 303.756 843.80625 
L 303.756 840.40875 
L 285.156 840.40875 
L 285.156 843.80625 
z
" clip-path="url(#p74d4c954ac)" style="fill: none; stroke: #000000; stroke-linejoin: miter"/>
   </g>
   <g id="patch_224">
    <path d="M 228.426 964.4175 
L 247.026 964.4175 
L 247.026 961.02 
L 228.426 961.02 
L 228.426 964.4175 
z
" clip-path="url(#p74d4c954ac)" style="fill: none; stroke: #000000; stroke-linejoin: miter"/>
   </g>
   <g id="patch_225">
    <path d="M 171.3984 762.606 
L 189.9984 762.606 
L 189.9984 759.2085 
L 171.3984 759.2085 
L 171.3984 762.606 
z
" clip-path="url(#p74d4c954ac)" style="fill: none; stroke: #000000; stroke-linejoin: miter"/>
   </g>
   <g id="patch_226">
    <path d="M 231.216 863.681625 
L 249.816 863.681625 
L 249.816 860.284125 
L 231.216 860.284125 
L 231.216 863.681625 
z
" clip-path="url(#p74d4c954ac)" style="fill: none; stroke: #000000; stroke-linejoin: miter"/>
   </g>
   <g id="patch_227">
    <path d="M 141.192 977.497875 
L 159.792 977.497875 
L 159.792 974.100375 
L 141.192 974.100375 
L 141.192 977.497875 
z
" clip-path="url(#p74d4c954ac)" style="fill: none; stroke: #000000; stroke-linejoin: miter"/>
   </g>
   <g id="patch_228">
    <path d="M 180.252 818.325 
L 198.852 818.325 
L 198.852 814.9275 
L 180.252 814.9275 
L 180.252 818.325 
z
" clip-path="url(#p74d4c954ac)" style="fill: none; stroke: #000000; stroke-linejoin: miter"/>
   </g>
   <g id="patch_229">
    <path d="M 165.6324 951.676875 
L 184.2324 951.676875 
L 184.2324 948.279375 
L 165.6324 948.279375 
L 165.6324 951.676875 
z
" clip-path="url(#p74d4c954ac)" style="fill: none; stroke: #000000; stroke-linejoin: miter"/>
   </g>
   <g id="patch_230">
    <path d="M 237.6516 966.11625 
L 256.2516 966.11625 
L 256.2516 962.71875 
L 237.6516 962.71875 
L 237.6516 966.11625 
z
" clip-path="url(#p74d4c954ac)" style="fill: none; stroke: #000000; stroke-linejoin: miter"/>
   </g>
   <g id="patch_231">
    <path d="M 105.294 795.731625 
L 123.894 795.731625 
L 123.894 792.334125 
L 105.294 792.334125 
L 105.294 795.731625 
z
" clip-path="url(#p74d4c954ac)" style="fill: none; stroke: #000000; stroke-linejoin: miter"/>
   </g>
   <g id="patch_232">
    <path d="M 256.8096 977.66775 
L 275.4096 977.66775 
L 275.4096 974.27025 
L 256.8096 974.27025 
L 256.8096 977.66775 
z
" clip-path="url(#p74d4c954ac)" style="fill: none; stroke: #000000; stroke-linejoin: miter"/>
   </g>
   <g id="patch_233">
    <path d="M 156.3696 1060.9065 
L 174.9696 1060.9065 
L 174.9696 1057.509 
L 156.3696 1057.509 
L 156.3696 1060.9065 
z
" clip-path="url(#p74d4c954ac)" style="fill: none; stroke: #000000; stroke-linejoin: miter"/>
   </g>
   <g id="patch_234">
    <path d="M 212.058 876.0825 
L 230.658 876.0825 
L 230.658 872.685 
L 212.058 872.685 
L 212.058 876.0825 
z
" clip-path="url(#p74d4c954ac)" style="fill: none; stroke: #000000; stroke-linejoin: miter"/>
   </g>
   <g id="patch_235">
    <path d="M 246.7284 839.04975 
L 265.3284 839.04975 
L 265.3284 835.65225 
L 246.7284 835.65225 
L 246.7284 839.04975 
z
" clip-path="url(#p74d4c954ac)" style="fill: none; stroke: #000000; stroke-linejoin: miter"/>
   </g>
   <g id="patch_236">
    <path d="M 267.7464 964.07775 
L 286.3464 964.07775 
L 286.3464 960.68025 
L 267.7464 960.68025 
L 267.7464 964.07775 
z
" clip-path="url(#p74d4c954ac)" style="fill: none; stroke: #000000; stroke-linejoin: miter"/>
   </g>
   <g id="patch_237">
    <path d="M 283.3704 897.656625 
L 301.9704 897.656625 
L 301.9704 894.259125 
L 283.3704 894.259125 
L 283.3704 897.656625 
z
" clip-path="url(#p74d4c954ac)" style="fill: none; stroke: #000000; stroke-linejoin: miter"/>
   </g>
   <g id="patch_238">
    <path d="M 274.554 966.965625 
L 293.154 966.965625 
L 293.154 963.568125 
L 274.554 963.568125 
L 274.554 966.965625 
z
" clip-path="url(#p74d4c954ac)" style="fill: none; stroke: #000000; stroke-linejoin: miter"/>
   </g>
   <g id="patch_239">
    <path d="M 132.45 1042.89975 
L 151.05 1042.89975 
L 151.05 1039.50225 
L 132.45 1039.50225 
L 132.45 1042.89975 
z
" clip-path="url(#p74d4c954ac)" style="fill: none; stroke: #000000; stroke-linejoin: miter"/>
   </g>
   <g id="patch_240">
    <path d="M 278.274 942.33375 
L 296.874 942.33375 
L 296.874 938.93625 
L 278.274 938.93625 
L 278.274 942.33375 
z
" clip-path="url(#p74d4c954ac)" style="fill: none; stroke: #000000; stroke-linejoin: miter"/>
   </g>
   <g id="patch_241">
    <path d="M 155.886 1069.74 
L 174.486 1069.74 
L 174.486 1066.3425 
L 155.886 1066.3425 
L 155.886 1069.74 
z
" clip-path="url(#p74d4c954ac)" style="fill: none; stroke: #000000; stroke-linejoin: miter"/>
   </g>
   <g id="patch_242">
    <path d="M 105.2196 803.885625 
L 123.8196 803.885625 
L 123.8196 800.488125 
L 105.2196 800.488125 
L 105.2196 803.885625 
z
" clip-path="url(#p74d4c954ac)" style="fill: none; stroke: #000000; stroke-linejoin: miter"/>
   </g>
   <g id="patch_243">
    <path d="M 285.156 725.743125 
L 303.756 725.743125 
L 303.756 722.345625 
L 285.156 722.345625 
L 285.156 725.743125 
z
" clip-path="url(#p74d4c954ac)" style="fill: none; stroke: #000000; stroke-linejoin: miter"/>
   </g>
   <g id="patch_244">
    <path d="M 149.8224 755.1315 
L 168.4224 755.1315 
L 168.4224 751.734 
L 149.8224 751.734 
L 149.8224 755.1315 
z
" clip-path="url(#p74d4c954ac)" style="fill: none; stroke: #000000; stroke-linejoin: miter"/>
   </g>
   <g id="patch_245">
    <path d="M 129.5484 954.734625 
L 148.1484 954.734625 
L 148.1484 951.337125 
L 129.5484 951.337125 
L 129.5484 954.734625 
z
" clip-path="url(#p74d4c954ac)" style="fill: none; stroke: #000000; stroke-linejoin: miter"/>
   </g>
   <g id="patch_246">
    <path d="M 246.7284 774.667125 
L 265.3284 774.667125 
L 265.3284 771.269625 
L 246.7284 771.269625 
L 246.7284 774.667125 
z
" clip-path="url(#p74d4c954ac)" style="fill: none; stroke: #000000; stroke-linejoin: miter"/>
   </g>
   <g id="patch_247">
    <path d="M 197.55 979.3665 
L 216.15 979.3665 
L 216.15 975.969 
L 197.55 975.969 
L 197.55 979.3665 
z
" clip-path="url(#p74d4c954ac)" style="fill: none; stroke: #000000; stroke-linejoin: miter"/>
   </g>
   <g id="patch_248">
    <path d="M 188.7336 811.53 
L 207.3336 811.53 
L 207.3336 808.1325 
L 188.7336 808.1325 
L 188.7336 811.53 
z
" clip-path="url(#p74d4c954ac)" style="fill: none; stroke: #000000; stroke-linejoin: miter"/>
   </g>
   <g id="patch_249">
    <path d="M 333.702 565.720875 
L 352.302 565.720875 
L 352.302 562.323375 
L 333.702 562.323375 
L 333.702 565.720875 
z
" clip-path="url(#p74d4c954ac)" style="fill: none; stroke: #000000; stroke-linejoin: miter"/>
   </g>
   <g id="patch_250">
    <path d="M 182.9304 1019.626875 
L 201.5304 1019.626875 
L 201.5304 1016.229375 
L 182.9304 1016.229375 
L 182.9304 1019.626875 
z
" clip-path="url(#p74d4c954ac)" style="fill: none; stroke: #000000; stroke-linejoin: miter"/>
   </g>
   <g id="patch_251">
    <path d="M 245.2776 810.680625 
L 263.8776 810.680625 
L 263.8776 807.283125 
L 245.2776 807.283125 
L 245.2776 810.680625 
z
" clip-path="url(#p74d4c954ac)" style="fill: none; stroke: #000000; stroke-linejoin: miter"/>
   </g>
   <g id="patch_252">
    <path d="M 135.0912 938.5965 
L 153.6912 938.5965 
L 153.6912 935.199 
L 135.0912 935.199 
L 135.0912 938.5965 
z
" clip-path="url(#p74d4c954ac)" style="fill: none; stroke: #000000; stroke-linejoin: miter"/>
   </g>
   <g id="patch_253">
    <path d="M 198.9636 920.58975 
L 217.5636 920.58975 
L 217.5636 917.19225 
L 198.9636 917.19225 
L 198.9636 920.58975 
z
" clip-path="url(#p74d4c954ac)" style="fill: none; stroke: #000000; stroke-linejoin: miter"/>
   </g>
   <g id="patch_254">
    <path d="M 198.7404 758.019375 
L 217.3404 758.019375 
L 217.3404 754.621875 
L 198.7404 754.621875 
L 198.7404 758.019375 
z
" clip-path="url(#p74d4c954ac)" style="fill: none; stroke: #000000; stroke-linejoin: miter"/>
   </g>
   <g id="patch_255">
    <path d="M 482.0184 564.361875 
L 500.6184 564.361875 
L 500.6184 560.964375 
L 482.0184 560.964375 
L 482.0184 564.361875 
z
" clip-path="url(#p74d4c954ac)" style="fill: none; stroke: #000000; stroke-linejoin: miter"/>
   </g>
   <g id="patch_256">
    <path d="M 246.1704 844.146 
L 264.7704 844.146 
L 264.7704 840.7485 
L 246.1704 840.7485 
L 246.1704 844.146 
z
" clip-path="url(#p74d4c954ac)" style="fill: none; stroke: #000000; stroke-linejoin: miter"/>
   </g>
   <g id="patch_257">
    <path d="M 281.25 887.97375 
L 299.85 887.97375 
L 299.85 884.57625 
L 281.25 884.57625 
L 281.25 887.97375 
z
" clip-path="url(#p74d4c954ac)" style="fill: none; stroke: #000000; stroke-linejoin: miter"/>
   </g>
   <g id="patch_258">
    <path d="M 131.9664 802.6965 
L 150.5664 802.6965 
L 150.5664 799.299 
L 131.9664 799.299 
L 131.9664 802.6965 
z
" clip-path="url(#p74d4c954ac)" style="fill: none; stroke: #000000; stroke-linejoin: miter"/>
   </g>
   <g id="patch_259">
    <path d="M 162.6564 1015.71975 
L 181.2564 1015.71975 
L 181.2564 1012.32225 
L 162.6564 1012.32225 
L 162.6564 1015.71975 
z
" clip-path="url(#p74d4c954ac)" style="fill: none; stroke: #000000; stroke-linejoin: miter"/>
   </g>
   <g id="patch_260">
    <path d="M 162.5076 863.681625 
L 181.1076 863.681625 
L 181.1076 860.284125 
L 162.5076 860.284125 
L 162.5076 863.681625 
z
" clip-path="url(#p74d4c954ac)" style="fill: none; stroke: #000000; stroke-linejoin: miter"/>
   </g>
   <g id="patch_261">
    <path d="M 179.88 963.568125 
L 198.48 963.568125 
L 198.48 960.170625 
L 179.88 960.170625 
L 179.88 963.568125 
z
" clip-path="url(#p74d4c954ac)" style="fill: none; stroke: #000000; stroke-linejoin: miter"/>
   </g>
   <g id="patch_262">
    <path d="M 277.9764 726.5925 
L 296.5764 726.5925 
L 296.5764 723.195 
L 277.9764 723.195 
L 277.9764 726.5925 
z
" clip-path="url(#p74d4c954ac)" style="fill: none; stroke: #000000; stroke-linejoin: miter"/>
   </g>
   <g id="patch_263">
    <path d="M 141.936 828.5175 
L 160.536 828.5175 
L 160.536 825.12 
L 141.936 825.12 
L 141.936 828.5175 
z
" clip-path="url(#p74d4c954ac)" style="fill: none; stroke: #000000; stroke-linejoin: miter"/>
   </g>
   <g id="patch_264">
    <path d="M 185.9064 871.495875 
L 204.5064 871.495875 
L 204.5064 868.098375 
L 185.9064 868.098375 
L 185.9064 871.495875 
z
" clip-path="url(#p74d4c954ac)" style="fill: none; stroke: #000000; stroke-linejoin: miter"/>
   </g>
   <g id="patch_265">
    <path d="M 283.7796 881.688375 
L 302.3796 881.688375 
L 302.3796 878.290875 
L 283.7796 878.290875 
L 283.7796 881.688375 
z
" clip-path="url(#p74d4c954ac)" style="fill: none; stroke: #000000; stroke-linejoin: miter"/>
   </g>
   <g id="patch_266">
    <path d="M 168.7944 993.805875 
L 187.3944 993.805875 
L 187.3944 990.408375 
L 168.7944 990.408375 
L 168.7944 993.805875 
z
" clip-path="url(#p74d4c954ac)" style="fill: none; stroke: #000000; stroke-linejoin: miter"/>
   </g>
   <g id="patch_267">
    <path d="M 215.592 934.17975 
L 234.192 934.17975 
L 234.192 930.78225 
L 215.592 930.78225 
L 215.592 934.17975 
z
" clip-path="url(#p74d4c954ac)" style="fill: none; stroke: #000000; stroke-linejoin: miter"/>
   </g>
   <g id="patch_268">
    <path d="M 268.5276 962.71875 
L 287.1276 962.71875 
L 287.1276 959.32125 
L 268.5276 959.32125 
L 268.5276 962.71875 
z
" clip-path="url(#p74d4c954ac)" style="fill: none; stroke: #000000; stroke-linejoin: miter"/>
   </g>
   <g id="patch_269">
    <path d="M 148.5576 1024.383375 
L 167.1576 1024.383375 
L 167.1576 1020.985875 
L 148.5576 1020.985875 
L 148.5576 1024.383375 
z
" clip-path="url(#p74d4c954ac)" style="fill: none; stroke: #000000; stroke-linejoin: miter"/>
   </g>
   <g id="patch_270">
    <path d="M 430.8684 1188.31275 
L 449.4684 1188.31275 
L 449.4684 1184.91525 
L 430.8684 1184.91525 
L 430.8684 1188.31275 
z
" clip-path="url(#p74d4c954ac)" style="fill: none; stroke: #000000; stroke-linejoin: miter"/>
   </g>
   <g id="patch_271">
    <path d="M 158.6016 1008.92475 
L 177.2016 1008.92475 
L 177.2016 1005.52725 
L 158.6016 1005.52725 
L 158.6016 1008.92475 
z
" clip-path="url(#p74d4c954ac)" style="fill: none; stroke: #000000; stroke-linejoin: miter"/>
   </g>
   <g id="patch_272">
    <path d="M 180.5124 872.854875 
L 199.1124 872.854875 
L 199.1124 869.457375 
L 180.5124 869.457375 
L 180.5124 872.854875 
z
" clip-path="url(#p74d4c954ac)" style="fill: none; stroke: #000000; stroke-linejoin: miter"/>
   </g>
   <g id="patch_273">
    <path d="M 171.5844 887.464125 
L 190.1844 887.464125 
L 190.1844 884.066625 
L 171.5844 884.066625 
L 171.5844 887.464125 
z
" clip-path="url(#p74d4c954ac)" style="fill: none; stroke: #000000; stroke-linejoin: miter"/>
   </g>
   <g id="patch_274">
    <path d="M 166.0044 785.539125 
L 184.6044 785.539125 
L 184.6044 782.141625 
L 166.0044 782.141625 
L 166.0044 785.539125 
z
" clip-path="url(#p74d4c954ac)" style="fill: none; stroke: #000000; stroke-linejoin: miter"/>
   </g>
   <g id="patch_275">
    <path d="M 210.4584 994.65525 
L 229.0584 994.65525 
L 229.0584 991.25775 
L 210.4584 991.25775 
L 210.4584 994.65525 
z
" clip-path="url(#p74d4c954ac)" style="fill: none; stroke: #000000; stroke-linejoin: miter"/>
   </g>
   <g id="patch_276">
    <path d="M 270.2016 748.67625 
L 288.8016 748.67625 
L 288.8016 745.27875 
L 270.2016 745.27875 
L 270.2016 748.67625 
z
" clip-path="url(#p74d4c954ac)" style="fill: none; stroke: #000000; stroke-linejoin: miter"/>
   </g>
   <g id="patch_277">
    <path d="M 118.3512 870.136875 
L 136.9512 870.136875 
L 136.9512 866.739375 
L 118.3512 866.739375 
L 118.3512 870.136875 
z
" clip-path="url(#p74d4c954ac)" style="fill: none; stroke: #000000; stroke-linejoin: miter"/>
   </g>
   <g id="patch_278">
    <path d="M 191.598 768.7215 
L 210.198 768.7215 
L 210.198 765.324 
L 191.598 765.324 
L 191.598 768.7215 
z
" clip-path="url(#p74d4c954ac)" style="fill: none; stroke: #000000; stroke-linejoin: miter"/>
   </g>
   <g id="patch_279">
    <path d="M 273.066 831.57525 
L 291.666 831.57525 
L 291.666 828.17775 
L 273.066 828.17775 
L 273.066 831.57525 
z
" clip-path="url(#p74d4c954ac)" style="fill: none; stroke: #000000; stroke-linejoin: miter"/>
   </g>
   <g id="patch_280">
    <path d="M 100.0116 814.9275 
L 118.6116 814.9275 
L 118.6116 811.53 
L 100.0116 811.53 
L 100.0116 814.9275 
z
" clip-path="url(#p74d4c954ac)" style="fill: none; stroke: #000000; stroke-linejoin: miter"/>
   </g>
   <g id="patch_281">
    <path d="M 226.008 977.497875 
L 244.608 977.497875 
L 244.608 974.100375 
L 226.008 974.100375 
L 226.008 977.497875 
z
" clip-path="url(#p74d4c954ac)" style="fill: none; stroke: #000000; stroke-linejoin: miter"/>
   </g>
   <g id="patch_282">
    <path d="M 383.4384 502.69725 
L 402.0384 502.69725 
L 402.0384 499.29975 
L 383.4384 499.29975 
L 383.4384 502.69725 
z
" clip-path="url(#p74d4c954ac)" style="fill: none; stroke: #000000; stroke-linejoin: miter"/>
   </g>
   <g id="patch_283">
    <path d="M 130.5156 829.706625 
L 149.1156 829.706625 
L 149.1156 826.309125 
L 130.5156 826.309125 
L 130.5156 829.706625 
z
" clip-path="url(#p74d4c954ac)" style="fill: none; stroke: #000000; stroke-linejoin: miter"/>
   </g>
   <g id="patch_284">
    <path d="M 151.608 828.007875 
L 170.208 828.007875 
L 170.208 824.610375 
L 151.608 824.610375 
L 151.608 828.007875 
z
" clip-path="url(#p74d4c954ac)" style="fill: none; stroke: #000000; stroke-linejoin: miter"/>
   </g>
   <g id="patch_285">
    <path d="M 120.0624 953.035875 
L 138.6624 953.035875 
L 138.6624 949.638375 
L 120.0624 949.638375 
L 120.0624 953.035875 
z
" clip-path="url(#p74d4c954ac)" style="fill: none; stroke: #000000; stroke-linejoin: miter"/>
   </g>
   <g id="patch_286">
    <path d="M 287.016 840.40875 
L 305.616 840.40875 
L 305.616 837.01125 
L 287.016 837.01125 
L 287.016 840.40875 
z
" clip-path="url(#p74d4c954ac)" style="fill: none; stroke: #000000; stroke-linejoin: miter"/>
   </g>
   <g id="patch_287">
    <path d="M 222.9576 718.09875 
L 241.5576 718.09875 
L 241.5576 714.70125 
L 222.9576 714.70125 
L 222.9576 718.09875 
z
" clip-path="url(#p74d4c954ac)" style="fill: none; stroke: #000000; stroke-linejoin: miter"/>
   </g>
   <g id="patch_288">
    <path d="M 185.7576 790.295625 
L 204.3576 790.295625 
L 204.3576 786.898125 
L 185.7576 786.898125 
L 185.7576 790.295625 
z
" clip-path="url(#p74d4c954ac)" style="fill: none; stroke: #000000; stroke-linejoin: miter"/>
   </g>
   <g id="patch_289">
    <path d="M 297.1716 740.692125 
L 315.7716 740.692125 
L 315.7716 737.294625 
L 297.1716 737.294625 
L 297.1716 740.692125 
z
" clip-path="url(#p74d4c954ac)" style="fill: none; stroke: #000000; stroke-linejoin: miter"/>
   </g>
   <g id="patch_290">
    <path d="M 130.2924 834.123375 
L 148.8924 834.123375 
L 148.8924 830.725875 
L 130.2924 830.725875 
L 130.2924 834.123375 
z
" clip-path="url(#p74d4c954ac)" style="fill: none; stroke: #000000; stroke-linejoin: miter"/>
   </g>
   <g id="patch_291">
    <path d="M 256.5864 977.158125 
L 275.1864 977.158125 
L 275.1864 973.760625 
L 256.5864 973.760625 
L 256.5864 977.158125 
z
" clip-path="url(#p74d4c954ac)" style="fill: none; stroke: #000000; stroke-linejoin: miter"/>
   </g>
   <g id="matplotlib.axis_1">
    <g id="xtick_1">
     <g id="line2d_1">
      <defs>
       <path id="m25b4ab9eae" d="M 0 0 
L 0 3.5 
" style="stroke: #000000; stroke-width: 0.8"/>
      </defs>
      <g>
       <use xlink:href="#m25b4ab9eae" x="72" y="1260" style="stroke: #000000; stroke-width: 0.8"/>
      </g>
     </g>
     <g id="text_1">
      <!-- 60 -->
      <g transform="translate(65.6375 1274.598438)scale(0.1 -0.1)">
       <defs>
        <path id="DejaVuSans-36" d="M 2113 2584 
Q 1688 2584 1439 2293 
Q 1191 2003 1191 1497 
Q 1191 994 1439 701 
Q 1688 409 2113 409 
Q 2538 409 2786 701 
Q 3034 994 3034 1497 
Q 3034 2003 2786 2293 
Q 2538 2584 2113 2584 
z
M 3366 4563 
L 3366 3988 
Q 3128 4100 2886 4159 
Q 2644 4219 2406 4219 
Q 1781 4219 1451 3797 
Q 1122 3375 1075 2522 
Q 1259 2794 1537 2939 
Q 1816 3084 2150 3084 
Q 2853 3084 3261 2657 
Q 3669 2231 3669 1497 
Q 3669 778 3244 343 
Q 2819 -91 2113 -91 
Q 1303 -91 875 529 
Q 447 1150 447 2328 
Q 447 3434 972 4092 
Q 1497 4750 2381 4750 
Q 2619 4750 2861 4703 
Q 3103 4656 3366 4563 
z
" transform="scale(0.015625)"/>
        <path id="DejaVuSans-30" d="M 2034 4250 
Q 1547 4250 1301 3770 
Q 1056 3291 1056 2328 
Q 1056 1369 1301 889 
Q 1547 409 2034 409 
Q 2525 409 2770 889 
Q 3016 1369 3016 2328 
Q 3016 3291 2770 3770 
Q 2525 4250 2034 4250 
z
M 2034 4750 
Q 2819 4750 3233 4129 
Q 3647 3509 3647 2328 
Q 3647 1150 3233 529 
Q 2819 -91 2034 -91 
Q 1250 -91 836 529 
Q 422 1150 422 2328 
Q 422 3509 836 4129 
Q 1250 4750 2034 4750 
z
" transform="scale(0.015625)"/>
       </defs>
       <use xlink:href="#DejaVuSans-36"/>
       <use xlink:href="#DejaVuSans-30" x="63.623047"/>
      </g>
     </g>
    </g>
    <g id="xtick_2">
     <g id="line2d_2">
      <g>
       <use xlink:href="#m25b4ab9eae" x="146.4" y="1260" style="stroke: #000000; stroke-width: 0.8"/>
      </g>
     </g>
     <g id="text_2">
      <!-- 80 -->
      <g transform="translate(140.0375 1274.598438)scale(0.1 -0.1)">
       <defs>
        <path id="DejaVuSans-38" d="M 2034 2216 
Q 1584 2216 1326 1975 
Q 1069 1734 1069 1313 
Q 1069 891 1326 650 
Q 1584 409 2034 409 
Q 2484 409 2743 651 
Q 3003 894 3003 1313 
Q 3003 1734 2745 1975 
Q 2488 2216 2034 2216 
z
M 1403 2484 
Q 997 2584 770 2862 
Q 544 3141 544 3541 
Q 544 4100 942 4425 
Q 1341 4750 2034 4750 
Q 2731 4750 3128 4425 
Q 3525 4100 3525 3541 
Q 3525 3141 3298 2862 
Q 3072 2584 2669 2484 
Q 3125 2378 3379 2068 
Q 3634 1759 3634 1313 
Q 3634 634 3220 271 
Q 2806 -91 2034 -91 
Q 1263 -91 848 271 
Q 434 634 434 1313 
Q 434 1759 690 2068 
Q 947 2378 1403 2484 
z
M 1172 3481 
Q 1172 3119 1398 2916 
Q 1625 2713 2034 2713 
Q 2441 2713 2670 2916 
Q 2900 3119 2900 3481 
Q 2900 3844 2670 4047 
Q 2441 4250 2034 4250 
Q 1625 4250 1398 4047 
Q 1172 3844 1172 3481 
z
" transform="scale(0.015625)"/>
       </defs>
       <use xlink:href="#DejaVuSans-38"/>
       <use xlink:href="#DejaVuSans-30" x="63.623047"/>
      </g>
     </g>
    </g>
    <g id="xtick_3">
     <g id="line2d_3">
      <g>
       <use xlink:href="#m25b4ab9eae" x="220.8" y="1260" style="stroke: #000000; stroke-width: 0.8"/>
      </g>
     </g>
     <g id="text_3">
      <!-- 100 -->
      <g transform="translate(211.25625 1274.598438)scale(0.1 -0.1)">
       <defs>
        <path id="DejaVuSans-31" d="M 794 531 
L 1825 531 
L 1825 4091 
L 703 3866 
L 703 4441 
L 1819 4666 
L 2450 4666 
L 2450 531 
L 3481 531 
L 3481 0 
L 794 0 
L 794 531 
z
" transform="scale(0.015625)"/>
       </defs>
       <use xlink:href="#DejaVuSans-31"/>
       <use xlink:href="#DejaVuSans-30" x="63.623047"/>
       <use xlink:href="#DejaVuSans-30" x="127.246094"/>
      </g>
     </g>
    </g>
    <g id="xtick_4">
     <g id="line2d_4">
      <g>
       <use xlink:href="#m25b4ab9eae" x="295.2" y="1260" style="stroke: #000000; stroke-width: 0.8"/>
      </g>
     </g>
     <g id="text_4">
      <!-- 120 -->
      <g transform="translate(285.65625 1274.598438)scale(0.1 -0.1)">
       <defs>
        <path id="DejaVuSans-32" d="M 1228 531 
L 3431 531 
L 3431 0 
L 469 0 
L 469 531 
Q 828 903 1448 1529 
Q 2069 2156 2228 2338 
Q 2531 2678 2651 2914 
Q 2772 3150 2772 3378 
Q 2772 3750 2511 3984 
Q 2250 4219 1831 4219 
Q 1534 4219 1204 4116 
Q 875 4013 500 3803 
L 500 4441 
Q 881 4594 1212 4672 
Q 1544 4750 1819 4750 
Q 2544 4750 2975 4387 
Q 3406 4025 3406 3419 
Q 3406 3131 3298 2873 
Q 3191 2616 2906 2266 
Q 2828 2175 2409 1742 
Q 1991 1309 1228 531 
z
" transform="scale(0.015625)"/>
       </defs>
       <use xlink:href="#DejaVuSans-31"/>
       <use xlink:href="#DejaVuSans-32" x="63.623047"/>
       <use xlink:href="#DejaVuSans-30" x="127.246094"/>
      </g>
     </g>
    </g>
    <g id="xtick_5">
     <g id="line2d_5">
      <g>
       <use xlink:href="#m25b4ab9eae" x="369.6" y="1260" style="stroke: #000000; stroke-width: 0.8"/>
      </g>
     </g>
     <g id="text_5">
      <!-- 140 -->
      <g transform="translate(360.05625 1274.598438)scale(0.1 -0.1)">
       <defs>
        <path id="DejaVuSans-34" d="M 2419 4116 
L 825 1625 
L 2419 1625 
L 2419 4116 
z
M 2253 4666 
L 3047 4666 
L 3047 1625 
L 3713 1625 
L 3713 1100 
L 3047 1100 
L 3047 0 
L 2419 0 
L 2419 1100 
L 313 1100 
L 313 1709 
L 2253 4666 
z
" transform="scale(0.015625)"/>
       </defs>
       <use xlink:href="#DejaVuSans-31"/>
       <use xlink:href="#DejaVuSans-34" x="63.623047"/>
       <use xlink:href="#DejaVuSans-30" x="127.246094"/>
      </g>
     </g>
    </g>
    <g id="xtick_6">
     <g id="line2d_6">
      <g>
       <use xlink:href="#m25b4ab9eae" x="444" y="1260" style="stroke: #000000; stroke-width: 0.8"/>
      </g>
     </g>
     <g id="text_6">
      <!-- 160 -->
      <g transform="translate(434.45625 1274.598438)scale(0.1 -0.1)">
       <use xlink:href="#DejaVuSans-31"/>
       <use xlink:href="#DejaVuSans-36" x="63.623047"/>
       <use xlink:href="#DejaVuSans-30" x="127.246094"/>
      </g>
     </g>
    </g>
    <g id="xtick_7">
     <g id="line2d_7">
      <g>
       <use xlink:href="#m25b4ab9eae" x="518.4" y="1260" style="stroke: #000000; stroke-width: 0.8"/>
      </g>
     </g>
     <g id="text_7">
      <!-- 180 -->
      <g transform="translate(508.85625 1274.598438)scale(0.1 -0.1)">
       <use xlink:href="#DejaVuSans-31"/>
       <use xlink:href="#DejaVuSans-38" x="63.623047"/>
       <use xlink:href="#DejaVuSans-30" x="127.246094"/>
      </g>
     </g>
    </g>
   </g>
   <g id="matplotlib.axis_2">
    <g id="ytick_1">
     <g id="line2d_8">
      <defs>
       <path id="m2091e5d46c" d="M 0 0 
L -3.5 0 
" style="stroke: #000000; stroke-width: 0.8"/>
      </defs>
      <g>
       <use xlink:href="#m2091e5d46c" x="72" y="1192.05" style="stroke: #000000; stroke-width: 0.8"/>
      </g>
     </g>
     <g id="text_8">
      <!-- 20 -->
      <g transform="translate(52.275 1195.849219)scale(0.1 -0.1)">
       <use xlink:href="#DejaVuSans-32"/>
       <use xlink:href="#DejaVuSans-30" x="63.623047"/>
      </g>
     </g>
    </g>
    <g id="ytick_2">
     <g id="line2d_9">
      <g>
       <use xlink:href="#m2091e5d46c" x="72" y="1022.175" style="stroke: #000000; stroke-width: 0.8"/>
      </g>
     </g>
     <g id="text_9">
      <!-- 30 -->
      <g transform="translate(52.275 1025.974219)scale(0.1 -0.1)">
       <defs>
        <path id="DejaVuSans-33" d="M 2597 2516 
Q 3050 2419 3304 2112 
Q 3559 1806 3559 1356 
Q 3559 666 3084 287 
Q 2609 -91 1734 -91 
Q 1441 -91 1130 -33 
Q 819 25 488 141 
L 488 750 
Q 750 597 1062 519 
Q 1375 441 1716 441 
Q 2309 441 2620 675 
Q 2931 909 2931 1356 
Q 2931 1769 2642 2001 
Q 2353 2234 1838 2234 
L 1294 2234 
L 1294 2753 
L 1863 2753 
Q 2328 2753 2575 2939 
Q 2822 3125 2822 3475 
Q 2822 3834 2567 4026 
Q 2313 4219 1838 4219 
Q 1578 4219 1281 4162 
Q 984 4106 628 3988 
L 628 4550 
Q 988 4650 1302 4700 
Q 1616 4750 1894 4750 
Q 2613 4750 3031 4423 
Q 3450 4097 3450 3541 
Q 3450 3153 3228 2886 
Q 3006 2619 2597 2516 
z
" transform="scale(0.015625)"/>
       </defs>
       <use xlink:href="#DejaVuSans-33"/>
       <use xlink:href="#DejaVuSans-30" x="63.623047"/>
      </g>
     </g>
    </g>
    <g id="ytick_3">
     <g id="line2d_10">
      <g>
       <use xlink:href="#m2091e5d46c" x="72" y="852.3" style="stroke: #000000; stroke-width: 0.8"/>
      </g>
     </g>
     <g id="text_10">
      <!-- 40 -->
      <g transform="translate(52.275 856.099219)scale(0.1 -0.1)">
       <use xlink:href="#DejaVuSans-34"/>
       <use xlink:href="#DejaVuSans-30" x="63.623047"/>
      </g>
     </g>
    </g>
    <g id="ytick_4">
     <g id="line2d_11">
      <g>
       <use xlink:href="#m2091e5d46c" x="72" y="682.425" style="stroke: #000000; stroke-width: 0.8"/>
      </g>
     </g>
     <g id="text_11">
      <!-- 50 -->
      <g transform="translate(52.275 686.224219)scale(0.1 -0.1)">
       <defs>
        <path id="DejaVuSans-35" d="M 691 4666 
L 3169 4666 
L 3169 4134 
L 1269 4134 
L 1269 2991 
Q 1406 3038 1543 3061 
Q 1681 3084 1819 3084 
Q 2600 3084 3056 2656 
Q 3513 2228 3513 1497 
Q 3513 744 3044 326 
Q 2575 -91 1722 -91 
Q 1428 -91 1123 -41 
Q 819 9 494 109 
L 494 744 
Q 775 591 1075 516 
Q 1375 441 1709 441 
Q 2250 441 2565 725 
Q 2881 1009 2881 1497 
Q 2881 1984 2565 2268 
Q 2250 2553 1709 2553 
Q 1456 2553 1204 2497 
Q 953 2441 691 2322 
L 691 4666 
z
" transform="scale(0.015625)"/>
       </defs>
       <use xlink:href="#DejaVuSans-35"/>
       <use xlink:href="#DejaVuSans-30" x="63.623047"/>
      </g>
     </g>
    </g>
    <g id="ytick_5">
     <g id="line2d_12">
      <g>
       <use xlink:href="#m2091e5d46c" x="72" y="512.55" style="stroke: #000000; stroke-width: 0.8"/>
      </g>
     </g>
     <g id="text_12">
      <!-- 60 -->
      <g transform="translate(52.275 516.349219)scale(0.1 -0.1)">
       <use xlink:href="#DejaVuSans-36"/>
       <use xlink:href="#DejaVuSans-30" x="63.623047"/>
      </g>
     </g>
    </g>
    <g id="ytick_6">
     <g id="line2d_13">
      <g>
       <use xlink:href="#m2091e5d46c" x="72" y="342.675" style="stroke: #000000; stroke-width: 0.8"/>
      </g>
     </g>
     <g id="text_13">
      <!-- 70 -->
      <g transform="translate(52.275 346.474219)scale(0.1 -0.1)">
       <defs>
        <path id="DejaVuSans-37" d="M 525 4666 
L 3525 4666 
L 3525 4397 
L 1831 0 
L 1172 0 
L 2766 4134 
L 525 4134 
L 525 4666 
z
" transform="scale(0.015625)"/>
       </defs>
       <use xlink:href="#DejaVuSans-37"/>
       <use xlink:href="#DejaVuSans-30" x="63.623047"/>
      </g>
     </g>
    </g>
    <g id="ytick_7">
     <g id="line2d_14">
      <g>
       <use xlink:href="#m2091e5d46c" x="72" y="172.8" style="stroke: #000000; stroke-width: 0.8"/>
      </g>
     </g>
     <g id="text_14">
      <!-- 80 -->
      <g transform="translate(52.275 176.599219)scale(0.1 -0.1)">
       <use xlink:href="#DejaVuSans-38"/>
       <use xlink:href="#DejaVuSans-30" x="63.623047"/>
      </g>
     </g>
    </g>
   </g>
   <g id="patch_292">
    <path d="M 72 1260 
L 72 172.8 
" style="fill: none; stroke: #000000; stroke-width: 0.8; stroke-linejoin: miter; stroke-linecap: square"/>
   </g>
   <g id="patch_293">
    <path d="M 518.4 1260 
L 518.4 172.8 
" style="fill: none; stroke: #000000; stroke-width: 0.8; stroke-linejoin: miter; stroke-linecap: square"/>
   </g>
   <g id="patch_294">
    <path d="M 72 1260 
L 518.4 1260 
" style="fill: none; stroke: #000000; stroke-width: 0.8; stroke-linejoin: miter; stroke-linecap: square"/>
   </g>
   <g id="patch_295">
    <path d="M 72 172.8 
L 518.4 172.8 
" style="fill: none; stroke: #000000; stroke-width: 0.8; stroke-linejoin: miter; stroke-linecap: square"/>
   </g>
  </g>
 </g>
 <defs>
  <clipPath id="p74d4c954ac">
   <rect x="72" y="172.8" width="446.4" height="1087.2"/>
  </clipPath>
 </defs>
</svg>
