<?xml version="1.0" encoding="utf-8" standalone="no"?>
<!DOCTYPE svg PUBLIC "-//W3C//DTD SVG 1.1//EN"
  "http://www.w3.org/Graphics/SVG/1.1/DTD/svg11.dtd">
<svg xmlns:xlink="http://www.w3.org/1999/xlink" width="1152pt" height="648pt" viewBox="0 0 1152 648" xmlns="http://www.w3.org/2000/svg" version="1.1">
 <metadata>
  <rdf:RDF xmlns:dc="http://purl.org/dc/elements/1.1/" xmlns:cc="http://creativecommons.org/ns#" xmlns:rdf="http://www.w3.org/1999/02/22-rdf-syntax-ns#">
   <cc:Work>
    <dc:type rdf:resource="http://purl.org/dc/dcmitype/StillImage"/>
    <dc:date>2022-04-19T21:23:06.642254</dc:date>
    <dc:format>image/svg+xml</dc:format>
    <dc:creator>
     <cc:Agent>
      <dc:title>Matplotlib v3.5.1, https://matplotlib.org/</dc:title>
     </cc:Agent>
    </dc:creator>
   </cc:Work>
  </rdf:RDF>
 </metadata>
 <defs>
  <style type="text/css">*{stroke-linejoin: round; stroke-linecap: butt}</style>
 </defs>
 <g id="figure_1">
  <g id="patch_1">
   <path d="M 0 648 
L 1152 648 
L 1152 0 
L 0 0 
L 0 648 
z
" style="fill: none"/>
  </g>
  <g id="axes_1"/>
  <g id="axes_2">
   <g id="patch_2">
    <path d="M 144 567 
L 1036.8 567 
L 1036.8 77.76 
L 144 77.76 
z
" style="fill: #ffffff"/>
   </g>
   <g id="patch_3">
    <path d="M 689.245714 488.629097 
L 721.131429 488.629097 
L 721.131429 484.346534 
L 689.245714 484.346534 
L 689.245714 488.629097 
z
" clip-path="url(#p2682fce08a)" style="fill: none; stroke: #000000; stroke-linejoin: miter"/>
   </g>
   <g id="patch_4">
    <path d="M 714.116571 340.966324 
L 746.002286 340.966324 
L 746.002286 336.683761 
L 714.116571 336.683761 
L 714.116571 340.966324 
z
" clip-path="url(#p2682fce08a)" style="fill: none; stroke: #000000; stroke-linejoin: miter"/>
   </g>
   <g id="patch_5">
    <path d="M 864.617143 142.940609 
L 896.502857 142.940609 
L 896.502857 138.658046 
L 864.617143 138.658046 
L 864.617143 142.940609 
z
" clip-path="url(#p2682fce08a)" style="fill: none; stroke: #000000; stroke-linejoin: miter"/>
   </g>
   <g id="patch_6">
    <path d="M 726.552 564.430462 
L 758.437714 564.430462 
L 758.437714 560.147899 
L 726.552 560.147899 
L 726.552 564.430462 
z
" clip-path="url(#p2682fce08a)" style="fill: none; stroke: #000000; stroke-linejoin: miter"/>
   </g>
   <g id="patch_7">
    <path d="M 738.030857 410.515147 
L 769.916571 410.515147 
L 769.916571 406.232584 
L 738.030857 406.232584 
L 738.030857 410.515147 
z
" clip-path="url(#p2682fce08a)" style="fill: none; stroke: #000000; stroke-linejoin: miter"/>
   </g>
   <g id="patch_8">
    <path d="M 529.817143 487.772584 
L 561.702857 487.772584 
L 561.702857 483.490021 
L 529.817143 483.490021 
L 529.817143 487.772584 
z
" clip-path="url(#p2682fce08a)" style="fill: none; stroke: #000000; stroke-linejoin: miter"/>
   </g>
   <g id="patch_9">
    <path d="M 937.316571 347.304517 
L 969.202286 347.304517 
L 969.202286 343.021954 
L 937.316571 343.021954 
L 937.316571 347.304517 
z
" clip-path="url(#p2682fce08a)" style="fill: none; stroke: #000000; stroke-linejoin: miter"/>
   </g>
   <g id="patch_10">
    <path d="M 628.344 505.673697 
L 660.229714 505.673697 
L 660.229714 501.391134 
L 628.344 501.391134 
L 628.344 505.673697 
z
" clip-path="url(#p2682fce08a)" style="fill: none; stroke: #000000; stroke-linejoin: miter"/>
   </g>
   <g id="patch_11">
    <path d="M 470.509714 507.729328 
L 502.395429 507.729328 
L 502.395429 503.446765 
L 470.509714 503.446765 
L 470.509714 507.729328 
z
" clip-path="url(#p2682fce08a)" style="fill: none; stroke: #000000; stroke-linejoin: miter"/>
   </g>
   <g id="patch_12">
    <path d="M 614.314286 528.028676 
L 646.2 528.028676 
L 646.2 523.746113 
L 614.314286 523.746113 
L 614.314286 528.028676 
z
" clip-path="url(#p2682fce08a)" style="fill: none; stroke: #000000; stroke-linejoin: miter"/>
   </g>
   <g id="patch_13">
    <path d="M 914.04 287.605588 
L 945.925714 287.605588 
L 945.925714 283.323025 
L 914.04 283.323025 
L 914.04 287.605588 
z
" clip-path="url(#p2682fce08a)" style="fill: none; stroke: #000000; stroke-linejoin: miter"/>
   </g>
   <g id="patch_14">
    <path d="M 662.142857 515.609244 
L 694.028571 515.609244 
L 694.028571 511.326681 
L 662.142857 511.326681 
L 662.142857 515.609244 
z
" clip-path="url(#p2682fce08a)" style="fill: none; stroke: #000000; stroke-linejoin: miter"/>
   </g>
   <g id="patch_15">
    <path d="M 580.196571 470.385378 
L 612.082286 470.385378 
L 612.082286 466.102815 
L 580.196571 466.102815 
L 580.196571 470.385378 
z
" clip-path="url(#p2682fce08a)" style="fill: none; stroke: #000000; stroke-linejoin: miter"/>
   </g>
   <g id="patch_16">
    <path d="M 459.668571 335.827248 
L 491.554286 335.827248 
L 491.554286 331.544685 
L 459.668571 331.544685 
L 459.668571 335.827248 
z
" clip-path="url(#p2682fce08a)" style="fill: none; stroke: #000000; stroke-linejoin: miter"/>
   </g>
   <g id="patch_17">
    <path d="M 548.629714 341.39458 
L 580.515429 341.39458 
L 580.515429 337.112017 
L 548.629714 337.112017 
L 548.629714 341.39458 
z
" clip-path="url(#p2682fce08a)" style="fill: none; stroke: #000000; stroke-linejoin: miter"/>
   </g>
   <g id="patch_18">
    <path d="M 656.403429 488.029538 
L 688.289143 488.029538 
L 688.289143 483.746975 
L 656.403429 483.746975 
L 656.403429 488.029538 
z
" clip-path="url(#p2682fce08a)" style="fill: none; stroke: #000000; stroke-linejoin: miter"/>
   </g>
   <g id="patch_19">
    <path d="M 198.843429 489.485609 
L 230.729143 489.485609 
L 230.729143 485.203046 
L 198.843429 485.203046 
L 198.843429 489.485609 
z
" clip-path="url(#p2682fce08a)" style="fill: none; stroke: #000000; stroke-linejoin: miter"/>
   </g>
   <g id="patch_20">
    <path d="M 890.763429 148.850546 
L 922.649143 148.850546 
L 922.649143 144.567983 
L 890.763429 144.567983 
L 890.763429 148.850546 
z
" clip-path="url(#p2682fce08a)" style="fill: none; stroke: #000000; stroke-linejoin: miter"/>
   </g>
   <g id="patch_21">
    <path d="M 699.449143 131.120735 
L 731.334857 131.120735 
L 731.334857 126.838172 
L 699.449143 126.838172 
L 699.449143 131.120735 
z
" clip-path="url(#p2682fce08a)" style="fill: none; stroke: #000000; stroke-linejoin: miter"/>
   </g>
   <g id="patch_22">
    <path d="M 342.329143 469.785819 
L 374.214857 469.785819 
L 374.214857 465.503256 
L 342.329143 465.503256 
L 342.329143 469.785819 
z
" clip-path="url(#p2682fce08a)" style="fill: none; stroke: #000000; stroke-linejoin: miter"/>
   </g>
   <g id="patch_23">
    <path d="M 780.438857 411.628613 
L 812.324571 411.628613 
L 812.324571 407.34605 
L 780.438857 407.34605 
L 780.438857 411.628613 
z
" clip-path="url(#p2682fce08a)" style="fill: none; stroke: #000000; stroke-linejoin: miter"/>
   </g>
   <g id="patch_24">
    <path d="M 729.421714 427.131492 
L 761.307429 427.131492 
L 761.307429 422.848929 
L 729.421714 422.848929 
L 729.421714 427.131492 
z
" clip-path="url(#p2682fce08a)" style="fill: none; stroke: #000000; stroke-linejoin: miter"/>
   </g>
   <g id="patch_25">
    <path d="M 810.411429 347.647122 
L 842.297143 347.647122 
L 842.297143 343.364559 
L 810.411429 343.364559 
L 810.411429 347.647122 
z
" clip-path="url(#p2682fce08a)" style="fill: none; stroke: #000000; stroke-linejoin: miter"/>
   </g>
   <g id="patch_26">
    <path d="M 781.076571 524.85958 
L 812.962286 524.85958 
L 812.962286 520.577017 
L 781.076571 520.577017 
L 781.076571 524.85958 
z
" clip-path="url(#p2682fce08a)" style="fill: none; stroke: #000000; stroke-linejoin: miter"/>
   </g>
   <g id="patch_27">
    <path d="M 733.885714 384.22021 
L 765.771429 384.22021 
L 765.771429 379.937647 
L 733.885714 379.937647 
L 733.885714 384.22021 
z
" clip-path="url(#p2682fce08a)" style="fill: none; stroke: #000000; stroke-linejoin: miter"/>
   </g>
   <g id="patch_28">
    <path d="M 671.708571 553.724055 
L 703.594286 553.724055 
L 703.594286 549.441492 
L 671.708571 549.441492 
L 671.708571 553.724055 
z
" clip-path="url(#p2682fce08a)" style="fill: none; stroke: #000000; stroke-linejoin: miter"/>
   </g>
   <g id="patch_29">
    <path d="M 586.892571 515.35229 
L 618.778286 515.35229 
L 618.778286 511.069727 
L 586.892571 511.069727 
L 586.892571 515.35229 
z
" clip-path="url(#p2682fce08a)" style="fill: none; stroke: #000000; stroke-linejoin: miter"/>
   </g>
   <g id="patch_30">
    <path d="M 681.274286 497.279874 
L 713.16 497.279874 
L 713.16 492.997311 
L 681.274286 492.997311 
L 681.274286 497.279874 
z
" clip-path="url(#p2682fce08a)" style="fill: none; stroke: #000000; stroke-linejoin: miter"/>
   </g>
   <g id="patch_31">
    <path d="M 815.832 161.612584 
L 847.717714 161.612584 
L 847.717714 157.330021 
L 815.832 157.330021 
L 815.832 161.612584 
z
" clip-path="url(#p2682fce08a)" style="fill: none; stroke: #000000; stroke-linejoin: miter"/>
   </g>
   <g id="patch_32">
    <path d="M 384.737143 343.107605 
L 416.622857 343.107605 
L 416.622857 338.825042 
L 384.737143 338.825042 
L 384.737143 343.107605 
z
" clip-path="url(#p2682fce08a)" style="fill: none; stroke: #000000; stroke-linejoin: miter"/>
   </g>
   <g id="patch_33">
    <path d="M 612.082286 425.418466 
L 643.968 425.418466 
L 643.968 421.135903 
L 612.082286 421.135903 
L 612.082286 425.418466 
z
" clip-path="url(#p2682fce08a)" style="fill: none; stroke: #000000; stroke-linejoin: miter"/>
   </g>
   <g id="patch_34">
    <path d="M 297.370286 344.221071 
L 329.256 344.221071 
L 329.256 339.938508 
L 297.370286 339.938508 
L 297.370286 344.221071 
z
" clip-path="url(#p2682fce08a)" style="fill: none; stroke: #000000; stroke-linejoin: miter"/>
   </g>
   <g id="patch_35">
    <path d="M 378.36 396.725294 
L 410.245714 396.725294 
L 410.245714 392.442731 
L 378.36 392.442731 
L 378.36 396.725294 
z
" clip-path="url(#p2682fce08a)" style="fill: none; stroke: #000000; stroke-linejoin: miter"/>
   </g>
   <g id="patch_36">
    <path d="M 917.866286 120.58563 
L 949.752 120.58563 
L 949.752 116.303067 
L 917.866286 116.303067 
L 917.866286 120.58563 
z
" clip-path="url(#p2682fce08a)" style="fill: none; stroke: #000000; stroke-linejoin: miter"/>
   </g>
   <g id="patch_37">
    <path d="M 842.934857 339.938508 
L 874.820571 339.938508 
L 874.820571 335.655945 
L 842.934857 335.655945 
L 842.934857 339.938508 
z
" clip-path="url(#p2682fce08a)" style="fill: none; stroke: #000000; stroke-linejoin: miter"/>
   </g>
   <g id="patch_38">
    <path d="M 329.893714 466.102815 
L 361.779429 466.102815 
L 361.779429 461.820252 
L 329.893714 461.820252 
L 329.893714 466.102815 
z
" clip-path="url(#p2682fce08a)" style="fill: none; stroke: #000000; stroke-linejoin: miter"/>
   </g>
   <g id="patch_39">
    <path d="M 721.450286 530.769517 
L 753.336 530.769517 
L 753.336 526.486954 
L 721.450286 526.486954 
L 721.450286 530.769517 
z
" clip-path="url(#p2682fce08a)" style="fill: none; stroke: #000000; stroke-linejoin: miter"/>
   </g>
   <g id="patch_40">
    <path d="M 619.097143 496.509013 
L 650.982857 496.509013 
L 650.982857 492.22645 
L 619.097143 492.22645 
L 619.097143 496.509013 
z
" clip-path="url(#p2682fce08a)" style="fill: none; stroke: #000000; stroke-linejoin: miter"/>
   </g>
   <g id="patch_41">
    <path d="M 410.245714 363.15 
L 442.131429 363.15 
L 442.131429 358.867437 
L 410.245714 358.867437 
L 410.245714 363.15 
z
" clip-path="url(#p2682fce08a)" style="fill: none; stroke: #000000; stroke-linejoin: miter"/>
   </g>
   <g id="patch_42">
    <path d="M 703.913143 194.673971 
L 735.798857 194.673971 
L 735.798857 190.391408 
L 703.913143 190.391408 
L 703.913143 194.673971 
z
" clip-path="url(#p2682fce08a)" style="fill: none; stroke: #000000; stroke-linejoin: miter"/>
   </g>
   <g id="patch_43">
    <path d="M 405.781714 429.358424 
L 437.667429 429.358424 
L 437.667429 425.075861 
L 405.781714 425.075861 
L 405.781714 429.358424 
z
" clip-path="url(#p2682fce08a)" style="fill: none; stroke: #000000; stroke-linejoin: miter"/>
   </g>
   <g id="patch_44">
    <path d="M 439.261714 419.594181 
L 471.147429 419.594181 
L 471.147429 415.311618 
L 439.261714 415.311618 
L 439.261714 419.594181 
z
" clip-path="url(#p2682fce08a)" style="fill: none; stroke: #000000; stroke-linejoin: miter"/>
   </g>
   <g id="patch_45">
    <path d="M 531.730286 357.925273 
L 563.616 357.925273 
L 563.616 353.64271 
L 531.730286 353.64271 
L 531.730286 357.925273 
z
" clip-path="url(#p2682fce08a)" style="fill: none; stroke: #000000; stroke-linejoin: miter"/>
   </g>
   <g id="patch_46">
    <path d="M 374.214857 224.651912 
L 406.100571 224.651912 
L 406.100571 220.369349 
L 374.214857 220.369349 
L 374.214857 224.651912 
z
" clip-path="url(#p2682fce08a)" style="fill: none; stroke: #000000; stroke-linejoin: miter"/>
   </g>
   <g id="patch_47">
    <path d="M 563.934857 284.265189 
L 595.820571 284.265189 
L 595.820571 279.982626 
L 563.934857 279.982626 
L 563.934857 284.265189 
z
" clip-path="url(#p2682fce08a)" style="fill: none; stroke: #000000; stroke-linejoin: miter"/>
   </g>
   <g id="patch_48">
    <path d="M 629.619429 538.992038 
L 661.505143 538.992038 
L 661.505143 534.709475 
L 629.619429 534.709475 
L 629.619429 538.992038 
z
" clip-path="url(#p2682fce08a)" style="fill: none; stroke: #000000; stroke-linejoin: miter"/>
   </g>
   <g id="patch_49">
    <path d="M 805.947429 445.974769 
L 837.833143 445.974769 
L 837.833143 441.692206 
L 805.947429 441.692206 
L 805.947429 445.974769 
z
" clip-path="url(#p2682fce08a)" style="fill: none; stroke: #000000; stroke-linejoin: miter"/>
   </g>
   <g id="patch_50">
    <path d="M 770.554286 499.506807 
L 802.44 499.506807 
L 802.44 495.224244 
L 770.554286 495.224244 
L 770.554286 499.506807 
z
" clip-path="url(#p2682fce08a)" style="fill: none; stroke: #000000; stroke-linejoin: miter"/>
   </g>
   <g id="patch_51">
    <path d="M 591.994286 355.69834 
L 623.88 355.69834 
L 623.88 351.415777 
L 591.994286 351.415777 
L 591.994286 355.69834 
z
" clip-path="url(#p2682fce08a)" style="fill: none; stroke: #000000; stroke-linejoin: miter"/>
   </g>
   <g id="patch_52">
    <path d="M 674.897143 459.593319 
L 706.782857 459.593319 
L 706.782857 455.310756 
L 674.897143 455.310756 
L 674.897143 459.593319 
z
" clip-path="url(#p2682fce08a)" style="fill: none; stroke: #000000; stroke-linejoin: miter"/>
   </g>
   <g id="patch_53">
    <path d="M 444.682286 373.856408 
L 476.568 373.856408 
L 476.568 369.573845 
L 444.682286 369.573845 
L 444.682286 373.856408 
z
" clip-path="url(#p2682fce08a)" style="fill: none; stroke: #000000; stroke-linejoin: miter"/>
   </g>
   <g id="patch_54">
    <path d="M 637.272 430.728845 
L 669.157714 430.728845 
L 669.157714 426.446282 
L 637.272 426.446282 
L 637.272 430.728845 
z
" clip-path="url(#p2682fce08a)" style="fill: none; stroke: #000000; stroke-linejoin: miter"/>
   </g>
   <g id="patch_55">
    <path d="M 238.062857 473.21187 
L 269.948571 473.21187 
L 269.948571 468.929307 
L 238.062857 468.929307 
L 238.062857 473.21187 
z
" clip-path="url(#p2682fce08a)" style="fill: none; stroke: #000000; stroke-linejoin: miter"/>
   </g>
   <g id="patch_56">
    <path d="M 349.662857 457.537689 
L 381.548571 457.537689 
L 381.548571 453.255126 
L 349.662857 453.255126 
L 349.662857 457.537689 
z
" clip-path="url(#p2682fce08a)" style="fill: none; stroke: #000000; stroke-linejoin: miter"/>
   </g>
   <g id="patch_57">
    <path d="M 853.138286 126.495567 
L 885.024 126.495567 
L 885.024 122.213004 
L 853.138286 122.213004 
L 853.138286 126.495567 
z
" clip-path="url(#p2682fce08a)" style="fill: none; stroke: #000000; stroke-linejoin: miter"/>
   </g>
   <g id="patch_58">
    <path d="M 719.537143 522.889601 
L 751.422857 522.889601 
L 751.422857 518.607038 
L 719.537143 518.607038 
L 719.537143 522.889601 
z
" clip-path="url(#p2682fce08a)" style="fill: none; stroke: #000000; stroke-linejoin: miter"/>
   </g>
   <g id="patch_59">
    <path d="M 386.331429 474.154034 
L 418.217143 474.154034 
L 418.217143 469.871471 
L 386.331429 469.871471 
L 386.331429 474.154034 
z
" clip-path="url(#p2682fce08a)" style="fill: none; stroke: #000000; stroke-linejoin: miter"/>
   </g>
   <g id="patch_60">
    <path d="M 428.420571 491.198634 
L 460.306286 491.198634 
L 460.306286 486.916071 
L 428.420571 486.916071 
L 428.420571 491.198634 
z
" clip-path="url(#p2682fce08a)" style="fill: none; stroke: #000000; stroke-linejoin: miter"/>
   </g>
   <g id="patch_61">
    <path d="M 685.738286 535.394685 
L 717.624 535.394685 
L 717.624 531.112122 
L 685.738286 531.112122 
L 685.738286 535.394685 
z
" clip-path="url(#p2682fce08a)" style="fill: none; stroke: #000000; stroke-linejoin: miter"/>
   </g>
   <g id="patch_62">
    <path d="M 557.238857 140.542374 
L 589.124571 140.542374 
L 589.124571 136.259811 
L 557.238857 136.259811 
L 557.238857 140.542374 
z
" clip-path="url(#p2682fce08a)" style="fill: none; stroke: #000000; stroke-linejoin: miter"/>
   </g>
   <g id="patch_63">
    <path d="M 798.294857 407.945609 
L 830.180571 407.945609 
L 830.180571 403.663046 
L 798.294857 403.663046 
L 798.294857 407.945609 
z
" clip-path="url(#p2682fce08a)" style="fill: none; stroke: #000000; stroke-linejoin: miter"/>
   </g>
   <g id="patch_64">
    <path d="M 633.764571 484.603487 
L 665.650286 484.603487 
L 665.650286 480.320924 
L 633.764571 480.320924 
L 633.764571 484.603487 
z
" clip-path="url(#p2682fce08a)" style="fill: none; stroke: #000000; stroke-linejoin: miter"/>
   </g>
   <g id="patch_65">
    <path d="M 673.940571 295.314202 
L 705.826286 295.314202 
L 705.826286 291.031639 
L 673.940571 291.031639 
L 673.940571 295.314202 
z
" clip-path="url(#p2682fce08a)" style="fill: none; stroke: #000000; stroke-linejoin: miter"/>
   </g>
   <g id="patch_66">
    <path d="M 595.182857 502.161996 
L 627.068571 502.161996 
L 627.068571 497.879433 
L 595.182857 497.879433 
L 595.182857 502.161996 
z
" clip-path="url(#p2682fce08a)" style="fill: none; stroke: #000000; stroke-linejoin: miter"/>
   </g>
   <g id="patch_67">
    <path d="M 619.734857 457.280735 
L 651.620571 457.280735 
L 651.620571 452.998172 
L 619.734857 452.998172 
L 619.734857 457.280735 
z
" clip-path="url(#p2682fce08a)" style="fill: none; stroke: #000000; stroke-linejoin: miter"/>
   </g>
   <g id="patch_68">
    <path d="M 565.529143 380.365903 
L 597.414857 380.365903 
L 597.414857 376.08334 
L 565.529143 376.08334 
L 565.529143 380.365903 
z
" clip-path="url(#p2682fce08a)" style="fill: none; stroke: #000000; stroke-linejoin: miter"/>
   </g>
   <g id="patch_69">
    <path d="M 721.131429 557.664013 
L 753.017143 557.664013 
L 753.017143 553.38145 
L 721.131429 553.38145 
L 721.131429 557.664013 
z
" clip-path="url(#p2682fce08a)" style="fill: none; stroke: #000000; stroke-linejoin: miter"/>
   </g>
   <g id="patch_70">
    <path d="M 647.794286 411.542962 
L 679.68 411.542962 
L 679.68 407.260399 
L 647.794286 407.260399 
L 647.794286 411.542962 
z
" clip-path="url(#p2682fce08a)" style="fill: none; stroke: #000000; stroke-linejoin: miter"/>
   </g>
   <g id="patch_71">
    <path d="M 898.734857 169.4925 
L 930.620571 169.4925 
L 930.620571 165.209937 
L 898.734857 165.209937 
L 898.734857 169.4925 
z
" clip-path="url(#p2682fce08a)" style="fill: none; stroke: #000000; stroke-linejoin: miter"/>
   </g>
   <g id="patch_72">
    <path d="M 675.853714 440.664391 
L 707.739429 440.664391 
L 707.739429 436.381828 
L 675.853714 436.381828 
L 675.853714 440.664391 
z
" clip-path="url(#p2682fce08a)" style="fill: none; stroke: #000000; stroke-linejoin: miter"/>
   </g>
   <g id="patch_73">
    <path d="M 735.161143 346.619307 
L 767.046857 346.619307 
L 767.046857 342.336744 
L 735.161143 342.336744 
L 735.161143 346.619307 
z
" clip-path="url(#p2682fce08a)" style="fill: none; stroke: #000000; stroke-linejoin: miter"/>
   </g>
   <g id="patch_74">
    <path d="M 733.566857 353.814013 
L 765.452571 353.814013 
L 765.452571 349.53145 
L 733.566857 349.53145 
L 733.566857 353.814013 
z
" clip-path="url(#p2682fce08a)" style="fill: none; stroke: #000000; stroke-linejoin: miter"/>
   </g>
   <g id="patch_75">
    <path d="M 383.461714 372.143382 
L 415.347429 372.143382 
L 415.347429 367.860819 
L 383.461714 367.860819 
L 383.461714 372.143382 
z
" clip-path="url(#p2682fce08a)" style="fill: none; stroke: #000000; stroke-linejoin: miter"/>
   </g>
   <g id="patch_76">
    <path d="M 419.492571 347.647122 
L 451.378286 347.647122 
L 451.378286 343.364559 
L 419.492571 343.364559 
L 419.492571 347.647122 
z
" clip-path="url(#p2682fce08a)" style="fill: none; stroke: #000000; stroke-linejoin: miter"/>
   </g>
   <g id="patch_77">
    <path d="M 775.337143 258.998067 
L 807.222857 258.998067 
L 807.222857 254.715504 
L 775.337143 254.715504 
L 775.337143 258.998067 
z
" clip-path="url(#p2682fce08a)" style="fill: none; stroke: #000000; stroke-linejoin: miter"/>
   </g>
   <g id="patch_78">
    <path d="M 470.190857 351.330126 
L 502.076571 351.330126 
L 502.076571 347.047563 
L 470.190857 347.047563 
L 470.190857 351.330126 
z
" clip-path="url(#p2682fce08a)" style="fill: none; stroke: #000000; stroke-linejoin: miter"/>
   </g>
   <g id="patch_79">
    <path d="M 412.477714 434.069244 
L 444.363429 434.069244 
L 444.363429 429.786681 
L 412.477714 429.786681 
L 412.477714 434.069244 
z
" clip-path="url(#p2682fce08a)" style="fill: none; stroke: #000000; stroke-linejoin: miter"/>
   </g>
   <g id="patch_80">
    <path d="M 613.038857 380.879811 
L 644.924571 380.879811 
L 644.924571 376.597248 
L 613.038857 376.597248 
L 613.038857 380.879811 
z
" clip-path="url(#p2682fce08a)" style="fill: none; stroke: #000000; stroke-linejoin: miter"/>
   </g>
   <g id="patch_81">
    <path d="M 896.502857 127.35208 
L 928.388571 127.35208 
L 928.388571 123.069517 
L 896.502857 123.069517 
L 896.502857 127.35208 
z
" clip-path="url(#p2682fce08a)" style="fill: none; stroke: #000000; stroke-linejoin: miter"/>
   </g>
   <g id="patch_82">
    <path d="M 667.244571 531.283424 
L 699.130286 531.283424 
L 699.130286 527.000861 
L 667.244571 527.000861 
L 667.244571 531.283424 
z
" clip-path="url(#p2682fce08a)" style="fill: none; stroke: #000000; stroke-linejoin: miter"/>
   </g>
   <g id="patch_83">
    <path d="M 681.912 287.262983 
L 713.797714 287.262983 
L 713.797714 282.98042 
L 681.912 282.98042 
L 681.912 287.262983 
z
" clip-path="url(#p2682fce08a)" style="fill: none; stroke: #000000; stroke-linejoin: miter"/>
   </g>
   <g id="patch_84">
    <path d="M 744.089143 541.732878 
L 775.974857 541.732878 
L 775.974857 537.450315 
L 744.089143 537.450315 
L 744.089143 541.732878 
z
" clip-path="url(#p2682fce08a)" style="fill: none; stroke: #000000; stroke-linejoin: miter"/>
   </g>
   <g id="patch_85">
    <path d="M 401.636571 484.860441 
L 433.522286 484.860441 
L 433.522286 480.577878 
L 401.636571 480.577878 
L 401.636571 484.860441 
z
" clip-path="url(#p2682fce08a)" style="fill: none; stroke: #000000; stroke-linejoin: miter"/>
   </g>
   <g id="patch_86">
    <path d="M 829.224 452.655567 
L 861.109714 452.655567 
L 861.109714 448.373004 
L 829.224 448.373004 
L 829.224 452.655567 
z
" clip-path="url(#p2682fce08a)" style="fill: none; stroke: #000000; stroke-linejoin: miter"/>
   </g>
   <g id="patch_87">
    <path d="M 250.498286 468.244097 
L 282.384 468.244097 
L 282.384 463.961534 
L 250.498286 463.961534 
L 250.498286 468.244097 
z
" clip-path="url(#p2682fce08a)" style="fill: none; stroke: #000000; stroke-linejoin: miter"/>
   </g>
   <g id="patch_88">
    <path d="M 572.544 124.011681 
L 604.429714 124.011681 
L 604.429714 119.729118 
L 572.544 119.729118 
L 572.544 124.011681 
z
" clip-path="url(#p2682fce08a)" style="fill: none; stroke: #000000; stroke-linejoin: miter"/>
   </g>
   <g id="patch_89">
    <path d="M 484.539429 267.648845 
L 516.425143 267.648845 
L 516.425143 263.366282 
L 484.539429 263.366282 
L 484.539429 267.648845 
z
" clip-path="url(#p2682fce08a)" style="fill: none; stroke: #000000; stroke-linejoin: miter"/>
   </g>
   <g id="patch_90">
    <path d="M 476.249143 154.160924 
L 508.134857 154.160924 
L 508.134857 149.878361 
L 476.249143 149.878361 
L 476.249143 154.160924 
z
" clip-path="url(#p2682fce08a)" style="fill: none; stroke: #000000; stroke-linejoin: miter"/>
   </g>
   <g id="patch_91">
    <path d="M 455.204571 165.552542 
L 487.090286 165.552542 
L 487.090286 161.269979 
L 455.204571 161.269979 
L 455.204571 165.552542 
z
" clip-path="url(#p2682fce08a)" style="fill: none; stroke: #000000; stroke-linejoin: miter"/>
   </g>
   <g id="patch_92">
    <path d="M 537.469714 131.206387 
L 569.355429 131.206387 
L 569.355429 126.923824 
L 537.469714 126.923824 
L 537.469714 131.206387 
z
" clip-path="url(#p2682fce08a)" style="fill: none; stroke: #000000; stroke-linejoin: miter"/>
   </g>
   <g id="patch_93">
    <path d="M 583.385143 130.863782 
L 615.270857 130.863782 
L 615.270857 126.581218 
L 583.385143 126.581218 
L 583.385143 130.863782 
z
" clip-path="url(#p2682fce08a)" style="fill: none; stroke: #000000; stroke-linejoin: miter"/>
   </g>
   <g id="patch_94">
    <path d="M 668.52 466.702374 
L 700.405714 466.702374 
L 700.405714 462.419811 
L 668.52 462.419811 
L 668.52 466.702374 
z
" clip-path="url(#p2682fce08a)" style="fill: none; stroke: #000000; stroke-linejoin: miter"/>
   </g>
   <g id="patch_95">
    <path d="M 421.724571 176.001996 
L 453.610286 176.001996 
L 453.610286 171.719433 
L 421.724571 171.719433 
L 421.724571 176.001996 
z
" clip-path="url(#p2682fce08a)" style="fill: none; stroke: #000000; stroke-linejoin: miter"/>
   </g>
   <g id="patch_96">
    <path d="M 434.478857 170.349013 
L 466.364571 170.349013 
L 466.364571 166.06645 
L 434.478857 166.06645 
L 434.478857 170.349013 
z
" clip-path="url(#p2682fce08a)" style="fill: none; stroke: #000000; stroke-linejoin: miter"/>
   </g>
   <g id="patch_97">
    <path d="M 316.820571 331.459034 
L 348.706286 331.459034 
L 348.706286 327.176471 
L 316.820571 327.176471 
L 316.820571 331.459034 
z
" clip-path="url(#p2682fce08a)" style="fill: none; stroke: #000000; stroke-linejoin: miter"/>
   </g>
   <g id="patch_98">
    <path d="M 349.981714 319.125252 
L 381.867429 319.125252 
L 381.867429 314.842689 
L 349.981714 314.842689 
L 349.981714 319.125252 
z
" clip-path="url(#p2682fce08a)" style="fill: none; stroke: #000000; stroke-linejoin: miter"/>
   </g>
   <g id="patch_99">
    <path d="M 646.518857 216.857647 
L 678.404571 216.857647 
L 678.404571 212.575084 
L 646.518857 212.575084 
L 646.518857 216.857647 
z
" clip-path="url(#p2682fce08a)" style="fill: none; stroke: #000000; stroke-linejoin: miter"/>
   </g>
   <g id="patch_100">
    <path d="M 570.312 531.882983 
L 602.197714 531.882983 
L 602.197714 527.60042 
L 570.312 527.60042 
L 570.312 531.882983 
z
" clip-path="url(#p2682fce08a)" style="fill: none; stroke: #000000; stroke-linejoin: miter"/>
   </g>
   <g id="patch_101">
    <path d="M 516.106286 137.458929 
L 547.992 137.458929 
L 547.992 133.176366 
L 516.106286 133.176366 
L 516.106286 137.458929 
z
" clip-path="url(#p2682fce08a)" style="fill: none; stroke: #000000; stroke-linejoin: miter"/>
   </g>
   <g id="patch_102">
    <path d="M 585.298286 339.081996 
L 617.184 339.081996 
L 617.184 334.799433 
L 585.298286 334.799433 
L 585.298286 339.081996 
z
" clip-path="url(#p2682fce08a)" style="fill: none; stroke: #000000; stroke-linejoin: miter"/>
   </g>
   <g id="patch_103">
    <path d="M 575.413714 267.220588 
L 607.299429 267.220588 
L 607.299429 262.938025 
L 575.413714 262.938025 
L 575.413714 267.220588 
z
" clip-path="url(#p2682fce08a)" style="fill: none; stroke: #000000; stroke-linejoin: miter"/>
   </g>
   <g id="patch_104">
    <path d="M 811.686857 121.356492 
L 843.572571 121.356492 
L 843.572571 117.073929 
L 811.686857 117.073929 
L 811.686857 121.356492 
z
" clip-path="url(#p2682fce08a)" style="fill: none; stroke: #000000; stroke-linejoin: miter"/>
   </g>
   <g id="patch_105">
    <path d="M 812.005714 381.993277 
L 843.891429 381.993277 
L 843.891429 377.710714 
L 812.005714 377.710714 
L 812.005714 381.993277 
z
" clip-path="url(#p2682fce08a)" style="fill: none; stroke: #000000; stroke-linejoin: miter"/>
   </g>
   <g id="patch_106">
    <path d="M 578.283429 406.917794 
L 610.169143 406.917794 
L 610.169143 402.635231 
L 578.283429 402.635231 
L 578.283429 406.917794 
z
" clip-path="url(#p2682fce08a)" style="fill: none; stroke: #000000; stroke-linejoin: miter"/>
   </g>
   <g id="patch_107">
    <path d="M 646.837714 362.807395 
L 678.723429 362.807395 
L 678.723429 358.524832 
L 646.837714 358.524832 
L 646.837714 362.807395 
z
" clip-path="url(#p2682fce08a)" style="fill: none; stroke: #000000; stroke-linejoin: miter"/>
   </g>
   <g id="patch_108">
    <path d="M 721.131429 438.694412 
L 753.017143 438.694412 
L 753.017143 434.411849 
L 721.131429 434.411849 
L 721.131429 438.694412 
z
" clip-path="url(#p2682fce08a)" style="fill: none; stroke: #000000; stroke-linejoin: miter"/>
   </g>
   <g id="patch_109">
    <path d="M 795.106286 562.546134 
L 826.992 562.546134 
L 826.992 558.263571 
L 795.106286 558.263571 
L 795.106286 562.546134 
z
" clip-path="url(#p2682fce08a)" style="fill: none; stroke: #000000; stroke-linejoin: miter"/>
   </g>
   <g id="patch_110">
    <path d="M 831.774857 372.828592 
L 863.660571 372.828592 
L 863.660571 368.546029 
L 831.774857 368.546029 
L 831.774857 372.828592 
z
" clip-path="url(#p2682fce08a)" style="fill: none; stroke: #000000; stroke-linejoin: miter"/>
   </g>
   <g id="patch_111">
    <path d="M 331.806857 482.890462 
L 363.692571 482.890462 
L 363.692571 478.607899 
L 331.806857 478.607899 
L 331.806857 482.890462 
z
" clip-path="url(#p2682fce08a)" style="fill: none; stroke: #000000; stroke-linejoin: miter"/>
   </g>
   <g id="patch_112">
    <path d="M 763.539429 456.167269 
L 795.425143 456.167269 
L 795.425143 451.884706 
L 763.539429 451.884706 
L 763.539429 456.167269 
z
" clip-path="url(#p2682fce08a)" style="fill: none; stroke: #000000; stroke-linejoin: miter"/>
   </g>
   <g id="patch_113">
    <path d="M 609.212571 138.829349 
L 641.098286 138.829349 
L 641.098286 134.546786 
L 609.212571 134.546786 
L 609.212571 138.829349 
z
" clip-path="url(#p2682fce08a)" style="fill: none; stroke: #000000; stroke-linejoin: miter"/>
   </g>
   <g id="patch_114">
    <path d="M 737.393143 550.126702 
L 769.278857 550.126702 
L 769.278857 545.844139 
L 737.393143 545.844139 
L 737.393143 550.126702 
z
" clip-path="url(#p2682fce08a)" style="fill: none; stroke: #000000; stroke-linejoin: miter"/>
   </g>
   <g id="patch_115">
    <path d="M 443.725714 279.811324 
L 475.611429 279.811324 
L 475.611429 275.528761 
L 443.725714 275.528761 
L 443.725714 279.811324 
z
" clip-path="url(#p2682fce08a)" style="fill: none; stroke: #000000; stroke-linejoin: miter"/>
   </g>
   <g id="patch_116">
    <path d="M 524.715429 508.757143 
L 556.601143 508.757143 
L 556.601143 504.47458 
L 524.715429 504.47458 
L 524.715429 508.757143 
z
" clip-path="url(#p2682fce08a)" style="fill: none; stroke: #000000; stroke-linejoin: miter"/>
   </g>
   <g id="patch_117">
    <path d="M 672.984 243.837794 
L 704.869714 243.837794 
L 704.869714 239.555231 
L 672.984 239.555231 
L 672.984 243.837794 
z
" clip-path="url(#p2682fce08a)" style="fill: none; stroke: #000000; stroke-linejoin: miter"/>
   </g>
   <g id="patch_118">
    <path d="M 694.666286 411.971218 
L 726.552 411.971218 
L 726.552 407.688655 
L 694.666286 407.688655 
L 694.666286 411.971218 
z
" clip-path="url(#p2682fce08a)" style="fill: none; stroke: #000000; stroke-linejoin: miter"/>
   </g>
   <g id="patch_119">
    <path d="M 723.044571 514.66708 
L 754.930286 514.66708 
L 754.930286 510.384517 
L 723.044571 510.384517 
L 723.044571 514.66708 
z
" clip-path="url(#p2682fce08a)" style="fill: none; stroke: #000000; stroke-linejoin: miter"/>
   </g>
   <g id="patch_120">
    <path d="M 782.352 387.474958 
L 814.237714 387.474958 
L 814.237714 383.192395 
L 782.352 383.192395 
L 782.352 387.474958 
z
" clip-path="url(#p2682fce08a)" style="fill: none; stroke: #000000; stroke-linejoin: miter"/>
   </g>
   <g id="patch_121">
    <path d="M 567.123429 494.710336 
L 599.009143 494.710336 
L 599.009143 490.427773 
L 567.123429 490.427773 
L 567.123429 494.710336 
z
" clip-path="url(#p2682fce08a)" style="fill: none; stroke: #000000; stroke-linejoin: miter"/>
   </g>
   <g id="patch_122">
    <path d="M 543.846857 516.0375 
L 575.732571 516.0375 
L 575.732571 511.754937 
L 543.846857 511.754937 
L 543.846857 516.0375 
z
" clip-path="url(#p2682fce08a)" style="fill: none; stroke: #000000; stroke-linejoin: miter"/>
   </g>
   <g id="patch_123">
    <path d="M 648.750857 448.030399 
L 680.636571 448.030399 
L 680.636571 443.747836 
L 648.750857 443.747836 
L 648.750857 448.030399 
z
" clip-path="url(#p2682fce08a)" style="fill: none; stroke: #000000; stroke-linejoin: miter"/>
   </g>
   <g id="patch_124">
    <path d="M 583.066286 219.341534 
L 614.952 219.341534 
L 614.952 215.058971 
L 583.066286 215.058971 
L 583.066286 219.341534 
z
" clip-path="url(#p2682fce08a)" style="fill: none; stroke: #000000; stroke-linejoin: miter"/>
   </g>
   <g id="patch_125">
    <path d="M 834.006857 409.230378 
L 865.892571 409.230378 
L 865.892571 404.947815 
L 834.006857 404.947815 
L 834.006857 409.230378 
z
" clip-path="url(#p2682fce08a)" style="fill: none; stroke: #000000; stroke-linejoin: miter"/>
   </g>
   <g id="patch_126">
    <path d="M 606.980571 153.218761 
L 638.866286 153.218761 
L 638.866286 148.936197 
L 606.980571 148.936197 
L 606.980571 153.218761 
z
" clip-path="url(#p2682fce08a)" style="fill: none; stroke: #000000; stroke-linejoin: miter"/>
   </g>
   <g id="patch_127">
    <path d="M 986.420571 278.783508 
L 1018.306286 278.783508 
L 1018.306286 274.500945 
L 986.420571 274.500945 
L 986.420571 278.783508 
z
" clip-path="url(#p2682fce08a)" style="fill: none; stroke: #000000; stroke-linejoin: miter"/>
   </g>
   <g id="patch_128">
    <path d="M 659.910857 128.122941 
L 691.796571 128.122941 
L 691.796571 123.840378 
L 659.910857 123.840378 
L 659.910857 128.122941 
z
" clip-path="url(#p2682fce08a)" style="fill: none; stroke: #000000; stroke-linejoin: miter"/>
   </g>
   <g id="patch_129">
    <path d="M 664.693714 524.773929 
L 696.579429 524.773929 
L 696.579429 520.491366 
L 664.693714 520.491366 
L 664.693714 524.773929 
z
" clip-path="url(#p2682fce08a)" style="fill: none; stroke: #000000; stroke-linejoin: miter"/>
   </g>
   <g id="patch_130">
    <path d="M 659.273143 479.293109 
L 691.158857 479.293109 
L 691.158857 475.010546 
L 659.273143 475.010546 
L 659.273143 479.293109 
z
" clip-path="url(#p2682fce08a)" style="fill: none; stroke: #000000; stroke-linejoin: miter"/>
   </g>
   <g id="matplotlib.axis_1">
    <g id="xtick_1">
     <g id="line2d_1">
      <defs>
       <path id="m9c072c676e" d="M 0 0 
L 0 3.5 
" style="stroke: #000000; stroke-width: 0.8"/>
      </defs>
      <g>
       <use xlink:href="#m9c072c676e" x="175.885714" y="567" style="stroke: #000000; stroke-width: 0.8"/>
      </g>
     </g>
     <g id="text_1">
      <!-- 2500 -->
      <g transform="translate(163.160714 581.598438)scale(0.1 -0.1)">
       <defs>
        <path id="DejaVuSans-32" d="M 1228 531 
L 3431 531 
L 3431 0 
L 469 0 
L 469 531 
Q 828 903 1448 1529 
Q 2069 2156 2228 2338 
Q 2531 2678 2651 2914 
Q 2772 3150 2772 3378 
Q 2772 3750 2511 3984 
Q 2250 4219 1831 4219 
Q 1534 4219 1204 4116 
Q 875 4013 500 3803 
L 500 4441 
Q 881 4594 1212 4672 
Q 1544 4750 1819 4750 
Q 2544 4750 2975 4387 
Q 3406 4025 3406 3419 
Q 3406 3131 3298 2873 
Q 3191 2616 2906 2266 
Q 2828 2175 2409 1742 
Q 1991 1309 1228 531 
z
" transform="scale(0.015625)"/>
        <path id="DejaVuSans-35" d="M 691 4666 
L 3169 4666 
L 3169 4134 
L 1269 4134 
L 1269 2991 
Q 1406 3038 1543 3061 
Q 1681 3084 1819 3084 
Q 2600 3084 3056 2656 
Q 3513 2228 3513 1497 
Q 3513 744 3044 326 
Q 2575 -91 1722 -91 
Q 1428 -91 1123 -41 
Q 819 9 494 109 
L 494 744 
Q 775 591 1075 516 
Q 1375 441 1709 441 
Q 2250 441 2565 725 
Q 2881 1009 2881 1497 
Q 2881 1984 2565 2268 
Q 2250 2553 1709 2553 
Q 1456 2553 1204 2497 
Q 953 2441 691 2322 
L 691 4666 
z
" transform="scale(0.015625)"/>
        <path id="DejaVuSans-30" d="M 2034 4250 
Q 1547 4250 1301 3770 
Q 1056 3291 1056 2328 
Q 1056 1369 1301 889 
Q 1547 409 2034 409 
Q 2525 409 2770 889 
Q 3016 1369 3016 2328 
Q 3016 3291 2770 3770 
Q 2525 4250 2034 4250 
z
M 2034 4750 
Q 2819 4750 3233 4129 
Q 3647 3509 3647 2328 
Q 3647 1150 3233 529 
Q 2819 -91 2034 -91 
Q 1250 -91 836 529 
Q 422 1150 422 2328 
Q 422 3509 836 4129 
Q 1250 4750 2034 4750 
z
" transform="scale(0.015625)"/>
       </defs>
       <use xlink:href="#DejaVuSans-32"/>
       <use xlink:href="#DejaVuSans-35" x="63.623047"/>
       <use xlink:href="#DejaVuSans-30" x="127.246094"/>
       <use xlink:href="#DejaVuSans-30" x="190.869141"/>
      </g>
     </g>
    </g>
    <g id="xtick_2">
     <g id="line2d_2">
      <g>
       <use xlink:href="#m9c072c676e" x="335.314286" y="567" style="stroke: #000000; stroke-width: 0.8"/>
      </g>
     </g>
     <g id="text_2">
      <!-- 3000 -->
      <g transform="translate(322.589286 581.598438)scale(0.1 -0.1)">
       <defs>
        <path id="DejaVuSans-33" d="M 2597 2516 
Q 3050 2419 3304 2112 
Q 3559 1806 3559 1356 
Q 3559 666 3084 287 
Q 2609 -91 1734 -91 
Q 1441 -91 1130 -33 
Q 819 25 488 141 
L 488 750 
Q 750 597 1062 519 
Q 1375 441 1716 441 
Q 2309 441 2620 675 
Q 2931 909 2931 1356 
Q 2931 1769 2642 2001 
Q 2353 2234 1838 2234 
L 1294 2234 
L 1294 2753 
L 1863 2753 
Q 2328 2753 2575 2939 
Q 2822 3125 2822 3475 
Q 2822 3834 2567 4026 
Q 2313 4219 1838 4219 
Q 1578 4219 1281 4162 
Q 984 4106 628 3988 
L 628 4550 
Q 988 4650 1302 4700 
Q 1616 4750 1894 4750 
Q 2613 4750 3031 4423 
Q 3450 4097 3450 3541 
Q 3450 3153 3228 2886 
Q 3006 2619 2597 2516 
z
" transform="scale(0.015625)"/>
       </defs>
       <use xlink:href="#DejaVuSans-33"/>
       <use xlink:href="#DejaVuSans-30" x="63.623047"/>
       <use xlink:href="#DejaVuSans-30" x="127.246094"/>
       <use xlink:href="#DejaVuSans-30" x="190.869141"/>
      </g>
     </g>
    </g>
    <g id="xtick_3">
     <g id="line2d_3">
      <g>
       <use xlink:href="#m9c072c676e" x="494.742857" y="567" style="stroke: #000000; stroke-width: 0.8"/>
      </g>
     </g>
     <g id="text_3">
      <!-- 3500 -->
      <g transform="translate(482.017857 581.598438)scale(0.1 -0.1)">
       <use xlink:href="#DejaVuSans-33"/>
       <use xlink:href="#DejaVuSans-35" x="63.623047"/>
       <use xlink:href="#DejaVuSans-30" x="127.246094"/>
       <use xlink:href="#DejaVuSans-30" x="190.869141"/>
      </g>
     </g>
    </g>
    <g id="xtick_4">
     <g id="line2d_4">
      <g>
       <use xlink:href="#m9c072c676e" x="654.171429" y="567" style="stroke: #000000; stroke-width: 0.8"/>
      </g>
     </g>
     <g id="text_4">
      <!-- 4000 -->
      <g transform="translate(641.446429 581.598438)scale(0.1 -0.1)">
       <defs>
        <path id="DejaVuSans-34" d="M 2419 4116 
L 825 1625 
L 2419 1625 
L 2419 4116 
z
M 2253 4666 
L 3047 4666 
L 3047 1625 
L 3713 1625 
L 3713 1100 
L 3047 1100 
L 3047 0 
L 2419 0 
L 2419 1100 
L 313 1100 
L 313 1709 
L 2253 4666 
z
" transform="scale(0.015625)"/>
       </defs>
       <use xlink:href="#DejaVuSans-34"/>
       <use xlink:href="#DejaVuSans-30" x="63.623047"/>
       <use xlink:href="#DejaVuSans-30" x="127.246094"/>
       <use xlink:href="#DejaVuSans-30" x="190.869141"/>
      </g>
     </g>
    </g>
    <g id="xtick_5">
     <g id="line2d_5">
      <g>
       <use xlink:href="#m9c072c676e" x="813.6" y="567" style="stroke: #000000; stroke-width: 0.8"/>
      </g>
     </g>
     <g id="text_5">
      <!-- 4500 -->
      <g transform="translate(800.875 581.598438)scale(0.1 -0.1)">
       <use xlink:href="#DejaVuSans-34"/>
       <use xlink:href="#DejaVuSans-35" x="63.623047"/>
       <use xlink:href="#DejaVuSans-30" x="127.246094"/>
       <use xlink:href="#DejaVuSans-30" x="190.869141"/>
      </g>
     </g>
    </g>
    <g id="xtick_6">
     <g id="line2d_6">
      <g>
       <use xlink:href="#m9c072c676e" x="973.028571" y="567" style="stroke: #000000; stroke-width: 0.8"/>
      </g>
     </g>
     <g id="text_6">
      <!-- 5000 -->
      <g transform="translate(960.303571 581.598438)scale(0.1 -0.1)">
       <use xlink:href="#DejaVuSans-35"/>
       <use xlink:href="#DejaVuSans-30" x="63.623047"/>
       <use xlink:href="#DejaVuSans-30" x="127.246094"/>
       <use xlink:href="#DejaVuSans-30" x="190.869141"/>
      </g>
     </g>
    </g>
   </g>
   <g id="matplotlib.axis_2">
    <g id="ytick_1">
     <g id="line2d_7">
      <defs>
       <path id="mf51a61b61c" d="M 0 0 
L -3.5 0 
" style="stroke: #000000; stroke-width: 0.8"/>
      </defs>
      <g>
       <use xlink:href="#mf51a61b61c" x="144" y="489.913866" style="stroke: #000000; stroke-width: 0.8"/>
      </g>
     </g>
     <g id="text_7">
      <!-- 8000 -->
      <g transform="translate(111.55 493.713084)scale(0.1 -0.1)">
       <defs>
        <path id="DejaVuSans-38" d="M 2034 2216 
Q 1584 2216 1326 1975 
Q 1069 1734 1069 1313 
Q 1069 891 1326 650 
Q 1584 409 2034 409 
Q 2484 409 2743 651 
Q 3003 894 3003 1313 
Q 3003 1734 2745 1975 
Q 2488 2216 2034 2216 
z
M 1403 2484 
Q 997 2584 770 2862 
Q 544 3141 544 3541 
Q 544 4100 942 4425 
Q 1341 4750 2034 4750 
Q 2731 4750 3128 4425 
Q 3525 4100 3525 3541 
Q 3525 3141 3298 2862 
Q 3072 2584 2669 2484 
Q 3125 2378 3379 2068 
Q 3634 1759 3634 1313 
Q 3634 634 3220 271 
Q 2806 -91 2034 -91 
Q 1263 -91 848 271 
Q 434 634 434 1313 
Q 434 1759 690 2068 
Q 947 2378 1403 2484 
z
M 1172 3481 
Q 1172 3119 1398 2916 
Q 1625 2713 2034 2713 
Q 2441 2713 2670 2916 
Q 2900 3119 2900 3481 
Q 2900 3844 2670 4047 
Q 2441 4250 2034 4250 
Q 1625 4250 1398 4047 
Q 1172 3844 1172 3481 
z
" transform="scale(0.015625)"/>
       </defs>
       <use xlink:href="#DejaVuSans-38"/>
       <use xlink:href="#DejaVuSans-30" x="63.623047"/>
       <use xlink:href="#DejaVuSans-30" x="127.246094"/>
       <use xlink:href="#DejaVuSans-30" x="190.869141"/>
      </g>
     </g>
    </g>
    <g id="ytick_2">
     <g id="line2d_8">
      <g>
       <use xlink:href="#mf51a61b61c" x="144" y="404.262605" style="stroke: #000000; stroke-width: 0.8"/>
      </g>
     </g>
     <g id="text_8">
      <!-- 9000 -->
      <g transform="translate(111.55 408.061824)scale(0.1 -0.1)">
       <defs>
        <path id="DejaVuSans-39" d="M 703 97 
L 703 672 
Q 941 559 1184 500 
Q 1428 441 1663 441 
Q 2288 441 2617 861 
Q 2947 1281 2994 2138 
Q 2813 1869 2534 1725 
Q 2256 1581 1919 1581 
Q 1219 1581 811 2004 
Q 403 2428 403 3163 
Q 403 3881 828 4315 
Q 1253 4750 1959 4750 
Q 2769 4750 3195 4129 
Q 3622 3509 3622 2328 
Q 3622 1225 3098 567 
Q 2575 -91 1691 -91 
Q 1453 -91 1209 -44 
Q 966 3 703 97 
z
M 1959 2075 
Q 2384 2075 2632 2365 
Q 2881 2656 2881 3163 
Q 2881 3666 2632 3958 
Q 2384 4250 1959 4250 
Q 1534 4250 1286 3958 
Q 1038 3666 1038 3163 
Q 1038 2656 1286 2365 
Q 1534 2075 1959 2075 
z
" transform="scale(0.015625)"/>
       </defs>
       <use xlink:href="#DejaVuSans-39"/>
       <use xlink:href="#DejaVuSans-30" x="63.623047"/>
       <use xlink:href="#DejaVuSans-30" x="127.246094"/>
       <use xlink:href="#DejaVuSans-30" x="190.869141"/>
      </g>
     </g>
    </g>
    <g id="ytick_3">
     <g id="line2d_9">
      <g>
       <use xlink:href="#mf51a61b61c" x="144" y="318.611345" style="stroke: #000000; stroke-width: 0.8"/>
      </g>
     </g>
     <g id="text_9">
      <!-- 10000 -->
      <g transform="translate(105.1875 322.410563)scale(0.1 -0.1)">
       <defs>
        <path id="DejaVuSans-31" d="M 794 531 
L 1825 531 
L 1825 4091 
L 703 3866 
L 703 4441 
L 1819 4666 
L 2450 4666 
L 2450 531 
L 3481 531 
L 3481 0 
L 794 0 
L 794 531 
z
" transform="scale(0.015625)"/>
       </defs>
       <use xlink:href="#DejaVuSans-31"/>
       <use xlink:href="#DejaVuSans-30" x="63.623047"/>
       <use xlink:href="#DejaVuSans-30" x="127.246094"/>
       <use xlink:href="#DejaVuSans-30" x="190.869141"/>
       <use xlink:href="#DejaVuSans-30" x="254.492188"/>
      </g>
     </g>
    </g>
    <g id="ytick_4">
     <g id="line2d_10">
      <g>
       <use xlink:href="#mf51a61b61c" x="144" y="232.960084" style="stroke: #000000; stroke-width: 0.8"/>
      </g>
     </g>
     <g id="text_10">
      <!-- 11000 -->
      <g transform="translate(105.1875 236.759303)scale(0.1 -0.1)">
       <use xlink:href="#DejaVuSans-31"/>
       <use xlink:href="#DejaVuSans-31" x="63.623047"/>
       <use xlink:href="#DejaVuSans-30" x="127.246094"/>
       <use xlink:href="#DejaVuSans-30" x="190.869141"/>
       <use xlink:href="#DejaVuSans-30" x="254.492188"/>
      </g>
     </g>
    </g>
    <g id="ytick_5">
     <g id="line2d_11">
      <g>
       <use xlink:href="#mf51a61b61c" x="144" y="147.308824" style="stroke: #000000; stroke-width: 0.8"/>
      </g>
     </g>
     <g id="text_11">
      <!-- 12000 -->
      <g transform="translate(105.1875 151.108042)scale(0.1 -0.1)">
       <use xlink:href="#DejaVuSans-31"/>
       <use xlink:href="#DejaVuSans-32" x="63.623047"/>
       <use xlink:href="#DejaVuSans-30" x="127.246094"/>
       <use xlink:href="#DejaVuSans-30" x="190.869141"/>
       <use xlink:href="#DejaVuSans-30" x="254.492188"/>
      </g>
     </g>
    </g>
   </g>
   <g id="patch_131">
    <path d="M 144 567 
L 144 77.76 
" style="fill: none; stroke: #000000; stroke-width: 0.8; stroke-linejoin: miter; stroke-linecap: square"/>
   </g>
   <g id="patch_132">
    <path d="M 1036.8 567 
L 1036.8 77.76 
" style="fill: none; stroke: #000000; stroke-width: 0.8; stroke-linejoin: miter; stroke-linecap: square"/>
   </g>
   <g id="patch_133">
    <path d="M 144 567 
L 1036.8 567 
" style="fill: none; stroke: #000000; stroke-width: 0.8; stroke-linejoin: miter; stroke-linecap: square"/>
   </g>
   <g id="patch_134">
    <path d="M 144 77.76 
L 1036.8 77.76 
" style="fill: none; stroke: #000000; stroke-width: 0.8; stroke-linejoin: miter; stroke-linecap: square"/>
   </g>
   <g id="text_12">
    <!-- 3000_10_10_128_result56.8 -->
    <g transform="translate(506.0775 71.76)scale(0.12 -0.12)">
     <defs>
      <path id="DejaVuSans-5f" d="M 3263 -1063 
L 3263 -1509 
L -63 -1509 
L -63 -1063 
L 3263 -1063 
z
" transform="scale(0.015625)"/>
      <path id="DejaVuSans-72" d="M 2631 2963 
Q 2534 3019 2420 3045 
Q 2306 3072 2169 3072 
Q 1681 3072 1420 2755 
Q 1159 2438 1159 1844 
L 1159 0 
L 581 0 
L 581 3500 
L 1159 3500 
L 1159 2956 
Q 1341 3275 1631 3429 
Q 1922 3584 2338 3584 
Q 2397 3584 2469 3576 
Q 2541 3569 2628 3553 
L 2631 2963 
z
" transform="scale(0.015625)"/>
      <path id="DejaVuSans-65" d="M 3597 1894 
L 3597 1613 
L 953 1613 
Q 991 1019 1311 708 
Q 1631 397 2203 397 
Q 2534 397 2845 478 
Q 3156 559 3463 722 
L 3463 178 
Q 3153 47 2828 -22 
Q 2503 -91 2169 -91 
Q 1331 -91 842 396 
Q 353 884 353 1716 
Q 353 2575 817 3079 
Q 1281 3584 2069 3584 
Q 2775 3584 3186 3129 
Q 3597 2675 3597 1894 
z
M 3022 2063 
Q 3016 2534 2758 2815 
Q 2500 3097 2075 3097 
Q 1594 3097 1305 2825 
Q 1016 2553 972 2059 
L 3022 2063 
z
" transform="scale(0.015625)"/>
      <path id="DejaVuSans-73" d="M 2834 3397 
L 2834 2853 
Q 2591 2978 2328 3040 
Q 2066 3103 1784 3103 
Q 1356 3103 1142 2972 
Q 928 2841 928 2578 
Q 928 2378 1081 2264 
Q 1234 2150 1697 2047 
L 1894 2003 
Q 2506 1872 2764 1633 
Q 3022 1394 3022 966 
Q 3022 478 2636 193 
Q 2250 -91 1575 -91 
Q 1294 -91 989 -36 
Q 684 19 347 128 
L 347 722 
Q 666 556 975 473 
Q 1284 391 1588 391 
Q 1994 391 2212 530 
Q 2431 669 2431 922 
Q 2431 1156 2273 1281 
Q 2116 1406 1581 1522 
L 1381 1569 
Q 847 1681 609 1914 
Q 372 2147 372 2553 
Q 372 3047 722 3315 
Q 1072 3584 1716 3584 
Q 2034 3584 2315 3537 
Q 2597 3491 2834 3397 
z
" transform="scale(0.015625)"/>
      <path id="DejaVuSans-75" d="M 544 1381 
L 544 3500 
L 1119 3500 
L 1119 1403 
Q 1119 906 1312 657 
Q 1506 409 1894 409 
Q 2359 409 2629 706 
Q 2900 1003 2900 1516 
L 2900 3500 
L 3475 3500 
L 3475 0 
L 2900 0 
L 2900 538 
Q 2691 219 2414 64 
Q 2138 -91 1772 -91 
Q 1169 -91 856 284 
Q 544 659 544 1381 
z
M 1991 3584 
L 1991 3584 
z
" transform="scale(0.015625)"/>
      <path id="DejaVuSans-6c" d="M 603 4863 
L 1178 4863 
L 1178 0 
L 603 0 
L 603 4863 
z
" transform="scale(0.015625)"/>
      <path id="DejaVuSans-74" d="M 1172 4494 
L 1172 3500 
L 2356 3500 
L 2356 3053 
L 1172 3053 
L 1172 1153 
Q 1172 725 1289 603 
Q 1406 481 1766 481 
L 2356 481 
L 2356 0 
L 1766 0 
Q 1100 0 847 248 
Q 594 497 594 1153 
L 594 3053 
L 172 3053 
L 172 3500 
L 594 3500 
L 594 4494 
L 1172 4494 
z
" transform="scale(0.015625)"/>
      <path id="DejaVuSans-36" d="M 2113 2584 
Q 1688 2584 1439 2293 
Q 1191 2003 1191 1497 
Q 1191 994 1439 701 
Q 1688 409 2113 409 
Q 2538 409 2786 701 
Q 3034 994 3034 1497 
Q 3034 2003 2786 2293 
Q 2538 2584 2113 2584 
z
M 3366 4563 
L 3366 3988 
Q 3128 4100 2886 4159 
Q 2644 4219 2406 4219 
Q 1781 4219 1451 3797 
Q 1122 3375 1075 2522 
Q 1259 2794 1537 2939 
Q 1816 3084 2150 3084 
Q 2853 3084 3261 2657 
Q 3669 2231 3669 1497 
Q 3669 778 3244 343 
Q 2819 -91 2113 -91 
Q 1303 -91 875 529 
Q 447 1150 447 2328 
Q 447 3434 972 4092 
Q 1497 4750 2381 4750 
Q 2619 4750 2861 4703 
Q 3103 4656 3366 4563 
z
" transform="scale(0.015625)"/>
      <path id="DejaVuSans-2e" d="M 684 794 
L 1344 794 
L 1344 0 
L 684 0 
L 684 794 
z
" transform="scale(0.015625)"/>
     </defs>
     <use xlink:href="#DejaVuSans-33"/>
     <use xlink:href="#DejaVuSans-30" x="63.623047"/>
     <use xlink:href="#DejaVuSans-30" x="127.246094"/>
     <use xlink:href="#DejaVuSans-30" x="190.869141"/>
     <use xlink:href="#DejaVuSans-5f" x="254.492188"/>
     <use xlink:href="#DejaVuSans-31" x="304.492188"/>
     <use xlink:href="#DejaVuSans-30" x="368.115234"/>
     <use xlink:href="#DejaVuSans-5f" x="431.738281"/>
     <use xlink:href="#DejaVuSans-31" x="481.738281"/>
     <use xlink:href="#DejaVuSans-30" x="545.361328"/>
     <use xlink:href="#DejaVuSans-5f" x="608.984375"/>
     <use xlink:href="#DejaVuSans-31" x="658.984375"/>
     <use xlink:href="#DejaVuSans-32" x="722.607422"/>
     <use xlink:href="#DejaVuSans-38" x="786.230469"/>
     <use xlink:href="#DejaVuSans-5f" x="849.853516"/>
     <use xlink:href="#DejaVuSans-72" x="899.853516"/>
     <use xlink:href="#DejaVuSans-65" x="938.716797"/>
     <use xlink:href="#DejaVuSans-73" x="1000.240234"/>
     <use xlink:href="#DejaVuSans-75" x="1052.339844"/>
     <use xlink:href="#DejaVuSans-6c" x="1115.71875"/>
     <use xlink:href="#DejaVuSans-74" x="1143.501953"/>
     <use xlink:href="#DejaVuSans-35" x="1182.710938"/>
     <use xlink:href="#DejaVuSans-36" x="1246.333984"/>
     <use xlink:href="#DejaVuSans-2e" x="1309.957031"/>
     <use xlink:href="#DejaVuSans-38" x="1341.744141"/>
    </g>
   </g>
  </g>
 </g>
 <defs>
  <clipPath id="p2682fce08a">
   <rect x="144" y="77.76" width="892.8" height="489.24"/>
  </clipPath>
 </defs>
</svg>
