<?xml version="1.0" encoding="utf-8" standalone="no"?>
<!DOCTYPE svg PUBLIC "-//W3C//DTD SVG 1.1//EN"
  "http://www.w3.org/Graphics/SVG/1.1/DTD/svg11.dtd">
<svg xmlns:xlink="http://www.w3.org/1999/xlink" width="576pt" height="432pt" viewBox="0 0 576 432" xmlns="http://www.w3.org/2000/svg" version="1.1">
 <metadata>
  <rdf:RDF xmlns:dc="http://purl.org/dc/elements/1.1/" xmlns:cc="http://creativecommons.org/ns#" xmlns:rdf="http://www.w3.org/1999/02/22-rdf-syntax-ns#">
   <cc:Work>
    <dc:type rdf:resource="http://purl.org/dc/dcmitype/StillImage"/>
    <dc:date>2022-04-19T21:18:52.051250</dc:date>
    <dc:format>image/svg+xml</dc:format>
    <dc:creator>
     <cc:Agent>
      <dc:title>Matplotlib v3.5.1, https://matplotlib.org/</dc:title>
     </cc:Agent>
    </dc:creator>
   </cc:Work>
  </rdf:RDF>
 </metadata>
 <defs>
  <style type="text/css">*{stroke-linejoin: round; stroke-linecap: butt}</style>
 </defs>
 <g id="figure_1">
  <g id="patch_1">
   <path d="M 0 432 
L 576 432 
L 576 0 
L 0 0 
L 0 432 
z
" style="fill: none"/>
  </g>
  <g id="axes_1"/>
  <g id="axes_2">
   <g id="patch_2">
    <path d="M 72 378 
L 518.4 378 
L 518.4 51.84 
L 72 51.84 
z
" style="fill: #ffffff"/>
   </g>
   <g id="patch_3">
    <path d="M 328.68 322.897689 
L 344.622857 322.897689 
L 344.622857 320.042647 
L 328.68 320.042647 
L 328.68 322.897689 
z
" clip-path="url(#pbff2b63bd9)" style="fill: none; stroke: #000000; stroke-linejoin: miter"/>
   </g>
   <g id="patch_4">
    <path d="M 373.001143 227.310882 
L 388.944 227.310882 
L 388.944 224.45584 
L 373.001143 224.45584 
L 373.001143 227.310882 
z
" clip-path="url(#pbff2b63bd9)" style="fill: none; stroke: #000000; stroke-linejoin: miter"/>
   </g>
   <g id="patch_5">
    <path d="M 432.308571 98.148782 
L 448.251429 98.148782 
L 448.251429 95.293739 
L 432.308571 95.293739 
L 432.308571 98.148782 
z
" clip-path="url(#pbff2b63bd9)" style="fill: none; stroke: #000000; stroke-linejoin: miter"/>
   </g>
   <g id="patch_6">
    <path d="M 347.333143 373.431933 
L 363.276 373.431933 
L 363.276 370.576891 
L 347.333143 370.576891 
L 347.333143 373.431933 
z
" clip-path="url(#pbff2b63bd9)" style="fill: none; stroke: #000000; stroke-linejoin: miter"/>
   </g>
   <g id="patch_7">
    <path d="M 369.015429 273.676765 
L 384.958286 273.676765 
L 384.958286 270.821723 
L 369.015429 270.821723 
L 369.015429 273.676765 
z
" clip-path="url(#pbff2b63bd9)" style="fill: none; stroke: #000000; stroke-linejoin: miter"/>
   </g>
   <g id="patch_8">
    <path d="M 248.965714 328.036765 
L 264.908571 328.036765 
L 264.908571 325.181723 
L 248.965714 325.181723 
L 248.965714 328.036765 
z
" clip-path="url(#pbff2b63bd9)" style="fill: none; stroke: #000000; stroke-linejoin: miter"/>
   </g>
   <g id="patch_9">
    <path d="M 468.658286 231.536345 
L 484.601143 231.536345 
L 484.601143 228.681303 
L 468.658286 228.681303 
L 468.658286 231.536345 
z
" clip-path="url(#pbff2b63bd9)" style="fill: none; stroke: #000000; stroke-linejoin: miter"/>
   </g>
   <g id="patch_10">
    <path d="M 314.172 339.97084 
L 330.114857 339.97084 
L 330.114857 337.115798 
L 314.172 337.115798 
L 314.172 339.97084 
z
" clip-path="url(#pbff2b63bd9)" style="fill: none; stroke: #000000; stroke-linejoin: miter"/>
   </g>
   <g id="patch_11">
    <path d="M 219.312 338.486218 
L 235.254857 338.486218 
L 235.254857 335.631176 
L 219.312 335.631176 
L 219.312 338.486218 
z
" clip-path="url(#pbff2b63bd9)" style="fill: none; stroke: #000000; stroke-linejoin: miter"/>
   </g>
   <g id="patch_12">
    <path d="M 323.1 352.019118 
L 339.042857 352.019118 
L 339.042857 349.164076 
L 323.1 349.164076 
L 323.1 352.019118 
z
" clip-path="url(#pbff2b63bd9)" style="fill: none; stroke: #000000; stroke-linejoin: miter"/>
   </g>
   <g id="patch_13">
    <path d="M 441.077143 194.592101 
L 457.02 194.592101 
L 457.02 191.737059 
L 441.077143 191.737059 
L 441.077143 194.592101 
z
" clip-path="url(#pbff2b63bd9)" style="fill: none; stroke: #000000; stroke-linejoin: miter"/>
   </g>
   <g id="patch_14">
    <path d="M 331.071429 343.739496 
L 347.014286 343.739496 
L 347.014286 340.884454 
L 331.071429 340.884454 
L 331.071429 343.739496 
z
" clip-path="url(#pbff2b63bd9)" style="fill: none; stroke: #000000; stroke-linejoin: miter"/>
   </g>
   <g id="patch_15">
    <path d="M 290.098286 316.445294 
L 306.041143 316.445294 
L 306.041143 313.590252 
L 290.098286 313.590252 
L 290.098286 316.445294 
z
" clip-path="url(#pbff2b63bd9)" style="fill: none; stroke: #000000; stroke-linejoin: miter"/>
   </g>
   <g id="patch_16">
    <path d="M 229.834286 221.02979 
L 245.777143 221.02979 
L 245.777143 218.174748 
L 229.834286 218.174748 
L 229.834286 221.02979 
z
" clip-path="url(#pbff2b63bd9)" style="fill: none; stroke: #000000; stroke-linejoin: miter"/>
   </g>
   <g id="patch_17">
    <path d="M 274.314857 230.451429 
L 290.257714 230.451429 
L 290.257714 227.596387 
L 274.314857 227.596387 
L 274.314857 230.451429 
z
" clip-path="url(#pbff2b63bd9)" style="fill: none; stroke: #000000; stroke-linejoin: miter"/>
   </g>
   <g id="patch_18">
    <path d="M 312.258857 325.353025 
L 328.201714 325.353025 
L 328.201714 322.497983 
L 312.258857 322.497983 
L 312.258857 325.353025 
z
" clip-path="url(#pbff2b63bd9)" style="fill: none; stroke: #000000; stroke-linejoin: miter"/>
   </g>
   <g id="patch_19">
    <path d="M 115.364571 326.323739 
L 131.307429 326.323739 
L 131.307429 323.468697 
L 115.364571 323.468697 
L 115.364571 326.323739 
z
" clip-path="url(#pbff2b63bd9)" style="fill: none; stroke: #000000; stroke-linejoin: miter"/>
   </g>
   <g id="patch_20">
    <path d="M 429.438857 96.378655 
L 445.381714 96.378655 
L 445.381714 93.523613 
L 429.438857 93.523613 
L 429.438857 96.378655 
z
" clip-path="url(#pbff2b63bd9)" style="fill: none; stroke: #000000; stroke-linejoin: miter"/>
   </g>
   <g id="patch_21">
    <path d="M 349.724571 87.413824 
L 365.667429 87.413824 
L 365.667429 84.558782 
L 349.724571 84.558782 
L 349.724571 87.413824 
z
" clip-path="url(#pbff2b63bd9)" style="fill: none; stroke: #000000; stroke-linejoin: miter"/>
   </g>
   <g id="patch_22">
    <path d="M 171.164571 313.190546 
L 187.107429 313.190546 
L 187.107429 310.335504 
L 171.164571 310.335504 
L 171.164571 313.190546 
z
" clip-path="url(#pbff2b63bd9)" style="fill: none; stroke: #000000; stroke-linejoin: miter"/>
   </g>
   <g id="patch_23">
    <path d="M 390.219429 274.419076 
L 406.162286 274.419076 
L 406.162286 271.564034 
L 390.219429 271.564034 
L 390.219429 274.419076 
z
" clip-path="url(#pbff2b63bd9)" style="fill: none; stroke: #000000; stroke-linejoin: miter"/>
   </g>
   <g id="patch_24">
    <path d="M 348.768 284.754328 
L 364.710857 284.754328 
L 364.710857 281.899286 
L 348.768 281.899286 
L 348.768 284.754328 
z
" clip-path="url(#pbff2b63bd9)" style="fill: none; stroke: #000000; stroke-linejoin: miter"/>
   </g>
   <g id="patch_25">
    <path d="M 389.262857 228.909706 
L 405.205714 228.909706 
L 405.205714 226.054664 
L 389.262857 226.054664 
L 389.262857 228.909706 
z
" clip-path="url(#pbff2b63bd9)" style="fill: none; stroke: #000000; stroke-linejoin: miter"/>
   </g>
   <g id="patch_26">
    <path d="M 390.538286 352.761429 
L 406.481143 352.761429 
L 406.481143 349.906387 
L 390.538286 349.906387 
L 390.538286 352.761429 
z
" clip-path="url(#pbff2b63bd9)" style="fill: none; stroke: #000000; stroke-linejoin: miter"/>
   </g>
   <g id="patch_27">
    <path d="M 351 259.001849 
L 366.942857 259.001849 
L 366.942857 256.146807 
L 351 256.146807 
L 351 259.001849 
z
" clip-path="url(#pbff2b63bd9)" style="fill: none; stroke: #000000; stroke-linejoin: miter"/>
   </g>
   <g id="patch_28">
    <path d="M 335.854286 369.14937 
L 351.797143 369.14937 
L 351.797143 366.294328 
L 335.854286 366.294328 
L 335.854286 369.14937 
z
" clip-path="url(#pbff2b63bd9)" style="fill: none; stroke: #000000; stroke-linejoin: miter"/>
   </g>
   <g id="patch_29">
    <path d="M 293.446286 343.568193 
L 309.389143 343.568193 
L 309.389143 340.713151 
L 293.446286 340.713151 
L 293.446286 343.568193 
z
" clip-path="url(#pbff2b63bd9)" style="fill: none; stroke: #000000; stroke-linejoin: miter"/>
   </g>
   <g id="patch_30">
    <path d="M 356.58 331.519916 
L 372.522857 331.519916 
L 372.522857 328.664874 
L 356.58 328.664874 
L 356.58 331.519916 
z
" clip-path="url(#pbff2b63bd9)" style="fill: none; stroke: #000000; stroke-linejoin: miter"/>
   </g>
   <g id="patch_31">
    <path d="M 423.858857 110.596765 
L 439.801714 110.596765 
L 439.801714 107.741723 
L 423.858857 107.741723 
L 423.858857 110.596765 
z
" clip-path="url(#pbff2b63bd9)" style="fill: none; stroke: #000000; stroke-linejoin: miter"/>
   </g>
   <g id="patch_32">
    <path d="M 176.425714 231.593445 
L 192.368571 231.593445 
L 192.368571 228.738403 
L 176.425714 228.738403 
L 176.425714 231.593445 
z
" clip-path="url(#pbff2b63bd9)" style="fill: none; stroke: #000000; stroke-linejoin: miter"/>
   </g>
   <g id="patch_33">
    <path d="M 290.098286 286.467353 
L 306.041143 286.467353 
L 306.041143 283.612311 
L 290.098286 283.612311 
L 290.098286 286.467353 
z
" clip-path="url(#pbff2b63bd9)" style="fill: none; stroke: #000000; stroke-linejoin: miter"/>
   </g>
   <g id="patch_34">
    <path d="M 148.685143 232.335756 
L 164.628 232.335756 
L 164.628 229.480714 
L 148.685143 229.480714 
L 148.685143 232.335756 
z
" clip-path="url(#pbff2b63bd9)" style="fill: none; stroke: #000000; stroke-linejoin: miter"/>
   </g>
   <g id="patch_35">
    <path d="M 189.18 264.483529 
L 205.122857 264.483529 
L 205.122857 261.628487 
L 189.18 261.628487 
L 189.18 264.483529 
z
" clip-path="url(#pbff2b63bd9)" style="fill: none; stroke: #000000; stroke-linejoin: miter"/>
   </g>
   <g id="patch_36">
    <path d="M 474.876 83.245462 
L 490.818857 83.245462 
L 490.818857 80.39042 
L 474.876 80.39042 
L 474.876 83.245462 
z
" clip-path="url(#pbff2b63bd9)" style="fill: none; stroke: #000000; stroke-linejoin: miter"/>
   </g>
   <g id="patch_37">
    <path d="M 421.467429 226.625672 
L 437.410286 226.625672 
L 437.410286 223.77063 
L 421.467429 223.77063 
L 421.467429 226.625672 
z
" clip-path="url(#pbff2b63bd9)" style="fill: none; stroke: #000000; stroke-linejoin: miter"/>
   </g>
   <g id="patch_38">
    <path d="M 164.946857 307.880168 
L 180.889714 307.880168 
L 180.889714 305.025126 
L 164.946857 305.025126 
L 164.946857 307.880168 
z
" clip-path="url(#pbff2b63bd9)" style="fill: none; stroke: #000000; stroke-linejoin: miter"/>
   </g>
   <g id="patch_39">
    <path d="M 376.668 356.701387 
L 392.610857 356.701387 
L 392.610857 353.846345 
L 376.668 353.846345 
L 376.668 356.701387 
z
" clip-path="url(#pbff2b63bd9)" style="fill: none; stroke: #000000; stroke-linejoin: miter"/>
   </g>
   <g id="patch_40">
    <path d="M 309.548571 328.150966 
L 325.491429 328.150966 
L 325.491429 325.295924 
L 309.548571 325.295924 
L 309.548571 328.150966 
z
" clip-path="url(#pbff2b63bd9)" style="fill: none; stroke: #000000; stroke-linejoin: miter"/>
   </g>
   <g id="patch_41">
    <path d="M 189.18 242.1 
L 205.122857 242.1 
L 205.122857 239.244958 
L 189.18 239.244958 
L 189.18 242.1 
z
" clip-path="url(#pbff2b63bd9)" style="fill: none; stroke: #000000; stroke-linejoin: miter"/>
   </g>
   <g id="patch_42">
    <path d="M 351.956571 129.782647 
L 367.899429 129.782647 
L 367.899429 126.927605 
L 351.956571 126.927605 
L 351.956571 129.782647 
z
" clip-path="url(#pbff2b63bd9)" style="fill: none; stroke: #000000; stroke-linejoin: miter"/>
   </g>
   <g id="patch_43">
    <path d="M 202.890857 286.23895 
L 218.833714 286.23895 
L 218.833714 283.383908 
L 202.890857 283.383908 
L 202.890857 286.23895 
z
" clip-path="url(#pbff2b63bd9)" style="fill: none; stroke: #000000; stroke-linejoin: miter"/>
   </g>
   <g id="patch_44">
    <path d="M 235.573714 276.874412 
L 251.516571 276.874412 
L 251.516571 274.01937 
L 235.573714 274.01937 
L 235.573714 276.874412 
z
" clip-path="url(#pbff2b63bd9)" style="fill: none; stroke: #000000; stroke-linejoin: miter"/>
   </g>
   <g id="patch_45">
    <path d="M 249.922286 235.761807 
L 265.865143 235.761807 
L 265.865143 232.906765 
L 249.922286 232.906765 
L 249.922286 235.761807 
z
" clip-path="url(#pbff2b63bd9)" style="fill: none; stroke: #000000; stroke-linejoin: miter"/>
   </g>
   <g id="patch_46">
    <path d="M 187.107429 152.622983 
L 203.050286 152.622983 
L 203.050286 149.767941 
L 187.107429 149.767941 
L 187.107429 152.622983 
z
" clip-path="url(#pbff2b63bd9)" style="fill: none; stroke: #000000; stroke-linejoin: miter"/>
   </g>
   <g id="patch_47">
    <path d="M 281.967429 189.510126 
L 297.910286 189.510126 
L 297.910286 186.655084 
L 281.967429 186.655084 
L 281.967429 189.510126 
z
" clip-path="url(#pbff2b63bd9)" style="fill: none; stroke: #000000; stroke-linejoin: miter"/>
   </g>
   <g id="patch_48">
    <path d="M 314.809714 359.328025 
L 330.752571 359.328025 
L 330.752571 356.472983 
L 314.809714 356.472983 
L 314.809714 359.328025 
z
" clip-path="url(#pbff2b63bd9)" style="fill: none; stroke: #000000; stroke-linejoin: miter"/>
   </g>
   <g id="patch_49">
    <path d="M 402.973714 297.316513 
L 418.916571 297.316513 
L 418.916571 294.461471 
L 402.973714 294.461471 
L 402.973714 297.316513 
z
" clip-path="url(#pbff2b63bd9)" style="fill: none; stroke: #000000; stroke-linejoin: miter"/>
   </g>
   <g id="patch_50">
    <path d="M 385.277143 330.149496 
L 401.22 330.149496 
L 401.22 327.294454 
L 385.277143 327.294454 
L 385.277143 330.149496 
z
" clip-path="url(#pbff2b63bd9)" style="fill: none; stroke: #000000; stroke-linejoin: miter"/>
   </g>
   <g id="patch_51">
    <path d="M 311.94 237.132227 
L 327.882857 237.132227 
L 327.882857 234.277185 
L 311.94 234.277185 
L 311.94 237.132227 
z
" clip-path="url(#pbff2b63bd9)" style="fill: none; stroke: #000000; stroke-linejoin: miter"/>
   </g>
   <g id="patch_52">
    <path d="M 353.391429 309.250588 
L 369.334286 309.250588 
L 369.334286 306.395546 
L 353.391429 306.395546 
L 353.391429 309.250588 
z
" clip-path="url(#pbff2b63bd9)" style="fill: none; stroke: #000000; stroke-linejoin: miter"/>
   </g>
   <g id="patch_53">
    <path d="M 222.341143 249.237605 
L 238.284 249.237605 
L 238.284 246.382563 
L 222.341143 246.382563 
L 222.341143 249.237605 
z
" clip-path="url(#pbff2b63bd9)" style="fill: none; stroke: #000000; stroke-linejoin: miter"/>
   </g>
   <g id="patch_54">
    <path d="M 318.636 287.152563 
L 334.578857 287.152563 
L 334.578857 284.297521 
L 318.636 284.297521 
L 318.636 287.152563 
z
" clip-path="url(#pbff2b63bd9)" style="fill: none; stroke: #000000; stroke-linejoin: miter"/>
   </g>
   <g id="patch_55">
    <path d="M 119.031429 315.47458 
L 134.974286 315.47458 
L 134.974286 312.619538 
L 119.031429 312.619538 
L 119.031429 315.47458 
z
" clip-path="url(#pbff2b63bd9)" style="fill: none; stroke: #000000; stroke-linejoin: miter"/>
   </g>
   <g id="patch_56">
    <path d="M 174.831429 302.170084 
L 190.774286 302.170084 
L 190.774286 299.315042 
L 174.831429 299.315042 
L 174.831429 302.170084 
z
" clip-path="url(#pbff2b63bd9)" style="fill: none; stroke: #000000; stroke-linejoin: miter"/>
   </g>
   <g id="patch_57">
    <path d="M 442.512 84.330378 
L 458.454857 84.330378 
L 458.454857 81.475336 
L 442.512 81.475336 
L 442.512 84.330378 
z
" clip-path="url(#pbff2b63bd9)" style="fill: none; stroke: #000000; stroke-linejoin: miter"/>
   </g>
   <g id="patch_58">
    <path d="M 359.768571 348.593067 
L 375.711429 348.593067 
L 375.711429 345.738025 
L 359.768571 345.738025 
L 359.768571 348.593067 
z
" clip-path="url(#pbff2b63bd9)" style="fill: none; stroke: #000000; stroke-linejoin: miter"/>
   </g>
   <g id="patch_59">
    <path d="M 193.165714 316.102689 
L 209.108571 316.102689 
L 209.108571 313.247647 
L 193.165714 313.247647 
L 193.165714 316.102689 
z
" clip-path="url(#pbff2b63bd9)" style="fill: none; stroke: #000000; stroke-linejoin: miter"/>
   </g>
   <g id="patch_60">
    <path d="M 214.210286 324.610714 
L 230.153143 324.610714 
L 230.153143 321.755672 
L 214.210286 321.755672 
L 214.210286 324.610714 
z
" clip-path="url(#pbff2b63bd9)" style="fill: none; stroke: #000000; stroke-linejoin: miter"/>
   </g>
   <g id="patch_61">
    <path d="M 342.869143 354.074748 
L 358.812 354.074748 
L 358.812 351.219706 
L 342.869143 351.219706 
L 342.869143 354.074748 
z
" clip-path="url(#pbff2b63bd9)" style="fill: none; stroke: #000000; stroke-linejoin: miter"/>
   </g>
   <g id="patch_62">
    <path d="M 278.619429 90.839874 
L 294.562286 90.839874 
L 294.562286 87.984832 
L 278.619429 87.984832 
L 278.619429 90.839874 
z
" clip-path="url(#pbff2b63bd9)" style="fill: none; stroke: #000000; stroke-linejoin: miter"/>
   </g>
   <g id="patch_63">
    <path d="M 383.204571 271.963739 
L 399.147429 271.963739 
L 399.147429 269.108697 
L 383.204571 269.108697 
L 383.204571 271.963739 
z
" clip-path="url(#pbff2b63bd9)" style="fill: none; stroke: #000000; stroke-linejoin: miter"/>
   </g>
   <g id="patch_64">
    <path d="M 332.825143 323.068992 
L 348.768 323.068992 
L 348.768 320.21395 
L 332.825143 320.21395 
L 332.825143 323.068992 
z
" clip-path="url(#pbff2b63bd9)" style="fill: none; stroke: #000000; stroke-linejoin: miter"/>
   </g>
   <g id="patch_65">
    <path d="M 321.027429 194.021092 
L 336.970286 194.021092 
L 336.970286 191.16605 
L 321.027429 191.16605 
L 321.027429 194.021092 
z
" clip-path="url(#pbff2b63bd9)" style="fill: none; stroke: #000000; stroke-linejoin: miter"/>
   </g>
   <g id="patch_66">
    <path d="M 281.648571 331.919622 
L 297.591429 331.919622 
L 297.591429 329.06458 
L 281.648571 329.06458 
L 281.648571 331.919622 
z
" clip-path="url(#pbff2b63bd9)" style="fill: none; stroke: #000000; stroke-linejoin: miter"/>
   </g>
   <g id="patch_67">
    <path d="M 309.867429 304.853824 
L 325.810286 304.853824 
L 325.810286 301.998782 
L 309.867429 301.998782 
L 309.867429 304.853824 
z
" clip-path="url(#pbff2b63bd9)" style="fill: none; stroke: #000000; stroke-linejoin: miter"/>
   </g>
   <g id="patch_68">
    <path d="M 266.821714 250.722227 
L 282.764571 250.722227 
L 282.764571 247.867185 
L 266.821714 247.867185 
L 266.821714 250.722227 
z
" clip-path="url(#pbff2b63bd9)" style="fill: none; stroke: #000000; stroke-linejoin: miter"/>
   </g>
   <g id="patch_69">
    <path d="M 344.622857 371.776008 
L 360.565714 371.776008 
L 360.565714 368.920966 
L 344.622857 368.920966 
L 344.622857 371.776008 
z
" clip-path="url(#pbff2b63bd9)" style="fill: none; stroke: #000000; stroke-linejoin: miter"/>
   </g>
   <g id="patch_70">
    <path d="M 323.897143 271.506933 
L 339.84 271.506933 
L 339.84 268.651891 
L 323.897143 268.651891 
L 323.897143 271.506933 
z
" clip-path="url(#pbff2b63bd9)" style="fill: none; stroke: #000000; stroke-linejoin: miter"/>
   </g>
   <g id="patch_71">
    <path d="M 449.367429 112.995 
L 465.310286 112.995 
L 465.310286 110.139958 
L 449.367429 110.139958 
L 449.367429 112.995 
z
" clip-path="url(#pbff2b63bd9)" style="fill: none; stroke: #000000; stroke-linejoin: miter"/>
   </g>
   <g id="patch_72">
    <path d="M 337.926857 290.921218 
L 353.869714 290.921218 
L 353.869714 288.066176 
L 337.926857 288.066176 
L 337.926857 290.921218 
z
" clip-path="url(#pbff2b63bd9)" style="fill: none; stroke: #000000; stroke-linejoin: miter"/>
   </g>
   <g id="patch_73">
    <path d="M 367.580571 231.079538 
L 383.523429 231.079538 
L 383.523429 228.224496 
L 367.580571 228.224496 
L 367.580571 231.079538 
z
" clip-path="url(#pbff2b63bd9)" style="fill: none; stroke: #000000; stroke-linejoin: miter"/>
   </g>
   <g id="patch_74">
    <path d="M 350.840571 233.020966 
L 366.783429 233.020966 
L 366.783429 230.165924 
L 350.840571 230.165924 
L 350.840571 233.020966 
z
" clip-path="url(#pbff2b63bd9)" style="fill: none; stroke: #000000; stroke-linejoin: miter"/>
   </g>
   <g id="patch_75">
    <path d="M 191.730857 250.95063 
L 207.673714 250.95063 
L 207.673714 248.095588 
L 191.730857 248.095588 
L 191.730857 250.95063 
z
" clip-path="url(#pbff2b63bd9)" style="fill: none; stroke: #000000; stroke-linejoin: miter"/>
   </g>
   <g id="patch_76">
    <path d="M 225.689143 231.764748 
L 241.632 231.764748 
L 241.632 228.909706 
L 225.689143 228.909706 
L 225.689143 231.764748 
z
" clip-path="url(#pbff2b63bd9)" style="fill: none; stroke: #000000; stroke-linejoin: miter"/>
   </g>
   <g id="patch_77">
    <path d="M 387.668571 172.665378 
L 403.611429 172.665378 
L 403.611429 169.810336 
L 387.668571 169.810336 
L 387.668571 172.665378 
z
" clip-path="url(#pbff2b63bd9)" style="fill: none; stroke: #000000; stroke-linejoin: miter"/>
   </g>
   <g id="patch_78">
    <path d="M 235.095429 231.365042 
L 251.038286 231.365042 
L 251.038286 228.51 
L 235.095429 228.51 
L 235.095429 231.365042 
z
" clip-path="url(#pbff2b63bd9)" style="fill: none; stroke: #000000; stroke-linejoin: miter"/>
   </g>
   <g id="patch_79">
    <path d="M 206.238857 286.524454 
L 222.181714 286.524454 
L 222.181714 283.669412 
L 206.238857 283.669412 
L 206.238857 286.524454 
z
" clip-path="url(#pbff2b63bd9)" style="fill: none; stroke: #000000; stroke-linejoin: miter"/>
   </g>
   <g id="patch_80">
    <path d="M 290.576571 251.064832 
L 306.519429 251.064832 
L 306.519429 248.20979 
L 290.576571 248.20979 
L 290.576571 251.064832 
z
" clip-path="url(#pbff2b63bd9)" style="fill: none; stroke: #000000; stroke-linejoin: miter"/>
   </g>
   <g id="patch_81">
    <path d="M 432.308571 84.901387 
L 448.251429 84.901387 
L 448.251429 82.046345 
L 432.308571 82.046345 
L 432.308571 84.901387 
z
" clip-path="url(#pbff2b63bd9)" style="fill: none; stroke: #000000; stroke-linejoin: miter"/>
   </g>
   <g id="patch_82">
    <path d="M 349.565143 354.18895 
L 365.508 354.18895 
L 365.508 351.333908 
L 349.565143 351.333908 
L 349.565143 354.18895 
z
" clip-path="url(#pbff2b63bd9)" style="fill: none; stroke: #000000; stroke-linejoin: miter"/>
   </g>
   <g id="patch_83">
    <path d="M 356.898857 194.363697 
L 372.841714 194.363697 
L 372.841714 191.508655 
L 356.898857 191.508655 
L 356.898857 194.363697 
z
" clip-path="url(#pbff2b63bd9)" style="fill: none; stroke: #000000; stroke-linejoin: miter"/>
   </g>
   <g id="patch_84">
    <path d="M 372.044571 364.010294 
L 387.987429 364.010294 
L 387.987429 361.155252 
L 372.044571 361.155252 
L 372.044571 364.010294 
z
" clip-path="url(#pbff2b63bd9)" style="fill: none; stroke: #000000; stroke-linejoin: miter"/>
   </g>
   <g id="patch_85">
    <path d="M 200.818286 323.240294 
L 216.761143 323.240294 
L 216.761143 320.385252 
L 200.818286 320.385252 
L 200.818286 323.240294 
z
" clip-path="url(#pbff2b63bd9)" style="fill: none; stroke: #000000; stroke-linejoin: miter"/>
   </g>
   <g id="patch_86">
    <path d="M 430.554857 304.62542 
L 446.497714 304.62542 
L 446.497714 301.770378 
L 430.554857 301.770378 
L 430.554857 304.62542 
z
" clip-path="url(#pbff2b63bd9)" style="fill: none; stroke: #000000; stroke-linejoin: miter"/>
   </g>
   <g id="patch_87">
    <path d="M 125.249143 312.162731 
L 141.192 312.162731 
L 141.192 309.307689 
L 125.249143 309.307689 
L 125.249143 312.162731 
z
" clip-path="url(#pbff2b63bd9)" style="fill: none; stroke: #000000; stroke-linejoin: miter"/>
   </g>
   <g id="patch_88">
    <path d="M 286.272 82.674454 
L 302.214857 82.674454 
L 302.214857 79.819412 
L 286.272 79.819412 
L 286.272 82.674454 
z
" clip-path="url(#pbff2b63bd9)" style="fill: none; stroke: #000000; stroke-linejoin: miter"/>
   </g>
   <g id="patch_89">
    <path d="M 242.269714 181.287605 
L 258.212571 181.287605 
L 258.212571 178.432563 
L 242.269714 178.432563 
L 242.269714 181.287605 
z
" clip-path="url(#pbff2b63bd9)" style="fill: none; stroke: #000000; stroke-linejoin: miter"/>
   </g>
   <g id="patch_90">
    <path d="M 238.124571 99.918908 
L 254.067429 99.918908 
L 254.067429 97.063866 
L 238.124571 97.063866 
L 238.124571 99.918908 
z
" clip-path="url(#pbff2b63bd9)" style="fill: none; stroke: #000000; stroke-linejoin: miter"/>
   </g>
   <g id="patch_91">
    <path d="M 211.659429 110.368361 
L 227.602286 110.368361 
L 227.602286 107.513319 
L 211.659429 107.513319 
L 211.659429 110.368361 
z
" clip-path="url(#pbff2b63bd9)" style="fill: none; stroke: #000000; stroke-linejoin: miter"/>
   </g>
   <g id="patch_92">
    <path d="M 284.677714 90.325966 
L 300.620571 90.325966 
L 300.620571 87.470924 
L 284.677714 87.470924 
L 284.677714 90.325966 
z
" clip-path="url(#pbff2b63bd9)" style="fill: none; stroke: #000000; stroke-linejoin: miter"/>
   </g>
   <g id="patch_93">
    <path d="M 275.749714 87.242521 
L 291.692571 87.242521 
L 291.692571 84.387479 
L 275.749714 84.387479 
L 275.749714 87.242521 
z
" clip-path="url(#pbff2b63bd9)" style="fill: none; stroke: #000000; stroke-linejoin: miter"/>
   </g>
   <g id="patch_94">
    <path d="M 334.26 311.134916 
L 350.202857 311.134916 
L 350.202857 308.279874 
L 334.26 308.279874 
L 334.26 311.134916 
z
" clip-path="url(#pbff2b63bd9)" style="fill: none; stroke: #000000; stroke-linejoin: miter"/>
   </g>
   <g id="patch_95">
    <path d="M 210.862286 117.334664 
L 226.805143 117.334664 
L 226.805143 114.479622 
L 210.862286 114.479622 
L 210.862286 117.334664 
z
" clip-path="url(#pbff2b63bd9)" style="fill: none; stroke: #000000; stroke-linejoin: miter"/>
   </g>
   <g id="patch_96">
    <path d="M 217.239429 116.42105 
L 233.182286 116.42105 
L 233.182286 113.566008 
L 217.239429 113.566008 
L 217.239429 116.42105 
z
" clip-path="url(#pbff2b63bd9)" style="fill: none; stroke: #000000; stroke-linejoin: miter"/>
   </g>
   <g id="patch_97">
    <path d="M 158.410286 223.827731 
L 174.353143 223.827731 
L 174.353143 220.972689 
L 158.410286 220.972689 
L 158.410286 223.827731 
z
" clip-path="url(#pbff2b63bd9)" style="fill: none; stroke: #000000; stroke-linejoin: miter"/>
   </g>
   <g id="patch_98">
    <path d="M 174.990857 212.750168 
L 190.933714 212.750168 
L 190.933714 209.895126 
L 174.990857 209.895126 
L 174.990857 212.750168 
z
" clip-path="url(#pbff2b63bd9)" style="fill: none; stroke: #000000; stroke-linejoin: miter"/>
   </g>
   <g id="patch_99">
    <path d="M 323.259429 144.571765 
L 339.202286 144.571765 
L 339.202286 141.716723 
L 323.259429 141.716723 
L 323.259429 144.571765 
z
" clip-path="url(#pbff2b63bd9)" style="fill: none; stroke: #000000; stroke-linejoin: miter"/>
   </g>
   <g id="patch_100">
    <path d="M 285.156 351.733613 
L 301.098857 351.733613 
L 301.098857 348.878571 
L 285.156 348.878571 
L 285.156 351.733613 
z
" clip-path="url(#pbff2b63bd9)" style="fill: none; stroke: #000000; stroke-linejoin: miter"/>
   </g>
   <g id="patch_101">
    <path d="M 273.996 88.784244 
L 289.938857 88.784244 
L 289.938857 85.929202 
L 273.996 85.929202 
L 273.996 88.784244 
z
" clip-path="url(#pbff2b63bd9)" style="fill: none; stroke: #000000; stroke-linejoin: miter"/>
   </g>
   <g id="patch_102">
    <path d="M 292.649143 226.054664 
L 308.592 226.054664 
L 308.592 223.199622 
L 292.649143 223.199622 
L 292.649143 226.054664 
z
" clip-path="url(#pbff2b63bd9)" style="fill: none; stroke: #000000; stroke-linejoin: miter"/>
   </g>
   <g id="patch_103">
    <path d="M 303.649714 178.147059 
L 319.592571 178.147059 
L 319.592571 175.292017 
L 303.649714 175.292017 
L 303.649714 178.147059 
z
" clip-path="url(#pbff2b63bd9)" style="fill: none; stroke: #000000; stroke-linejoin: miter"/>
   </g>
   <g id="patch_104">
    <path d="M 405.843429 80.904328 
L 421.786286 80.904328 
L 421.786286 78.049286 
L 405.843429 78.049286 
L 405.843429 80.904328 
z
" clip-path="url(#pbff2b63bd9)" style="fill: none; stroke: #000000; stroke-linejoin: miter"/>
   </g>
   <g id="patch_105">
    <path d="M 390.06 254.662185 
L 406.002857 254.662185 
L 406.002857 251.807143 
L 390.06 251.807143 
L 390.06 254.662185 
z
" clip-path="url(#pbff2b63bd9)" style="fill: none; stroke: #000000; stroke-linejoin: miter"/>
   </g>
   <g id="patch_106">
    <path d="M 305.084571 268.423487 
L 321.027429 268.423487 
L 321.027429 265.568445 
L 305.084571 265.568445 
L 305.084571 268.423487 
z
" clip-path="url(#pbff2b63bd9)" style="fill: none; stroke: #000000; stroke-linejoin: miter"/>
   </g>
   <g id="patch_107">
    <path d="M 323.418857 244.726639 
L 339.361714 244.726639 
L 339.361714 241.871597 
L 323.418857 241.871597 
L 323.418857 244.726639 
z
" clip-path="url(#pbff2b63bd9)" style="fill: none; stroke: #000000; stroke-linejoin: miter"/>
   </g>
   <g id="patch_108">
    <path d="M 360.565714 289.607899 
L 376.508571 289.607899 
L 376.508571 286.752857 
L 360.565714 286.752857 
L 360.565714 289.607899 
z
" clip-path="url(#pbff2b63bd9)" style="fill: none; stroke: #000000; stroke-linejoin: miter"/>
   </g>
   <g id="patch_109">
    <path d="M 381.610286 372.175714 
L 397.553143 372.175714 
L 397.553143 369.320672 
L 381.610286 369.320672 
L 381.610286 372.175714 
z
" clip-path="url(#pbff2b63bd9)" style="fill: none; stroke: #000000; stroke-linejoin: miter"/>
   </g>
   <g id="patch_110">
    <path d="M 399.944571 248.552395 
L 415.887429 248.552395 
L 415.887429 245.697353 
L 399.944571 245.697353 
L 399.944571 248.552395 
z
" clip-path="url(#pbff2b63bd9)" style="fill: none; stroke: #000000; stroke-linejoin: miter"/>
   </g>
   <g id="patch_111">
    <path d="M 149.960571 321.926975 
L 165.903429 321.926975 
L 165.903429 319.071933 
L 149.960571 319.071933 
L 149.960571 321.926975 
z
" clip-path="url(#pbff2b63bd9)" style="fill: none; stroke: #000000; stroke-linejoin: miter"/>
   </g>
   <g id="patch_112">
    <path d="M 381.769714 304.111513 
L 397.712571 304.111513 
L 397.712571 301.256471 
L 381.769714 301.256471 
L 381.769714 304.111513 
z
" clip-path="url(#pbff2b63bd9)" style="fill: none; stroke: #000000; stroke-linejoin: miter"/>
   </g>
   <g id="patch_113">
    <path d="M 304.606286 92.552899 
L 320.549143 92.552899 
L 320.549143 89.697857 
L 304.606286 89.697857 
L 304.606286 92.552899 
z
" clip-path="url(#pbff2b63bd9)" style="fill: none; stroke: #000000; stroke-linejoin: miter"/>
   </g>
   <g id="patch_114">
    <path d="M 384.639429 369.606176 
L 400.582286 369.606176 
L 400.582286 366.751134 
L 384.639429 366.751134 
L 384.639429 369.606176 
z
" clip-path="url(#pbff2b63bd9)" style="fill: none; stroke: #000000; stroke-linejoin: miter"/>
   </g>
   <g id="patch_115">
    <path d="M 221.862857 189.395924 
L 237.805714 189.395924 
L 237.805714 186.540882 
L 221.862857 186.540882 
L 221.862857 189.395924 
z
" clip-path="url(#pbff2b63bd9)" style="fill: none; stroke: #000000; stroke-linejoin: miter"/>
   </g>
   <g id="patch_116">
    <path d="M 246.414857 339.171429 
L 262.357714 339.171429 
L 262.357714 336.316387 
L 246.414857 336.316387 
L 246.414857 339.171429 
z
" clip-path="url(#pbff2b63bd9)" style="fill: none; stroke: #000000; stroke-linejoin: miter"/>
   </g>
   <g id="patch_117">
    <path d="M 352.434857 159.703487 
L 368.377714 159.703487 
L 368.377714 156.848445 
L 352.434857 156.848445 
L 352.434857 159.703487 
z
" clip-path="url(#pbff2b63bd9)" style="fill: none; stroke: #000000; stroke-linejoin: miter"/>
   </g>
   <g id="patch_118">
    <path d="M 347.333143 274.647479 
L 363.276 274.647479 
L 363.276 271.792437 
L 347.333143 271.792437 
L 347.333143 274.647479 
z
" clip-path="url(#pbff2b63bd9)" style="fill: none; stroke: #000000; stroke-linejoin: miter"/>
   </g>
   <g id="patch_119">
    <path d="M 361.522286 343.111387 
L 377.465143 343.111387 
L 377.465143 340.256345 
L 361.522286 340.256345 
L 361.522286 343.111387 
z
" clip-path="url(#pbff2b63bd9)" style="fill: none; stroke: #000000; stroke-linejoin: miter"/>
   </g>
   <g id="patch_120">
    <path d="M 375.233143 255.461597 
L 391.176 255.461597 
L 391.176 252.606555 
L 375.233143 252.606555 
L 375.233143 255.461597 
z
" clip-path="url(#pbff2b63bd9)" style="fill: none; stroke: #000000; stroke-linejoin: miter"/>
   </g>
   <g id="patch_121">
    <path d="M 283.561714 329.806891 
L 299.504571 329.806891 
L 299.504571 326.951849 
L 283.561714 326.951849 
L 283.561714 329.806891 
z
" clip-path="url(#pbff2b63bd9)" style="fill: none; stroke: #000000; stroke-linejoin: miter"/>
   </g>
   <g id="patch_122">
    <path d="M 271.923429 344.025 
L 287.866286 344.025 
L 287.866286 341.169958 
L 271.923429 341.169958 
L 271.923429 344.025 
z
" clip-path="url(#pbff2b63bd9)" style="fill: none; stroke: #000000; stroke-linejoin: miter"/>
   </g>
   <g id="patch_123">
    <path d="M 308.432571 301.541975 
L 324.375429 301.541975 
L 324.375429 298.686933 
L 308.432571 298.686933 
L 308.432571 301.541975 
z
" clip-path="url(#pbff2b63bd9)" style="fill: none; stroke: #000000; stroke-linejoin: miter"/>
   </g>
   <g id="patch_124">
    <path d="M 307.476 146.227689 
L 323.418857 146.227689 
L 323.418857 143.372647 
L 307.476 143.372647 
L 307.476 146.227689 
z
" clip-path="url(#pbff2b63bd9)" style="fill: none; stroke: #000000; stroke-linejoin: miter"/>
   </g>
   <g id="patch_125">
    <path d="M 401.060571 272.820252 
L 417.003429 272.820252 
L 417.003429 269.96521 
L 401.060571 269.96521 
L 401.060571 272.820252 
z
" clip-path="url(#pbff2b63bd9)" style="fill: none; stroke: #000000; stroke-linejoin: miter"/>
   </g>
   <g id="patch_126">
    <path d="M 319.433143 102.14584 
L 335.376 102.14584 
L 335.376 99.290798 
L 319.433143 99.290798 
L 319.433143 102.14584 
z
" clip-path="url(#pbff2b63bd9)" style="fill: none; stroke: #000000; stroke-linejoin: miter"/>
   </g>
   <g id="patch_127">
    <path d="M 477.267429 185.855672 
L 493.210286 185.855672 
L 493.210286 183.00063 
L 477.267429 183.00063 
L 477.267429 185.855672 
z
" clip-path="url(#pbff2b63bd9)" style="fill: none; stroke: #000000; stroke-linejoin: miter"/>
   </g>
   <g id="patch_128">
    <path d="M 329.955429 88.270336 
L 345.898286 88.270336 
L 345.898286 85.415294 
L 329.955429 85.415294 
L 329.955429 88.270336 
z
" clip-path="url(#pbff2b63bd9)" style="fill: none; stroke: #000000; stroke-linejoin: miter"/>
   </g>
   <g id="patch_129">
    <path d="M 332.346857 349.849286 
L 348.289714 349.849286 
L 348.289714 346.994244 
L 332.346857 346.994244 
L 332.346857 349.849286 
z
" clip-path="url(#pbff2b63bd9)" style="fill: none; stroke: #000000; stroke-linejoin: miter"/>
   </g>
   <g id="patch_130">
    <path d="M 329.636571 319.528739 
L 345.579429 319.528739 
L 345.579429 316.673697 
L 329.636571 316.673697 
L 329.636571 319.528739 
z
" clip-path="url(#pbff2b63bd9)" style="fill: none; stroke: #000000; stroke-linejoin: miter"/>
   </g>
   <g id="matplotlib.axis_1">
    <g id="xtick_1">
     <g id="line2d_1">
      <defs>
       <path id="m985d5de7a8" d="M 0 0 
L 0 3.5 
" style="stroke: #000000; stroke-width: 0.8"/>
      </defs>
      <g>
       <use xlink:href="#m985d5de7a8" x="87.942857" y="378" style="stroke: #000000; stroke-width: 0.8"/>
      </g>
     </g>
     <g id="text_1">
      <!-- 2500 -->
      <g transform="translate(75.217857 392.598437)scale(0.1 -0.1)">
       <defs>
        <path id="DejaVuSans-32" d="M 1228 531 
L 3431 531 
L 3431 0 
L 469 0 
L 469 531 
Q 828 903 1448 1529 
Q 2069 2156 2228 2338 
Q 2531 2678 2651 2914 
Q 2772 3150 2772 3378 
Q 2772 3750 2511 3984 
Q 2250 4219 1831 4219 
Q 1534 4219 1204 4116 
Q 875 4013 500 3803 
L 500 4441 
Q 881 4594 1212 4672 
Q 1544 4750 1819 4750 
Q 2544 4750 2975 4387 
Q 3406 4025 3406 3419 
Q 3406 3131 3298 2873 
Q 3191 2616 2906 2266 
Q 2828 2175 2409 1742 
Q 1991 1309 1228 531 
z
" transform="scale(0.015625)"/>
        <path id="DejaVuSans-35" d="M 691 4666 
L 3169 4666 
L 3169 4134 
L 1269 4134 
L 1269 2991 
Q 1406 3038 1543 3061 
Q 1681 3084 1819 3084 
Q 2600 3084 3056 2656 
Q 3513 2228 3513 1497 
Q 3513 744 3044 326 
Q 2575 -91 1722 -91 
Q 1428 -91 1123 -41 
Q 819 9 494 109 
L 494 744 
Q 775 591 1075 516 
Q 1375 441 1709 441 
Q 2250 441 2565 725 
Q 2881 1009 2881 1497 
Q 2881 1984 2565 2268 
Q 2250 2553 1709 2553 
Q 1456 2553 1204 2497 
Q 953 2441 691 2322 
L 691 4666 
z
" transform="scale(0.015625)"/>
        <path id="DejaVuSans-30" d="M 2034 4250 
Q 1547 4250 1301 3770 
Q 1056 3291 1056 2328 
Q 1056 1369 1301 889 
Q 1547 409 2034 409 
Q 2525 409 2770 889 
Q 3016 1369 3016 2328 
Q 3016 3291 2770 3770 
Q 2525 4250 2034 4250 
z
M 2034 4750 
Q 2819 4750 3233 4129 
Q 3647 3509 3647 2328 
Q 3647 1150 3233 529 
Q 2819 -91 2034 -91 
Q 1250 -91 836 529 
Q 422 1150 422 2328 
Q 422 3509 836 4129 
Q 1250 4750 2034 4750 
z
" transform="scale(0.015625)"/>
       </defs>
       <use xlink:href="#DejaVuSans-32"/>
       <use xlink:href="#DejaVuSans-35" x="63.623047"/>
       <use xlink:href="#DejaVuSans-30" x="127.246094"/>
       <use xlink:href="#DejaVuSans-30" x="190.869141"/>
      </g>
     </g>
    </g>
    <g id="xtick_2">
     <g id="line2d_2">
      <g>
       <use xlink:href="#m985d5de7a8" x="167.657143" y="378" style="stroke: #000000; stroke-width: 0.8"/>
      </g>
     </g>
     <g id="text_2">
      <!-- 3000 -->
      <g transform="translate(154.932143 392.598437)scale(0.1 -0.1)">
       <defs>
        <path id="DejaVuSans-33" d="M 2597 2516 
Q 3050 2419 3304 2112 
Q 3559 1806 3559 1356 
Q 3559 666 3084 287 
Q 2609 -91 1734 -91 
Q 1441 -91 1130 -33 
Q 819 25 488 141 
L 488 750 
Q 750 597 1062 519 
Q 1375 441 1716 441 
Q 2309 441 2620 675 
Q 2931 909 2931 1356 
Q 2931 1769 2642 2001 
Q 2353 2234 1838 2234 
L 1294 2234 
L 1294 2753 
L 1863 2753 
Q 2328 2753 2575 2939 
Q 2822 3125 2822 3475 
Q 2822 3834 2567 4026 
Q 2313 4219 1838 4219 
Q 1578 4219 1281 4162 
Q 984 4106 628 3988 
L 628 4550 
Q 988 4650 1302 4700 
Q 1616 4750 1894 4750 
Q 2613 4750 3031 4423 
Q 3450 4097 3450 3541 
Q 3450 3153 3228 2886 
Q 3006 2619 2597 2516 
z
" transform="scale(0.015625)"/>
       </defs>
       <use xlink:href="#DejaVuSans-33"/>
       <use xlink:href="#DejaVuSans-30" x="63.623047"/>
       <use xlink:href="#DejaVuSans-30" x="127.246094"/>
       <use xlink:href="#DejaVuSans-30" x="190.869141"/>
      </g>
     </g>
    </g>
    <g id="xtick_3">
     <g id="line2d_3">
      <g>
       <use xlink:href="#m985d5de7a8" x="247.371429" y="378" style="stroke: #000000; stroke-width: 0.8"/>
      </g>
     </g>
     <g id="text_3">
      <!-- 3500 -->
      <g transform="translate(234.646429 392.598437)scale(0.1 -0.1)">
       <use xlink:href="#DejaVuSans-33"/>
       <use xlink:href="#DejaVuSans-35" x="63.623047"/>
       <use xlink:href="#DejaVuSans-30" x="127.246094"/>
       <use xlink:href="#DejaVuSans-30" x="190.869141"/>
      </g>
     </g>
    </g>
    <g id="xtick_4">
     <g id="line2d_4">
      <g>
       <use xlink:href="#m985d5de7a8" x="327.085714" y="378" style="stroke: #000000; stroke-width: 0.8"/>
      </g>
     </g>
     <g id="text_4">
      <!-- 4000 -->
      <g transform="translate(314.360714 392.598437)scale(0.1 -0.1)">
       <defs>
        <path id="DejaVuSans-34" d="M 2419 4116 
L 825 1625 
L 2419 1625 
L 2419 4116 
z
M 2253 4666 
L 3047 4666 
L 3047 1625 
L 3713 1625 
L 3713 1100 
L 3047 1100 
L 3047 0 
L 2419 0 
L 2419 1100 
L 313 1100 
L 313 1709 
L 2253 4666 
z
" transform="scale(0.015625)"/>
       </defs>
       <use xlink:href="#DejaVuSans-34"/>
       <use xlink:href="#DejaVuSans-30" x="63.623047"/>
       <use xlink:href="#DejaVuSans-30" x="127.246094"/>
       <use xlink:href="#DejaVuSans-30" x="190.869141"/>
      </g>
     </g>
    </g>
    <g id="xtick_5">
     <g id="line2d_5">
      <g>
       <use xlink:href="#m985d5de7a8" x="406.8" y="378" style="stroke: #000000; stroke-width: 0.8"/>
      </g>
     </g>
     <g id="text_5">
      <!-- 4500 -->
      <g transform="translate(394.075 392.598437)scale(0.1 -0.1)">
       <use xlink:href="#DejaVuSans-34"/>
       <use xlink:href="#DejaVuSans-35" x="63.623047"/>
       <use xlink:href="#DejaVuSans-30" x="127.246094"/>
       <use xlink:href="#DejaVuSans-30" x="190.869141"/>
      </g>
     </g>
    </g>
    <g id="xtick_6">
     <g id="line2d_6">
      <g>
       <use xlink:href="#m985d5de7a8" x="486.514286" y="378" style="stroke: #000000; stroke-width: 0.8"/>
      </g>
     </g>
     <g id="text_6">
      <!-- 5000 -->
      <g transform="translate(473.789286 392.598437)scale(0.1 -0.1)">
       <use xlink:href="#DejaVuSans-35"/>
       <use xlink:href="#DejaVuSans-30" x="63.623047"/>
       <use xlink:href="#DejaVuSans-30" x="127.246094"/>
       <use xlink:href="#DejaVuSans-30" x="190.869141"/>
      </g>
     </g>
    </g>
   </g>
   <g id="matplotlib.axis_2">
    <g id="ytick_1">
     <g id="line2d_7">
      <defs>
       <path id="m244a88d04e" d="M 0 0 
L -3.5 0 
" style="stroke: #000000; stroke-width: 0.8"/>
      </defs>
      <g>
       <use xlink:href="#m244a88d04e" x="72" y="326.609244" style="stroke: #000000; stroke-width: 0.8"/>
      </g>
     </g>
     <g id="text_7">
      <!-- 8000 -->
      <g transform="translate(39.55 330.408462)scale(0.1 -0.1)">
       <defs>
        <path id="DejaVuSans-38" d="M 2034 2216 
Q 1584 2216 1326 1975 
Q 1069 1734 1069 1313 
Q 1069 891 1326 650 
Q 1584 409 2034 409 
Q 2484 409 2743 651 
Q 3003 894 3003 1313 
Q 3003 1734 2745 1975 
Q 2488 2216 2034 2216 
z
M 1403 2484 
Q 997 2584 770 2862 
Q 544 3141 544 3541 
Q 544 4100 942 4425 
Q 1341 4750 2034 4750 
Q 2731 4750 3128 4425 
Q 3525 4100 3525 3541 
Q 3525 3141 3298 2862 
Q 3072 2584 2669 2484 
Q 3125 2378 3379 2068 
Q 3634 1759 3634 1313 
Q 3634 634 3220 271 
Q 2806 -91 2034 -91 
Q 1263 -91 848 271 
Q 434 634 434 1313 
Q 434 1759 690 2068 
Q 947 2378 1403 2484 
z
M 1172 3481 
Q 1172 3119 1398 2916 
Q 1625 2713 2034 2713 
Q 2441 2713 2670 2916 
Q 2900 3119 2900 3481 
Q 2900 3844 2670 4047 
Q 2441 4250 2034 4250 
Q 1625 4250 1398 4047 
Q 1172 3844 1172 3481 
z
" transform="scale(0.015625)"/>
       </defs>
       <use xlink:href="#DejaVuSans-38"/>
       <use xlink:href="#DejaVuSans-30" x="63.623047"/>
       <use xlink:href="#DejaVuSans-30" x="127.246094"/>
       <use xlink:href="#DejaVuSans-30" x="190.869141"/>
      </g>
     </g>
    </g>
    <g id="ytick_2">
     <g id="line2d_8">
      <g>
       <use xlink:href="#m244a88d04e" x="72" y="269.508403" style="stroke: #000000; stroke-width: 0.8"/>
      </g>
     </g>
     <g id="text_8">
      <!-- 9000 -->
      <g transform="translate(39.55 273.307622)scale(0.1 -0.1)">
       <defs>
        <path id="DejaVuSans-39" d="M 703 97 
L 703 672 
Q 941 559 1184 500 
Q 1428 441 1663 441 
Q 2288 441 2617 861 
Q 2947 1281 2994 2138 
Q 2813 1869 2534 1725 
Q 2256 1581 1919 1581 
Q 1219 1581 811 2004 
Q 403 2428 403 3163 
Q 403 3881 828 4315 
Q 1253 4750 1959 4750 
Q 2769 4750 3195 4129 
Q 3622 3509 3622 2328 
Q 3622 1225 3098 567 
Q 2575 -91 1691 -91 
Q 1453 -91 1209 -44 
Q 966 3 703 97 
z
M 1959 2075 
Q 2384 2075 2632 2365 
Q 2881 2656 2881 3163 
Q 2881 3666 2632 3958 
Q 2384 4250 1959 4250 
Q 1534 4250 1286 3958 
Q 1038 3666 1038 3163 
Q 1038 2656 1286 2365 
Q 1534 2075 1959 2075 
z
" transform="scale(0.015625)"/>
       </defs>
       <use xlink:href="#DejaVuSans-39"/>
       <use xlink:href="#DejaVuSans-30" x="63.623047"/>
       <use xlink:href="#DejaVuSans-30" x="127.246094"/>
       <use xlink:href="#DejaVuSans-30" x="190.869141"/>
      </g>
     </g>
    </g>
    <g id="ytick_3">
     <g id="line2d_9">
      <g>
       <use xlink:href="#m244a88d04e" x="72" y="212.407563" style="stroke: #000000; stroke-width: 0.8"/>
      </g>
     </g>
     <g id="text_9">
      <!-- 10000 -->
      <g transform="translate(33.1875 216.206782)scale(0.1 -0.1)">
       <defs>
        <path id="DejaVuSans-31" d="M 794 531 
L 1825 531 
L 1825 4091 
L 703 3866 
L 703 4441 
L 1819 4666 
L 2450 4666 
L 2450 531 
L 3481 531 
L 3481 0 
L 794 0 
L 794 531 
z
" transform="scale(0.015625)"/>
       </defs>
       <use xlink:href="#DejaVuSans-31"/>
       <use xlink:href="#DejaVuSans-30" x="63.623047"/>
       <use xlink:href="#DejaVuSans-30" x="127.246094"/>
       <use xlink:href="#DejaVuSans-30" x="190.869141"/>
       <use xlink:href="#DejaVuSans-30" x="254.492188"/>
      </g>
     </g>
    </g>
    <g id="ytick_4">
     <g id="line2d_10">
      <g>
       <use xlink:href="#m244a88d04e" x="72" y="155.306723" style="stroke: #000000; stroke-width: 0.8"/>
      </g>
     </g>
     <g id="text_10">
      <!-- 11000 -->
      <g transform="translate(33.1875 159.105941)scale(0.1 -0.1)">
       <use xlink:href="#DejaVuSans-31"/>
       <use xlink:href="#DejaVuSans-31" x="63.623047"/>
       <use xlink:href="#DejaVuSans-30" x="127.246094"/>
       <use xlink:href="#DejaVuSans-30" x="190.869141"/>
       <use xlink:href="#DejaVuSans-30" x="254.492188"/>
      </g>
     </g>
    </g>
    <g id="ytick_5">
     <g id="line2d_11">
      <g>
       <use xlink:href="#m244a88d04e" x="72" y="98.205882" style="stroke: #000000; stroke-width: 0.8"/>
      </g>
     </g>
     <g id="text_11">
      <!-- 12000 -->
      <g transform="translate(33.1875 102.005101)scale(0.1 -0.1)">
       <use xlink:href="#DejaVuSans-31"/>
       <use xlink:href="#DejaVuSans-32" x="63.623047"/>
       <use xlink:href="#DejaVuSans-30" x="127.246094"/>
       <use xlink:href="#DejaVuSans-30" x="190.869141"/>
       <use xlink:href="#DejaVuSans-30" x="254.492188"/>
      </g>
     </g>
    </g>
   </g>
   <g id="patch_131">
    <path d="M 72 378 
L 72 51.84 
" style="fill: none; stroke: #000000; stroke-width: 0.8; stroke-linejoin: miter; stroke-linecap: square"/>
   </g>
   <g id="patch_132">
    <path d="M 518.4 378 
L 518.4 51.84 
" style="fill: none; stroke: #000000; stroke-width: 0.8; stroke-linejoin: miter; stroke-linecap: square"/>
   </g>
   <g id="patch_133">
    <path d="M 72 378 
L 518.4 378 
" style="fill: none; stroke: #000000; stroke-width: 0.8; stroke-linejoin: miter; stroke-linecap: square"/>
   </g>
   <g id="patch_134">
    <path d="M 72 51.84 
L 518.4 51.84 
" style="fill: none; stroke: #000000; stroke-width: 0.8; stroke-linejoin: miter; stroke-linecap: square"/>
   </g>
  </g>
 </g>
 <defs>
  <clipPath id="pbff2b63bd9">
   <rect x="72" y="51.84" width="446.4" height="326.16"/>
  </clipPath>
 </defs>
</svg>
