<?xml version="1.0" encoding="utf-8" standalone="no"?>
<!DOCTYPE svg PUBLIC "-//W3C//DTD SVG 1.1//EN"
  "http://www.w3.org/Graphics/SVG/1.1/DTD/svg11.dtd">
<svg xmlns:xlink="http://www.w3.org/1999/xlink" width="1152pt" height="648pt" viewBox="0 0 1152 648" xmlns="http://www.w3.org/2000/svg" version="1.1">
 <metadata>
  <rdf:RDF xmlns:dc="http://purl.org/dc/elements/1.1/" xmlns:cc="http://creativecommons.org/ns#" xmlns:rdf="http://www.w3.org/1999/02/22-rdf-syntax-ns#">
   <cc:Work>
    <dc:type rdf:resource="http://purl.org/dc/dcmitype/StillImage"/>
    <dc:date>2022-05-05T14:51:44.176389</dc:date>
    <dc:format>image/svg+xml</dc:format>
    <dc:creator>
     <cc:Agent>
      <dc:title>Matplotlib v3.5.1, https://matplotlib.org/</dc:title>
     </cc:Agent>
    </dc:creator>
   </cc:Work>
  </rdf:RDF>
 </metadata>
 <defs>
  <style type="text/css">*{stroke-linejoin: round; stroke-linecap: butt}</style>
 </defs>
 <g id="figure_1">
  <g id="patch_1">
   <path d="M 0 648 
L 1152 648 
L 1152 0 
L 0 0 
L 0 648 
z
" style="fill: none"/>
  </g>
  <g id="axes_1"/>
  <g id="axes_2">
   <g id="patch_2">
    <path d="M 144 567 
L 1036.8 567 
L 1036.8 77.76 
L 144 77.76 
z
" style="fill: #ffffff"/>
   </g>
   <g id="patch_3">
    <path d="M 689.245714 473.74663 
L 721.131429 473.74663 
L 721.131429 469.744339 
L 689.245714 469.744339 
L 689.245714 473.74663 
z
" clip-path="url(#pff63912667)" style="fill: none; stroke: #000000; stroke-linejoin: miter"/>
   </g>
   <g id="patch_4">
    <path d="M 714.116571 343.752232 
L 746.002286 343.752232 
L 746.002286 339.749941 
L 714.116571 339.749941 
L 714.116571 343.752232 
z
" clip-path="url(#pff63912667)" style="fill: none; stroke: #000000; stroke-linejoin: miter"/>
   </g>
   <g id="patch_5">
    <path d="M 832.731429 158.686315 
L 864.617143 158.686315 
L 864.617143 154.684025 
L 832.731429 154.684025 
L 832.731429 158.686315 
z
" clip-path="url(#pff63912667)" style="fill: none; stroke: #000000; stroke-linejoin: miter"/>
   </g>
   <g id="patch_6">
    <path d="M 726.552 548.589463 
L 758.437714 548.589463 
L 758.437714 544.587173 
L 726.552 544.587173 
L 726.552 548.589463 
z
" clip-path="url(#pff63912667)" style="fill: none; stroke: #000000; stroke-linejoin: miter"/>
   </g>
   <g id="patch_7">
    <path d="M 769.916571 404.74714 
L 801.802286 404.74714 
L 801.802286 400.744849 
L 769.916571 400.744849 
L 769.916571 404.74714 
z
" clip-path="url(#pff63912667)" style="fill: none; stroke: #000000; stroke-linejoin: miter"/>
   </g>
   <g id="patch_8">
    <path d="M 529.817143 476.948462 
L 561.702857 476.948462 
L 561.702857 472.946171 
L 529.817143 472.946171 
L 529.817143 476.948462 
z
" clip-path="url(#pff63912667)" style="fill: none; stroke: #000000; stroke-linejoin: miter"/>
   </g>
   <g id="patch_9">
    <path d="M 937.316571 345.673331 
L 969.202286 345.673331 
L 969.202286 341.671041 
L 937.316571 341.671041 
L 937.316571 345.673331 
z
" clip-path="url(#pff63912667)" style="fill: none; stroke: #000000; stroke-linejoin: miter"/>
   </g>
   <g id="patch_10">
    <path d="M 628.344 497.680327 
L 660.229714 497.680327 
L 660.229714 493.678037 
L 628.344 493.678037 
L 628.344 497.680327 
z
" clip-path="url(#pff63912667)" style="fill: none; stroke: #000000; stroke-linejoin: miter"/>
   </g>
   <g id="patch_11">
    <path d="M 438.624 499.601427 
L 470.509714 499.601427 
L 470.509714 495.599136 
L 438.624 495.599136 
L 438.624 499.601427 
z
" clip-path="url(#pff63912667)" style="fill: none; stroke: #000000; stroke-linejoin: miter"/>
   </g>
   <g id="patch_12">
    <path d="M 614.314286 514.569993 
L 646.2 514.569993 
L 646.2 510.567703 
L 614.314286 510.567703 
L 614.314286 514.569993 
z
" clip-path="url(#pff63912667)" style="fill: none; stroke: #000000; stroke-linejoin: miter"/>
   </g>
   <g id="patch_13">
    <path d="M 882.154286 293.883691 
L 914.04 293.883691 
L 914.04 289.881401 
L 882.154286 289.881401 
L 882.154286 293.883691 
z
" clip-path="url(#pff63912667)" style="fill: none; stroke: #000000; stroke-linejoin: miter"/>
   </g>
   <g id="patch_14">
    <path d="M 662.142857 502.963351 
L 694.028571 502.963351 
L 694.028571 498.96106 
L 662.142857 498.96106 
L 662.142857 502.963351 
z
" clip-path="url(#pff63912667)" style="fill: none; stroke: #000000; stroke-linejoin: miter"/>
   </g>
   <g id="patch_15">
    <path d="M 580.196571 464.701453 
L 612.082286 464.701453 
L 612.082286 460.699162 
L 580.196571 460.699162 
L 580.196571 464.701453 
z
" clip-path="url(#pff63912667)" style="fill: none; stroke: #000000; stroke-linejoin: miter"/>
   </g>
   <g id="patch_16">
    <path d="M 459.668571 334.947192 
L 491.554286 334.947192 
L 491.554286 330.944902 
L 459.668571 330.944902 
L 459.668571 334.947192 
z
" clip-path="url(#pff63912667)" style="fill: none; stroke: #000000; stroke-linejoin: miter"/>
   </g>
   <g id="patch_17">
    <path d="M 548.629714 344.152461 
L 580.515429 344.152461 
L 580.515429 340.15017 
L 548.629714 340.15017 
L 548.629714 344.152461 
z
" clip-path="url(#pff63912667)" style="fill: none; stroke: #000000; stroke-linejoin: miter"/>
   </g>
   <g id="patch_18">
    <path d="M 656.403429 473.186309 
L 688.289143 473.186309 
L 688.289143 469.184018 
L 656.403429 469.184018 
L 656.403429 473.186309 
z
" clip-path="url(#pff63912667)" style="fill: none; stroke: #000000; stroke-linejoin: miter"/>
   </g>
   <g id="patch_19">
    <path d="M 230.729143 482.551669 
L 262.614857 482.551669 
L 262.614857 478.549378 
L 230.729143 478.549378 
L 230.729143 482.551669 
z
" clip-path="url(#pff63912667)" style="fill: none; stroke: #000000; stroke-linejoin: miter"/>
   </g>
   <g id="patch_20">
    <path d="M 890.763429 160.207186 
L 922.649143 160.207186 
L 922.649143 156.204895 
L 890.763429 156.204895 
L 890.763429 160.207186 
z
" clip-path="url(#pff63912667)" style="fill: none; stroke: #000000; stroke-linejoin: miter"/>
   </g>
   <g id="patch_21">
    <path d="M 699.449143 143.637703 
L 731.334857 143.637703 
L 731.334857 139.635412 
L 699.449143 139.635412 
L 699.449143 143.637703 
z
" clip-path="url(#pff63912667)" style="fill: none; stroke: #000000; stroke-linejoin: miter"/>
   </g>
   <g id="patch_22">
    <path d="M 374.214857 464.141132 
L 406.100571 464.141132 
L 406.100571 460.138842 
L 374.214857 460.138842 
L 374.214857 464.141132 
z
" clip-path="url(#pff63912667)" style="fill: none; stroke: #000000; stroke-linejoin: miter"/>
   </g>
   <g id="patch_23">
    <path d="M 812.324571 401.785445 
L 844.210286 401.785445 
L 844.210286 397.783154 
L 812.324571 397.783154 
L 812.324571 401.785445 
z
" clip-path="url(#pff63912667)" style="fill: none; stroke: #000000; stroke-linejoin: miter"/>
   </g>
   <g id="patch_24">
    <path d="M 697.536 420.276027 
L 729.421714 420.276027 
L 729.421714 416.273737 
L 697.536 416.273737 
L 697.536 420.276027 
z
" clip-path="url(#pff63912667)" style="fill: none; stroke: #000000; stroke-linejoin: miter"/>
   </g>
   <g id="patch_25">
    <path d="M 810.411429 341.991224 
L 842.297143 341.991224 
L 842.297143 337.988933 
L 810.411429 337.988933 
L 810.411429 341.991224 
z
" clip-path="url(#pff63912667)" style="fill: none; stroke: #000000; stroke-linejoin: miter"/>
   </g>
   <g id="patch_26">
    <path d="M 781.076571 515.610589 
L 812.962286 515.610589 
L 812.962286 511.608298 
L 781.076571 511.608298 
L 781.076571 515.610589 
z
" clip-path="url(#pff63912667)" style="fill: none; stroke: #000000; stroke-linejoin: miter"/>
   </g>
   <g id="patch_27">
    <path d="M 733.885714 384.175366 
L 765.771429 384.175366 
L 765.771429 380.173076 
L 733.885714 380.173076 
L 733.885714 384.175366 
z
" clip-path="url(#pff63912667)" style="fill: none; stroke: #000000; stroke-linejoin: miter"/>
   </g>
   <g id="patch_28">
    <path d="M 671.708571 534.581446 
L 703.594286 534.581446 
L 703.594286 530.579156 
L 671.708571 530.579156 
L 671.708571 534.581446 
z
" clip-path="url(#pff63912667)" style="fill: none; stroke: #000000; stroke-linejoin: miter"/>
   </g>
   <g id="patch_29">
    <path d="M 618.778286 506.725504 
L 650.664 506.725504 
L 650.664 502.723213 
L 618.778286 502.723213 
L 618.778286 506.725504 
z
" clip-path="url(#pff63912667)" style="fill: none; stroke: #000000; stroke-linejoin: miter"/>
   </g>
   <g id="patch_30">
    <path d="M 713.16 485.833547 
L 745.045714 485.833547 
L 745.045714 481.831257 
L 713.16 481.831257 
L 713.16 485.833547 
z
" clip-path="url(#pff63912667)" style="fill: none; stroke: #000000; stroke-linejoin: miter"/>
   </g>
   <g id="patch_31">
    <path d="M 847.717714 176.136302 
L 879.603429 176.136302 
L 879.603429 172.134012 
L 847.717714 172.134012 
L 847.717714 176.136302 
z
" clip-path="url(#pff63912667)" style="fill: none; stroke: #000000; stroke-linejoin: miter"/>
   </g>
   <g id="patch_32">
    <path d="M 352.851429 341.751086 
L 384.737143 341.751086 
L 384.737143 337.748796 
L 352.851429 337.748796 
L 352.851429 341.751086 
z
" clip-path="url(#pff63912667)" style="fill: none; stroke: #000000; stroke-linejoin: miter"/>
   </g>
   <g id="patch_33">
    <path d="M 580.196571 418.675111 
L 612.082286 418.675111 
L 612.082286 414.672821 
L 580.196571 414.672821 
L 580.196571 418.675111 
z
" clip-path="url(#pff63912667)" style="fill: none; stroke: #000000; stroke-linejoin: miter"/>
   </g>
   <g id="patch_34">
    <path d="M 297.370286 346.793973 
L 329.256 346.793973 
L 329.256 342.791682 
L 297.370286 342.791682 
L 297.370286 346.793973 
z
" clip-path="url(#pff63912667)" style="fill: none; stroke: #000000; stroke-linejoin: miter"/>
   </g>
   <g id="patch_35">
    <path d="M 378.36 395.862055 
L 410.245714 395.862055 
L 410.245714 391.859764 
L 378.36 391.859764 
L 378.36 395.862055 
z
" clip-path="url(#pff63912667)" style="fill: none; stroke: #000000; stroke-linejoin: miter"/>
   </g>
   <g id="patch_36">
    <path d="M 949.752 137.794359 
L 981.637714 137.794359 
L 981.637714 133.792068 
L 949.752 133.792068 
L 949.752 137.794359 
z
" clip-path="url(#pff63912667)" style="fill: none; stroke: #000000; stroke-linejoin: miter"/>
   </g>
   <g id="patch_37">
    <path d="M 874.820571 334.787101 
L 906.706286 334.787101 
L 906.706286 330.78481 
L 874.820571 330.78481 
L 874.820571 334.787101 
z
" clip-path="url(#pff63912667)" style="fill: none; stroke: #000000; stroke-linejoin: miter"/>
   </g>
   <g id="patch_38">
    <path d="M 361.779429 452.694581 
L 393.665143 452.694581 
L 393.665143 448.692291 
L 361.779429 448.692291 
L 361.779429 452.694581 
z
" clip-path="url(#pff63912667)" style="fill: none; stroke: #000000; stroke-linejoin: miter"/>
   </g>
   <g id="patch_39">
    <path d="M 753.336 521.13375 
L 785.221714 521.13375 
L 785.221714 517.131459 
L 753.336 517.131459 
L 753.336 521.13375 
z
" clip-path="url(#pff63912667)" style="fill: none; stroke: #000000; stroke-linejoin: miter"/>
   </g>
   <g id="patch_40">
    <path d="M 650.982857 485.113135 
L 682.868571 485.113135 
L 682.868571 481.110844 
L 650.982857 481.110844 
L 650.982857 485.113135 
z
" clip-path="url(#pff63912667)" style="fill: none; stroke: #000000; stroke-linejoin: miter"/>
   </g>
   <g id="patch_41">
    <path d="M 410.245714 356.479516 
L 442.131429 356.479516 
L 442.131429 352.477225 
L 410.245714 352.477225 
L 410.245714 356.479516 
z
" clip-path="url(#pff63912667)" style="fill: none; stroke: #000000; stroke-linejoin: miter"/>
   </g>
   <g id="patch_42">
    <path d="M 735.798857 207.033986 
L 767.684571 207.033986 
L 767.684571 203.031695 
L 735.798857 203.031695 
L 735.798857 207.033986 
z
" clip-path="url(#pff63912667)" style="fill: none; stroke: #000000; stroke-linejoin: miter"/>
   </g>
   <g id="patch_43">
    <path d="M 437.667429 422.357219 
L 469.553143 422.357219 
L 469.553143 418.354928 
L 437.667429 418.354928 
L 437.667429 422.357219 
z
" clip-path="url(#pff63912667)" style="fill: none; stroke: #000000; stroke-linejoin: miter"/>
   </g>
   <g id="patch_44">
    <path d="M 471.147429 413.231996 
L 503.033143 413.231996 
L 503.033143 409.229705 
L 471.147429 409.229705 
L 471.147429 413.231996 
z
" clip-path="url(#pff63912667)" style="fill: none; stroke: #000000; stroke-linejoin: miter"/>
   </g>
   <g id="patch_45">
    <path d="M 499.844571 355.599012 
L 531.730286 355.599012 
L 531.730286 351.596721 
L 499.844571 351.596721 
L 499.844571 355.599012 
z
" clip-path="url(#pff63912667)" style="fill: none; stroke: #000000; stroke-linejoin: miter"/>
   </g>
   <g id="patch_46">
    <path d="M 374.214857 231.047729 
L 406.100571 231.047729 
L 406.100571 227.045438 
L 374.214857 227.045438 
L 374.214857 231.047729 
z
" clip-path="url(#pff63912667)" style="fill: none; stroke: #000000; stroke-linejoin: miter"/>
   </g>
   <g id="patch_47">
    <path d="M 532.049143 286.759614 
L 563.934857 286.759614 
L 563.934857 282.757323 
L 532.049143 282.757323 
L 532.049143 286.759614 
z
" clip-path="url(#pff63912667)" style="fill: none; stroke: #000000; stroke-linejoin: miter"/>
   </g>
   <g id="patch_48">
    <path d="M 629.619429 520.813567 
L 661.505143 520.813567 
L 661.505143 516.811276 
L 629.619429 516.811276 
L 629.619429 520.813567 
z
" clip-path="url(#pff63912667)" style="fill: none; stroke: #000000; stroke-linejoin: miter"/>
   </g>
   <g id="patch_49">
    <path d="M 805.947429 437.886106 
L 837.833143 437.886106 
L 837.833143 433.883815 
L 805.947429 433.883815 
L 805.947429 437.886106 
z
" clip-path="url(#pff63912667)" style="fill: none; stroke: #000000; stroke-linejoin: miter"/>
   </g>
   <g id="patch_50">
    <path d="M 770.554286 487.914738 
L 802.44 487.914738 
L 802.44 483.912448 
L 770.554286 483.912448 
L 770.554286 487.914738 
z
" clip-path="url(#pff63912667)" style="fill: none; stroke: #000000; stroke-linejoin: miter"/>
   </g>
   <g id="patch_51">
    <path d="M 623.88 353.517821 
L 655.765714 353.517821 
L 655.765714 349.51553 
L 623.88 349.51553 
L 623.88 353.517821 
z
" clip-path="url(#pff63912667)" style="fill: none; stroke: #000000; stroke-linejoin: miter"/>
   </g>
   <g id="patch_52">
    <path d="M 674.897143 454.615681 
L 706.782857 454.615681 
L 706.782857 450.61339 
L 674.897143 450.61339 
L 674.897143 454.615681 
z
" clip-path="url(#pff63912667)" style="fill: none; stroke: #000000; stroke-linejoin: miter"/>
   </g>
   <g id="patch_53">
    <path d="M 444.682286 366.485242 
L 476.568 366.485242 
L 476.568 362.482952 
L 444.682286 362.482952 
L 444.682286 366.485242 
z
" clip-path="url(#pff63912667)" style="fill: none; stroke: #000000; stroke-linejoin: miter"/>
   </g>
   <g id="patch_54">
    <path d="M 605.386286 423.637952 
L 637.272 423.637952 
L 637.272 419.635661 
L 605.386286 419.635661 
L 605.386286 423.637952 
z
" clip-path="url(#pff63912667)" style="fill: none; stroke: #000000; stroke-linejoin: miter"/>
   </g>
   <g id="patch_55">
    <path d="M 238.062857 463.340674 
L 269.948571 463.340674 
L 269.948571 459.338384 
L 238.062857 459.338384 
L 238.062857 463.340674 
z
" clip-path="url(#pff63912667)" style="fill: none; stroke: #000000; stroke-linejoin: miter"/>
   </g>
   <g id="patch_56">
    <path d="M 317.777143 444.69 
L 349.662857 444.69 
L 349.662857 440.687709 
L 317.777143 440.687709 
L 317.777143 444.69 
z
" clip-path="url(#pff63912667)" style="fill: none; stroke: #000000; stroke-linejoin: miter"/>
   </g>
   <g id="patch_57">
    <path d="M 853.138286 139.315229 
L 885.024 139.315229 
L 885.024 135.312938 
L 853.138286 135.312938 
L 853.138286 139.315229 
z
" clip-path="url(#pff63912667)" style="fill: none; stroke: #000000; stroke-linejoin: miter"/>
   </g>
   <g id="patch_58">
    <path d="M 751.422857 509.767245 
L 783.308571 509.767245 
L 783.308571 505.764954 
L 751.422857 505.764954 
L 751.422857 509.767245 
z
" clip-path="url(#pff63912667)" style="fill: none; stroke: #000000; stroke-linejoin: miter"/>
   </g>
   <g id="patch_59">
    <path d="M 418.217143 464.221178 
L 450.102857 464.221178 
L 450.102857 460.218887 
L 418.217143 460.218887 
L 418.217143 464.221178 
z
" clip-path="url(#pff63912667)" style="fill: none; stroke: #000000; stroke-linejoin: miter"/>
   </g>
   <g id="patch_60">
    <path d="M 428.420571 476.148004 
L 460.306286 476.148004 
L 460.306286 472.145713 
L 428.420571 472.145713 
L 428.420571 476.148004 
z
" clip-path="url(#pff63912667)" style="fill: none; stroke: #000000; stroke-linejoin: miter"/>
   </g>
   <g id="patch_61">
    <path d="M 653.852571 521.453933 
L 685.738286 521.453933 
L 685.738286 517.451643 
L 653.852571 517.451643 
L 653.852571 521.453933 
z
" clip-path="url(#pff63912667)" style="fill: none; stroke: #000000; stroke-linejoin: miter"/>
   </g>
   <g id="patch_62">
    <path d="M 557.238857 152.442742 
L 589.124571 152.442742 
L 589.124571 148.440452 
L 557.238857 148.440452 
L 557.238857 152.442742 
z
" clip-path="url(#pff63912667)" style="fill: none; stroke: #000000; stroke-linejoin: miter"/>
   </g>
   <g id="patch_63">
    <path d="M 766.409143 406.348056 
L 798.294857 406.348056 
L 798.294857 402.345766 
L 766.409143 402.345766 
L 766.409143 406.348056 
z
" clip-path="url(#pff63912667)" style="fill: none; stroke: #000000; stroke-linejoin: miter"/>
   </g>
   <g id="patch_64">
    <path d="M 633.764571 477.989058 
L 665.650286 477.989058 
L 665.650286 473.986767 
L 633.764571 473.986767 
L 633.764571 477.989058 
z
" clip-path="url(#pff63912667)" style="fill: none; stroke: #000000; stroke-linejoin: miter"/>
   </g>
   <g id="patch_65">
    <path d="M 642.054857 293.083233 
L 673.940571 293.083233 
L 673.940571 289.080942 
L 642.054857 289.080942 
L 642.054857 293.083233 
z
" clip-path="url(#pff63912667)" style="fill: none; stroke: #000000; stroke-linejoin: miter"/>
   </g>
   <g id="patch_66">
    <path d="M 563.297143 490.396158 
L 595.182857 490.396158 
L 595.182857 486.393868 
L 563.297143 486.393868 
L 563.297143 490.396158 
z
" clip-path="url(#pff63912667)" style="fill: none; stroke: #000000; stroke-linejoin: miter"/>
   </g>
   <g id="patch_67">
    <path d="M 619.734857 448.452153 
L 651.620571 448.452153 
L 651.620571 444.449863 
L 619.734857 444.449863 
L 619.734857 448.452153 
z
" clip-path="url(#pff63912667)" style="fill: none; stroke: #000000; stroke-linejoin: miter"/>
   </g>
   <g id="patch_68">
    <path d="M 565.529143 376.571014 
L 597.414857 376.571014 
L 597.414857 372.568724 
L 565.529143 372.568724 
L 565.529143 376.571014 
z
" clip-path="url(#pff63912667)" style="fill: none; stroke: #000000; stroke-linejoin: miter"/>
   </g>
   <g id="patch_69">
    <path d="M 689.245714 542.265844 
L 721.131429 542.265844 
L 721.131429 538.263554 
L 689.245714 538.263554 
L 689.245714 542.265844 
z
" clip-path="url(#pff63912667)" style="fill: none; stroke: #000000; stroke-linejoin: miter"/>
   </g>
   <g id="patch_70">
    <path d="M 647.794286 405.70769 
L 679.68 405.70769 
L 679.68 401.705399 
L 647.794286 401.705399 
L 647.794286 405.70769 
z
" clip-path="url(#pff63912667)" style="fill: none; stroke: #000000; stroke-linejoin: miter"/>
   </g>
   <g id="patch_71">
    <path d="M 898.734857 183.500517 
L 930.620571 183.500517 
L 930.620571 179.498226 
L 898.734857 179.498226 
L 898.734857 183.500517 
z
" clip-path="url(#pff63912667)" style="fill: none; stroke: #000000; stroke-linejoin: miter"/>
   </g>
   <g id="patch_72">
    <path d="M 675.853714 428.920975 
L 707.739429 428.920975 
L 707.739429 424.918685 
L 675.853714 424.918685 
L 675.853714 428.920975 
z
" clip-path="url(#pff63912667)" style="fill: none; stroke: #000000; stroke-linejoin: miter"/>
   </g>
   <g id="patch_73">
    <path d="M 735.161143 349.035255 
L 767.046857 349.035255 
L 767.046857 345.032965 
L 735.161143 345.032965 
L 735.161143 349.035255 
z
" clip-path="url(#pff63912667)" style="fill: none; stroke: #000000; stroke-linejoin: miter"/>
   </g>
   <g id="patch_74">
    <path d="M 701.681143 351.756813 
L 733.566857 351.756813 
L 733.566857 347.754522 
L 701.681143 347.754522 
L 701.681143 351.756813 
z
" clip-path="url(#pff63912667)" style="fill: none; stroke: #000000; stroke-linejoin: miter"/>
   </g>
   <g id="patch_75">
    <path d="M 415.347429 372.888907 
L 447.233143 372.888907 
L 447.233143 368.886616 
L 415.347429 368.886616 
L 415.347429 372.888907 
z
" clip-path="url(#pff63912667)" style="fill: none; stroke: #000000; stroke-linejoin: miter"/>
   </g>
   <g id="patch_76">
    <path d="M 419.492571 349.995805 
L 451.378286 349.995805 
L 451.378286 345.993514 
L 419.492571 345.993514 
L 419.492571 349.995805 
z
" clip-path="url(#pff63912667)" style="fill: none; stroke: #000000; stroke-linejoin: miter"/>
   </g>
   <g id="patch_77">
    <path d="M 775.337143 267.14839 
L 807.222857 267.14839 
L 807.222857 263.146099 
L 775.337143 263.146099 
L 775.337143 267.14839 
z
" clip-path="url(#pff63912667)" style="fill: none; stroke: #000000; stroke-linejoin: miter"/>
   </g>
   <g id="patch_78">
    <path d="M 502.076571 349.435484 
L 533.962286 349.435484 
L 533.962286 345.433194 
L 502.076571 345.433194 
L 502.076571 349.435484 
z
" clip-path="url(#pff63912667)" style="fill: none; stroke: #000000; stroke-linejoin: miter"/>
   </g>
   <g id="patch_79">
    <path d="M 380.592 422.757448 
L 412.477714 422.757448 
L 412.477714 418.755157 
L 380.592 418.755157 
L 380.592 422.757448 
z
" clip-path="url(#pff63912667)" style="fill: none; stroke: #000000; stroke-linejoin: miter"/>
   </g>
   <g id="patch_80">
    <path d="M 613.038857 377.051289 
L 644.924571 377.051289 
L 644.924571 373.048999 
L 613.038857 373.048999 
L 613.038857 377.051289 
z
" clip-path="url(#pff63912667)" style="fill: none; stroke: #000000; stroke-linejoin: miter"/>
   </g>
   <g id="patch_81">
    <path d="M 896.502857 140.115687 
L 928.388571 140.115687 
L 928.388571 136.113397 
L 896.502857 136.113397 
L 896.502857 140.115687 
z
" clip-path="url(#pff63912667)" style="fill: none; stroke: #000000; stroke-linejoin: miter"/>
   </g>
   <g id="patch_82">
    <path d="M 699.130286 517.611734 
L 731.016 517.611734 
L 731.016 513.609444 
L 699.130286 513.609444 
L 699.130286 517.611734 
z
" clip-path="url(#pff63912667)" style="fill: none; stroke: #000000; stroke-linejoin: miter"/>
   </g>
   <g id="patch_83">
    <path d="M 713.797714 289.561217 
L 745.683429 289.561217 
L 745.683429 285.558927 
L 713.797714 285.558927 
L 713.797714 289.561217 
z
" clip-path="url(#pff63912667)" style="fill: none; stroke: #000000; stroke-linejoin: miter"/>
   </g>
   <g id="patch_84">
    <path d="M 712.203429 531.379614 
L 744.089143 531.379614 
L 744.089143 527.377323 
L 712.203429 527.377323 
L 712.203429 531.379614 
z
" clip-path="url(#pff63912667)" style="fill: none; stroke: #000000; stroke-linejoin: miter"/>
   </g>
   <g id="patch_85">
    <path d="M 369.750857 470.224614 
L 401.636571 470.224614 
L 401.636571 466.222323 
L 369.750857 466.222323 
L 369.750857 470.224614 
z
" clip-path="url(#pff63912667)" style="fill: none; stroke: #000000; stroke-linejoin: miter"/>
   </g>
   <g id="patch_86">
    <path d="M 829.224 444.129679 
L 861.109714 444.129679 
L 861.109714 440.127389 
L 829.224 440.127389 
L 829.224 444.129679 
z
" clip-path="url(#pff63912667)" style="fill: none; stroke: #000000; stroke-linejoin: miter"/>
   </g>
   <g id="patch_87">
    <path d="M 218.612571 458.698017 
L 250.498286 458.698017 
L 250.498286 454.695726 
L 218.612571 454.695726 
L 218.612571 458.698017 
z
" clip-path="url(#pff63912667)" style="fill: none; stroke: #000000; stroke-linejoin: miter"/>
   </g>
   <g id="patch_88">
    <path d="M 572.544 136.993901 
L 604.429714 136.993901 
L 604.429714 132.99161 
L 572.544 132.99161 
L 572.544 136.993901 
z
" clip-path="url(#pff63912667)" style="fill: none; stroke: #000000; stroke-linejoin: miter"/>
   </g>
   <g id="patch_89">
    <path d="M 484.539429 271.230726 
L 516.425143 271.230726 
L 516.425143 267.228436 
L 484.539429 267.228436 
L 484.539429 271.230726 
z
" clip-path="url(#pff63912667)" style="fill: none; stroke: #000000; stroke-linejoin: miter"/>
   </g>
   <g id="patch_90">
    <path d="M 444.363429 161.167736 
L 476.249143 161.167736 
L 476.249143 157.165445 
L 444.363429 157.165445 
L 444.363429 161.167736 
z
" clip-path="url(#pff63912667)" style="fill: none; stroke: #000000; stroke-linejoin: miter"/>
   </g>
   <g id="patch_91">
    <path d="M 423.318857 175.816119 
L 455.204571 175.816119 
L 455.204571 171.813829 
L 423.318857 171.813829 
L 423.318857 175.816119 
z
" clip-path="url(#pff63912667)" style="fill: none; stroke: #000000; stroke-linejoin: miter"/>
   </g>
   <g id="patch_92">
    <path d="M 569.355429 147.720039 
L 601.241143 147.720039 
L 601.241143 143.717749 
L 569.355429 143.717749 
L 569.355429 147.720039 
z
" clip-path="url(#pff63912667)" style="fill: none; stroke: #000000; stroke-linejoin: miter"/>
   </g>
   <g id="patch_93">
    <path d="M 583.385143 143.397565 
L 615.270857 143.397565 
L 615.270857 139.395275 
L 583.385143 139.395275 
L 583.385143 143.397565 
z
" clip-path="url(#pff63912667)" style="fill: none; stroke: #000000; stroke-linejoin: miter"/>
   </g>
   <g id="patch_94">
    <path d="M 700.405714 461.259483 
L 732.291429 461.259483 
L 732.291429 457.257192 
L 700.405714 457.257192 
L 700.405714 461.259483 
z
" clip-path="url(#pff63912667)" style="fill: none; stroke: #000000; stroke-linejoin: miter"/>
   </g>
   <g id="patch_95">
    <path d="M 421.724571 185.581708 
L 453.610286 185.581708 
L 453.610286 181.579418 
L 421.724571 181.579418 
L 421.724571 185.581708 
z
" clip-path="url(#pff63912667)" style="fill: none; stroke: #000000; stroke-linejoin: miter"/>
   </g>
   <g id="patch_96">
    <path d="M 466.364571 184.300975 
L 498.250286 184.300975 
L 498.250286 180.298685 
L 466.364571 180.298685 
L 466.364571 184.300975 
z
" clip-path="url(#pff63912667)" style="fill: none; stroke: #000000; stroke-linejoin: miter"/>
   </g>
   <g id="patch_97">
    <path d="M 316.820571 334.867147 
L 348.706286 334.867147 
L 348.706286 330.864856 
L 316.820571 330.864856 
L 316.820571 334.867147 
z
" clip-path="url(#pff63912667)" style="fill: none; stroke: #000000; stroke-linejoin: miter"/>
   </g>
   <g id="patch_98">
    <path d="M 349.981714 315.335969 
L 381.867429 315.335969 
L 381.867429 311.333678 
L 349.981714 311.333678 
L 349.981714 315.335969 
z
" clip-path="url(#pff63912667)" style="fill: none; stroke: #000000; stroke-linejoin: miter"/>
   </g>
   <g id="patch_99">
    <path d="M 678.404571 223.76356 
L 710.290286 223.76356 
L 710.290286 219.76127 
L 678.404571 219.76127 
L 678.404571 223.76356 
z
" clip-path="url(#pff63912667)" style="fill: none; stroke: #000000; stroke-linejoin: miter"/>
   </g>
   <g id="patch_100">
    <path d="M 570.312 518.172055 
L 602.197714 518.172055 
L 602.197714 514.169764 
L 570.312 514.169764 
L 570.312 518.172055 
z
" clip-path="url(#pff63912667)" style="fill: none; stroke: #000000; stroke-linejoin: miter"/>
   </g>
   <g id="patch_101">
    <path d="M 516.106286 145.558802 
L 547.992 145.558802 
L 547.992 141.556512 
L 516.106286 141.556512 
L 516.106286 145.558802 
z
" clip-path="url(#pff63912667)" style="fill: none; stroke: #000000; stroke-linejoin: miter"/>
   </g>
   <g id="patch_102">
    <path d="M 617.184 337.988933 
L 649.069714 337.988933 
L 649.069714 333.986643 
L 617.184 333.986643 
L 617.184 337.988933 
z
" clip-path="url(#pff63912667)" style="fill: none; stroke: #000000; stroke-linejoin: miter"/>
   </g>
   <g id="patch_103">
    <path d="M 607.299429 274.832788 
L 639.185143 274.832788 
L 639.185143 270.830497 
L 607.299429 270.830497 
L 607.299429 274.832788 
z
" clip-path="url(#pff63912667)" style="fill: none; stroke: #000000; stroke-linejoin: miter"/>
   </g>
   <g id="patch_104">
    <path d="M 779.801143 134.51248 
L 811.686857 134.51248 
L 811.686857 130.51019 
L 779.801143 130.51019 
L 779.801143 134.51248 
z
" clip-path="url(#pff63912667)" style="fill: none; stroke: #000000; stroke-linejoin: miter"/>
   </g>
   <g id="patch_105">
    <path d="M 780.12 374.089594 
L 812.005714 374.089594 
L 812.005714 370.087304 
L 780.12 370.087304 
L 780.12 374.089594 
z
" clip-path="url(#pff63912667)" style="fill: none; stroke: #000000; stroke-linejoin: miter"/>
   </g>
   <g id="patch_106">
    <path d="M 610.169143 401.385216 
L 642.054857 401.385216 
L 642.054857 397.382925 
L 610.169143 397.382925 
L 610.169143 401.385216 
z
" clip-path="url(#pff63912667)" style="fill: none; stroke: #000000; stroke-linejoin: miter"/>
   </g>
   <g id="patch_107">
    <path d="M 614.952 360.161623 
L 646.837714 360.161623 
L 646.837714 356.159332 
L 614.952 356.159332 
L 614.952 360.161623 
z
" clip-path="url(#pff63912667)" style="fill: none; stroke: #000000; stroke-linejoin: miter"/>
   </g>
   <g id="patch_108">
    <path d="M 689.245714 431.082212 
L 721.131429 431.082212 
L 721.131429 427.079921 
L 689.245714 427.079921 
L 689.245714 431.082212 
z
" clip-path="url(#pff63912667)" style="fill: none; stroke: #000000; stroke-linejoin: miter"/>
   </g>
   <g id="patch_109">
    <path d="M 795.106286 542.826165 
L 826.992 542.826165 
L 826.992 538.823874 
L 795.106286 538.823874 
L 795.106286 542.826165 
z
" clip-path="url(#pff63912667)" style="fill: none; stroke: #000000; stroke-linejoin: miter"/>
   </g>
   <g id="patch_110">
    <path d="M 799.889143 369.526983 
L 831.774857 369.526983 
L 831.774857 365.524692 
L 799.889143 365.524692 
L 799.889143 369.526983 
z
" clip-path="url(#pff63912667)" style="fill: none; stroke: #000000; stroke-linejoin: miter"/>
   </g>
   <g id="patch_111">
    <path d="M 331.806857 472.385851 
L 363.692571 472.385851 
L 363.692571 468.38356 
L 331.806857 468.38356 
L 331.806857 472.385851 
z
" clip-path="url(#pff63912667)" style="fill: none; stroke: #000000; stroke-linejoin: miter"/>
   </g>
   <g id="patch_112">
    <path d="M 731.653714 447.411558 
L 763.539429 447.411558 
L 763.539429 443.409267 
L 731.653714 443.409267 
L 731.653714 447.411558 
z
" clip-path="url(#pff63912667)" style="fill: none; stroke: #000000; stroke-linejoin: miter"/>
   </g>
   <g id="patch_113">
    <path d="M 609.212571 150.841826 
L 641.098286 150.841826 
L 641.098286 146.839535 
L 609.212571 146.839535 
L 609.212571 150.841826 
z
" clip-path="url(#pff63912667)" style="fill: none; stroke: #000000; stroke-linejoin: miter"/>
   </g>
   <g id="patch_114">
    <path d="M 737.393143 539.224103 
L 769.278857 539.224103 
L 769.278857 535.221813 
L 737.393143 535.221813 
L 737.393143 539.224103 
z
" clip-path="url(#pff63912667)" style="fill: none; stroke: #000000; stroke-linejoin: miter"/>
   </g>
   <g id="patch_115">
    <path d="M 443.725714 282.597232 
L 475.611429 282.597232 
L 475.611429 278.594941 
L 443.725714 278.594941 
L 443.725714 282.597232 
z
" clip-path="url(#pff63912667)" style="fill: none; stroke: #000000; stroke-linejoin: miter"/>
   </g>
   <g id="patch_116">
    <path d="M 492.829714 496.559686 
L 524.715429 496.559686 
L 524.715429 492.557395 
L 492.829714 492.557395 
L 492.829714 496.559686 
z
" clip-path="url(#pff63912667)" style="fill: none; stroke: #000000; stroke-linejoin: miter"/>
   </g>
   <g id="patch_117">
    <path d="M 672.984 244.9757 
L 704.869714 244.9757 
L 704.869714 240.97341 
L 672.984 240.97341 
L 672.984 244.9757 
z
" clip-path="url(#pff63912667)" style="fill: none; stroke: #000000; stroke-linejoin: miter"/>
   </g>
   <g id="patch_118">
    <path d="M 694.666286 410.110209 
L 726.552 410.110209 
L 726.552 406.107919 
L 694.666286 406.107919 
L 694.666286 410.110209 
z
" clip-path="url(#pff63912667)" style="fill: none; stroke: #000000; stroke-linejoin: miter"/>
   </g>
   <g id="patch_119">
    <path d="M 723.044571 498.080556 
L 754.930286 498.080556 
L 754.930286 494.078266 
L 723.044571 494.078266 
L 723.044571 498.080556 
z
" clip-path="url(#pff63912667)" style="fill: none; stroke: #000000; stroke-linejoin: miter"/>
   </g>
   <g id="patch_120">
    <path d="M 750.466286 379.212526 
L 782.352 379.212526 
L 782.352 375.210236 
L 750.466286 375.210236 
L 750.466286 379.212526 
z
" clip-path="url(#pff63912667)" style="fill: none; stroke: #000000; stroke-linejoin: miter"/>
   </g>
   <g id="patch_121">
    <path d="M 567.123429 483.432173 
L 599.009143 483.432173 
L 599.009143 479.429882 
L 567.123429 479.429882 
L 567.123429 483.432173 
z
" clip-path="url(#pff63912667)" style="fill: none; stroke: #000000; stroke-linejoin: miter"/>
   </g>
   <g id="patch_122">
    <path d="M 575.732571 503.36358 
L 607.618286 503.36358 
L 607.618286 499.361289 
L 575.732571 499.361289 
L 575.732571 503.36358 
z
" clip-path="url(#pff63912667)" style="fill: none; stroke: #000000; stroke-linejoin: miter"/>
   </g>
   <g id="patch_123">
    <path d="M 616.865143 439.807205 
L 648.750857 439.807205 
L 648.750857 435.804915 
L 616.865143 435.804915 
L 616.865143 439.807205 
z
" clip-path="url(#pff63912667)" style="fill: none; stroke: #000000; stroke-linejoin: miter"/>
   </g>
   <g id="patch_124">
    <path d="M 614.952 222.082598 
L 646.837714 222.082598 
L 646.837714 218.080308 
L 614.952 218.080308 
L 614.952 222.082598 
z
" clip-path="url(#pff63912667)" style="fill: none; stroke: #000000; stroke-linejoin: miter"/>
   </g>
   <g id="patch_125">
    <path d="M 802.121143 407.548743 
L 834.006857 407.548743 
L 834.006857 403.546453 
L 802.121143 403.546453 
L 802.121143 407.548743 
z
" clip-path="url(#pff63912667)" style="fill: none; stroke: #000000; stroke-linejoin: miter"/>
   </g>
   <g id="patch_126">
    <path d="M 606.980571 160.287232 
L 638.866286 160.287232 
L 638.866286 156.284941 
L 606.980571 156.284941 
L 606.980571 160.287232 
z
" clip-path="url(#pff63912667)" style="fill: none; stroke: #000000; stroke-linejoin: miter"/>
   </g>
   <g id="patch_127">
    <path d="M 954.534857 285.638973 
L 986.420571 285.638973 
L 986.420571 281.636682 
L 954.534857 281.636682 
L 954.534857 285.638973 
z
" clip-path="url(#pff63912667)" style="fill: none; stroke: #000000; stroke-linejoin: miter"/>
   </g>
   <g id="patch_128">
    <path d="M 628.025143 140.836099 
L 659.910857 140.836099 
L 659.910857 136.833809 
L 628.025143 136.833809 
L 628.025143 140.836099 
z
" clip-path="url(#pff63912667)" style="fill: none; stroke: #000000; stroke-linejoin: miter"/>
   </g>
   <g id="patch_129">
    <path d="M 632.808 511.528253 
L 664.693714 511.528253 
L 664.693714 507.525962 
L 632.808 507.525962 
L 632.808 511.528253 
z
" clip-path="url(#pff63912667)" style="fill: none; stroke: #000000; stroke-linejoin: miter"/>
   </g>
   <g id="patch_130">
    <path d="M 691.158857 469.023927 
L 723.044571 469.023927 
L 723.044571 465.021636 
L 691.158857 465.021636 
L 691.158857 469.023927 
z
" clip-path="url(#pff63912667)" style="fill: none; stroke: #000000; stroke-linejoin: miter"/>
   </g>
   <g id="matplotlib.axis_1">
    <g id="xtick_1">
     <g id="line2d_1">
      <defs>
       <path id="ma4945a64c7" d="M 0 0 
L 0 3.5 
" style="stroke: #000000; stroke-width: 0.8"/>
      </defs>
      <g>
       <use xlink:href="#ma4945a64c7" x="175.885714" y="567" style="stroke: #000000; stroke-width: 0.8"/>
      </g>
     </g>
     <g id="text_1">
      <!-- 2500 -->
      <g transform="translate(163.160714 581.598438)scale(0.1 -0.1)">
       <defs>
        <path id="DejaVuSans-32" d="M 1228 531 
L 3431 531 
L 3431 0 
L 469 0 
L 469 531 
Q 828 903 1448 1529 
Q 2069 2156 2228 2338 
Q 2531 2678 2651 2914 
Q 2772 3150 2772 3378 
Q 2772 3750 2511 3984 
Q 2250 4219 1831 4219 
Q 1534 4219 1204 4116 
Q 875 4013 500 3803 
L 500 4441 
Q 881 4594 1212 4672 
Q 1544 4750 1819 4750 
Q 2544 4750 2975 4387 
Q 3406 4025 3406 3419 
Q 3406 3131 3298 2873 
Q 3191 2616 2906 2266 
Q 2828 2175 2409 1742 
Q 1991 1309 1228 531 
z
" transform="scale(0.015625)"/>
        <path id="DejaVuSans-35" d="M 691 4666 
L 3169 4666 
L 3169 4134 
L 1269 4134 
L 1269 2991 
Q 1406 3038 1543 3061 
Q 1681 3084 1819 3084 
Q 2600 3084 3056 2656 
Q 3513 2228 3513 1497 
Q 3513 744 3044 326 
Q 2575 -91 1722 -91 
Q 1428 -91 1123 -41 
Q 819 9 494 109 
L 494 744 
Q 775 591 1075 516 
Q 1375 441 1709 441 
Q 2250 441 2565 725 
Q 2881 1009 2881 1497 
Q 2881 1984 2565 2268 
Q 2250 2553 1709 2553 
Q 1456 2553 1204 2497 
Q 953 2441 691 2322 
L 691 4666 
z
" transform="scale(0.015625)"/>
        <path id="DejaVuSans-30" d="M 2034 4250 
Q 1547 4250 1301 3770 
Q 1056 3291 1056 2328 
Q 1056 1369 1301 889 
Q 1547 409 2034 409 
Q 2525 409 2770 889 
Q 3016 1369 3016 2328 
Q 3016 3291 2770 3770 
Q 2525 4250 2034 4250 
z
M 2034 4750 
Q 2819 4750 3233 4129 
Q 3647 3509 3647 2328 
Q 3647 1150 3233 529 
Q 2819 -91 2034 -91 
Q 1250 -91 836 529 
Q 422 1150 422 2328 
Q 422 3509 836 4129 
Q 1250 4750 2034 4750 
z
" transform="scale(0.015625)"/>
       </defs>
       <use xlink:href="#DejaVuSans-32"/>
       <use xlink:href="#DejaVuSans-35" x="63.623047"/>
       <use xlink:href="#DejaVuSans-30" x="127.246094"/>
       <use xlink:href="#DejaVuSans-30" x="190.869141"/>
      </g>
     </g>
    </g>
    <g id="xtick_2">
     <g id="line2d_2">
      <g>
       <use xlink:href="#ma4945a64c7" x="335.314286" y="567" style="stroke: #000000; stroke-width: 0.8"/>
      </g>
     </g>
     <g id="text_2">
      <!-- 3000 -->
      <g transform="translate(322.589286 581.598438)scale(0.1 -0.1)">
       <defs>
        <path id="DejaVuSans-33" d="M 2597 2516 
Q 3050 2419 3304 2112 
Q 3559 1806 3559 1356 
Q 3559 666 3084 287 
Q 2609 -91 1734 -91 
Q 1441 -91 1130 -33 
Q 819 25 488 141 
L 488 750 
Q 750 597 1062 519 
Q 1375 441 1716 441 
Q 2309 441 2620 675 
Q 2931 909 2931 1356 
Q 2931 1769 2642 2001 
Q 2353 2234 1838 2234 
L 1294 2234 
L 1294 2753 
L 1863 2753 
Q 2328 2753 2575 2939 
Q 2822 3125 2822 3475 
Q 2822 3834 2567 4026 
Q 2313 4219 1838 4219 
Q 1578 4219 1281 4162 
Q 984 4106 628 3988 
L 628 4550 
Q 988 4650 1302 4700 
Q 1616 4750 1894 4750 
Q 2613 4750 3031 4423 
Q 3450 4097 3450 3541 
Q 3450 3153 3228 2886 
Q 3006 2619 2597 2516 
z
" transform="scale(0.015625)"/>
       </defs>
       <use xlink:href="#DejaVuSans-33"/>
       <use xlink:href="#DejaVuSans-30" x="63.623047"/>
       <use xlink:href="#DejaVuSans-30" x="127.246094"/>
       <use xlink:href="#DejaVuSans-30" x="190.869141"/>
      </g>
     </g>
    </g>
    <g id="xtick_3">
     <g id="line2d_3">
      <g>
       <use xlink:href="#ma4945a64c7" x="494.742857" y="567" style="stroke: #000000; stroke-width: 0.8"/>
      </g>
     </g>
     <g id="text_3">
      <!-- 3500 -->
      <g transform="translate(482.017857 581.598438)scale(0.1 -0.1)">
       <use xlink:href="#DejaVuSans-33"/>
       <use xlink:href="#DejaVuSans-35" x="63.623047"/>
       <use xlink:href="#DejaVuSans-30" x="127.246094"/>
       <use xlink:href="#DejaVuSans-30" x="190.869141"/>
      </g>
     </g>
    </g>
    <g id="xtick_4">
     <g id="line2d_4">
      <g>
       <use xlink:href="#ma4945a64c7" x="654.171429" y="567" style="stroke: #000000; stroke-width: 0.8"/>
      </g>
     </g>
     <g id="text_4">
      <!-- 4000 -->
      <g transform="translate(641.446429 581.598438)scale(0.1 -0.1)">
       <defs>
        <path id="DejaVuSans-34" d="M 2419 4116 
L 825 1625 
L 2419 1625 
L 2419 4116 
z
M 2253 4666 
L 3047 4666 
L 3047 1625 
L 3713 1625 
L 3713 1100 
L 3047 1100 
L 3047 0 
L 2419 0 
L 2419 1100 
L 313 1100 
L 313 1709 
L 2253 4666 
z
" transform="scale(0.015625)"/>
       </defs>
       <use xlink:href="#DejaVuSans-34"/>
       <use xlink:href="#DejaVuSans-30" x="63.623047"/>
       <use xlink:href="#DejaVuSans-30" x="127.246094"/>
       <use xlink:href="#DejaVuSans-30" x="190.869141"/>
      </g>
     </g>
    </g>
    <g id="xtick_5">
     <g id="line2d_5">
      <g>
       <use xlink:href="#ma4945a64c7" x="813.6" y="567" style="stroke: #000000; stroke-width: 0.8"/>
      </g>
     </g>
     <g id="text_5">
      <!-- 4500 -->
      <g transform="translate(800.875 581.598438)scale(0.1 -0.1)">
       <use xlink:href="#DejaVuSans-34"/>
       <use xlink:href="#DejaVuSans-35" x="63.623047"/>
       <use xlink:href="#DejaVuSans-30" x="127.246094"/>
       <use xlink:href="#DejaVuSans-30" x="190.869141"/>
      </g>
     </g>
    </g>
    <g id="xtick_6">
     <g id="line2d_6">
      <g>
       <use xlink:href="#ma4945a64c7" x="973.028571" y="567" style="stroke: #000000; stroke-width: 0.8"/>
      </g>
     </g>
     <g id="text_6">
      <!-- 5000 -->
      <g transform="translate(960.303571 581.598438)scale(0.1 -0.1)">
       <use xlink:href="#DejaVuSans-35"/>
       <use xlink:href="#DejaVuSans-30" x="63.623047"/>
       <use xlink:href="#DejaVuSans-30" x="127.246094"/>
       <use xlink:href="#DejaVuSans-30" x="190.869141"/>
      </g>
     </g>
    </g>
   </g>
   <g id="matplotlib.axis_2">
    <g id="ytick_1">
     <g id="line2d_7">
      <defs>
       <path id="ma2aeff3472" d="M 0 0 
L -3.5 0 
" style="stroke: #000000; stroke-width: 0.8"/>
      </defs>
      <g>
       <use xlink:href="#ma2aeff3472" x="144" y="558.995419" style="stroke: #000000; stroke-width: 0.8"/>
      </g>
     </g>
     <g id="text_7">
      <!-- 7000 -->
      <g transform="translate(111.55 562.794638)scale(0.1 -0.1)">
       <defs>
        <path id="DejaVuSans-37" d="M 525 4666 
L 3525 4666 
L 3525 4397 
L 1831 0 
L 1172 0 
L 2766 4134 
L 525 4134 
L 525 4666 
z
" transform="scale(0.015625)"/>
       </defs>
       <use xlink:href="#DejaVuSans-37"/>
       <use xlink:href="#DejaVuSans-30" x="63.623047"/>
       <use xlink:href="#DejaVuSans-30" x="127.246094"/>
       <use xlink:href="#DejaVuSans-30" x="190.869141"/>
      </g>
     </g>
    </g>
    <g id="ytick_2">
     <g id="line2d_8">
      <g>
       <use xlink:href="#ma2aeff3472" x="144" y="478.949607" style="stroke: #000000; stroke-width: 0.8"/>
      </g>
     </g>
     <g id="text_8">
      <!-- 8000 -->
      <g transform="translate(111.55 482.748826)scale(0.1 -0.1)">
       <defs>
        <path id="DejaVuSans-38" d="M 2034 2216 
Q 1584 2216 1326 1975 
Q 1069 1734 1069 1313 
Q 1069 891 1326 650 
Q 1584 409 2034 409 
Q 2484 409 2743 651 
Q 3003 894 3003 1313 
Q 3003 1734 2745 1975 
Q 2488 2216 2034 2216 
z
M 1403 2484 
Q 997 2584 770 2862 
Q 544 3141 544 3541 
Q 544 4100 942 4425 
Q 1341 4750 2034 4750 
Q 2731 4750 3128 4425 
Q 3525 4100 3525 3541 
Q 3525 3141 3298 2862 
Q 3072 2584 2669 2484 
Q 3125 2378 3379 2068 
Q 3634 1759 3634 1313 
Q 3634 634 3220 271 
Q 2806 -91 2034 -91 
Q 1263 -91 848 271 
Q 434 634 434 1313 
Q 434 1759 690 2068 
Q 947 2378 1403 2484 
z
M 1172 3481 
Q 1172 3119 1398 2916 
Q 1625 2713 2034 2713 
Q 2441 2713 2670 2916 
Q 2900 3119 2900 3481 
Q 2900 3844 2670 4047 
Q 2441 4250 2034 4250 
Q 1625 4250 1398 4047 
Q 1172 3844 1172 3481 
z
" transform="scale(0.015625)"/>
       </defs>
       <use xlink:href="#DejaVuSans-38"/>
       <use xlink:href="#DejaVuSans-30" x="63.623047"/>
       <use xlink:href="#DejaVuSans-30" x="127.246094"/>
       <use xlink:href="#DejaVuSans-30" x="190.869141"/>
      </g>
     </g>
    </g>
    <g id="ytick_3">
     <g id="line2d_9">
      <g>
       <use xlink:href="#ma2aeff3472" x="144" y="398.903796" style="stroke: #000000; stroke-width: 0.8"/>
      </g>
     </g>
     <g id="text_9">
      <!-- 9000 -->
      <g transform="translate(111.55 402.703015)scale(0.1 -0.1)">
       <defs>
        <path id="DejaVuSans-39" d="M 703 97 
L 703 672 
Q 941 559 1184 500 
Q 1428 441 1663 441 
Q 2288 441 2617 861 
Q 2947 1281 2994 2138 
Q 2813 1869 2534 1725 
Q 2256 1581 1919 1581 
Q 1219 1581 811 2004 
Q 403 2428 403 3163 
Q 403 3881 828 4315 
Q 1253 4750 1959 4750 
Q 2769 4750 3195 4129 
Q 3622 3509 3622 2328 
Q 3622 1225 3098 567 
Q 2575 -91 1691 -91 
Q 1453 -91 1209 -44 
Q 966 3 703 97 
z
M 1959 2075 
Q 2384 2075 2632 2365 
Q 2881 2656 2881 3163 
Q 2881 3666 2632 3958 
Q 2384 4250 1959 4250 
Q 1534 4250 1286 3958 
Q 1038 3666 1038 3163 
Q 1038 2656 1286 2365 
Q 1534 2075 1959 2075 
z
" transform="scale(0.015625)"/>
       </defs>
       <use xlink:href="#DejaVuSans-39"/>
       <use xlink:href="#DejaVuSans-30" x="63.623047"/>
       <use xlink:href="#DejaVuSans-30" x="127.246094"/>
       <use xlink:href="#DejaVuSans-30" x="190.869141"/>
      </g>
     </g>
    </g>
    <g id="ytick_4">
     <g id="line2d_10">
      <g>
       <use xlink:href="#ma2aeff3472" x="144" y="318.857984" style="stroke: #000000; stroke-width: 0.8"/>
      </g>
     </g>
     <g id="text_10">
      <!-- 10000 -->
      <g transform="translate(105.1875 322.657203)scale(0.1 -0.1)">
       <defs>
        <path id="DejaVuSans-31" d="M 794 531 
L 1825 531 
L 1825 4091 
L 703 3866 
L 703 4441 
L 1819 4666 
L 2450 4666 
L 2450 531 
L 3481 531 
L 3481 0 
L 794 0 
L 794 531 
z
" transform="scale(0.015625)"/>
       </defs>
       <use xlink:href="#DejaVuSans-31"/>
       <use xlink:href="#DejaVuSans-30" x="63.623047"/>
       <use xlink:href="#DejaVuSans-30" x="127.246094"/>
       <use xlink:href="#DejaVuSans-30" x="190.869141"/>
       <use xlink:href="#DejaVuSans-30" x="254.492188"/>
      </g>
     </g>
    </g>
    <g id="ytick_5">
     <g id="line2d_11">
      <g>
       <use xlink:href="#ma2aeff3472" x="144" y="238.812173" style="stroke: #000000; stroke-width: 0.8"/>
      </g>
     </g>
     <g id="text_11">
      <!-- 11000 -->
      <g transform="translate(105.1875 242.611392)scale(0.1 -0.1)">
       <use xlink:href="#DejaVuSans-31"/>
       <use xlink:href="#DejaVuSans-31" x="63.623047"/>
       <use xlink:href="#DejaVuSans-30" x="127.246094"/>
       <use xlink:href="#DejaVuSans-30" x="190.869141"/>
       <use xlink:href="#DejaVuSans-30" x="254.492188"/>
      </g>
     </g>
    </g>
    <g id="ytick_6">
     <g id="line2d_12">
      <g>
       <use xlink:href="#ma2aeff3472" x="144" y="158.766361" style="stroke: #000000; stroke-width: 0.8"/>
      </g>
     </g>
     <g id="text_12">
      <!-- 12000 -->
      <g transform="translate(105.1875 162.56558)scale(0.1 -0.1)">
       <use xlink:href="#DejaVuSans-31"/>
       <use xlink:href="#DejaVuSans-32" x="63.623047"/>
       <use xlink:href="#DejaVuSans-30" x="127.246094"/>
       <use xlink:href="#DejaVuSans-30" x="190.869141"/>
       <use xlink:href="#DejaVuSans-30" x="254.492188"/>
      </g>
     </g>
    </g>
    <g id="ytick_7">
     <g id="line2d_13">
      <g>
       <use xlink:href="#ma2aeff3472" x="144" y="78.72055" style="stroke: #000000; stroke-width: 0.8"/>
      </g>
     </g>
     <g id="text_13">
      <!-- 13000 -->
      <g transform="translate(105.1875 82.519768)scale(0.1 -0.1)">
       <use xlink:href="#DejaVuSans-31"/>
       <use xlink:href="#DejaVuSans-33" x="63.623047"/>
       <use xlink:href="#DejaVuSans-30" x="127.246094"/>
       <use xlink:href="#DejaVuSans-30" x="190.869141"/>
       <use xlink:href="#DejaVuSans-30" x="254.492188"/>
      </g>
     </g>
    </g>
   </g>
   <g id="patch_131">
    <path d="M 144 567 
L 144 77.76 
" style="fill: none; stroke: #000000; stroke-width: 0.8; stroke-linejoin: miter; stroke-linecap: square"/>
   </g>
   <g id="patch_132">
    <path d="M 1036.8 567 
L 1036.8 77.76 
" style="fill: none; stroke: #000000; stroke-width: 0.8; stroke-linejoin: miter; stroke-linecap: square"/>
   </g>
   <g id="patch_133">
    <path d="M 144 567 
L 1036.8 567 
" style="fill: none; stroke: #000000; stroke-width: 0.8; stroke-linejoin: miter; stroke-linecap: square"/>
   </g>
   <g id="patch_134">
    <path d="M 144 77.76 
L 1036.8 77.76 
" style="fill: none; stroke: #000000; stroke-width: 0.8; stroke-linejoin: miter; stroke-linecap: square"/>
   </g>
   <g id="text_14">
    <!-- 3000_10_10_128_result59.099999999999994 -->
    <g transform="translate(452.6325 71.76)scale(0.12 -0.12)">
     <defs>
      <path id="DejaVuSans-5f" d="M 3263 -1063 
L 3263 -1509 
L -63 -1509 
L -63 -1063 
L 3263 -1063 
z
" transform="scale(0.015625)"/>
      <path id="DejaVuSans-72" d="M 2631 2963 
Q 2534 3019 2420 3045 
Q 2306 3072 2169 3072 
Q 1681 3072 1420 2755 
Q 1159 2438 1159 1844 
L 1159 0 
L 581 0 
L 581 3500 
L 1159 3500 
L 1159 2956 
Q 1341 3275 1631 3429 
Q 1922 3584 2338 3584 
Q 2397 3584 2469 3576 
Q 2541 3569 2628 3553 
L 2631 2963 
z
" transform="scale(0.015625)"/>
      <path id="DejaVuSans-65" d="M 3597 1894 
L 3597 1613 
L 953 1613 
Q 991 1019 1311 708 
Q 1631 397 2203 397 
Q 2534 397 2845 478 
Q 3156 559 3463 722 
L 3463 178 
Q 3153 47 2828 -22 
Q 2503 -91 2169 -91 
Q 1331 -91 842 396 
Q 353 884 353 1716 
Q 353 2575 817 3079 
Q 1281 3584 2069 3584 
Q 2775 3584 3186 3129 
Q 3597 2675 3597 1894 
z
M 3022 2063 
Q 3016 2534 2758 2815 
Q 2500 3097 2075 3097 
Q 1594 3097 1305 2825 
Q 1016 2553 972 2059 
L 3022 2063 
z
" transform="scale(0.015625)"/>
      <path id="DejaVuSans-73" d="M 2834 3397 
L 2834 2853 
Q 2591 2978 2328 3040 
Q 2066 3103 1784 3103 
Q 1356 3103 1142 2972 
Q 928 2841 928 2578 
Q 928 2378 1081 2264 
Q 1234 2150 1697 2047 
L 1894 2003 
Q 2506 1872 2764 1633 
Q 3022 1394 3022 966 
Q 3022 478 2636 193 
Q 2250 -91 1575 -91 
Q 1294 -91 989 -36 
Q 684 19 347 128 
L 347 722 
Q 666 556 975 473 
Q 1284 391 1588 391 
Q 1994 391 2212 530 
Q 2431 669 2431 922 
Q 2431 1156 2273 1281 
Q 2116 1406 1581 1522 
L 1381 1569 
Q 847 1681 609 1914 
Q 372 2147 372 2553 
Q 372 3047 722 3315 
Q 1072 3584 1716 3584 
Q 2034 3584 2315 3537 
Q 2597 3491 2834 3397 
z
" transform="scale(0.015625)"/>
      <path id="DejaVuSans-75" d="M 544 1381 
L 544 3500 
L 1119 3500 
L 1119 1403 
Q 1119 906 1312 657 
Q 1506 409 1894 409 
Q 2359 409 2629 706 
Q 2900 1003 2900 1516 
L 2900 3500 
L 3475 3500 
L 3475 0 
L 2900 0 
L 2900 538 
Q 2691 219 2414 64 
Q 2138 -91 1772 -91 
Q 1169 -91 856 284 
Q 544 659 544 1381 
z
M 1991 3584 
L 1991 3584 
z
" transform="scale(0.015625)"/>
      <path id="DejaVuSans-6c" d="M 603 4863 
L 1178 4863 
L 1178 0 
L 603 0 
L 603 4863 
z
" transform="scale(0.015625)"/>
      <path id="DejaVuSans-74" d="M 1172 4494 
L 1172 3500 
L 2356 3500 
L 2356 3053 
L 1172 3053 
L 1172 1153 
Q 1172 725 1289 603 
Q 1406 481 1766 481 
L 2356 481 
L 2356 0 
L 1766 0 
Q 1100 0 847 248 
Q 594 497 594 1153 
L 594 3053 
L 172 3053 
L 172 3500 
L 594 3500 
L 594 4494 
L 1172 4494 
z
" transform="scale(0.015625)"/>
      <path id="DejaVuSans-2e" d="M 684 794 
L 1344 794 
L 1344 0 
L 684 0 
L 684 794 
z
" transform="scale(0.015625)"/>
     </defs>
     <use xlink:href="#DejaVuSans-33"/>
     <use xlink:href="#DejaVuSans-30" x="63.623047"/>
     <use xlink:href="#DejaVuSans-30" x="127.246094"/>
     <use xlink:href="#DejaVuSans-30" x="190.869141"/>
     <use xlink:href="#DejaVuSans-5f" x="254.492188"/>
     <use xlink:href="#DejaVuSans-31" x="304.492188"/>
     <use xlink:href="#DejaVuSans-30" x="368.115234"/>
     <use xlink:href="#DejaVuSans-5f" x="431.738281"/>
     <use xlink:href="#DejaVuSans-31" x="481.738281"/>
     <use xlink:href="#DejaVuSans-30" x="545.361328"/>
     <use xlink:href="#DejaVuSans-5f" x="608.984375"/>
     <use xlink:href="#DejaVuSans-31" x="658.984375"/>
     <use xlink:href="#DejaVuSans-32" x="722.607422"/>
     <use xlink:href="#DejaVuSans-38" x="786.230469"/>
     <use xlink:href="#DejaVuSans-5f" x="849.853516"/>
     <use xlink:href="#DejaVuSans-72" x="899.853516"/>
     <use xlink:href="#DejaVuSans-65" x="938.716797"/>
     <use xlink:href="#DejaVuSans-73" x="1000.240234"/>
     <use xlink:href="#DejaVuSans-75" x="1052.339844"/>
     <use xlink:href="#DejaVuSans-6c" x="1115.71875"/>
     <use xlink:href="#DejaVuSans-74" x="1143.501953"/>
     <use xlink:href="#DejaVuSans-35" x="1182.710938"/>
     <use xlink:href="#DejaVuSans-39" x="1246.333984"/>
     <use xlink:href="#DejaVuSans-2e" x="1309.957031"/>
     <use xlink:href="#DejaVuSans-30" x="1341.744141"/>
     <use xlink:href="#DejaVuSans-39" x="1405.367188"/>
     <use xlink:href="#DejaVuSans-39" x="1468.990234"/>
     <use xlink:href="#DejaVuSans-39" x="1532.613281"/>
     <use xlink:href="#DejaVuSans-39" x="1596.236328"/>
     <use xlink:href="#DejaVuSans-39" x="1659.859375"/>
     <use xlink:href="#DejaVuSans-39" x="1723.482422"/>
     <use xlink:href="#DejaVuSans-39" x="1787.105469"/>
     <use xlink:href="#DejaVuSans-39" x="1850.728516"/>
     <use xlink:href="#DejaVuSans-39" x="1914.351562"/>
     <use xlink:href="#DejaVuSans-39" x="1977.974609"/>
     <use xlink:href="#DejaVuSans-39" x="2041.597656"/>
     <use xlink:href="#DejaVuSans-39" x="2105.220703"/>
     <use xlink:href="#DejaVuSans-39" x="2168.84375"/>
     <use xlink:href="#DejaVuSans-34" x="2232.466797"/>
    </g>
   </g>
  </g>
 </g>
 <defs>
  <clipPath id="pff63912667">
   <rect x="144" y="77.76" width="892.8" height="489.24"/>
  </clipPath>
 </defs>
</svg>
