<?xml version="1.0" encoding="utf-8" standalone="no"?>
<!DOCTYPE svg PUBLIC "-//W3C//DTD SVG 1.1//EN"
  "http://www.w3.org/Graphics/SVG/1.1/DTD/svg11.dtd">
<svg xmlns:xlink="http://www.w3.org/1999/xlink" width="1152pt" height="648pt" viewBox="0 0 1152 648" xmlns="http://www.w3.org/2000/svg" version="1.1">
 <metadata>
  <rdf:RDF xmlns:dc="http://purl.org/dc/elements/1.1/" xmlns:cc="http://creativecommons.org/ns#" xmlns:rdf="http://www.w3.org/1999/02/22-rdf-syntax-ns#">
   <cc:Work>
    <dc:type rdf:resource="http://purl.org/dc/dcmitype/StillImage"/>
    <dc:date>2022-04-20T19:01:38.524663</dc:date>
    <dc:format>image/svg+xml</dc:format>
    <dc:creator>
     <cc:Agent>
      <dc:title>Matplotlib v3.5.1, https://matplotlib.org/</dc:title>
     </cc:Agent>
    </dc:creator>
   </cc:Work>
  </rdf:RDF>
 </metadata>
 <defs>
  <style type="text/css">*{stroke-linejoin: round; stroke-linecap: butt}</style>
 </defs>
 <g id="figure_1">
  <g id="patch_1">
   <path d="M 0 648 
L 1152 648 
L 1152 0 
L 0 0 
L 0 648 
z
" style="fill: none"/>
  </g>
  <g id="axes_1"/>
  <g id="axes_2">
   <g id="patch_2">
    <path d="M 144 567 
L 1036.8 567 
L 1036.8 77.76 
L 144 77.76 
z
" style="fill: #ffffff"/>
   </g>
   <g id="patch_3">
    <path d="M 352.798449 253.793256 
L 387.136911 253.793256 
L 387.136911 246.266487 
L 352.798449 246.266487 
L 352.798449 253.793256 
z
" clip-path="url(#pbb15a573f5)" style="fill: none; stroke: #000000; stroke-linejoin: miter"/>
   </g>
   <g id="patch_4">
    <path d="M 780.873729 334.357912 
L 815.212191 334.357912 
L 815.212191 326.831143 
L 780.873729 326.831143 
L 780.873729 334.357912 
z
" clip-path="url(#pbb15a573f5)" style="fill: none; stroke: #000000; stroke-linejoin: miter"/>
   </g>
   <g id="patch_5">
    <path d="M 642.187551 224.901753 
L 676.526012 224.901753 
L 676.526012 217.374983 
L 642.187551 217.374983 
L 642.187551 224.901753 
z
" clip-path="url(#pbb15a573f5)" style="fill: none; stroke: #000000; stroke-linejoin: miter"/>
   </g>
   <g id="patch_6">
    <path d="M 859.795532 476.648192 
L 894.133994 476.648192 
L 894.133994 469.121422 
L 859.795532 469.121422 
L 859.795532 476.648192 
z
" clip-path="url(#pbb15a573f5)" style="fill: none; stroke: #000000; stroke-linejoin: miter"/>
   </g>
   <g id="patch_7">
    <path d="M 601.40376 207.63064 
L 635.742222 207.63064 
L 635.742222 200.10387 
L 601.40376 200.10387 
L 601.40376 207.63064 
z
" clip-path="url(#pbb15a573f5)" style="fill: none; stroke: #000000; stroke-linejoin: miter"/>
   </g>
   <g id="patch_8">
    <path d="M 658.434794 233.174613 
L 692.773255 233.174613 
L 692.773255 225.647844 
L 658.434794 225.647844 
L 658.434794 233.174613 
z
" clip-path="url(#pbb15a573f5)" style="fill: none; stroke: #000000; stroke-linejoin: miter"/>
   </g>
   <g id="patch_9">
    <path d="M 657.943754 303.242248 
L 692.282215 303.242248 
L 692.282215 295.715479 
L 657.943754 295.715479 
L 657.943754 303.242248 
z
" clip-path="url(#pbb15a573f5)" style="fill: none; stroke: #000000; stroke-linejoin: miter"/>
   </g>
   <g id="patch_10">
    <path d="M 442.90944 389.173491 
L 477.247902 389.173491 
L 477.247902 381.646722 
L 442.90944 381.646722 
L 442.90944 389.173491 
z
" clip-path="url(#pbb15a573f5)" style="fill: none; stroke: #000000; stroke-linejoin: miter"/>
   </g>
   <g id="patch_11">
    <path d="M 886.100511 232.579998 
L 920.438972 232.579998 
L 920.438972 225.053229 
L 886.100511 225.053229 
L 886.100511 232.579998 
z
" clip-path="url(#pbb15a573f5)" style="fill: none; stroke: #000000; stroke-linejoin: miter"/>
   </g>
   <g id="patch_12">
    <path d="M 587.191071 416.229404 
L 621.529532 416.229404 
L 621.529532 408.702635 
L 587.191071 408.702635 
L 587.191071 416.229404 
z
" clip-path="url(#pbb15a573f5)" style="fill: none; stroke: #000000; stroke-linejoin: miter"/>
   </g>
   <g id="patch_13">
    <path d="M 431.524523 244.0348 
L 465.862985 244.0348 
L 465.862985 236.508031 
L 431.524523 236.508031 
L 431.524523 244.0348 
z
" clip-path="url(#pbb15a573f5)" style="fill: none; stroke: #000000; stroke-linejoin: miter"/>
   </g>
   <g id="patch_14">
    <path d="M 882.642628 395.272997 
L 916.981089 395.272997 
L 916.981089 387.746227 
L 882.642628 387.746227 
L 882.642628 395.272997 
z
" clip-path="url(#pbb15a573f5)" style="fill: none; stroke: #000000; stroke-linejoin: miter"/>
   </g>
   <g id="patch_15">
    <path d="M 307.665521 260.854307 
L 342.003982 260.854307 
L 342.003982 253.327537 
L 307.665521 253.327537 
L 307.665521 260.854307 
z
" clip-path="url(#pbb15a573f5)" style="fill: none; stroke: #000000; stroke-linejoin: miter"/>
   </g>
   <g id="patch_16">
    <path d="M 884.900382 216.488706 
L 919.238843 216.488706 
L 919.238843 208.961937 
L 884.900382 208.961937 
L 884.900382 216.488706 
z
" clip-path="url(#pbb15a573f5)" style="fill: none; stroke: #000000; stroke-linejoin: miter"/>
   </g>
   <g id="patch_17">
    <path d="M 747.285563 343.487883 
L 781.624025 343.487883 
L 781.624025 335.961114 
L 747.285563 335.961114 
L 747.285563 343.487883 
z
" clip-path="url(#pbb15a573f5)" style="fill: none; stroke: #000000; stroke-linejoin: miter"/>
   </g>
   <g id="patch_18">
    <path d="M 333.816834 340.123418 
L 368.155296 340.123418 
L 368.155296 332.596648 
L 333.816834 332.596648 
L 333.816834 340.123418 
z
" clip-path="url(#pbb15a573f5)" style="fill: none; stroke: #000000; stroke-linejoin: miter"/>
   </g>
   <g id="patch_19">
    <path d="M 558.624905 358.198954 
L 592.963366 358.198954 
L 592.963366 350.672185 
L 558.624905 350.672185 
L 558.624905 358.198954 
z
" clip-path="url(#pbb15a573f5)" style="fill: none; stroke: #000000; stroke-linejoin: miter"/>
   </g>
   <g id="patch_20">
    <path d="M 630.119298 447.984843 
L 664.45776 447.984843 
L 664.45776 440.458074 
L 630.119298 440.458074 
L 630.119298 447.984843 
z
" clip-path="url(#pbb15a573f5)" style="fill: none; stroke: #000000; stroke-linejoin: miter"/>
   </g>
   <g id="patch_21">
    <path d="M 350.947606 433.697154 
L 385.286068 433.697154 
L 385.286068 426.170384 
L 350.947606 426.170384 
L 350.947606 433.697154 
z
" clip-path="url(#pbb15a573f5)" style="fill: none; stroke: #000000; stroke-linejoin: miter"/>
   </g>
   <g id="patch_22">
    <path d="M 586.562677 519.02522 
L 620.901138 519.02522 
L 620.901138 511.49845 
L 586.562677 511.49845 
L 586.562677 519.02522 
z
" clip-path="url(#pbb15a573f5)" style="fill: none; stroke: #000000; stroke-linejoin: miter"/>
   </g>
   <g id="patch_23">
    <path d="M 385.112658 477.776172 
L 419.45112 477.776172 
L 419.45112 470.249403 
L 385.112658 470.249403 
L 385.112658 477.776172 
z
" clip-path="url(#pbb15a573f5)" style="fill: none; stroke: #000000; stroke-linejoin: miter"/>
   </g>
   <g id="patch_24">
    <path d="M 531.545594 257.102212 
L 565.884055 257.102212 
L 565.884055 249.575443 
L 531.545594 249.575443 
L 531.545594 257.102212 
z
" clip-path="url(#pbb15a573f5)" style="fill: none; stroke: #000000; stroke-linejoin: miter"/>
   </g>
   <g id="patch_25">
    <path d="M 878.041274 545.075566 
L 912.379735 545.075566 
L 912.379735 537.548796 
L 878.041274 537.548796 
L 878.041274 545.075566 
z
" clip-path="url(#pbb15a573f5)" style="fill: none; stroke: #000000; stroke-linejoin: miter"/>
   </g>
   <g id="patch_26">
    <path d="M 635.908763 314.553101 
L 670.247225 314.553101 
L 670.247225 307.026332 
L 635.908763 307.026332 
L 635.908763 314.553101 
z
" clip-path="url(#pbb15a573f5)" style="fill: none; stroke: #000000; stroke-linejoin: miter"/>
   </g>
   <g id="patch_27">
    <path d="M 273.992195 304.399489 
L 308.330657 304.399489 
L 308.330657 296.87272 
L 273.992195 296.87272 
L 273.992195 304.399489 
z
" clip-path="url(#pbb15a573f5)" style="fill: none; stroke: #000000; stroke-linejoin: miter"/>
   </g>
   <g id="patch_28">
    <path d="M 873.467391 348.517647 
L 907.805852 348.517647 
L 907.805852 340.990878 
L 873.467391 340.990878 
L 873.467391 348.517647 
z
" clip-path="url(#pbb15a573f5)" style="fill: none; stroke: #000000; stroke-linejoin: miter"/>
   </g>
   <g id="patch_29">
    <path d="M 332.959403 322.375296 
L 367.297865 322.375296 
L 367.297865 314.848527 
L 332.959403 314.848527 
L 332.959403 322.375296 
z
" clip-path="url(#pbb15a573f5)" style="fill: none; stroke: #000000; stroke-linejoin: miter"/>
   </g>
   <g id="patch_30">
    <path d="M 943.045698 206.613585 
L 977.38416 206.613585 
L 977.38416 199.086816 
L 943.045698 199.086816 
L 943.045698 206.613585 
z
" clip-path="url(#pbb15a573f5)" style="fill: none; stroke: #000000; stroke-linejoin: miter"/>
   </g>
   <g id="patch_31">
    <path d="M 753.311963 541.905845 
L 787.650425 541.905845 
L 787.650425 534.379076 
L 753.311963 534.379076 
L 753.311963 541.905845 
z
" clip-path="url(#pbb15a573f5)" style="fill: none; stroke: #000000; stroke-linejoin: miter"/>
   </g>
   <g id="patch_32">
    <path d="M 503.369169 161.426626 
L 537.707631 161.426626 
L 537.707631 153.899857 
L 503.369169 153.899857 
L 503.369169 161.426626 
z
" clip-path="url(#pbb15a573f5)" style="fill: none; stroke: #000000; stroke-linejoin: miter"/>
   </g>
   <g id="patch_33">
    <path d="M 483.203908 322.195594 
L 517.542369 322.195594 
L 517.542369 314.668825 
L 483.203908 314.668825 
L 483.203908 322.195594 
z
" clip-path="url(#pbb15a573f5)" style="fill: none; stroke: #000000; stroke-linejoin: miter"/>
   </g>
   <g id="patch_34">
    <path d="M 444.646966 381.379521 
L 478.985428 381.379521 
L 478.985428 373.852752 
L 444.646966 373.852752 
L 444.646966 381.379521 
z
" clip-path="url(#pbb15a573f5)" style="fill: none; stroke: #000000; stroke-linejoin: miter"/>
   </g>
   <g id="patch_35">
    <path d="M 246.153833 245.460182 
L 280.492294 245.460182 
L 280.492294 237.933413 
L 246.153833 237.933413 
L 246.153833 245.460182 
z
" clip-path="url(#pbb15a573f5)" style="fill: none; stroke: #000000; stroke-linejoin: miter"/>
   </g>
   <g id="patch_36">
    <path d="M 696.801157 406.419201 
L 731.139618 406.419201 
L 731.139618 398.892432 
L 696.801157 398.892432 
L 696.801157 406.419201 
z
" clip-path="url(#pbb15a573f5)" style="fill: none; stroke: #000000; stroke-linejoin: miter"/>
   </g>
   <g id="patch_37">
    <path d="M 273.903945 513.923481 
L 308.242407 513.923481 
L 308.242407 506.396712 
L 273.903945 506.396712 
L 273.903945 513.923481 
z
" clip-path="url(#pbb15a573f5)" style="fill: none; stroke: #000000; stroke-linejoin: miter"/>
   </g>
   <g id="patch_38">
    <path d="M 420.70104 487.689398 
L 455.039502 487.689398 
L 455.039502 480.162628 
L 420.70104 480.162628 
L 420.70104 487.689398 
z
" clip-path="url(#pbb15a573f5)" style="fill: none; stroke: #000000; stroke-linejoin: miter"/>
   </g>
   <g id="patch_39">
    <path d="M 380.19024 226.312081 
L 414.528702 226.312081 
L 414.528702 218.785312 
L 380.19024 218.785312 
L 380.19024 226.312081 
z
" clip-path="url(#pbb15a573f5)" style="fill: none; stroke: #000000; stroke-linejoin: miter"/>
   </g>
   <g id="patch_40">
    <path d="M 491.661471 224.912102 
L 525.999932 224.912102 
L 525.999932 217.385333 
L 491.661471 217.385333 
L 491.661471 224.912102 
z
" clip-path="url(#pbb15a573f5)" style="fill: none; stroke: #000000; stroke-linejoin: miter"/>
   </g>
   <g id="patch_41">
    <path d="M 790.706548 239.872497 
L 825.045009 239.872497 
L 825.045009 232.345727 
L 790.706548 232.345727 
L 790.706548 239.872497 
z
" clip-path="url(#pbb15a573f5)" style="fill: none; stroke: #000000; stroke-linejoin: miter"/>
   </g>
   <g id="patch_42">
    <path d="M 617.226923 477.020579 
L 651.565385 477.020579 
L 651.565385 469.493809 
L 617.226923 469.493809 
L 617.226923 477.020579 
z
" clip-path="url(#pbb15a573f5)" style="fill: none; stroke: #000000; stroke-linejoin: miter"/>
   </g>
   <g id="patch_43">
    <path d="M 700.286511 461.866276 
L 734.624972 461.866276 
L 734.624972 454.339506 
L 700.286511 454.339506 
L 700.286511 461.866276 
z
" clip-path="url(#pbb15a573f5)" style="fill: none; stroke: #000000; stroke-linejoin: miter"/>
   </g>
   <g id="patch_44">
    <path d="M 361.8432 285.561867 
L 396.181662 285.561867 
L 396.181662 278.035098 
L 361.8432 278.035098 
L 361.8432 285.561867 
z
" clip-path="url(#pbb15a573f5)" style="fill: none; stroke: #000000; stroke-linejoin: miter"/>
   </g>
   <g id="patch_45">
    <path d="M 527.248135 333.302283 
L 561.586597 333.302283 
L 561.586597 325.775514 
L 527.248135 325.775514 
L 527.248135 333.302283 
z
" clip-path="url(#pbb15a573f5)" style="fill: none; stroke: #000000; stroke-linejoin: miter"/>
   </g>
   <g id="patch_46">
    <path d="M 591.946948 172.354554 
L 626.285409 172.354554 
L 626.285409 164.827785 
L 591.946948 164.827785 
L 591.946948 172.354554 
z
" clip-path="url(#pbb15a573f5)" style="fill: none; stroke: #000000; stroke-linejoin: miter"/>
   </g>
   <g id="patch_47">
    <path d="M 909.737391 141.818451 
L 944.075852 141.818451 
L 944.075852 134.291682 
L 909.737391 134.291682 
L 909.737391 141.818451 
z
" clip-path="url(#pbb15a573f5)" style="fill: none; stroke: #000000; stroke-linejoin: miter"/>
   </g>
   <g id="patch_48">
    <path d="M 731.651262 439.603786 
L 765.989723 439.603786 
L 765.989723 432.077016 
L 731.651262 432.077016 
L 731.651262 439.603786 
z
" clip-path="url(#pbb15a573f5)" style="fill: none; stroke: #000000; stroke-linejoin: miter"/>
   </g>
   <g id="patch_49">
    <path d="M 288.446799 204.636867 
L 322.78526 204.636867 
L 322.78526 197.110098 
L 288.446799 197.110098 
L 288.446799 204.636867 
z
" clip-path="url(#pbb15a573f5)" style="fill: none; stroke: #000000; stroke-linejoin: miter"/>
   </g>
   <g id="patch_50">
    <path d="M 694.548554 486.353961 
L 728.887015 486.353961 
L 728.887015 478.827191 
L 694.548554 478.827191 
L 694.548554 486.353961 
z
" clip-path="url(#pbb15a573f5)" style="fill: none; stroke: #000000; stroke-linejoin: miter"/>
   </g>
   <g id="patch_51">
    <path d="M 502.230849 291.338663 
L 536.569311 291.338663 
L 536.569311 283.811894 
L 502.230849 283.811894 
L 502.230849 291.338663 
z
" clip-path="url(#pbb15a573f5)" style="fill: none; stroke: #000000; stroke-linejoin: miter"/>
   </g>
   <g id="patch_52">
    <path d="M 757.084043 405.445425 
L 791.422505 405.445425 
L 791.422505 397.918656 
L 757.084043 397.918656 
L 757.084043 405.445425 
z
" clip-path="url(#pbb15a573f5)" style="fill: none; stroke: #000000; stroke-linejoin: miter"/>
   </g>
   <g id="patch_53">
    <path d="M 297.48657 458.386368 
L 331.825032 458.386368 
L 331.825032 450.859599 
L 297.48657 450.859599 
L 297.48657 458.386368 
z
" clip-path="url(#pbb15a573f5)" style="fill: none; stroke: #000000; stroke-linejoin: miter"/>
   </g>
   <g id="patch_54">
    <path d="M 354.178855 542.764179 
L 388.517317 542.764179 
L 388.517317 535.23741 
L 354.178855 535.23741 
L 354.178855 542.764179 
z
" clip-path="url(#pbb15a573f5)" style="fill: none; stroke: #000000; stroke-linejoin: miter"/>
   </g>
   <g id="patch_55">
    <path d="M 418.529132 189.127018 
L 452.867594 189.127018 
L 452.867594 181.600249 
L 418.529132 181.600249 
L 418.529132 189.127018 
z
" clip-path="url(#pbb15a573f5)" style="fill: none; stroke: #000000; stroke-linejoin: miter"/>
   </g>
   <g id="patch_56">
    <path d="M 756.888314 255.125494 
L 791.226775 255.125494 
L 791.226775 247.598725 
L 756.888314 247.598725 
L 756.888314 255.125494 
z
" clip-path="url(#pbb15a573f5)" style="fill: none; stroke: #000000; stroke-linejoin: miter"/>
   </g>
   <g id="patch_57">
    <path d="M 570.270794 269.650277 
L 604.609255 269.650277 
L 604.609255 262.123508 
L 570.270794 262.123508 
L 570.270794 269.650277 
z
" clip-path="url(#pbb15a573f5)" style="fill: none; stroke: #000000; stroke-linejoin: miter"/>
   </g>
   <g id="patch_58">
    <path d="M 429.493403 292.543887 
L 463.831865 292.543887 
L 463.831865 285.017118 
L 429.493403 285.017118 
L 429.493403 292.543887 
z
" clip-path="url(#pbb15a573f5)" style="fill: none; stroke: #000000; stroke-linejoin: miter"/>
   </g>
   <g id="patch_59">
    <path d="M 845.337323 439.640479 
L 879.675785 439.640479 
L 879.675785 432.113709 
L 845.337323 432.113709 
L 845.337323 439.640479 
z
" clip-path="url(#pbb15a573f5)" style="fill: none; stroke: #000000; stroke-linejoin: miter"/>
   </g>
   <g id="patch_60">
    <path d="M 597.523514 456.440228 
L 631.861975 456.440228 
L 631.861975 448.913458 
L 597.523514 448.913458 
L 597.523514 456.440228 
z
" clip-path="url(#pbb15a573f5)" style="fill: none; stroke: #000000; stroke-linejoin: miter"/>
   </g>
   <g id="patch_61">
    <path d="M 920.699945 495.900727 
L 955.038406 495.900727 
L 955.038406 488.373957 
L 920.699945 488.373957 
L 920.699945 495.900727 
z
" clip-path="url(#pbb15a573f5)" style="fill: none; stroke: #000000; stroke-linejoin: miter"/>
   </g>
   <g id="patch_62">
    <path d="M 612.213508 132.083516 
L 646.551969 132.083516 
L 646.551969 124.556747 
L 612.213508 124.556747 
L 612.213508 132.083516 
z
" clip-path="url(#pbb15a573f5)" style="fill: none; stroke: #000000; stroke-linejoin: miter"/>
   </g>
   <g id="patch_63">
    <path d="M 768.008825 306.824991 
L 802.347286 306.824991 
L 802.347286 299.298221 
L 768.008825 299.298221 
L 768.008825 306.824991 
z
" clip-path="url(#pbb15a573f5)" style="fill: none; stroke: #000000; stroke-linejoin: miter"/>
   </g>
   <g id="patch_64">
    <path d="M 354.400338 368.977287 
L 388.7388 368.977287 
L 388.7388 361.450518 
L 354.400338 361.450518 
L 354.400338 368.977287 
z
" clip-path="url(#pbb15a573f5)" style="fill: none; stroke: #000000; stroke-linejoin: miter"/>
   </g>
   <g id="patch_65">
    <path d="M 226.938716 414.728754 
L 261.277178 414.728754 
L 261.277178 407.201985 
L 226.938716 407.201985 
L 226.938716 414.728754 
z
" clip-path="url(#pbb15a573f5)" style="fill: none; stroke: #000000; stroke-linejoin: miter"/>
   </g>
   <g id="patch_66">
    <path d="M 832.285274 488.731479 
L 866.623735 488.731479 
L 866.623735 481.20471 
L 832.285274 481.20471 
L 832.285274 488.731479 
z
" clip-path="url(#pbb15a573f5)" style="fill: none; stroke: #000000; stroke-linejoin: miter"/>
   </g>
   <g id="patch_67">
    <path d="M 507.446862 189.098793 
L 541.785323 189.098793 
L 541.785323 181.572024 
L 507.446862 181.572024 
L 507.446862 189.098793 
z
" clip-path="url(#pbb15a573f5)" style="fill: none; stroke: #000000; stroke-linejoin: miter"/>
   </g>
   <g id="patch_68">
    <path d="M 464.705778 496.513123 
L 499.04424 496.513123 
L 499.04424 488.986354 
L 464.705778 488.986354 
L 464.705778 496.513123 
z
" clip-path="url(#pbb15a573f5)" style="fill: none; stroke: #000000; stroke-linejoin: miter"/>
   </g>
   <g id="patch_69">
    <path d="M 633.273286 518.045422 
L 667.611748 518.045422 
L 667.611748 510.518653 
L 633.273286 510.518653 
L 633.273286 518.045422 
z
" clip-path="url(#pbb15a573f5)" style="fill: none; stroke: #000000; stroke-linejoin: miter"/>
   </g>
   <g id="patch_70">
    <path d="M 562.101674 509.172302 
L 596.440135 509.172302 
L 596.440135 501.645533 
L 562.101674 501.645533 
L 562.101674 509.172302 
z
" clip-path="url(#pbb15a573f5)" style="fill: none; stroke: #000000; stroke-linejoin: miter"/>
   </g>
   <g id="patch_71">
    <path d="M 788.283969 191.703996 
L 822.622431 191.703996 
L 822.622431 184.177227 
L 788.283969 184.177227 
L 788.283969 191.703996 
z
" clip-path="url(#pbb15a573f5)" style="fill: none; stroke: #000000; stroke-linejoin: miter"/>
   </g>
   <g id="patch_72">
    <path d="M 704.177058 418.769688 
L 738.51552 418.769688 
L 738.51552 411.242919 
L 704.177058 411.242919 
L 704.177058 418.769688 
z
" clip-path="url(#pbb15a573f5)" style="fill: none; stroke: #000000; stroke-linejoin: miter"/>
   </g>
   <g id="patch_73">
    <path d="M 300.729323 158.357586 
L 335.067785 158.357586 
L 335.067785 150.830817 
L 300.729323 150.830817 
L 300.729323 158.357586 
z
" clip-path="url(#pbb15a573f5)" style="fill: none; stroke: #000000; stroke-linejoin: miter"/>
   </g>
   <g id="patch_74">
    <path d="M 620.722578 278.92702 
L 655.06104 278.92702 
L 655.06104 271.400251 
L 620.722578 271.400251 
L 620.722578 278.92702 
z
" clip-path="url(#pbb15a573f5)" style="fill: none; stroke: #000000; stroke-linejoin: miter"/>
   </g>
   <g id="patch_75">
    <path d="M 450.551465 181.098778 
L 484.889926 181.098778 
L 484.889926 173.572009 
L 450.551465 173.572009 
L 450.551465 181.098778 
z
" clip-path="url(#pbb15a573f5)" style="fill: none; stroke: #000000; stroke-linejoin: miter"/>
   </g>
   <g id="patch_76">
    <path d="M 463.776923 447.946269 
L 498.115385 447.946269 
L 498.115385 440.419499 
L 463.776923 440.419499 
L 463.776923 447.946269 
z
" clip-path="url(#pbb15a573f5)" style="fill: none; stroke: #000000; stroke-linejoin: miter"/>
   </g>
   <g id="patch_77">
    <path d="M 373.949225 140.283931 
L 408.287686 140.283931 
L 408.287686 132.757162 
L 373.949225 132.757162 
L 373.949225 140.283931 
z
" clip-path="url(#pbb15a573f5)" style="fill: none; stroke: #000000; stroke-linejoin: miter"/>
   </g>
   <g id="patch_78">
    <path d="M 623.938375 394.286049 
L 658.276837 394.286049 
L 658.276837 386.75928 
L 623.938375 386.75928 
L 623.938375 394.286049 
z
" clip-path="url(#pbb15a573f5)" style="fill: none; stroke: #000000; stroke-linejoin: miter"/>
   </g>
   <g id="patch_79">
    <path d="M 205.403694 364.392544 
L 239.742155 364.392544 
L 239.742155 356.865775 
L 205.403694 356.865775 
L 205.403694 364.392544 
z
" clip-path="url(#pbb15a573f5)" style="fill: none; stroke: #000000; stroke-linejoin: miter"/>
   </g>
   <g id="patch_80">
    <path d="M 352.628474 517.902132 
L 386.966935 517.902132 
L 386.966935 510.375362 
L 352.628474 510.375362 
L 352.628474 517.902132 
z
" clip-path="url(#pbb15a573f5)" style="fill: none; stroke: #000000; stroke-linejoin: miter"/>
   </g>
   <g id="patch_81">
    <path d="M 411.357545 499.053596 
L 445.696006 499.053596 
L 445.696006 491.526827 
L 411.357545 491.526827 
L 411.357545 499.053596 
z
" clip-path="url(#pbb15a573f5)" style="fill: none; stroke: #000000; stroke-linejoin: miter"/>
   </g>
   <g id="patch_82">
    <path d="M 888.780628 164.840016 
L 923.119089 164.840016 
L 923.119089 157.313247 
L 888.780628 157.313247 
L 888.780628 164.840016 
z
" clip-path="url(#pbb15a573f5)" style="fill: none; stroke: #000000; stroke-linejoin: miter"/>
   </g>
   <g id="patch_83">
    <path d="M 837.197391 283.172118 
L 871.535852 283.172118 
L 871.535852 275.645349 
L 837.197391 275.645349 
L 837.197391 283.172118 
z
" clip-path="url(#pbb15a573f5)" style="fill: none; stroke: #000000; stroke-linejoin: miter"/>
   </g>
   <g id="patch_84">
    <path d="M 598.340769 437.855694 
L 632.679231 437.855694 
L 632.679231 430.328924 
L 598.340769 430.328924 
L 598.340769 437.855694 
z
" clip-path="url(#pbb15a573f5)" style="fill: none; stroke: #000000; stroke-linejoin: miter"/>
   </g>
   <g id="patch_85">
    <path d="M 391.386295 293.546829 
L 425.724757 293.546829 
L 425.724757 286.02006 
L 391.386295 286.02006 
L 391.386295 293.546829 
z
" clip-path="url(#pbb15a573f5)" style="fill: none; stroke: #000000; stroke-linejoin: miter"/>
   </g>
   <g id="patch_86">
    <path d="M 853.412012 516.196283 
L 887.750474 516.196283 
L 887.750474 508.669514 
L 853.412012 508.669514 
L 853.412012 516.196283 
z
" clip-path="url(#pbb15a573f5)" style="fill: none; stroke: #000000; stroke-linejoin: miter"/>
   </g>
   <g id="patch_87">
    <path d="M 702.983797 320.51148 
L 737.322258 320.51148 
L 737.322258 312.98471 
L 702.983797 312.98471 
L 702.983797 320.51148 
z
" clip-path="url(#pbb15a573f5)" style="fill: none; stroke: #000000; stroke-linejoin: miter"/>
   </g>
   <g id="patch_88">
    <path d="M 404.771428 341.122596 
L 439.109889 341.122596 
L 439.109889 333.595827 
L 404.771428 333.595827 
L 404.771428 341.122596 
z
" clip-path="url(#pbb15a573f5)" style="fill: none; stroke: #000000; stroke-linejoin: miter"/>
   </g>
   <g id="patch_89">
    <path d="M 795.113889 476.992918 
L 829.452351 476.992918 
L 829.452351 469.466149 
L 795.113889 469.466149 
L 795.113889 476.992918 
z
" clip-path="url(#pbb15a573f5)" style="fill: none; stroke: #000000; stroke-linejoin: miter"/>
   </g>
   <g id="patch_90">
    <path d="M 163.472826 320.142668 
L 197.811288 320.142668 
L 197.811288 312.615899 
L 163.472826 312.615899 
L 163.472826 320.142668 
z
" clip-path="url(#pbb15a573f5)" style="fill: none; stroke: #000000; stroke-linejoin: miter"/>
   </g>
   <g id="patch_91">
    <path d="M 270.749442 376.949077 
L 305.087904 376.949077 
L 305.087904 369.422308 
L 270.749442 369.422308 
L 270.749442 376.949077 
z
" clip-path="url(#pbb15a573f5)" style="fill: none; stroke: #000000; stroke-linejoin: miter"/>
   </g>
   <g id="patch_92">
    <path d="M 863.442277 175.781116 
L 897.780738 175.781116 
L 897.780738 168.254346 
L 863.442277 168.254346 
L 863.442277 175.781116 
z
" clip-path="url(#pbb15a573f5)" style="fill: none; stroke: #000000; stroke-linejoin: miter"/>
   </g>
   <g id="patch_93">
    <path d="M 651.294111 360.54072 
L 685.632572 360.54072 
L 685.632572 353.013951 
L 651.294111 353.013951 
L 651.294111 360.54072 
z
" clip-path="url(#pbb15a573f5)" style="fill: none; stroke: #000000; stroke-linejoin: miter"/>
   </g>
   <g id="patch_94">
    <path d="M 564.944898 404.030393 
L 599.28336 404.030393 
L 599.28336 396.503623 
L 564.944898 396.503623 
L 564.944898 404.030393 
z
" clip-path="url(#pbb15a573f5)" style="fill: none; stroke: #000000; stroke-linejoin: miter"/>
   </g>
   <g id="patch_95">
    <path d="M 407.513354 369.462764 
L 441.851815 369.462764 
L 441.851815 361.935995 
L 407.513354 361.935995 
L 407.513354 369.462764 
z
" clip-path="url(#pbb15a573f5)" style="fill: none; stroke: #000000; stroke-linejoin: miter"/>
   </g>
   <g id="patch_96">
    <path d="M 505.38312 507.74692 
L 539.721582 507.74692 
L 539.721582 500.220151 
L 505.38312 500.220151 
L 505.38312 507.74692 
z
" clip-path="url(#pbb15a573f5)" style="fill: none; stroke: #000000; stroke-linejoin: miter"/>
   </g>
   <g id="patch_97">
    <path d="M 510.80688 304.204734 
L 545.145342 304.204734 
L 545.145342 296.677965 
L 510.80688 296.677965 
L 510.80688 304.204734 
z
" clip-path="url(#pbb15a573f5)" style="fill: none; stroke: #000000; stroke-linejoin: miter"/>
   </g>
   <g id="patch_98">
    <path d="M 510.448043 551.433813 
L 544.786505 551.433813 
L 544.786505 543.907044 
L 510.448043 543.907044 
L 510.448043 551.433813 
z
" clip-path="url(#pbb15a573f5)" style="fill: none; stroke: #000000; stroke-linejoin: miter"/>
   </g>
   <g id="patch_99">
    <path d="M 852.117452 255.784087 
L 886.455914 255.784087 
L 886.455914 248.257317 
L 852.117452 248.257317 
L 852.117452 255.784087 
z
" clip-path="url(#pbb15a573f5)" style="fill: none; stroke: #000000; stroke-linejoin: miter"/>
   </g>
   <g id="patch_100">
    <path d="M 363.707778 444.802902 
L 398.04624 444.802902 
L 398.04624 437.276132 
L 363.707778 437.276132 
L 363.707778 444.802902 
z
" clip-path="url(#pbb15a573f5)" style="fill: none; stroke: #000000; stroke-linejoin: miter"/>
   </g>
   <g id="patch_101">
    <path d="M 190.514708 469.671535 
L 224.85317 469.671535 
L 224.85317 462.144766 
L 190.514708 462.144766 
L 190.514708 469.671535 
z
" clip-path="url(#pbb15a573f5)" style="fill: none; stroke: #000000; stroke-linejoin: miter"/>
   </g>
   <g id="patch_102">
    <path d="M 225.064008 422.831321 
L 259.40247 422.831321 
L 259.40247 415.304552 
L 225.064008 415.304552 
L 225.064008 422.831321 
z
" clip-path="url(#pbb15a573f5)" style="fill: none; stroke: #000000; stroke-linejoin: miter"/>
   </g>
   <g id="patch_103">
    <path d="M 284.551615 192.617558 
L 318.890077 192.617558 
L 318.890077 185.090788 
L 284.551615 185.090788 
L 284.551615 192.617558 
z
" clip-path="url(#pbb15a573f5)" style="fill: none; stroke: #000000; stroke-linejoin: miter"/>
   </g>
   <g id="patch_104">
    <path d="M 636.001477 216.297714 
L 670.339938 216.297714 
L 670.339938 208.770945 
L 636.001477 208.770945 
L 636.001477 216.297714 
z
" clip-path="url(#pbb15a573f5)" style="fill: none; stroke: #000000; stroke-linejoin: miter"/>
   </g>
   <g id="patch_105">
    <path d="M 316.818953 350.151897 
L 351.157414 350.151897 
L 351.157414 342.625128 
L 316.818953 342.625128 
L 316.818953 350.151897 
z
" clip-path="url(#pbb15a573f5)" style="fill: none; stroke: #000000; stroke-linejoin: miter"/>
   </g>
   <g id="patch_106">
    <path d="M 671.138308 295.229062 
L 705.476769 295.229062 
L 705.476769 287.702292 
L 671.138308 287.702292 
L 671.138308 295.229062 
z
" clip-path="url(#pbb15a573f5)" style="fill: none; stroke: #000000; stroke-linejoin: miter"/>
   </g>
   <g id="patch_107">
    <path d="M 681.235532 374.612015 
L 715.573994 374.612015 
L 715.573994 367.085246 
L 681.235532 367.085246 
L 681.235532 374.612015 
z
" clip-path="url(#pbb15a573f5)" style="fill: none; stroke: #000000; stroke-linejoin: miter"/>
   </g>
   <g id="patch_108">
    <path d="M 688.42944 254.0868 
L 722.767902 254.0868 
L 722.767902 246.560031 
L 688.42944 246.560031 
L 688.42944 254.0868 
z
" clip-path="url(#pbb15a573f5)" style="fill: none; stroke: #000000; stroke-linejoin: miter"/>
   </g>
   <g id="patch_109">
    <path d="M 776.129871 391.409882 
L 810.468332 391.409882 
L 810.468332 383.883113 
L 776.129871 383.883113 
L 776.129871 391.409882 
z
" clip-path="url(#pbb15a573f5)" style="fill: none; stroke: #000000; stroke-linejoin: miter"/>
   </g>
   <g id="patch_110">
    <path d="M 319.514178 403.59384 
L 353.85264 403.59384 
L 353.85264 396.067071 
L 319.514178 396.067071 
L 319.514178 403.59384 
z
" clip-path="url(#pbb15a573f5)" style="fill: none; stroke: #000000; stroke-linejoin: miter"/>
   </g>
   <g id="patch_111">
    <path d="M 658.402172 165.858952 
L 692.740634 165.858952 
L 692.740634 158.332183 
L 658.402172 158.332183 
L 658.402172 165.858952 
z
" clip-path="url(#pbb15a573f5)" style="fill: none; stroke: #000000; stroke-linejoin: miter"/>
   </g>
   <g id="patch_112">
    <path d="M 256.732826 146.479403 
L 291.071287 146.479403 
L 291.071287 138.952634 
L 256.732826 138.952634 
L 256.732826 146.479403 
z
" clip-path="url(#pbb15a573f5)" style="fill: none; stroke: #000000; stroke-linejoin: miter"/>
   </g>
   <g id="patch_113">
    <path d="M 610.302572 245.560852 
L 644.641034 245.560852 
L 644.641034 238.034083 
L 610.302572 238.034083 
L 610.302572 245.560852 
z
" clip-path="url(#pbb15a573f5)" style="fill: none; stroke: #000000; stroke-linejoin: miter"/>
   </g>
   <g id="patch_114">
    <path d="M 832.800351 467.171519 
L 867.138812 467.171519 
L 867.138812 459.64475 
L 832.800351 459.64475 
L 832.800351 467.171519 
z
" clip-path="url(#pbb15a573f5)" style="fill: none; stroke: #000000; stroke-linejoin: miter"/>
   </g>
   <g id="patch_115">
    <path d="M 680.476652 520.575076 
L 714.815114 520.575076 
L 714.815114 513.048306 
L 680.476652 513.048306 
L 680.476652 520.575076 
z
" clip-path="url(#pbb15a573f5)" style="fill: none; stroke: #000000; stroke-linejoin: miter"/>
   </g>
   <g id="patch_116">
    <path d="M 831.502357 508.504584 
L 865.840818 508.504584 
L 865.840818 500.977815 
L 831.502357 500.977815 
L 831.502357 508.504584 
z
" clip-path="url(#pbb15a573f5)" style="fill: none; stroke: #000000; stroke-linejoin: miter"/>
   </g>
   <g id="patch_117">
    <path d="M 287.960223 289.64514 
L 322.298684 289.64514 
L 322.298684 282.118371 
L 287.960223 282.118371 
L 287.960223 289.64514 
z
" clip-path="url(#pbb15a573f5)" style="fill: none; stroke: #000000; stroke-linejoin: miter"/>
   </g>
   <g id="patch_118">
    <path d="M 697.606394 507.567219 
L 731.944855 507.567219 
L 731.944855 500.04045 
L 697.606394 500.04045 
L 697.606394 507.567219 
z
" clip-path="url(#pbb15a573f5)" style="fill: none; stroke: #000000; stroke-linejoin: miter"/>
   </g>
   <g id="patch_119">
    <path d="M 690.282 137.874424 
L 724.620462 137.874424 
L 724.620462 130.347655 
L 690.282 130.347655 
L 690.282 137.874424 
z
" clip-path="url(#pbb15a573f5)" style="fill: none; stroke: #000000; stroke-linejoin: miter"/>
   </g>
   <g id="patch_120">
    <path d="M 266.874004 270.127286 
L 301.212465 270.127286 
L 301.212465 262.600517 
L 266.874004 262.600517 
L 266.874004 270.127286 
z
" clip-path="url(#pbb15a573f5)" style="fill: none; stroke: #000000; stroke-linejoin: miter"/>
   </g>
   <g id="patch_121">
    <path d="M 675.257206 212.172104 
L 709.595668 212.172104 
L 709.595668 204.645335 
L 675.257206 204.645335 
L 675.257206 212.172104 
z
" clip-path="url(#pbb15a573f5)" style="fill: none; stroke: #000000; stroke-linejoin: miter"/>
   </g>
   <g id="patch_122">
    <path d="M 800.633797 425.874959 
L 834.972258 425.874959 
L 834.972258 418.348189 
L 800.633797 418.348189 
L 800.633797 425.874959 
z
" clip-path="url(#pbb15a573f5)" style="fill: none; stroke: #000000; stroke-linejoin: miter"/>
   </g>
   <g id="patch_123">
    <path d="M 656.19936 555.042117 
L 690.537822 555.042117 
L 690.537822 547.515348 
L 656.19936 547.515348 
L 656.19936 555.042117 
z
" clip-path="url(#pbb15a573f5)" style="fill: none; stroke: #000000; stroke-linejoin: miter"/>
   </g>
   <g id="patch_124">
    <path d="M 247.817531 221.297371 
L 282.155993 221.297371 
L 282.155993 213.770602 
L 247.817531 213.770602 
L 247.817531 221.297371 
z
" clip-path="url(#pbb15a573f5)" style="fill: none; stroke: #000000; stroke-linejoin: miter"/>
   </g>
   <g id="patch_125">
    <path d="M 465.914492 528.033633 
L 500.252954 528.033633 
L 500.252954 520.506864 
L 465.914492 520.506864 
L 465.914492 528.033633 
z
" clip-path="url(#pbb15a573f5)" style="fill: none; stroke: #000000; stroke-linejoin: miter"/>
   </g>
   <g id="patch_126">
    <path d="M 548.158542 171.031724 
L 582.497003 171.031724 
L 582.497003 163.504955 
L 548.158542 163.504955 
L 548.158542 171.031724 
z
" clip-path="url(#pbb15a573f5)" style="fill: none; stroke: #000000; stroke-linejoin: miter"/>
   </g>
   <g id="patch_127">
    <path d="M 587.294086 150.01134 
L 621.632548 150.01134 
L 621.632548 142.48457 
L 587.294086 142.48457 
L 587.294086 150.01134 
z
" clip-path="url(#pbb15a573f5)" style="fill: none; stroke: #000000; stroke-linejoin: miter"/>
   </g>
   <g id="patch_128">
    <path d="M 162.371592 251.42891 
L 196.710054 251.42891 
L 196.710054 243.902141 
L 162.371592 243.902141 
L 162.371592 251.42891 
z
" clip-path="url(#pbb15a573f5)" style="fill: none; stroke: #000000; stroke-linejoin: miter"/>
   </g>
   <g id="patch_129">
    <path d="M 291.581385 348.328537 
L 325.919847 348.328537 
L 325.919847 340.801768 
L 291.581385 340.801768 
L 291.581385 348.328537 
z
" clip-path="url(#pbb15a573f5)" style="fill: none; stroke: #000000; stroke-linejoin: miter"/>
   </g>
   <g id="patch_130">
    <path d="M 464.077385 351.177419 
L 498.415846 351.177419 
L 498.415846 343.65065 
L 464.077385 343.65065 
L 464.077385 351.177419 
z
" clip-path="url(#pbb15a573f5)" style="fill: none; stroke: #000000; stroke-linejoin: miter"/>
   </g>
   <g id="patch_131">
    <path d="M 446.295212 156.457077 
L 480.633674 156.457077 
L 480.633674 148.930307 
L 446.295212 148.930307 
L 446.295212 156.457077 
z
" clip-path="url(#pbb15a573f5)" style="fill: none; stroke: #000000; stroke-linejoin: miter"/>
   </g>
   <g id="patch_132">
    <path d="M 784.778012 453.354252 
L 819.116474 453.354252 
L 819.116474 445.827483 
L 784.778012 445.827483 
L 784.778012 453.354252 
z
" clip-path="url(#pbb15a573f5)" style="fill: none; stroke: #000000; stroke-linejoin: miter"/>
   </g>
   <g id="patch_133">
    <path d="M 289.93932 167.705833 
L 324.277782 167.705833 
L 324.277782 160.179064 
L 289.93932 160.179064 
L 289.93932 167.705833 
z
" clip-path="url(#pbb15a573f5)" style="fill: none; stroke: #000000; stroke-linejoin: miter"/>
   </g>
   <g id="patch_134">
    <path d="M 468.908806 213.689689 
L 503.247268 213.689689 
L 503.247268 206.16292 
L 468.908806 206.16292 
L 468.908806 213.689689 
z
" clip-path="url(#pbb15a573f5)" style="fill: none; stroke: #000000; stroke-linejoin: miter"/>
   </g>
   <g id="patch_135">
    <path d="M 884.836855 408.845643 
L 919.175317 408.845643 
L 919.175317 401.318874 
L 884.836855 401.318874 
L 884.836855 408.845643 
z
" clip-path="url(#pbb15a573f5)" style="fill: none; stroke: #000000; stroke-linejoin: miter"/>
   </g>
   <g id="patch_136">
    <path d="M 333.395158 138.90371 
L 367.73362 138.90371 
L 367.73362 131.376941 
L 333.395158 131.376941 
L 333.395158 138.90371 
z
" clip-path="url(#pbb15a573f5)" style="fill: none; stroke: #000000; stroke-linejoin: miter"/>
   </g>
   <g id="patch_137">
    <path d="M 397.826474 312.223566 
L 432.164935 312.223566 
L 432.164935 304.696797 
L 397.826474 304.696797 
L 397.826474 312.223566 
z
" clip-path="url(#pbb15a573f5)" style="fill: none; stroke: #000000; stroke-linejoin: miter"/>
   </g>
   <g id="patch_138">
    <path d="M 358.163834 161.527296 
L 392.502295 161.527296 
L 392.502295 154.000527 
L 358.163834 154.000527 
L 358.163834 161.527296 
z
" clip-path="url(#pbb15a573f5)" style="fill: none; stroke: #000000; stroke-linejoin: miter"/>
   </g>
   <g id="patch_139">
    <path d="M 489.20112 474.848447 
L 523.539582 474.848447 
L 523.539582 467.321678 
L 489.20112 467.321678 
L 489.20112 474.848447 
z
" clip-path="url(#pbb15a573f5)" style="fill: none; stroke: #000000; stroke-linejoin: miter"/>
   </g>
   <g id="patch_140">
    <path d="M 707.786031 148.470234 
L 742.124492 148.470234 
L 742.124492 140.943464 
L 707.786031 140.943464 
L 707.786031 148.470234 
z
" clip-path="url(#pbb15a573f5)" style="fill: none; stroke: #000000; stroke-linejoin: miter"/>
   </g>
   <g id="patch_141">
    <path d="M 365.452172 198.252285 
L 399.790634 198.252285 
L 399.790634 190.725516 
L 365.452172 190.725516 
L 365.452172 198.252285 
z
" clip-path="url(#pbb15a573f5)" style="fill: none; stroke: #000000; stroke-linejoin: miter"/>
   </g>
   <g id="patch_142">
    <path d="M 544.012172 493.003579 
L 578.350634 493.003579 
L 578.350634 485.47681 
L 544.012172 485.47681 
L 544.012172 493.003579 
z
" clip-path="url(#pbb15a573f5)" style="fill: none; stroke: #000000; stroke-linejoin: miter"/>
   </g>
   <g id="patch_143">
    <path d="M 679.089378 394.515615 
L 713.42784 394.515615 
L 713.42784 386.988846 
L 679.089378 386.988846 
L 679.089378 394.515615 
z
" clip-path="url(#pbb15a573f5)" style="fill: none; stroke: #000000; stroke-linejoin: miter"/>
   </g>
   <g id="patch_144">
    <path d="M 906.653797 521.574631 
L 940.992258 521.574631 
L 940.992258 514.047861 
L 906.653797 514.047861 
L 906.653797 521.574631 
z
" clip-path="url(#pbb15a573f5)" style="fill: none; stroke: #000000; stroke-linejoin: miter"/>
   </g>
   <g id="patch_145">
    <path d="M 408.366665 153.201749 
L 442.705126 153.201749 
L 442.705126 145.67498 
L 408.366665 145.67498 
L 408.366665 153.201749 
z
" clip-path="url(#pbb15a573f5)" style="fill: none; stroke: #000000; stroke-linejoin: miter"/>
   </g>
   <g id="patch_146">
    <path d="M 206.402256 461.454938 
L 240.740718 461.454938 
L 240.740718 453.928168 
L 206.402256 453.928168 
L 206.402256 461.454938 
z
" clip-path="url(#pbb15a573f5)" style="fill: none; stroke: #000000; stroke-linejoin: miter"/>
   </g>
   <g id="patch_147">
    <path d="M 611.614302 323.400818 
L 645.952763 323.400818 
L 645.952763 315.874049 
L 611.614302 315.874049 
L 611.614302 323.400818 
z
" clip-path="url(#pbb15a573f5)" style="fill: none; stroke: #000000; stroke-linejoin: miter"/>
   </g>
   <g id="patch_148">
    <path d="M 336.035786 387.579698 
L 370.374247 387.579698 
L 370.374247 380.052928 
L 336.035786 380.052928 
L 336.035786 387.579698 
z
" clip-path="url(#pbb15a573f5)" style="fill: none; stroke: #000000; stroke-linejoin: miter"/>
   </g>
   <g id="patch_149">
    <path d="M 384.915212 525.672862 
L 419.253674 525.672862 
L 419.253674 518.146093 
L 384.915212 518.146093 
L 384.915212 525.672862 
z
" clip-path="url(#pbb15a573f5)" style="fill: none; stroke: #000000; stroke-linejoin: miter"/>
   </g>
   <g id="patch_150">
    <path d="M 490.804726 466.514714 
L 525.143188 466.514714 
L 525.143188 458.987945 
L 490.804726 458.987945 
L 490.804726 466.514714 
z
" clip-path="url(#pbb15a573f5)" style="fill: none; stroke: #000000; stroke-linejoin: miter"/>
   </g>
   <g id="patch_151">
    <path d="M 805.829206 264.32697 
L 840.167668 264.32697 
L 840.167668 256.800201 
L 805.829206 256.800201 
L 805.829206 264.32697 
z
" clip-path="url(#pbb15a573f5)" style="fill: none; stroke: #000000; stroke-linejoin: miter"/>
   </g>
   <g id="patch_152">
    <path d="M 777.187495 315.510882 
L 811.525957 315.510882 
L 811.525957 307.984113 
L 777.187495 307.984113 
L 777.187495 315.510882 
z
" clip-path="url(#pbb15a573f5)" style="fill: none; stroke: #000000; stroke-linejoin: miter"/>
   </g>
   <g id="patch_153">
    <path d="M 438.666923 508.286308 
L 473.005385 508.286308 
L 473.005385 500.759538 
L 438.666923 500.759538 
L 438.666923 508.286308 
z
" clip-path="url(#pbb15a573f5)" style="fill: none; stroke: #000000; stroke-linejoin: miter"/>
   </g>
   <g id="patch_154">
    <path d="M 269.377793 204.227599 
L 303.716254 204.227599 
L 303.716254 196.70083 
L 269.377793 196.70083 
L 269.377793 204.227599 
z
" clip-path="url(#pbb15a573f5)" style="fill: none; stroke: #000000; stroke-linejoin: miter"/>
   </g>
   <g id="patch_155">
    <path d="M 247.714687 441.129838 
L 282.053149 441.129838 
L 282.053149 433.603069 
L 247.714687 433.603069 
L 247.714687 441.129838 
z
" clip-path="url(#pbb15a573f5)" style="fill: none; stroke: #000000; stroke-linejoin: miter"/>
   </g>
   <g id="patch_156">
    <path d="M 569.728246 426.81016 
L 604.066708 426.81016 
L 604.066708 419.28339 
L 569.728246 419.28339 
L 569.728246 426.81016 
z
" clip-path="url(#pbb15a573f5)" style="fill: none; stroke: #000000; stroke-linejoin: miter"/>
   </g>
   <g id="patch_157">
    <path d="M 695.158062 246.36998 
L 729.496523 246.36998 
L 729.496523 238.843211 
L 695.158062 238.843211 
L 695.158062 246.36998 
z
" clip-path="url(#pbb15a573f5)" style="fill: none; stroke: #000000; stroke-linejoin: miter"/>
   </g>
   <g id="patch_158">
    <path d="M 339.042462 424.154151 
L 373.380923 424.154151 
L 373.380923 416.627382 
L 339.042462 416.627382 
L 339.042462 424.154151 
z
" clip-path="url(#pbb15a573f5)" style="fill: none; stroke: #000000; stroke-linejoin: miter"/>
   </g>
   <g id="patch_159">
    <path d="M 863.895545 336.487047 
L 898.234006 336.487047 
L 898.234006 328.960278 
L 863.895545 328.960278 
L 863.895545 336.487047 
z
" clip-path="url(#pbb15a573f5)" style="fill: none; stroke: #000000; stroke-linejoin: miter"/>
   </g>
   <g id="patch_160">
    <path d="M 550.236018 236.699963 
L 584.57448 236.699963 
L 584.57448 229.173194 
L 550.236018 229.173194 
L 550.236018 236.699963 
z
" clip-path="url(#pbb15a573f5)" style="fill: none; stroke: #000000; stroke-linejoin: miter"/>
   </g>
   <g id="patch_161">
    <path d="M 345.903286 504.243304 
L 380.241748 504.243304 
L 380.241748 496.716534 
L 345.903286 496.716534 
L 345.903286 504.243304 
z
" clip-path="url(#pbb15a573f5)" style="fill: none; stroke: #000000; stroke-linejoin: miter"/>
   </g>
   <g id="patch_162">
    <path d="M 224.910858 161.94221 
L 259.24932 161.94221 
L 259.24932 154.41544 
L 224.910858 154.41544 
L 224.910858 161.94221 
z
" clip-path="url(#pbb15a573f5)" style="fill: none; stroke: #000000; stroke-linejoin: miter"/>
   </g>
   <g id="patch_163">
    <path d="M 828.224751 301.073598 
L 862.563212 301.073598 
L 862.563212 293.546829 
L 828.224751 293.546829 
L 828.224751 301.073598 
z
" clip-path="url(#pbb15a573f5)" style="fill: none; stroke: #000000; stroke-linejoin: miter"/>
   </g>
   <g id="patch_164">
    <path d="M 215.631233 330.20784 
L 249.969694 330.20784 
L 249.969694 322.681071 
L 215.631233 322.681071 
L 215.631233 330.20784 
z
" clip-path="url(#pbb15a573f5)" style="fill: none; stroke: #000000; stroke-linejoin: miter"/>
   </g>
   <g id="patch_165">
    <path d="M 892.617951 153.432256 
L 926.956412 153.432256 
L 926.956412 145.905487 
L 892.617951 145.905487 
L 892.617951 153.432256 
z
" clip-path="url(#pbb15a573f5)" style="fill: none; stroke: #000000; stroke-linejoin: miter"/>
   </g>
   <g id="patch_166">
    <path d="M 226.747623 538.348882 
L 261.086084 538.348882 
L 261.086084 530.822113 
L 226.747623 530.822113 
L 226.747623 538.348882 
z
" clip-path="url(#pbb15a573f5)" style="fill: none; stroke: #000000; stroke-linejoin: miter"/>
   </g>
   <g id="patch_167">
    <path d="M 277.364747 367.187798 
L 311.703209 367.187798 
L 311.703209 359.661029 
L 277.364747 359.661029 
L 277.364747 367.187798 
z
" clip-path="url(#pbb15a573f5)" style="fill: none; stroke: #000000; stroke-linejoin: miter"/>
   </g>
   <g id="patch_168">
    <path d="M 831.526394 365.159334 
L 865.864855 365.159334 
L 865.864855 357.632565 
L 831.526394 357.632565 
L 831.526394 365.159334 
z
" clip-path="url(#pbb15a573f5)" style="fill: none; stroke: #000000; stroke-linejoin: miter"/>
   </g>
   <g id="patch_169">
    <path d="M 554.485403 537.009494 
L 588.823865 537.009494 
L 588.823865 529.482725 
L 554.485403 529.482725 
L 554.485403 537.009494 
z
" clip-path="url(#pbb15a573f5)" style="fill: none; stroke: #000000; stroke-linejoin: miter"/>
   </g>
   <g id="patch_170">
    <path d="M 530.293957 209.836924 
L 564.632418 209.836924 
L 564.632418 202.310155 
L 530.293957 202.310155 
L 530.293957 209.836924 
z
" clip-path="url(#pbb15a573f5)" style="fill: none; stroke: #000000; stroke-linejoin: miter"/>
   </g>
   <g id="patch_171">
    <path d="M 878.195797 287.423802 
L 912.534258 287.423802 
L 912.534258 279.897033 
L 878.195797 279.897033 
L 878.195797 287.423802 
z
" clip-path="url(#pbb15a573f5)" style="fill: none; stroke: #000000; stroke-linejoin: miter"/>
   </g>
   <g id="patch_172">
    <path d="M 420.992917 517.326334 
L 455.331378 517.326334 
L 455.331378 509.799565 
L 420.992917 509.799565 
L 420.992917 517.326334 
z
" clip-path="url(#pbb15a573f5)" style="fill: none; stroke: #000000; stroke-linejoin: miter"/>
   </g>
   <g id="patch_173">
    <path d="M 646.933126 281.386392 
L 681.271588 281.386392 
L 681.271588 273.859623 
L 646.933126 273.859623 
L 646.933126 281.386392 
z
" clip-path="url(#pbb15a573f5)" style="fill: none; stroke: #000000; stroke-linejoin: miter"/>
   </g>
   <g id="patch_174">
    <path d="M 722.984234 221.419681 
L 757.322695 221.419681 
L 757.322695 213.892912 
L 722.984234 213.892912 
L 722.984234 221.419681 
z
" clip-path="url(#pbb15a573f5)" style="fill: none; stroke: #000000; stroke-linejoin: miter"/>
   </g>
   <g id="patch_175">
    <path d="M 678.843858 311.691047 
L 713.18232 311.691047 
L 713.18232 304.164278 
L 678.843858 304.164278 
L 678.843858 311.691047 
z
" clip-path="url(#pbb15a573f5)" style="fill: none; stroke: #000000; stroke-linejoin: miter"/>
   </g>
   <g id="patch_176">
    <path d="M 330.413721 274.080722 
L 364.752183 274.080722 
L 364.752183 266.553953 
L 330.413721 266.553953 
L 330.413721 274.080722 
z
" clip-path="url(#pbb15a573f5)" style="fill: none; stroke: #000000; stroke-linejoin: miter"/>
   </g>
   <g id="patch_177">
    <path d="M 178.408761 390.652501 
L 212.747222 390.652501 
L 212.747222 383.125732 
L 178.408761 383.125732 
L 178.408761 390.652501 
z
" clip-path="url(#pbb15a573f5)" style="fill: none; stroke: #000000; stroke-linejoin: miter"/>
   </g>
   <g id="patch_178">
    <path d="M 430.993994 281.782488 
L 465.332455 281.782488 
L 465.332455 274.255719 
L 430.993994 274.255719 
L 430.993994 281.782488 
z
" clip-path="url(#pbb15a573f5)" style="fill: none; stroke: #000000; stroke-linejoin: miter"/>
   </g>
   <g id="patch_179">
    <path d="M 684.495969 432.561552 
L 718.834431 432.561552 
L 718.834431 425.034783 
L 684.495969 425.034783 
L 684.495969 432.561552 
z
" clip-path="url(#pbb15a573f5)" style="fill: none; stroke: #000000; stroke-linejoin: miter"/>
   </g>
   <g id="patch_180">
    <path d="M 242.427938 527.45586 
L 276.766399 527.45586 
L 276.766399 519.929091 
L 242.427938 519.929091 
L 242.427938 527.45586 
z
" clip-path="url(#pbb15a573f5)" style="fill: none; stroke: #000000; stroke-linejoin: miter"/>
   </g>
   <g id="patch_181">
    <path d="M 689.74632 130.156663 
L 724.084782 130.156663 
L 724.084782 122.629894 
L 689.74632 122.629894 
L 689.74632 130.156663 
z
" clip-path="url(#pbb15a573f5)" style="fill: none; stroke: #000000; stroke-linejoin: miter"/>
   </g>
   <g id="patch_182">
    <path d="M 472.062794 438.17464 
L 506.401255 438.17464 
L 506.401255 430.647871 
L 472.062794 430.647871 
L 472.062794 438.17464 
z
" clip-path="url(#pbb15a573f5)" style="fill: none; stroke: #000000; stroke-linejoin: miter"/>
   </g>
   <g id="patch_183">
    <path d="M 446.695255 227.247282 
L 481.033717 227.247282 
L 481.033717 219.720513 
L 446.695255 219.720513 
L 446.695255 227.247282 
z
" clip-path="url(#pbb15a573f5)" style="fill: none; stroke: #000000; stroke-linejoin: miter"/>
   </g>
   <g id="patch_184">
    <path d="M 458.250148 426.746182 
L 492.588609 426.746182 
L 492.588609 419.219413 
L 458.250148 419.219413 
L 458.250148 426.746182 
z
" clip-path="url(#pbb15a573f5)" style="fill: none; stroke: #000000; stroke-linejoin: miter"/>
   </g>
   <g id="patch_185">
    <path d="M 594.249342 223.076511 
L 628.587803 223.076511 
L 628.587803 215.549742 
L 594.249342 215.549742 
L 594.249342 223.076511 
z
" clip-path="url(#pbb15a573f5)" style="fill: none; stroke: #000000; stroke-linejoin: miter"/>
   </g>
   <g id="patch_186">
    <path d="M 696.013089 188.469367 
L 730.351551 188.469367 
L 730.351551 180.942598 
L 696.013089 180.942598 
L 696.013089 188.469367 
z
" clip-path="url(#pbb15a573f5)" style="fill: none; stroke: #000000; stroke-linejoin: miter"/>
   </g>
   <g id="patch_187">
    <path d="M 906.106098 364.146983 
L 940.44456 364.146983 
L 940.44456 356.620214 
L 906.106098 356.620214 
L 906.106098 364.146983 
z
" clip-path="url(#pbb15a573f5)" style="fill: none; stroke: #000000; stroke-linejoin: miter"/>
   </g>
   <g id="patch_188">
    <path d="M 853.108117 263.861251 
L 887.446578 263.861251 
L 887.446578 256.334482 
L 853.108117 256.334482 
L 853.108117 263.861251 
z
" clip-path="url(#pbb15a573f5)" style="fill: none; stroke: #000000; stroke-linejoin: miter"/>
   </g>
   <g id="patch_189">
    <path d="M 611.907895 408.692285 
L 646.246357 408.692285 
L 646.246357 401.165516 
L 611.907895 401.165516 
L 611.907895 408.692285 
z
" clip-path="url(#pbb15a573f5)" style="fill: none; stroke: #000000; stroke-linejoin: miter"/>
   </g>
   <g id="patch_190">
    <path d="M 337.355241 393.051659 
L 371.693703 393.051659 
L 371.693703 385.52489 
L 337.355241 385.52489 
L 337.355241 393.051659 
z
" clip-path="url(#pbb15a573f5)" style="fill: none; stroke: #000000; stroke-linejoin: miter"/>
   </g>
   <g id="patch_191">
    <path d="M 416.784738 256.24416 
L 451.1232 256.24416 
L 451.1232 248.717391 
L 416.784738 248.717391 
L 416.784738 256.24416 
z
" clip-path="url(#pbb15a573f5)" style="fill: none; stroke: #000000; stroke-linejoin: miter"/>
   </g>
   <g id="patch_192">
    <path d="M 411.989372 199.271222 
L 446.327834 199.271222 
L 446.327834 191.744452 
L 411.989372 191.744452 
L 411.989372 199.271222 
z
" clip-path="url(#pbb15a573f5)" style="fill: none; stroke: #000000; stroke-linejoin: miter"/>
   </g>
   <g id="patch_193">
    <path d="M 699.864148 355.31432 
L 734.202609 355.31432 
L 734.202609 347.78755 
L 699.864148 347.78755 
L 699.864148 355.31432 
z
" clip-path="url(#pbb15a573f5)" style="fill: none; stroke: #000000; stroke-linejoin: miter"/>
   </g>
   <g id="patch_194">
    <path d="M 761.189206 163.006307 
L 795.527668 163.006307 
L 795.527668 155.479537 
L 761.189206 155.479537 
L 761.189206 163.006307 
z
" clip-path="url(#pbb15a573f5)" style="fill: none; stroke: #000000; stroke-linejoin: miter"/>
   </g>
   <g id="patch_195">
    <path d="M 764.999058 202.263112 
L 799.33752 202.263112 
L 799.33752 194.736343 
L 764.999058 194.736343 
L 764.999058 202.263112 
z
" clip-path="url(#pbb15a573f5)" style="fill: none; stroke: #000000; stroke-linejoin: miter"/>
   </g>
   <g id="patch_196">
    <path d="M 376.770129 210.837043 
L 411.108591 210.837043 
L 411.108591 203.310274 
L 376.770129 203.310274 
L 376.770129 210.837043 
z
" clip-path="url(#pbb15a573f5)" style="fill: none; stroke: #000000; stroke-linejoin: miter"/>
   </g>
   <g id="patch_197">
    <path d="M 693.209354 382.368351 
L 727.547815 382.368351 
L 727.547815 374.841582 
L 693.209354 374.841582 
L 693.209354 382.368351 
z
" clip-path="url(#pbb15a573f5)" style="fill: none; stroke: #000000; stroke-linejoin: miter"/>
   </g>
   <g id="patch_198">
    <path d="M 383.775175 243.161695 
L 418.113637 243.161695 
L 418.113637 235.634925 
L 383.775175 235.634925 
L 383.775175 243.161695 
z
" clip-path="url(#pbb15a573f5)" style="fill: none; stroke: #000000; stroke-linejoin: miter"/>
   </g>
   <g id="patch_199">
    <path d="M 225.532728 136.078349 
L 259.87119 136.078349 
L 259.87119 128.55158 
L 225.532728 128.55158 
L 225.532728 136.078349 
z
" clip-path="url(#pbb15a573f5)" style="fill: none; stroke: #000000; stroke-linejoin: miter"/>
   </g>
   <g id="patch_200">
    <path d="M 933.743409 305.938713 
L 968.081871 305.938713 
L 968.081871 298.411944 
L 933.743409 298.411944 
L 933.743409 305.938713 
z
" clip-path="url(#pbb15a573f5)" style="fill: none; stroke: #000000; stroke-linejoin: miter"/>
   </g>
   <g id="patch_201">
    <path d="M 171.205848 492.77834 
L 205.54431 492.77834 
L 205.54431 485.251571 
L 171.205848 485.251571 
L 171.205848 492.77834 
z
" clip-path="url(#pbb15a573f5)" style="fill: none; stroke: #000000; stroke-linejoin: miter"/>
   </g>
   <g id="patch_202">
    <path d="M 828.034172 314.632132 
L 862.372634 314.632132 
L 862.372634 307.105363 
L 828.034172 307.105363 
L 828.034172 314.632132 
z
" clip-path="url(#pbb15a573f5)" style="fill: none; stroke: #000000; stroke-linejoin: miter"/>
   </g>
   <g id="patch_203">
    <path d="M 787.300172 434.386794 
L 821.638634 434.386794 
L 821.638634 426.860025 
L 787.300172 426.860025 
L 787.300172 434.386794 
z
" clip-path="url(#pbb15a573f5)" style="fill: none; stroke: #000000; stroke-linejoin: miter"/>
   </g>
   <g id="patch_204">
    <path d="M 862.350314 425.14298 
L 896.688775 425.14298 
L 896.688775 417.616211 
L 862.350314 417.616211 
L 862.350314 425.14298 
z
" clip-path="url(#pbb15a573f5)" style="fill: none; stroke: #000000; stroke-linejoin: miter"/>
   </g>
   <g id="patch_205">
    <path d="M 675.518178 423.371367 
L 709.85664 423.371367 
L 709.85664 415.844598 
L 675.518178 415.844598 
L 675.518178 423.371367 
z
" clip-path="url(#pbb15a573f5)" style="fill: none; stroke: #000000; stroke-linejoin: miter"/>
   </g>
   <g id="patch_206">
    <path d="M 720.364209 469.442439 
L 754.702671 469.442439 
L 754.702671 461.91567 
L 720.364209 461.91567 
L 720.364209 469.442439 
z
" clip-path="url(#pbb15a573f5)" style="fill: none; stroke: #000000; stroke-linejoin: miter"/>
   </g>
   <g id="patch_207">
    <path d="M 869.192252 185.855696 
L 903.530714 185.855696 
L 903.530714 178.328927 
L 869.192252 178.328927 
L 869.192252 185.855696 
z
" clip-path="url(#pbb15a573f5)" style="fill: none; stroke: #000000; stroke-linejoin: miter"/>
   </g>
   <g id="patch_208">
    <path d="M 581.502905 369.475936 
L 615.841366 369.475936 
L 615.841366 361.949167 
L 581.502905 361.949167 
L 581.502905 369.475936 
z
" clip-path="url(#pbb15a573f5)" style="fill: none; stroke: #000000; stroke-linejoin: miter"/>
   </g>
   <g id="patch_209">
    <path d="M 395.651132 378.733862 
L 429.989594 378.733862 
L 429.989594 371.207093 
L 395.651132 371.207093 
L 395.651132 378.733862 
z
" clip-path="url(#pbb15a573f5)" style="fill: none; stroke: #000000; stroke-linejoin: miter"/>
   </g>
   <g id="patch_210">
    <path d="M 519.032658 356.852603 
L 553.37112 356.852603 
L 553.37112 349.325834 
L 519.032658 349.325834 
L 519.032658 356.852603 
z
" clip-path="url(#pbb15a573f5)" style="fill: none; stroke: #000000; stroke-linejoin: miter"/>
   </g>
   <g id="patch_211">
    <path d="M 260.684153 469.365384 
L 295.022614 469.365384 
L 295.022614 461.838615 
L 260.684153 461.838615 
L 260.684153 469.365384 
z
" clip-path="url(#pbb15a573f5)" style="fill: none; stroke: #000000; stroke-linejoin: miter"/>
   </g>
   <g id="patch_212">
    <path d="M 630.191409 255.473607 
L 664.529871 255.473607 
L 664.529871 247.946838 
L 630.191409 247.946838 
L 630.191409 255.473607 
z
" clip-path="url(#pbb15a573f5)" style="fill: none; stroke: #000000; stroke-linejoin: miter"/>
   </g>
   <g id="patch_213">
    <path d="M 640.626868 434.915549 
L 674.965329 434.915549 
L 674.965329 427.38878 
L 640.626868 427.38878 
L 640.626868 434.915549 
z
" clip-path="url(#pbb15a573f5)" style="fill: none; stroke: #000000; stroke-linejoin: miter"/>
   </g>
   <g id="patch_214">
    <path d="M 231.362025 487.021679 
L 265.700487 487.021679 
L 265.700487 479.49491 
L 231.362025 479.49491 
L 231.362025 487.021679 
z
" clip-path="url(#pbb15a573f5)" style="fill: none; stroke: #000000; stroke-linejoin: miter"/>
   </g>
   <g id="patch_215">
    <path d="M 621.168978 333.467872 
L 655.50744 333.467872 
L 655.50744 325.941103 
L 621.168978 325.941103 
L 621.168978 333.467872 
z
" clip-path="url(#pbb15a573f5)" style="fill: none; stroke: #000000; stroke-linejoin: miter"/>
   </g>
   <g id="patch_216">
    <path d="M 762.894111 365.790642 
L 797.232572 365.790642 
L 797.232572 358.263872 
L 762.894111 358.263872 
L 762.894111 365.790642 
z
" clip-path="url(#pbb15a573f5)" style="fill: none; stroke: #000000; stroke-linejoin: miter"/>
   </g>
   <g id="patch_217">
    <path d="M 755.355102 342.524457 
L 789.693563 342.524457 
L 789.693563 334.997688 
L 755.355102 334.997688 
L 755.355102 342.524457 
z
" clip-path="url(#pbb15a573f5)" style="fill: none; stroke: #000000; stroke-linejoin: miter"/>
   </g>
   <g id="patch_218">
    <path d="M 723.734529 238.170506 
L 758.072991 238.170506 
L 758.072991 230.643737 
L 723.734529 230.643737 
L 723.734529 238.170506 
z
" clip-path="url(#pbb15a573f5)" style="fill: none; stroke: #000000; stroke-linejoin: miter"/>
   </g>
   <g id="patch_219">
    <path d="M 588.956068 533.338971 
L 623.294529 533.338971 
L 623.294529 525.812202 
L 588.956068 525.812202 
L 588.956068 533.338971 
z
" clip-path="url(#pbb15a573f5)" style="fill: none; stroke: #000000; stroke-linejoin: miter"/>
   </g>
   <g id="patch_220">
    <path d="M 229.372111 298.002676 
L 263.710573 298.002676 
L 263.710573 290.475907 
L 229.372111 290.475907 
L 229.372111 298.002676 
z
" clip-path="url(#pbb15a573f5)" style="fill: none; stroke: #000000; stroke-linejoin: miter"/>
   </g>
   <g id="patch_221">
    <path d="M 757.013649 357.918582 
L 791.352111 357.918582 
L 791.352111 350.391813 
L 757.013649 350.391813 
L 757.013649 357.918582 
z
" clip-path="url(#pbb15a573f5)" style="fill: none; stroke: #000000; stroke-linejoin: miter"/>
   </g>
   <g id="patch_222">
    <path d="M 268.29802 212.585136 
L 302.636481 212.585136 
L 302.636481 205.058366 
L 268.29802 205.058366 
L 268.29802 212.585136 
z
" clip-path="url(#pbb15a573f5)" style="fill: none; stroke: #000000; stroke-linejoin: miter"/>
   </g>
   <g id="patch_223">
    <path d="M 442.756634 269.17515 
L 477.095095 269.17515 
L 477.095095 261.648381 
L 442.756634 261.648381 
L 442.756634 269.17515 
z
" clip-path="url(#pbb15a573f5)" style="fill: none; stroke: #000000; stroke-linejoin: miter"/>
   </g>
   <g id="patch_224">
    <path d="M 293.162328 392.79669 
L 327.50079 392.79669 
L 327.50079 385.26992 
L 293.162328 385.26992 
L 293.162328 392.79669 
z
" clip-path="url(#pbb15a573f5)" style="fill: none; stroke: #000000; stroke-linejoin: miter"/>
   </g>
   <g id="patch_225">
    <path d="M 665.268148 498.218972 
L 699.606609 498.218972 
L 699.606609 490.692202 
L 665.268148 490.692202 
L 665.268148 498.218972 
z
" clip-path="url(#pbb15a573f5)" style="fill: none; stroke: #000000; stroke-linejoin: miter"/>
   </g>
   <g id="patch_226">
    <path d="M 908.7948 246.009636 
L 943.133262 246.009636 
L 943.133262 238.482867 
L 908.7948 238.482867 
L 908.7948 246.009636 
z
" clip-path="url(#pbb15a573f5)" style="fill: none; stroke: #000000; stroke-linejoin: miter"/>
   </g>
   <g id="patch_227">
    <path d="M 729.062142 495.408758 
L 763.400603 495.408758 
L 763.400603 487.881989 
L 729.062142 487.881989 
L 729.062142 495.408758 
z
" clip-path="url(#pbb15a573f5)" style="fill: none; stroke: #000000; stroke-linejoin: miter"/>
   </g>
   <g id="patch_228">
    <path d="M 165.347535 219.814597 
L 199.685996 219.814597 
L 199.685996 212.287828 
L 165.347535 212.287828 
L 165.347535 219.814597 
z
" clip-path="url(#pbb15a573f5)" style="fill: none; stroke: #000000; stroke-linejoin: miter"/>
   </g>
   <g id="patch_229">
    <path d="M 275.583954 428.582714 
L 309.922416 428.582714 
L 309.922416 421.055945 
L 275.583954 421.055945 
L 275.583954 428.582714 
z
" clip-path="url(#pbb15a573f5)" style="fill: none; stroke: #000000; stroke-linejoin: miter"/>
   </g>
   <g id="patch_230">
    <path d="M 708.33888 416.84754 
L 742.677342 416.84754 
L 742.677342 409.320771 
L 708.33888 409.320771 
L 708.33888 416.84754 
z
" clip-path="url(#pbb15a573f5)" style="fill: none; stroke: #000000; stroke-linejoin: miter"/>
   </g>
   <g id="patch_231">
    <path d="M 146.015238 185.09267 
L 180.3537 185.09267 
L 180.3537 177.565901 
L 146.015238 177.565901 
L 146.015238 185.09267 
z
" clip-path="url(#pbb15a573f5)" style="fill: none; stroke: #000000; stroke-linejoin: miter"/>
   </g>
   <g id="patch_232">
    <path d="M 436.072652 359.56224 
L 470.411114 359.56224 
L 470.411114 352.035471 
L 436.072652 352.035471 
L 436.072652 359.56224 
z
" clip-path="url(#pbb15a573f5)" style="fill: none; stroke: #000000; stroke-linejoin: miter"/>
   </g>
   <g id="patch_233">
    <path d="M 859.826437 529.959828 
L 894.164898 529.959828 
L 894.164898 522.433059 
L 859.826437 522.433059 
L 859.826437 529.959828 
z
" clip-path="url(#pbb15a573f5)" style="fill: none; stroke: #000000; stroke-linejoin: miter"/>
   </g>
   <g id="patch_234">
    <path d="M 740.886591 274.298998 
L 775.225052 274.298998 
L 775.225052 266.772229 
L 740.886591 266.772229 
L 740.886591 274.298998 
z
" clip-path="url(#pbb15a573f5)" style="fill: none; stroke: #000000; stroke-linejoin: miter"/>
   </g>
   <g id="patch_235">
    <path d="M 928.439834 285.018999 
L 962.778295 285.018999 
L 962.778295 277.49223 
L 928.439834 277.49223 
L 928.439834 285.018999 
z
" clip-path="url(#pbb15a573f5)" style="fill: none; stroke: #000000; stroke-linejoin: miter"/>
   </g>
   <g id="patch_236">
    <path d="M 189.141101 175.258005 
L 223.479563 175.258005 
L 223.479563 167.731236 
L 189.141101 167.731236 
L 189.141101 175.258005 
z
" clip-path="url(#pbb15a573f5)" style="fill: none; stroke: #000000; stroke-linejoin: miter"/>
   </g>
   <g id="patch_237">
    <path d="M 546.323151 388.503609 
L 580.661612 388.503609 
L 580.661612 380.976839 
L 546.323151 380.976839 
L 546.323151 388.503609 
z
" clip-path="url(#pbb15a573f5)" style="fill: none; stroke: #000000; stroke-linejoin: miter"/>
   </g>
   <g id="patch_238">
    <path d="M 869.894474 519.560655 
L 904.232935 519.560655 
L 904.232935 512.033886 
L 869.894474 512.033886 
L 869.894474 519.560655 
z
" clip-path="url(#pbb15a573f5)" style="fill: none; stroke: #000000; stroke-linejoin: miter"/>
   </g>
   <g id="patch_239">
    <path d="M 331.403184 466.758676 
L 365.741646 466.758676 
L 365.741646 459.231906 
L 331.403184 459.231906 
L 331.403184 466.758676 
z
" clip-path="url(#pbb15a573f5)" style="fill: none; stroke: #000000; stroke-linejoin: miter"/>
   </g>
   <g id="patch_240">
    <path d="M 824.608911 426.129928 
L 858.947372 426.129928 
L 858.947372 418.603159 
L 824.608911 418.603159 
L 824.608911 426.129928 
z
" clip-path="url(#pbb15a573f5)" style="fill: none; stroke: #000000; stroke-linejoin: miter"/>
   </g>
   <g id="patch_241">
    <path d="M 738.019329 263.317442 
L 772.357791 263.317442 
L 772.357791 255.790673 
L 738.019329 255.790673 
L 738.019329 263.317442 
z
" clip-path="url(#pbb15a573f5)" style="fill: none; stroke: #000000; stroke-linejoin: miter"/>
   </g>
   <g id="patch_242">
    <path d="M 839.985674 205.460108 
L 874.324135 205.460108 
L 874.324135 197.933338 
L 839.985674 197.933338 
L 839.985674 205.460108 
z
" clip-path="url(#pbb15a573f5)" style="fill: none; stroke: #000000; stroke-linejoin: miter"/>
   </g>
   <g id="patch_243">
    <path d="M 216.759594 338.890909 
L 251.098056 338.890909 
L 251.098056 331.36414 
L 216.759594 331.36414 
L 216.759594 338.890909 
z
" clip-path="url(#pbb15a573f5)" style="fill: none; stroke: #000000; stroke-linejoin: miter"/>
   </g>
   <g id="patch_244">
    <path d="M 501.574985 534.481817 
L 535.913446 534.481817 
L 535.913446 526.955047 
L 501.574985 526.955047 
L 501.574985 534.481817 
z
" clip-path="url(#pbb15a573f5)" style="fill: none; stroke: #000000; stroke-linejoin: miter"/>
   </g>
   <g id="patch_245">
    <path d="M 623.706591 419.721825 
L 658.045052 419.721825 
L 658.045052 412.195056 
L 623.706591 412.195056 
L 623.706591 419.721825 
z
" clip-path="url(#pbb15a573f5)" style="fill: none; stroke: #000000; stroke-linejoin: miter"/>
   </g>
   <g id="patch_246">
    <path d="M 649.554868 468.275884 
L 683.893329 468.275884 
L 683.893329 460.749115 
L 649.554868 460.749115 
L 649.554868 468.275884 
z
" clip-path="url(#pbb15a573f5)" style="fill: none; stroke: #000000; stroke-linejoin: miter"/>
   </g>
   <g id="patch_247">
    <path d="M 187.610705 424.051599 
L 221.949166 424.051599 
L 221.949166 416.52483 
L 187.610705 416.52483 
L 187.610705 424.051599 
z
" clip-path="url(#pbb15a573f5)" style="fill: none; stroke: #000000; stroke-linejoin: miter"/>
   </g>
   <g id="patch_248">
    <path d="M 383.368265 456.602994 
L 417.706726 456.602994 
L 417.706726 449.076225 
L 383.368265 449.076225 
L 383.368265 456.602994 
z
" clip-path="url(#pbb15a573f5)" style="fill: none; stroke: #000000; stroke-linejoin: miter"/>
   </g>
   <g id="patch_249">
    <path d="M 333.87624 425.873077 
L 368.214702 425.873077 
L 368.214702 418.346308 
L 333.87624 418.346308 
L 333.87624 425.873077 
z
" clip-path="url(#pbb15a573f5)" style="fill: none; stroke: #000000; stroke-linejoin: miter"/>
   </g>
   <g id="patch_250">
    <path d="M 211.683683 228.877768 
L 246.022145 228.877768 
L 246.022145 221.350999 
L 211.683683 221.350999 
L 211.683683 228.877768 
z
" clip-path="url(#pbb15a573f5)" style="fill: none; stroke: #000000; stroke-linejoin: miter"/>
   </g>
   <g id="patch_251">
    <path d="M 295.620962 150.781893 
L 329.959423 150.781893 
L 329.959423 143.255123 
L 295.620962 143.255123 
L 295.620962 150.781893 
z
" clip-path="url(#pbb15a573f5)" style="fill: none; stroke: #000000; stroke-linejoin: miter"/>
   </g>
   <g id="patch_252">
    <path d="M 465.699877 172.159799 
L 500.038338 172.159799 
L 500.038338 164.63303 
L 465.699877 164.63303 
L 465.699877 172.159799 
z
" clip-path="url(#pbb15a573f5)" style="fill: none; stroke: #000000; stroke-linejoin: miter"/>
   </g>
   <g id="patch_253">
    <path d="M 185.696438 530.233426 
L 220.0349 530.233426 
L 220.0349 522.706657 
L 185.696438 522.706657 
L 185.696438 530.233426 
z
" clip-path="url(#pbb15a573f5)" style="fill: none; stroke: #000000; stroke-linejoin: miter"/>
   </g>
   <g id="patch_254">
    <path d="M 770.328388 381.881933 
L 804.666849 381.881933 
L 804.666849 374.355164 
L 770.328388 374.355164 
L 770.328388 381.881933 
z
" clip-path="url(#pbb15a573f5)" style="fill: none; stroke: #000000; stroke-linejoin: miter"/>
   </g>
   <g id="patch_255">
    <path d="M 246.622381 450.989906 
L 280.960842 450.989906 
L 280.960842 443.463137 
L 246.622381 443.463137 
L 246.622381 450.989906 
z
" clip-path="url(#pbb15a573f5)" style="fill: none; stroke: #000000; stroke-linejoin: miter"/>
   </g>
   <g id="matplotlib.axis_1">
    <g id="xtick_1">
     <g id="line2d_1">
      <defs>
       <path id="m3e06af27a7" d="M 0 0 
L 0 3.5 
" style="stroke: #000000; stroke-width: 0.8"/>
      </defs>
      <g>
       <use xlink:href="#m3e06af27a7" x="178.338462" y="567" style="stroke: #000000; stroke-width: 0.8"/>
      </g>
     </g>
     <g id="text_1">
      <!-- 0 -->
      <g transform="translate(175.157212 581.598438)scale(0.1 -0.1)">
       <defs>
        <path id="DejaVuSans-30" d="M 2034 4250 
Q 1547 4250 1301 3770 
Q 1056 3291 1056 2328 
Q 1056 1369 1301 889 
Q 1547 409 2034 409 
Q 2525 409 2770 889 
Q 3016 1369 3016 2328 
Q 3016 3291 2770 3770 
Q 2525 4250 2034 4250 
z
M 2034 4750 
Q 2819 4750 3233 4129 
Q 3647 3509 3647 2328 
Q 3647 1150 3233 529 
Q 2819 -91 2034 -91 
Q 1250 -91 836 529 
Q 422 1150 422 2328 
Q 422 3509 836 4129 
Q 1250 4750 2034 4750 
z
" transform="scale(0.015625)"/>
       </defs>
       <use xlink:href="#DejaVuSans-30"/>
      </g>
     </g>
    </g>
    <g id="xtick_2">
     <g id="line2d_2">
      <g>
       <use xlink:href="#m3e06af27a7" x="350.030769" y="567" style="stroke: #000000; stroke-width: 0.8"/>
      </g>
     </g>
     <g id="text_2">
      <!-- 100 -->
      <g transform="translate(340.487019 581.598438)scale(0.1 -0.1)">
       <defs>
        <path id="DejaVuSans-31" d="M 794 531 
L 1825 531 
L 1825 4091 
L 703 3866 
L 703 4441 
L 1819 4666 
L 2450 4666 
L 2450 531 
L 3481 531 
L 3481 0 
L 794 0 
L 794 531 
z
" transform="scale(0.015625)"/>
       </defs>
       <use xlink:href="#DejaVuSans-31"/>
       <use xlink:href="#DejaVuSans-30" x="63.623047"/>
       <use xlink:href="#DejaVuSans-30" x="127.246094"/>
      </g>
     </g>
    </g>
    <g id="xtick_3">
     <g id="line2d_3">
      <g>
       <use xlink:href="#m3e06af27a7" x="521.723077" y="567" style="stroke: #000000; stroke-width: 0.8"/>
      </g>
     </g>
     <g id="text_3">
      <!-- 200 -->
      <g transform="translate(512.179327 581.598438)scale(0.1 -0.1)">
       <defs>
        <path id="DejaVuSans-32" d="M 1228 531 
L 3431 531 
L 3431 0 
L 469 0 
L 469 531 
Q 828 903 1448 1529 
Q 2069 2156 2228 2338 
Q 2531 2678 2651 2914 
Q 2772 3150 2772 3378 
Q 2772 3750 2511 3984 
Q 2250 4219 1831 4219 
Q 1534 4219 1204 4116 
Q 875 4013 500 3803 
L 500 4441 
Q 881 4594 1212 4672 
Q 1544 4750 1819 4750 
Q 2544 4750 2975 4387 
Q 3406 4025 3406 3419 
Q 3406 3131 3298 2873 
Q 3191 2616 2906 2266 
Q 2828 2175 2409 1742 
Q 1991 1309 1228 531 
z
" transform="scale(0.015625)"/>
       </defs>
       <use xlink:href="#DejaVuSans-32"/>
       <use xlink:href="#DejaVuSans-30" x="63.623047"/>
       <use xlink:href="#DejaVuSans-30" x="127.246094"/>
      </g>
     </g>
    </g>
    <g id="xtick_4">
     <g id="line2d_4">
      <g>
       <use xlink:href="#m3e06af27a7" x="693.415385" y="567" style="stroke: #000000; stroke-width: 0.8"/>
      </g>
     </g>
     <g id="text_4">
      <!-- 300 -->
      <g transform="translate(683.871635 581.598438)scale(0.1 -0.1)">
       <defs>
        <path id="DejaVuSans-33" d="M 2597 2516 
Q 3050 2419 3304 2112 
Q 3559 1806 3559 1356 
Q 3559 666 3084 287 
Q 2609 -91 1734 -91 
Q 1441 -91 1130 -33 
Q 819 25 488 141 
L 488 750 
Q 750 597 1062 519 
Q 1375 441 1716 441 
Q 2309 441 2620 675 
Q 2931 909 2931 1356 
Q 2931 1769 2642 2001 
Q 2353 2234 1838 2234 
L 1294 2234 
L 1294 2753 
L 1863 2753 
Q 2328 2753 2575 2939 
Q 2822 3125 2822 3475 
Q 2822 3834 2567 4026 
Q 2313 4219 1838 4219 
Q 1578 4219 1281 4162 
Q 984 4106 628 3988 
L 628 4550 
Q 988 4650 1302 4700 
Q 1616 4750 1894 4750 
Q 2613 4750 3031 4423 
Q 3450 4097 3450 3541 
Q 3450 3153 3228 2886 
Q 3006 2619 2597 2516 
z
" transform="scale(0.015625)"/>
       </defs>
       <use xlink:href="#DejaVuSans-33"/>
       <use xlink:href="#DejaVuSans-30" x="63.623047"/>
       <use xlink:href="#DejaVuSans-30" x="127.246094"/>
      </g>
     </g>
    </g>
    <g id="xtick_5">
     <g id="line2d_5">
      <g>
       <use xlink:href="#m3e06af27a7" x="865.107692" y="567" style="stroke: #000000; stroke-width: 0.8"/>
      </g>
     </g>
     <g id="text_5">
      <!-- 400 -->
      <g transform="translate(855.563942 581.598438)scale(0.1 -0.1)">
       <defs>
        <path id="DejaVuSans-34" d="M 2419 4116 
L 825 1625 
L 2419 1625 
L 2419 4116 
z
M 2253 4666 
L 3047 4666 
L 3047 1625 
L 3713 1625 
L 3713 1100 
L 3047 1100 
L 3047 0 
L 2419 0 
L 2419 1100 
L 313 1100 
L 313 1709 
L 2253 4666 
z
" transform="scale(0.015625)"/>
       </defs>
       <use xlink:href="#DejaVuSans-34"/>
       <use xlink:href="#DejaVuSans-30" x="63.623047"/>
       <use xlink:href="#DejaVuSans-30" x="127.246094"/>
      </g>
     </g>
    </g>
    <g id="xtick_6">
     <g id="line2d_6">
      <g>
       <use xlink:href="#m3e06af27a7" x="1036.8" y="567" style="stroke: #000000; stroke-width: 0.8"/>
      </g>
     </g>
     <g id="text_6">
      <!-- 500 -->
      <g transform="translate(1027.25625 581.598438)scale(0.1 -0.1)">
       <defs>
        <path id="DejaVuSans-35" d="M 691 4666 
L 3169 4666 
L 3169 4134 
L 1269 4134 
L 1269 2991 
Q 1406 3038 1543 3061 
Q 1681 3084 1819 3084 
Q 2600 3084 3056 2656 
Q 3513 2228 3513 1497 
Q 3513 744 3044 326 
Q 2575 -91 1722 -91 
Q 1428 -91 1123 -41 
Q 819 9 494 109 
L 494 744 
Q 775 591 1075 516 
Q 1375 441 1709 441 
Q 2250 441 2565 725 
Q 2881 1009 2881 1497 
Q 2881 1984 2565 2268 
Q 2250 2553 1709 2553 
Q 1456 2553 1204 2497 
Q 953 2441 691 2322 
L 691 4666 
z
" transform="scale(0.015625)"/>
       </defs>
       <use xlink:href="#DejaVuSans-35"/>
       <use xlink:href="#DejaVuSans-30" x="63.623047"/>
       <use xlink:href="#DejaVuSans-30" x="127.246094"/>
      </g>
     </g>
    </g>
   </g>
   <g id="matplotlib.axis_2">
    <g id="ytick_1">
     <g id="line2d_7">
      <defs>
       <path id="m6924fb9e27" d="M 0 0 
L -3.5 0 
" style="stroke: #000000; stroke-width: 0.8"/>
      </defs>
      <g>
       <use xlink:href="#m6924fb9e27" x="144" y="548.183077" style="stroke: #000000; stroke-width: 0.8"/>
      </g>
     </g>
     <g id="text_7">
      <!-- 0 -->
      <g transform="translate(130.6375 551.982296)scale(0.1 -0.1)">
       <use xlink:href="#DejaVuSans-30"/>
      </g>
     </g>
    </g>
    <g id="ytick_2">
     <g id="line2d_8">
      <g>
       <use xlink:href="#m6924fb9e27" x="144" y="454.098462" style="stroke: #000000; stroke-width: 0.8"/>
      </g>
     </g>
     <g id="text_8">
      <!-- 100 -->
      <g transform="translate(117.9125 457.89768)scale(0.1 -0.1)">
       <use xlink:href="#DejaVuSans-31"/>
       <use xlink:href="#DejaVuSans-30" x="63.623047"/>
       <use xlink:href="#DejaVuSans-30" x="127.246094"/>
      </g>
     </g>
    </g>
    <g id="ytick_3">
     <g id="line2d_9">
      <g>
       <use xlink:href="#m6924fb9e27" x="144" y="360.013846" style="stroke: #000000; stroke-width: 0.8"/>
      </g>
     </g>
     <g id="text_9">
      <!-- 200 -->
      <g transform="translate(117.9125 363.813065)scale(0.1 -0.1)">
       <use xlink:href="#DejaVuSans-32"/>
       <use xlink:href="#DejaVuSans-30" x="63.623047"/>
       <use xlink:href="#DejaVuSans-30" x="127.246094"/>
      </g>
     </g>
    </g>
    <g id="ytick_4">
     <g id="line2d_10">
      <g>
       <use xlink:href="#m6924fb9e27" x="144" y="265.929231" style="stroke: #000000; stroke-width: 0.8"/>
      </g>
     </g>
     <g id="text_10">
      <!-- 300 -->
      <g transform="translate(117.9125 269.72845)scale(0.1 -0.1)">
       <use xlink:href="#DejaVuSans-33"/>
       <use xlink:href="#DejaVuSans-30" x="63.623047"/>
       <use xlink:href="#DejaVuSans-30" x="127.246094"/>
      </g>
     </g>
    </g>
    <g id="ytick_5">
     <g id="line2d_11">
      <g>
       <use xlink:href="#m6924fb9e27" x="144" y="171.844615" style="stroke: #000000; stroke-width: 0.8"/>
      </g>
     </g>
     <g id="text_11">
      <!-- 400 -->
      <g transform="translate(117.9125 175.643834)scale(0.1 -0.1)">
       <use xlink:href="#DejaVuSans-34"/>
       <use xlink:href="#DejaVuSans-30" x="63.623047"/>
       <use xlink:href="#DejaVuSans-30" x="127.246094"/>
      </g>
     </g>
    </g>
    <g id="ytick_6">
     <g id="line2d_12">
      <g>
       <use xlink:href="#m6924fb9e27" x="144" y="77.76" style="stroke: #000000; stroke-width: 0.8"/>
      </g>
     </g>
     <g id="text_12">
      <!-- 500 -->
      <g transform="translate(117.9125 81.559219)scale(0.1 -0.1)">
       <use xlink:href="#DejaVuSans-35"/>
       <use xlink:href="#DejaVuSans-30" x="63.623047"/>
       <use xlink:href="#DejaVuSans-30" x="127.246094"/>
      </g>
     </g>
    </g>
   </g>
   <g id="patch_256">
    <path d="M 144 567 
L 144 77.76 
" style="fill: none; stroke: #000000; stroke-width: 0.8; stroke-linejoin: miter; stroke-linecap: square"/>
   </g>
   <g id="patch_257">
    <path d="M 1036.8 567 
L 1036.8 77.76 
" style="fill: none; stroke: #000000; stroke-width: 0.8; stroke-linejoin: miter; stroke-linecap: square"/>
   </g>
   <g id="patch_258">
    <path d="M 144 567 
L 1036.8 567 
" style="fill: none; stroke: #000000; stroke-width: 0.8; stroke-linejoin: miter; stroke-linecap: square"/>
   </g>
   <g id="patch_259">
    <path d="M 144 77.76 
L 1036.8 77.76 
" style="fill: none; stroke: #000000; stroke-width: 0.8; stroke-linejoin: miter; stroke-linecap: square"/>
   </g>
   <g id="text_13">
    <!-- 3000_10_10_253_result134.19999999999993 -->
    <g transform="translate(452.6325 71.76)scale(0.12 -0.12)">
     <defs>
      <path id="DejaVuSans-5f" d="M 3263 -1063 
L 3263 -1509 
L -63 -1509 
L -63 -1063 
L 3263 -1063 
z
" transform="scale(0.015625)"/>
      <path id="DejaVuSans-72" d="M 2631 2963 
Q 2534 3019 2420 3045 
Q 2306 3072 2169 3072 
Q 1681 3072 1420 2755 
Q 1159 2438 1159 1844 
L 1159 0 
L 581 0 
L 581 3500 
L 1159 3500 
L 1159 2956 
Q 1341 3275 1631 3429 
Q 1922 3584 2338 3584 
Q 2397 3584 2469 3576 
Q 2541 3569 2628 3553 
L 2631 2963 
z
" transform="scale(0.015625)"/>
      <path id="DejaVuSans-65" d="M 3597 1894 
L 3597 1613 
L 953 1613 
Q 991 1019 1311 708 
Q 1631 397 2203 397 
Q 2534 397 2845 478 
Q 3156 559 3463 722 
L 3463 178 
Q 3153 47 2828 -22 
Q 2503 -91 2169 -91 
Q 1331 -91 842 396 
Q 353 884 353 1716 
Q 353 2575 817 3079 
Q 1281 3584 2069 3584 
Q 2775 3584 3186 3129 
Q 3597 2675 3597 1894 
z
M 3022 2063 
Q 3016 2534 2758 2815 
Q 2500 3097 2075 3097 
Q 1594 3097 1305 2825 
Q 1016 2553 972 2059 
L 3022 2063 
z
" transform="scale(0.015625)"/>
      <path id="DejaVuSans-73" d="M 2834 3397 
L 2834 2853 
Q 2591 2978 2328 3040 
Q 2066 3103 1784 3103 
Q 1356 3103 1142 2972 
Q 928 2841 928 2578 
Q 928 2378 1081 2264 
Q 1234 2150 1697 2047 
L 1894 2003 
Q 2506 1872 2764 1633 
Q 3022 1394 3022 966 
Q 3022 478 2636 193 
Q 2250 -91 1575 -91 
Q 1294 -91 989 -36 
Q 684 19 347 128 
L 347 722 
Q 666 556 975 473 
Q 1284 391 1588 391 
Q 1994 391 2212 530 
Q 2431 669 2431 922 
Q 2431 1156 2273 1281 
Q 2116 1406 1581 1522 
L 1381 1569 
Q 847 1681 609 1914 
Q 372 2147 372 2553 
Q 372 3047 722 3315 
Q 1072 3584 1716 3584 
Q 2034 3584 2315 3537 
Q 2597 3491 2834 3397 
z
" transform="scale(0.015625)"/>
      <path id="DejaVuSans-75" d="M 544 1381 
L 544 3500 
L 1119 3500 
L 1119 1403 
Q 1119 906 1312 657 
Q 1506 409 1894 409 
Q 2359 409 2629 706 
Q 2900 1003 2900 1516 
L 2900 3500 
L 3475 3500 
L 3475 0 
L 2900 0 
L 2900 538 
Q 2691 219 2414 64 
Q 2138 -91 1772 -91 
Q 1169 -91 856 284 
Q 544 659 544 1381 
z
M 1991 3584 
L 1991 3584 
z
" transform="scale(0.015625)"/>
      <path id="DejaVuSans-6c" d="M 603 4863 
L 1178 4863 
L 1178 0 
L 603 0 
L 603 4863 
z
" transform="scale(0.015625)"/>
      <path id="DejaVuSans-74" d="M 1172 4494 
L 1172 3500 
L 2356 3500 
L 2356 3053 
L 1172 3053 
L 1172 1153 
Q 1172 725 1289 603 
Q 1406 481 1766 481 
L 2356 481 
L 2356 0 
L 1766 0 
Q 1100 0 847 248 
Q 594 497 594 1153 
L 594 3053 
L 172 3053 
L 172 3500 
L 594 3500 
L 594 4494 
L 1172 4494 
z
" transform="scale(0.015625)"/>
      <path id="DejaVuSans-2e" d="M 684 794 
L 1344 794 
L 1344 0 
L 684 0 
L 684 794 
z
" transform="scale(0.015625)"/>
      <path id="DejaVuSans-39" d="M 703 97 
L 703 672 
Q 941 559 1184 500 
Q 1428 441 1663 441 
Q 2288 441 2617 861 
Q 2947 1281 2994 2138 
Q 2813 1869 2534 1725 
Q 2256 1581 1919 1581 
Q 1219 1581 811 2004 
Q 403 2428 403 3163 
Q 403 3881 828 4315 
Q 1253 4750 1959 4750 
Q 2769 4750 3195 4129 
Q 3622 3509 3622 2328 
Q 3622 1225 3098 567 
Q 2575 -91 1691 -91 
Q 1453 -91 1209 -44 
Q 966 3 703 97 
z
M 1959 2075 
Q 2384 2075 2632 2365 
Q 2881 2656 2881 3163 
Q 2881 3666 2632 3958 
Q 2384 4250 1959 4250 
Q 1534 4250 1286 3958 
Q 1038 3666 1038 3163 
Q 1038 2656 1286 2365 
Q 1534 2075 1959 2075 
z
" transform="scale(0.015625)"/>
     </defs>
     <use xlink:href="#DejaVuSans-33"/>
     <use xlink:href="#DejaVuSans-30" x="63.623047"/>
     <use xlink:href="#DejaVuSans-30" x="127.246094"/>
     <use xlink:href="#DejaVuSans-30" x="190.869141"/>
     <use xlink:href="#DejaVuSans-5f" x="254.492188"/>
     <use xlink:href="#DejaVuSans-31" x="304.492188"/>
     <use xlink:href="#DejaVuSans-30" x="368.115234"/>
     <use xlink:href="#DejaVuSans-5f" x="431.738281"/>
     <use xlink:href="#DejaVuSans-31" x="481.738281"/>
     <use xlink:href="#DejaVuSans-30" x="545.361328"/>
     <use xlink:href="#DejaVuSans-5f" x="608.984375"/>
     <use xlink:href="#DejaVuSans-32" x="658.984375"/>
     <use xlink:href="#DejaVuSans-35" x="722.607422"/>
     <use xlink:href="#DejaVuSans-33" x="786.230469"/>
     <use xlink:href="#DejaVuSans-5f" x="849.853516"/>
     <use xlink:href="#DejaVuSans-72" x="899.853516"/>
     <use xlink:href="#DejaVuSans-65" x="938.716797"/>
     <use xlink:href="#DejaVuSans-73" x="1000.240234"/>
     <use xlink:href="#DejaVuSans-75" x="1052.339844"/>
     <use xlink:href="#DejaVuSans-6c" x="1115.71875"/>
     <use xlink:href="#DejaVuSans-74" x="1143.501953"/>
     <use xlink:href="#DejaVuSans-31" x="1182.710938"/>
     <use xlink:href="#DejaVuSans-33" x="1246.333984"/>
     <use xlink:href="#DejaVuSans-34" x="1309.957031"/>
     <use xlink:href="#DejaVuSans-2e" x="1373.580078"/>
     <use xlink:href="#DejaVuSans-31" x="1405.367188"/>
     <use xlink:href="#DejaVuSans-39" x="1468.990234"/>
     <use xlink:href="#DejaVuSans-39" x="1532.613281"/>
     <use xlink:href="#DejaVuSans-39" x="1596.236328"/>
     <use xlink:href="#DejaVuSans-39" x="1659.859375"/>
     <use xlink:href="#DejaVuSans-39" x="1723.482422"/>
     <use xlink:href="#DejaVuSans-39" x="1787.105469"/>
     <use xlink:href="#DejaVuSans-39" x="1850.728516"/>
     <use xlink:href="#DejaVuSans-39" x="1914.351562"/>
     <use xlink:href="#DejaVuSans-39" x="1977.974609"/>
     <use xlink:href="#DejaVuSans-39" x="2041.597656"/>
     <use xlink:href="#DejaVuSans-39" x="2105.220703"/>
     <use xlink:href="#DejaVuSans-39" x="2168.84375"/>
     <use xlink:href="#DejaVuSans-33" x="2232.466797"/>
    </g>
   </g>
  </g>
 </g>
 <defs>
  <clipPath id="pbb15a573f5">
   <rect x="144" y="77.76" width="892.8" height="489.24"/>
  </clipPath>
 </defs>
</svg>
