<?xml version="1.0" encoding="utf-8" standalone="no"?>
<!DOCTYPE svg PUBLIC "-//W3C//DTD SVG 1.1//EN"
  "http://www.w3.org/Graphics/SVG/1.1/DTD/svg11.dtd">
<svg xmlns:xlink="http://www.w3.org/1999/xlink" width="432pt" height="288pt" viewBox="0 0 432 288" xmlns="http://www.w3.org/2000/svg" version="1.1">
 <metadata>
  <rdf:RDF xmlns:dc="http://purl.org/dc/elements/1.1/" xmlns:cc="http://creativecommons.org/ns#" xmlns:rdf="http://www.w3.org/1999/02/22-rdf-syntax-ns#">
   <cc:Work>
    <dc:type rdf:resource="http://purl.org/dc/dcmitype/StillImage"/>
    <dc:date>2022-03-26T16:04:57.326189</dc:date>
    <dc:format>image/svg+xml</dc:format>
    <dc:creator>
     <cc:Agent>
      <dc:title>Matplotlib v3.5.1, https://matplotlib.org/</dc:title>
     </cc:Agent>
    </dc:creator>
   </cc:Work>
  </rdf:RDF>
 </metadata>
 <defs>
  <style type="text/css">*{stroke-linejoin: round; stroke-linecap: butt}</style>
 </defs>
 <g id="figure_1">
  <g id="patch_1">
   <path d="M 0 288 
L 432 288 
L 432 0 
L 0 0 
L 0 288 
z
" style="fill: none"/>
  </g>
  <g id="axes_1"/>
  <g id="axes_2">
   <g id="patch_2">
    <path d="M 54 252 
L 388.8 252 
L 388.8 34.56 
L 54 34.56 
z
" style="fill: #ffffff"/>
   </g>
   <g id="patch_3">
    <path d="M 242.8272 214.545633 
L 256.2192 214.545633 
L 256.2192 212.498946 
L 242.8272 212.498946 
L 242.8272 214.545633 
z
" clip-path="url(#p2392833ec0)" style="fill: none; stroke: #000000; stroke-linejoin: miter"/>
   </g>
   <g id="patch_4">
    <path d="M 280.05696 143.975873 
L 293.44896 143.975873 
L 293.44896 141.929187 
L 280.05696 141.929187 
L 280.05696 143.975873 
z
" clip-path="url(#p2392833ec0)" style="fill: none; stroke: #000000; stroke-linejoin: miter"/>
   </g>
   <g id="patch_5">
    <path d="M 316.4832 49.337078 
L 329.8752 49.337078 
L 329.8752 47.290392 
L 316.4832 47.290392 
L 316.4832 49.337078 
z
" clip-path="url(#p2392833ec0)" style="fill: none; stroke: #000000; stroke-linejoin: miter"/>
   </g>
   <g id="patch_6">
    <path d="M 271.88784 250.771988 
L 285.27984 250.771988 
L 285.27984 248.725301 
L 271.88784 248.725301 
L 271.88784 250.771988 
z
" clip-path="url(#p2392833ec0)" style="fill: none; stroke: #000000; stroke-linejoin: miter"/>
   </g>
   <g id="patch_7">
    <path d="M 276.70896 175.16738 
L 290.10096 175.16738 
L 290.10096 173.120693 
L 276.70896 173.120693 
L 276.70896 175.16738 
z
" clip-path="url(#p2392833ec0)" style="fill: none; stroke: #000000; stroke-linejoin: miter"/>
   </g>
   <g id="patch_8">
    <path d="M 189.2592 214.136295 
L 202.6512 214.136295 
L 202.6512 212.089608 
L 189.2592 212.089608 
L 189.2592 214.136295 
z
" clip-path="url(#p2392833ec0)" style="fill: none; stroke: #000000; stroke-linejoin: miter"/>
   </g>
   <g id="patch_9">
    <path d="M 373.80096 147.00497 
L 387.19296 147.00497 
L 387.19296 144.958283 
L 373.80096 144.958283 
L 373.80096 147.00497 
z
" clip-path="url(#p2392833ec0)" style="fill: none; stroke: #000000; stroke-linejoin: miter"/>
   </g>
   <g id="patch_10">
    <path d="M 217.24848 222.691446 
L 230.64048 222.691446 
L 230.64048 220.644759 
L 217.24848 220.644759 
L 217.24848 222.691446 
z
" clip-path="url(#p2392833ec0)" style="fill: none; stroke: #000000; stroke-linejoin: miter"/>
   </g>
   <g id="patch_11">
    <path d="M 164.35008 225.720542 
L 177.74208 225.720542 
L 177.74208 223.673855 
L 164.35008 223.673855 
L 164.35008 225.720542 
z
" clip-path="url(#p2392833ec0)" style="fill: none; stroke: #000000; stroke-linejoin: miter"/>
   </g>
   <g id="patch_12">
    <path d="M 238.14 235.421837 
L 251.532 235.421837 
L 251.532 233.375151 
L 238.14 233.375151 
L 238.14 235.421837 
z
" clip-path="url(#p2392833ec0)" style="fill: none; stroke: #000000; stroke-linejoin: miter"/>
   </g>
   <g id="patch_13">
    <path d="M 337.2408 118.474157 
L 350.6328 118.474157 
L 350.6328 116.42747 
L 337.2408 116.42747 
L 337.2408 118.474157 
z
" clip-path="url(#p2392833ec0)" style="fill: none; stroke: #000000; stroke-linejoin: miter"/>
   </g>
   <g id="patch_14">
    <path d="M 258.228 227.439759 
L 271.62 227.439759 
L 271.62 225.393072 
L 258.228 225.393072 
L 258.228 227.439759 
z
" clip-path="url(#p2392833ec0)" style="fill: none; stroke: #000000; stroke-linejoin: miter"/>
   </g>
   <g id="patch_15">
    <path d="M 197.02656 207.873434 
L 210.41856 207.873434 
L 210.41856 205.826747 
L 197.02656 205.826747 
L 197.02656 207.873434 
z
" clip-path="url(#p2392833ec0)" style="fill: none; stroke: #000000; stroke-linejoin: miter"/>
   </g>
   <g id="patch_16">
    <path d="M 159.7968 139.473163 
L 173.1888 139.473163 
L 173.1888 137.426476 
L 159.7968 137.426476 
L 159.7968 139.473163 
z
" clip-path="url(#p2392833ec0)" style="fill: none; stroke: #000000; stroke-linejoin: miter"/>
   </g>
   <g id="patch_17">
    <path d="M 210.55248 144.180542 
L 223.94448 144.180542 
L 223.94448 142.133855 
L 210.55248 142.133855 
L 210.55248 144.180542 
z
" clip-path="url(#p2392833ec0)" style="fill: none; stroke: #000000; stroke-linejoin: miter"/>
   </g>
   <g id="patch_18">
    <path d="M 242.42544 214.259096 
L 255.81744 214.259096 
L 255.81744 212.21241 
L 242.42544 212.21241 
L 242.42544 214.259096 
z
" clip-path="url(#p2392833ec0)" style="fill: none; stroke: #000000; stroke-linejoin: miter"/>
   </g>
   <g id="patch_19">
    <path d="M 50.25024 214.95497 
L 63.64224 214.95497 
L 63.64224 212.908283 
L 50.25024 212.908283 
L 50.25024 214.95497 
z
" clip-path="url(#p2392833ec0)" style="fill: none; stroke: #000000; stroke-linejoin: miter"/>
   </g>
   <g id="patch_20">
    <path d="M 340.85664 52.161506 
L 354.24864 52.161506 
L 354.24864 50.114819 
L 340.85664 50.114819 
L 340.85664 52.161506 
z
" clip-path="url(#p2392833ec0)" style="fill: none; stroke: #000000; stroke-linejoin: miter"/>
   </g>
   <g id="patch_21">
    <path d="M 247.11264 41.641536 
L 260.50464 41.641536 
L 260.50464 39.594849 
L 247.11264 39.594849 
L 247.11264 41.641536 
z
" clip-path="url(#p2392833ec0)" style="fill: none; stroke: #000000; stroke-linejoin: miter"/>
   </g>
   <g id="patch_22">
    <path d="M 110.51424 207.586898 
L 123.90624 207.586898 
L 123.90624 205.540211 
L 110.51424 205.540211 
L 110.51424 207.586898 
z
" clip-path="url(#p2392833ec0)" style="fill: none; stroke: #000000; stroke-linejoin: miter"/>
   </g>
   <g id="patch_23">
    <path d="M 307.91232 175.699518 
L 321.30432 175.699518 
L 321.30432 173.652831 
L 307.91232 173.652831 
L 307.91232 175.699518 
z
" clip-path="url(#p2392833ec0)" style="fill: none; stroke: #000000; stroke-linejoin: miter"/>
   </g>
   <g id="patch_24">
    <path d="M 259.70112 183.108524 
L 273.09312 183.108524 
L 273.09312 181.061837 
L 259.70112 181.061837 
L 259.70112 183.108524 
z
" clip-path="url(#p2392833ec0)" style="fill: none; stroke: #000000; stroke-linejoin: miter"/>
   </g>
   <g id="patch_25">
    <path d="M 293.7168 145.122018 
L 307.1088 145.122018 
L 307.1088 143.075331 
L 293.7168 143.075331 
L 293.7168 145.122018 
z
" clip-path="url(#p2392833ec0)" style="fill: none; stroke: #000000; stroke-linejoin: miter"/>
   </g>
   <g id="patch_26">
    <path d="M 281.39616 231.860602 
L 294.78816 231.860602 
L 294.78816 229.813916 
L 281.39616 229.813916 
L 281.39616 231.860602 
z
" clip-path="url(#p2392833ec0)" style="fill: none; stroke: #000000; stroke-linejoin: miter"/>
   </g>
   <g id="patch_27">
    <path d="M 261.576 166.694096 
L 274.968 166.694096 
L 274.968 164.64741 
L 261.576 164.64741 
L 261.576 166.694096 
z
" clip-path="url(#p2392833ec0)" style="fill: none; stroke: #000000; stroke-linejoin: miter"/>
   </g>
   <g id="patch_28">
    <path d="M 262.2456 243.608584 
L 275.6376 243.608584 
L 275.6376 241.561898 
L 262.2456 241.561898 
L 262.2456 243.608584 
z
" clip-path="url(#p2392833ec0)" style="fill: none; stroke: #000000; stroke-linejoin: miter"/>
   </g>
   <g id="patch_29">
    <path d="M 226.62288 227.316958 
L 240.01488 227.316958 
L 240.01488 225.270271 
L 226.62288 225.270271 
L 226.62288 227.316958 
z
" clip-path="url(#p2392833ec0)" style="fill: none; stroke: #000000; stroke-linejoin: miter"/>
   </g>
   <g id="patch_30">
    <path d="M 252.8712 220.726627 
L 266.2632 220.726627 
L 266.2632 218.67994 
L 252.8712 218.67994 
L 252.8712 220.726627 
z
" clip-path="url(#p2392833ec0)" style="fill: none; stroke: #000000; stroke-linejoin: miter"/>
   </g>
   <g id="patch_31">
    <path d="M 322.77744 60.307319 
L 336.16944 60.307319 
L 336.16944 58.260633 
L 322.77744 58.260633 
L 322.77744 60.307319 
z
" clip-path="url(#p2392833ec0)" style="fill: none; stroke: #000000; stroke-linejoin: miter"/>
   </g>
   <g id="patch_32">
    <path d="M 128.3256 147.045904 
L 141.7176 147.045904 
L 141.7176 144.999217 
L 128.3256 144.999217 
L 128.3256 147.045904 
z
" clip-path="url(#p2392833ec0)" style="fill: none; stroke: #000000; stroke-linejoin: miter"/>
   </g>
   <g id="patch_33">
    <path d="M 210.41856 186.383223 
L 223.81056 186.383223 
L 223.81056 184.336536 
L 210.41856 184.336536 
L 210.41856 186.383223 
z
" clip-path="url(#p2392833ec0)" style="fill: none; stroke: #000000; stroke-linejoin: miter"/>
   </g>
   <g id="patch_34">
    <path d="M 78.23952 145.531355 
L 91.63152 145.531355 
L 91.63152 143.484669 
L 78.23952 143.484669 
L 78.23952 145.531355 
z
" clip-path="url(#p2392833ec0)" style="fill: none; stroke: #000000; stroke-linejoin: miter"/>
   </g>
   <g id="patch_35">
    <path d="M 139.0392 170.623735 
L 152.4312 170.623735 
L 152.4312 168.577048 
L 139.0392 168.577048 
L 139.0392 170.623735 
z
" clip-path="url(#p2392833ec0)" style="fill: none; stroke: #000000; stroke-linejoin: miter"/>
   </g>
   <g id="patch_36">
    <path d="M 365.63184 38.653373 
L 379.02384 38.653373 
L 379.02384 36.606687 
L 365.63184 36.606687 
L 365.63184 38.653373 
z
" clip-path="url(#p2392833ec0)" style="fill: none; stroke: #000000; stroke-linejoin: miter"/>
   </g>
   <g id="patch_37">
    <path d="M 334.16064 141.437982 
L 347.55264 141.437982 
L 347.55264 139.391295 
L 334.16064 139.391295 
L 334.16064 141.437982 
z
" clip-path="url(#p2392833ec0)" style="fill: none; stroke: #000000; stroke-linejoin: miter"/>
   </g>
   <g id="patch_38">
    <path d="M 118.68336 203.78006 
L 132.07536 203.78006 
L 132.07536 201.733373 
L 118.68336 201.733373 
L 118.68336 203.78006 
z
" clip-path="url(#p2392833ec0)" style="fill: none; stroke: #000000; stroke-linejoin: miter"/>
   </g>
   <g id="patch_39">
    <path d="M 283.13712 236.731717 
L 296.52912 236.731717 
L 296.52912 234.68503 
L 283.13712 234.68503 
L 283.13712 236.731717 
z
" clip-path="url(#p2392833ec0)" style="fill: none; stroke: #000000; stroke-linejoin: miter"/>
   </g>
   <g id="patch_40">
    <path d="M 226.7568 218.311536 
L 240.1488 218.311536 
L 240.1488 216.264849 
L 226.7568 216.264849 
L 226.7568 218.311536 
z
" clip-path="url(#p2392833ec0)" style="fill: none; stroke: #000000; stroke-linejoin: miter"/>
   </g>
   <g id="patch_41">
    <path d="M 125.6472 154.577711 
L 139.0392 154.577711 
L 139.0392 152.531024 
L 125.6472 152.531024 
L 125.6472 154.577711 
z
" clip-path="url(#p2392833ec0)" style="fill: none; stroke: #000000; stroke-linejoin: miter"/>
   </g>
   <g id="patch_42">
    <path d="M 262.37952 76.107741 
L 275.77152 76.107741 
L 275.77152 74.061054 
L 262.37952 74.061054 
L 262.37952 76.107741 
z
" clip-path="url(#p2392833ec0)" style="fill: none; stroke: #000000; stroke-linejoin: miter"/>
   </g>
   <g id="patch_43">
    <path d="M 150.55632 186.219488 
L 163.94832 186.219488 
L 163.94832 184.172801 
L 150.55632 184.172801 
L 150.55632 186.219488 
z
" clip-path="url(#p2392833ec0)" style="fill: none; stroke: #000000; stroke-linejoin: miter"/>
   </g>
   <g id="patch_44">
    <path d="M 151.22592 179.506355 
L 164.61792 179.506355 
L 164.61792 177.459669 
L 151.22592 177.459669 
L 151.22592 179.506355 
z
" clip-path="url(#p2392833ec0)" style="fill: none; stroke: #000000; stroke-linejoin: miter"/>
   </g>
   <g id="patch_45">
    <path d="M 190.06272 150.034066 
L 203.45472 150.034066 
L 203.45472 147.98738 
L 190.06272 147.98738 
L 190.06272 150.034066 
z
" clip-path="url(#p2392833ec0)" style="fill: none; stroke: #000000; stroke-linejoin: miter"/>
   </g>
   <g id="patch_46">
    <path d="M 137.29824 90.434548 
L 150.69024 90.434548 
L 150.69024 88.387861 
L 137.29824 88.387861 
L 137.29824 90.434548 
z
" clip-path="url(#p2392833ec0)" style="fill: none; stroke: #000000; stroke-linejoin: miter"/>
   </g>
   <g id="patch_47">
    <path d="M 190.19664 116.877741 
L 203.58864 116.877741 
L 203.58864 114.831054 
L 190.19664 114.831054 
L 190.19664 116.877741 
z
" clip-path="url(#p2392833ec0)" style="fill: none; stroke: #000000; stroke-linejoin: miter"/>
   </g>
   <g id="patch_48">
    <path d="M 244.56816 238.614669 
L 257.96016 238.614669 
L 257.96016 236.567982 
L 244.56816 236.567982 
L 244.56816 238.614669 
z
" clip-path="url(#p2392833ec0)" style="fill: none; stroke: #000000; stroke-linejoin: miter"/>
   </g>
   <g id="patch_49">
    <path d="M 305.23392 194.160633 
L 318.62592 194.160633 
L 318.62592 192.113946 
L 305.23392 192.113946 
L 305.23392 194.160633 
z
" clip-path="url(#p2392833ec0)" style="fill: none; stroke: #000000; stroke-linejoin: miter"/>
   </g>
   <g id="patch_50">
    <path d="M 276.9768 217.69753 
L 290.3688 217.69753 
L 290.3688 215.650843 
L 276.9768 215.650843 
L 276.9768 217.69753 
z
" clip-path="url(#p2392833ec0)" style="fill: none; stroke: #000000; stroke-linejoin: miter"/>
   </g>
   <g id="patch_51">
    <path d="M 228.7656 151.016476 
L 242.1576 151.016476 
L 242.1576 148.969789 
L 228.7656 148.969789 
L 228.7656 151.016476 
z
" clip-path="url(#p2392833ec0)" style="fill: none; stroke: #000000; stroke-linejoin: miter"/>
   </g>
   <g id="patch_52">
    <path d="M 263.5848 200.669096 
L 276.9768 200.669096 
L 276.9768 198.62241 
L 263.5848 198.62241 
L 263.5848 200.669096 
z
" clip-path="url(#p2392833ec0)" style="fill: none; stroke: #000000; stroke-linejoin: miter"/>
   </g>
   <g id="patch_53">
    <path d="M 153.50256 159.694428 
L 166.89456 159.694428 
L 166.89456 157.647741 
L 153.50256 157.647741 
L 153.50256 159.694428 
z
" clip-path="url(#p2392833ec0)" style="fill: none; stroke: #000000; stroke-linejoin: miter"/>
   </g>
   <g id="patch_54">
    <path d="M 220.99824 184.827741 
L 234.39024 184.827741 
L 234.39024 182.781054 
L 220.99824 182.781054 
L 220.99824 184.827741 
z
" clip-path="url(#p2392833ec0)" style="fill: none; stroke: #000000; stroke-linejoin: miter"/>
   </g>
   <g id="patch_55">
    <path d="M 66.7224 207.17756 
L 80.1144 207.17756 
L 80.1144 205.130873 
L 66.7224 205.130873 
L 66.7224 207.17756 
z
" clip-path="url(#p2392833ec0)" style="fill: none; stroke: #000000; stroke-linejoin: miter"/>
   </g>
   <g id="patch_56">
    <path d="M 100.2024 199.686687 
L 113.5944 199.686687 
L 113.5944 197.64 
L 100.2024 197.64 
L 100.2024 199.686687 
z
" clip-path="url(#p2392833ec0)" style="fill: none; stroke: #000000; stroke-linejoin: miter"/>
   </g>
   <g id="patch_57">
    <path d="M 338.44608 43.524488 
L 351.83808 43.524488 
L 351.83808 41.477801 
L 338.44608 41.477801 
L 338.44608 43.524488 
z
" clip-path="url(#p2392833ec0)" style="fill: none; stroke: #000000; stroke-linejoin: miter"/>
   </g>
   <g id="patch_58">
    <path d="M 282.3336 232.965813 
L 295.7256 232.965813 
L 295.7256 230.919127 
L 282.3336 230.919127 
L 282.3336 232.965813 
z
" clip-path="url(#p2392833ec0)" style="fill: none; stroke: #000000; stroke-linejoin: miter"/>
   </g>
   <g id="patch_59">
    <path d="M 128.9952 207.627831 
L 142.3872 207.627831 
L 142.3872 205.581145 
L 128.9952 205.581145 
L 128.9952 207.627831 
z
" clip-path="url(#p2392833ec0)" style="fill: none; stroke: #000000; stroke-linejoin: miter"/>
   </g>
   <g id="patch_60">
    <path d="M 146.67264 213.726958 
L 160.06464 213.726958 
L 160.06464 211.680271 
L 146.67264 211.680271 
L 146.67264 213.726958 
z
" clip-path="url(#p2392833ec0)" style="fill: none; stroke: #000000; stroke-linejoin: miter"/>
   </g>
   <g id="patch_61">
    <path d="M 254.74608 234.848765 
L 268.13808 234.848765 
L 268.13808 232.802078 
L 254.74608 232.802078 
L 254.74608 234.848765 
z
" clip-path="url(#p2392833ec0)" style="fill: none; stroke: #000000; stroke-linejoin: miter"/>
   </g>
   <g id="patch_62">
    <path d="M 214.16832 46.144247 
L 227.56032 46.144247 
L 227.56032 44.09756 
L 214.16832 44.09756 
L 214.16832 46.144247 
z
" clip-path="url(#p2392833ec0)" style="fill: none; stroke: #000000; stroke-linejoin: miter"/>
   </g>
   <g id="patch_63">
    <path d="M 302.01984 175.986054 
L 315.41184 175.986054 
L 315.41184 173.939367 
L 302.01984 173.939367 
L 302.01984 175.986054 
z
" clip-path="url(#p2392833ec0)" style="fill: none; stroke: #000000; stroke-linejoin: miter"/>
   </g>
   <g id="patch_64">
    <path d="M 232.91712 214.668434 
L 246.30912 214.668434 
L 246.30912 212.621747 
L 232.91712 212.621747 
L 232.91712 214.668434 
z
" clip-path="url(#p2392833ec0)" style="fill: none; stroke: #000000; stroke-linejoin: miter"/>
   </g>
   <g id="patch_65">
    <path d="M 249.79104 120.111506 
L 263.18304 120.111506 
L 263.18304 118.064819 
L 249.79104 118.064819 
L 249.79104 120.111506 
z
" clip-path="url(#p2392833ec0)" style="fill: none; stroke: #000000; stroke-linejoin: miter"/>
   </g>
   <g id="patch_66">
    <path d="M 203.3208 218.966476 
L 216.7128 218.966476 
L 216.7128 216.919789 
L 203.3208 216.919789 
L 203.3208 218.966476 
z
" clip-path="url(#p2392833ec0)" style="fill: none; stroke: #000000; stroke-linejoin: miter"/>
   </g>
   <g id="patch_67">
    <path d="M 240.41664 201.610572 
L 253.80864 201.610572 
L 253.80864 199.563886 
L 240.41664 199.563886 
L 240.41664 201.610572 
z
" clip-path="url(#p2392833ec0)" style="fill: none; stroke: #000000; stroke-linejoin: miter"/>
   </g>
   <g id="patch_68">
    <path d="M 204.25824 160.758705 
L 217.65024 160.758705 
L 217.65024 158.712018 
L 204.25824 158.712018 
L 204.25824 160.758705 
z
" clip-path="url(#p2392833ec0)" style="fill: none; stroke: #000000; stroke-linejoin: miter"/>
   </g>
   <g id="patch_69">
    <path d="M 269.6112 247.538223 
L 283.0032 247.538223 
L 283.0032 245.491536 
L 269.6112 245.491536 
L 269.6112 247.538223 
z
" clip-path="url(#p2392833ec0)" style="fill: none; stroke: #000000; stroke-linejoin: miter"/>
   </g>
   <g id="patch_70">
    <path d="M 225.4176 175.658584 
L 238.8096 175.658584 
L 238.8096 173.611898 
L 225.4176 173.611898 
L 225.4176 175.658584 
z
" clip-path="url(#p2392833ec0)" style="fill: none; stroke: #000000; stroke-linejoin: miter"/>
   </g>
   <g id="patch_71">
    <path d="M 330.81264 62.026536 
L 344.20464 62.026536 
L 344.20464 59.979849 
L 330.81264 59.979849 
L 330.81264 62.026536 
z
" clip-path="url(#p2392833ec0)" style="fill: none; stroke: #000000; stroke-linejoin: miter"/>
   </g>
   <g id="patch_72">
    <path d="M 263.98656 189.576054 
L 277.37856 189.576054 
L 277.37856 187.529367 
L 263.98656 187.529367 
L 263.98656 189.576054 
z
" clip-path="url(#p2392833ec0)" style="fill: none; stroke: #000000; stroke-linejoin: miter"/>
   </g>
   <g id="patch_73">
    <path d="M 275.50368 148.724187 
L 288.89568 148.724187 
L 288.89568 146.6775 
L 275.50368 146.6775 
L 275.50368 148.724187 
z
" clip-path="url(#p2392833ec0)" style="fill: none; stroke: #000000; stroke-linejoin: miter"/>
   </g>
   <g id="patch_74">
    <path d="M 274.83408 150.115934 
L 288.22608 150.115934 
L 288.22608 148.069247 
L 274.83408 148.069247 
L 274.83408 150.115934 
z
" clip-path="url(#p2392833ec0)" style="fill: none; stroke: #000000; stroke-linejoin: miter"/>
   </g>
   <g id="patch_75">
    <path d="M 141.18192 158.875753 
L 154.57392 158.875753 
L 154.57392 156.829066 
L 141.18192 156.829066 
L 141.18192 158.875753 
z
" clip-path="url(#p2392833ec0)" style="fill: none; stroke: #000000; stroke-linejoin: miter"/>
   </g>
   <g id="patch_76">
    <path d="M 142.92288 147.168705 
L 156.31488 147.168705 
L 156.31488 145.122018 
L 142.92288 145.122018 
L 142.92288 147.168705 
z
" clip-path="url(#p2392833ec0)" style="fill: none; stroke: #000000; stroke-linejoin: miter"/>
   </g>
   <g id="patch_77">
    <path d="M 305.7696 104.802289 
L 319.1616 104.802289 
L 319.1616 102.755602 
L 305.7696 102.755602 
L 305.7696 104.802289 
z
" clip-path="url(#p2392833ec0)" style="fill: none; stroke: #000000; stroke-linejoin: miter"/>
   </g>
   <g id="patch_78">
    <path d="M 177.60816 148.928855 
L 191.00016 148.928855 
L 191.00016 146.882169 
L 177.60816 146.882169 
L 177.60816 148.928855 
z
" clip-path="url(#p2392833ec0)" style="fill: none; stroke: #000000; stroke-linejoin: miter"/>
   </g>
   <g id="patch_79">
    <path d="M 139.97664 188.470843 
L 153.36864 188.470843 
L 153.36864 186.424157 
L 139.97664 186.424157 
L 139.97664 188.470843 
z
" clip-path="url(#p2392833ec0)" style="fill: none; stroke: #000000; stroke-linejoin: miter"/>
   </g>
   <g id="patch_80">
    <path d="M 224.21232 163.050994 
L 237.60432 163.050994 
L 237.60432 161.004307 
L 224.21232 161.004307 
L 224.21232 163.050994 
z
" clip-path="url(#p2392833ec0)" style="fill: none; stroke: #000000; stroke-linejoin: miter"/>
   </g>
   <g id="patch_81">
    <path d="M 343.2672 43.933825 
L 356.6592 43.933825 
L 356.6592 41.887139 
L 343.2672 41.887139 
L 343.2672 43.933825 
z
" clip-path="url(#p2392833ec0)" style="fill: none; stroke: #000000; stroke-linejoin: miter"/>
   </g>
   <g id="patch_82">
    <path d="M 260.37072 234.930633 
L 273.76272 234.930633 
L 273.76272 232.883946 
L 260.37072 232.883946 
L 260.37072 234.930633 
z
" clip-path="url(#p2392833ec0)" style="fill: none; stroke: #000000; stroke-linejoin: miter"/>
   </g>
   <g id="patch_83">
    <path d="M 253.13904 120.357108 
L 266.53104 120.357108 
L 266.53104 118.310422 
L 253.13904 118.310422 
L 253.13904 120.357108 
z
" clip-path="url(#p2392833ec0)" style="fill: none; stroke: #000000; stroke-linejoin: miter"/>
   </g>
   <g id="patch_84">
    <path d="M 265.86144 239.924548 
L 279.25344 239.924548 
L 279.25344 237.877861 
L 265.86144 237.877861 
L 265.86144 239.924548 
z
" clip-path="url(#p2392833ec0)" style="fill: none; stroke: #000000; stroke-linejoin: miter"/>
   </g>
   <g id="patch_85">
    <path d="M 135.42336 212.744548 
L 148.81536 212.744548 
L 148.81536 210.697861 
L 135.42336 210.697861 
L 135.42336 212.744548 
z
" clip-path="url(#p2392833ec0)" style="fill: none; stroke: #000000; stroke-linejoin: miter"/>
   </g>
   <g id="patch_86">
    <path d="M 328.40208 199.400151 
L 341.79408 199.400151 
L 341.79408 197.353464 
L 328.40208 197.353464 
L 328.40208 199.400151 
z
" clip-path="url(#p2392833ec0)" style="fill: none; stroke: #000000; stroke-linejoin: miter"/>
   </g>
   <g id="patch_87">
    <path d="M 71.94528 206.85009 
L 85.33728 206.85009 
L 85.33728 204.803404 
L 71.94528 204.803404 
L 71.94528 206.85009 
z
" clip-path="url(#p2392833ec0)" style="fill: none; stroke: #000000; stroke-linejoin: miter"/>
   </g>
   <g id="patch_88">
    <path d="M 207.20448 42.33741 
L 220.59648 42.33741 
L 220.59648 40.290723 
L 207.20448 40.290723 
L 207.20448 42.33741 
z
" clip-path="url(#p2392833ec0)" style="fill: none; stroke: #000000; stroke-linejoin: miter"/>
   </g>
   <g id="patch_89">
    <path d="M 170.24256 108.936596 
L 183.63456 108.936596 
L 183.63456 106.88991 
L 170.24256 106.88991 
L 170.24256 108.936596 
z
" clip-path="url(#p2392833ec0)" style="fill: none; stroke: #000000; stroke-linejoin: miter"/>
   </g>
   <g id="patch_90">
    <path d="M 166.76064 54.699398 
L 180.15264 54.699398 
L 180.15264 52.652711 
L 166.76064 52.652711 
L 166.76064 54.699398 
z
" clip-path="url(#p2392833ec0)" style="fill: none; stroke: #000000; stroke-linejoin: miter"/>
   </g>
   <g id="patch_91">
    <path d="M 144.52992 62.190271 
L 157.92192 62.190271 
L 157.92192 60.143584 
L 144.52992 60.143584 
L 144.52992 62.190271 
z
" clip-path="url(#p2392833ec0)" style="fill: none; stroke: #000000; stroke-linejoin: miter"/>
   </g>
   <g id="patch_92">
    <path d="M 192.47328 43.729157 
L 205.86528 43.729157 
L 205.86528 41.68247 
L 192.47328 41.68247 
L 192.47328 43.729157 
z
" clip-path="url(#p2392833ec0)" style="fill: none; stroke: #000000; stroke-linejoin: miter"/>
   </g>
   <g id="patch_93">
    <path d="M 198.36576 43.565422 
L 211.75776 43.565422 
L 211.75776 41.518735 
L 198.36576 41.518735 
L 198.36576 43.565422 
z
" clip-path="url(#p2392833ec0)" style="fill: none; stroke: #000000; stroke-linejoin: miter"/>
   </g>
   <g id="patch_94">
    <path d="M 260.9064 206.113283 
L 274.2984 206.113283 
L 274.2984 204.066596 
L 260.9064 204.066596 
L 260.9064 206.113283 
z
" clip-path="url(#p2392833ec0)" style="fill: none; stroke: #000000; stroke-linejoin: miter"/>
   </g>
   <g id="patch_95">
    <path d="M 143.86032 65.1375 
L 157.25232 65.1375 
L 157.25232 63.090813 
L 143.86032 63.090813 
L 143.86032 65.1375 
z
" clip-path="url(#p2392833ec0)" style="fill: none; stroke: #000000; stroke-linejoin: miter"/>
   </g>
   <g id="patch_96">
    <path d="M 149.21712 62.435873 
L 162.60912 62.435873 
L 162.60912 60.389187 
L 149.21712 60.389187 
L 149.21712 62.435873 
z
" clip-path="url(#p2392833ec0)" style="fill: none; stroke: #000000; stroke-linejoin: miter"/>
   </g>
   <g id="patch_97">
    <path d="M 99.80064 141.478916 
L 113.19264 141.478916 
L 113.19264 139.432229 
L 99.80064 139.432229 
L 99.80064 141.478916 
z
" clip-path="url(#p2392833ec0)" style="fill: none; stroke: #000000; stroke-linejoin: miter"/>
   </g>
   <g id="patch_98">
    <path d="M 127.12032 133.537771 
L 140.51232 133.537771 
L 140.51232 131.491084 
L 127.12032 131.491084 
L 127.12032 133.537771 
z
" clip-path="url(#p2392833ec0)" style="fill: none; stroke: #000000; stroke-linejoin: miter"/>
   </g>
   <g id="patch_99">
    <path d="M 251.66592 84.662892 
L 265.05792 84.662892 
L 265.05792 82.616205 
L 251.66592 82.616205 
L 251.66592 84.662892 
z
" clip-path="url(#p2392833ec0)" style="fill: none; stroke: #000000; stroke-linejoin: miter"/>
   </g>
   <g id="patch_100">
    <path d="M 206.26704 235.217169 
L 219.65904 235.217169 
L 219.65904 233.170482 
L 206.26704 233.170482 
L 206.26704 235.217169 
z
" clip-path="url(#p2392833ec0)" style="fill: none; stroke: #000000; stroke-linejoin: miter"/>
   </g>
   <g id="patch_101">
    <path d="M 196.89264 44.670633 
L 210.28464 44.670633 
L 210.28464 42.623946 
L 196.89264 42.623946 
L 196.89264 44.670633 
z
" clip-path="url(#p2392833ec0)" style="fill: none; stroke: #000000; stroke-linejoin: miter"/>
   </g>
   <g id="patch_102">
    <path d="M 225.95328 145.122018 
L 239.34528 145.122018 
L 239.34528 143.075331 
L 225.95328 143.075331 
L 225.95328 145.122018 
z
" clip-path="url(#p2392833ec0)" style="fill: none; stroke: #000000; stroke-linejoin: miter"/>
   </g>
   <g id="patch_103">
    <path d="M 208.40976 108.731928 
L 221.80176 108.731928 
L 221.80176 106.685241 
L 208.40976 106.685241 
L 208.40976 108.731928 
z
" clip-path="url(#p2392833ec0)" style="fill: none; stroke: #000000; stroke-linejoin: miter"/>
   </g>
   <g id="patch_104">
    <path d="M 294.25248 41.068464 
L 307.64448 41.068464 
L 307.64448 39.021777 
L 294.25248 39.021777 
L 294.25248 41.068464 
z
" clip-path="url(#p2392833ec0)" style="fill: none; stroke: #000000; stroke-linejoin: miter"/>
   </g>
   <g id="patch_105">
    <path d="M 294.3864 161.536446 
L 307.7784 161.536446 
L 307.7784 159.489759 
L 294.3864 159.489759 
L 294.3864 161.536446 
z
" clip-path="url(#p2392833ec0)" style="fill: none; stroke: #000000; stroke-linejoin: miter"/>
   </g>
   <g id="patch_106">
    <path d="M 223.00704 173.448163 
L 236.39904 173.448163 
L 236.39904 171.401476 
L 223.00704 171.401476 
L 223.00704 173.448163 
z
" clip-path="url(#p2392833ec0)" style="fill: none; stroke: #000000; stroke-linejoin: miter"/>
   </g>
   <g id="patch_107">
    <path d="M 225.01584 156.460663 
L 238.40784 156.460663 
L 238.40784 154.413976 
L 225.01584 154.413976 
L 225.01584 156.460663 
z
" clip-path="url(#p2392833ec0)" style="fill: none; stroke: #000000; stroke-linejoin: miter"/>
   </g>
   <g id="patch_108">
    <path d="M 256.2192 188.634578 
L 269.6112 188.634578 
L 269.6112 186.587892 
L 256.2192 186.587892 
L 256.2192 188.634578 
z
" clip-path="url(#p2392833ec0)" style="fill: none; stroke: #000000; stroke-linejoin: miter"/>
   </g>
   <g id="patch_109">
    <path d="M 300.68064 249.871446 
L 314.07264 249.871446 
L 314.07264 247.824759 
L 300.68064 247.824759 
L 300.68064 249.871446 
z
" clip-path="url(#p2392833ec0)" style="fill: none; stroke: #000000; stroke-linejoin: miter"/>
   </g>
   <g id="patch_110">
    <path d="M 302.68944 159.203223 
L 316.08144 159.203223 
L 316.08144 157.156536 
L 302.68944 157.156536 
L 302.68944 159.203223 
z
" clip-path="url(#p2392833ec0)" style="fill: none; stroke: #000000; stroke-linejoin: miter"/>
   </g>
   <g id="patch_111">
    <path d="M 106.09488 209.756386 
L 119.48688 209.756386 
L 119.48688 207.709699 
L 106.09488 207.709699 
L 106.09488 209.756386 
z
" clip-path="url(#p2392833ec0)" style="fill: none; stroke: #000000; stroke-linejoin: miter"/>
   </g>
   <g id="patch_112">
    <path d="M 287.42256 201.078434 
L 300.81456 201.078434 
L 300.81456 199.031747 
L 287.42256 199.031747 
L 287.42256 201.078434 
z
" clip-path="url(#p2392833ec0)" style="fill: none; stroke: #000000; stroke-linejoin: miter"/>
   </g>
   <g id="patch_113">
    <path d="M 209.21328 47.372259 
L 222.60528 47.372259 
L 222.60528 45.325572 
L 209.21328 45.325572 
L 209.21328 47.372259 
z
" clip-path="url(#p2392833ec0)" style="fill: none; stroke: #000000; stroke-linejoin: miter"/>
   </g>
   <g id="patch_114">
    <path d="M 289.83312 245.982741 
L 303.22512 245.982741 
L 303.22512 243.936054 
L 289.83312 243.936054 
L 289.83312 245.982741 
z
" clip-path="url(#p2392833ec0)" style="fill: none; stroke: #000000; stroke-linejoin: miter"/>
   </g>
   <g id="patch_115">
    <path d="M 153.1008 116.795873 
L 166.4928 116.795873 
L 166.4928 114.749187 
L 153.1008 114.749187 
L 153.1008 116.795873 
z
" clip-path="url(#p2392833ec0)" style="fill: none; stroke: #000000; stroke-linejoin: miter"/>
   </g>
   <g id="patch_116">
    <path d="M 187.11648 224.16506 
L 200.50848 224.16506 
L 200.50848 222.118373 
L 187.11648 222.118373 
L 187.11648 224.16506 
z
" clip-path="url(#p2392833ec0)" style="fill: none; stroke: #000000; stroke-linejoin: miter"/>
   </g>
   <g id="patch_117">
    <path d="M 249.38928 95.510331 
L 262.78128 95.510331 
L 262.78128 93.463645 
L 249.38928 93.463645 
L 249.38928 95.510331 
z
" clip-path="url(#p2392833ec0)" style="fill: none; stroke: #000000; stroke-linejoin: miter"/>
   </g>
   <g id="patch_118">
    <path d="M 271.88784 179.956627 
L 285.27984 179.956627 
L 285.27984 177.90994 
L 271.88784 177.90994 
L 271.88784 179.956627 
z
" clip-path="url(#p2392833ec0)" style="fill: none; stroke: #000000; stroke-linejoin: miter"/>
   </g>
   <g id="patch_119">
    <path d="M 270.41472 226.989488 
L 283.80672 226.989488 
L 283.80672 224.942801 
L 270.41472 224.942801 
L 270.41472 226.989488 
z
" clip-path="url(#p2392833ec0)" style="fill: none; stroke: #000000; stroke-linejoin: miter"/>
   </g>
   <g id="patch_120">
    <path d="M 295.32384 166.202892 
L 308.71584 166.202892 
L 308.71584 164.156205 
L 295.32384 164.156205 
L 295.32384 166.202892 
z
" clip-path="url(#p2392833ec0)" style="fill: none; stroke: #000000; stroke-linejoin: miter"/>
   </g>
   <g id="patch_121">
    <path d="M 191.53584 217.451928 
L 204.92784 217.451928 
L 204.92784 215.405241 
L 191.53584 215.405241 
L 191.53584 217.451928 
z
" clip-path="url(#p2392833ec0)" style="fill: none; stroke: #000000; stroke-linejoin: miter"/>
   </g>
   <g id="patch_122">
    <path d="M 195.15168 227.644428 
L 208.54368 227.644428 
L 208.54368 225.597741 
L 195.15168 225.597741 
L 195.15168 227.644428 
z
" clip-path="url(#p2392833ec0)" style="fill: none; stroke: #000000; stroke-linejoin: miter"/>
   </g>
   <g id="patch_123">
    <path d="M 239.21136 195.143042 
L 252.60336 195.143042 
L 252.60336 193.096355 
L 239.21136 193.096355 
L 239.21136 195.143042 
z
" clip-path="url(#p2392833ec0)" style="fill: none; stroke: #000000; stroke-linejoin: miter"/>
   </g>
   <g id="patch_124">
    <path d="M 211.62384 83.803283 
L 225.01584 83.803283 
L 225.01584 81.756596 
L 211.62384 81.756596 
L 211.62384 83.803283 
z
" clip-path="url(#p2392833ec0)" style="fill: none; stroke: #000000; stroke-linejoin: miter"/>
   </g>
   <g id="patch_125">
    <path d="M 317.01888 178.646747 
L 330.41088 178.646747 
L 330.41088 176.60006 
L 317.01888 176.60006 
L 317.01888 178.646747 
z
" clip-path="url(#p2392833ec0)" style="fill: none; stroke: #000000; stroke-linejoin: miter"/>
   </g>
   <g id="patch_126">
    <path d="M 235.05984 52.20244 
L 248.45184 52.20244 
L 248.45184 50.155753 
L 235.05984 50.155753 
L 235.05984 52.20244 
z
" clip-path="url(#p2392833ec0)" style="fill: none; stroke: #000000; stroke-linejoin: miter"/>
   </g>
   <g id="patch_127">
    <path d="M 367.64064 114.257982 
L 381.03264 114.257982 
L 381.03264 112.211295 
L 367.64064 112.211295 
L 367.64064 114.257982 
z
" clip-path="url(#p2392833ec0)" style="fill: none; stroke: #000000; stroke-linejoin: miter"/>
   </g>
   <g id="patch_128">
    <path d="M 230.50656 42.255542 
L 243.89856 42.255542 
L 243.89856 40.208855 
L 230.50656 40.208855 
L 230.50656 42.255542 
z
" clip-path="url(#p2392833ec0)" style="fill: none; stroke: #000000; stroke-linejoin: miter"/>
   </g>
   <g id="patch_129">
    <path d="M 232.51536 231.819669 
L 245.90736 231.819669 
L 245.90736 229.772982 
L 232.51536 229.772982 
L 232.51536 231.819669 
z
" clip-path="url(#p2392833ec0)" style="fill: none; stroke: #000000; stroke-linejoin: miter"/>
   </g>
   <g id="patch_130">
    <path d="M 257.02272 212.130542 
L 270.41472 212.130542 
L 270.41472 210.083855 
L 257.02272 210.083855 
L 257.02272 212.130542 
z
" clip-path="url(#p2392833ec0)" style="fill: none; stroke: #000000; stroke-linejoin: miter"/>
   </g>
   <g id="matplotlib.axis_1">
    <g id="xtick_1">
     <g id="line2d_1">
      <defs>
       <path id="mb4a41c2c72" d="M 0 0 
L 0 3.5 
" style="stroke: #000000; stroke-width: 0.8"/>
      </defs>
      <g>
       <use xlink:href="#mb4a41c2c72" x="107.568" y="252" style="stroke: #000000; stroke-width: 0.8"/>
      </g>
     </g>
     <g id="text_1">
      <!-- 3000 -->
      <g transform="translate(94.843 266.598437)scale(0.1 -0.1)">
       <defs>
        <path id="DejaVuSans-33" d="M 2597 2516 
Q 3050 2419 3304 2112 
Q 3559 1806 3559 1356 
Q 3559 666 3084 287 
Q 2609 -91 1734 -91 
Q 1441 -91 1130 -33 
Q 819 25 488 141 
L 488 750 
Q 750 597 1062 519 
Q 1375 441 1716 441 
Q 2309 441 2620 675 
Q 2931 909 2931 1356 
Q 2931 1769 2642 2001 
Q 2353 2234 1838 2234 
L 1294 2234 
L 1294 2753 
L 1863 2753 
Q 2328 2753 2575 2939 
Q 2822 3125 2822 3475 
Q 2822 3834 2567 4026 
Q 2313 4219 1838 4219 
Q 1578 4219 1281 4162 
Q 984 4106 628 3988 
L 628 4550 
Q 988 4650 1302 4700 
Q 1616 4750 1894 4750 
Q 2613 4750 3031 4423 
Q 3450 4097 3450 3541 
Q 3450 3153 3228 2886 
Q 3006 2619 2597 2516 
z
" transform="scale(0.015625)"/>
        <path id="DejaVuSans-30" d="M 2034 4250 
Q 1547 4250 1301 3770 
Q 1056 3291 1056 2328 
Q 1056 1369 1301 889 
Q 1547 409 2034 409 
Q 2525 409 2770 889 
Q 3016 1369 3016 2328 
Q 3016 3291 2770 3770 
Q 2525 4250 2034 4250 
z
M 2034 4750 
Q 2819 4750 3233 4129 
Q 3647 3509 3647 2328 
Q 3647 1150 3233 529 
Q 2819 -91 2034 -91 
Q 1250 -91 836 529 
Q 422 1150 422 2328 
Q 422 3509 836 4129 
Q 1250 4750 2034 4750 
z
" transform="scale(0.015625)"/>
       </defs>
       <use xlink:href="#DejaVuSans-33"/>
       <use xlink:href="#DejaVuSans-30" x="63.623047"/>
       <use xlink:href="#DejaVuSans-30" x="127.246094"/>
       <use xlink:href="#DejaVuSans-30" x="190.869141"/>
      </g>
     </g>
    </g>
    <g id="xtick_2">
     <g id="line2d_2">
      <g>
       <use xlink:href="#mb4a41c2c72" x="174.528" y="252" style="stroke: #000000; stroke-width: 0.8"/>
      </g>
     </g>
     <g id="text_2">
      <!-- 3500 -->
      <g transform="translate(161.803 266.598437)scale(0.1 -0.1)">
       <defs>
        <path id="DejaVuSans-35" d="M 691 4666 
L 3169 4666 
L 3169 4134 
L 1269 4134 
L 1269 2991 
Q 1406 3038 1543 3061 
Q 1681 3084 1819 3084 
Q 2600 3084 3056 2656 
Q 3513 2228 3513 1497 
Q 3513 744 3044 326 
Q 2575 -91 1722 -91 
Q 1428 -91 1123 -41 
Q 819 9 494 109 
L 494 744 
Q 775 591 1075 516 
Q 1375 441 1709 441 
Q 2250 441 2565 725 
Q 2881 1009 2881 1497 
Q 2881 1984 2565 2268 
Q 2250 2553 1709 2553 
Q 1456 2553 1204 2497 
Q 953 2441 691 2322 
L 691 4666 
z
" transform="scale(0.015625)"/>
       </defs>
       <use xlink:href="#DejaVuSans-33"/>
       <use xlink:href="#DejaVuSans-35" x="63.623047"/>
       <use xlink:href="#DejaVuSans-30" x="127.246094"/>
       <use xlink:href="#DejaVuSans-30" x="190.869141"/>
      </g>
     </g>
    </g>
    <g id="xtick_3">
     <g id="line2d_3">
      <g>
       <use xlink:href="#mb4a41c2c72" x="241.488" y="252" style="stroke: #000000; stroke-width: 0.8"/>
      </g>
     </g>
     <g id="text_3">
      <!-- 4000 -->
      <g transform="translate(228.763 266.598437)scale(0.1 -0.1)">
       <defs>
        <path id="DejaVuSans-34" d="M 2419 4116 
L 825 1625 
L 2419 1625 
L 2419 4116 
z
M 2253 4666 
L 3047 4666 
L 3047 1625 
L 3713 1625 
L 3713 1100 
L 3047 1100 
L 3047 0 
L 2419 0 
L 2419 1100 
L 313 1100 
L 313 1709 
L 2253 4666 
z
" transform="scale(0.015625)"/>
       </defs>
       <use xlink:href="#DejaVuSans-34"/>
       <use xlink:href="#DejaVuSans-30" x="63.623047"/>
       <use xlink:href="#DejaVuSans-30" x="127.246094"/>
       <use xlink:href="#DejaVuSans-30" x="190.869141"/>
      </g>
     </g>
    </g>
    <g id="xtick_4">
     <g id="line2d_4">
      <g>
       <use xlink:href="#mb4a41c2c72" x="308.448" y="252" style="stroke: #000000; stroke-width: 0.8"/>
      </g>
     </g>
     <g id="text_4">
      <!-- 4500 -->
      <g transform="translate(295.723 266.598437)scale(0.1 -0.1)">
       <use xlink:href="#DejaVuSans-34"/>
       <use xlink:href="#DejaVuSans-35" x="63.623047"/>
       <use xlink:href="#DejaVuSans-30" x="127.246094"/>
       <use xlink:href="#DejaVuSans-30" x="190.869141"/>
      </g>
     </g>
    </g>
    <g id="xtick_5">
     <g id="line2d_5">
      <g>
       <use xlink:href="#mb4a41c2c72" x="375.408" y="252" style="stroke: #000000; stroke-width: 0.8"/>
      </g>
     </g>
     <g id="text_5">
      <!-- 5000 -->
      <g transform="translate(362.683 266.598437)scale(0.1 -0.1)">
       <use xlink:href="#DejaVuSans-35"/>
       <use xlink:href="#DejaVuSans-30" x="63.623047"/>
       <use xlink:href="#DejaVuSans-30" x="127.246094"/>
       <use xlink:href="#DejaVuSans-30" x="190.869141"/>
      </g>
     </g>
    </g>
   </g>
   <g id="matplotlib.axis_2">
    <g id="ytick_1">
     <g id="line2d_6">
      <defs>
       <path id="m4bc96cbbf4" d="M 0 0 
L -3.5 0 
" style="stroke: #000000; stroke-width: 0.8"/>
      </defs>
      <g>
       <use xlink:href="#m4bc96cbbf4" x="54" y="215.159639" style="stroke: #000000; stroke-width: 0.8"/>
      </g>
     </g>
     <g id="text_6">
      <!-- 8000 -->
      <g transform="translate(21.55 218.958857)scale(0.1 -0.1)">
       <defs>
        <path id="DejaVuSans-38" d="M 2034 2216 
Q 1584 2216 1326 1975 
Q 1069 1734 1069 1313 
Q 1069 891 1326 650 
Q 1584 409 2034 409 
Q 2484 409 2743 651 
Q 3003 894 3003 1313 
Q 3003 1734 2745 1975 
Q 2488 2216 2034 2216 
z
M 1403 2484 
Q 997 2584 770 2862 
Q 544 3141 544 3541 
Q 544 4100 942 4425 
Q 1341 4750 2034 4750 
Q 2731 4750 3128 4425 
Q 3525 4100 3525 3541 
Q 3525 3141 3298 2862 
Q 3072 2584 2669 2484 
Q 3125 2378 3379 2068 
Q 3634 1759 3634 1313 
Q 3634 634 3220 271 
Q 2806 -91 2034 -91 
Q 1263 -91 848 271 
Q 434 634 434 1313 
Q 434 1759 690 2068 
Q 947 2378 1403 2484 
z
M 1172 3481 
Q 1172 3119 1398 2916 
Q 1625 2713 2034 2713 
Q 2441 2713 2670 2916 
Q 2900 3119 2900 3481 
Q 2900 3844 2670 4047 
Q 2441 4250 2034 4250 
Q 1625 4250 1398 4047 
Q 1172 3844 1172 3481 
z
" transform="scale(0.015625)"/>
       </defs>
       <use xlink:href="#DejaVuSans-38"/>
       <use xlink:href="#DejaVuSans-30" x="63.623047"/>
       <use xlink:href="#DejaVuSans-30" x="127.246094"/>
       <use xlink:href="#DejaVuSans-30" x="190.869141"/>
      </g>
     </g>
    </g>
    <g id="ytick_2">
     <g id="line2d_7">
      <g>
       <use xlink:href="#m4bc96cbbf4" x="54" y="174.225904" style="stroke: #000000; stroke-width: 0.8"/>
      </g>
     </g>
     <g id="text_7">
      <!-- 9000 -->
      <g transform="translate(21.55 178.025122)scale(0.1 -0.1)">
       <defs>
        <path id="DejaVuSans-39" d="M 703 97 
L 703 672 
Q 941 559 1184 500 
Q 1428 441 1663 441 
Q 2288 441 2617 861 
Q 2947 1281 2994 2138 
Q 2813 1869 2534 1725 
Q 2256 1581 1919 1581 
Q 1219 1581 811 2004 
Q 403 2428 403 3163 
Q 403 3881 828 4315 
Q 1253 4750 1959 4750 
Q 2769 4750 3195 4129 
Q 3622 3509 3622 2328 
Q 3622 1225 3098 567 
Q 2575 -91 1691 -91 
Q 1453 -91 1209 -44 
Q 966 3 703 97 
z
M 1959 2075 
Q 2384 2075 2632 2365 
Q 2881 2656 2881 3163 
Q 2881 3666 2632 3958 
Q 2384 4250 1959 4250 
Q 1534 4250 1286 3958 
Q 1038 3666 1038 3163 
Q 1038 2656 1286 2365 
Q 1534 2075 1959 2075 
z
" transform="scale(0.015625)"/>
       </defs>
       <use xlink:href="#DejaVuSans-39"/>
       <use xlink:href="#DejaVuSans-30" x="63.623047"/>
       <use xlink:href="#DejaVuSans-30" x="127.246094"/>
       <use xlink:href="#DejaVuSans-30" x="190.869141"/>
      </g>
     </g>
    </g>
    <g id="ytick_3">
     <g id="line2d_8">
      <g>
       <use xlink:href="#m4bc96cbbf4" x="54" y="133.292169" style="stroke: #000000; stroke-width: 0.8"/>
      </g>
     </g>
     <g id="text_8">
      <!-- 10000 -->
      <g transform="translate(15.1875 137.091387)scale(0.1 -0.1)">
       <defs>
        <path id="DejaVuSans-31" d="M 794 531 
L 1825 531 
L 1825 4091 
L 703 3866 
L 703 4441 
L 1819 4666 
L 2450 4666 
L 2450 531 
L 3481 531 
L 3481 0 
L 794 0 
L 794 531 
z
" transform="scale(0.015625)"/>
       </defs>
       <use xlink:href="#DejaVuSans-31"/>
       <use xlink:href="#DejaVuSans-30" x="63.623047"/>
       <use xlink:href="#DejaVuSans-30" x="127.246094"/>
       <use xlink:href="#DejaVuSans-30" x="190.869141"/>
       <use xlink:href="#DejaVuSans-30" x="254.492188"/>
      </g>
     </g>
    </g>
    <g id="ytick_4">
     <g id="line2d_9">
      <g>
       <use xlink:href="#m4bc96cbbf4" x="54" y="92.358434" style="stroke: #000000; stroke-width: 0.8"/>
      </g>
     </g>
     <g id="text_9">
      <!-- 11000 -->
      <g transform="translate(15.1875 96.157652)scale(0.1 -0.1)">
       <use xlink:href="#DejaVuSans-31"/>
       <use xlink:href="#DejaVuSans-31" x="63.623047"/>
       <use xlink:href="#DejaVuSans-30" x="127.246094"/>
       <use xlink:href="#DejaVuSans-30" x="190.869141"/>
       <use xlink:href="#DejaVuSans-30" x="254.492188"/>
      </g>
     </g>
    </g>
    <g id="ytick_5">
     <g id="line2d_10">
      <g>
       <use xlink:href="#m4bc96cbbf4" x="54" y="51.424699" style="stroke: #000000; stroke-width: 0.8"/>
      </g>
     </g>
     <g id="text_10">
      <!-- 12000 -->
      <g transform="translate(15.1875 55.223918)scale(0.1 -0.1)">
       <defs>
        <path id="DejaVuSans-32" d="M 1228 531 
L 3431 531 
L 3431 0 
L 469 0 
L 469 531 
Q 828 903 1448 1529 
Q 2069 2156 2228 2338 
Q 2531 2678 2651 2914 
Q 2772 3150 2772 3378 
Q 2772 3750 2511 3984 
Q 2250 4219 1831 4219 
Q 1534 4219 1204 4116 
Q 875 4013 500 3803 
L 500 4441 
Q 881 4594 1212 4672 
Q 1544 4750 1819 4750 
Q 2544 4750 2975 4387 
Q 3406 4025 3406 3419 
Q 3406 3131 3298 2873 
Q 3191 2616 2906 2266 
Q 2828 2175 2409 1742 
Q 1991 1309 1228 531 
z
" transform="scale(0.015625)"/>
       </defs>
       <use xlink:href="#DejaVuSans-31"/>
       <use xlink:href="#DejaVuSans-32" x="63.623047"/>
       <use xlink:href="#DejaVuSans-30" x="127.246094"/>
       <use xlink:href="#DejaVuSans-30" x="190.869141"/>
       <use xlink:href="#DejaVuSans-30" x="254.492188"/>
      </g>
     </g>
    </g>
   </g>
   <g id="patch_131">
    <path d="M 54 252 
L 54 34.56 
" style="fill: none; stroke: #000000; stroke-width: 0.8; stroke-linejoin: miter; stroke-linecap: square"/>
   </g>
   <g id="patch_132">
    <path d="M 388.8 252 
L 388.8 34.56 
" style="fill: none; stroke: #000000; stroke-width: 0.8; stroke-linejoin: miter; stroke-linecap: square"/>
   </g>
   <g id="patch_133">
    <path d="M 54 252 
L 388.8 252 
" style="fill: none; stroke: #000000; stroke-width: 0.8; stroke-linejoin: miter; stroke-linecap: square"/>
   </g>
   <g id="patch_134">
    <path d="M 54 34.56 
L 388.8 34.56 
" style="fill: none; stroke: #000000; stroke-width: 0.8; stroke-linejoin: miter; stroke-linecap: square"/>
   </g>
  </g>
 </g>
 <defs>
  <clipPath id="p2392833ec0">
   <rect x="54" y="34.56" width="334.8" height="217.44"/>
  </clipPath>
 </defs>
</svg>
