<?xml version="1.0" encoding="utf-8" standalone="no"?>
<!DOCTYPE svg PUBLIC "-//W3C//DTD SVG 1.1//EN"
  "http://www.w3.org/Graphics/SVG/1.1/DTD/svg11.dtd">
<svg xmlns:xlink="http://www.w3.org/1999/xlink" width="1152pt" height="648pt" viewBox="0 0 1152 648" xmlns="http://www.w3.org/2000/svg" version="1.1">
 <metadata>
  <rdf:RDF xmlns:dc="http://purl.org/dc/elements/1.1/" xmlns:cc="http://creativecommons.org/ns#" xmlns:rdf="http://www.w3.org/1999/02/22-rdf-syntax-ns#">
   <cc:Work>
    <dc:type rdf:resource="http://purl.org/dc/dcmitype/StillImage"/>
    <dc:date>2022-04-20T18:42:33.712096</dc:date>
    <dc:format>image/svg+xml</dc:format>
    <dc:creator>
     <cc:Agent>
      <dc:title>Matplotlib v3.5.1, https://matplotlib.org/</dc:title>
     </cc:Agent>
    </dc:creator>
   </cc:Work>
  </rdf:RDF>
 </metadata>
 <defs>
  <style type="text/css">*{stroke-linejoin: round; stroke-linecap: butt}</style>
 </defs>
 <g id="figure_1">
  <g id="patch_1">
   <path d="M 0 648 
L 1152 648 
L 1152 0 
L 0 0 
L 0 648 
z
" style="fill: none"/>
  </g>
  <g id="axes_1"/>
  <g id="axes_2">
   <g id="patch_2">
    <path d="M 144 567 
L 1036.8 567 
L 1036.8 77.76 
L 144 77.76 
z
" style="fill: #ffffff"/>
   </g>
   <g id="patch_3">
    <path d="M 352.798449 253.793256 
L 387.136911 253.793256 
L 387.136911 246.266487 
L 352.798449 246.266487 
L 352.798449 253.793256 
z
" clip-path="url(#pdfe26f5428)" style="fill: none; stroke: #000000; stroke-linejoin: miter"/>
   </g>
   <g id="patch_4">
    <path d="M 746.535268 334.357912 
L 780.873729 334.357912 
L 780.873729 326.831143 
L 746.535268 326.831143 
L 746.535268 334.357912 
z
" clip-path="url(#pdfe26f5428)" style="fill: none; stroke: #000000; stroke-linejoin: miter"/>
   </g>
   <g id="patch_5">
    <path d="M 676.526012 224.901753 
L 710.864474 224.901753 
L 710.864474 217.374983 
L 676.526012 217.374983 
L 676.526012 224.901753 
z
" clip-path="url(#pdfe26f5428)" style="fill: none; stroke: #000000; stroke-linejoin: miter"/>
   </g>
   <g id="patch_6">
    <path d="M 859.795532 476.648192 
L 894.133994 476.648192 
L 894.133994 469.121422 
L 859.795532 469.121422 
L 859.795532 476.648192 
z
" clip-path="url(#pdfe26f5428)" style="fill: none; stroke: #000000; stroke-linejoin: miter"/>
   </g>
   <g id="patch_7">
    <path d="M 601.40376 207.63064 
L 635.742222 207.63064 
L 635.742222 200.10387 
L 601.40376 200.10387 
L 601.40376 207.63064 
z
" clip-path="url(#pdfe26f5428)" style="fill: none; stroke: #000000; stroke-linejoin: miter"/>
   </g>
   <g id="patch_8">
    <path d="M 624.096332 233.174613 
L 658.434794 233.174613 
L 658.434794 225.647844 
L 624.096332 225.647844 
L 624.096332 233.174613 
z
" clip-path="url(#pdfe26f5428)" style="fill: none; stroke: #000000; stroke-linejoin: miter"/>
   </g>
   <g id="patch_9">
    <path d="M 623.605292 303.242248 
L 657.943754 303.242248 
L 657.943754 295.715479 
L 623.605292 295.715479 
L 623.605292 303.242248 
z
" clip-path="url(#pdfe26f5428)" style="fill: none; stroke: #000000; stroke-linejoin: miter"/>
   </g>
   <g id="patch_10">
    <path d="M 477.247902 381.646722 
L 511.586363 381.646722 
L 511.586363 374.119953 
L 477.247902 374.119953 
L 477.247902 381.646722 
z
" clip-path="url(#pdfe26f5428)" style="fill: none; stroke: #000000; stroke-linejoin: miter"/>
   </g>
   <g id="patch_11">
    <path d="M 886.100511 232.579998 
L 920.438972 232.579998 
L 920.438972 225.053229 
L 886.100511 225.053229 
L 886.100511 232.579998 
z
" clip-path="url(#pdfe26f5428)" style="fill: none; stroke: #000000; stroke-linejoin: miter"/>
   </g>
   <g id="patch_12">
    <path d="M 587.191071 416.229404 
L 621.529532 416.229404 
L 621.529532 408.702635 
L 587.191071 408.702635 
L 587.191071 416.229404 
z
" clip-path="url(#pdfe26f5428)" style="fill: none; stroke: #000000; stroke-linejoin: miter"/>
   </g>
   <g id="patch_13">
    <path d="M 431.524523 244.0348 
L 465.862985 244.0348 
L 465.862985 236.508031 
L 431.524523 236.508031 
L 431.524523 244.0348 
z
" clip-path="url(#pdfe26f5428)" style="fill: none; stroke: #000000; stroke-linejoin: miter"/>
   </g>
   <g id="patch_14">
    <path d="M 882.642628 395.272997 
L 916.981089 395.272997 
L 916.981089 387.746227 
L 882.642628 387.746227 
L 882.642628 395.272997 
z
" clip-path="url(#pdfe26f5428)" style="fill: none; stroke: #000000; stroke-linejoin: miter"/>
   </g>
   <g id="patch_15">
    <path d="M 307.665521 260.854307 
L 342.003982 260.854307 
L 342.003982 253.327537 
L 307.665521 253.327537 
L 307.665521 260.854307 
z
" clip-path="url(#pdfe26f5428)" style="fill: none; stroke: #000000; stroke-linejoin: miter"/>
   </g>
   <g id="patch_16">
    <path d="M 884.900382 216.488706 
L 919.238843 216.488706 
L 919.238843 208.961937 
L 884.900382 208.961937 
L 884.900382 216.488706 
z
" clip-path="url(#pdfe26f5428)" style="fill: none; stroke: #000000; stroke-linejoin: miter"/>
   </g>
   <g id="patch_17">
    <path d="M 747.285563 343.487883 
L 781.624025 343.487883 
L 781.624025 335.961114 
L 747.285563 335.961114 
L 747.285563 343.487883 
z
" clip-path="url(#pdfe26f5428)" style="fill: none; stroke: #000000; stroke-linejoin: miter"/>
   </g>
   <g id="patch_18">
    <path d="M 333.816834 340.123418 
L 368.155296 340.123418 
L 368.155296 332.596648 
L 333.816834 332.596648 
L 333.816834 340.123418 
z
" clip-path="url(#pdfe26f5428)" style="fill: none; stroke: #000000; stroke-linejoin: miter"/>
   </g>
   <g id="patch_19">
    <path d="M 592.963366 365.725723 
L 627.301828 365.725723 
L 627.301828 358.198954 
L 592.963366 358.198954 
L 592.963366 365.725723 
z
" clip-path="url(#pdfe26f5428)" style="fill: none; stroke: #000000; stroke-linejoin: miter"/>
   </g>
   <g id="patch_20">
    <path d="M 664.45776 455.511612 
L 698.796222 455.511612 
L 698.796222 447.984843 
L 664.45776 447.984843 
L 664.45776 455.511612 
z
" clip-path="url(#pdfe26f5428)" style="fill: none; stroke: #000000; stroke-linejoin: miter"/>
   </g>
   <g id="patch_21">
    <path d="M 350.947606 441.223923 
L 385.286068 441.223923 
L 385.286068 433.697154 
L 350.947606 433.697154 
L 350.947606 441.223923 
z
" clip-path="url(#pdfe26f5428)" style="fill: none; stroke: #000000; stroke-linejoin: miter"/>
   </g>
   <g id="patch_22">
    <path d="M 586.562677 519.02522 
L 620.901138 519.02522 
L 620.901138 511.49845 
L 586.562677 511.49845 
L 586.562677 519.02522 
z
" clip-path="url(#pdfe26f5428)" style="fill: none; stroke: #000000; stroke-linejoin: miter"/>
   </g>
   <g id="patch_23">
    <path d="M 350.774197 477.776172 
L 385.112658 477.776172 
L 385.112658 470.249403 
L 350.774197 470.249403 
L 350.774197 477.776172 
z
" clip-path="url(#pdfe26f5428)" style="fill: none; stroke: #000000; stroke-linejoin: miter"/>
   </g>
   <g id="patch_24">
    <path d="M 531.545594 264.628981 
L 565.884055 264.628981 
L 565.884055 257.102212 
L 531.545594 257.102212 
L 531.545594 264.628981 
z
" clip-path="url(#pdfe26f5428)" style="fill: none; stroke: #000000; stroke-linejoin: miter"/>
   </g>
   <g id="patch_25">
    <path d="M 878.041274 552.602335 
L 912.379735 552.602335 
L 912.379735 545.075566 
L 878.041274 545.075566 
L 878.041274 552.602335 
z
" clip-path="url(#pdfe26f5428)" style="fill: none; stroke: #000000; stroke-linejoin: miter"/>
   </g>
   <g id="patch_26">
    <path d="M 635.908763 314.553101 
L 670.247225 314.553101 
L 670.247225 307.026332 
L 635.908763 307.026332 
L 635.908763 314.553101 
z
" clip-path="url(#pdfe26f5428)" style="fill: none; stroke: #000000; stroke-linejoin: miter"/>
   </g>
   <g id="patch_27">
    <path d="M 239.653734 296.87272 
L 273.992195 296.87272 
L 273.992195 289.345951 
L 239.653734 289.345951 
L 239.653734 296.87272 
z
" clip-path="url(#pdfe26f5428)" style="fill: none; stroke: #000000; stroke-linejoin: miter"/>
   </g>
   <g id="patch_28">
    <path d="M 873.467391 348.517647 
L 907.805852 348.517647 
L 907.805852 340.990878 
L 873.467391 340.990878 
L 873.467391 348.517647 
z
" clip-path="url(#pdfe26f5428)" style="fill: none; stroke: #000000; stroke-linejoin: miter"/>
   </g>
   <g id="patch_29">
    <path d="M 367.297865 329.902065 
L 401.636326 329.902065 
L 401.636326 322.375296 
L 367.297865 322.375296 
L 367.297865 329.902065 
z
" clip-path="url(#pdfe26f5428)" style="fill: none; stroke: #000000; stroke-linejoin: miter"/>
   </g>
   <g id="patch_30">
    <path d="M 943.045698 214.140354 
L 977.38416 214.140354 
L 977.38416 206.613585 
L 943.045698 206.613585 
L 943.045698 214.140354 
z
" clip-path="url(#pdfe26f5428)" style="fill: none; stroke: #000000; stroke-linejoin: miter"/>
   </g>
   <g id="patch_31">
    <path d="M 787.650425 541.905845 
L 821.988886 541.905845 
L 821.988886 534.379076 
L 787.650425 534.379076 
L 787.650425 541.905845 
z
" clip-path="url(#pdfe26f5428)" style="fill: none; stroke: #000000; stroke-linejoin: miter"/>
   </g>
   <g id="patch_32">
    <path d="M 503.369169 161.426626 
L 537.707631 161.426626 
L 537.707631 153.899857 
L 503.369169 153.899857 
L 503.369169 161.426626 
z
" clip-path="url(#pdfe26f5428)" style="fill: none; stroke: #000000; stroke-linejoin: miter"/>
   </g>
   <g id="patch_33">
    <path d="M 483.203908 322.195594 
L 517.542369 322.195594 
L 517.542369 314.668825 
L 483.203908 314.668825 
L 483.203908 322.195594 
z
" clip-path="url(#pdfe26f5428)" style="fill: none; stroke: #000000; stroke-linejoin: miter"/>
   </g>
   <g id="patch_34">
    <path d="M 444.646966 381.379521 
L 478.985428 381.379521 
L 478.985428 373.852752 
L 444.646966 373.852752 
L 444.646966 381.379521 
z
" clip-path="url(#pdfe26f5428)" style="fill: none; stroke: #000000; stroke-linejoin: miter"/>
   </g>
   <g id="patch_35">
    <path d="M 211.815371 237.933413 
L 246.153833 237.933413 
L 246.153833 230.406643 
L 211.815371 230.406643 
L 211.815371 237.933413 
z
" clip-path="url(#pdfe26f5428)" style="fill: none; stroke: #000000; stroke-linejoin: miter"/>
   </g>
   <g id="patch_36">
    <path d="M 731.139618 398.892432 
L 765.47808 398.892432 
L 765.47808 391.365663 
L 731.139618 391.365663 
L 731.139618 398.892432 
z
" clip-path="url(#pdfe26f5428)" style="fill: none; stroke: #000000; stroke-linejoin: miter"/>
   </g>
   <g id="patch_37">
    <path d="M 273.903945 513.923481 
L 308.242407 513.923481 
L 308.242407 506.396712 
L 273.903945 506.396712 
L 273.903945 513.923481 
z
" clip-path="url(#pdfe26f5428)" style="fill: none; stroke: #000000; stroke-linejoin: miter"/>
   </g>
   <g id="patch_38">
    <path d="M 420.70104 487.689398 
L 455.039502 487.689398 
L 455.039502 480.162628 
L 420.70104 480.162628 
L 420.70104 487.689398 
z
" clip-path="url(#pdfe26f5428)" style="fill: none; stroke: #000000; stroke-linejoin: miter"/>
   </g>
   <g id="patch_39">
    <path d="M 345.851778 233.83885 
L 380.19024 233.83885 
L 380.19024 226.312081 
L 345.851778 226.312081 
L 345.851778 233.83885 
z
" clip-path="url(#pdfe26f5428)" style="fill: none; stroke: #000000; stroke-linejoin: miter"/>
   </g>
   <g id="patch_40">
    <path d="M 457.323009 232.438871 
L 491.661471 232.438871 
L 491.661471 224.912102 
L 457.323009 224.912102 
L 457.323009 232.438871 
z
" clip-path="url(#pdfe26f5428)" style="fill: none; stroke: #000000; stroke-linejoin: miter"/>
   </g>
   <g id="patch_41">
    <path d="M 825.045009 232.345727 
L 859.383471 232.345727 
L 859.383471 224.818958 
L 825.045009 224.818958 
L 825.045009 232.345727 
z
" clip-path="url(#pdfe26f5428)" style="fill: none; stroke: #000000; stroke-linejoin: miter"/>
   </g>
   <g id="patch_42">
    <path d="M 651.565385 477.020579 
L 685.903846 477.020579 
L 685.903846 469.493809 
L 651.565385 469.493809 
L 651.565385 477.020579 
z
" clip-path="url(#pdfe26f5428)" style="fill: none; stroke: #000000; stroke-linejoin: miter"/>
   </g>
   <g id="patch_43">
    <path d="M 700.286511 461.866276 
L 734.624972 461.866276 
L 734.624972 454.339506 
L 700.286511 454.339506 
L 700.286511 461.866276 
z
" clip-path="url(#pdfe26f5428)" style="fill: none; stroke: #000000; stroke-linejoin: miter"/>
   </g>
   <g id="patch_44">
    <path d="M 361.8432 285.561867 
L 396.181662 285.561867 
L 396.181662 278.035098 
L 361.8432 278.035098 
L 361.8432 285.561867 
z
" clip-path="url(#pdfe26f5428)" style="fill: none; stroke: #000000; stroke-linejoin: miter"/>
   </g>
   <g id="patch_45">
    <path d="M 527.248135 333.302283 
L 561.586597 333.302283 
L 561.586597 325.775514 
L 527.248135 325.775514 
L 527.248135 333.302283 
z
" clip-path="url(#pdfe26f5428)" style="fill: none; stroke: #000000; stroke-linejoin: miter"/>
   </g>
   <g id="patch_46">
    <path d="M 626.285409 164.827785 
L 660.623871 164.827785 
L 660.623871 157.301016 
L 626.285409 157.301016 
L 626.285409 164.827785 
z
" clip-path="url(#pdfe26f5428)" style="fill: none; stroke: #000000; stroke-linejoin: miter"/>
   </g>
   <g id="patch_47">
    <path d="M 909.737391 149.34522 
L 944.075852 149.34522 
L 944.075852 141.818451 
L 909.737391 141.818451 
L 909.737391 149.34522 
z
" clip-path="url(#pdfe26f5428)" style="fill: none; stroke: #000000; stroke-linejoin: miter"/>
   </g>
   <g id="patch_48">
    <path d="M 731.651262 439.603786 
L 765.989723 439.603786 
L 765.989723 432.077016 
L 731.651262 432.077016 
L 731.651262 439.603786 
z
" clip-path="url(#pdfe26f5428)" style="fill: none; stroke: #000000; stroke-linejoin: miter"/>
   </g>
   <g id="patch_49">
    <path d="M 322.78526 204.636867 
L 357.123722 204.636867 
L 357.123722 197.110098 
L 322.78526 197.110098 
L 322.78526 204.636867 
z
" clip-path="url(#pdfe26f5428)" style="fill: none; stroke: #000000; stroke-linejoin: miter"/>
   </g>
   <g id="patch_50">
    <path d="M 694.548554 486.353961 
L 728.887015 486.353961 
L 728.887015 478.827191 
L 694.548554 478.827191 
L 694.548554 486.353961 
z
" clip-path="url(#pdfe26f5428)" style="fill: none; stroke: #000000; stroke-linejoin: miter"/>
   </g>
   <g id="patch_51">
    <path d="M 467.892388 291.338663 
L 502.230849 291.338663 
L 502.230849 283.811894 
L 467.892388 283.811894 
L 467.892388 291.338663 
z
" clip-path="url(#pdfe26f5428)" style="fill: none; stroke: #000000; stroke-linejoin: miter"/>
   </g>
   <g id="patch_52">
    <path d="M 791.422505 405.445425 
L 825.760966 405.445425 
L 825.760966 397.918656 
L 791.422505 397.918656 
L 791.422505 405.445425 
z
" clip-path="url(#pdfe26f5428)" style="fill: none; stroke: #000000; stroke-linejoin: miter"/>
   </g>
   <g id="patch_53">
    <path d="M 331.825032 465.913137 
L 366.163494 465.913137 
L 366.163494 458.386368 
L 331.825032 458.386368 
L 331.825032 465.913137 
z
" clip-path="url(#pdfe26f5428)" style="fill: none; stroke: #000000; stroke-linejoin: miter"/>
   </g>
   <g id="patch_54">
    <path d="M 354.178855 535.23741 
L 388.517317 535.23741 
L 388.517317 527.710641 
L 354.178855 527.710641 
L 354.178855 535.23741 
z
" clip-path="url(#pdfe26f5428)" style="fill: none; stroke: #000000; stroke-linejoin: miter"/>
   </g>
   <g id="patch_55">
    <path d="M 384.190671 181.600249 
L 418.529132 181.600249 
L 418.529132 174.07348 
L 384.190671 174.07348 
L 384.190671 181.600249 
z
" clip-path="url(#pdfe26f5428)" style="fill: none; stroke: #000000; stroke-linejoin: miter"/>
   </g>
   <g id="patch_56">
    <path d="M 756.888314 255.125494 
L 791.226775 255.125494 
L 791.226775 247.598725 
L 756.888314 247.598725 
L 756.888314 255.125494 
z
" clip-path="url(#pdfe26f5428)" style="fill: none; stroke: #000000; stroke-linejoin: miter"/>
   </g>
   <g id="patch_57">
    <path d="M 570.270794 269.650277 
L 604.609255 269.650277 
L 604.609255 262.123508 
L 570.270794 262.123508 
L 570.270794 269.650277 
z
" clip-path="url(#pdfe26f5428)" style="fill: none; stroke: #000000; stroke-linejoin: miter"/>
   </g>
   <g id="patch_58">
    <path d="M 395.154942 300.070656 
L 429.493403 300.070656 
L 429.493403 292.543887 
L 395.154942 292.543887 
L 395.154942 300.070656 
z
" clip-path="url(#pdfe26f5428)" style="fill: none; stroke: #000000; stroke-linejoin: miter"/>
   </g>
   <g id="patch_59">
    <path d="M 810.998862 439.640479 
L 845.337323 439.640479 
L 845.337323 432.113709 
L 810.998862 432.113709 
L 810.998862 439.640479 
z
" clip-path="url(#pdfe26f5428)" style="fill: none; stroke: #000000; stroke-linejoin: miter"/>
   </g>
   <g id="patch_60">
    <path d="M 597.523514 448.913458 
L 631.861975 448.913458 
L 631.861975 441.386689 
L 597.523514 441.386689 
L 597.523514 448.913458 
z
" clip-path="url(#pdfe26f5428)" style="fill: none; stroke: #000000; stroke-linejoin: miter"/>
   </g>
   <g id="patch_61">
    <path d="M 920.699945 488.373957 
L 955.038406 488.373957 
L 955.038406 480.847188 
L 920.699945 480.847188 
L 920.699945 488.373957 
z
" clip-path="url(#pdfe26f5428)" style="fill: none; stroke: #000000; stroke-linejoin: miter"/>
   </g>
   <g id="patch_62">
    <path d="M 612.213508 139.610285 
L 646.551969 139.610285 
L 646.551969 132.083516 
L 612.213508 132.083516 
L 612.213508 139.610285 
z
" clip-path="url(#pdfe26f5428)" style="fill: none; stroke: #000000; stroke-linejoin: miter"/>
   </g>
   <g id="patch_63">
    <path d="M 733.670363 314.35176 
L 768.008825 314.35176 
L 768.008825 306.824991 
L 733.670363 306.824991 
L 733.670363 314.35176 
z
" clip-path="url(#pdfe26f5428)" style="fill: none; stroke: #000000; stroke-linejoin: miter"/>
   </g>
   <g id="patch_64">
    <path d="M 320.061877 368.977287 
L 354.400338 368.977287 
L 354.400338 361.450518 
L 320.061877 361.450518 
L 320.061877 368.977287 
z
" clip-path="url(#pdfe26f5428)" style="fill: none; stroke: #000000; stroke-linejoin: miter"/>
   </g>
   <g id="patch_65">
    <path d="M 226.938716 407.201985 
L 261.277178 407.201985 
L 261.277178 399.675216 
L 226.938716 399.675216 
L 226.938716 407.201985 
z
" clip-path="url(#pdfe26f5428)" style="fill: none; stroke: #000000; stroke-linejoin: miter"/>
   </g>
   <g id="patch_66">
    <path d="M 832.285274 488.731479 
L 866.623735 488.731479 
L 866.623735 481.20471 
L 832.285274 481.20471 
L 832.285274 488.731479 
z
" clip-path="url(#pdfe26f5428)" style="fill: none; stroke: #000000; stroke-linejoin: miter"/>
   </g>
   <g id="patch_67">
    <path d="M 507.446862 189.098793 
L 541.785323 189.098793 
L 541.785323 181.572024 
L 507.446862 181.572024 
L 507.446862 189.098793 
z
" clip-path="url(#pdfe26f5428)" style="fill: none; stroke: #000000; stroke-linejoin: miter"/>
   </g>
   <g id="patch_68">
    <path d="M 499.04424 496.513123 
L 533.382702 496.513123 
L 533.382702 488.986354 
L 499.04424 488.986354 
L 499.04424 496.513123 
z
" clip-path="url(#pdfe26f5428)" style="fill: none; stroke: #000000; stroke-linejoin: miter"/>
   </g>
   <g id="patch_69">
    <path d="M 633.273286 510.518653 
L 667.611748 510.518653 
L 667.611748 502.991884 
L 633.273286 502.991884 
L 633.273286 510.518653 
z
" clip-path="url(#pdfe26f5428)" style="fill: none; stroke: #000000; stroke-linejoin: miter"/>
   </g>
   <g id="patch_70">
    <path d="M 527.763212 509.172302 
L 562.101674 509.172302 
L 562.101674 501.645533 
L 527.763212 501.645533 
L 527.763212 509.172302 
z
" clip-path="url(#pdfe26f5428)" style="fill: none; stroke: #000000; stroke-linejoin: miter"/>
   </g>
   <g id="patch_71">
    <path d="M 788.283969 191.703996 
L 822.622431 191.703996 
L 822.622431 184.177227 
L 788.283969 184.177227 
L 788.283969 191.703996 
z
" clip-path="url(#pdfe26f5428)" style="fill: none; stroke: #000000; stroke-linejoin: miter"/>
   </g>
   <g id="patch_72">
    <path d="M 704.177058 426.296458 
L 738.51552 426.296458 
L 738.51552 418.769688 
L 704.177058 418.769688 
L 704.177058 426.296458 
z
" clip-path="url(#pdfe26f5428)" style="fill: none; stroke: #000000; stroke-linejoin: miter"/>
   </g>
   <g id="patch_73">
    <path d="M 266.390862 158.357586 
L 300.729323 158.357586 
L 300.729323 150.830817 
L 266.390862 150.830817 
L 266.390862 158.357586 
z
" clip-path="url(#pdfe26f5428)" style="fill: none; stroke: #000000; stroke-linejoin: miter"/>
   </g>
   <g id="patch_74">
    <path d="M 655.06104 278.92702 
L 689.399502 278.92702 
L 689.399502 271.400251 
L 655.06104 271.400251 
L 655.06104 278.92702 
z
" clip-path="url(#pdfe26f5428)" style="fill: none; stroke: #000000; stroke-linejoin: miter"/>
   </g>
   <g id="patch_75">
    <path d="M 484.889926 181.098778 
L 519.228388 181.098778 
L 519.228388 173.572009 
L 484.889926 173.572009 
L 484.889926 181.098778 
z
" clip-path="url(#pdfe26f5428)" style="fill: none; stroke: #000000; stroke-linejoin: miter"/>
   </g>
   <g id="patch_76">
    <path d="M 463.776923 447.946269 
L 498.115385 447.946269 
L 498.115385 440.419499 
L 463.776923 440.419499 
L 463.776923 447.946269 
z
" clip-path="url(#pdfe26f5428)" style="fill: none; stroke: #000000; stroke-linejoin: miter"/>
   </g>
   <g id="patch_77">
    <path d="M 408.287686 132.757162 
L 442.626148 132.757162 
L 442.626148 125.230393 
L 408.287686 125.230393 
L 408.287686 132.757162 
z
" clip-path="url(#pdfe26f5428)" style="fill: none; stroke: #000000; stroke-linejoin: miter"/>
   </g>
   <g id="patch_78">
    <path d="M 623.938375 394.286049 
L 658.276837 394.286049 
L 658.276837 386.75928 
L 623.938375 386.75928 
L 623.938375 394.286049 
z
" clip-path="url(#pdfe26f5428)" style="fill: none; stroke: #000000; stroke-linejoin: miter"/>
   </g>
   <g id="patch_79">
    <path d="M 171.065232 356.865775 
L 205.403694 356.865775 
L 205.403694 349.339006 
L 171.065232 349.339006 
L 171.065232 356.865775 
z
" clip-path="url(#pdfe26f5428)" style="fill: none; stroke: #000000; stroke-linejoin: miter"/>
   </g>
   <g id="patch_80">
    <path d="M 352.628474 525.428901 
L 386.966935 525.428901 
L 386.966935 517.902132 
L 352.628474 517.902132 
L 352.628474 525.428901 
z
" clip-path="url(#pdfe26f5428)" style="fill: none; stroke: #000000; stroke-linejoin: miter"/>
   </g>
   <g id="patch_81">
    <path d="M 411.357545 499.053596 
L 445.696006 499.053596 
L 445.696006 491.526827 
L 411.357545 491.526827 
L 411.357545 499.053596 
z
" clip-path="url(#pdfe26f5428)" style="fill: none; stroke: #000000; stroke-linejoin: miter"/>
   </g>
   <g id="patch_82">
    <path d="M 854.442166 164.840016 
L 888.780628 164.840016 
L 888.780628 157.313247 
L 854.442166 157.313247 
L 854.442166 164.840016 
z
" clip-path="url(#pdfe26f5428)" style="fill: none; stroke: #000000; stroke-linejoin: miter"/>
   </g>
   <g id="patch_83">
    <path d="M 837.197391 290.698887 
L 871.535852 290.698887 
L 871.535852 283.172118 
L 837.197391 283.172118 
L 837.197391 290.698887 
z
" clip-path="url(#pdfe26f5428)" style="fill: none; stroke: #000000; stroke-linejoin: miter"/>
   </g>
   <g id="patch_84">
    <path d="M 598.340769 437.855694 
L 632.679231 437.855694 
L 632.679231 430.328924 
L 598.340769 430.328924 
L 598.340769 437.855694 
z
" clip-path="url(#pdfe26f5428)" style="fill: none; stroke: #000000; stroke-linejoin: miter"/>
   </g>
   <g id="patch_85">
    <path d="M 425.724757 286.02006 
L 460.063218 286.02006 
L 460.063218 278.49329 
L 425.724757 278.49329 
L 425.724757 286.02006 
z
" clip-path="url(#pdfe26f5428)" style="fill: none; stroke: #000000; stroke-linejoin: miter"/>
   </g>
   <g id="patch_86">
    <path d="M 819.073551 516.196283 
L 853.412012 516.196283 
L 853.412012 508.669514 
L 819.073551 508.669514 
L 819.073551 516.196283 
z
" clip-path="url(#pdfe26f5428)" style="fill: none; stroke: #000000; stroke-linejoin: miter"/>
   </g>
   <g id="patch_87">
    <path d="M 702.983797 328.038249 
L 737.322258 328.038249 
L 737.322258 320.51148 
L 702.983797 320.51148 
L 702.983797 328.038249 
z
" clip-path="url(#pdfe26f5428)" style="fill: none; stroke: #000000; stroke-linejoin: miter"/>
   </g>
   <g id="patch_88">
    <path d="M 404.771428 341.122596 
L 439.109889 341.122596 
L 439.109889 333.595827 
L 404.771428 333.595827 
L 404.771428 341.122596 
z
" clip-path="url(#pdfe26f5428)" style="fill: none; stroke: #000000; stroke-linejoin: miter"/>
   </g>
   <g id="patch_89">
    <path d="M 795.113889 484.519687 
L 829.452351 484.519687 
L 829.452351 476.992918 
L 795.113889 476.992918 
L 795.113889 484.519687 
z
" clip-path="url(#pdfe26f5428)" style="fill: none; stroke: #000000; stroke-linejoin: miter"/>
   </g>
   <g id="patch_90">
    <path d="M 197.811288 312.615899 
L 232.14975 312.615899 
L 232.14975 305.089129 
L 197.811288 305.089129 
L 197.811288 312.615899 
z
" clip-path="url(#pdfe26f5428)" style="fill: none; stroke: #000000; stroke-linejoin: miter"/>
   </g>
   <g id="patch_91">
    <path d="M 270.749442 376.949077 
L 305.087904 376.949077 
L 305.087904 369.422308 
L 270.749442 369.422308 
L 270.749442 376.949077 
z
" clip-path="url(#pdfe26f5428)" style="fill: none; stroke: #000000; stroke-linejoin: miter"/>
   </g>
   <g id="patch_92">
    <path d="M 829.103815 183.307885 
L 863.442277 183.307885 
L 863.442277 175.781116 
L 829.103815 175.781116 
L 829.103815 183.307885 
z
" clip-path="url(#pdfe26f5428)" style="fill: none; stroke: #000000; stroke-linejoin: miter"/>
   </g>
   <g id="patch_93">
    <path d="M 651.294111 360.54072 
L 685.632572 360.54072 
L 685.632572 353.013951 
L 651.294111 353.013951 
L 651.294111 360.54072 
z
" clip-path="url(#pdfe26f5428)" style="fill: none; stroke: #000000; stroke-linejoin: miter"/>
   </g>
   <g id="patch_94">
    <path d="M 564.944898 404.030393 
L 599.28336 404.030393 
L 599.28336 396.503623 
L 564.944898 396.503623 
L 564.944898 404.030393 
z
" clip-path="url(#pdfe26f5428)" style="fill: none; stroke: #000000; stroke-linejoin: miter"/>
   </g>
   <g id="patch_95">
    <path d="M 373.174892 369.462764 
L 407.513354 369.462764 
L 407.513354 361.935995 
L 373.174892 361.935995 
L 373.174892 369.462764 
z
" clip-path="url(#pdfe26f5428)" style="fill: none; stroke: #000000; stroke-linejoin: miter"/>
   </g>
   <g id="patch_96">
    <path d="M 539.721582 500.220151 
L 574.060043 500.220151 
L 574.060043 492.693382 
L 539.721582 492.693382 
L 539.721582 500.220151 
z
" clip-path="url(#pdfe26f5428)" style="fill: none; stroke: #000000; stroke-linejoin: miter"/>
   </g>
   <g id="patch_97">
    <path d="M 476.468418 304.204734 
L 510.80688 304.204734 
L 510.80688 296.677965 
L 476.468418 296.677965 
L 476.468418 304.204734 
z
" clip-path="url(#pdfe26f5428)" style="fill: none; stroke: #000000; stroke-linejoin: miter"/>
   </g>
   <g id="patch_98">
    <path d="M 510.448043 551.433813 
L 544.786505 551.433813 
L 544.786505 543.907044 
L 510.448043 543.907044 
L 510.448043 551.433813 
z
" clip-path="url(#pdfe26f5428)" style="fill: none; stroke: #000000; stroke-linejoin: miter"/>
   </g>
   <g id="patch_99">
    <path d="M 852.117452 255.784087 
L 886.455914 255.784087 
L 886.455914 248.257317 
L 852.117452 248.257317 
L 852.117452 255.784087 
z
" clip-path="url(#pdfe26f5428)" style="fill: none; stroke: #000000; stroke-linejoin: miter"/>
   </g>
   <g id="patch_100">
    <path d="M 398.04624 437.276132 
L 432.384702 437.276132 
L 432.384702 429.749363 
L 398.04624 429.749363 
L 398.04624 437.276132 
z
" clip-path="url(#pdfe26f5428)" style="fill: none; stroke: #000000; stroke-linejoin: miter"/>
   </g>
   <g id="patch_101">
    <path d="M 224.85317 469.671535 
L 259.191631 469.671535 
L 259.191631 462.144766 
L 224.85317 462.144766 
L 224.85317 469.671535 
z
" clip-path="url(#pdfe26f5428)" style="fill: none; stroke: #000000; stroke-linejoin: miter"/>
   </g>
   <g id="patch_102">
    <path d="M 190.725546 415.304552 
L 225.064008 415.304552 
L 225.064008 407.777783 
L 190.725546 407.777783 
L 190.725546 415.304552 
z
" clip-path="url(#pdfe26f5428)" style="fill: none; stroke: #000000; stroke-linejoin: miter"/>
   </g>
   <g id="patch_103">
    <path d="M 284.551615 192.617558 
L 318.890077 192.617558 
L 318.890077 185.090788 
L 284.551615 185.090788 
L 284.551615 192.617558 
z
" clip-path="url(#pdfe26f5428)" style="fill: none; stroke: #000000; stroke-linejoin: miter"/>
   </g>
   <g id="patch_104">
    <path d="M 636.001477 216.297714 
L 670.339938 216.297714 
L 670.339938 208.770945 
L 636.001477 208.770945 
L 636.001477 216.297714 
z
" clip-path="url(#pdfe26f5428)" style="fill: none; stroke: #000000; stroke-linejoin: miter"/>
   </g>
   <g id="patch_105">
    <path d="M 282.480491 350.151897 
L 316.818953 350.151897 
L 316.818953 342.625128 
L 282.480491 342.625128 
L 282.480491 350.151897 
z
" clip-path="url(#pdfe26f5428)" style="fill: none; stroke: #000000; stroke-linejoin: miter"/>
   </g>
   <g id="patch_106">
    <path d="M 671.138308 302.755831 
L 705.476769 302.755831 
L 705.476769 295.229062 
L 671.138308 295.229062 
L 671.138308 302.755831 
z
" clip-path="url(#pdfe26f5428)" style="fill: none; stroke: #000000; stroke-linejoin: miter"/>
   </g>
   <g id="patch_107">
    <path d="M 646.897071 374.612015 
L 681.235532 374.612015 
L 681.235532 367.085246 
L 646.897071 367.085246 
L 646.897071 374.612015 
z
" clip-path="url(#pdfe26f5428)" style="fill: none; stroke: #000000; stroke-linejoin: miter"/>
   </g>
   <g id="patch_108">
    <path d="M 688.42944 254.0868 
L 722.767902 254.0868 
L 722.767902 246.560031 
L 688.42944 246.560031 
L 688.42944 254.0868 
z
" clip-path="url(#pdfe26f5428)" style="fill: none; stroke: #000000; stroke-linejoin: miter"/>
   </g>
   <g id="patch_109">
    <path d="M 776.129871 383.883113 
L 810.468332 383.883113 
L 810.468332 376.356344 
L 776.129871 376.356344 
L 776.129871 383.883113 
z
" clip-path="url(#pdfe26f5428)" style="fill: none; stroke: #000000; stroke-linejoin: miter"/>
   </g>
   <g id="patch_110">
    <path d="M 353.85264 403.59384 
L 388.191102 403.59384 
L 388.191102 396.067071 
L 353.85264 396.067071 
L 353.85264 403.59384 
z
" clip-path="url(#pdfe26f5428)" style="fill: none; stroke: #000000; stroke-linejoin: miter"/>
   </g>
   <g id="patch_111">
    <path d="M 692.740634 165.858952 
L 727.079095 165.858952 
L 727.079095 158.332183 
L 692.740634 158.332183 
L 692.740634 165.858952 
z
" clip-path="url(#pdfe26f5428)" style="fill: none; stroke: #000000; stroke-linejoin: miter"/>
   </g>
   <g id="patch_112">
    <path d="M 291.071287 138.952634 
L 325.409749 138.952634 
L 325.409749 131.425865 
L 291.071287 131.425865 
L 291.071287 138.952634 
z
" clip-path="url(#pdfe26f5428)" style="fill: none; stroke: #000000; stroke-linejoin: miter"/>
   </g>
   <g id="patch_113">
    <path d="M 575.964111 245.560852 
L 610.302572 245.560852 
L 610.302572 238.034083 
L 575.964111 238.034083 
L 575.964111 245.560852 
z
" clip-path="url(#pdfe26f5428)" style="fill: none; stroke: #000000; stroke-linejoin: miter"/>
   </g>
   <g id="patch_114">
    <path d="M 798.461889 467.171519 
L 832.800351 467.171519 
L 832.800351 459.64475 
L 798.461889 459.64475 
L 798.461889 467.171519 
z
" clip-path="url(#pdfe26f5428)" style="fill: none; stroke: #000000; stroke-linejoin: miter"/>
   </g>
   <g id="patch_115">
    <path d="M 714.815114 520.575076 
L 749.153575 520.575076 
L 749.153575 513.048306 
L 714.815114 513.048306 
L 714.815114 520.575076 
z
" clip-path="url(#pdfe26f5428)" style="fill: none; stroke: #000000; stroke-linejoin: miter"/>
   </g>
   <g id="patch_116">
    <path d="M 831.502357 508.504584 
L 865.840818 508.504584 
L 865.840818 500.977815 
L 831.502357 500.977815 
L 831.502357 508.504584 
z
" clip-path="url(#pdfe26f5428)" style="fill: none; stroke: #000000; stroke-linejoin: miter"/>
   </g>
   <g id="patch_117">
    <path d="M 322.298684 289.64514 
L 356.637146 289.64514 
L 356.637146 282.118371 
L 322.298684 282.118371 
L 322.298684 289.64514 
z
" clip-path="url(#pdfe26f5428)" style="fill: none; stroke: #000000; stroke-linejoin: miter"/>
   </g>
   <g id="patch_118">
    <path d="M 731.944855 507.567219 
L 766.283317 507.567219 
L 766.283317 500.04045 
L 731.944855 500.04045 
L 731.944855 507.567219 
z
" clip-path="url(#pdfe26f5428)" style="fill: none; stroke: #000000; stroke-linejoin: miter"/>
   </g>
   <g id="patch_119">
    <path d="M 655.943538 145.401193 
L 690.282 145.401193 
L 690.282 137.874424 
L 655.943538 137.874424 
L 655.943538 145.401193 
z
" clip-path="url(#pdfe26f5428)" style="fill: none; stroke: #000000; stroke-linejoin: miter"/>
   </g>
   <g id="patch_120">
    <path d="M 232.535542 270.127286 
L 266.874004 270.127286 
L 266.874004 262.600517 
L 232.535542 262.600517 
L 232.535542 270.127286 
z
" clip-path="url(#pdfe26f5428)" style="fill: none; stroke: #000000; stroke-linejoin: miter"/>
   </g>
   <g id="patch_121">
    <path d="M 640.918745 219.698873 
L 675.257206 219.698873 
L 675.257206 212.172104 
L 640.918745 212.172104 
L 640.918745 219.698873 
z
" clip-path="url(#pdfe26f5428)" style="fill: none; stroke: #000000; stroke-linejoin: miter"/>
   </g>
   <g id="patch_122">
    <path d="M 800.633797 418.348189 
L 834.972258 418.348189 
L 834.972258 410.82142 
L 800.633797 410.82142 
L 800.633797 418.348189 
z
" clip-path="url(#pdfe26f5428)" style="fill: none; stroke: #000000; stroke-linejoin: miter"/>
   </g>
   <g id="patch_123">
    <path d="M 656.19936 555.042117 
L 690.537822 555.042117 
L 690.537822 547.515348 
L 656.19936 547.515348 
L 656.19936 555.042117 
z
" clip-path="url(#pdfe26f5428)" style="fill: none; stroke: #000000; stroke-linejoin: miter"/>
   </g>
   <g id="patch_124">
    <path d="M 247.817531 221.297371 
L 282.155993 221.297371 
L 282.155993 213.770602 
L 247.817531 213.770602 
L 247.817531 221.297371 
z
" clip-path="url(#pdfe26f5428)" style="fill: none; stroke: #000000; stroke-linejoin: miter"/>
   </g>
   <g id="patch_125">
    <path d="M 431.576031 535.560403 
L 465.914492 535.560403 
L 465.914492 528.033633 
L 431.576031 528.033633 
L 431.576031 535.560403 
z
" clip-path="url(#pdfe26f5428)" style="fill: none; stroke: #000000; stroke-linejoin: miter"/>
   </g>
   <g id="patch_126">
    <path d="M 548.158542 178.558494 
L 582.497003 178.558494 
L 582.497003 171.031724 
L 548.158542 171.031724 
L 548.158542 178.558494 
z
" clip-path="url(#pdfe26f5428)" style="fill: none; stroke: #000000; stroke-linejoin: miter"/>
   </g>
   <g id="patch_127">
    <path d="M 587.294086 150.01134 
L 621.632548 150.01134 
L 621.632548 142.48457 
L 587.294086 142.48457 
L 587.294086 150.01134 
z
" clip-path="url(#pdfe26f5428)" style="fill: none; stroke: #000000; stroke-linejoin: miter"/>
   </g>
   <g id="patch_128">
    <path d="M 196.710054 251.42891 
L 231.048515 251.42891 
L 231.048515 243.902141 
L 196.710054 243.902141 
L 196.710054 251.42891 
z
" clip-path="url(#pdfe26f5428)" style="fill: none; stroke: #000000; stroke-linejoin: miter"/>
   </g>
   <g id="patch_129">
    <path d="M 291.581385 340.801768 
L 325.919847 340.801768 
L 325.919847 333.274998 
L 291.581385 333.274998 
L 291.581385 340.801768 
z
" clip-path="url(#pdfe26f5428)" style="fill: none; stroke: #000000; stroke-linejoin: miter"/>
   </g>
   <g id="patch_130">
    <path d="M 429.738923 358.704188 
L 464.077385 358.704188 
L 464.077385 351.177419 
L 429.738923 351.177419 
L 429.738923 358.704188 
z
" clip-path="url(#pdfe26f5428)" style="fill: none; stroke: #000000; stroke-linejoin: miter"/>
   </g>
   <g id="patch_131">
    <path d="M 411.956751 156.457077 
L 446.295212 156.457077 
L 446.295212 148.930307 
L 411.956751 148.930307 
L 411.956751 156.457077 
z
" clip-path="url(#pdfe26f5428)" style="fill: none; stroke: #000000; stroke-linejoin: miter"/>
   </g>
   <g id="patch_132">
    <path d="M 784.778012 453.354252 
L 819.116474 453.354252 
L 819.116474 445.827483 
L 784.778012 445.827483 
L 784.778012 453.354252 
z
" clip-path="url(#pdfe26f5428)" style="fill: none; stroke: #000000; stroke-linejoin: miter"/>
   </g>
   <g id="patch_133">
    <path d="M 324.277782 175.232602 
L 358.616243 175.232602 
L 358.616243 167.705833 
L 324.277782 167.705833 
L 324.277782 175.232602 
z
" clip-path="url(#pdfe26f5428)" style="fill: none; stroke: #000000; stroke-linejoin: miter"/>
   </g>
   <g id="patch_134">
    <path d="M 468.908806 213.689689 
L 503.247268 213.689689 
L 503.247268 206.16292 
L 468.908806 206.16292 
L 468.908806 213.689689 
z
" clip-path="url(#pdfe26f5428)" style="fill: none; stroke: #000000; stroke-linejoin: miter"/>
   </g>
   <g id="patch_135">
    <path d="M 850.498394 408.845643 
L 884.836855 408.845643 
L 884.836855 401.318874 
L 850.498394 401.318874 
L 850.498394 408.845643 
z
" clip-path="url(#pdfe26f5428)" style="fill: none; stroke: #000000; stroke-linejoin: miter"/>
   </g>
   <g id="patch_136">
    <path d="M 299.056697 131.376941 
L 333.395158 131.376941 
L 333.395158 123.850171 
L 299.056697 123.850171 
L 299.056697 131.376941 
z
" clip-path="url(#pdfe26f5428)" style="fill: none; stroke: #000000; stroke-linejoin: miter"/>
   </g>
   <g id="patch_137">
    <path d="M 397.826474 312.223566 
L 432.164935 312.223566 
L 432.164935 304.696797 
L 397.826474 304.696797 
L 397.826474 312.223566 
z
" clip-path="url(#pdfe26f5428)" style="fill: none; stroke: #000000; stroke-linejoin: miter"/>
   </g>
   <g id="patch_138">
    <path d="M 323.825372 161.527296 
L 358.163834 161.527296 
L 358.163834 154.000527 
L 323.825372 154.000527 
L 323.825372 161.527296 
z
" clip-path="url(#pdfe26f5428)" style="fill: none; stroke: #000000; stroke-linejoin: miter"/>
   </g>
   <g id="patch_139">
    <path d="M 454.862658 474.848447 
L 489.20112 474.848447 
L 489.20112 467.321678 
L 454.862658 467.321678 
L 454.862658 474.848447 
z
" clip-path="url(#pdfe26f5428)" style="fill: none; stroke: #000000; stroke-linejoin: miter"/>
   </g>
   <g id="patch_140">
    <path d="M 707.786031 148.470234 
L 742.124492 148.470234 
L 742.124492 140.943464 
L 707.786031 140.943464 
L 707.786031 148.470234 
z
" clip-path="url(#pdfe26f5428)" style="fill: none; stroke: #000000; stroke-linejoin: miter"/>
   </g>
   <g id="patch_141">
    <path d="M 331.113711 205.779054 
L 365.452172 205.779054 
L 365.452172 198.252285 
L 331.113711 198.252285 
L 331.113711 205.779054 
z
" clip-path="url(#pdfe26f5428)" style="fill: none; stroke: #000000; stroke-linejoin: miter"/>
   </g>
   <g id="patch_142">
    <path d="M 544.012172 500.530348 
L 578.350634 500.530348 
L 578.350634 493.003579 
L 544.012172 493.003579 
L 544.012172 500.530348 
z
" clip-path="url(#pdfe26f5428)" style="fill: none; stroke: #000000; stroke-linejoin: miter"/>
   </g>
   <g id="patch_143">
    <path d="M 679.089378 394.515615 
L 713.42784 394.515615 
L 713.42784 386.988846 
L 679.089378 386.988846 
L 679.089378 394.515615 
z
" clip-path="url(#pdfe26f5428)" style="fill: none; stroke: #000000; stroke-linejoin: miter"/>
   </g>
   <g id="patch_144">
    <path d="M 872.315335 529.1014 
L 906.653797 529.1014 
L 906.653797 521.574631 
L 872.315335 521.574631 
L 872.315335 529.1014 
z
" clip-path="url(#pdfe26f5428)" style="fill: none; stroke: #000000; stroke-linejoin: miter"/>
   </g>
   <g id="patch_145">
    <path d="M 442.705126 145.67498 
L 477.043588 145.67498 
L 477.043588 138.14821 
L 442.705126 138.14821 
L 442.705126 145.67498 
z
" clip-path="url(#pdfe26f5428)" style="fill: none; stroke: #000000; stroke-linejoin: miter"/>
   </g>
   <g id="patch_146">
    <path d="M 240.740718 461.454938 
L 275.079179 461.454938 
L 275.079179 453.928168 
L 240.740718 453.928168 
L 240.740718 461.454938 
z
" clip-path="url(#pdfe26f5428)" style="fill: none; stroke: #000000; stroke-linejoin: miter"/>
   </g>
   <g id="patch_147">
    <path d="M 577.27584 330.927587 
L 611.614302 330.927587 
L 611.614302 323.400818 
L 577.27584 323.400818 
L 577.27584 330.927587 
z
" clip-path="url(#pdfe26f5428)" style="fill: none; stroke: #000000; stroke-linejoin: miter"/>
   </g>
   <g id="patch_148">
    <path d="M 301.697324 395.106467 
L 336.035786 395.106467 
L 336.035786 387.579698 
L 301.697324 387.579698 
L 301.697324 395.106467 
z
" clip-path="url(#pdfe26f5428)" style="fill: none; stroke: #000000; stroke-linejoin: miter"/>
   </g>
   <g id="patch_149">
    <path d="M 384.915212 518.146093 
L 419.253674 518.146093 
L 419.253674 510.619324 
L 384.915212 510.619324 
L 384.915212 518.146093 
z
" clip-path="url(#pdfe26f5428)" style="fill: none; stroke: #000000; stroke-linejoin: miter"/>
   </g>
   <g id="patch_150">
    <path d="M 490.804726 474.041483 
L 525.143188 474.041483 
L 525.143188 466.514714 
L 490.804726 466.514714 
L 490.804726 474.041483 
z
" clip-path="url(#pdfe26f5428)" style="fill: none; stroke: #000000; stroke-linejoin: miter"/>
   </g>
   <g id="patch_151">
    <path d="M 805.829206 264.32697 
L 840.167668 264.32697 
L 840.167668 256.800201 
L 805.829206 256.800201 
L 805.829206 264.32697 
z
" clip-path="url(#pdfe26f5428)" style="fill: none; stroke: #000000; stroke-linejoin: miter"/>
   </g>
   <g id="patch_152">
    <path d="M 777.187495 307.984113 
L 811.525957 307.984113 
L 811.525957 300.457344 
L 777.187495 300.457344 
L 777.187495 307.984113 
z
" clip-path="url(#pdfe26f5428)" style="fill: none; stroke: #000000; stroke-linejoin: miter"/>
   </g>
   <g id="patch_153">
    <path d="M 404.328462 508.286308 
L 438.666923 508.286308 
L 438.666923 500.759538 
L 404.328462 500.759538 
L 404.328462 508.286308 
z
" clip-path="url(#pdfe26f5428)" style="fill: none; stroke: #000000; stroke-linejoin: miter"/>
   </g>
   <g id="patch_154">
    <path d="M 269.377793 204.227599 
L 303.716254 204.227599 
L 303.716254 196.70083 
L 269.377793 196.70083 
L 269.377793 204.227599 
z
" clip-path="url(#pdfe26f5428)" style="fill: none; stroke: #000000; stroke-linejoin: miter"/>
   </g>
   <g id="patch_155">
    <path d="M 282.053149 433.603069 
L 316.39161 433.603069 
L 316.39161 426.0763 
L 282.053149 426.0763 
L 282.053149 433.603069 
z
" clip-path="url(#pdfe26f5428)" style="fill: none; stroke: #000000; stroke-linejoin: miter"/>
   </g>
   <g id="patch_156">
    <path d="M 535.389785 419.28339 
L 569.728246 419.28339 
L 569.728246 411.756621 
L 535.389785 411.756621 
L 535.389785 419.28339 
z
" clip-path="url(#pdfe26f5428)" style="fill: none; stroke: #000000; stroke-linejoin: miter"/>
   </g>
   <g id="patch_157">
    <path d="M 660.8196 246.36998 
L 695.158062 246.36998 
L 695.158062 238.843211 
L 660.8196 238.843211 
L 660.8196 246.36998 
z
" clip-path="url(#pdfe26f5428)" style="fill: none; stroke: #000000; stroke-linejoin: miter"/>
   </g>
   <g id="patch_158">
    <path d="M 339.042462 416.627382 
L 373.380923 416.627382 
L 373.380923 409.100613 
L 339.042462 409.100613 
L 339.042462 416.627382 
z
" clip-path="url(#pdfe26f5428)" style="fill: none; stroke: #000000; stroke-linejoin: miter"/>
   </g>
   <g id="patch_159">
    <path d="M 863.895545 328.960278 
L 898.234006 328.960278 
L 898.234006 321.433509 
L 863.895545 321.433509 
L 863.895545 328.960278 
z
" clip-path="url(#pdfe26f5428)" style="fill: none; stroke: #000000; stroke-linejoin: miter"/>
   </g>
   <g id="patch_160">
    <path d="M 550.236018 236.699963 
L 584.57448 236.699963 
L 584.57448 229.173194 
L 550.236018 229.173194 
L 550.236018 236.699963 
z
" clip-path="url(#pdfe26f5428)" style="fill: none; stroke: #000000; stroke-linejoin: miter"/>
   </g>
   <g id="patch_161">
    <path d="M 345.903286 496.716534 
L 380.241748 496.716534 
L 380.241748 489.189765 
L 345.903286 489.189765 
L 345.903286 496.716534 
z
" clip-path="url(#pdfe26f5428)" style="fill: none; stroke: #000000; stroke-linejoin: miter"/>
   </g>
   <g id="patch_162">
    <path d="M 224.910858 161.94221 
L 259.24932 161.94221 
L 259.24932 154.41544 
L 224.910858 154.41544 
L 224.910858 161.94221 
z
" clip-path="url(#pdfe26f5428)" style="fill: none; stroke: #000000; stroke-linejoin: miter"/>
   </g>
   <g id="patch_163">
    <path d="M 828.224751 301.073598 
L 862.563212 301.073598 
L 862.563212 293.546829 
L 828.224751 293.546829 
L 828.224751 301.073598 
z
" clip-path="url(#pdfe26f5428)" style="fill: none; stroke: #000000; stroke-linejoin: miter"/>
   </g>
   <g id="patch_164">
    <path d="M 215.631233 330.20784 
L 249.969694 330.20784 
L 249.969694 322.681071 
L 215.631233 322.681071 
L 215.631233 330.20784 
z
" clip-path="url(#pdfe26f5428)" style="fill: none; stroke: #000000; stroke-linejoin: miter"/>
   </g>
   <g id="patch_165">
    <path d="M 858.279489 153.432256 
L 892.617951 153.432256 
L 892.617951 145.905487 
L 858.279489 145.905487 
L 858.279489 153.432256 
z
" clip-path="url(#pdfe26f5428)" style="fill: none; stroke: #000000; stroke-linejoin: miter"/>
   </g>
   <g id="patch_166">
    <path d="M 192.409161 538.348882 
L 226.747623 538.348882 
L 226.747623 530.822113 
L 192.409161 530.822113 
L 192.409161 538.348882 
z
" clip-path="url(#pdfe26f5428)" style="fill: none; stroke: #000000; stroke-linejoin: miter"/>
   </g>
   <g id="patch_167">
    <path d="M 277.364747 367.187798 
L 311.703209 367.187798 
L 311.703209 359.661029 
L 277.364747 359.661029 
L 277.364747 367.187798 
z
" clip-path="url(#pdfe26f5428)" style="fill: none; stroke: #000000; stroke-linejoin: miter"/>
   </g>
   <g id="patch_168">
    <path d="M 865.864855 372.686103 
L 900.203317 372.686103 
L 900.203317 365.159334 
L 865.864855 365.159334 
L 865.864855 372.686103 
z
" clip-path="url(#pdfe26f5428)" style="fill: none; stroke: #000000; stroke-linejoin: miter"/>
   </g>
   <g id="patch_169">
    <path d="M 554.485403 544.536263 
L 588.823865 544.536263 
L 588.823865 537.009494 
L 554.485403 537.009494 
L 554.485403 544.536263 
z
" clip-path="url(#pdfe26f5428)" style="fill: none; stroke: #000000; stroke-linejoin: miter"/>
   </g>
   <g id="patch_170">
    <path d="M 530.293957 209.836924 
L 564.632418 209.836924 
L 564.632418 202.310155 
L 530.293957 202.310155 
L 530.293957 209.836924 
z
" clip-path="url(#pdfe26f5428)" style="fill: none; stroke: #000000; stroke-linejoin: miter"/>
   </g>
   <g id="patch_171">
    <path d="M 878.195797 279.897033 
L 912.534258 279.897033 
L 912.534258 272.370264 
L 878.195797 272.370264 
L 878.195797 279.897033 
z
" clip-path="url(#pdfe26f5428)" style="fill: none; stroke: #000000; stroke-linejoin: miter"/>
   </g>
   <g id="patch_172">
    <path d="M 420.992917 524.853103 
L 455.331378 524.853103 
L 455.331378 517.326334 
L 420.992917 517.326334 
L 420.992917 524.853103 
z
" clip-path="url(#pdfe26f5428)" style="fill: none; stroke: #000000; stroke-linejoin: miter"/>
   </g>
   <g id="patch_173">
    <path d="M 612.594665 288.913161 
L 646.933126 288.913161 
L 646.933126 281.386392 
L 612.594665 281.386392 
L 612.594665 288.913161 
z
" clip-path="url(#pdfe26f5428)" style="fill: none; stroke: #000000; stroke-linejoin: miter"/>
   </g>
   <g id="patch_174">
    <path d="M 757.322695 221.419681 
L 791.661157 221.419681 
L 791.661157 213.892912 
L 757.322695 213.892912 
L 757.322695 221.419681 
z
" clip-path="url(#pdfe26f5428)" style="fill: none; stroke: #000000; stroke-linejoin: miter"/>
   </g>
   <g id="patch_175">
    <path d="M 678.843858 311.691047 
L 713.18232 311.691047 
L 713.18232 304.164278 
L 678.843858 304.164278 
L 678.843858 311.691047 
z
" clip-path="url(#pdfe26f5428)" style="fill: none; stroke: #000000; stroke-linejoin: miter"/>
   </g>
   <g id="patch_176">
    <path d="M 296.07526 274.080722 
L 330.413721 274.080722 
L 330.413721 266.553953 
L 296.07526 266.553953 
L 296.07526 274.080722 
z
" clip-path="url(#pdfe26f5428)" style="fill: none; stroke: #000000; stroke-linejoin: miter"/>
   </g>
   <g id="patch_177">
    <path d="M 144.070299 390.652501 
L 178.408761 390.652501 
L 178.408761 383.125732 
L 144.070299 383.125732 
L 144.070299 390.652501 
z
" clip-path="url(#pdfe26f5428)" style="fill: none; stroke: #000000; stroke-linejoin: miter"/>
   </g>
   <g id="patch_178">
    <path d="M 396.655532 281.782488 
L 430.993994 281.782488 
L 430.993994 274.255719 
L 396.655532 274.255719 
L 396.655532 281.782488 
z
" clip-path="url(#pdfe26f5428)" style="fill: none; stroke: #000000; stroke-linejoin: miter"/>
   </g>
   <g id="patch_179">
    <path d="M 684.495969 440.088321 
L 718.834431 440.088321 
L 718.834431 432.561552 
L 684.495969 432.561552 
L 684.495969 440.088321 
z
" clip-path="url(#pdfe26f5428)" style="fill: none; stroke: #000000; stroke-linejoin: miter"/>
   </g>
   <g id="patch_180">
    <path d="M 208.089476 527.45586 
L 242.427938 527.45586 
L 242.427938 519.929091 
L 208.089476 519.929091 
L 208.089476 527.45586 
z
" clip-path="url(#pdfe26f5428)" style="fill: none; stroke: #000000; stroke-linejoin: miter"/>
   </g>
   <g id="patch_181">
    <path d="M 689.74632 137.683432 
L 724.084782 137.683432 
L 724.084782 130.156663 
L 689.74632 130.156663 
L 689.74632 137.683432 
z
" clip-path="url(#pdfe26f5428)" style="fill: none; stroke: #000000; stroke-linejoin: miter"/>
   </g>
   <g id="patch_182">
    <path d="M 472.062794 438.17464 
L 506.401255 438.17464 
L 506.401255 430.647871 
L 472.062794 430.647871 
L 472.062794 438.17464 
z
" clip-path="url(#pdfe26f5428)" style="fill: none; stroke: #000000; stroke-linejoin: miter"/>
   </g>
   <g id="patch_183">
    <path d="M 412.356794 234.774051 
L 446.695255 234.774051 
L 446.695255 227.247282 
L 412.356794 227.247282 
L 412.356794 234.774051 
z
" clip-path="url(#pdfe26f5428)" style="fill: none; stroke: #000000; stroke-linejoin: miter"/>
   </g>
   <g id="patch_184">
    <path d="M 458.250148 426.746182 
L 492.588609 426.746182 
L 492.588609 419.219413 
L 458.250148 419.219413 
L 458.250148 426.746182 
z
" clip-path="url(#pdfe26f5428)" style="fill: none; stroke: #000000; stroke-linejoin: miter"/>
   </g>
   <g id="patch_185">
    <path d="M 594.249342 223.076511 
L 628.587803 223.076511 
L 628.587803 215.549742 
L 594.249342 215.549742 
L 594.249342 223.076511 
z
" clip-path="url(#pdfe26f5428)" style="fill: none; stroke: #000000; stroke-linejoin: miter"/>
   </g>
   <g id="patch_186">
    <path d="M 696.013089 195.996136 
L 730.351551 195.996136 
L 730.351551 188.469367 
L 696.013089 188.469367 
L 696.013089 195.996136 
z
" clip-path="url(#pdfe26f5428)" style="fill: none; stroke: #000000; stroke-linejoin: miter"/>
   </g>
   <g id="patch_187">
    <path d="M 940.44456 364.146983 
L 974.783022 364.146983 
L 974.783022 356.620214 
L 940.44456 356.620214 
L 940.44456 364.146983 
z
" clip-path="url(#pdfe26f5428)" style="fill: none; stroke: #000000; stroke-linejoin: miter"/>
   </g>
   <g id="patch_188">
    <path d="M 853.108117 263.861251 
L 887.446578 263.861251 
L 887.446578 256.334482 
L 853.108117 256.334482 
L 853.108117 263.861251 
z
" clip-path="url(#pdfe26f5428)" style="fill: none; stroke: #000000; stroke-linejoin: miter"/>
   </g>
   <g id="patch_189">
    <path d="M 611.907895 408.692285 
L 646.246357 408.692285 
L 646.246357 401.165516 
L 611.907895 401.165516 
L 611.907895 408.692285 
z
" clip-path="url(#pdfe26f5428)" style="fill: none; stroke: #000000; stroke-linejoin: miter"/>
   </g>
   <g id="patch_190">
    <path d="M 337.355241 393.051659 
L 371.693703 393.051659 
L 371.693703 385.52489 
L 337.355241 385.52489 
L 337.355241 393.051659 
z
" clip-path="url(#pdfe26f5428)" style="fill: none; stroke: #000000; stroke-linejoin: miter"/>
   </g>
   <g id="patch_191">
    <path d="M 451.1232 256.24416 
L 485.461662 256.24416 
L 485.461662 248.717391 
L 451.1232 248.717391 
L 451.1232 256.24416 
z
" clip-path="url(#pdfe26f5428)" style="fill: none; stroke: #000000; stroke-linejoin: miter"/>
   </g>
   <g id="patch_192">
    <path d="M 377.650911 199.271222 
L 411.989372 199.271222 
L 411.989372 191.744452 
L 377.650911 191.744452 
L 377.650911 199.271222 
z
" clip-path="url(#pdfe26f5428)" style="fill: none; stroke: #000000; stroke-linejoin: miter"/>
   </g>
   <g id="patch_193">
    <path d="M 699.864148 347.78755 
L 734.202609 347.78755 
L 734.202609 340.260781 
L 699.864148 340.260781 
L 699.864148 347.78755 
z
" clip-path="url(#pdfe26f5428)" style="fill: none; stroke: #000000; stroke-linejoin: miter"/>
   </g>
   <g id="patch_194">
    <path d="M 761.189206 163.006307 
L 795.527668 163.006307 
L 795.527668 155.479537 
L 761.189206 155.479537 
L 761.189206 163.006307 
z
" clip-path="url(#pdfe26f5428)" style="fill: none; stroke: #000000; stroke-linejoin: miter"/>
   </g>
   <g id="patch_195">
    <path d="M 764.999058 202.263112 
L 799.33752 202.263112 
L 799.33752 194.736343 
L 764.999058 194.736343 
L 764.999058 202.263112 
z
" clip-path="url(#pdfe26f5428)" style="fill: none; stroke: #000000; stroke-linejoin: miter"/>
   </g>
   <g id="patch_196">
    <path d="M 376.770129 218.363813 
L 411.108591 218.363813 
L 411.108591 210.837043 
L 376.770129 210.837043 
L 376.770129 218.363813 
z
" clip-path="url(#pdfe26f5428)" style="fill: none; stroke: #000000; stroke-linejoin: miter"/>
   </g>
   <g id="patch_197">
    <path d="M 658.870892 382.368351 
L 693.209354 382.368351 
L 693.209354 374.841582 
L 658.870892 374.841582 
L 658.870892 382.368351 
z
" clip-path="url(#pdfe26f5428)" style="fill: none; stroke: #000000; stroke-linejoin: miter"/>
   </g>
   <g id="patch_198">
    <path d="M 349.436714 243.161695 
L 383.775175 243.161695 
L 383.775175 235.634925 
L 349.436714 235.634925 
L 349.436714 243.161695 
z
" clip-path="url(#pdfe26f5428)" style="fill: none; stroke: #000000; stroke-linejoin: miter"/>
   </g>
   <g id="patch_199">
    <path d="M 191.194266 128.55158 
L 225.532728 128.55158 
L 225.532728 121.02481 
L 191.194266 121.02481 
L 191.194266 128.55158 
z
" clip-path="url(#pdfe26f5428)" style="fill: none; stroke: #000000; stroke-linejoin: miter"/>
   </g>
   <g id="patch_200">
    <path d="M 899.404948 305.938713 
L 933.743409 305.938713 
L 933.743409 298.411944 
L 899.404948 298.411944 
L 899.404948 305.938713 
z
" clip-path="url(#pdfe26f5428)" style="fill: none; stroke: #000000; stroke-linejoin: miter"/>
   </g>
   <g id="patch_201">
    <path d="M 205.54431 492.77834 
L 239.882771 492.77834 
L 239.882771 485.251571 
L 205.54431 485.251571 
L 205.54431 492.77834 
z
" clip-path="url(#pdfe26f5428)" style="fill: none; stroke: #000000; stroke-linejoin: miter"/>
   </g>
   <g id="patch_202">
    <path d="M 828.034172 314.632132 
L 862.372634 314.632132 
L 862.372634 307.105363 
L 828.034172 307.105363 
L 828.034172 314.632132 
z
" clip-path="url(#pdfe26f5428)" style="fill: none; stroke: #000000; stroke-linejoin: miter"/>
   </g>
   <g id="patch_203">
    <path d="M 787.300172 434.386794 
L 821.638634 434.386794 
L 821.638634 426.860025 
L 787.300172 426.860025 
L 787.300172 434.386794 
z
" clip-path="url(#pdfe26f5428)" style="fill: none; stroke: #000000; stroke-linejoin: miter"/>
   </g>
   <g id="patch_204">
    <path d="M 862.350314 425.14298 
L 896.688775 425.14298 
L 896.688775 417.616211 
L 862.350314 417.616211 
L 862.350314 425.14298 
z
" clip-path="url(#pdfe26f5428)" style="fill: none; stroke: #000000; stroke-linejoin: miter"/>
   </g>
   <g id="patch_205">
    <path d="M 641.179717 423.371367 
L 675.518178 423.371367 
L 675.518178 415.844598 
L 641.179717 415.844598 
L 641.179717 423.371367 
z
" clip-path="url(#pdfe26f5428)" style="fill: none; stroke: #000000; stroke-linejoin: miter"/>
   </g>
   <g id="patch_206">
    <path d="M 720.364209 469.442439 
L 754.702671 469.442439 
L 754.702671 461.91567 
L 720.364209 461.91567 
L 720.364209 469.442439 
z
" clip-path="url(#pdfe26f5428)" style="fill: none; stroke: #000000; stroke-linejoin: miter"/>
   </g>
   <g id="patch_207">
    <path d="M 869.192252 178.328927 
L 903.530714 178.328927 
L 903.530714 170.802158 
L 869.192252 170.802158 
L 869.192252 178.328927 
z
" clip-path="url(#pdfe26f5428)" style="fill: none; stroke: #000000; stroke-linejoin: miter"/>
   </g>
   <g id="patch_208">
    <path d="M 547.164443 369.475936 
L 581.502905 369.475936 
L 581.502905 361.949167 
L 547.164443 361.949167 
L 547.164443 369.475936 
z
" clip-path="url(#pdfe26f5428)" style="fill: none; stroke: #000000; stroke-linejoin: miter"/>
   </g>
   <g id="patch_209">
    <path d="M 395.651132 378.733862 
L 429.989594 378.733862 
L 429.989594 371.207093 
L 395.651132 371.207093 
L 395.651132 378.733862 
z
" clip-path="url(#pdfe26f5428)" style="fill: none; stroke: #000000; stroke-linejoin: miter"/>
   </g>
   <g id="patch_210">
    <path d="M 553.37112 356.852603 
L 587.709582 356.852603 
L 587.709582 349.325834 
L 553.37112 349.325834 
L 553.37112 356.852603 
z
" clip-path="url(#pdfe26f5428)" style="fill: none; stroke: #000000; stroke-linejoin: miter"/>
   </g>
   <g id="patch_211">
    <path d="M 260.684153 469.365384 
L 295.022614 469.365384 
L 295.022614 461.838615 
L 260.684153 461.838615 
L 260.684153 469.365384 
z
" clip-path="url(#pdfe26f5428)" style="fill: none; stroke: #000000; stroke-linejoin: miter"/>
   </g>
   <g id="patch_212">
    <path d="M 595.852948 255.473607 
L 630.191409 255.473607 
L 630.191409 247.946838 
L 595.852948 247.946838 
L 595.852948 255.473607 
z
" clip-path="url(#pdfe26f5428)" style="fill: none; stroke: #000000; stroke-linejoin: miter"/>
   </g>
   <g id="patch_213">
    <path d="M 606.288406 427.38878 
L 640.626868 427.38878 
L 640.626868 419.862011 
L 606.288406 419.862011 
L 606.288406 427.38878 
z
" clip-path="url(#pdfe26f5428)" style="fill: none; stroke: #000000; stroke-linejoin: miter"/>
   </g>
   <g id="patch_214">
    <path d="M 265.700487 494.548448 
L 300.038948 494.548448 
L 300.038948 487.021679 
L 265.700487 487.021679 
L 265.700487 494.548448 
z
" clip-path="url(#pdfe26f5428)" style="fill: none; stroke: #000000; stroke-linejoin: miter"/>
   </g>
   <g id="patch_215">
    <path d="M 586.830517 340.994641 
L 621.168978 340.994641 
L 621.168978 333.467872 
L 586.830517 333.467872 
L 586.830517 340.994641 
z
" clip-path="url(#pdfe26f5428)" style="fill: none; stroke: #000000; stroke-linejoin: miter"/>
   </g>
   <g id="patch_216">
    <path d="M 797.232572 365.790642 
L 831.571034 365.790642 
L 831.571034 358.263872 
L 797.232572 358.263872 
L 797.232572 365.790642 
z
" clip-path="url(#pdfe26f5428)" style="fill: none; stroke: #000000; stroke-linejoin: miter"/>
   </g>
   <g id="patch_217">
    <path d="M 755.355102 342.524457 
L 789.693563 342.524457 
L 789.693563 334.997688 
L 755.355102 334.997688 
L 755.355102 342.524457 
z
" clip-path="url(#pdfe26f5428)" style="fill: none; stroke: #000000; stroke-linejoin: miter"/>
   </g>
   <g id="patch_218">
    <path d="M 723.734529 238.170506 
L 758.072991 238.170506 
L 758.072991 230.643737 
L 723.734529 230.643737 
L 723.734529 238.170506 
z
" clip-path="url(#pdfe26f5428)" style="fill: none; stroke: #000000; stroke-linejoin: miter"/>
   </g>
   <g id="patch_219">
    <path d="M 554.617606 533.338971 
L 588.956068 533.338971 
L 588.956068 525.812202 
L 554.617606 525.812202 
L 554.617606 533.338971 
z
" clip-path="url(#pdfe26f5428)" style="fill: none; stroke: #000000; stroke-linejoin: miter"/>
   </g>
   <g id="patch_220">
    <path d="M 263.710573 305.529445 
L 298.049034 305.529445 
L 298.049034 298.002676 
L 263.710573 298.002676 
L 263.710573 305.529445 
z
" clip-path="url(#pdfe26f5428)" style="fill: none; stroke: #000000; stroke-linejoin: miter"/>
   </g>
   <g id="patch_221">
    <path d="M 757.013649 357.918582 
L 791.352111 357.918582 
L 791.352111 350.391813 
L 757.013649 350.391813 
L 757.013649 357.918582 
z
" clip-path="url(#pdfe26f5428)" style="fill: none; stroke: #000000; stroke-linejoin: miter"/>
   </g>
   <g id="patch_222">
    <path d="M 268.29802 212.585136 
L 302.636481 212.585136 
L 302.636481 205.058366 
L 268.29802 205.058366 
L 268.29802 212.585136 
z
" clip-path="url(#pdfe26f5428)" style="fill: none; stroke: #000000; stroke-linejoin: miter"/>
   </g>
   <g id="patch_223">
    <path d="M 408.418172 269.17515 
L 442.756634 269.17515 
L 442.756634 261.648381 
L 408.418172 261.648381 
L 408.418172 269.17515 
z
" clip-path="url(#pdfe26f5428)" style="fill: none; stroke: #000000; stroke-linejoin: miter"/>
   </g>
   <g id="patch_224">
    <path d="M 327.50079 385.26992 
L 361.839251 385.26992 
L 361.839251 377.743151 
L 327.50079 377.743151 
L 327.50079 385.26992 
z
" clip-path="url(#pdfe26f5428)" style="fill: none; stroke: #000000; stroke-linejoin: miter"/>
   </g>
   <g id="patch_225">
    <path d="M 699.606609 498.218972 
L 733.945071 498.218972 
L 733.945071 490.692202 
L 699.606609 490.692202 
L 699.606609 498.218972 
z
" clip-path="url(#pdfe26f5428)" style="fill: none; stroke: #000000; stroke-linejoin: miter"/>
   </g>
   <g id="patch_226">
    <path d="M 908.7948 246.009636 
L 943.133262 246.009636 
L 943.133262 238.482867 
L 908.7948 238.482867 
L 908.7948 246.009636 
z
" clip-path="url(#pdfe26f5428)" style="fill: none; stroke: #000000; stroke-linejoin: miter"/>
   </g>
   <g id="patch_227">
    <path d="M 729.062142 487.881989 
L 763.400603 487.881989 
L 763.400603 480.35522 
L 729.062142 480.35522 
L 729.062142 487.881989 
z
" clip-path="url(#pdfe26f5428)" style="fill: none; stroke: #000000; stroke-linejoin: miter"/>
   </g>
   <g id="patch_228">
    <path d="M 165.347535 219.814597 
L 199.685996 219.814597 
L 199.685996 212.287828 
L 165.347535 212.287828 
L 165.347535 219.814597 
z
" clip-path="url(#pdfe26f5428)" style="fill: none; stroke: #000000; stroke-linejoin: miter"/>
   </g>
   <g id="patch_229">
    <path d="M 275.583954 421.055945 
L 309.922416 421.055945 
L 309.922416 413.529175 
L 275.583954 413.529175 
L 275.583954 421.055945 
z
" clip-path="url(#pdfe26f5428)" style="fill: none; stroke: #000000; stroke-linejoin: miter"/>
   </g>
   <g id="patch_230">
    <path d="M 742.677342 416.84754 
L 777.015803 416.84754 
L 777.015803 409.320771 
L 742.677342 409.320771 
L 742.677342 416.84754 
z
" clip-path="url(#pdfe26f5428)" style="fill: none; stroke: #000000; stroke-linejoin: miter"/>
   </g>
   <g id="patch_231">
    <path d="M 180.3537 185.09267 
L 214.692162 185.09267 
L 214.692162 177.565901 
L 180.3537 177.565901 
L 180.3537 185.09267 
z
" clip-path="url(#pdfe26f5428)" style="fill: none; stroke: #000000; stroke-linejoin: miter"/>
   </g>
   <g id="patch_232">
    <path d="M 470.411114 359.56224 
L 504.749575 359.56224 
L 504.749575 352.035471 
L 470.411114 352.035471 
L 470.411114 359.56224 
z
" clip-path="url(#pdfe26f5428)" style="fill: none; stroke: #000000; stroke-linejoin: miter"/>
   </g>
   <g id="patch_233">
    <path d="M 859.826437 537.486597 
L 894.164898 537.486597 
L 894.164898 529.959828 
L 859.826437 529.959828 
L 859.826437 537.486597 
z
" clip-path="url(#pdfe26f5428)" style="fill: none; stroke: #000000; stroke-linejoin: miter"/>
   </g>
   <g id="patch_234">
    <path d="M 740.886591 274.298998 
L 775.225052 274.298998 
L 775.225052 266.772229 
L 740.886591 266.772229 
L 740.886591 274.298998 
z
" clip-path="url(#pdfe26f5428)" style="fill: none; stroke: #000000; stroke-linejoin: miter"/>
   </g>
   <g id="patch_235">
    <path d="M 928.439834 285.018999 
L 962.778295 285.018999 
L 962.778295 277.49223 
L 928.439834 277.49223 
L 928.439834 285.018999 
z
" clip-path="url(#pdfe26f5428)" style="fill: none; stroke: #000000; stroke-linejoin: miter"/>
   </g>
   <g id="patch_236">
    <path d="M 154.80264 175.258005 
L 189.141101 175.258005 
L 189.141101 167.731236 
L 154.80264 167.731236 
L 154.80264 175.258005 
z
" clip-path="url(#pdfe26f5428)" style="fill: none; stroke: #000000; stroke-linejoin: miter"/>
   </g>
   <g id="patch_237">
    <path d="M 511.984689 388.503609 
L 546.323151 388.503609 
L 546.323151 380.976839 
L 511.984689 380.976839 
L 511.984689 388.503609 
z
" clip-path="url(#pdfe26f5428)" style="fill: none; stroke: #000000; stroke-linejoin: miter"/>
   </g>
   <g id="patch_238">
    <path d="M 835.556012 527.087424 
L 869.894474 527.087424 
L 869.894474 519.560655 
L 835.556012 519.560655 
L 835.556012 527.087424 
z
" clip-path="url(#pdfe26f5428)" style="fill: none; stroke: #000000; stroke-linejoin: miter"/>
   </g>
   <g id="patch_239">
    <path d="M 297.064722 459.231906 
L 331.403184 459.231906 
L 331.403184 451.705137 
L 297.064722 451.705137 
L 297.064722 459.231906 
z
" clip-path="url(#pdfe26f5428)" style="fill: none; stroke: #000000; stroke-linejoin: miter"/>
   </g>
   <g id="patch_240">
    <path d="M 824.608911 426.129928 
L 858.947372 426.129928 
L 858.947372 418.603159 
L 824.608911 418.603159 
L 824.608911 426.129928 
z
" clip-path="url(#pdfe26f5428)" style="fill: none; stroke: #000000; stroke-linejoin: miter"/>
   </g>
   <g id="patch_241">
    <path d="M 738.019329 263.317442 
L 772.357791 263.317442 
L 772.357791 255.790673 
L 738.019329 255.790673 
L 738.019329 263.317442 
z
" clip-path="url(#pdfe26f5428)" style="fill: none; stroke: #000000; stroke-linejoin: miter"/>
   </g>
   <g id="patch_242">
    <path d="M 874.324135 205.460108 
L 908.662597 205.460108 
L 908.662597 197.933338 
L 874.324135 197.933338 
L 874.324135 205.460108 
z
" clip-path="url(#pdfe26f5428)" style="fill: none; stroke: #000000; stroke-linejoin: miter"/>
   </g>
   <g id="patch_243">
    <path d="M 251.098056 331.36414 
L 285.436518 331.36414 
L 285.436518 323.837371 
L 251.098056 323.837371 
L 251.098056 331.36414 
z
" clip-path="url(#pdfe26f5428)" style="fill: none; stroke: #000000; stroke-linejoin: miter"/>
   </g>
   <g id="patch_244">
    <path d="M 501.574985 542.008586 
L 535.913446 542.008586 
L 535.913446 534.481817 
L 501.574985 534.481817 
L 501.574985 542.008586 
z
" clip-path="url(#pdfe26f5428)" style="fill: none; stroke: #000000; stroke-linejoin: miter"/>
   </g>
   <g id="patch_245">
    <path d="M 589.368129 419.721825 
L 623.706591 419.721825 
L 623.706591 412.195056 
L 589.368129 412.195056 
L 589.368129 419.721825 
z
" clip-path="url(#pdfe26f5428)" style="fill: none; stroke: #000000; stroke-linejoin: miter"/>
   </g>
   <g id="patch_246">
    <path d="M 615.216406 468.275884 
L 649.554868 468.275884 
L 649.554868 460.749115 
L 615.216406 460.749115 
L 615.216406 468.275884 
z
" clip-path="url(#pdfe26f5428)" style="fill: none; stroke: #000000; stroke-linejoin: miter"/>
   </g>
   <g id="patch_247">
    <path d="M 187.610705 424.051599 
L 221.949166 424.051599 
L 221.949166 416.52483 
L 187.610705 416.52483 
L 187.610705 424.051599 
z
" clip-path="url(#pdfe26f5428)" style="fill: none; stroke: #000000; stroke-linejoin: miter"/>
   </g>
   <g id="patch_248">
    <path d="M 383.368265 456.602994 
L 417.706726 456.602994 
L 417.706726 449.076225 
L 383.368265 449.076225 
L 383.368265 456.602994 
z
" clip-path="url(#pdfe26f5428)" style="fill: none; stroke: #000000; stroke-linejoin: miter"/>
   </g>
   <g id="patch_249">
    <path d="M 333.87624 425.873077 
L 368.214702 425.873077 
L 368.214702 418.346308 
L 333.87624 418.346308 
L 333.87624 425.873077 
z
" clip-path="url(#pdfe26f5428)" style="fill: none; stroke: #000000; stroke-linejoin: miter"/>
   </g>
   <g id="patch_250">
    <path d="M 211.683683 228.877768 
L 246.022145 228.877768 
L 246.022145 221.350999 
L 211.683683 221.350999 
L 211.683683 228.877768 
z
" clip-path="url(#pdfe26f5428)" style="fill: none; stroke: #000000; stroke-linejoin: miter"/>
   </g>
   <g id="patch_251">
    <path d="M 295.620962 150.781893 
L 329.959423 150.781893 
L 329.959423 143.255123 
L 295.620962 143.255123 
L 295.620962 150.781893 
z
" clip-path="url(#pdfe26f5428)" style="fill: none; stroke: #000000; stroke-linejoin: miter"/>
   </g>
   <g id="patch_252">
    <path d="M 431.361415 179.686568 
L 465.699877 179.686568 
L 465.699877 172.159799 
L 431.361415 172.159799 
L 431.361415 179.686568 
z
" clip-path="url(#pdfe26f5428)" style="fill: none; stroke: #000000; stroke-linejoin: miter"/>
   </g>
   <g id="patch_253">
    <path d="M 151.357977 530.233426 
L 185.696438 530.233426 
L 185.696438 522.706657 
L 151.357977 522.706657 
L 151.357977 530.233426 
z
" clip-path="url(#pdfe26f5428)" style="fill: none; stroke: #000000; stroke-linejoin: miter"/>
   </g>
   <g id="patch_254">
    <path d="M 770.328388 374.355164 
L 804.666849 374.355164 
L 804.666849 366.828395 
L 770.328388 366.828395 
L 770.328388 374.355164 
z
" clip-path="url(#pdfe26f5428)" style="fill: none; stroke: #000000; stroke-linejoin: miter"/>
   </g>
   <g id="patch_255">
    <path d="M 246.622381 450.989906 
L 280.960842 450.989906 
L 280.960842 443.463137 
L 246.622381 443.463137 
L 246.622381 450.989906 
z
" clip-path="url(#pdfe26f5428)" style="fill: none; stroke: #000000; stroke-linejoin: miter"/>
   </g>
   <g id="matplotlib.axis_1">
    <g id="xtick_1">
     <g id="line2d_1">
      <defs>
       <path id="mad5f7771e1" d="M 0 0 
L 0 3.5 
" style="stroke: #000000; stroke-width: 0.8"/>
      </defs>
      <g>
       <use xlink:href="#mad5f7771e1" x="178.338462" y="567" style="stroke: #000000; stroke-width: 0.8"/>
      </g>
     </g>
     <g id="text_1">
      <!-- 0 -->
      <g transform="translate(175.157212 581.598438)scale(0.1 -0.1)">
       <defs>
        <path id="DejaVuSans-30" d="M 2034 4250 
Q 1547 4250 1301 3770 
Q 1056 3291 1056 2328 
Q 1056 1369 1301 889 
Q 1547 409 2034 409 
Q 2525 409 2770 889 
Q 3016 1369 3016 2328 
Q 3016 3291 2770 3770 
Q 2525 4250 2034 4250 
z
M 2034 4750 
Q 2819 4750 3233 4129 
Q 3647 3509 3647 2328 
Q 3647 1150 3233 529 
Q 2819 -91 2034 -91 
Q 1250 -91 836 529 
Q 422 1150 422 2328 
Q 422 3509 836 4129 
Q 1250 4750 2034 4750 
z
" transform="scale(0.015625)"/>
       </defs>
       <use xlink:href="#DejaVuSans-30"/>
      </g>
     </g>
    </g>
    <g id="xtick_2">
     <g id="line2d_2">
      <g>
       <use xlink:href="#mad5f7771e1" x="350.030769" y="567" style="stroke: #000000; stroke-width: 0.8"/>
      </g>
     </g>
     <g id="text_2">
      <!-- 100 -->
      <g transform="translate(340.487019 581.598438)scale(0.1 -0.1)">
       <defs>
        <path id="DejaVuSans-31" d="M 794 531 
L 1825 531 
L 1825 4091 
L 703 3866 
L 703 4441 
L 1819 4666 
L 2450 4666 
L 2450 531 
L 3481 531 
L 3481 0 
L 794 0 
L 794 531 
z
" transform="scale(0.015625)"/>
       </defs>
       <use xlink:href="#DejaVuSans-31"/>
       <use xlink:href="#DejaVuSans-30" x="63.623047"/>
       <use xlink:href="#DejaVuSans-30" x="127.246094"/>
      </g>
     </g>
    </g>
    <g id="xtick_3">
     <g id="line2d_3">
      <g>
       <use xlink:href="#mad5f7771e1" x="521.723077" y="567" style="stroke: #000000; stroke-width: 0.8"/>
      </g>
     </g>
     <g id="text_3">
      <!-- 200 -->
      <g transform="translate(512.179327 581.598438)scale(0.1 -0.1)">
       <defs>
        <path id="DejaVuSans-32" d="M 1228 531 
L 3431 531 
L 3431 0 
L 469 0 
L 469 531 
Q 828 903 1448 1529 
Q 2069 2156 2228 2338 
Q 2531 2678 2651 2914 
Q 2772 3150 2772 3378 
Q 2772 3750 2511 3984 
Q 2250 4219 1831 4219 
Q 1534 4219 1204 4116 
Q 875 4013 500 3803 
L 500 4441 
Q 881 4594 1212 4672 
Q 1544 4750 1819 4750 
Q 2544 4750 2975 4387 
Q 3406 4025 3406 3419 
Q 3406 3131 3298 2873 
Q 3191 2616 2906 2266 
Q 2828 2175 2409 1742 
Q 1991 1309 1228 531 
z
" transform="scale(0.015625)"/>
       </defs>
       <use xlink:href="#DejaVuSans-32"/>
       <use xlink:href="#DejaVuSans-30" x="63.623047"/>
       <use xlink:href="#DejaVuSans-30" x="127.246094"/>
      </g>
     </g>
    </g>
    <g id="xtick_4">
     <g id="line2d_4">
      <g>
       <use xlink:href="#mad5f7771e1" x="693.415385" y="567" style="stroke: #000000; stroke-width: 0.8"/>
      </g>
     </g>
     <g id="text_4">
      <!-- 300 -->
      <g transform="translate(683.871635 581.598438)scale(0.1 -0.1)">
       <defs>
        <path id="DejaVuSans-33" d="M 2597 2516 
Q 3050 2419 3304 2112 
Q 3559 1806 3559 1356 
Q 3559 666 3084 287 
Q 2609 -91 1734 -91 
Q 1441 -91 1130 -33 
Q 819 25 488 141 
L 488 750 
Q 750 597 1062 519 
Q 1375 441 1716 441 
Q 2309 441 2620 675 
Q 2931 909 2931 1356 
Q 2931 1769 2642 2001 
Q 2353 2234 1838 2234 
L 1294 2234 
L 1294 2753 
L 1863 2753 
Q 2328 2753 2575 2939 
Q 2822 3125 2822 3475 
Q 2822 3834 2567 4026 
Q 2313 4219 1838 4219 
Q 1578 4219 1281 4162 
Q 984 4106 628 3988 
L 628 4550 
Q 988 4650 1302 4700 
Q 1616 4750 1894 4750 
Q 2613 4750 3031 4423 
Q 3450 4097 3450 3541 
Q 3450 3153 3228 2886 
Q 3006 2619 2597 2516 
z
" transform="scale(0.015625)"/>
       </defs>
       <use xlink:href="#DejaVuSans-33"/>
       <use xlink:href="#DejaVuSans-30" x="63.623047"/>
       <use xlink:href="#DejaVuSans-30" x="127.246094"/>
      </g>
     </g>
    </g>
    <g id="xtick_5">
     <g id="line2d_5">
      <g>
       <use xlink:href="#mad5f7771e1" x="865.107692" y="567" style="stroke: #000000; stroke-width: 0.8"/>
      </g>
     </g>
     <g id="text_5">
      <!-- 400 -->
      <g transform="translate(855.563942 581.598438)scale(0.1 -0.1)">
       <defs>
        <path id="DejaVuSans-34" d="M 2419 4116 
L 825 1625 
L 2419 1625 
L 2419 4116 
z
M 2253 4666 
L 3047 4666 
L 3047 1625 
L 3713 1625 
L 3713 1100 
L 3047 1100 
L 3047 0 
L 2419 0 
L 2419 1100 
L 313 1100 
L 313 1709 
L 2253 4666 
z
" transform="scale(0.015625)"/>
       </defs>
       <use xlink:href="#DejaVuSans-34"/>
       <use xlink:href="#DejaVuSans-30" x="63.623047"/>
       <use xlink:href="#DejaVuSans-30" x="127.246094"/>
      </g>
     </g>
    </g>
    <g id="xtick_6">
     <g id="line2d_6">
      <g>
       <use xlink:href="#mad5f7771e1" x="1036.8" y="567" style="stroke: #000000; stroke-width: 0.8"/>
      </g>
     </g>
     <g id="text_6">
      <!-- 500 -->
      <g transform="translate(1027.25625 581.598438)scale(0.1 -0.1)">
       <defs>
        <path id="DejaVuSans-35" d="M 691 4666 
L 3169 4666 
L 3169 4134 
L 1269 4134 
L 1269 2991 
Q 1406 3038 1543 3061 
Q 1681 3084 1819 3084 
Q 2600 3084 3056 2656 
Q 3513 2228 3513 1497 
Q 3513 744 3044 326 
Q 2575 -91 1722 -91 
Q 1428 -91 1123 -41 
Q 819 9 494 109 
L 494 744 
Q 775 591 1075 516 
Q 1375 441 1709 441 
Q 2250 441 2565 725 
Q 2881 1009 2881 1497 
Q 2881 1984 2565 2268 
Q 2250 2553 1709 2553 
Q 1456 2553 1204 2497 
Q 953 2441 691 2322 
L 691 4666 
z
" transform="scale(0.015625)"/>
       </defs>
       <use xlink:href="#DejaVuSans-35"/>
       <use xlink:href="#DejaVuSans-30" x="63.623047"/>
       <use xlink:href="#DejaVuSans-30" x="127.246094"/>
      </g>
     </g>
    </g>
   </g>
   <g id="matplotlib.axis_2">
    <g id="ytick_1">
     <g id="line2d_7">
      <defs>
       <path id="m66e7eb3ce1" d="M 0 0 
L -3.5 0 
" style="stroke: #000000; stroke-width: 0.8"/>
      </defs>
      <g>
       <use xlink:href="#m66e7eb3ce1" x="144" y="548.183077" style="stroke: #000000; stroke-width: 0.8"/>
      </g>
     </g>
     <g id="text_7">
      <!-- 0 -->
      <g transform="translate(130.6375 551.982296)scale(0.1 -0.1)">
       <use xlink:href="#DejaVuSans-30"/>
      </g>
     </g>
    </g>
    <g id="ytick_2">
     <g id="line2d_8">
      <g>
       <use xlink:href="#m66e7eb3ce1" x="144" y="454.098462" style="stroke: #000000; stroke-width: 0.8"/>
      </g>
     </g>
     <g id="text_8">
      <!-- 100 -->
      <g transform="translate(117.9125 457.89768)scale(0.1 -0.1)">
       <use xlink:href="#DejaVuSans-31"/>
       <use xlink:href="#DejaVuSans-30" x="63.623047"/>
       <use xlink:href="#DejaVuSans-30" x="127.246094"/>
      </g>
     </g>
    </g>
    <g id="ytick_3">
     <g id="line2d_9">
      <g>
       <use xlink:href="#m66e7eb3ce1" x="144" y="360.013846" style="stroke: #000000; stroke-width: 0.8"/>
      </g>
     </g>
     <g id="text_9">
      <!-- 200 -->
      <g transform="translate(117.9125 363.813065)scale(0.1 -0.1)">
       <use xlink:href="#DejaVuSans-32"/>
       <use xlink:href="#DejaVuSans-30" x="63.623047"/>
       <use xlink:href="#DejaVuSans-30" x="127.246094"/>
      </g>
     </g>
    </g>
    <g id="ytick_4">
     <g id="line2d_10">
      <g>
       <use xlink:href="#m66e7eb3ce1" x="144" y="265.929231" style="stroke: #000000; stroke-width: 0.8"/>
      </g>
     </g>
     <g id="text_10">
      <!-- 300 -->
      <g transform="translate(117.9125 269.72845)scale(0.1 -0.1)">
       <use xlink:href="#DejaVuSans-33"/>
       <use xlink:href="#DejaVuSans-30" x="63.623047"/>
       <use xlink:href="#DejaVuSans-30" x="127.246094"/>
      </g>
     </g>
    </g>
    <g id="ytick_5">
     <g id="line2d_11">
      <g>
       <use xlink:href="#m66e7eb3ce1" x="144" y="171.844615" style="stroke: #000000; stroke-width: 0.8"/>
      </g>
     </g>
     <g id="text_11">
      <!-- 400 -->
      <g transform="translate(117.9125 175.643834)scale(0.1 -0.1)">
       <use xlink:href="#DejaVuSans-34"/>
       <use xlink:href="#DejaVuSans-30" x="63.623047"/>
       <use xlink:href="#DejaVuSans-30" x="127.246094"/>
      </g>
     </g>
    </g>
    <g id="ytick_6">
     <g id="line2d_12">
      <g>
       <use xlink:href="#m66e7eb3ce1" x="144" y="77.76" style="stroke: #000000; stroke-width: 0.8"/>
      </g>
     </g>
     <g id="text_12">
      <!-- 500 -->
      <g transform="translate(117.9125 81.559219)scale(0.1 -0.1)">
       <use xlink:href="#DejaVuSans-35"/>
       <use xlink:href="#DejaVuSans-30" x="63.623047"/>
       <use xlink:href="#DejaVuSans-30" x="127.246094"/>
      </g>
     </g>
    </g>
   </g>
   <g id="patch_256">
    <path d="M 144 567 
L 144 77.76 
" style="fill: none; stroke: #000000; stroke-width: 0.8; stroke-linejoin: miter; stroke-linecap: square"/>
   </g>
   <g id="patch_257">
    <path d="M 1036.8 567 
L 1036.8 77.76 
" style="fill: none; stroke: #000000; stroke-width: 0.8; stroke-linejoin: miter; stroke-linecap: square"/>
   </g>
   <g id="patch_258">
    <path d="M 144 567 
L 1036.8 567 
" style="fill: none; stroke: #000000; stroke-width: 0.8; stroke-linejoin: miter; stroke-linecap: square"/>
   </g>
   <g id="patch_259">
    <path d="M 144 77.76 
L 1036.8 77.76 
" style="fill: none; stroke: #000000; stroke-width: 0.8; stroke-linejoin: miter; stroke-linecap: square"/>
   </g>
   <g id="text_13">
    <!-- 3000_10_10_253_result122.49999999999987 -->
    <g transform="translate(452.6325 71.76)scale(0.12 -0.12)">
     <defs>
      <path id="DejaVuSans-5f" d="M 3263 -1063 
L 3263 -1509 
L -63 -1509 
L -63 -1063 
L 3263 -1063 
z
" transform="scale(0.015625)"/>
      <path id="DejaVuSans-72" d="M 2631 2963 
Q 2534 3019 2420 3045 
Q 2306 3072 2169 3072 
Q 1681 3072 1420 2755 
Q 1159 2438 1159 1844 
L 1159 0 
L 581 0 
L 581 3500 
L 1159 3500 
L 1159 2956 
Q 1341 3275 1631 3429 
Q 1922 3584 2338 3584 
Q 2397 3584 2469 3576 
Q 2541 3569 2628 3553 
L 2631 2963 
z
" transform="scale(0.015625)"/>
      <path id="DejaVuSans-65" d="M 3597 1894 
L 3597 1613 
L 953 1613 
Q 991 1019 1311 708 
Q 1631 397 2203 397 
Q 2534 397 2845 478 
Q 3156 559 3463 722 
L 3463 178 
Q 3153 47 2828 -22 
Q 2503 -91 2169 -91 
Q 1331 -91 842 396 
Q 353 884 353 1716 
Q 353 2575 817 3079 
Q 1281 3584 2069 3584 
Q 2775 3584 3186 3129 
Q 3597 2675 3597 1894 
z
M 3022 2063 
Q 3016 2534 2758 2815 
Q 2500 3097 2075 3097 
Q 1594 3097 1305 2825 
Q 1016 2553 972 2059 
L 3022 2063 
z
" transform="scale(0.015625)"/>
      <path id="DejaVuSans-73" d="M 2834 3397 
L 2834 2853 
Q 2591 2978 2328 3040 
Q 2066 3103 1784 3103 
Q 1356 3103 1142 2972 
Q 928 2841 928 2578 
Q 928 2378 1081 2264 
Q 1234 2150 1697 2047 
L 1894 2003 
Q 2506 1872 2764 1633 
Q 3022 1394 3022 966 
Q 3022 478 2636 193 
Q 2250 -91 1575 -91 
Q 1294 -91 989 -36 
Q 684 19 347 128 
L 347 722 
Q 666 556 975 473 
Q 1284 391 1588 391 
Q 1994 391 2212 530 
Q 2431 669 2431 922 
Q 2431 1156 2273 1281 
Q 2116 1406 1581 1522 
L 1381 1569 
Q 847 1681 609 1914 
Q 372 2147 372 2553 
Q 372 3047 722 3315 
Q 1072 3584 1716 3584 
Q 2034 3584 2315 3537 
Q 2597 3491 2834 3397 
z
" transform="scale(0.015625)"/>
      <path id="DejaVuSans-75" d="M 544 1381 
L 544 3500 
L 1119 3500 
L 1119 1403 
Q 1119 906 1312 657 
Q 1506 409 1894 409 
Q 2359 409 2629 706 
Q 2900 1003 2900 1516 
L 2900 3500 
L 3475 3500 
L 3475 0 
L 2900 0 
L 2900 538 
Q 2691 219 2414 64 
Q 2138 -91 1772 -91 
Q 1169 -91 856 284 
Q 544 659 544 1381 
z
M 1991 3584 
L 1991 3584 
z
" transform="scale(0.015625)"/>
      <path id="DejaVuSans-6c" d="M 603 4863 
L 1178 4863 
L 1178 0 
L 603 0 
L 603 4863 
z
" transform="scale(0.015625)"/>
      <path id="DejaVuSans-74" d="M 1172 4494 
L 1172 3500 
L 2356 3500 
L 2356 3053 
L 1172 3053 
L 1172 1153 
Q 1172 725 1289 603 
Q 1406 481 1766 481 
L 2356 481 
L 2356 0 
L 1766 0 
Q 1100 0 847 248 
Q 594 497 594 1153 
L 594 3053 
L 172 3053 
L 172 3500 
L 594 3500 
L 594 4494 
L 1172 4494 
z
" transform="scale(0.015625)"/>
      <path id="DejaVuSans-2e" d="M 684 794 
L 1344 794 
L 1344 0 
L 684 0 
L 684 794 
z
" transform="scale(0.015625)"/>
      <path id="DejaVuSans-39" d="M 703 97 
L 703 672 
Q 941 559 1184 500 
Q 1428 441 1663 441 
Q 2288 441 2617 861 
Q 2947 1281 2994 2138 
Q 2813 1869 2534 1725 
Q 2256 1581 1919 1581 
Q 1219 1581 811 2004 
Q 403 2428 403 3163 
Q 403 3881 828 4315 
Q 1253 4750 1959 4750 
Q 2769 4750 3195 4129 
Q 3622 3509 3622 2328 
Q 3622 1225 3098 567 
Q 2575 -91 1691 -91 
Q 1453 -91 1209 -44 
Q 966 3 703 97 
z
M 1959 2075 
Q 2384 2075 2632 2365 
Q 2881 2656 2881 3163 
Q 2881 3666 2632 3958 
Q 2384 4250 1959 4250 
Q 1534 4250 1286 3958 
Q 1038 3666 1038 3163 
Q 1038 2656 1286 2365 
Q 1534 2075 1959 2075 
z
" transform="scale(0.015625)"/>
      <path id="DejaVuSans-38" d="M 2034 2216 
Q 1584 2216 1326 1975 
Q 1069 1734 1069 1313 
Q 1069 891 1326 650 
Q 1584 409 2034 409 
Q 2484 409 2743 651 
Q 3003 894 3003 1313 
Q 3003 1734 2745 1975 
Q 2488 2216 2034 2216 
z
M 1403 2484 
Q 997 2584 770 2862 
Q 544 3141 544 3541 
Q 544 4100 942 4425 
Q 1341 4750 2034 4750 
Q 2731 4750 3128 4425 
Q 3525 4100 3525 3541 
Q 3525 3141 3298 2862 
Q 3072 2584 2669 2484 
Q 3125 2378 3379 2068 
Q 3634 1759 3634 1313 
Q 3634 634 3220 271 
Q 2806 -91 2034 -91 
Q 1263 -91 848 271 
Q 434 634 434 1313 
Q 434 1759 690 2068 
Q 947 2378 1403 2484 
z
M 1172 3481 
Q 1172 3119 1398 2916 
Q 1625 2713 2034 2713 
Q 2441 2713 2670 2916 
Q 2900 3119 2900 3481 
Q 2900 3844 2670 4047 
Q 2441 4250 2034 4250 
Q 1625 4250 1398 4047 
Q 1172 3844 1172 3481 
z
" transform="scale(0.015625)"/>
      <path id="DejaVuSans-37" d="M 525 4666 
L 3525 4666 
L 3525 4397 
L 1831 0 
L 1172 0 
L 2766 4134 
L 525 4134 
L 525 4666 
z
" transform="scale(0.015625)"/>
     </defs>
     <use xlink:href="#DejaVuSans-33"/>
     <use xlink:href="#DejaVuSans-30" x="63.623047"/>
     <use xlink:href="#DejaVuSans-30" x="127.246094"/>
     <use xlink:href="#DejaVuSans-30" x="190.869141"/>
     <use xlink:href="#DejaVuSans-5f" x="254.492188"/>
     <use xlink:href="#DejaVuSans-31" x="304.492188"/>
     <use xlink:href="#DejaVuSans-30" x="368.115234"/>
     <use xlink:href="#DejaVuSans-5f" x="431.738281"/>
     <use xlink:href="#DejaVuSans-31" x="481.738281"/>
     <use xlink:href="#DejaVuSans-30" x="545.361328"/>
     <use xlink:href="#DejaVuSans-5f" x="608.984375"/>
     <use xlink:href="#DejaVuSans-32" x="658.984375"/>
     <use xlink:href="#DejaVuSans-35" x="722.607422"/>
     <use xlink:href="#DejaVuSans-33" x="786.230469"/>
     <use xlink:href="#DejaVuSans-5f" x="849.853516"/>
     <use xlink:href="#DejaVuSans-72" x="899.853516"/>
     <use xlink:href="#DejaVuSans-65" x="938.716797"/>
     <use xlink:href="#DejaVuSans-73" x="1000.240234"/>
     <use xlink:href="#DejaVuSans-75" x="1052.339844"/>
     <use xlink:href="#DejaVuSans-6c" x="1115.71875"/>
     <use xlink:href="#DejaVuSans-74" x="1143.501953"/>
     <use xlink:href="#DejaVuSans-31" x="1182.710938"/>
     <use xlink:href="#DejaVuSans-32" x="1246.333984"/>
     <use xlink:href="#DejaVuSans-32" x="1309.957031"/>
     <use xlink:href="#DejaVuSans-2e" x="1373.580078"/>
     <use xlink:href="#DejaVuSans-34" x="1405.367188"/>
     <use xlink:href="#DejaVuSans-39" x="1468.990234"/>
     <use xlink:href="#DejaVuSans-39" x="1532.613281"/>
     <use xlink:href="#DejaVuSans-39" x="1596.236328"/>
     <use xlink:href="#DejaVuSans-39" x="1659.859375"/>
     <use xlink:href="#DejaVuSans-39" x="1723.482422"/>
     <use xlink:href="#DejaVuSans-39" x="1787.105469"/>
     <use xlink:href="#DejaVuSans-39" x="1850.728516"/>
     <use xlink:href="#DejaVuSans-39" x="1914.351562"/>
     <use xlink:href="#DejaVuSans-39" x="1977.974609"/>
     <use xlink:href="#DejaVuSans-39" x="2041.597656"/>
     <use xlink:href="#DejaVuSans-39" x="2105.220703"/>
     <use xlink:href="#DejaVuSans-38" x="2168.84375"/>
     <use xlink:href="#DejaVuSans-37" x="2232.466797"/>
    </g>
   </g>
  </g>
 </g>
 <defs>
  <clipPath id="pdfe26f5428">
   <rect x="144" y="77.76" width="892.8" height="489.24"/>
  </clipPath>
 </defs>
</svg>
