<?xml version="1.0" encoding="utf-8" standalone="no"?>
<!DOCTYPE svg PUBLIC "-//W3C//DTD SVG 1.1//EN"
  "http://www.w3.org/Graphics/SVG/1.1/DTD/svg11.dtd">
<svg xmlns:xlink="http://www.w3.org/1999/xlink" width="576pt" height="720pt" viewBox="0 0 576 720" xmlns="http://www.w3.org/2000/svg" version="1.1">
 <metadata>
  <rdf:RDF xmlns:dc="http://purl.org/dc/elements/1.1/" xmlns:cc="http://creativecommons.org/ns#" xmlns:rdf="http://www.w3.org/1999/02/22-rdf-syntax-ns#">
   <cc:Work>
    <dc:type rdf:resource="http://purl.org/dc/dcmitype/StillImage"/>
    <dc:date>2022-03-26T15:16:07.039333</dc:date>
    <dc:format>image/svg+xml</dc:format>
    <dc:creator>
     <cc:Agent>
      <dc:title>Matplotlib v3.5.1, https://matplotlib.org/</dc:title>
     </cc:Agent>
    </dc:creator>
   </cc:Work>
  </rdf:RDF>
 </metadata>
 <defs>
  <style type="text/css">*{stroke-linejoin: round; stroke-linecap: butt}</style>
 </defs>
 <g id="figure_1">
  <g id="patch_1">
   <path d="M 0 720 
L 576 720 
L 576 0 
L 0 0 
L 0 720 
z
" style="fill: none"/>
  </g>
  <g id="axes_1"/>
  <g id="axes_2">
   <g id="patch_2">
    <path d="M 72 630 
L 518.4 630 
L 518.4 86.4 
L 72 86.4 
z
" style="fill: #ffffff"/>
   </g>
   <g id="patch_3">
    <path d="M 341.6256 536.364081 
L 359.4816 536.364081 
L 359.4816 531.247364 
L 341.6256 531.247364 
L 341.6256 536.364081 
z
" clip-path="url(#p2786d56445)" style="fill: none; stroke: #000000; stroke-linejoin: miter"/>
   </g>
   <g id="patch_4">
    <path d="M 355.55328 359.939684 
L 373.40928 359.939684 
L 373.40928 354.822967 
L 355.55328 354.822967 
L 355.55328 359.939684 
z
" clip-path="url(#p2786d56445)" style="fill: none; stroke: #000000; stroke-linejoin: miter"/>
   </g>
   <g id="patch_5">
    <path d="M 421.9776 123.342696 
L 439.8336 123.342696 
L 439.8336 118.225979 
L 421.9776 118.225979 
L 421.9776 123.342696 
z
" clip-path="url(#p2786d56445)" style="fill: none; stroke: #000000; stroke-linejoin: miter"/>
   </g>
   <g id="patch_6">
    <path d="M 362.51712 621.813253 
L 380.37312 621.813253 
L 380.37312 616.696536 
L 362.51712 616.696536 
L 362.51712 621.813253 
z
" clip-path="url(#p2786d56445)" style="fill: none; stroke: #000000; stroke-linejoin: miter"/>
   </g>
   <g id="patch_7">
    <path d="M 386.80128 437.918449 
L 404.65728 437.918449 
L 404.65728 432.801732 
L 386.80128 432.801732 
L 386.80128 437.918449 
z
" clip-path="url(#p2786d56445)" style="fill: none; stroke: #000000; stroke-linejoin: miter"/>
   </g>
   <g id="patch_8">
    <path d="M 252.3456 540.457455 
L 270.2016 540.457455 
L 270.2016 535.340738 
L 252.3456 535.340738 
L 252.3456 540.457455 
z
" clip-path="url(#p2786d56445)" style="fill: none; stroke: #000000; stroke-linejoin: miter"/>
   </g>
   <g id="patch_9">
    <path d="M 480.54528 367.512425 
L 498.40128 367.512425 
L 498.40128 362.395708 
L 480.54528 362.395708 
L 480.54528 367.512425 
z
" clip-path="url(#p2786d56445)" style="fill: none; stroke: #000000; stroke-linejoin: miter"/>
   </g>
   <g id="patch_10">
    <path d="M 307.52064 561.845331 
L 325.37664 561.845331 
L 325.37664 556.728614 
L 307.52064 556.728614 
L 307.52064 561.845331 
z
" clip-path="url(#p2786d56445)" style="fill: none; stroke: #000000; stroke-linejoin: miter"/>
   </g>
   <g id="patch_11">
    <path d="M 201.27744 559.184639 
L 219.13344 559.184639 
L 219.13344 554.067922 
L 201.27744 554.067922 
L 201.27744 559.184639 
z
" clip-path="url(#p2786d56445)" style="fill: none; stroke: #000000; stroke-linejoin: miter"/>
   </g>
   <g id="patch_12">
    <path d="M 299.664 588.554593 
L 317.52 588.554593 
L 317.52 583.437877 
L 299.664 583.437877 
L 299.664 588.554593 
z
" clip-path="url(#p2786d56445)" style="fill: none; stroke: #000000; stroke-linejoin: miter"/>
   </g>
   <g id="patch_13">
    <path d="M 467.5104 301.302108 
L 485.3664 301.302108 
L 485.3664 296.185392 
L 467.5104 296.185392 
L 467.5104 301.302108 
z
" clip-path="url(#p2786d56445)" style="fill: none; stroke: #000000; stroke-linejoin: miter"/>
   </g>
   <g id="patch_14">
    <path d="M 344.304 573.716114 
L 362.16 573.716114 
L 362.16 568.599398 
L 344.304 568.599398 
L 344.304 573.716114 
z
" clip-path="url(#p2786d56445)" style="fill: none; stroke: #000000; stroke-linejoin: miter"/>
   </g>
   <g id="patch_15">
    <path d="M 280.55808 514.566867 
L 298.41408 514.566867 
L 298.41408 509.450151 
L 280.55808 509.450151 
L 280.55808 514.566867 
z
" clip-path="url(#p2786d56445)" style="fill: none; stroke: #000000; stroke-linejoin: miter"/>
   </g>
   <g id="patch_16">
    <path d="M 195.2064 348.682907 
L 213.0624 348.682907 
L 213.0624 343.56619 
L 195.2064 343.56619 
L 195.2064 348.682907 
z
" clip-path="url(#p2786d56445)" style="fill: none; stroke: #000000; stroke-linejoin: miter"/>
   </g>
   <g id="patch_17">
    <path d="M 262.88064 360.451355 
L 280.73664 360.451355 
L 280.73664 355.334639 
L 262.88064 355.334639 
L 262.88064 360.451355 
z
" clip-path="url(#p2786d56445)" style="fill: none; stroke: #000000; stroke-linejoin: miter"/>
   </g>
   <g id="patch_18">
    <path d="M 323.23392 530.531024 
L 341.08992 530.531024 
L 341.08992 525.414307 
L 323.23392 525.414307 
L 323.23392 530.531024 
z
" clip-path="url(#p2786d56445)" style="fill: none; stroke: #000000; stroke-linejoin: miter"/>
   </g>
   <g id="patch_19">
    <path d="M 84.85632 542.504142 
L 102.71232 542.504142 
L 102.71232 537.387425 
L 84.85632 537.387425 
L 84.85632 542.504142 
z
" clip-path="url(#p2786d56445)" style="fill: none; stroke: #000000; stroke-linejoin: miter"/>
   </g>
   <g id="patch_20">
    <path d="M 436.61952 130.403765 
L 454.47552 130.403765 
L 454.47552 125.287048 
L 436.61952 125.287048 
L 436.61952 130.403765 
z
" clip-path="url(#p2786d56445)" style="fill: none; stroke: #000000; stroke-linejoin: miter"/>
   </g>
   <g id="patch_21">
    <path d="M 329.48352 104.10384 
L 347.33952 104.10384 
L 347.33952 98.987123 
L 329.48352 98.987123 
L 329.48352 104.10384 
z
" clip-path="url(#p2786d56445)" style="fill: none; stroke: #000000; stroke-linejoin: miter"/>
   </g>
   <g id="patch_22">
    <path d="M 147.35232 513.850527 
L 165.20832 513.850527 
L 165.20832 508.73381 
L 147.35232 508.73381 
L 147.35232 513.850527 
z
" clip-path="url(#p2786d56445)" style="fill: none; stroke: #000000; stroke-linejoin: miter"/>
   </g>
   <g id="patch_23">
    <path d="M 410.54976 439.248795 
L 428.40576 439.248795 
L 428.40576 434.132078 
L 410.54976 434.132078 
L 410.54976 439.248795 
z
" clip-path="url(#p2786d56445)" style="fill: none; stroke: #000000; stroke-linejoin: miter"/>
   </g>
   <g id="patch_24">
    <path d="M 346.26816 457.77131 
L 364.12416 457.77131 
L 364.12416 452.654593 
L 346.26816 452.654593 
L 346.26816 457.77131 
z
" clip-path="url(#p2786d56445)" style="fill: none; stroke: #000000; stroke-linejoin: miter"/>
   </g>
   <g id="patch_25">
    <path d="M 391.6224 367.921762 
L 409.4784 367.921762 
L 409.4784 362.805045 
L 391.6224 362.805045 
L 391.6224 367.921762 
z
" clip-path="url(#p2786d56445)" style="fill: none; stroke: #000000; stroke-linejoin: miter"/>
   </g>
   <g id="patch_26">
    <path d="M 393.05088 579.651506 
L 410.90688 579.651506 
L 410.90688 574.534789 
L 393.05088 574.534789 
L 393.05088 579.651506 
z
" clip-path="url(#p2786d56445)" style="fill: none; stroke: #000000; stroke-linejoin: miter"/>
   </g>
   <g id="patch_27">
    <path d="M 366.624 411.618524 
L 384.48 411.618524 
L 384.48 406.501807 
L 366.624 406.501807 
L 366.624 411.618524 
z
" clip-path="url(#p2786d56445)" style="fill: none; stroke: #000000; stroke-linejoin: miter"/>
   </g>
   <g id="patch_28">
    <path d="M 331.8048 614.138178 
L 349.6608 614.138178 
L 349.6608 609.021461 
L 331.8048 609.021461 
L 331.8048 614.138178 
z
" clip-path="url(#p2786d56445)" style="fill: none; stroke: #000000; stroke-linejoin: miter"/>
   </g>
   <g id="patch_29">
    <path d="M 302.16384 573.409111 
L 320.01984 573.409111 
L 320.01984 568.292395 
L 302.16384 568.292395 
L 302.16384 573.409111 
z
" clip-path="url(#p2786d56445)" style="fill: none; stroke: #000000; stroke-linejoin: miter"/>
   </g>
   <g id="patch_30">
    <path d="M 355.0176 546.699849 
L 372.8736 546.699849 
L 372.8736 541.583133 
L 355.0176 541.583133 
L 355.0176 546.699849 
z
" clip-path="url(#p2786d56445)" style="fill: none; stroke: #000000; stroke-linejoin: miter"/>
   </g>
   <g id="patch_31">
    <path d="M 412.51392 150.768298 
L 430.36992 150.768298 
L 430.36992 145.651581 
L 412.51392 145.651581 
L 412.51392 150.768298 
z
" clip-path="url(#p2786d56445)" style="fill: none; stroke: #000000; stroke-linejoin: miter"/>
   </g>
   <g id="patch_32">
    <path d="M 153.2448 367.614759 
L 171.1008 367.614759 
L 171.1008 362.498042 
L 153.2448 362.498042 
L 153.2448 367.614759 
z
" clip-path="url(#p2786d56445)" style="fill: none; stroke: #000000; stroke-linejoin: miter"/>
   </g>
   <g id="patch_33">
    <path d="M 280.55808 465.958057 
L 298.41408 465.958057 
L 298.41408 460.84134 
L 280.55808 460.84134 
L 280.55808 465.958057 
z
" clip-path="url(#p2786d56445)" style="fill: none; stroke: #000000; stroke-linejoin: miter"/>
   </g>
   <g id="patch_34">
    <path d="M 122.17536 368.945105 
L 140.03136 368.945105 
L 140.03136 363.828389 
L 122.17536 363.828389 
L 122.17536 368.945105 
z
" clip-path="url(#p2786d56445)" style="fill: none; stroke: #000000; stroke-linejoin: miter"/>
   </g>
   <g id="patch_35">
    <path d="M 185.3856 426.559337 
L 203.2416 426.559337 
L 203.2416 421.44262 
L 185.3856 421.44262 
L 185.3856 426.559337 
z
" clip-path="url(#p2786d56445)" style="fill: none; stroke: #000000; stroke-linejoin: miter"/>
   </g>
   <g id="patch_36">
    <path d="M 469.65312 96.633434 
L 487.50912 96.633434 
L 487.50912 91.516717 
L 469.65312 91.516717 
L 469.65312 96.633434 
z
" clip-path="url(#p2786d56445)" style="fill: none; stroke: #000000; stroke-linejoin: miter"/>
   </g>
   <g id="patch_37">
    <path d="M 427.69152 358.711672 
L 445.54752 358.711672 
L 445.54752 353.594955 
L 427.69152 353.594955 
L 427.69152 358.711672 
z
" clip-path="url(#p2786d56445)" style="fill: none; stroke: #000000; stroke-linejoin: miter"/>
   </g>
   <g id="patch_38">
    <path d="M 158.24448 504.333434 
L 176.10048 504.333434 
L 176.10048 499.216717 
L 158.24448 499.216717 
L 158.24448 504.333434 
z
" clip-path="url(#p2786d56445)" style="fill: none; stroke: #000000; stroke-linejoin: miter"/>
   </g>
   <g id="patch_39">
    <path d="M 359.66016 591.829292 
L 377.51616 591.829292 
L 377.51616 586.712575 
L 359.66016 586.712575 
L 359.66016 591.829292 
z
" clip-path="url(#p2786d56445)" style="fill: none; stroke: #000000; stroke-linejoin: miter"/>
   </g>
   <g id="patch_40">
    <path d="M 320.1984 545.77884 
L 338.0544 545.77884 
L 338.0544 540.662123 
L 320.1984 540.662123 
L 320.1984 545.77884 
z
" clip-path="url(#p2786d56445)" style="fill: none; stroke: #000000; stroke-linejoin: miter"/>
   </g>
   <g id="patch_41">
    <path d="M 167.5296 386.444277 
L 185.3856 386.444277 
L 185.3856 381.32756 
L 167.5296 381.32756 
L 167.5296 386.444277 
z
" clip-path="url(#p2786d56445)" style="fill: none; stroke: #000000; stroke-linejoin: miter"/>
   </g>
   <g id="patch_42">
    <path d="M 367.69536 185.152636 
L 385.55136 185.152636 
L 385.55136 180.035919 
L 367.69536 180.035919 
L 367.69536 185.152636 
z
" clip-path="url(#p2786d56445)" style="fill: none; stroke: #000000; stroke-linejoin: miter"/>
   </g>
   <g id="patch_43">
    <path d="M 200.74176 460.432003 
L 218.59776 460.432003 
L 218.59776 455.315286 
L 200.74176 455.315286 
L 200.74176 460.432003 
z
" clip-path="url(#p2786d56445)" style="fill: none; stroke: #000000; stroke-linejoin: miter"/>
   </g>
   <g id="patch_44">
    <path d="M 219.49056 448.765889 
L 237.34656 448.765889 
L 237.34656 443.649172 
L 219.49056 443.649172 
L 219.49056 448.765889 
z
" clip-path="url(#p2786d56445)" style="fill: none; stroke: #000000; stroke-linejoin: miter"/>
   </g>
   <g id="patch_45">
    <path d="M 235.56096 375.085166 
L 253.41696 375.085166 
L 253.41696 369.968449 
L 235.56096 369.968449 
L 235.56096 375.085166 
z
" clip-path="url(#p2786d56445)" style="fill: none; stroke: #000000; stroke-linejoin: miter"/>
   </g>
   <g id="patch_46">
    <path d="M 165.20832 220.969654 
L 183.06432 220.969654 
L 183.06432 215.852937 
L 165.20832 215.852937 
L 165.20832 220.969654 
z
" clip-path="url(#p2786d56445)" style="fill: none; stroke: #000000; stroke-linejoin: miter"/>
   </g>
   <g id="patch_47">
    <path d="M 271.45152 292.194352 
L 289.30752 292.194352 
L 289.30752 287.077636 
L 271.45152 287.077636 
L 271.45152 292.194352 
z
" clip-path="url(#p2786d56445)" style="fill: none; stroke: #000000; stroke-linejoin: miter"/>
   </g>
   <g id="patch_48">
    <path d="M 308.23488 596.536672 
L 326.09088 596.536672 
L 326.09088 591.419955 
L 308.23488 591.419955 
L 308.23488 596.536672 
z
" clip-path="url(#p2786d56445)" style="fill: none; stroke: #000000; stroke-linejoin: miter"/>
   </g>
   <g id="patch_49">
    <path d="M 406.97856 480.284864 
L 424.83456 480.284864 
L 424.83456 475.168148 
L 406.97856 475.168148 
L 406.97856 480.284864 
z
" clip-path="url(#p2786d56445)" style="fill: none; stroke: #000000; stroke-linejoin: miter"/>
   </g>
   <g id="patch_50">
    <path d="M 387.1584 549.360542 
L 405.0144 549.360542 
L 405.0144 544.243825 
L 387.1584 544.243825 
L 387.1584 549.360542 
z
" clip-path="url(#p2786d56445)" style="fill: none; stroke: #000000; stroke-linejoin: miter"/>
   </g>
   <g id="patch_51">
    <path d="M 287.1648 382.657907 
L 305.0208 382.657907 
L 305.0208 377.54119 
L 287.1648 377.54119 
L 287.1648 382.657907 
z
" clip-path="url(#p2786d56445)" style="fill: none; stroke: #000000; stroke-linejoin: miter"/>
   </g>
   <g id="patch_52">
    <path d="M 351.4464 501.672741 
L 369.3024 501.672741 
L 369.3024 496.556024 
L 351.4464 496.556024 
L 351.4464 501.672741 
z
" clip-path="url(#p2786d56445)" style="fill: none; stroke: #000000; stroke-linejoin: miter"/>
   </g>
   <g id="patch_53">
    <path d="M 186.81408 394.119352 
L 204.67008 394.119352 
L 204.67008 389.002636 
L 186.81408 389.002636 
L 186.81408 394.119352 
z
" clip-path="url(#p2786d56445)" style="fill: none; stroke: #000000; stroke-linejoin: miter"/>
   </g>
   <g id="patch_54">
    <path d="M 312.52032 467.186069 
L 330.37632 467.186069 
L 330.37632 462.069352 
L 312.52032 462.069352 
L 312.52032 467.186069 
z
" clip-path="url(#p2786d56445)" style="fill: none; stroke: #000000; stroke-linejoin: miter"/>
   </g>
   <g id="patch_55">
    <path d="M 88.9632 517.943901 
L 106.8192 517.943901 
L 106.8192 512.827184 
L 88.9632 512.827184 
L 88.9632 517.943901 
z
" clip-path="url(#p2786d56445)" style="fill: none; stroke: #000000; stroke-linejoin: miter"/>
   </g>
   <g id="patch_56">
    <path d="M 151.4592 499.216717 
L 169.3152 499.216717 
L 169.3152 494.1 
L 151.4592 494.1 
L 151.4592 499.216717 
z
" clip-path="url(#p2786d56445)" style="fill: none; stroke: #000000; stroke-linejoin: miter"/>
   </g>
   <g id="patch_57">
    <path d="M 451.26144 103.694503 
L 469.11744 103.694503 
L 469.11744 98.577786 
L 451.26144 98.577786 
L 451.26144 103.694503 
z
" clip-path="url(#p2786d56445)" style="fill: none; stroke: #000000; stroke-linejoin: miter"/>
   </g>
   <g id="patch_58">
    <path d="M 376.4448 582.414533 
L 394.3008 582.414533 
L 394.3008 577.297816 
L 376.4448 577.297816 
L 376.4448 582.414533 
z
" clip-path="url(#p2786d56445)" style="fill: none; stroke: #000000; stroke-linejoin: miter"/>
   </g>
   <g id="patch_59">
    <path d="M 189.8496 519.069578 
L 207.7056 519.069578 
L 207.7056 513.952861 
L 189.8496 513.952861 
L 189.8496 519.069578 
z
" clip-path="url(#p2786d56445)" style="fill: none; stroke: #000000; stroke-linejoin: miter"/>
   </g>
   <g id="patch_60">
    <path d="M 213.41952 539.434111 
L 231.27552 539.434111 
L 231.27552 534.317395 
L 213.41952 534.317395 
L 213.41952 539.434111 
z
" clip-path="url(#p2786d56445)" style="fill: none; stroke: #000000; stroke-linejoin: miter"/>
   </g>
   <g id="patch_61">
    <path d="M 321.80544 592.23863 
L 339.66144 592.23863 
L 339.66144 587.121913 
L 321.80544 587.121913 
L 321.80544 592.23863 
z
" clip-path="url(#p2786d56445)" style="fill: none; stroke: #000000; stroke-linejoin: miter"/>
   </g>
   <g id="patch_62">
    <path d="M 267.70176 120.477334 
L 285.55776 120.477334 
L 285.55776 115.360617 
L 267.70176 115.360617 
L 267.70176 120.477334 
z
" clip-path="url(#p2786d56445)" style="fill: none; stroke: #000000; stroke-linejoin: miter"/>
   </g>
   <g id="patch_63">
    <path d="M 384.83712 445.081852 
L 402.69312 445.081852 
L 402.69312 439.965136 
L 384.83712 439.965136 
L 384.83712 445.081852 
z
" clip-path="url(#p2786d56445)" style="fill: none; stroke: #000000; stroke-linejoin: miter"/>
   </g>
   <g id="patch_64">
    <path d="M 310.55616 531.554367 
L 328.41216 531.554367 
L 328.41216 526.437651 
L 310.55616 526.437651 
L 310.55616 531.554367 
z
" clip-path="url(#p2786d56445)" style="fill: none; stroke: #000000; stroke-linejoin: miter"/>
   </g>
   <g id="patch_65">
    <path d="M 315.19872 305.395482 
L 333.05472 305.395482 
L 333.05472 300.278765 
L 315.19872 300.278765 
L 315.19872 305.395482 
z
" clip-path="url(#p2786d56445)" style="fill: none; stroke: #000000; stroke-linejoin: miter"/>
   </g>
   <g id="patch_66">
    <path d="M 271.0944 547.41619 
L 288.9504 547.41619 
L 288.9504 542.299473 
L 271.0944 542.299473 
L 271.0944 547.41619 
z
" clip-path="url(#p2786d56445)" style="fill: none; stroke: #000000; stroke-linejoin: miter"/>
   </g>
   <g id="patch_67">
    <path d="M 320.55552 498.909714 
L 338.41152 498.909714 
L 338.41152 493.792997 
L 320.55552 493.792997 
L 320.55552 498.909714 
z
" clip-path="url(#p2786d56445)" style="fill: none; stroke: #000000; stroke-linejoin: miter"/>
   </g>
   <g id="patch_68">
    <path d="M 254.48832 401.896762 
L 272.34432 401.896762 
L 272.34432 396.780045 
L 254.48832 396.780045 
L 254.48832 401.896762 
z
" clip-path="url(#p2786d56445)" style="fill: none; stroke: #000000; stroke-linejoin: miter"/>
   </g>
   <g id="patch_69">
    <path d="M 359.4816 613.72884 
L 377.3376 613.72884 
L 377.3376 608.612123 
L 359.4816 608.612123 
L 359.4816 613.72884 
z
" clip-path="url(#p2786d56445)" style="fill: none; stroke: #000000; stroke-linejoin: miter"/>
   </g>
   <g id="patch_70">
    <path d="M 318.4128 444.263178 
L 336.2688 444.263178 
L 336.2688 439.146461 
L 318.4128 439.146461 
L 318.4128 444.263178 
z
" clip-path="url(#p2786d56445)" style="fill: none; stroke: #000000; stroke-linejoin: miter"/>
   </g>
   <g id="patch_71">
    <path d="M 458.93952 155.06634 
L 476.79552 155.06634 
L 476.79552 149.949623 
L 458.93952 149.949623 
L 458.93952 155.06634 
z
" clip-path="url(#p2786d56445)" style="fill: none; stroke: #000000; stroke-linejoin: miter"/>
   </g>
   <g id="patch_72">
    <path d="M 351.98208 479.056852 
L 369.83808 479.056852 
L 369.83808 473.940136 
L 351.98208 473.940136 
L 351.98208 479.056852 
z
" clip-path="url(#p2786d56445)" style="fill: none; stroke: #000000; stroke-linejoin: miter"/>
   </g>
   <g id="patch_73">
    <path d="M 367.33824 371.810467 
L 385.19424 371.810467 
L 385.19424 366.69375 
L 367.33824 366.69375 
L 367.33824 371.810467 
z
" clip-path="url(#p2786d56445)" style="fill: none; stroke: #000000; stroke-linejoin: miter"/>
   </g>
   <g id="patch_74">
    <path d="M 366.44544 370.173117 
L 384.30144 370.173117 
L 384.30144 365.056401 
L 366.44544 365.056401 
L 366.44544 370.173117 
z
" clip-path="url(#p2786d56445)" style="fill: none; stroke: #000000; stroke-linejoin: miter"/>
   </g>
   <g id="patch_75">
    <path d="M 170.38656 402.306099 
L 188.24256 402.306099 
L 188.24256 397.189383 
L 170.38656 397.189383 
L 170.38656 402.306099 
z
" clip-path="url(#p2786d56445)" style="fill: none; stroke: #000000; stroke-linejoin: miter"/>
   </g>
   <g id="patch_76">
    <path d="M 190.56384 367.921762 
L 208.41984 367.921762 
L 208.41984 362.805045 
L 190.56384 362.805045 
L 190.56384 367.921762 
z
" clip-path="url(#p2786d56445)" style="fill: none; stroke: #000000; stroke-linejoin: miter"/>
   </g>
   <g id="patch_77">
    <path d="M 389.8368 262.005723 
L 407.6928 262.005723 
L 407.6928 256.889006 
L 389.8368 256.889006 
L 389.8368 262.005723 
z
" clip-path="url(#p2786d56445)" style="fill: none; stroke: #000000; stroke-linejoin: miter"/>
   </g>
   <g id="patch_78">
    <path d="M 236.81088 367.205422 
L 254.66688 367.205422 
L 254.66688 362.088705 
L 236.81088 362.088705 
L 236.81088 367.205422 
z
" clip-path="url(#p2786d56445)" style="fill: none; stroke: #000000; stroke-linejoin: miter"/>
   </g>
   <g id="patch_79">
    <path d="M 186.63552 466.060392 
L 204.49152 466.060392 
L 204.49152 460.943675 
L 186.63552 460.943675 
L 186.63552 466.060392 
z
" clip-path="url(#p2786d56445)" style="fill: none; stroke: #000000; stroke-linejoin: miter"/>
   </g>
   <g id="patch_80">
    <path d="M 298.94976 407.627485 
L 316.80576 407.627485 
L 316.80576 402.510768 
L 298.94976 402.510768 
L 298.94976 407.627485 
z
" clip-path="url(#p2786d56445)" style="fill: none; stroke: #000000; stroke-linejoin: miter"/>
   </g>
   <g id="patch_81">
    <path d="M 439.8336 109.834563 
L 457.6896 109.834563 
L 457.6896 104.717846 
L 439.8336 104.717846 
L 439.8336 109.834563 
z
" clip-path="url(#p2786d56445)" style="fill: none; stroke: #000000; stroke-linejoin: miter"/>
   </g>
   <g id="patch_82">
    <path d="M 329.30496 582.209864 
L 347.16096 582.209864 
L 347.16096 577.093148 
L 329.30496 577.093148 
L 329.30496 582.209864 
z
" clip-path="url(#p2786d56445)" style="fill: none; stroke: #000000; stroke-linejoin: miter"/>
   </g>
   <g id="patch_83">
    <path d="M 355.37472 295.776054 
L 373.23072 295.776054 
L 373.23072 290.659337 
L 355.37472 290.659337 
L 355.37472 295.776054 
z
" clip-path="url(#p2786d56445)" style="fill: none; stroke: #000000; stroke-linejoin: miter"/>
   </g>
   <g id="patch_84">
    <path d="M 354.48192 604.928087 
L 372.33792 604.928087 
L 372.33792 599.81137 
L 354.48192 599.81137 
L 354.48192 604.928087 
z
" clip-path="url(#p2786d56445)" style="fill: none; stroke: #000000; stroke-linejoin: miter"/>
   </g>
   <g id="patch_85">
    <path d="M 162.70848 526.744654 
L 180.56448 526.744654 
L 180.56448 521.627937 
L 162.70848 521.627937 
L 162.70848 526.744654 
z
" clip-path="url(#p2786d56445)" style="fill: none; stroke: #000000; stroke-linejoin: miter"/>
   </g>
   <g id="patch_86">
    <path d="M 420.01344 493.38366 
L 437.86944 493.38366 
L 437.86944 488.266943 
L 420.01344 488.266943 
L 420.01344 493.38366 
z
" clip-path="url(#p2786d56445)" style="fill: none; stroke: #000000; stroke-linejoin: miter"/>
   </g>
   <g id="patch_87">
    <path d="M 78.07104 512.008509 
L 95.92704 512.008509 
L 95.92704 506.891792 
L 78.07104 506.891792 
L 78.07104 512.008509 
z
" clip-path="url(#p2786d56445)" style="fill: none; stroke: #000000; stroke-linejoin: miter"/>
   </g>
   <g id="patch_88">
    <path d="M 294.12864 100.726807 
L 311.98464 100.726807 
L 311.98464 95.61009 
L 294.12864 95.61009 
L 294.12864 100.726807 
z
" clip-path="url(#p2786d56445)" style="fill: none; stroke: #000000; stroke-linejoin: miter"/>
   </g>
   <g id="patch_89">
    <path d="M 226.99008 272.341491 
L 244.84608 272.341491 
L 244.84608 267.224774 
L 226.99008 267.224774 
L 226.99008 272.341491 
z
" clip-path="url(#p2786d56445)" style="fill: none; stroke: #000000; stroke-linejoin: miter"/>
   </g>
   <g id="patch_90">
    <path d="M 204.49152 136.748494 
L 222.34752 136.748494 
L 222.34752 131.631777 
L 204.49152 131.631777 
L 204.49152 136.748494 
z
" clip-path="url(#p2786d56445)" style="fill: none; stroke: #000000; stroke-linejoin: miter"/>
   </g>
   <g id="patch_91">
    <path d="M 192.70656 155.475678 
L 210.56256 155.475678 
L 210.56256 150.358961 
L 192.70656 150.358961 
L 192.70656 155.475678 
z
" clip-path="url(#p2786d56445)" style="fill: none; stroke: #000000; stroke-linejoin: miter"/>
   </g>
   <g id="patch_92">
    <path d="M 256.63104 109.322892 
L 274.48704 109.322892 
L 274.48704 104.206175 
L 256.63104 104.206175 
L 256.63104 109.322892 
z
" clip-path="url(#p2786d56445)" style="fill: none; stroke: #000000; stroke-linejoin: miter"/>
   </g>
   <g id="patch_93">
    <path d="M 282.34368 108.913554 
L 300.19968 108.913554 
L 300.19968 103.796837 
L 282.34368 103.796837 
L 282.34368 108.913554 
z
" clip-path="url(#p2786d56445)" style="fill: none; stroke: #000000; stroke-linejoin: miter"/>
   </g>
   <g id="patch_94">
    <path d="M 347.8752 510.166491 
L 365.7312 510.166491 
L 365.7312 505.049774 
L 347.8752 505.049774 
L 347.8752 510.166491 
z
" clip-path="url(#p2786d56445)" style="fill: none; stroke: #000000; stroke-linejoin: miter"/>
   </g>
   <g id="patch_95">
    <path d="M 191.81376 162.84375 
L 209.66976 162.84375 
L 209.66976 157.727033 
L 191.81376 157.727033 
L 191.81376 162.84375 
z
" clip-path="url(#p2786d56445)" style="fill: none; stroke: #000000; stroke-linejoin: miter"/>
   </g>
   <g id="patch_96">
    <path d="M 216.81216 156.089684 
L 234.66816 156.089684 
L 234.66816 150.972967 
L 216.81216 150.972967 
L 216.81216 156.089684 
z
" clip-path="url(#p2786d56445)" style="fill: none; stroke: #000000; stroke-linejoin: miter"/>
   </g>
   <g id="patch_97">
    <path d="M 133.06752 353.697289 
L 150.92352 353.697289 
L 150.92352 348.580572 
L 133.06752 348.580572 
L 133.06752 353.697289 
z
" clip-path="url(#p2786d56445)" style="fill: none; stroke: #000000; stroke-linejoin: miter"/>
   </g>
   <g id="patch_98">
    <path d="M 169.49376 333.844428 
L 187.34976 333.844428 
L 187.34976 328.727711 
L 169.49376 328.727711 
L 169.49376 333.844428 
z
" clip-path="url(#p2786d56445)" style="fill: none; stroke: #000000; stroke-linejoin: miter"/>
   </g>
   <g id="patch_99">
    <path d="M 335.55456 211.657229 
L 353.41056 211.657229 
L 353.41056 206.540512 
L 335.55456 206.540512 
L 335.55456 211.657229 
z
" clip-path="url(#p2786d56445)" style="fill: none; stroke: #000000; stroke-linejoin: miter"/>
   </g>
   <g id="patch_100">
    <path d="M 275.02272 588.042922 
L 292.87872 588.042922 
L 292.87872 582.926205 
L 275.02272 582.926205 
L 275.02272 588.042922 
z
" clip-path="url(#p2786d56445)" style="fill: none; stroke: #000000; stroke-linejoin: miter"/>
   </g>
   <g id="patch_101">
    <path d="M 262.52352 111.676581 
L 280.37952 111.676581 
L 280.37952 106.559864 
L 262.52352 106.559864 
L 262.52352 111.676581 
z
" clip-path="url(#p2786d56445)" style="fill: none; stroke: #000000; stroke-linejoin: miter"/>
   </g>
   <g id="patch_102">
    <path d="M 301.27104 357.688328 
L 319.12704 357.688328 
L 319.12704 352.571611 
L 301.27104 352.571611 
L 301.27104 357.688328 
z
" clip-path="url(#p2786d56445)" style="fill: none; stroke: #000000; stroke-linejoin: miter"/>
   </g>
   <g id="patch_103">
    <path d="M 277.87968 271.829819 
L 295.73568 271.829819 
L 295.73568 266.713102 
L 277.87968 266.713102 
L 277.87968 271.829819 
z
" clip-path="url(#p2786d56445)" style="fill: none; stroke: #000000; stroke-linejoin: miter"/>
   </g>
   <g id="patch_104">
    <path d="M 410.19264 97.554443 
L 428.04864 97.554443 
L 428.04864 92.437726 
L 410.19264 92.437726 
L 410.19264 97.554443 
z
" clip-path="url(#p2786d56445)" style="fill: none; stroke: #000000; stroke-linejoin: miter"/>
   </g>
   <g id="patch_105">
    <path d="M 410.3712 403.841114 
L 428.2272 403.841114 
L 428.2272 398.724398 
L 410.3712 398.724398 
L 410.3712 403.841114 
z
" clip-path="url(#p2786d56445)" style="fill: none; stroke: #000000; stroke-linejoin: miter"/>
   </g>
   <g id="patch_106">
    <path d="M 297.34272 438.737123 
L 315.19872 438.737123 
L 315.19872 433.620407 
L 297.34272 433.620407 
L 297.34272 438.737123 
z
" clip-path="url(#p2786d56445)" style="fill: none; stroke: #000000; stroke-linejoin: miter"/>
   </g>
   <g id="patch_107">
    <path d="M 317.87712 386.03494 
L 335.73312 386.03494 
L 335.73312 380.918223 
L 317.87712 380.918223 
L 317.87712 386.03494 
z
" clip-path="url(#p2786d56445)" style="fill: none; stroke: #000000; stroke-linejoin: miter"/>
   </g>
   <g id="patch_108">
    <path d="M 341.6256 471.586446 
L 359.4816 471.586446 
L 359.4816 466.469729 
L 341.6256 466.469729 
L 341.6256 471.586446 
z
" clip-path="url(#p2786d56445)" style="fill: none; stroke: #000000; stroke-linejoin: miter"/>
   </g>
   <g id="patch_109">
    <path d="M 400.90752 624.678614 
L 418.76352 624.678614 
L 418.76352 619.561898 
L 400.90752 619.561898 
L 400.90752 624.678614 
z
" clip-path="url(#p2786d56445)" style="fill: none; stroke: #000000; stroke-linejoin: miter"/>
   </g>
   <g id="patch_110">
    <path d="M 403.58592 392.89134 
L 421.44192 392.89134 
L 421.44192 387.774623 
L 403.58592 387.774623 
L 403.58592 392.89134 
z
" clip-path="url(#p2786d56445)" style="fill: none; stroke: #000000; stroke-linejoin: miter"/>
   </g>
   <g id="patch_111">
    <path d="M 123.60384 529.507681 
L 141.45984 529.507681 
L 141.45984 524.390964 
L 123.60384 524.390964 
L 123.60384 529.507681 
z
" clip-path="url(#p2786d56445)" style="fill: none; stroke: #000000; stroke-linejoin: miter"/>
   </g>
   <g id="patch_112">
    <path d="M 383.23008 497.579367 
L 401.08608 497.579367 
L 401.08608 492.462651 
L 383.23008 492.462651 
L 383.23008 497.579367 
z
" clip-path="url(#p2786d56445)" style="fill: none; stroke: #000000; stroke-linejoin: miter"/>
   </g>
   <g id="patch_113">
    <path d="M 296.80704 118.430648 
L 314.66304 118.430648 
L 314.66304 113.313931 
L 296.80704 113.313931 
L 296.80704 118.430648 
z
" clip-path="url(#p2786d56445)" style="fill: none; stroke: #000000; stroke-linejoin: miter"/>
   </g>
   <g id="patch_114">
    <path d="M 386.44416 609.840136 
L 404.30016 609.840136 
L 404.30016 604.723419 
L 386.44416 604.723419 
L 386.44416 609.840136 
z
" clip-path="url(#p2786d56445)" style="fill: none; stroke: #000000; stroke-linejoin: miter"/>
   </g>
   <g id="patch_115">
    <path d="M 204.1344 286.872967 
L 221.9904 286.872967 
L 221.9904 281.75625 
L 204.1344 281.75625 
L 204.1344 286.872967 
z
" clip-path="url(#p2786d56445)" style="fill: none; stroke: #000000; stroke-linejoin: miter"/>
   </g>
   <g id="patch_116">
    <path d="M 249.48864 560.412651 
L 267.34464 560.412651 
L 267.34464 555.295934 
L 249.48864 555.295934 
L 249.48864 560.412651 
z
" clip-path="url(#p2786d56445)" style="fill: none; stroke: #000000; stroke-linejoin: miter"/>
   </g>
   <g id="patch_117">
    <path d="M 350.37504 238.775828 
L 368.23104 238.775828 
L 368.23104 233.659111 
L 350.37504 233.659111 
L 350.37504 238.775828 
z
" clip-path="url(#p2786d56445)" style="fill: none; stroke: #000000; stroke-linejoin: miter"/>
   </g>
   <g id="patch_118">
    <path d="M 362.51712 449.891566 
L 380.37312 449.891566 
L 380.37312 444.774849 
L 362.51712 444.774849 
L 362.51712 449.891566 
z
" clip-path="url(#p2786d56445)" style="fill: none; stroke: #000000; stroke-linejoin: miter"/>
   </g>
   <g id="patch_119">
    <path d="M 360.55296 562.357003 
L 378.40896 562.357003 
L 378.40896 557.240286 
L 360.55296 557.240286 
L 360.55296 562.357003 
z
" clip-path="url(#p2786d56445)" style="fill: none; stroke: #000000; stroke-linejoin: miter"/>
   </g>
   <g id="patch_120">
    <path d="M 375.90912 415.507229 
L 393.76512 415.507229 
L 393.76512 410.390512 
L 375.90912 410.390512 
L 375.90912 415.507229 
z
" clip-path="url(#p2786d56445)" style="fill: none; stroke: #000000; stroke-linejoin: miter"/>
   </g>
   <g id="patch_121">
    <path d="M 273.23712 538.513102 
L 291.09312 538.513102 
L 291.09312 533.396386 
L 273.23712 533.396386 
L 273.23712 538.513102 
z
" clip-path="url(#p2786d56445)" style="fill: none; stroke: #000000; stroke-linejoin: miter"/>
   </g>
   <g id="patch_122">
    <path d="M 278.05824 569.111069 
L 295.91424 569.111069 
L 295.91424 563.994352 
L 278.05824 563.994352 
L 278.05824 569.111069 
z
" clip-path="url(#p2786d56445)" style="fill: none; stroke: #000000; stroke-linejoin: miter"/>
   </g>
   <g id="patch_123">
    <path d="M 318.94848 487.857605 
L 336.80448 487.857605 
L 336.80448 482.740889 
L 318.94848 482.740889 
L 318.94848 487.857605 
z
" clip-path="url(#p2786d56445)" style="fill: none; stroke: #000000; stroke-linejoin: miter"/>
   </g>
   <g id="patch_124">
    <path d="M 282.16512 209.508208 
L 300.02112 209.508208 
L 300.02112 204.391491 
L 282.16512 204.391491 
L 282.16512 209.508208 
z
" clip-path="url(#p2786d56445)" style="fill: none; stroke: #000000; stroke-linejoin: miter"/>
   </g>
   <g id="patch_125">
    <path d="M 422.69184 446.616867 
L 440.54784 446.616867 
L 440.54784 441.500151 
L 422.69184 441.500151 
L 422.69184 446.616867 
z
" clip-path="url(#p2786d56445)" style="fill: none; stroke: #000000; stroke-linejoin: miter"/>
   </g>
   <g id="patch_126">
    <path d="M 295.55712 130.506099 
L 313.41312 130.506099 
L 313.41312 125.389383 
L 295.55712 125.389383 
L 295.55712 130.506099 
z
" clip-path="url(#p2786d56445)" style="fill: none; stroke: #000000; stroke-linejoin: miter"/>
   </g>
   <g id="patch_127">
    <path d="M 508.04352 290.761672 
L 525.89952 290.761672 
L 525.89952 285.644955 
L 508.04352 285.644955 
L 508.04352 290.761672 
z
" clip-path="url(#p2786d56445)" style="fill: none; stroke: #000000; stroke-linejoin: miter"/>
   </g>
   <g id="patch_128">
    <path d="M 325.19808 110.755572 
L 343.05408 110.755572 
L 343.05408 105.638855 
L 325.19808 105.638855 
L 325.19808 110.755572 
z
" clip-path="url(#p2786d56445)" style="fill: none; stroke: #000000; stroke-linejoin: miter"/>
   </g>
   <g id="patch_129">
    <path d="M 310.02048 579.549172 
L 327.87648 579.549172 
L 327.87648 574.432455 
L 310.02048 574.432455 
L 310.02048 579.549172 
z
" clip-path="url(#p2786d56445)" style="fill: none; stroke: #000000; stroke-linejoin: miter"/>
   </g>
   <g id="patch_130">
    <path d="M 342.69696 525.209639 
L 360.55296 525.209639 
L 360.55296 520.092922 
L 342.69696 520.092922 
L 342.69696 525.209639 
z
" clip-path="url(#p2786d56445)" style="fill: none; stroke: #000000; stroke-linejoin: miter"/>
   </g>
   <g id="matplotlib.axis_1">
    <g id="xtick_1">
     <g id="line2d_1">
      <defs>
       <path id="maeef5a947a" d="M 0 0 
L 0 3.5 
" style="stroke: #000000; stroke-width: 0.8"/>
      </defs>
      <g>
       <use xlink:href="#maeef5a947a" x="143.424" y="630" style="stroke: #000000; stroke-width: 0.8"/>
      </g>
     </g>
     <g id="text_1">
      <!-- 3000 -->
      <g transform="translate(130.699 644.598438)scale(0.1 -0.1)">
       <defs>
        <path id="DejaVuSans-33" d="M 2597 2516 
Q 3050 2419 3304 2112 
Q 3559 1806 3559 1356 
Q 3559 666 3084 287 
Q 2609 -91 1734 -91 
Q 1441 -91 1130 -33 
Q 819 25 488 141 
L 488 750 
Q 750 597 1062 519 
Q 1375 441 1716 441 
Q 2309 441 2620 675 
Q 2931 909 2931 1356 
Q 2931 1769 2642 2001 
Q 2353 2234 1838 2234 
L 1294 2234 
L 1294 2753 
L 1863 2753 
Q 2328 2753 2575 2939 
Q 2822 3125 2822 3475 
Q 2822 3834 2567 4026 
Q 2313 4219 1838 4219 
Q 1578 4219 1281 4162 
Q 984 4106 628 3988 
L 628 4550 
Q 988 4650 1302 4700 
Q 1616 4750 1894 4750 
Q 2613 4750 3031 4423 
Q 3450 4097 3450 3541 
Q 3450 3153 3228 2886 
Q 3006 2619 2597 2516 
z
" transform="scale(0.015625)"/>
        <path id="DejaVuSans-30" d="M 2034 4250 
Q 1547 4250 1301 3770 
Q 1056 3291 1056 2328 
Q 1056 1369 1301 889 
Q 1547 409 2034 409 
Q 2525 409 2770 889 
Q 3016 1369 3016 2328 
Q 3016 3291 2770 3770 
Q 2525 4250 2034 4250 
z
M 2034 4750 
Q 2819 4750 3233 4129 
Q 3647 3509 3647 2328 
Q 3647 1150 3233 529 
Q 2819 -91 2034 -91 
Q 1250 -91 836 529 
Q 422 1150 422 2328 
Q 422 3509 836 4129 
Q 1250 4750 2034 4750 
z
" transform="scale(0.015625)"/>
       </defs>
       <use xlink:href="#DejaVuSans-33"/>
       <use xlink:href="#DejaVuSans-30" x="63.623047"/>
       <use xlink:href="#DejaVuSans-30" x="127.246094"/>
       <use xlink:href="#DejaVuSans-30" x="190.869141"/>
      </g>
     </g>
    </g>
    <g id="xtick_2">
     <g id="line2d_2">
      <g>
       <use xlink:href="#maeef5a947a" x="232.704" y="630" style="stroke: #000000; stroke-width: 0.8"/>
      </g>
     </g>
     <g id="text_2">
      <!-- 3500 -->
      <g transform="translate(219.979 644.598438)scale(0.1 -0.1)">
       <defs>
        <path id="DejaVuSans-35" d="M 691 4666 
L 3169 4666 
L 3169 4134 
L 1269 4134 
L 1269 2991 
Q 1406 3038 1543 3061 
Q 1681 3084 1819 3084 
Q 2600 3084 3056 2656 
Q 3513 2228 3513 1497 
Q 3513 744 3044 326 
Q 2575 -91 1722 -91 
Q 1428 -91 1123 -41 
Q 819 9 494 109 
L 494 744 
Q 775 591 1075 516 
Q 1375 441 1709 441 
Q 2250 441 2565 725 
Q 2881 1009 2881 1497 
Q 2881 1984 2565 2268 
Q 2250 2553 1709 2553 
Q 1456 2553 1204 2497 
Q 953 2441 691 2322 
L 691 4666 
z
" transform="scale(0.015625)"/>
       </defs>
       <use xlink:href="#DejaVuSans-33"/>
       <use xlink:href="#DejaVuSans-35" x="63.623047"/>
       <use xlink:href="#DejaVuSans-30" x="127.246094"/>
       <use xlink:href="#DejaVuSans-30" x="190.869141"/>
      </g>
     </g>
    </g>
    <g id="xtick_3">
     <g id="line2d_3">
      <g>
       <use xlink:href="#maeef5a947a" x="321.984" y="630" style="stroke: #000000; stroke-width: 0.8"/>
      </g>
     </g>
     <g id="text_3">
      <!-- 4000 -->
      <g transform="translate(309.259 644.598438)scale(0.1 -0.1)">
       <defs>
        <path id="DejaVuSans-34" d="M 2419 4116 
L 825 1625 
L 2419 1625 
L 2419 4116 
z
M 2253 4666 
L 3047 4666 
L 3047 1625 
L 3713 1625 
L 3713 1100 
L 3047 1100 
L 3047 0 
L 2419 0 
L 2419 1100 
L 313 1100 
L 313 1709 
L 2253 4666 
z
" transform="scale(0.015625)"/>
       </defs>
       <use xlink:href="#DejaVuSans-34"/>
       <use xlink:href="#DejaVuSans-30" x="63.623047"/>
       <use xlink:href="#DejaVuSans-30" x="127.246094"/>
       <use xlink:href="#DejaVuSans-30" x="190.869141"/>
      </g>
     </g>
    </g>
    <g id="xtick_4">
     <g id="line2d_4">
      <g>
       <use xlink:href="#maeef5a947a" x="411.264" y="630" style="stroke: #000000; stroke-width: 0.8"/>
      </g>
     </g>
     <g id="text_4">
      <!-- 4500 -->
      <g transform="translate(398.539 644.598438)scale(0.1 -0.1)">
       <use xlink:href="#DejaVuSans-34"/>
       <use xlink:href="#DejaVuSans-35" x="63.623047"/>
       <use xlink:href="#DejaVuSans-30" x="127.246094"/>
       <use xlink:href="#DejaVuSans-30" x="190.869141"/>
      </g>
     </g>
    </g>
    <g id="xtick_5">
     <g id="line2d_5">
      <g>
       <use xlink:href="#maeef5a947a" x="500.544" y="630" style="stroke: #000000; stroke-width: 0.8"/>
      </g>
     </g>
     <g id="text_5">
      <!-- 5000 -->
      <g transform="translate(487.819 644.598438)scale(0.1 -0.1)">
       <use xlink:href="#DejaVuSans-35"/>
       <use xlink:href="#DejaVuSans-30" x="63.623047"/>
       <use xlink:href="#DejaVuSans-30" x="127.246094"/>
       <use xlink:href="#DejaVuSans-30" x="190.869141"/>
      </g>
     </g>
    </g>
   </g>
   <g id="matplotlib.axis_2">
    <g id="ytick_1">
     <g id="line2d_6">
      <defs>
       <path id="m6867b10e66" d="M 0 0 
L -3.5 0 
" style="stroke: #000000; stroke-width: 0.8"/>
      </defs>
      <g>
       <use xlink:href="#m6867b10e66" x="72" y="537.899096" style="stroke: #000000; stroke-width: 0.8"/>
      </g>
     </g>
     <g id="text_6">
      <!-- 8000 -->
      <g transform="translate(39.55 541.698315)scale(0.1 -0.1)">
       <defs>
        <path id="DejaVuSans-38" d="M 2034 2216 
Q 1584 2216 1326 1975 
Q 1069 1734 1069 1313 
Q 1069 891 1326 650 
Q 1584 409 2034 409 
Q 2484 409 2743 651 
Q 3003 894 3003 1313 
Q 3003 1734 2745 1975 
Q 2488 2216 2034 2216 
z
M 1403 2484 
Q 997 2584 770 2862 
Q 544 3141 544 3541 
Q 544 4100 942 4425 
Q 1341 4750 2034 4750 
Q 2731 4750 3128 4425 
Q 3525 4100 3525 3541 
Q 3525 3141 3298 2862 
Q 3072 2584 2669 2484 
Q 3125 2378 3379 2068 
Q 3634 1759 3634 1313 
Q 3634 634 3220 271 
Q 2806 -91 2034 -91 
Q 1263 -91 848 271 
Q 434 634 434 1313 
Q 434 1759 690 2068 
Q 947 2378 1403 2484 
z
M 1172 3481 
Q 1172 3119 1398 2916 
Q 1625 2713 2034 2713 
Q 2441 2713 2670 2916 
Q 2900 3119 2900 3481 
Q 2900 3844 2670 4047 
Q 2441 4250 2034 4250 
Q 1625 4250 1398 4047 
Q 1172 3844 1172 3481 
z
" transform="scale(0.015625)"/>
       </defs>
       <use xlink:href="#DejaVuSans-38"/>
       <use xlink:href="#DejaVuSans-30" x="63.623047"/>
       <use xlink:href="#DejaVuSans-30" x="127.246094"/>
       <use xlink:href="#DejaVuSans-30" x="190.869141"/>
      </g>
     </g>
    </g>
    <g id="ytick_2">
     <g id="line2d_7">
      <g>
       <use xlink:href="#m6867b10e66" x="72" y="435.564759" style="stroke: #000000; stroke-width: 0.8"/>
      </g>
     </g>
     <g id="text_7">
      <!-- 9000 -->
      <g transform="translate(39.55 439.363978)scale(0.1 -0.1)">
       <defs>
        <path id="DejaVuSans-39" d="M 703 97 
L 703 672 
Q 941 559 1184 500 
Q 1428 441 1663 441 
Q 2288 441 2617 861 
Q 2947 1281 2994 2138 
Q 2813 1869 2534 1725 
Q 2256 1581 1919 1581 
Q 1219 1581 811 2004 
Q 403 2428 403 3163 
Q 403 3881 828 4315 
Q 1253 4750 1959 4750 
Q 2769 4750 3195 4129 
Q 3622 3509 3622 2328 
Q 3622 1225 3098 567 
Q 2575 -91 1691 -91 
Q 1453 -91 1209 -44 
Q 966 3 703 97 
z
M 1959 2075 
Q 2384 2075 2632 2365 
Q 2881 2656 2881 3163 
Q 2881 3666 2632 3958 
Q 2384 4250 1959 4250 
Q 1534 4250 1286 3958 
Q 1038 3666 1038 3163 
Q 1038 2656 1286 2365 
Q 1534 2075 1959 2075 
z
" transform="scale(0.015625)"/>
       </defs>
       <use xlink:href="#DejaVuSans-39"/>
       <use xlink:href="#DejaVuSans-30" x="63.623047"/>
       <use xlink:href="#DejaVuSans-30" x="127.246094"/>
       <use xlink:href="#DejaVuSans-30" x="190.869141"/>
      </g>
     </g>
    </g>
    <g id="ytick_3">
     <g id="line2d_8">
      <g>
       <use xlink:href="#m6867b10e66" x="72" y="333.230422" style="stroke: #000000; stroke-width: 0.8"/>
      </g>
     </g>
     <g id="text_8">
      <!-- 10000 -->
      <g transform="translate(33.1875 337.02964)scale(0.1 -0.1)">
       <defs>
        <path id="DejaVuSans-31" d="M 794 531 
L 1825 531 
L 1825 4091 
L 703 3866 
L 703 4441 
L 1819 4666 
L 2450 4666 
L 2450 531 
L 3481 531 
L 3481 0 
L 794 0 
L 794 531 
z
" transform="scale(0.015625)"/>
       </defs>
       <use xlink:href="#DejaVuSans-31"/>
       <use xlink:href="#DejaVuSans-30" x="63.623047"/>
       <use xlink:href="#DejaVuSans-30" x="127.246094"/>
       <use xlink:href="#DejaVuSans-30" x="190.869141"/>
       <use xlink:href="#DejaVuSans-30" x="254.492188"/>
      </g>
     </g>
    </g>
    <g id="ytick_4">
     <g id="line2d_9">
      <g>
       <use xlink:href="#m6867b10e66" x="72" y="230.896084" style="stroke: #000000; stroke-width: 0.8"/>
      </g>
     </g>
     <g id="text_9">
      <!-- 11000 -->
      <g transform="translate(33.1875 234.695303)scale(0.1 -0.1)">
       <use xlink:href="#DejaVuSans-31"/>
       <use xlink:href="#DejaVuSans-31" x="63.623047"/>
       <use xlink:href="#DejaVuSans-30" x="127.246094"/>
       <use xlink:href="#DejaVuSans-30" x="190.869141"/>
       <use xlink:href="#DejaVuSans-30" x="254.492188"/>
      </g>
     </g>
    </g>
    <g id="ytick_5">
     <g id="line2d_10">
      <g>
       <use xlink:href="#m6867b10e66" x="72" y="128.561747" style="stroke: #000000; stroke-width: 0.8"/>
      </g>
     </g>
     <g id="text_10">
      <!-- 12000 -->
      <g transform="translate(33.1875 132.360966)scale(0.1 -0.1)">
       <defs>
        <path id="DejaVuSans-32" d="M 1228 531 
L 3431 531 
L 3431 0 
L 469 0 
L 469 531 
Q 828 903 1448 1529 
Q 2069 2156 2228 2338 
Q 2531 2678 2651 2914 
Q 2772 3150 2772 3378 
Q 2772 3750 2511 3984 
Q 2250 4219 1831 4219 
Q 1534 4219 1204 4116 
Q 875 4013 500 3803 
L 500 4441 
Q 881 4594 1212 4672 
Q 1544 4750 1819 4750 
Q 2544 4750 2975 4387 
Q 3406 4025 3406 3419 
Q 3406 3131 3298 2873 
Q 3191 2616 2906 2266 
Q 2828 2175 2409 1742 
Q 1991 1309 1228 531 
z
" transform="scale(0.015625)"/>
       </defs>
       <use xlink:href="#DejaVuSans-31"/>
       <use xlink:href="#DejaVuSans-32" x="63.623047"/>
       <use xlink:href="#DejaVuSans-30" x="127.246094"/>
       <use xlink:href="#DejaVuSans-30" x="190.869141"/>
       <use xlink:href="#DejaVuSans-30" x="254.492188"/>
      </g>
     </g>
    </g>
   </g>
   <g id="patch_131">
    <path d="M 72 630 
L 72 86.4 
" style="fill: none; stroke: #000000; stroke-width: 0.8; stroke-linejoin: miter; stroke-linecap: square"/>
   </g>
   <g id="patch_132">
    <path d="M 518.4 630 
L 518.4 86.4 
" style="fill: none; stroke: #000000; stroke-width: 0.8; stroke-linejoin: miter; stroke-linecap: square"/>
   </g>
   <g id="patch_133">
    <path d="M 72 630 
L 518.4 630 
" style="fill: none; stroke: #000000; stroke-width: 0.8; stroke-linejoin: miter; stroke-linecap: square"/>
   </g>
   <g id="patch_134">
    <path d="M 72 86.4 
L 518.4 86.4 
" style="fill: none; stroke: #000000; stroke-width: 0.8; stroke-linejoin: miter; stroke-linecap: square"/>
   </g>
  </g>
 </g>
 <defs>
  <clipPath id="p2786d56445">
   <rect x="72" y="86.4" width="446.4" height="543.6"/>
  </clipPath>
 </defs>
</svg>
