<?xml version="1.0" encoding="utf-8" standalone="no"?>
<!DOCTYPE svg PUBLIC "-//W3C//DTD SVG 1.1//EN"
  "http://www.w3.org/Graphics/SVG/1.1/DTD/svg11.dtd">
<svg xmlns:xlink="http://www.w3.org/1999/xlink" width="1152pt" height="648pt" viewBox="0 0 1152 648" xmlns="http://www.w3.org/2000/svg" version="1.1">
 <metadata>
  <rdf:RDF xmlns:dc="http://purl.org/dc/elements/1.1/" xmlns:cc="http://creativecommons.org/ns#" xmlns:rdf="http://www.w3.org/1999/02/22-rdf-syntax-ns#">
   <cc:Work>
    <dc:type rdf:resource="http://purl.org/dc/dcmitype/StillImage"/>
    <dc:date>2022-05-05T15:04:29.347154</dc:date>
    <dc:format>image/svg+xml</dc:format>
    <dc:creator>
     <cc:Agent>
      <dc:title>Matplotlib v3.5.1, https://matplotlib.org/</dc:title>
     </cc:Agent>
    </dc:creator>
   </cc:Work>
  </rdf:RDF>
 </metadata>
 <defs>
  <style type="text/css">*{stroke-linejoin: round; stroke-linecap: butt}</style>
 </defs>
 <g id="figure_1">
  <g id="patch_1">
   <path d="M 0 648 
L 1152 648 
L 1152 0 
L 0 0 
L 0 648 
z
" style="fill: none"/>
  </g>
  <g id="axes_1"/>
  <g id="axes_2">
   <g id="patch_2">
    <path d="M 144 567 
L 1036.8 567 
L 1036.8 77.76 
L 144 77.76 
z
" style="fill: #ffffff"/>
   </g>
   <g id="patch_3">
    <path d="M 657.36 473.74663 
L 689.245714 473.74663 
L 689.245714 469.744339 
L 657.36 469.744339 
L 657.36 473.74663 
z
" clip-path="url(#p9fcf11f4d4)" style="fill: none; stroke: #000000; stroke-linejoin: miter"/>
   </g>
   <g id="patch_4">
    <path d="M 714.116571 343.752232 
L 746.002286 343.752232 
L 746.002286 339.749941 
L 714.116571 339.749941 
L 714.116571 343.752232 
z
" clip-path="url(#p9fcf11f4d4)" style="fill: none; stroke: #000000; stroke-linejoin: miter"/>
   </g>
   <g id="patch_5">
    <path d="M 864.617143 154.684025 
L 896.502857 154.684025 
L 896.502857 150.681734 
L 864.617143 150.681734 
L 864.617143 154.684025 
z
" clip-path="url(#p9fcf11f4d4)" style="fill: none; stroke: #000000; stroke-linejoin: miter"/>
   </g>
   <g id="patch_6">
    <path d="M 694.666286 544.587173 
L 726.552 544.587173 
L 726.552 540.584882 
L 694.666286 540.584882 
L 694.666286 544.587173 
z
" clip-path="url(#p9fcf11f4d4)" style="fill: none; stroke: #000000; stroke-linejoin: miter"/>
   </g>
   <g id="patch_7">
    <path d="M 769.916571 400.744849 
L 801.802286 400.744849 
L 801.802286 396.742559 
L 769.916571 396.742559 
L 769.916571 400.744849 
z
" clip-path="url(#p9fcf11f4d4)" style="fill: none; stroke: #000000; stroke-linejoin: miter"/>
   </g>
   <g id="patch_8">
    <path d="M 529.817143 476.948462 
L 561.702857 476.948462 
L 561.702857 472.946171 
L 529.817143 472.946171 
L 529.817143 476.948462 
z
" clip-path="url(#p9fcf11f4d4)" style="fill: none; stroke: #000000; stroke-linejoin: miter"/>
   </g>
   <g id="patch_9">
    <path d="M 937.316571 341.671041 
L 969.202286 341.671041 
L 969.202286 337.66875 
L 937.316571 337.66875 
L 937.316571 341.671041 
z
" clip-path="url(#p9fcf11f4d4)" style="fill: none; stroke: #000000; stroke-linejoin: miter"/>
   </g>
   <g id="patch_10">
    <path d="M 628.344 493.678037 
L 660.229714 493.678037 
L 660.229714 489.675746 
L 628.344 489.675746 
L 628.344 493.678037 
z
" clip-path="url(#p9fcf11f4d4)" style="fill: none; stroke: #000000; stroke-linejoin: miter"/>
   </g>
   <g id="patch_11">
    <path d="M 438.624 499.601427 
L 470.509714 499.601427 
L 470.509714 495.599136 
L 438.624 495.599136 
L 438.624 499.601427 
z
" clip-path="url(#p9fcf11f4d4)" style="fill: none; stroke: #000000; stroke-linejoin: miter"/>
   </g>
   <g id="patch_12">
    <path d="M 646.2 514.569993 
L 678.085714 514.569993 
L 678.085714 510.567703 
L 646.2 510.567703 
L 646.2 514.569993 
z
" clip-path="url(#p9fcf11f4d4)" style="fill: none; stroke: #000000; stroke-linejoin: miter"/>
   </g>
   <g id="patch_13">
    <path d="M 882.154286 289.881401 
L 914.04 289.881401 
L 914.04 285.87911 
L 882.154286 285.87911 
L 882.154286 289.881401 
z
" clip-path="url(#p9fcf11f4d4)" style="fill: none; stroke: #000000; stroke-linejoin: miter"/>
   </g>
   <g id="patch_14">
    <path d="M 662.142857 502.963351 
L 694.028571 502.963351 
L 694.028571 498.96106 
L 662.142857 498.96106 
L 662.142857 502.963351 
z
" clip-path="url(#p9fcf11f4d4)" style="fill: none; stroke: #000000; stroke-linejoin: miter"/>
   </g>
   <g id="patch_15">
    <path d="M 580.196571 460.699162 
L 612.082286 460.699162 
L 612.082286 456.696872 
L 580.196571 456.696872 
L 580.196571 460.699162 
z
" clip-path="url(#p9fcf11f4d4)" style="fill: none; stroke: #000000; stroke-linejoin: miter"/>
   </g>
   <g id="patch_16">
    <path d="M 459.668571 330.944902 
L 491.554286 330.944902 
L 491.554286 326.942611 
L 459.668571 326.942611 
L 459.668571 330.944902 
z
" clip-path="url(#p9fcf11f4d4)" style="fill: none; stroke: #000000; stroke-linejoin: miter"/>
   </g>
   <g id="patch_17">
    <path d="M 548.629714 340.15017 
L 580.515429 340.15017 
L 580.515429 336.14788 
L 548.629714 336.14788 
L 548.629714 340.15017 
z
" clip-path="url(#p9fcf11f4d4)" style="fill: none; stroke: #000000; stroke-linejoin: miter"/>
   </g>
   <g id="patch_18">
    <path d="M 656.403429 473.186309 
L 688.289143 473.186309 
L 688.289143 469.184018 
L 656.403429 469.184018 
L 656.403429 473.186309 
z
" clip-path="url(#p9fcf11f4d4)" style="fill: none; stroke: #000000; stroke-linejoin: miter"/>
   </g>
   <g id="patch_19">
    <path d="M 230.729143 482.551669 
L 262.614857 482.551669 
L 262.614857 478.549378 
L 230.729143 478.549378 
L 230.729143 482.551669 
z
" clip-path="url(#p9fcf11f4d4)" style="fill: none; stroke: #000000; stroke-linejoin: miter"/>
   </g>
   <g id="patch_20">
    <path d="M 890.763429 160.207186 
L 922.649143 160.207186 
L 922.649143 156.204895 
L 890.763429 156.204895 
L 890.763429 160.207186 
z
" clip-path="url(#p9fcf11f4d4)" style="fill: none; stroke: #000000; stroke-linejoin: miter"/>
   </g>
   <g id="patch_21">
    <path d="M 699.449143 139.635412 
L 731.334857 139.635412 
L 731.334857 135.633122 
L 699.449143 135.633122 
L 699.449143 139.635412 
z
" clip-path="url(#p9fcf11f4d4)" style="fill: none; stroke: #000000; stroke-linejoin: miter"/>
   </g>
   <g id="patch_22">
    <path d="M 374.214857 460.138842 
L 406.100571 460.138842 
L 406.100571 456.136551 
L 374.214857 456.136551 
L 374.214857 460.138842 
z
" clip-path="url(#p9fcf11f4d4)" style="fill: none; stroke: #000000; stroke-linejoin: miter"/>
   </g>
   <g id="patch_23">
    <path d="M 780.438857 401.785445 
L 812.324571 401.785445 
L 812.324571 397.783154 
L 780.438857 397.783154 
L 780.438857 401.785445 
z
" clip-path="url(#p9fcf11f4d4)" style="fill: none; stroke: #000000; stroke-linejoin: miter"/>
   </g>
   <g id="patch_24">
    <path d="M 729.421714 416.273737 
L 761.307429 416.273737 
L 761.307429 412.271446 
L 729.421714 412.271446 
L 729.421714 416.273737 
z
" clip-path="url(#p9fcf11f4d4)" style="fill: none; stroke: #000000; stroke-linejoin: miter"/>
   </g>
   <g id="patch_25">
    <path d="M 778.525714 345.993514 
L 810.411429 345.993514 
L 810.411429 341.991224 
L 778.525714 341.991224 
L 778.525714 345.993514 
z
" clip-path="url(#p9fcf11f4d4)" style="fill: none; stroke: #000000; stroke-linejoin: miter"/>
   </g>
   <g id="patch_26">
    <path d="M 781.076571 515.610589 
L 812.962286 515.610589 
L 812.962286 511.608298 
L 781.076571 511.608298 
L 781.076571 515.610589 
z
" clip-path="url(#p9fcf11f4d4)" style="fill: none; stroke: #000000; stroke-linejoin: miter"/>
   </g>
   <g id="patch_27">
    <path d="M 733.885714 380.173076 
L 765.771429 380.173076 
L 765.771429 376.170785 
L 733.885714 376.170785 
L 733.885714 380.173076 
z
" clip-path="url(#p9fcf11f4d4)" style="fill: none; stroke: #000000; stroke-linejoin: miter"/>
   </g>
   <g id="patch_28">
    <path d="M 703.594286 534.581446 
L 735.48 534.581446 
L 735.48 530.579156 
L 703.594286 530.579156 
L 703.594286 534.581446 
z
" clip-path="url(#p9fcf11f4d4)" style="fill: none; stroke: #000000; stroke-linejoin: miter"/>
   </g>
   <g id="patch_29">
    <path d="M 586.892571 506.725504 
L 618.778286 506.725504 
L 618.778286 502.723213 
L 586.892571 502.723213 
L 586.892571 506.725504 
z
" clip-path="url(#p9fcf11f4d4)" style="fill: none; stroke: #000000; stroke-linejoin: miter"/>
   </g>
   <g id="patch_30">
    <path d="M 713.16 485.833547 
L 745.045714 485.833547 
L 745.045714 481.831257 
L 713.16 481.831257 
L 713.16 485.833547 
z
" clip-path="url(#p9fcf11f4d4)" style="fill: none; stroke: #000000; stroke-linejoin: miter"/>
   </g>
   <g id="patch_31">
    <path d="M 815.832 176.136302 
L 847.717714 176.136302 
L 847.717714 172.134012 
L 815.832 172.134012 
L 815.832 176.136302 
z
" clip-path="url(#p9fcf11f4d4)" style="fill: none; stroke: #000000; stroke-linejoin: miter"/>
   </g>
   <g id="patch_32">
    <path d="M 352.851429 341.751086 
L 384.737143 341.751086 
L 384.737143 337.748796 
L 352.851429 337.748796 
L 352.851429 341.751086 
z
" clip-path="url(#p9fcf11f4d4)" style="fill: none; stroke: #000000; stroke-linejoin: miter"/>
   </g>
   <g id="patch_33">
    <path d="M 612.082286 422.677402 
L 643.968 422.677402 
L 643.968 418.675111 
L 612.082286 418.675111 
L 612.082286 422.677402 
z
" clip-path="url(#p9fcf11f4d4)" style="fill: none; stroke: #000000; stroke-linejoin: miter"/>
   </g>
   <g id="patch_34">
    <path d="M 297.370286 342.791682 
L 329.256 342.791682 
L 329.256 338.789391 
L 297.370286 338.789391 
L 297.370286 342.791682 
z
" clip-path="url(#p9fcf11f4d4)" style="fill: none; stroke: #000000; stroke-linejoin: miter"/>
   </g>
   <g id="patch_35">
    <path d="M 410.245714 391.859764 
L 442.131429 391.859764 
L 442.131429 387.857474 
L 410.245714 387.857474 
L 410.245714 391.859764 
z
" clip-path="url(#p9fcf11f4d4)" style="fill: none; stroke: #000000; stroke-linejoin: miter"/>
   </g>
   <g id="patch_36">
    <path d="M 917.866286 137.794359 
L 949.752 137.794359 
L 949.752 133.792068 
L 917.866286 133.792068 
L 917.866286 137.794359 
z
" clip-path="url(#p9fcf11f4d4)" style="fill: none; stroke: #000000; stroke-linejoin: miter"/>
   </g>
   <g id="patch_37">
    <path d="M 874.820571 338.789391 
L 906.706286 338.789391 
L 906.706286 334.787101 
L 874.820571 334.787101 
L 874.820571 338.789391 
z
" clip-path="url(#p9fcf11f4d4)" style="fill: none; stroke: #000000; stroke-linejoin: miter"/>
   </g>
   <g id="patch_38">
    <path d="M 329.893714 456.696872 
L 361.779429 456.696872 
L 361.779429 452.694581 
L 329.893714 452.694581 
L 329.893714 456.696872 
z
" clip-path="url(#p9fcf11f4d4)" style="fill: none; stroke: #000000; stroke-linejoin: miter"/>
   </g>
   <g id="patch_39">
    <path d="M 753.336 517.131459 
L 785.221714 517.131459 
L 785.221714 513.129169 
L 753.336 513.129169 
L 753.336 517.131459 
z
" clip-path="url(#p9fcf11f4d4)" style="fill: none; stroke: #000000; stroke-linejoin: miter"/>
   </g>
   <g id="patch_40">
    <path d="M 650.982857 481.110844 
L 682.868571 481.110844 
L 682.868571 477.108554 
L 650.982857 477.108554 
L 650.982857 481.110844 
z
" clip-path="url(#p9fcf11f4d4)" style="fill: none; stroke: #000000; stroke-linejoin: miter"/>
   </g>
   <g id="patch_41">
    <path d="M 378.36 356.479516 
L 410.245714 356.479516 
L 410.245714 352.477225 
L 378.36 352.477225 
L 378.36 356.479516 
z
" clip-path="url(#p9fcf11f4d4)" style="fill: none; stroke: #000000; stroke-linejoin: miter"/>
   </g>
   <g id="patch_42">
    <path d="M 703.913143 207.033986 
L 735.798857 207.033986 
L 735.798857 203.031695 
L 703.913143 203.031695 
L 703.913143 207.033986 
z
" clip-path="url(#p9fcf11f4d4)" style="fill: none; stroke: #000000; stroke-linejoin: miter"/>
   </g>
   <g id="patch_43">
    <path d="M 405.781714 422.357219 
L 437.667429 422.357219 
L 437.667429 418.354928 
L 405.781714 418.354928 
L 405.781714 422.357219 
z
" clip-path="url(#p9fcf11f4d4)" style="fill: none; stroke: #000000; stroke-linejoin: miter"/>
   </g>
   <g id="patch_44">
    <path d="M 471.147429 413.231996 
L 503.033143 413.231996 
L 503.033143 409.229705 
L 471.147429 409.229705 
L 471.147429 413.231996 
z
" clip-path="url(#p9fcf11f4d4)" style="fill: none; stroke: #000000; stroke-linejoin: miter"/>
   </g>
   <g id="patch_45">
    <path d="M 531.730286 351.596721 
L 563.616 351.596721 
L 563.616 347.594431 
L 531.730286 347.594431 
L 531.730286 351.596721 
z
" clip-path="url(#p9fcf11f4d4)" style="fill: none; stroke: #000000; stroke-linejoin: miter"/>
   </g>
   <g id="patch_46">
    <path d="M 374.214857 231.047729 
L 406.100571 231.047729 
L 406.100571 227.045438 
L 374.214857 227.045438 
L 374.214857 231.047729 
z
" clip-path="url(#p9fcf11f4d4)" style="fill: none; stroke: #000000; stroke-linejoin: miter"/>
   </g>
   <g id="patch_47">
    <path d="M 563.934857 282.757323 
L 595.820571 282.757323 
L 595.820571 278.755033 
L 563.934857 278.755033 
L 563.934857 282.757323 
z
" clip-path="url(#p9fcf11f4d4)" style="fill: none; stroke: #000000; stroke-linejoin: miter"/>
   </g>
   <g id="patch_48">
    <path d="M 629.619429 520.813567 
L 661.505143 520.813567 
L 661.505143 516.811276 
L 629.619429 516.811276 
L 629.619429 520.813567 
z
" clip-path="url(#p9fcf11f4d4)" style="fill: none; stroke: #000000; stroke-linejoin: miter"/>
   </g>
   <g id="patch_49">
    <path d="M 774.061714 437.886106 
L 805.947429 437.886106 
L 805.947429 433.883815 
L 774.061714 433.883815 
L 774.061714 437.886106 
z
" clip-path="url(#p9fcf11f4d4)" style="fill: none; stroke: #000000; stroke-linejoin: miter"/>
   </g>
   <g id="patch_50">
    <path d="M 738.668571 483.912448 
L 770.554286 483.912448 
L 770.554286 479.910157 
L 738.668571 479.910157 
L 738.668571 483.912448 
z
" clip-path="url(#p9fcf11f4d4)" style="fill: none; stroke: #000000; stroke-linejoin: miter"/>
   </g>
   <g id="patch_51">
    <path d="M 623.88 357.520111 
L 655.765714 357.520111 
L 655.765714 353.517821 
L 623.88 353.517821 
L 623.88 357.520111 
z
" clip-path="url(#p9fcf11f4d4)" style="fill: none; stroke: #000000; stroke-linejoin: miter"/>
   </g>
   <g id="patch_52">
    <path d="M 674.897143 450.61339 
L 706.782857 450.61339 
L 706.782857 446.611099 
L 674.897143 446.611099 
L 674.897143 450.61339 
z
" clip-path="url(#p9fcf11f4d4)" style="fill: none; stroke: #000000; stroke-linejoin: miter"/>
   </g>
   <g id="patch_53">
    <path d="M 412.796571 366.485242 
L 444.682286 366.485242 
L 444.682286 362.482952 
L 412.796571 362.482952 
L 412.796571 366.485242 
z
" clip-path="url(#p9fcf11f4d4)" style="fill: none; stroke: #000000; stroke-linejoin: miter"/>
   </g>
   <g id="patch_54">
    <path d="M 637.272 419.635661 
L 669.157714 419.635661 
L 669.157714 415.63337 
L 637.272 415.63337 
L 637.272 419.635661 
z
" clip-path="url(#p9fcf11f4d4)" style="fill: none; stroke: #000000; stroke-linejoin: miter"/>
   </g>
   <g id="patch_55">
    <path d="M 269.948571 463.340674 
L 301.834286 463.340674 
L 301.834286 459.338384 
L 269.948571 459.338384 
L 269.948571 463.340674 
z
" clip-path="url(#p9fcf11f4d4)" style="fill: none; stroke: #000000; stroke-linejoin: miter"/>
   </g>
   <g id="patch_56">
    <path d="M 349.662857 448.692291 
L 381.548571 448.692291 
L 381.548571 444.69 
L 349.662857 444.69 
L 349.662857 448.692291 
z
" clip-path="url(#p9fcf11f4d4)" style="fill: none; stroke: #000000; stroke-linejoin: miter"/>
   </g>
   <g id="patch_57">
    <path d="M 885.024 139.315229 
L 916.909714 139.315229 
L 916.909714 135.312938 
L 885.024 135.312938 
L 885.024 139.315229 
z
" clip-path="url(#p9fcf11f4d4)" style="fill: none; stroke: #000000; stroke-linejoin: miter"/>
   </g>
   <g id="patch_58">
    <path d="M 751.422857 513.769535 
L 783.308571 513.769535 
L 783.308571 509.767245 
L 751.422857 509.767245 
L 751.422857 513.769535 
z
" clip-path="url(#p9fcf11f4d4)" style="fill: none; stroke: #000000; stroke-linejoin: miter"/>
   </g>
   <g id="patch_59">
    <path d="M 386.331429 460.218887 
L 418.217143 460.218887 
L 418.217143 456.216597 
L 386.331429 456.216597 
L 386.331429 460.218887 
z
" clip-path="url(#p9fcf11f4d4)" style="fill: none; stroke: #000000; stroke-linejoin: miter"/>
   </g>
   <g id="patch_60">
    <path d="M 428.420571 476.148004 
L 460.306286 476.148004 
L 460.306286 472.145713 
L 428.420571 472.145713 
L 428.420571 476.148004 
z
" clip-path="url(#p9fcf11f4d4)" style="fill: none; stroke: #000000; stroke-linejoin: miter"/>
   </g>
   <g id="patch_61">
    <path d="M 653.852571 521.453933 
L 685.738286 521.453933 
L 685.738286 517.451643 
L 653.852571 517.451643 
L 653.852571 521.453933 
z
" clip-path="url(#p9fcf11f4d4)" style="fill: none; stroke: #000000; stroke-linejoin: miter"/>
   </g>
   <g id="patch_62">
    <path d="M 589.124571 148.440452 
L 621.010286 148.440452 
L 621.010286 144.438161 
L 589.124571 144.438161 
L 589.124571 148.440452 
z
" clip-path="url(#p9fcf11f4d4)" style="fill: none; stroke: #000000; stroke-linejoin: miter"/>
   </g>
   <g id="patch_63">
    <path d="M 766.409143 406.348056 
L 798.294857 406.348056 
L 798.294857 402.345766 
L 766.409143 402.345766 
L 766.409143 406.348056 
z
" clip-path="url(#p9fcf11f4d4)" style="fill: none; stroke: #000000; stroke-linejoin: miter"/>
   </g>
   <g id="patch_64">
    <path d="M 633.764571 473.986767 
L 665.650286 473.986767 
L 665.650286 469.984476 
L 633.764571 469.984476 
L 633.764571 473.986767 
z
" clip-path="url(#p9fcf11f4d4)" style="fill: none; stroke: #000000; stroke-linejoin: miter"/>
   </g>
   <g id="patch_65">
    <path d="M 673.940571 297.085524 
L 705.826286 297.085524 
L 705.826286 293.083233 
L 673.940571 293.083233 
L 673.940571 297.085524 
z
" clip-path="url(#p9fcf11f4d4)" style="fill: none; stroke: #000000; stroke-linejoin: miter"/>
   </g>
   <g id="patch_66">
    <path d="M 595.182857 490.396158 
L 627.068571 490.396158 
L 627.068571 486.393868 
L 595.182857 486.393868 
L 595.182857 490.396158 
z
" clip-path="url(#p9fcf11f4d4)" style="fill: none; stroke: #000000; stroke-linejoin: miter"/>
   </g>
   <g id="patch_67">
    <path d="M 619.734857 452.454444 
L 651.620571 452.454444 
L 651.620571 448.452153 
L 619.734857 448.452153 
L 619.734857 452.454444 
z
" clip-path="url(#p9fcf11f4d4)" style="fill: none; stroke: #000000; stroke-linejoin: miter"/>
   </g>
   <g id="patch_68">
    <path d="M 565.529143 372.568724 
L 597.414857 372.568724 
L 597.414857 368.566433 
L 565.529143 368.566433 
L 565.529143 372.568724 
z
" clip-path="url(#p9fcf11f4d4)" style="fill: none; stroke: #000000; stroke-linejoin: miter"/>
   </g>
   <g id="patch_69">
    <path d="M 721.131429 538.263554 
L 753.017143 538.263554 
L 753.017143 534.261263 
L 721.131429 534.261263 
L 721.131429 538.263554 
z
" clip-path="url(#p9fcf11f4d4)" style="fill: none; stroke: #000000; stroke-linejoin: miter"/>
   </g>
   <g id="patch_70">
    <path d="M 615.908571 405.70769 
L 647.794286 405.70769 
L 647.794286 401.705399 
L 615.908571 401.705399 
L 615.908571 405.70769 
z
" clip-path="url(#p9fcf11f4d4)" style="fill: none; stroke: #000000; stroke-linejoin: miter"/>
   </g>
   <g id="patch_71">
    <path d="M 898.734857 179.498226 
L 930.620571 179.498226 
L 930.620571 175.495936 
L 898.734857 175.495936 
L 898.734857 179.498226 
z
" clip-path="url(#p9fcf11f4d4)" style="fill: none; stroke: #000000; stroke-linejoin: miter"/>
   </g>
   <g id="patch_72">
    <path d="M 675.853714 428.920975 
L 707.739429 428.920975 
L 707.739429 424.918685 
L 675.853714 424.918685 
L 675.853714 428.920975 
z
" clip-path="url(#p9fcf11f4d4)" style="fill: none; stroke: #000000; stroke-linejoin: miter"/>
   </g>
   <g id="patch_73">
    <path d="M 767.046857 349.035255 
L 798.932571 349.035255 
L 798.932571 345.032965 
L 767.046857 345.032965 
L 767.046857 349.035255 
z
" clip-path="url(#p9fcf11f4d4)" style="fill: none; stroke: #000000; stroke-linejoin: miter"/>
   </g>
   <g id="patch_74">
    <path d="M 733.566857 351.756813 
L 765.452571 351.756813 
L 765.452571 347.754522 
L 733.566857 347.754522 
L 733.566857 351.756813 
z
" clip-path="url(#p9fcf11f4d4)" style="fill: none; stroke: #000000; stroke-linejoin: miter"/>
   </g>
   <g id="patch_75">
    <path d="M 415.347429 372.888907 
L 447.233143 372.888907 
L 447.233143 368.886616 
L 415.347429 368.886616 
L 415.347429 372.888907 
z
" clip-path="url(#p9fcf11f4d4)" style="fill: none; stroke: #000000; stroke-linejoin: miter"/>
   </g>
   <g id="patch_76">
    <path d="M 451.378286 349.995805 
L 483.264 349.995805 
L 483.264 345.993514 
L 451.378286 345.993514 
L 451.378286 349.995805 
z
" clip-path="url(#p9fcf11f4d4)" style="fill: none; stroke: #000000; stroke-linejoin: miter"/>
   </g>
   <g id="patch_77">
    <path d="M 807.222857 263.146099 
L 839.108571 263.146099 
L 839.108571 259.143809 
L 807.222857 259.143809 
L 807.222857 263.146099 
z
" clip-path="url(#p9fcf11f4d4)" style="fill: none; stroke: #000000; stroke-linejoin: miter"/>
   </g>
   <g id="patch_78">
    <path d="M 502.076571 345.433194 
L 533.962286 345.433194 
L 533.962286 341.430903 
L 502.076571 341.430903 
L 502.076571 345.433194 
z
" clip-path="url(#p9fcf11f4d4)" style="fill: none; stroke: #000000; stroke-linejoin: miter"/>
   </g>
   <g id="patch_79">
    <path d="M 412.477714 426.759738 
L 444.363429 426.759738 
L 444.363429 422.757448 
L 412.477714 422.757448 
L 412.477714 426.759738 
z
" clip-path="url(#p9fcf11f4d4)" style="fill: none; stroke: #000000; stroke-linejoin: miter"/>
   </g>
   <g id="patch_80">
    <path d="M 613.038857 377.051289 
L 644.924571 377.051289 
L 644.924571 373.048999 
L 613.038857 373.048999 
L 613.038857 377.051289 
z
" clip-path="url(#p9fcf11f4d4)" style="fill: none; stroke: #000000; stroke-linejoin: miter"/>
   </g>
   <g id="patch_81">
    <path d="M 864.617143 144.117978 
L 896.502857 144.117978 
L 896.502857 140.115687 
L 864.617143 140.115687 
L 864.617143 144.117978 
z
" clip-path="url(#p9fcf11f4d4)" style="fill: none; stroke: #000000; stroke-linejoin: miter"/>
   </g>
   <g id="patch_82">
    <path d="M 667.244571 517.611734 
L 699.130286 517.611734 
L 699.130286 513.609444 
L 667.244571 513.609444 
L 667.244571 517.611734 
z
" clip-path="url(#p9fcf11f4d4)" style="fill: none; stroke: #000000; stroke-linejoin: miter"/>
   </g>
   <g id="patch_83">
    <path d="M 713.797714 293.563508 
L 745.683429 293.563508 
L 745.683429 289.561217 
L 713.797714 289.561217 
L 713.797714 293.563508 
z
" clip-path="url(#p9fcf11f4d4)" style="fill: none; stroke: #000000; stroke-linejoin: miter"/>
   </g>
   <g id="patch_84">
    <path d="M 744.089143 527.377323 
L 775.974857 527.377323 
L 775.974857 523.375033 
L 744.089143 523.375033 
L 744.089143 527.377323 
z
" clip-path="url(#p9fcf11f4d4)" style="fill: none; stroke: #000000; stroke-linejoin: miter"/>
   </g>
   <g id="patch_85">
    <path d="M 369.750857 470.224614 
L 401.636571 470.224614 
L 401.636571 466.222323 
L 369.750857 466.222323 
L 369.750857 470.224614 
z
" clip-path="url(#p9fcf11f4d4)" style="fill: none; stroke: #000000; stroke-linejoin: miter"/>
   </g>
   <g id="patch_86">
    <path d="M 829.224 444.129679 
L 861.109714 444.129679 
L 861.109714 440.127389 
L 829.224 440.127389 
L 829.224 444.129679 
z
" clip-path="url(#p9fcf11f4d4)" style="fill: none; stroke: #000000; stroke-linejoin: miter"/>
   </g>
   <g id="patch_87">
    <path d="M 250.498286 462.700308 
L 282.384 462.700308 
L 282.384 458.698017 
L 250.498286 458.698017 
L 250.498286 462.700308 
z
" clip-path="url(#p9fcf11f4d4)" style="fill: none; stroke: #000000; stroke-linejoin: miter"/>
   </g>
   <g id="patch_88">
    <path d="M 604.429714 140.996191 
L 636.315429 140.996191 
L 636.315429 136.993901 
L 604.429714 136.993901 
L 604.429714 140.996191 
z
" clip-path="url(#p9fcf11f4d4)" style="fill: none; stroke: #000000; stroke-linejoin: miter"/>
   </g>
   <g id="patch_89">
    <path d="M 516.425143 275.233017 
L 548.310857 275.233017 
L 548.310857 271.230726 
L 516.425143 271.230726 
L 516.425143 275.233017 
z
" clip-path="url(#p9fcf11f4d4)" style="fill: none; stroke: #000000; stroke-linejoin: miter"/>
   </g>
   <g id="patch_90">
    <path d="M 476.249143 165.170026 
L 508.134857 165.170026 
L 508.134857 161.167736 
L 476.249143 161.167736 
L 476.249143 165.170026 
z
" clip-path="url(#p9fcf11f4d4)" style="fill: none; stroke: #000000; stroke-linejoin: miter"/>
   </g>
   <g id="patch_91">
    <path d="M 423.318857 175.816119 
L 455.204571 175.816119 
L 455.204571 171.813829 
L 423.318857 171.813829 
L 423.318857 175.816119 
z
" clip-path="url(#p9fcf11f4d4)" style="fill: none; stroke: #000000; stroke-linejoin: miter"/>
   </g>
   <g id="patch_92">
    <path d="M 537.469714 143.717749 
L 569.355429 143.717749 
L 569.355429 139.715458 
L 537.469714 139.715458 
L 537.469714 143.717749 
z
" clip-path="url(#p9fcf11f4d4)" style="fill: none; stroke: #000000; stroke-linejoin: miter"/>
   </g>
   <g id="patch_93">
    <path d="M 583.385143 139.395275 
L 615.270857 139.395275 
L 615.270857 135.392984 
L 583.385143 135.392984 
L 583.385143 139.395275 
z
" clip-path="url(#p9fcf11f4d4)" style="fill: none; stroke: #000000; stroke-linejoin: miter"/>
   </g>
   <g id="patch_94">
    <path d="M 700.405714 461.259483 
L 732.291429 461.259483 
L 732.291429 457.257192 
L 700.405714 457.257192 
L 700.405714 461.259483 
z
" clip-path="url(#p9fcf11f4d4)" style="fill: none; stroke: #000000; stroke-linejoin: miter"/>
   </g>
   <g id="patch_95">
    <path d="M 389.838857 181.579418 
L 421.724571 181.579418 
L 421.724571 177.577127 
L 389.838857 177.577127 
L 389.838857 181.579418 
z
" clip-path="url(#p9fcf11f4d4)" style="fill: none; stroke: #000000; stroke-linejoin: miter"/>
   </g>
   <g id="patch_96">
    <path d="M 466.364571 180.298685 
L 498.250286 180.298685 
L 498.250286 176.296394 
L 466.364571 176.296394 
L 466.364571 180.298685 
z
" clip-path="url(#p9fcf11f4d4)" style="fill: none; stroke: #000000; stroke-linejoin: miter"/>
   </g>
   <g id="patch_97">
    <path d="M 316.820571 334.867147 
L 348.706286 334.867147 
L 348.706286 330.864856 
L 316.820571 330.864856 
L 316.820571 334.867147 
z
" clip-path="url(#p9fcf11f4d4)" style="fill: none; stroke: #000000; stroke-linejoin: miter"/>
   </g>
   <g id="patch_98">
    <path d="M 349.981714 319.338259 
L 381.867429 319.338259 
L 381.867429 315.335969 
L 349.981714 315.335969 
L 349.981714 319.338259 
z
" clip-path="url(#p9fcf11f4d4)" style="fill: none; stroke: #000000; stroke-linejoin: miter"/>
   </g>
   <g id="patch_99">
    <path d="M 646.518857 227.765851 
L 678.404571 227.765851 
L 678.404571 223.76356 
L 646.518857 223.76356 
L 646.518857 227.765851 
z
" clip-path="url(#p9fcf11f4d4)" style="fill: none; stroke: #000000; stroke-linejoin: miter"/>
   </g>
   <g id="patch_100">
    <path d="M 570.312 514.169764 
L 602.197714 514.169764 
L 602.197714 510.167474 
L 570.312 510.167474 
L 570.312 514.169764 
z
" clip-path="url(#p9fcf11f4d4)" style="fill: none; stroke: #000000; stroke-linejoin: miter"/>
   </g>
   <g id="patch_101">
    <path d="M 547.992 149.561093 
L 579.877714 149.561093 
L 579.877714 145.558802 
L 547.992 145.558802 
L 547.992 149.561093 
z
" clip-path="url(#p9fcf11f4d4)" style="fill: none; stroke: #000000; stroke-linejoin: miter"/>
   </g>
   <g id="patch_102">
    <path d="M 617.184 337.988933 
L 649.069714 337.988933 
L 649.069714 333.986643 
L 617.184 333.986643 
L 617.184 337.988933 
z
" clip-path="url(#p9fcf11f4d4)" style="fill: none; stroke: #000000; stroke-linejoin: miter"/>
   </g>
   <g id="patch_103">
    <path d="M 575.413714 270.830497 
L 607.299429 270.830497 
L 607.299429 266.828207 
L 575.413714 266.828207 
L 575.413714 270.830497 
z
" clip-path="url(#p9fcf11f4d4)" style="fill: none; stroke: #000000; stroke-linejoin: miter"/>
   </g>
   <g id="patch_104">
    <path d="M 779.801143 138.514771 
L 811.686857 138.514771 
L 811.686857 134.51248 
L 779.801143 134.51248 
L 779.801143 138.514771 
z
" clip-path="url(#p9fcf11f4d4)" style="fill: none; stroke: #000000; stroke-linejoin: miter"/>
   </g>
   <g id="patch_105">
    <path d="M 780.12 374.089594 
L 812.005714 374.089594 
L 812.005714 370.087304 
L 780.12 370.087304 
L 780.12 374.089594 
z
" clip-path="url(#p9fcf11f4d4)" style="fill: none; stroke: #000000; stroke-linejoin: miter"/>
   </g>
   <g id="patch_106">
    <path d="M 578.283429 401.385216 
L 610.169143 401.385216 
L 610.169143 397.382925 
L 578.283429 397.382925 
L 578.283429 401.385216 
z
" clip-path="url(#p9fcf11f4d4)" style="fill: none; stroke: #000000; stroke-linejoin: miter"/>
   </g>
   <g id="patch_107">
    <path d="M 646.837714 364.163914 
L 678.723429 364.163914 
L 678.723429 360.161623 
L 646.837714 360.161623 
L 646.837714 364.163914 
z
" clip-path="url(#p9fcf11f4d4)" style="fill: none; stroke: #000000; stroke-linejoin: miter"/>
   </g>
   <g id="patch_108">
    <path d="M 721.131429 427.079921 
L 753.017143 427.079921 
L 753.017143 423.077631 
L 721.131429 423.077631 
L 721.131429 427.079921 
z
" clip-path="url(#p9fcf11f4d4)" style="fill: none; stroke: #000000; stroke-linejoin: miter"/>
   </g>
   <g id="patch_109">
    <path d="M 795.106286 542.826165 
L 826.992 542.826165 
L 826.992 538.823874 
L 795.106286 538.823874 
L 795.106286 542.826165 
z
" clip-path="url(#p9fcf11f4d4)" style="fill: none; stroke: #000000; stroke-linejoin: miter"/>
   </g>
   <g id="patch_110">
    <path d="M 831.774857 369.526983 
L 863.660571 369.526983 
L 863.660571 365.524692 
L 831.774857 365.524692 
L 831.774857 369.526983 
z
" clip-path="url(#p9fcf11f4d4)" style="fill: none; stroke: #000000; stroke-linejoin: miter"/>
   </g>
   <g id="patch_111">
    <path d="M 299.921143 472.385851 
L 331.806857 472.385851 
L 331.806857 468.38356 
L 299.921143 468.38356 
L 299.921143 472.385851 
z
" clip-path="url(#p9fcf11f4d4)" style="fill: none; stroke: #000000; stroke-linejoin: miter"/>
   </g>
   <g id="patch_112">
    <path d="M 763.539429 447.411558 
L 795.425143 447.411558 
L 795.425143 443.409267 
L 763.539429 443.409267 
L 763.539429 447.411558 
z
" clip-path="url(#p9fcf11f4d4)" style="fill: none; stroke: #000000; stroke-linejoin: miter"/>
   </g>
   <g id="patch_113">
    <path d="M 609.212571 150.841826 
L 641.098286 150.841826 
L 641.098286 146.839535 
L 609.212571 146.839535 
L 609.212571 150.841826 
z
" clip-path="url(#p9fcf11f4d4)" style="fill: none; stroke: #000000; stroke-linejoin: miter"/>
   </g>
   <g id="patch_114">
    <path d="M 769.278857 535.221813 
L 801.164571 535.221813 
L 801.164571 531.219522 
L 769.278857 531.219522 
L 769.278857 535.221813 
z
" clip-path="url(#p9fcf11f4d4)" style="fill: none; stroke: #000000; stroke-linejoin: miter"/>
   </g>
   <g id="patch_115">
    <path d="M 443.725714 282.597232 
L 475.611429 282.597232 
L 475.611429 278.594941 
L 443.725714 278.594941 
L 443.725714 282.597232 
z
" clip-path="url(#p9fcf11f4d4)" style="fill: none; stroke: #000000; stroke-linejoin: miter"/>
   </g>
   <g id="patch_116">
    <path d="M 492.829714 500.561976 
L 524.715429 500.561976 
L 524.715429 496.559686 
L 492.829714 496.559686 
L 492.829714 500.561976 
z
" clip-path="url(#p9fcf11f4d4)" style="fill: none; stroke: #000000; stroke-linejoin: miter"/>
   </g>
   <g id="patch_117">
    <path d="M 672.984 244.9757 
L 704.869714 244.9757 
L 704.869714 240.97341 
L 672.984 240.97341 
L 672.984 244.9757 
z
" clip-path="url(#p9fcf11f4d4)" style="fill: none; stroke: #000000; stroke-linejoin: miter"/>
   </g>
   <g id="patch_118">
    <path d="M 694.666286 406.107919 
L 726.552 406.107919 
L 726.552 402.105628 
L 694.666286 402.105628 
L 694.666286 406.107919 
z
" clip-path="url(#p9fcf11f4d4)" style="fill: none; stroke: #000000; stroke-linejoin: miter"/>
   </g>
   <g id="patch_119">
    <path d="M 754.930286 502.082847 
L 786.816 502.082847 
L 786.816 498.080556 
L 754.930286 498.080556 
L 754.930286 502.082847 
z
" clip-path="url(#p9fcf11f4d4)" style="fill: none; stroke: #000000; stroke-linejoin: miter"/>
   </g>
   <g id="patch_120">
    <path d="M 782.352 379.212526 
L 814.237714 379.212526 
L 814.237714 375.210236 
L 782.352 375.210236 
L 782.352 379.212526 
z
" clip-path="url(#p9fcf11f4d4)" style="fill: none; stroke: #000000; stroke-linejoin: miter"/>
   </g>
   <g id="patch_121">
    <path d="M 535.237714 479.429882 
L 567.123429 479.429882 
L 567.123429 475.427592 
L 535.237714 475.427592 
L 535.237714 479.429882 
z
" clip-path="url(#p9fcf11f4d4)" style="fill: none; stroke: #000000; stroke-linejoin: miter"/>
   </g>
   <g id="patch_122">
    <path d="M 543.846857 503.36358 
L 575.732571 503.36358 
L 575.732571 499.361289 
L 543.846857 499.361289 
L 543.846857 503.36358 
z
" clip-path="url(#p9fcf11f4d4)" style="fill: none; stroke: #000000; stroke-linejoin: miter"/>
   </g>
   <g id="patch_123">
    <path d="M 648.750857 443.809496 
L 680.636571 443.809496 
L 680.636571 439.807205 
L 648.750857 439.807205 
L 648.750857 443.809496 
z
" clip-path="url(#p9fcf11f4d4)" style="fill: none; stroke: #000000; stroke-linejoin: miter"/>
   </g>
   <g id="patch_124">
    <path d="M 614.952 222.082598 
L 646.837714 222.082598 
L 646.837714 218.080308 
L 614.952 218.080308 
L 614.952 222.082598 
z
" clip-path="url(#p9fcf11f4d4)" style="fill: none; stroke: #000000; stroke-linejoin: miter"/>
   </g>
   <g id="patch_125">
    <path d="M 834.006857 403.546453 
L 865.892571 403.546453 
L 865.892571 399.544162 
L 834.006857 399.544162 
L 834.006857 403.546453 
z
" clip-path="url(#p9fcf11f4d4)" style="fill: none; stroke: #000000; stroke-linejoin: miter"/>
   </g>
   <g id="patch_126">
    <path d="M 638.866286 160.287232 
L 670.752 160.287232 
L 670.752 156.284941 
L 638.866286 156.284941 
L 638.866286 160.287232 
z
" clip-path="url(#p9fcf11f4d4)" style="fill: none; stroke: #000000; stroke-linejoin: miter"/>
   </g>
   <g id="patch_127">
    <path d="M 986.420571 281.636682 
L 1018.306286 281.636682 
L 1018.306286 277.634391 
L 986.420571 277.634391 
L 986.420571 281.636682 
z
" clip-path="url(#p9fcf11f4d4)" style="fill: none; stroke: #000000; stroke-linejoin: miter"/>
   </g>
   <g id="patch_128">
    <path d="M 628.025143 144.83839 
L 659.910857 144.83839 
L 659.910857 140.836099 
L 628.025143 140.836099 
L 628.025143 144.83839 
z
" clip-path="url(#p9fcf11f4d4)" style="fill: none; stroke: #000000; stroke-linejoin: miter"/>
   </g>
   <g id="patch_129">
    <path d="M 664.693714 515.530543 
L 696.579429 515.530543 
L 696.579429 511.528253 
L 664.693714 511.528253 
L 664.693714 515.530543 
z
" clip-path="url(#p9fcf11f4d4)" style="fill: none; stroke: #000000; stroke-linejoin: miter"/>
   </g>
   <g id="patch_130">
    <path d="M 659.273143 469.023927 
L 691.158857 469.023927 
L 691.158857 465.021636 
L 659.273143 465.021636 
L 659.273143 469.023927 
z
" clip-path="url(#p9fcf11f4d4)" style="fill: none; stroke: #000000; stroke-linejoin: miter"/>
   </g>
   <g id="matplotlib.axis_1">
    <g id="xtick_1">
     <g id="line2d_1">
      <defs>
       <path id="m2262d026b9" d="M 0 0 
L 0 3.5 
" style="stroke: #000000; stroke-width: 0.8"/>
      </defs>
      <g>
       <use xlink:href="#m2262d026b9" x="175.885714" y="567" style="stroke: #000000; stroke-width: 0.8"/>
      </g>
     </g>
     <g id="text_1">
      <!-- 2500 -->
      <g transform="translate(163.160714 581.598438)scale(0.1 -0.1)">
       <defs>
        <path id="DejaVuSans-32" d="M 1228 531 
L 3431 531 
L 3431 0 
L 469 0 
L 469 531 
Q 828 903 1448 1529 
Q 2069 2156 2228 2338 
Q 2531 2678 2651 2914 
Q 2772 3150 2772 3378 
Q 2772 3750 2511 3984 
Q 2250 4219 1831 4219 
Q 1534 4219 1204 4116 
Q 875 4013 500 3803 
L 500 4441 
Q 881 4594 1212 4672 
Q 1544 4750 1819 4750 
Q 2544 4750 2975 4387 
Q 3406 4025 3406 3419 
Q 3406 3131 3298 2873 
Q 3191 2616 2906 2266 
Q 2828 2175 2409 1742 
Q 1991 1309 1228 531 
z
" transform="scale(0.015625)"/>
        <path id="DejaVuSans-35" d="M 691 4666 
L 3169 4666 
L 3169 4134 
L 1269 4134 
L 1269 2991 
Q 1406 3038 1543 3061 
Q 1681 3084 1819 3084 
Q 2600 3084 3056 2656 
Q 3513 2228 3513 1497 
Q 3513 744 3044 326 
Q 2575 -91 1722 -91 
Q 1428 -91 1123 -41 
Q 819 9 494 109 
L 494 744 
Q 775 591 1075 516 
Q 1375 441 1709 441 
Q 2250 441 2565 725 
Q 2881 1009 2881 1497 
Q 2881 1984 2565 2268 
Q 2250 2553 1709 2553 
Q 1456 2553 1204 2497 
Q 953 2441 691 2322 
L 691 4666 
z
" transform="scale(0.015625)"/>
        <path id="DejaVuSans-30" d="M 2034 4250 
Q 1547 4250 1301 3770 
Q 1056 3291 1056 2328 
Q 1056 1369 1301 889 
Q 1547 409 2034 409 
Q 2525 409 2770 889 
Q 3016 1369 3016 2328 
Q 3016 3291 2770 3770 
Q 2525 4250 2034 4250 
z
M 2034 4750 
Q 2819 4750 3233 4129 
Q 3647 3509 3647 2328 
Q 3647 1150 3233 529 
Q 2819 -91 2034 -91 
Q 1250 -91 836 529 
Q 422 1150 422 2328 
Q 422 3509 836 4129 
Q 1250 4750 2034 4750 
z
" transform="scale(0.015625)"/>
       </defs>
       <use xlink:href="#DejaVuSans-32"/>
       <use xlink:href="#DejaVuSans-35" x="63.623047"/>
       <use xlink:href="#DejaVuSans-30" x="127.246094"/>
       <use xlink:href="#DejaVuSans-30" x="190.869141"/>
      </g>
     </g>
    </g>
    <g id="xtick_2">
     <g id="line2d_2">
      <g>
       <use xlink:href="#m2262d026b9" x="335.314286" y="567" style="stroke: #000000; stroke-width: 0.8"/>
      </g>
     </g>
     <g id="text_2">
      <!-- 3000 -->
      <g transform="translate(322.589286 581.598438)scale(0.1 -0.1)">
       <defs>
        <path id="DejaVuSans-33" d="M 2597 2516 
Q 3050 2419 3304 2112 
Q 3559 1806 3559 1356 
Q 3559 666 3084 287 
Q 2609 -91 1734 -91 
Q 1441 -91 1130 -33 
Q 819 25 488 141 
L 488 750 
Q 750 597 1062 519 
Q 1375 441 1716 441 
Q 2309 441 2620 675 
Q 2931 909 2931 1356 
Q 2931 1769 2642 2001 
Q 2353 2234 1838 2234 
L 1294 2234 
L 1294 2753 
L 1863 2753 
Q 2328 2753 2575 2939 
Q 2822 3125 2822 3475 
Q 2822 3834 2567 4026 
Q 2313 4219 1838 4219 
Q 1578 4219 1281 4162 
Q 984 4106 628 3988 
L 628 4550 
Q 988 4650 1302 4700 
Q 1616 4750 1894 4750 
Q 2613 4750 3031 4423 
Q 3450 4097 3450 3541 
Q 3450 3153 3228 2886 
Q 3006 2619 2597 2516 
z
" transform="scale(0.015625)"/>
       </defs>
       <use xlink:href="#DejaVuSans-33"/>
       <use xlink:href="#DejaVuSans-30" x="63.623047"/>
       <use xlink:href="#DejaVuSans-30" x="127.246094"/>
       <use xlink:href="#DejaVuSans-30" x="190.869141"/>
      </g>
     </g>
    </g>
    <g id="xtick_3">
     <g id="line2d_3">
      <g>
       <use xlink:href="#m2262d026b9" x="494.742857" y="567" style="stroke: #000000; stroke-width: 0.8"/>
      </g>
     </g>
     <g id="text_3">
      <!-- 3500 -->
      <g transform="translate(482.017857 581.598438)scale(0.1 -0.1)">
       <use xlink:href="#DejaVuSans-33"/>
       <use xlink:href="#DejaVuSans-35" x="63.623047"/>
       <use xlink:href="#DejaVuSans-30" x="127.246094"/>
       <use xlink:href="#DejaVuSans-30" x="190.869141"/>
      </g>
     </g>
    </g>
    <g id="xtick_4">
     <g id="line2d_4">
      <g>
       <use xlink:href="#m2262d026b9" x="654.171429" y="567" style="stroke: #000000; stroke-width: 0.8"/>
      </g>
     </g>
     <g id="text_4">
      <!-- 4000 -->
      <g transform="translate(641.446429 581.598438)scale(0.1 -0.1)">
       <defs>
        <path id="DejaVuSans-34" d="M 2419 4116 
L 825 1625 
L 2419 1625 
L 2419 4116 
z
M 2253 4666 
L 3047 4666 
L 3047 1625 
L 3713 1625 
L 3713 1100 
L 3047 1100 
L 3047 0 
L 2419 0 
L 2419 1100 
L 313 1100 
L 313 1709 
L 2253 4666 
z
" transform="scale(0.015625)"/>
       </defs>
       <use xlink:href="#DejaVuSans-34"/>
       <use xlink:href="#DejaVuSans-30" x="63.623047"/>
       <use xlink:href="#DejaVuSans-30" x="127.246094"/>
       <use xlink:href="#DejaVuSans-30" x="190.869141"/>
      </g>
     </g>
    </g>
    <g id="xtick_5">
     <g id="line2d_5">
      <g>
       <use xlink:href="#m2262d026b9" x="813.6" y="567" style="stroke: #000000; stroke-width: 0.8"/>
      </g>
     </g>
     <g id="text_5">
      <!-- 4500 -->
      <g transform="translate(800.875 581.598438)scale(0.1 -0.1)">
       <use xlink:href="#DejaVuSans-34"/>
       <use xlink:href="#DejaVuSans-35" x="63.623047"/>
       <use xlink:href="#DejaVuSans-30" x="127.246094"/>
       <use xlink:href="#DejaVuSans-30" x="190.869141"/>
      </g>
     </g>
    </g>
    <g id="xtick_6">
     <g id="line2d_6">
      <g>
       <use xlink:href="#m2262d026b9" x="973.028571" y="567" style="stroke: #000000; stroke-width: 0.8"/>
      </g>
     </g>
     <g id="text_6">
      <!-- 5000 -->
      <g transform="translate(960.303571 581.598438)scale(0.1 -0.1)">
       <use xlink:href="#DejaVuSans-35"/>
       <use xlink:href="#DejaVuSans-30" x="63.623047"/>
       <use xlink:href="#DejaVuSans-30" x="127.246094"/>
       <use xlink:href="#DejaVuSans-30" x="190.869141"/>
      </g>
     </g>
    </g>
   </g>
   <g id="matplotlib.axis_2">
    <g id="ytick_1">
     <g id="line2d_7">
      <defs>
       <path id="m3006d375a8" d="M 0 0 
L -3.5 0 
" style="stroke: #000000; stroke-width: 0.8"/>
      </defs>
      <g>
       <use xlink:href="#m3006d375a8" x="144" y="558.995419" style="stroke: #000000; stroke-width: 0.8"/>
      </g>
     </g>
     <g id="text_7">
      <!-- 7000 -->
      <g transform="translate(111.55 562.794638)scale(0.1 -0.1)">
       <defs>
        <path id="DejaVuSans-37" d="M 525 4666 
L 3525 4666 
L 3525 4397 
L 1831 0 
L 1172 0 
L 2766 4134 
L 525 4134 
L 525 4666 
z
" transform="scale(0.015625)"/>
       </defs>
       <use xlink:href="#DejaVuSans-37"/>
       <use xlink:href="#DejaVuSans-30" x="63.623047"/>
       <use xlink:href="#DejaVuSans-30" x="127.246094"/>
       <use xlink:href="#DejaVuSans-30" x="190.869141"/>
      </g>
     </g>
    </g>
    <g id="ytick_2">
     <g id="line2d_8">
      <g>
       <use xlink:href="#m3006d375a8" x="144" y="478.949607" style="stroke: #000000; stroke-width: 0.8"/>
      </g>
     </g>
     <g id="text_8">
      <!-- 8000 -->
      <g transform="translate(111.55 482.748826)scale(0.1 -0.1)">
       <defs>
        <path id="DejaVuSans-38" d="M 2034 2216 
Q 1584 2216 1326 1975 
Q 1069 1734 1069 1313 
Q 1069 891 1326 650 
Q 1584 409 2034 409 
Q 2484 409 2743 651 
Q 3003 894 3003 1313 
Q 3003 1734 2745 1975 
Q 2488 2216 2034 2216 
z
M 1403 2484 
Q 997 2584 770 2862 
Q 544 3141 544 3541 
Q 544 4100 942 4425 
Q 1341 4750 2034 4750 
Q 2731 4750 3128 4425 
Q 3525 4100 3525 3541 
Q 3525 3141 3298 2862 
Q 3072 2584 2669 2484 
Q 3125 2378 3379 2068 
Q 3634 1759 3634 1313 
Q 3634 634 3220 271 
Q 2806 -91 2034 -91 
Q 1263 -91 848 271 
Q 434 634 434 1313 
Q 434 1759 690 2068 
Q 947 2378 1403 2484 
z
M 1172 3481 
Q 1172 3119 1398 2916 
Q 1625 2713 2034 2713 
Q 2441 2713 2670 2916 
Q 2900 3119 2900 3481 
Q 2900 3844 2670 4047 
Q 2441 4250 2034 4250 
Q 1625 4250 1398 4047 
Q 1172 3844 1172 3481 
z
" transform="scale(0.015625)"/>
       </defs>
       <use xlink:href="#DejaVuSans-38"/>
       <use xlink:href="#DejaVuSans-30" x="63.623047"/>
       <use xlink:href="#DejaVuSans-30" x="127.246094"/>
       <use xlink:href="#DejaVuSans-30" x="190.869141"/>
      </g>
     </g>
    </g>
    <g id="ytick_3">
     <g id="line2d_9">
      <g>
       <use xlink:href="#m3006d375a8" x="144" y="398.903796" style="stroke: #000000; stroke-width: 0.8"/>
      </g>
     </g>
     <g id="text_9">
      <!-- 9000 -->
      <g transform="translate(111.55 402.703015)scale(0.1 -0.1)">
       <defs>
        <path id="DejaVuSans-39" d="M 703 97 
L 703 672 
Q 941 559 1184 500 
Q 1428 441 1663 441 
Q 2288 441 2617 861 
Q 2947 1281 2994 2138 
Q 2813 1869 2534 1725 
Q 2256 1581 1919 1581 
Q 1219 1581 811 2004 
Q 403 2428 403 3163 
Q 403 3881 828 4315 
Q 1253 4750 1959 4750 
Q 2769 4750 3195 4129 
Q 3622 3509 3622 2328 
Q 3622 1225 3098 567 
Q 2575 -91 1691 -91 
Q 1453 -91 1209 -44 
Q 966 3 703 97 
z
M 1959 2075 
Q 2384 2075 2632 2365 
Q 2881 2656 2881 3163 
Q 2881 3666 2632 3958 
Q 2384 4250 1959 4250 
Q 1534 4250 1286 3958 
Q 1038 3666 1038 3163 
Q 1038 2656 1286 2365 
Q 1534 2075 1959 2075 
z
" transform="scale(0.015625)"/>
       </defs>
       <use xlink:href="#DejaVuSans-39"/>
       <use xlink:href="#DejaVuSans-30" x="63.623047"/>
       <use xlink:href="#DejaVuSans-30" x="127.246094"/>
       <use xlink:href="#DejaVuSans-30" x="190.869141"/>
      </g>
     </g>
    </g>
    <g id="ytick_4">
     <g id="line2d_10">
      <g>
       <use xlink:href="#m3006d375a8" x="144" y="318.857984" style="stroke: #000000; stroke-width: 0.8"/>
      </g>
     </g>
     <g id="text_10">
      <!-- 10000 -->
      <g transform="translate(105.1875 322.657203)scale(0.1 -0.1)">
       <defs>
        <path id="DejaVuSans-31" d="M 794 531 
L 1825 531 
L 1825 4091 
L 703 3866 
L 703 4441 
L 1819 4666 
L 2450 4666 
L 2450 531 
L 3481 531 
L 3481 0 
L 794 0 
L 794 531 
z
" transform="scale(0.015625)"/>
       </defs>
       <use xlink:href="#DejaVuSans-31"/>
       <use xlink:href="#DejaVuSans-30" x="63.623047"/>
       <use xlink:href="#DejaVuSans-30" x="127.246094"/>
       <use xlink:href="#DejaVuSans-30" x="190.869141"/>
       <use xlink:href="#DejaVuSans-30" x="254.492188"/>
      </g>
     </g>
    </g>
    <g id="ytick_5">
     <g id="line2d_11">
      <g>
       <use xlink:href="#m3006d375a8" x="144" y="238.812173" style="stroke: #000000; stroke-width: 0.8"/>
      </g>
     </g>
     <g id="text_11">
      <!-- 11000 -->
      <g transform="translate(105.1875 242.611392)scale(0.1 -0.1)">
       <use xlink:href="#DejaVuSans-31"/>
       <use xlink:href="#DejaVuSans-31" x="63.623047"/>
       <use xlink:href="#DejaVuSans-30" x="127.246094"/>
       <use xlink:href="#DejaVuSans-30" x="190.869141"/>
       <use xlink:href="#DejaVuSans-30" x="254.492188"/>
      </g>
     </g>
    </g>
    <g id="ytick_6">
     <g id="line2d_12">
      <g>
       <use xlink:href="#m3006d375a8" x="144" y="158.766361" style="stroke: #000000; stroke-width: 0.8"/>
      </g>
     </g>
     <g id="text_12">
      <!-- 12000 -->
      <g transform="translate(105.1875 162.56558)scale(0.1 -0.1)">
       <use xlink:href="#DejaVuSans-31"/>
       <use xlink:href="#DejaVuSans-32" x="63.623047"/>
       <use xlink:href="#DejaVuSans-30" x="127.246094"/>
       <use xlink:href="#DejaVuSans-30" x="190.869141"/>
       <use xlink:href="#DejaVuSans-30" x="254.492188"/>
      </g>
     </g>
    </g>
    <g id="ytick_7">
     <g id="line2d_13">
      <g>
       <use xlink:href="#m3006d375a8" x="144" y="78.72055" style="stroke: #000000; stroke-width: 0.8"/>
      </g>
     </g>
     <g id="text_13">
      <!-- 13000 -->
      <g transform="translate(105.1875 82.519768)scale(0.1 -0.1)">
       <use xlink:href="#DejaVuSans-31"/>
       <use xlink:href="#DejaVuSans-33" x="63.623047"/>
       <use xlink:href="#DejaVuSans-30" x="127.246094"/>
       <use xlink:href="#DejaVuSans-30" x="190.869141"/>
       <use xlink:href="#DejaVuSans-30" x="254.492188"/>
      </g>
     </g>
    </g>
   </g>
   <g id="patch_131">
    <path d="M 144 567 
L 144 77.76 
" style="fill: none; stroke: #000000; stroke-width: 0.8; stroke-linejoin: miter; stroke-linecap: square"/>
   </g>
   <g id="patch_132">
    <path d="M 1036.8 567 
L 1036.8 77.76 
" style="fill: none; stroke: #000000; stroke-width: 0.8; stroke-linejoin: miter; stroke-linecap: square"/>
   </g>
   <g id="patch_133">
    <path d="M 144 567 
L 1036.8 567 
" style="fill: none; stroke: #000000; stroke-width: 0.8; stroke-linejoin: miter; stroke-linecap: square"/>
   </g>
   <g id="patch_134">
    <path d="M 144 77.76 
L 1036.8 77.76 
" style="fill: none; stroke: #000000; stroke-width: 0.8; stroke-linejoin: miter; stroke-linecap: square"/>
   </g>
   <g id="text_14">
    <!-- 3000_10_10_128_random162.2 -->
    <g transform="translate(495.96 71.76)scale(0.12 -0.12)">
     <defs>
      <path id="DejaVuSans-5f" d="M 3263 -1063 
L 3263 -1509 
L -63 -1509 
L -63 -1063 
L 3263 -1063 
z
" transform="scale(0.015625)"/>
      <path id="DejaVuSans-72" d="M 2631 2963 
Q 2534 3019 2420 3045 
Q 2306 3072 2169 3072 
Q 1681 3072 1420 2755 
Q 1159 2438 1159 1844 
L 1159 0 
L 581 0 
L 581 3500 
L 1159 3500 
L 1159 2956 
Q 1341 3275 1631 3429 
Q 1922 3584 2338 3584 
Q 2397 3584 2469 3576 
Q 2541 3569 2628 3553 
L 2631 2963 
z
" transform="scale(0.015625)"/>
      <path id="DejaVuSans-61" d="M 2194 1759 
Q 1497 1759 1228 1600 
Q 959 1441 959 1056 
Q 959 750 1161 570 
Q 1363 391 1709 391 
Q 2188 391 2477 730 
Q 2766 1069 2766 1631 
L 2766 1759 
L 2194 1759 
z
M 3341 1997 
L 3341 0 
L 2766 0 
L 2766 531 
Q 2569 213 2275 61 
Q 1981 -91 1556 -91 
Q 1019 -91 701 211 
Q 384 513 384 1019 
Q 384 1609 779 1909 
Q 1175 2209 1959 2209 
L 2766 2209 
L 2766 2266 
Q 2766 2663 2505 2880 
Q 2244 3097 1772 3097 
Q 1472 3097 1187 3025 
Q 903 2953 641 2809 
L 641 3341 
Q 956 3463 1253 3523 
Q 1550 3584 1831 3584 
Q 2591 3584 2966 3190 
Q 3341 2797 3341 1997 
z
" transform="scale(0.015625)"/>
      <path id="DejaVuSans-6e" d="M 3513 2113 
L 3513 0 
L 2938 0 
L 2938 2094 
Q 2938 2591 2744 2837 
Q 2550 3084 2163 3084 
Q 1697 3084 1428 2787 
Q 1159 2491 1159 1978 
L 1159 0 
L 581 0 
L 581 3500 
L 1159 3500 
L 1159 2956 
Q 1366 3272 1645 3428 
Q 1925 3584 2291 3584 
Q 2894 3584 3203 3211 
Q 3513 2838 3513 2113 
z
" transform="scale(0.015625)"/>
      <path id="DejaVuSans-64" d="M 2906 2969 
L 2906 4863 
L 3481 4863 
L 3481 0 
L 2906 0 
L 2906 525 
Q 2725 213 2448 61 
Q 2172 -91 1784 -91 
Q 1150 -91 751 415 
Q 353 922 353 1747 
Q 353 2572 751 3078 
Q 1150 3584 1784 3584 
Q 2172 3584 2448 3432 
Q 2725 3281 2906 2969 
z
M 947 1747 
Q 947 1113 1208 752 
Q 1469 391 1925 391 
Q 2381 391 2643 752 
Q 2906 1113 2906 1747 
Q 2906 2381 2643 2742 
Q 2381 3103 1925 3103 
Q 1469 3103 1208 2742 
Q 947 2381 947 1747 
z
" transform="scale(0.015625)"/>
      <path id="DejaVuSans-6f" d="M 1959 3097 
Q 1497 3097 1228 2736 
Q 959 2375 959 1747 
Q 959 1119 1226 758 
Q 1494 397 1959 397 
Q 2419 397 2687 759 
Q 2956 1122 2956 1747 
Q 2956 2369 2687 2733 
Q 2419 3097 1959 3097 
z
M 1959 3584 
Q 2709 3584 3137 3096 
Q 3566 2609 3566 1747 
Q 3566 888 3137 398 
Q 2709 -91 1959 -91 
Q 1206 -91 779 398 
Q 353 888 353 1747 
Q 353 2609 779 3096 
Q 1206 3584 1959 3584 
z
" transform="scale(0.015625)"/>
      <path id="DejaVuSans-6d" d="M 3328 2828 
Q 3544 3216 3844 3400 
Q 4144 3584 4550 3584 
Q 5097 3584 5394 3201 
Q 5691 2819 5691 2113 
L 5691 0 
L 5113 0 
L 5113 2094 
Q 5113 2597 4934 2840 
Q 4756 3084 4391 3084 
Q 3944 3084 3684 2787 
Q 3425 2491 3425 1978 
L 3425 0 
L 2847 0 
L 2847 2094 
Q 2847 2600 2669 2842 
Q 2491 3084 2119 3084 
Q 1678 3084 1418 2786 
Q 1159 2488 1159 1978 
L 1159 0 
L 581 0 
L 581 3500 
L 1159 3500 
L 1159 2956 
Q 1356 3278 1631 3431 
Q 1906 3584 2284 3584 
Q 2666 3584 2933 3390 
Q 3200 3197 3328 2828 
z
" transform="scale(0.015625)"/>
      <path id="DejaVuSans-36" d="M 2113 2584 
Q 1688 2584 1439 2293 
Q 1191 2003 1191 1497 
Q 1191 994 1439 701 
Q 1688 409 2113 409 
Q 2538 409 2786 701 
Q 3034 994 3034 1497 
Q 3034 2003 2786 2293 
Q 2538 2584 2113 2584 
z
M 3366 4563 
L 3366 3988 
Q 3128 4100 2886 4159 
Q 2644 4219 2406 4219 
Q 1781 4219 1451 3797 
Q 1122 3375 1075 2522 
Q 1259 2794 1537 2939 
Q 1816 3084 2150 3084 
Q 2853 3084 3261 2657 
Q 3669 2231 3669 1497 
Q 3669 778 3244 343 
Q 2819 -91 2113 -91 
Q 1303 -91 875 529 
Q 447 1150 447 2328 
Q 447 3434 972 4092 
Q 1497 4750 2381 4750 
Q 2619 4750 2861 4703 
Q 3103 4656 3366 4563 
z
" transform="scale(0.015625)"/>
      <path id="DejaVuSans-2e" d="M 684 794 
L 1344 794 
L 1344 0 
L 684 0 
L 684 794 
z
" transform="scale(0.015625)"/>
     </defs>
     <use xlink:href="#DejaVuSans-33"/>
     <use xlink:href="#DejaVuSans-30" x="63.623047"/>
     <use xlink:href="#DejaVuSans-30" x="127.246094"/>
     <use xlink:href="#DejaVuSans-30" x="190.869141"/>
     <use xlink:href="#DejaVuSans-5f" x="254.492188"/>
     <use xlink:href="#DejaVuSans-31" x="304.492188"/>
     <use xlink:href="#DejaVuSans-30" x="368.115234"/>
     <use xlink:href="#DejaVuSans-5f" x="431.738281"/>
     <use xlink:href="#DejaVuSans-31" x="481.738281"/>
     <use xlink:href="#DejaVuSans-30" x="545.361328"/>
     <use xlink:href="#DejaVuSans-5f" x="608.984375"/>
     <use xlink:href="#DejaVuSans-31" x="658.984375"/>
     <use xlink:href="#DejaVuSans-32" x="722.607422"/>
     <use xlink:href="#DejaVuSans-38" x="786.230469"/>
     <use xlink:href="#DejaVuSans-5f" x="849.853516"/>
     <use xlink:href="#DejaVuSans-72" x="899.853516"/>
     <use xlink:href="#DejaVuSans-61" x="940.966797"/>
     <use xlink:href="#DejaVuSans-6e" x="1002.246094"/>
     <use xlink:href="#DejaVuSans-64" x="1065.625"/>
     <use xlink:href="#DejaVuSans-6f" x="1129.101562"/>
     <use xlink:href="#DejaVuSans-6d" x="1190.283203"/>
     <use xlink:href="#DejaVuSans-31" x="1287.695312"/>
     <use xlink:href="#DejaVuSans-36" x="1351.318359"/>
     <use xlink:href="#DejaVuSans-32" x="1414.941406"/>
     <use xlink:href="#DejaVuSans-2e" x="1478.564453"/>
     <use xlink:href="#DejaVuSans-32" x="1510.351562"/>
    </g>
   </g>
  </g>
 </g>
 <defs>
  <clipPath id="p9fcf11f4d4">
   <rect x="144" y="77.76" width="892.8" height="489.24"/>
  </clipPath>
 </defs>
</svg>
