<?xml version="1.0" encoding="utf-8" standalone="no"?>
<!DOCTYPE svg PUBLIC "-//W3C//DTD SVG 1.1//EN"
  "http://www.w3.org/Graphics/SVG/1.1/DTD/svg11.dtd">
<svg xmlns:xlink="http://www.w3.org/1999/xlink" width="1152pt" height="648pt" viewBox="0 0 1152 648" xmlns="http://www.w3.org/2000/svg" version="1.1">
 <metadata>
  <rdf:RDF xmlns:dc="http://purl.org/dc/elements/1.1/" xmlns:cc="http://creativecommons.org/ns#" xmlns:rdf="http://www.w3.org/1999/02/22-rdf-syntax-ns#">
   <cc:Work>
    <dc:type rdf:resource="http://purl.org/dc/dcmitype/StillImage"/>
    <dc:date>2022-04-19T21:22:32.756048</dc:date>
    <dc:format>image/svg+xml</dc:format>
    <dc:creator>
     <cc:Agent>
      <dc:title>Matplotlib v3.5.1, https://matplotlib.org/</dc:title>
     </cc:Agent>
    </dc:creator>
   </cc:Work>
  </rdf:RDF>
 </metadata>
 <defs>
  <style type="text/css">*{stroke-linejoin: round; stroke-linecap: butt}</style>
 </defs>
 <g id="figure_1">
  <g id="patch_1">
   <path d="M 0 648 
L 1152 648 
L 1152 0 
L 0 0 
L 0 648 
z
" style="fill: none"/>
  </g>
  <g id="axes_1"/>
  <g id="axes_2">
   <g id="patch_2">
    <path d="M 144 567 
L 1036.8 567 
L 1036.8 77.76 
L 144 77.76 
z
" style="fill: #ffffff"/>
   </g>
   <g id="patch_3">
    <path d="M 657.36 484.346534 
L 689.245714 484.346534 
L 689.245714 480.063971 
L 657.36 480.063971 
L 657.36 484.346534 
z
" clip-path="url(#pe3a604f081)" style="fill: none; stroke: #000000; stroke-linejoin: miter"/>
   </g>
   <g id="patch_4">
    <path d="M 714.116571 345.248887 
L 746.002286 345.248887 
L 746.002286 340.966324 
L 714.116571 340.966324 
L 714.116571 345.248887 
z
" clip-path="url(#pe3a604f081)" style="fill: none; stroke: #000000; stroke-linejoin: miter"/>
   </g>
   <g id="patch_5">
    <path d="M 832.731429 142.940609 
L 864.617143 142.940609 
L 864.617143 138.658046 
L 832.731429 138.658046 
L 832.731429 142.940609 
z
" clip-path="url(#pe3a604f081)" style="fill: none; stroke: #000000; stroke-linejoin: miter"/>
   </g>
   <g id="patch_6">
    <path d="M 726.552 564.430462 
L 758.437714 564.430462 
L 758.437714 560.147899 
L 726.552 560.147899 
L 726.552 564.430462 
z
" clip-path="url(#pe3a604f081)" style="fill: none; stroke: #000000; stroke-linejoin: miter"/>
   </g>
   <g id="patch_7">
    <path d="M 738.030857 410.515147 
L 769.916571 410.515147 
L 769.916571 406.232584 
L 738.030857 406.232584 
L 738.030857 410.515147 
z
" clip-path="url(#pe3a604f081)" style="fill: none; stroke: #000000; stroke-linejoin: miter"/>
   </g>
   <g id="patch_8">
    <path d="M 497.931429 492.055147 
L 529.817143 492.055147 
L 529.817143 487.772584 
L 497.931429 487.772584 
L 497.931429 492.055147 
z
" clip-path="url(#pe3a604f081)" style="fill: none; stroke: #000000; stroke-linejoin: miter"/>
   </g>
   <g id="patch_9">
    <path d="M 937.316571 347.304517 
L 969.202286 347.304517 
L 969.202286 343.021954 
L 937.316571 343.021954 
L 937.316571 347.304517 
z
" clip-path="url(#pe3a604f081)" style="fill: none; stroke: #000000; stroke-linejoin: miter"/>
   </g>
   <g id="patch_10">
    <path d="M 596.458286 509.956261 
L 628.344 509.956261 
L 628.344 505.673697 
L 596.458286 505.673697 
L 596.458286 509.956261 
z
" clip-path="url(#pe3a604f081)" style="fill: none; stroke: #000000; stroke-linejoin: miter"/>
   </g>
   <g id="patch_11">
    <path d="M 438.624 507.729328 
L 470.509714 507.729328 
L 470.509714 503.446765 
L 438.624 503.446765 
L 438.624 507.729328 
z
" clip-path="url(#pe3a604f081)" style="fill: none; stroke: #000000; stroke-linejoin: miter"/>
   </g>
   <g id="patch_12">
    <path d="M 614.314286 528.028676 
L 646.2 528.028676 
L 646.2 523.746113 
L 614.314286 523.746113 
L 614.314286 528.028676 
z
" clip-path="url(#pe3a604f081)" style="fill: none; stroke: #000000; stroke-linejoin: miter"/>
   </g>
   <g id="patch_13">
    <path d="M 914.04 287.605588 
L 945.925714 287.605588 
L 945.925714 283.323025 
L 914.04 283.323025 
L 914.04 287.605588 
z
" clip-path="url(#pe3a604f081)" style="fill: none; stroke: #000000; stroke-linejoin: miter"/>
   </g>
   <g id="patch_14">
    <path d="M 694.028571 515.609244 
L 725.914286 515.609244 
L 725.914286 511.326681 
L 694.028571 511.326681 
L 694.028571 515.609244 
z
" clip-path="url(#pe3a604f081)" style="fill: none; stroke: #000000; stroke-linejoin: miter"/>
   </g>
   <g id="patch_15">
    <path d="M 548.310857 470.385378 
L 580.196571 470.385378 
L 580.196571 466.102815 
L 548.310857 466.102815 
L 548.310857 470.385378 
z
" clip-path="url(#pe3a604f081)" style="fill: none; stroke: #000000; stroke-linejoin: miter"/>
   </g>
   <g id="patch_16">
    <path d="M 427.782857 331.544685 
L 459.668571 331.544685 
L 459.668571 327.262122 
L 427.782857 327.262122 
L 427.782857 331.544685 
z
" clip-path="url(#pe3a604f081)" style="fill: none; stroke: #000000; stroke-linejoin: miter"/>
   </g>
   <g id="patch_17">
    <path d="M 580.515429 341.39458 
L 612.401143 341.39458 
L 612.401143 337.112017 
L 580.515429 337.112017 
L 580.515429 341.39458 
z
" clip-path="url(#pe3a604f081)" style="fill: none; stroke: #000000; stroke-linejoin: miter"/>
   </g>
   <g id="patch_18">
    <path d="M 624.517714 483.746975 
L 656.403429 483.746975 
L 656.403429 479.464412 
L 624.517714 479.464412 
L 624.517714 483.746975 
z
" clip-path="url(#pe3a604f081)" style="fill: none; stroke: #000000; stroke-linejoin: miter"/>
   </g>
   <g id="patch_19">
    <path d="M 230.729143 489.485609 
L 262.614857 489.485609 
L 262.614857 485.203046 
L 230.729143 485.203046 
L 230.729143 489.485609 
z
" clip-path="url(#pe3a604f081)" style="fill: none; stroke: #000000; stroke-linejoin: miter"/>
   </g>
   <g id="patch_20">
    <path d="M 890.763429 144.567983 
L 922.649143 144.567983 
L 922.649143 140.28542 
L 890.763429 140.28542 
L 890.763429 144.567983 
z
" clip-path="url(#pe3a604f081)" style="fill: none; stroke: #000000; stroke-linejoin: miter"/>
   </g>
   <g id="patch_21">
    <path d="M 667.563429 131.120735 
L 699.449143 131.120735 
L 699.449143 126.838172 
L 667.563429 126.838172 
L 667.563429 131.120735 
z
" clip-path="url(#pe3a604f081)" style="fill: none; stroke: #000000; stroke-linejoin: miter"/>
   </g>
   <g id="patch_22">
    <path d="M 342.329143 474.068382 
L 374.214857 474.068382 
L 374.214857 469.785819 
L 342.329143 469.785819 
L 342.329143 474.068382 
z
" clip-path="url(#pe3a604f081)" style="fill: none; stroke: #000000; stroke-linejoin: miter"/>
   </g>
   <g id="patch_23">
    <path d="M 780.438857 411.628613 
L 812.324571 411.628613 
L 812.324571 407.34605 
L 780.438857 407.34605 
L 780.438857 411.628613 
z
" clip-path="url(#pe3a604f081)" style="fill: none; stroke: #000000; stroke-linejoin: miter"/>
   </g>
   <g id="patch_24">
    <path d="M 729.421714 422.848929 
L 761.307429 422.848929 
L 761.307429 418.566366 
L 729.421714 418.566366 
L 729.421714 422.848929 
z
" clip-path="url(#pe3a604f081)" style="fill: none; stroke: #000000; stroke-linejoin: miter"/>
   </g>
   <g id="patch_25">
    <path d="M 778.525714 347.647122 
L 810.411429 347.647122 
L 810.411429 343.364559 
L 778.525714 343.364559 
L 778.525714 347.647122 
z
" clip-path="url(#pe3a604f081)" style="fill: none; stroke: #000000; stroke-linejoin: miter"/>
   </g>
   <g id="patch_26">
    <path d="M 781.076571 524.85958 
L 812.962286 524.85958 
L 812.962286 520.577017 
L 781.076571 520.577017 
L 781.076571 524.85958 
z
" clip-path="url(#pe3a604f081)" style="fill: none; stroke: #000000; stroke-linejoin: miter"/>
   </g>
   <g id="patch_27">
    <path d="M 702 384.22021 
L 733.885714 384.22021 
L 733.885714 379.937647 
L 702 379.937647 
L 702 384.22021 
z
" clip-path="url(#pe3a604f081)" style="fill: none; stroke: #000000; stroke-linejoin: miter"/>
   </g>
   <g id="patch_28">
    <path d="M 703.594286 553.724055 
L 735.48 553.724055 
L 735.48 549.441492 
L 703.594286 549.441492 
L 703.594286 553.724055 
z
" clip-path="url(#pe3a604f081)" style="fill: none; stroke: #000000; stroke-linejoin: miter"/>
   </g>
   <g id="patch_29">
    <path d="M 586.892571 519.634853 
L 618.778286 519.634853 
L 618.778286 515.35229 
L 586.892571 515.35229 
L 586.892571 519.634853 
z
" clip-path="url(#pe3a604f081)" style="fill: none; stroke: #000000; stroke-linejoin: miter"/>
   </g>
   <g id="patch_30">
    <path d="M 713.16 501.562437 
L 745.045714 501.562437 
L 745.045714 497.279874 
L 713.16 497.279874 
L 713.16 501.562437 
z
" clip-path="url(#pe3a604f081)" style="fill: none; stroke: #000000; stroke-linejoin: miter"/>
   </g>
   <g id="patch_31">
    <path d="M 847.717714 161.612584 
L 879.603429 161.612584 
L 879.603429 157.330021 
L 847.717714 157.330021 
L 847.717714 161.612584 
z
" clip-path="url(#pe3a604f081)" style="fill: none; stroke: #000000; stroke-linejoin: miter"/>
   </g>
   <g id="patch_32">
    <path d="M 384.737143 343.107605 
L 416.622857 343.107605 
L 416.622857 338.825042 
L 384.737143 338.825042 
L 384.737143 343.107605 
z
" clip-path="url(#pe3a604f081)" style="fill: none; stroke: #000000; stroke-linejoin: miter"/>
   </g>
   <g id="patch_33">
    <path d="M 580.196571 429.701029 
L 612.082286 429.701029 
L 612.082286 425.418466 
L 580.196571 425.418466 
L 580.196571 429.701029 
z
" clip-path="url(#pe3a604f081)" style="fill: none; stroke: #000000; stroke-linejoin: miter"/>
   </g>
   <g id="patch_34">
    <path d="M 297.370286 348.503634 
L 329.256 348.503634 
L 329.256 344.221071 
L 297.370286 344.221071 
L 297.370286 348.503634 
z
" clip-path="url(#pe3a604f081)" style="fill: none; stroke: #000000; stroke-linejoin: miter"/>
   </g>
   <g id="patch_35">
    <path d="M 410.245714 396.725294 
L 442.131429 396.725294 
L 442.131429 392.442731 
L 410.245714 392.442731 
L 410.245714 396.725294 
z
" clip-path="url(#pe3a604f081)" style="fill: none; stroke: #000000; stroke-linejoin: miter"/>
   </g>
   <g id="patch_36">
    <path d="M 917.866286 124.868193 
L 949.752 124.868193 
L 949.752 120.58563 
L 917.866286 120.58563 
L 917.866286 124.868193 
z
" clip-path="url(#pe3a604f081)" style="fill: none; stroke: #000000; stroke-linejoin: miter"/>
   </g>
   <g id="patch_37">
    <path d="M 842.934857 335.655945 
L 874.820571 335.655945 
L 874.820571 331.373382 
L 842.934857 331.373382 
L 842.934857 335.655945 
z
" clip-path="url(#pe3a604f081)" style="fill: none; stroke: #000000; stroke-linejoin: miter"/>
   </g>
   <g id="patch_38">
    <path d="M 329.893714 466.102815 
L 361.779429 466.102815 
L 361.779429 461.820252 
L 329.893714 461.820252 
L 329.893714 466.102815 
z
" clip-path="url(#pe3a604f081)" style="fill: none; stroke: #000000; stroke-linejoin: miter"/>
   </g>
   <g id="patch_39">
    <path d="M 753.336 530.769517 
L 785.221714 530.769517 
L 785.221714 526.486954 
L 753.336 526.486954 
L 753.336 530.769517 
z
" clip-path="url(#pe3a604f081)" style="fill: none; stroke: #000000; stroke-linejoin: miter"/>
   </g>
   <g id="patch_40">
    <path d="M 650.982857 492.22645 
L 682.868571 492.22645 
L 682.868571 487.943887 
L 650.982857 487.943887 
L 650.982857 492.22645 
z
" clip-path="url(#pe3a604f081)" style="fill: none; stroke: #000000; stroke-linejoin: miter"/>
   </g>
   <g id="patch_41">
    <path d="M 378.36 363.15 
L 410.245714 363.15 
L 410.245714 358.867437 
L 378.36 358.867437 
L 378.36 363.15 
z
" clip-path="url(#pe3a604f081)" style="fill: none; stroke: #000000; stroke-linejoin: miter"/>
   </g>
   <g id="patch_42">
    <path d="M 703.913143 194.673971 
L 735.798857 194.673971 
L 735.798857 190.391408 
L 703.913143 190.391408 
L 703.913143 194.673971 
z
" clip-path="url(#pe3a604f081)" style="fill: none; stroke: #000000; stroke-linejoin: miter"/>
   </g>
   <g id="patch_43">
    <path d="M 437.667429 429.358424 
L 469.553143 429.358424 
L 469.553143 425.075861 
L 437.667429 425.075861 
L 437.667429 429.358424 
z
" clip-path="url(#pe3a604f081)" style="fill: none; stroke: #000000; stroke-linejoin: miter"/>
   </g>
   <g id="patch_44">
    <path d="M 471.147429 415.311618 
L 503.033143 415.311618 
L 503.033143 411.029055 
L 471.147429 411.029055 
L 471.147429 415.311618 
z
" clip-path="url(#pe3a604f081)" style="fill: none; stroke: #000000; stroke-linejoin: miter"/>
   </g>
   <g id="patch_45">
    <path d="M 499.844571 357.925273 
L 531.730286 357.925273 
L 531.730286 353.64271 
L 499.844571 353.64271 
L 499.844571 357.925273 
z
" clip-path="url(#pe3a604f081)" style="fill: none; stroke: #000000; stroke-linejoin: miter"/>
   </g>
   <g id="patch_46">
    <path d="M 374.214857 224.651912 
L 406.100571 224.651912 
L 406.100571 220.369349 
L 374.214857 220.369349 
L 374.214857 224.651912 
z
" clip-path="url(#pe3a604f081)" style="fill: none; stroke: #000000; stroke-linejoin: miter"/>
   </g>
   <g id="patch_47">
    <path d="M 532.049143 279.982626 
L 563.934857 279.982626 
L 563.934857 275.700063 
L 532.049143 275.700063 
L 532.049143 279.982626 
z
" clip-path="url(#pe3a604f081)" style="fill: none; stroke: #000000; stroke-linejoin: miter"/>
   </g>
   <g id="patch_48">
    <path d="M 661.505143 534.709475 
L 693.390857 534.709475 
L 693.390857 530.426912 
L 661.505143 530.426912 
L 661.505143 534.709475 
z
" clip-path="url(#pe3a604f081)" style="fill: none; stroke: #000000; stroke-linejoin: miter"/>
   </g>
   <g id="patch_49">
    <path d="M 805.947429 441.692206 
L 837.833143 441.692206 
L 837.833143 437.409643 
L 805.947429 437.409643 
L 805.947429 441.692206 
z
" clip-path="url(#pe3a604f081)" style="fill: none; stroke: #000000; stroke-linejoin: miter"/>
   </g>
   <g id="patch_50">
    <path d="M 770.554286 495.224244 
L 802.44 495.224244 
L 802.44 490.941681 
L 770.554286 490.941681 
L 770.554286 495.224244 
z
" clip-path="url(#pe3a604f081)" style="fill: none; stroke: #000000; stroke-linejoin: miter"/>
   </g>
   <g id="patch_51">
    <path d="M 623.88 359.980903 
L 655.765714 359.980903 
L 655.765714 355.69834 
L 623.88 355.69834 
L 623.88 359.980903 
z
" clip-path="url(#pe3a604f081)" style="fill: none; stroke: #000000; stroke-linejoin: miter"/>
   </g>
   <g id="patch_52">
    <path d="M 706.782857 463.875882 
L 738.668571 463.875882 
L 738.668571 459.593319 
L 706.782857 459.593319 
L 706.782857 463.875882 
z
" clip-path="url(#pe3a604f081)" style="fill: none; stroke: #000000; stroke-linejoin: miter"/>
   </g>
   <g id="patch_53">
    <path d="M 412.796571 373.856408 
L 444.682286 373.856408 
L 444.682286 369.573845 
L 412.796571 369.573845 
L 412.796571 373.856408 
z
" clip-path="url(#pe3a604f081)" style="fill: none; stroke: #000000; stroke-linejoin: miter"/>
   </g>
   <g id="patch_54">
    <path d="M 637.272 426.446282 
L 669.157714 426.446282 
L 669.157714 422.163718 
L 637.272 422.163718 
L 637.272 426.446282 
z
" clip-path="url(#pe3a604f081)" style="fill: none; stroke: #000000; stroke-linejoin: miter"/>
   </g>
   <g id="patch_55">
    <path d="M 269.948571 468.929307 
L 301.834286 468.929307 
L 301.834286 464.646744 
L 269.948571 464.646744 
L 269.948571 468.929307 
z
" clip-path="url(#pe3a604f081)" style="fill: none; stroke: #000000; stroke-linejoin: miter"/>
   </g>
   <g id="patch_56">
    <path d="M 317.777143 453.255126 
L 349.662857 453.255126 
L 349.662857 448.972563 
L 317.777143 448.972563 
L 317.777143 453.255126 
z
" clip-path="url(#pe3a604f081)" style="fill: none; stroke: #000000; stroke-linejoin: miter"/>
   </g>
   <g id="patch_57">
    <path d="M 853.138286 126.495567 
L 885.024 126.495567 
L 885.024 122.213004 
L 853.138286 122.213004 
L 853.138286 126.495567 
z
" clip-path="url(#pe3a604f081)" style="fill: none; stroke: #000000; stroke-linejoin: miter"/>
   </g>
   <g id="patch_58">
    <path d="M 719.537143 527.172164 
L 751.422857 527.172164 
L 751.422857 522.889601 
L 719.537143 522.889601 
L 719.537143 527.172164 
z
" clip-path="url(#pe3a604f081)" style="fill: none; stroke: #000000; stroke-linejoin: miter"/>
   </g>
   <g id="patch_59">
    <path d="M 418.217143 469.871471 
L 450.102857 469.871471 
L 450.102857 465.588908 
L 418.217143 465.588908 
L 418.217143 469.871471 
z
" clip-path="url(#pe3a604f081)" style="fill: none; stroke: #000000; stroke-linejoin: miter"/>
   </g>
   <g id="patch_60">
    <path d="M 428.420571 491.198634 
L 460.306286 491.198634 
L 460.306286 486.916071 
L 428.420571 486.916071 
L 428.420571 491.198634 
z
" clip-path="url(#pe3a604f081)" style="fill: none; stroke: #000000; stroke-linejoin: miter"/>
   </g>
   <g id="patch_61">
    <path d="M 653.852571 535.394685 
L 685.738286 535.394685 
L 685.738286 531.112122 
L 653.852571 531.112122 
L 653.852571 535.394685 
z
" clip-path="url(#pe3a604f081)" style="fill: none; stroke: #000000; stroke-linejoin: miter"/>
   </g>
   <g id="patch_62">
    <path d="M 589.124571 140.542374 
L 621.010286 140.542374 
L 621.010286 136.259811 
L 589.124571 136.259811 
L 589.124571 140.542374 
z
" clip-path="url(#pe3a604f081)" style="fill: none; stroke: #000000; stroke-linejoin: miter"/>
   </g>
   <g id="patch_63">
    <path d="M 766.409143 407.945609 
L 798.294857 407.945609 
L 798.294857 403.663046 
L 766.409143 403.663046 
L 766.409143 407.945609 
z
" clip-path="url(#pe3a604f081)" style="fill: none; stroke: #000000; stroke-linejoin: miter"/>
   </g>
   <g id="patch_64">
    <path d="M 633.764571 484.603487 
L 665.650286 484.603487 
L 665.650286 480.320924 
L 633.764571 480.320924 
L 633.764571 484.603487 
z
" clip-path="url(#pe3a604f081)" style="fill: none; stroke: #000000; stroke-linejoin: miter"/>
   </g>
   <g id="patch_65">
    <path d="M 642.054857 295.314202 
L 673.940571 295.314202 
L 673.940571 291.031639 
L 642.054857 291.031639 
L 642.054857 295.314202 
z
" clip-path="url(#pe3a604f081)" style="fill: none; stroke: #000000; stroke-linejoin: miter"/>
   </g>
   <g id="patch_66">
    <path d="M 563.297143 502.161996 
L 595.182857 502.161996 
L 595.182857 497.879433 
L 563.297143 497.879433 
L 563.297143 502.161996 
z
" clip-path="url(#pe3a604f081)" style="fill: none; stroke: #000000; stroke-linejoin: miter"/>
   </g>
   <g id="patch_67">
    <path d="M 651.620571 457.280735 
L 683.506286 457.280735 
L 683.506286 452.998172 
L 651.620571 452.998172 
L 651.620571 457.280735 
z
" clip-path="url(#pe3a604f081)" style="fill: none; stroke: #000000; stroke-linejoin: miter"/>
   </g>
   <g id="patch_68">
    <path d="M 533.643429 380.365903 
L 565.529143 380.365903 
L 565.529143 376.08334 
L 533.643429 376.08334 
L 533.643429 380.365903 
z
" clip-path="url(#pe3a604f081)" style="fill: none; stroke: #000000; stroke-linejoin: miter"/>
   </g>
   <g id="patch_69">
    <path d="M 689.245714 557.664013 
L 721.131429 557.664013 
L 721.131429 553.38145 
L 689.245714 553.38145 
L 689.245714 557.664013 
z
" clip-path="url(#pe3a604f081)" style="fill: none; stroke: #000000; stroke-linejoin: miter"/>
   </g>
   <g id="patch_70">
    <path d="M 647.794286 407.260399 
L 679.68 407.260399 
L 679.68 402.977836 
L 647.794286 402.977836 
L 647.794286 407.260399 
z
" clip-path="url(#pe3a604f081)" style="fill: none; stroke: #000000; stroke-linejoin: miter"/>
   </g>
   <g id="patch_71">
    <path d="M 866.849143 169.4925 
L 898.734857 169.4925 
L 898.734857 165.209937 
L 866.849143 165.209937 
L 866.849143 169.4925 
z
" clip-path="url(#pe3a604f081)" style="fill: none; stroke: #000000; stroke-linejoin: miter"/>
   </g>
   <g id="patch_72">
    <path d="M 675.853714 440.664391 
L 707.739429 440.664391 
L 707.739429 436.381828 
L 675.853714 436.381828 
L 675.853714 440.664391 
z
" clip-path="url(#pe3a604f081)" style="fill: none; stroke: #000000; stroke-linejoin: miter"/>
   </g>
   <g id="patch_73">
    <path d="M 767.046857 350.90187 
L 798.932571 350.90187 
L 798.932571 346.619307 
L 767.046857 346.619307 
L 767.046857 350.90187 
z
" clip-path="url(#pe3a604f081)" style="fill: none; stroke: #000000; stroke-linejoin: miter"/>
   </g>
   <g id="patch_74">
    <path d="M 701.681143 349.53145 
L 733.566857 349.53145 
L 733.566857 345.248887 
L 701.681143 345.248887 
L 701.681143 349.53145 
z
" clip-path="url(#pe3a604f081)" style="fill: none; stroke: #000000; stroke-linejoin: miter"/>
   </g>
   <g id="patch_75">
    <path d="M 383.461714 376.425945 
L 415.347429 376.425945 
L 415.347429 372.143382 
L 383.461714 372.143382 
L 383.461714 376.425945 
z
" clip-path="url(#pe3a604f081)" style="fill: none; stroke: #000000; stroke-linejoin: miter"/>
   </g>
   <g id="patch_76">
    <path d="M 451.378286 347.647122 
L 483.264 347.647122 
L 483.264 343.364559 
L 451.378286 343.364559 
L 451.378286 347.647122 
z
" clip-path="url(#pe3a604f081)" style="fill: none; stroke: #000000; stroke-linejoin: miter"/>
   </g>
   <g id="patch_77">
    <path d="M 775.337143 258.998067 
L 807.222857 258.998067 
L 807.222857 254.715504 
L 775.337143 254.715504 
L 775.337143 258.998067 
z
" clip-path="url(#pe3a604f081)" style="fill: none; stroke: #000000; stroke-linejoin: miter"/>
   </g>
   <g id="patch_78">
    <path d="M 470.190857 347.047563 
L 502.076571 347.047563 
L 502.076571 342.765 
L 470.190857 342.765 
L 470.190857 347.047563 
z
" clip-path="url(#pe3a604f081)" style="fill: none; stroke: #000000; stroke-linejoin: miter"/>
   </g>
   <g id="patch_79">
    <path d="M 380.592 429.786681 
L 412.477714 429.786681 
L 412.477714 425.504118 
L 380.592 425.504118 
L 380.592 429.786681 
z
" clip-path="url(#pe3a604f081)" style="fill: none; stroke: #000000; stroke-linejoin: miter"/>
   </g>
   <g id="patch_80">
    <path d="M 581.153143 380.879811 
L 613.038857 380.879811 
L 613.038857 376.597248 
L 581.153143 376.597248 
L 581.153143 380.879811 
z
" clip-path="url(#pe3a604f081)" style="fill: none; stroke: #000000; stroke-linejoin: miter"/>
   </g>
   <g id="patch_81">
    <path d="M 864.617143 127.35208 
L 896.502857 127.35208 
L 896.502857 123.069517 
L 864.617143 123.069517 
L 864.617143 127.35208 
z
" clip-path="url(#pe3a604f081)" style="fill: none; stroke: #000000; stroke-linejoin: miter"/>
   </g>
   <g id="patch_82">
    <path d="M 667.244571 527.000861 
L 699.130286 527.000861 
L 699.130286 522.718298 
L 667.244571 522.718298 
L 667.244571 527.000861 
z
" clip-path="url(#pe3a604f081)" style="fill: none; stroke: #000000; stroke-linejoin: miter"/>
   </g>
   <g id="patch_83">
    <path d="M 681.912 287.262983 
L 713.797714 287.262983 
L 713.797714 282.98042 
L 681.912 282.98042 
L 681.912 287.262983 
z
" clip-path="url(#pe3a604f081)" style="fill: none; stroke: #000000; stroke-linejoin: miter"/>
   </g>
   <g id="patch_84">
    <path d="M 712.203429 541.732878 
L 744.089143 541.732878 
L 744.089143 537.450315 
L 712.203429 537.450315 
L 712.203429 541.732878 
z
" clip-path="url(#pe3a604f081)" style="fill: none; stroke: #000000; stroke-linejoin: miter"/>
   </g>
   <g id="patch_85">
    <path d="M 369.750857 480.577878 
L 401.636571 480.577878 
L 401.636571 476.295315 
L 369.750857 476.295315 
L 369.750857 480.577878 
z
" clip-path="url(#pe3a604f081)" style="fill: none; stroke: #000000; stroke-linejoin: miter"/>
   </g>
   <g id="patch_86">
    <path d="M 829.224 456.93813 
L 861.109714 456.93813 
L 861.109714 452.655567 
L 829.224 452.655567 
L 829.224 456.93813 
z
" clip-path="url(#pe3a604f081)" style="fill: none; stroke: #000000; stroke-linejoin: miter"/>
   </g>
   <g id="patch_87">
    <path d="M 218.612571 468.244097 
L 250.498286 468.244097 
L 250.498286 463.961534 
L 218.612571 463.961534 
L 218.612571 468.244097 
z
" clip-path="url(#pe3a604f081)" style="fill: none; stroke: #000000; stroke-linejoin: miter"/>
   </g>
   <g id="patch_88">
    <path d="M 572.544 124.011681 
L 604.429714 124.011681 
L 604.429714 119.729118 
L 572.544 119.729118 
L 572.544 124.011681 
z
" clip-path="url(#pe3a604f081)" style="fill: none; stroke: #000000; stroke-linejoin: miter"/>
   </g>
   <g id="patch_89">
    <path d="M 484.539429 267.648845 
L 516.425143 267.648845 
L 516.425143 263.366282 
L 484.539429 263.366282 
L 484.539429 267.648845 
z
" clip-path="url(#pe3a604f081)" style="fill: none; stroke: #000000; stroke-linejoin: miter"/>
   </g>
   <g id="patch_90">
    <path d="M 444.363429 154.160924 
L 476.249143 154.160924 
L 476.249143 149.878361 
L 444.363429 149.878361 
L 444.363429 154.160924 
z
" clip-path="url(#pe3a604f081)" style="fill: none; stroke: #000000; stroke-linejoin: miter"/>
   </g>
   <g id="patch_91">
    <path d="M 423.318857 169.835105 
L 455.204571 169.835105 
L 455.204571 165.552542 
L 423.318857 165.552542 
L 423.318857 169.835105 
z
" clip-path="url(#pe3a604f081)" style="fill: none; stroke: #000000; stroke-linejoin: miter"/>
   </g>
   <g id="patch_92">
    <path d="M 537.469714 135.48895 
L 569.355429 135.48895 
L 569.355429 131.206387 
L 537.469714 131.206387 
L 537.469714 135.48895 
z
" clip-path="url(#pe3a604f081)" style="fill: none; stroke: #000000; stroke-linejoin: miter"/>
   </g>
   <g id="patch_93">
    <path d="M 551.499429 130.863782 
L 583.385143 130.863782 
L 583.385143 126.581218 
L 551.499429 126.581218 
L 551.499429 130.863782 
z
" clip-path="url(#pe3a604f081)" style="fill: none; stroke: #000000; stroke-linejoin: miter"/>
   </g>
   <g id="patch_94">
    <path d="M 668.52 470.984937 
L 700.405714 470.984937 
L 700.405714 466.702374 
L 668.52 466.702374 
L 668.52 470.984937 
z
" clip-path="url(#pe3a604f081)" style="fill: none; stroke: #000000; stroke-linejoin: miter"/>
   </g>
   <g id="patch_95">
    <path d="M 389.838857 171.719433 
L 421.724571 171.719433 
L 421.724571 167.43687 
L 389.838857 167.43687 
L 389.838857 171.719433 
z
" clip-path="url(#pe3a604f081)" style="fill: none; stroke: #000000; stroke-linejoin: miter"/>
   </g>
   <g id="patch_96">
    <path d="M 434.478857 170.349013 
L 466.364571 170.349013 
L 466.364571 166.06645 
L 434.478857 166.06645 
L 434.478857 170.349013 
z
" clip-path="url(#pe3a604f081)" style="fill: none; stroke: #000000; stroke-linejoin: miter"/>
   </g>
   <g id="patch_97">
    <path d="M 316.820571 335.741597 
L 348.706286 335.741597 
L 348.706286 331.459034 
L 316.820571 331.459034 
L 316.820571 335.741597 
z
" clip-path="url(#pe3a604f081)" style="fill: none; stroke: #000000; stroke-linejoin: miter"/>
   </g>
   <g id="patch_98">
    <path d="M 381.867429 319.125252 
L 413.753143 319.125252 
L 413.753143 314.842689 
L 381.867429 314.842689 
L 381.867429 319.125252 
z
" clip-path="url(#pe3a604f081)" style="fill: none; stroke: #000000; stroke-linejoin: miter"/>
   </g>
   <g id="patch_99">
    <path d="M 678.404571 216.857647 
L 710.290286 216.857647 
L 710.290286 212.575084 
L 678.404571 212.575084 
L 678.404571 216.857647 
z
" clip-path="url(#pe3a604f081)" style="fill: none; stroke: #000000; stroke-linejoin: miter"/>
   </g>
   <g id="patch_100">
    <path d="M 570.312 527.60042 
L 602.197714 527.60042 
L 602.197714 523.317857 
L 570.312 523.317857 
L 570.312 527.60042 
z
" clip-path="url(#pe3a604f081)" style="fill: none; stroke: #000000; stroke-linejoin: miter"/>
   </g>
   <g id="patch_101">
    <path d="M 516.106286 133.176366 
L 547.992 133.176366 
L 547.992 128.893803 
L 516.106286 128.893803 
L 516.106286 133.176366 
z
" clip-path="url(#pe3a604f081)" style="fill: none; stroke: #000000; stroke-linejoin: miter"/>
   </g>
   <g id="patch_102">
    <path d="M 585.298286 339.081996 
L 617.184 339.081996 
L 617.184 334.799433 
L 585.298286 334.799433 
L 585.298286 339.081996 
z
" clip-path="url(#pe3a604f081)" style="fill: none; stroke: #000000; stroke-linejoin: miter"/>
   </g>
   <g id="patch_103">
    <path d="M 575.413714 271.503151 
L 607.299429 271.503151 
L 607.299429 267.220588 
L 575.413714 267.220588 
L 575.413714 271.503151 
z
" clip-path="url(#pe3a604f081)" style="fill: none; stroke: #000000; stroke-linejoin: miter"/>
   </g>
   <g id="patch_104">
    <path d="M 779.801143 125.639055 
L 811.686857 125.639055 
L 811.686857 121.356492 
L 779.801143 121.356492 
L 779.801143 125.639055 
z
" clip-path="url(#pe3a604f081)" style="fill: none; stroke: #000000; stroke-linejoin: miter"/>
   </g>
   <g id="patch_105">
    <path d="M 780.12 381.993277 
L 812.005714 381.993277 
L 812.005714 377.710714 
L 780.12 377.710714 
L 780.12 381.993277 
z
" clip-path="url(#pe3a604f081)" style="fill: none; stroke: #000000; stroke-linejoin: miter"/>
   </g>
   <g id="patch_106">
    <path d="M 578.283429 402.635231 
L 610.169143 402.635231 
L 610.169143 398.352668 
L 578.283429 398.352668 
L 578.283429 402.635231 
z
" clip-path="url(#pe3a604f081)" style="fill: none; stroke: #000000; stroke-linejoin: miter"/>
   </g>
   <g id="patch_107">
    <path d="M 646.837714 367.089958 
L 678.723429 367.089958 
L 678.723429 362.807395 
L 646.837714 362.807395 
L 646.837714 367.089958 
z
" clip-path="url(#pe3a604f081)" style="fill: none; stroke: #000000; stroke-linejoin: miter"/>
   </g>
   <g id="patch_108">
    <path d="M 689.245714 438.694412 
L 721.131429 438.694412 
L 721.131429 434.411849 
L 689.245714 434.411849 
L 689.245714 438.694412 
z
" clip-path="url(#pe3a604f081)" style="fill: none; stroke: #000000; stroke-linejoin: miter"/>
   </g>
   <g id="patch_109">
    <path d="M 795.106286 558.263571 
L 826.992 558.263571 
L 826.992 553.981008 
L 795.106286 553.981008 
L 795.106286 558.263571 
z
" clip-path="url(#pe3a604f081)" style="fill: none; stroke: #000000; stroke-linejoin: miter"/>
   </g>
   <g id="patch_110">
    <path d="M 831.774857 372.828592 
L 863.660571 372.828592 
L 863.660571 368.546029 
L 831.774857 368.546029 
L 831.774857 372.828592 
z
" clip-path="url(#pe3a604f081)" style="fill: none; stroke: #000000; stroke-linejoin: miter"/>
   </g>
   <g id="patch_111">
    <path d="M 299.921143 478.607899 
L 331.806857 478.607899 
L 331.806857 474.325336 
L 299.921143 474.325336 
L 299.921143 478.607899 
z
" clip-path="url(#pe3a604f081)" style="fill: none; stroke: #000000; stroke-linejoin: miter"/>
   </g>
   <g id="patch_112">
    <path d="M 731.653714 456.167269 
L 763.539429 456.167269 
L 763.539429 451.884706 
L 731.653714 451.884706 
L 731.653714 456.167269 
z
" clip-path="url(#pe3a604f081)" style="fill: none; stroke: #000000; stroke-linejoin: miter"/>
   </g>
   <g id="patch_113">
    <path d="M 577.326857 138.829349 
L 609.212571 138.829349 
L 609.212571 134.546786 
L 577.326857 134.546786 
L 577.326857 138.829349 
z
" clip-path="url(#pe3a604f081)" style="fill: none; stroke: #000000; stroke-linejoin: miter"/>
   </g>
   <g id="patch_114">
    <path d="M 769.278857 550.126702 
L 801.164571 550.126702 
L 801.164571 545.844139 
L 769.278857 545.844139 
L 769.278857 550.126702 
z
" clip-path="url(#pe3a604f081)" style="fill: none; stroke: #000000; stroke-linejoin: miter"/>
   </g>
   <g id="patch_115">
    <path d="M 443.725714 284.093887 
L 475.611429 284.093887 
L 475.611429 279.811324 
L 443.725714 279.811324 
L 443.725714 284.093887 
z
" clip-path="url(#pe3a604f081)" style="fill: none; stroke: #000000; stroke-linejoin: miter"/>
   </g>
   <g id="patch_116">
    <path d="M 524.715429 513.039706 
L 556.601143 513.039706 
L 556.601143 508.757143 
L 524.715429 508.757143 
L 524.715429 513.039706 
z
" clip-path="url(#pe3a604f081)" style="fill: none; stroke: #000000; stroke-linejoin: miter"/>
   </g>
   <g id="patch_117">
    <path d="M 704.869714 239.555231 
L 736.755429 239.555231 
L 736.755429 235.272668 
L 704.869714 235.272668 
L 704.869714 239.555231 
z
" clip-path="url(#pe3a604f081)" style="fill: none; stroke: #000000; stroke-linejoin: miter"/>
   </g>
   <g id="patch_118">
    <path d="M 694.666286 411.971218 
L 726.552 411.971218 
L 726.552 407.688655 
L 694.666286 407.688655 
L 694.666286 411.971218 
z
" clip-path="url(#pe3a604f081)" style="fill: none; stroke: #000000; stroke-linejoin: miter"/>
   </g>
   <g id="patch_119">
    <path d="M 754.930286 510.384517 
L 786.816 510.384517 
L 786.816 506.101954 
L 754.930286 506.101954 
L 754.930286 510.384517 
z
" clip-path="url(#pe3a604f081)" style="fill: none; stroke: #000000; stroke-linejoin: miter"/>
   </g>
   <g id="patch_120">
    <path d="M 782.352 383.192395 
L 814.237714 383.192395 
L 814.237714 378.909832 
L 782.352 378.909832 
L 782.352 383.192395 
z
" clip-path="url(#pe3a604f081)" style="fill: none; stroke: #000000; stroke-linejoin: miter"/>
   </g>
   <g id="patch_121">
    <path d="M 535.237714 490.427773 
L 567.123429 490.427773 
L 567.123429 486.14521 
L 535.237714 486.14521 
L 535.237714 490.427773 
z
" clip-path="url(#pe3a604f081)" style="fill: none; stroke: #000000; stroke-linejoin: miter"/>
   </g>
   <g id="patch_122">
    <path d="M 575.732571 511.754937 
L 607.618286 511.754937 
L 607.618286 507.472374 
L 575.732571 507.472374 
L 575.732571 511.754937 
z
" clip-path="url(#pe3a604f081)" style="fill: none; stroke: #000000; stroke-linejoin: miter"/>
   </g>
   <g id="patch_123">
    <path d="M 616.865143 448.030399 
L 648.750857 448.030399 
L 648.750857 443.747836 
L 616.865143 443.747836 
L 616.865143 448.030399 
z
" clip-path="url(#pe3a604f081)" style="fill: none; stroke: #000000; stroke-linejoin: miter"/>
   </g>
   <g id="patch_124">
    <path d="M 614.952 215.058971 
L 646.837714 215.058971 
L 646.837714 210.776408 
L 614.952 210.776408 
L 614.952 215.058971 
z
" clip-path="url(#pe3a604f081)" style="fill: none; stroke: #000000; stroke-linejoin: miter"/>
   </g>
   <g id="patch_125">
    <path d="M 802.121143 413.512941 
L 834.006857 413.512941 
L 834.006857 409.230378 
L 802.121143 409.230378 
L 802.121143 413.512941 
z
" clip-path="url(#pe3a604f081)" style="fill: none; stroke: #000000; stroke-linejoin: miter"/>
   </g>
   <g id="patch_126">
    <path d="M 606.980571 153.218761 
L 638.866286 153.218761 
L 638.866286 148.936197 
L 606.980571 148.936197 
L 606.980571 153.218761 
z
" clip-path="url(#pe3a604f081)" style="fill: none; stroke: #000000; stroke-linejoin: miter"/>
   </g>
   <g id="patch_127">
    <path d="M 986.420571 283.066071 
L 1018.306286 283.066071 
L 1018.306286 278.783508 
L 986.420571 278.783508 
L 986.420571 283.066071 
z
" clip-path="url(#pe3a604f081)" style="fill: none; stroke: #000000; stroke-linejoin: miter"/>
   </g>
   <g id="patch_128">
    <path d="M 628.025143 128.122941 
L 659.910857 128.122941 
L 659.910857 123.840378 
L 628.025143 123.840378 
L 628.025143 128.122941 
z
" clip-path="url(#pe3a604f081)" style="fill: none; stroke: #000000; stroke-linejoin: miter"/>
   </g>
   <g id="patch_129">
    <path d="M 632.808 529.056492 
L 664.693714 529.056492 
L 664.693714 524.773929 
L 632.808 524.773929 
L 632.808 529.056492 
z
" clip-path="url(#pe3a604f081)" style="fill: none; stroke: #000000; stroke-linejoin: miter"/>
   </g>
   <g id="patch_130">
    <path d="M 659.273143 483.575672 
L 691.158857 483.575672 
L 691.158857 479.293109 
L 659.273143 479.293109 
L 659.273143 483.575672 
z
" clip-path="url(#pe3a604f081)" style="fill: none; stroke: #000000; stroke-linejoin: miter"/>
   </g>
   <g id="matplotlib.axis_1">
    <g id="xtick_1">
     <g id="line2d_1">
      <defs>
       <path id="mb7eeef2111" d="M 0 0 
L 0 3.5 
" style="stroke: #000000; stroke-width: 0.8"/>
      </defs>
      <g>
       <use xlink:href="#mb7eeef2111" x="175.885714" y="567" style="stroke: #000000; stroke-width: 0.8"/>
      </g>
     </g>
     <g id="text_1">
      <!-- 2500 -->
      <g transform="translate(163.160714 581.598438)scale(0.1 -0.1)">
       <defs>
        <path id="DejaVuSans-32" d="M 1228 531 
L 3431 531 
L 3431 0 
L 469 0 
L 469 531 
Q 828 903 1448 1529 
Q 2069 2156 2228 2338 
Q 2531 2678 2651 2914 
Q 2772 3150 2772 3378 
Q 2772 3750 2511 3984 
Q 2250 4219 1831 4219 
Q 1534 4219 1204 4116 
Q 875 4013 500 3803 
L 500 4441 
Q 881 4594 1212 4672 
Q 1544 4750 1819 4750 
Q 2544 4750 2975 4387 
Q 3406 4025 3406 3419 
Q 3406 3131 3298 2873 
Q 3191 2616 2906 2266 
Q 2828 2175 2409 1742 
Q 1991 1309 1228 531 
z
" transform="scale(0.015625)"/>
        <path id="DejaVuSans-35" d="M 691 4666 
L 3169 4666 
L 3169 4134 
L 1269 4134 
L 1269 2991 
Q 1406 3038 1543 3061 
Q 1681 3084 1819 3084 
Q 2600 3084 3056 2656 
Q 3513 2228 3513 1497 
Q 3513 744 3044 326 
Q 2575 -91 1722 -91 
Q 1428 -91 1123 -41 
Q 819 9 494 109 
L 494 744 
Q 775 591 1075 516 
Q 1375 441 1709 441 
Q 2250 441 2565 725 
Q 2881 1009 2881 1497 
Q 2881 1984 2565 2268 
Q 2250 2553 1709 2553 
Q 1456 2553 1204 2497 
Q 953 2441 691 2322 
L 691 4666 
z
" transform="scale(0.015625)"/>
        <path id="DejaVuSans-30" d="M 2034 4250 
Q 1547 4250 1301 3770 
Q 1056 3291 1056 2328 
Q 1056 1369 1301 889 
Q 1547 409 2034 409 
Q 2525 409 2770 889 
Q 3016 1369 3016 2328 
Q 3016 3291 2770 3770 
Q 2525 4250 2034 4250 
z
M 2034 4750 
Q 2819 4750 3233 4129 
Q 3647 3509 3647 2328 
Q 3647 1150 3233 529 
Q 2819 -91 2034 -91 
Q 1250 -91 836 529 
Q 422 1150 422 2328 
Q 422 3509 836 4129 
Q 1250 4750 2034 4750 
z
" transform="scale(0.015625)"/>
       </defs>
       <use xlink:href="#DejaVuSans-32"/>
       <use xlink:href="#DejaVuSans-35" x="63.623047"/>
       <use xlink:href="#DejaVuSans-30" x="127.246094"/>
       <use xlink:href="#DejaVuSans-30" x="190.869141"/>
      </g>
     </g>
    </g>
    <g id="xtick_2">
     <g id="line2d_2">
      <g>
       <use xlink:href="#mb7eeef2111" x="335.314286" y="567" style="stroke: #000000; stroke-width: 0.8"/>
      </g>
     </g>
     <g id="text_2">
      <!-- 3000 -->
      <g transform="translate(322.589286 581.598438)scale(0.1 -0.1)">
       <defs>
        <path id="DejaVuSans-33" d="M 2597 2516 
Q 3050 2419 3304 2112 
Q 3559 1806 3559 1356 
Q 3559 666 3084 287 
Q 2609 -91 1734 -91 
Q 1441 -91 1130 -33 
Q 819 25 488 141 
L 488 750 
Q 750 597 1062 519 
Q 1375 441 1716 441 
Q 2309 441 2620 675 
Q 2931 909 2931 1356 
Q 2931 1769 2642 2001 
Q 2353 2234 1838 2234 
L 1294 2234 
L 1294 2753 
L 1863 2753 
Q 2328 2753 2575 2939 
Q 2822 3125 2822 3475 
Q 2822 3834 2567 4026 
Q 2313 4219 1838 4219 
Q 1578 4219 1281 4162 
Q 984 4106 628 3988 
L 628 4550 
Q 988 4650 1302 4700 
Q 1616 4750 1894 4750 
Q 2613 4750 3031 4423 
Q 3450 4097 3450 3541 
Q 3450 3153 3228 2886 
Q 3006 2619 2597 2516 
z
" transform="scale(0.015625)"/>
       </defs>
       <use xlink:href="#DejaVuSans-33"/>
       <use xlink:href="#DejaVuSans-30" x="63.623047"/>
       <use xlink:href="#DejaVuSans-30" x="127.246094"/>
       <use xlink:href="#DejaVuSans-30" x="190.869141"/>
      </g>
     </g>
    </g>
    <g id="xtick_3">
     <g id="line2d_3">
      <g>
       <use xlink:href="#mb7eeef2111" x="494.742857" y="567" style="stroke: #000000; stroke-width: 0.8"/>
      </g>
     </g>
     <g id="text_3">
      <!-- 3500 -->
      <g transform="translate(482.017857 581.598438)scale(0.1 -0.1)">
       <use xlink:href="#DejaVuSans-33"/>
       <use xlink:href="#DejaVuSans-35" x="63.623047"/>
       <use xlink:href="#DejaVuSans-30" x="127.246094"/>
       <use xlink:href="#DejaVuSans-30" x="190.869141"/>
      </g>
     </g>
    </g>
    <g id="xtick_4">
     <g id="line2d_4">
      <g>
       <use xlink:href="#mb7eeef2111" x="654.171429" y="567" style="stroke: #000000; stroke-width: 0.8"/>
      </g>
     </g>
     <g id="text_4">
      <!-- 4000 -->
      <g transform="translate(641.446429 581.598438)scale(0.1 -0.1)">
       <defs>
        <path id="DejaVuSans-34" d="M 2419 4116 
L 825 1625 
L 2419 1625 
L 2419 4116 
z
M 2253 4666 
L 3047 4666 
L 3047 1625 
L 3713 1625 
L 3713 1100 
L 3047 1100 
L 3047 0 
L 2419 0 
L 2419 1100 
L 313 1100 
L 313 1709 
L 2253 4666 
z
" transform="scale(0.015625)"/>
       </defs>
       <use xlink:href="#DejaVuSans-34"/>
       <use xlink:href="#DejaVuSans-30" x="63.623047"/>
       <use xlink:href="#DejaVuSans-30" x="127.246094"/>
       <use xlink:href="#DejaVuSans-30" x="190.869141"/>
      </g>
     </g>
    </g>
    <g id="xtick_5">
     <g id="line2d_5">
      <g>
       <use xlink:href="#mb7eeef2111" x="813.6" y="567" style="stroke: #000000; stroke-width: 0.8"/>
      </g>
     </g>
     <g id="text_5">
      <!-- 4500 -->
      <g transform="translate(800.875 581.598438)scale(0.1 -0.1)">
       <use xlink:href="#DejaVuSans-34"/>
       <use xlink:href="#DejaVuSans-35" x="63.623047"/>
       <use xlink:href="#DejaVuSans-30" x="127.246094"/>
       <use xlink:href="#DejaVuSans-30" x="190.869141"/>
      </g>
     </g>
    </g>
    <g id="xtick_6">
     <g id="line2d_6">
      <g>
       <use xlink:href="#mb7eeef2111" x="973.028571" y="567" style="stroke: #000000; stroke-width: 0.8"/>
      </g>
     </g>
     <g id="text_6">
      <!-- 5000 -->
      <g transform="translate(960.303571 581.598438)scale(0.1 -0.1)">
       <use xlink:href="#DejaVuSans-35"/>
       <use xlink:href="#DejaVuSans-30" x="63.623047"/>
       <use xlink:href="#DejaVuSans-30" x="127.246094"/>
       <use xlink:href="#DejaVuSans-30" x="190.869141"/>
      </g>
     </g>
    </g>
   </g>
   <g id="matplotlib.axis_2">
    <g id="ytick_1">
     <g id="line2d_7">
      <defs>
       <path id="md01e898b75" d="M 0 0 
L -3.5 0 
" style="stroke: #000000; stroke-width: 0.8"/>
      </defs>
      <g>
       <use xlink:href="#md01e898b75" x="144" y="489.913866" style="stroke: #000000; stroke-width: 0.8"/>
      </g>
     </g>
     <g id="text_7">
      <!-- 8000 -->
      <g transform="translate(111.55 493.713084)scale(0.1 -0.1)">
       <defs>
        <path id="DejaVuSans-38" d="M 2034 2216 
Q 1584 2216 1326 1975 
Q 1069 1734 1069 1313 
Q 1069 891 1326 650 
Q 1584 409 2034 409 
Q 2484 409 2743 651 
Q 3003 894 3003 1313 
Q 3003 1734 2745 1975 
Q 2488 2216 2034 2216 
z
M 1403 2484 
Q 997 2584 770 2862 
Q 544 3141 544 3541 
Q 544 4100 942 4425 
Q 1341 4750 2034 4750 
Q 2731 4750 3128 4425 
Q 3525 4100 3525 3541 
Q 3525 3141 3298 2862 
Q 3072 2584 2669 2484 
Q 3125 2378 3379 2068 
Q 3634 1759 3634 1313 
Q 3634 634 3220 271 
Q 2806 -91 2034 -91 
Q 1263 -91 848 271 
Q 434 634 434 1313 
Q 434 1759 690 2068 
Q 947 2378 1403 2484 
z
M 1172 3481 
Q 1172 3119 1398 2916 
Q 1625 2713 2034 2713 
Q 2441 2713 2670 2916 
Q 2900 3119 2900 3481 
Q 2900 3844 2670 4047 
Q 2441 4250 2034 4250 
Q 1625 4250 1398 4047 
Q 1172 3844 1172 3481 
z
" transform="scale(0.015625)"/>
       </defs>
       <use xlink:href="#DejaVuSans-38"/>
       <use xlink:href="#DejaVuSans-30" x="63.623047"/>
       <use xlink:href="#DejaVuSans-30" x="127.246094"/>
       <use xlink:href="#DejaVuSans-30" x="190.869141"/>
      </g>
     </g>
    </g>
    <g id="ytick_2">
     <g id="line2d_8">
      <g>
       <use xlink:href="#md01e898b75" x="144" y="404.262605" style="stroke: #000000; stroke-width: 0.8"/>
      </g>
     </g>
     <g id="text_8">
      <!-- 9000 -->
      <g transform="translate(111.55 408.061824)scale(0.1 -0.1)">
       <defs>
        <path id="DejaVuSans-39" d="M 703 97 
L 703 672 
Q 941 559 1184 500 
Q 1428 441 1663 441 
Q 2288 441 2617 861 
Q 2947 1281 2994 2138 
Q 2813 1869 2534 1725 
Q 2256 1581 1919 1581 
Q 1219 1581 811 2004 
Q 403 2428 403 3163 
Q 403 3881 828 4315 
Q 1253 4750 1959 4750 
Q 2769 4750 3195 4129 
Q 3622 3509 3622 2328 
Q 3622 1225 3098 567 
Q 2575 -91 1691 -91 
Q 1453 -91 1209 -44 
Q 966 3 703 97 
z
M 1959 2075 
Q 2384 2075 2632 2365 
Q 2881 2656 2881 3163 
Q 2881 3666 2632 3958 
Q 2384 4250 1959 4250 
Q 1534 4250 1286 3958 
Q 1038 3666 1038 3163 
Q 1038 2656 1286 2365 
Q 1534 2075 1959 2075 
z
" transform="scale(0.015625)"/>
       </defs>
       <use xlink:href="#DejaVuSans-39"/>
       <use xlink:href="#DejaVuSans-30" x="63.623047"/>
       <use xlink:href="#DejaVuSans-30" x="127.246094"/>
       <use xlink:href="#DejaVuSans-30" x="190.869141"/>
      </g>
     </g>
    </g>
    <g id="ytick_3">
     <g id="line2d_9">
      <g>
       <use xlink:href="#md01e898b75" x="144" y="318.611345" style="stroke: #000000; stroke-width: 0.8"/>
      </g>
     </g>
     <g id="text_9">
      <!-- 10000 -->
      <g transform="translate(105.1875 322.410563)scale(0.1 -0.1)">
       <defs>
        <path id="DejaVuSans-31" d="M 794 531 
L 1825 531 
L 1825 4091 
L 703 3866 
L 703 4441 
L 1819 4666 
L 2450 4666 
L 2450 531 
L 3481 531 
L 3481 0 
L 794 0 
L 794 531 
z
" transform="scale(0.015625)"/>
       </defs>
       <use xlink:href="#DejaVuSans-31"/>
       <use xlink:href="#DejaVuSans-30" x="63.623047"/>
       <use xlink:href="#DejaVuSans-30" x="127.246094"/>
       <use xlink:href="#DejaVuSans-30" x="190.869141"/>
       <use xlink:href="#DejaVuSans-30" x="254.492188"/>
      </g>
     </g>
    </g>
    <g id="ytick_4">
     <g id="line2d_10">
      <g>
       <use xlink:href="#md01e898b75" x="144" y="232.960084" style="stroke: #000000; stroke-width: 0.8"/>
      </g>
     </g>
     <g id="text_10">
      <!-- 11000 -->
      <g transform="translate(105.1875 236.759303)scale(0.1 -0.1)">
       <use xlink:href="#DejaVuSans-31"/>
       <use xlink:href="#DejaVuSans-31" x="63.623047"/>
       <use xlink:href="#DejaVuSans-30" x="127.246094"/>
       <use xlink:href="#DejaVuSans-30" x="190.869141"/>
       <use xlink:href="#DejaVuSans-30" x="254.492188"/>
      </g>
     </g>
    </g>
    <g id="ytick_5">
     <g id="line2d_11">
      <g>
       <use xlink:href="#md01e898b75" x="144" y="147.308824" style="stroke: #000000; stroke-width: 0.8"/>
      </g>
     </g>
     <g id="text_11">
      <!-- 12000 -->
      <g transform="translate(105.1875 151.108042)scale(0.1 -0.1)">
       <use xlink:href="#DejaVuSans-31"/>
       <use xlink:href="#DejaVuSans-32" x="63.623047"/>
       <use xlink:href="#DejaVuSans-30" x="127.246094"/>
       <use xlink:href="#DejaVuSans-30" x="190.869141"/>
       <use xlink:href="#DejaVuSans-30" x="254.492188"/>
      </g>
     </g>
    </g>
   </g>
   <g id="patch_131">
    <path d="M 144 567 
L 144 77.76 
" style="fill: none; stroke: #000000; stroke-width: 0.8; stroke-linejoin: miter; stroke-linecap: square"/>
   </g>
   <g id="patch_132">
    <path d="M 1036.8 567 
L 1036.8 77.76 
" style="fill: none; stroke: #000000; stroke-width: 0.8; stroke-linejoin: miter; stroke-linecap: square"/>
   </g>
   <g id="patch_133">
    <path d="M 144 567 
L 1036.8 567 
" style="fill: none; stroke: #000000; stroke-width: 0.8; stroke-linejoin: miter; stroke-linecap: square"/>
   </g>
   <g id="patch_134">
    <path d="M 144 77.76 
L 1036.8 77.76 
" style="fill: none; stroke: #000000; stroke-width: 0.8; stroke-linejoin: miter; stroke-linecap: square"/>
   </g>
   <g id="text_12">
    <!-- 500_10_10_128_random155.9 -->
    <g transform="translate(499.7775 71.76)scale(0.12 -0.12)">
     <defs>
      <path id="DejaVuSans-5f" d="M 3263 -1063 
L 3263 -1509 
L -63 -1509 
L -63 -1063 
L 3263 -1063 
z
" transform="scale(0.015625)"/>
      <path id="DejaVuSans-72" d="M 2631 2963 
Q 2534 3019 2420 3045 
Q 2306 3072 2169 3072 
Q 1681 3072 1420 2755 
Q 1159 2438 1159 1844 
L 1159 0 
L 581 0 
L 581 3500 
L 1159 3500 
L 1159 2956 
Q 1341 3275 1631 3429 
Q 1922 3584 2338 3584 
Q 2397 3584 2469 3576 
Q 2541 3569 2628 3553 
L 2631 2963 
z
" transform="scale(0.015625)"/>
      <path id="DejaVuSans-61" d="M 2194 1759 
Q 1497 1759 1228 1600 
Q 959 1441 959 1056 
Q 959 750 1161 570 
Q 1363 391 1709 391 
Q 2188 391 2477 730 
Q 2766 1069 2766 1631 
L 2766 1759 
L 2194 1759 
z
M 3341 1997 
L 3341 0 
L 2766 0 
L 2766 531 
Q 2569 213 2275 61 
Q 1981 -91 1556 -91 
Q 1019 -91 701 211 
Q 384 513 384 1019 
Q 384 1609 779 1909 
Q 1175 2209 1959 2209 
L 2766 2209 
L 2766 2266 
Q 2766 2663 2505 2880 
Q 2244 3097 1772 3097 
Q 1472 3097 1187 3025 
Q 903 2953 641 2809 
L 641 3341 
Q 956 3463 1253 3523 
Q 1550 3584 1831 3584 
Q 2591 3584 2966 3190 
Q 3341 2797 3341 1997 
z
" transform="scale(0.015625)"/>
      <path id="DejaVuSans-6e" d="M 3513 2113 
L 3513 0 
L 2938 0 
L 2938 2094 
Q 2938 2591 2744 2837 
Q 2550 3084 2163 3084 
Q 1697 3084 1428 2787 
Q 1159 2491 1159 1978 
L 1159 0 
L 581 0 
L 581 3500 
L 1159 3500 
L 1159 2956 
Q 1366 3272 1645 3428 
Q 1925 3584 2291 3584 
Q 2894 3584 3203 3211 
Q 3513 2838 3513 2113 
z
" transform="scale(0.015625)"/>
      <path id="DejaVuSans-64" d="M 2906 2969 
L 2906 4863 
L 3481 4863 
L 3481 0 
L 2906 0 
L 2906 525 
Q 2725 213 2448 61 
Q 2172 -91 1784 -91 
Q 1150 -91 751 415 
Q 353 922 353 1747 
Q 353 2572 751 3078 
Q 1150 3584 1784 3584 
Q 2172 3584 2448 3432 
Q 2725 3281 2906 2969 
z
M 947 1747 
Q 947 1113 1208 752 
Q 1469 391 1925 391 
Q 2381 391 2643 752 
Q 2906 1113 2906 1747 
Q 2906 2381 2643 2742 
Q 2381 3103 1925 3103 
Q 1469 3103 1208 2742 
Q 947 2381 947 1747 
z
" transform="scale(0.015625)"/>
      <path id="DejaVuSans-6f" d="M 1959 3097 
Q 1497 3097 1228 2736 
Q 959 2375 959 1747 
Q 959 1119 1226 758 
Q 1494 397 1959 397 
Q 2419 397 2687 759 
Q 2956 1122 2956 1747 
Q 2956 2369 2687 2733 
Q 2419 3097 1959 3097 
z
M 1959 3584 
Q 2709 3584 3137 3096 
Q 3566 2609 3566 1747 
Q 3566 888 3137 398 
Q 2709 -91 1959 -91 
Q 1206 -91 779 398 
Q 353 888 353 1747 
Q 353 2609 779 3096 
Q 1206 3584 1959 3584 
z
" transform="scale(0.015625)"/>
      <path id="DejaVuSans-6d" d="M 3328 2828 
Q 3544 3216 3844 3400 
Q 4144 3584 4550 3584 
Q 5097 3584 5394 3201 
Q 5691 2819 5691 2113 
L 5691 0 
L 5113 0 
L 5113 2094 
Q 5113 2597 4934 2840 
Q 4756 3084 4391 3084 
Q 3944 3084 3684 2787 
Q 3425 2491 3425 1978 
L 3425 0 
L 2847 0 
L 2847 2094 
Q 2847 2600 2669 2842 
Q 2491 3084 2119 3084 
Q 1678 3084 1418 2786 
Q 1159 2488 1159 1978 
L 1159 0 
L 581 0 
L 581 3500 
L 1159 3500 
L 1159 2956 
Q 1356 3278 1631 3431 
Q 1906 3584 2284 3584 
Q 2666 3584 2933 3390 
Q 3200 3197 3328 2828 
z
" transform="scale(0.015625)"/>
      <path id="DejaVuSans-2e" d="M 684 794 
L 1344 794 
L 1344 0 
L 684 0 
L 684 794 
z
" transform="scale(0.015625)"/>
     </defs>
     <use xlink:href="#DejaVuSans-35"/>
     <use xlink:href="#DejaVuSans-30" x="63.623047"/>
     <use xlink:href="#DejaVuSans-30" x="127.246094"/>
     <use xlink:href="#DejaVuSans-5f" x="190.869141"/>
     <use xlink:href="#DejaVuSans-31" x="240.869141"/>
     <use xlink:href="#DejaVuSans-30" x="304.492188"/>
     <use xlink:href="#DejaVuSans-5f" x="368.115234"/>
     <use xlink:href="#DejaVuSans-31" x="418.115234"/>
     <use xlink:href="#DejaVuSans-30" x="481.738281"/>
     <use xlink:href="#DejaVuSans-5f" x="545.361328"/>
     <use xlink:href="#DejaVuSans-31" x="595.361328"/>
     <use xlink:href="#DejaVuSans-32" x="658.984375"/>
     <use xlink:href="#DejaVuSans-38" x="722.607422"/>
     <use xlink:href="#DejaVuSans-5f" x="786.230469"/>
     <use xlink:href="#DejaVuSans-72" x="836.230469"/>
     <use xlink:href="#DejaVuSans-61" x="877.34375"/>
     <use xlink:href="#DejaVuSans-6e" x="938.623047"/>
     <use xlink:href="#DejaVuSans-64" x="1002.001953"/>
     <use xlink:href="#DejaVuSans-6f" x="1065.478516"/>
     <use xlink:href="#DejaVuSans-6d" x="1126.660156"/>
     <use xlink:href="#DejaVuSans-31" x="1224.072266"/>
     <use xlink:href="#DejaVuSans-35" x="1287.695312"/>
     <use xlink:href="#DejaVuSans-35" x="1351.318359"/>
     <use xlink:href="#DejaVuSans-2e" x="1414.941406"/>
     <use xlink:href="#DejaVuSans-39" x="1446.728516"/>
    </g>
   </g>
  </g>
 </g>
 <defs>
  <clipPath id="pe3a604f081">
   <rect x="144" y="77.76" width="892.8" height="489.24"/>
  </clipPath>
 </defs>
</svg>
